<?xml version="1.0" encoding="UTF-8" standalone="no"?>
<!DOCTYPE svg PUBLIC "-//W3C//DTD SVG 1.1//EN"
 "http://www.w3.org/Graphics/SVG/1.1/DTD/svg11.dtd">
<!-- Generated by graphviz version 2.38.0 (20140413.2041)
 -->
<!-- Title: %3 Pages: 1 -->
<svg width="683pt" height="1010pt"
 viewBox="0.00 0.00 683.00 1010.31" xmlns="http://www.w3.org/2000/svg" xmlns:xlink="http://www.w3.org/1999/xlink">
<g id="graph0" class="graph" transform="scale(1 1) rotate(0) translate(4 1006.31)">
<title>%3</title>
<polygon fill="white" stroke="none" points="-4,4 -4,-1006.31 679,-1006.31 679,4 -4,4"/>
<!-- ext -->
<g id="node1" class="node"><title>ext</title>
<polygon fill="lightgray" stroke="black" points="382.5,-656.273 355.5,-656.273 355.5,-638.273 382.5,-638.273 382.5,-656.273"/>
<text text-anchor="middle" x="369" y="-645.073" font-family="Times,serif" font-size="9.00">ext</text>
</g>
<!-- uy -->
<g id="node8" class="node"><title>uy</title>
<ellipse fill="lightblue" stroke="black" cx="393" cy="-18.3848" rx="18.2703" ry="18.2703"/>
<text text-anchor="middle" x="393" y="-16.1848" font-family="Times,serif" font-size="9.00">uy</text>
</g>
<!-- ext&#45;&gt;uy -->
<g id="edge12" class="edge"><title>ext&#45;&gt;uy</title>
<path fill="none" stroke="green" stroke-width="0.915959" stroke-dasharray="1,5" d="M375.547,-638.216C394.653,-613.858 449,-538.224 449,-465.964 449,-465.964 449,-465.964 449,-190.501 449,-136.112 423.129,-76.6066 406.556,-44.0663"/>
<polygon fill="green" stroke="green" stroke-width="0.915959" points="409.483,-42.1108 401.75,-34.8688 403.279,-45.3527 409.483,-42.1108"/>
</g>
<!-- 32636 -->
<g id="node16" class="node"><title>32636</title>
<ellipse fill="white" stroke="black" cx="215" cy="-373.81" rx="27.6545" ry="27.6545"/>
<text text-anchor="middle" x="215" y="-371.61" font-family="Times,serif" font-size="9.00">32636</text>
</g>
<!-- ext&#45;&gt;32636 -->
<g id="edge14" class="edge"><title>ext&#45;&gt;32636</title>
<path fill="none" stroke="red" stroke-width="0.148297" d="M369.584,-638.11C370.666,-618.307 371.472,-566.545 354,-528.541 328.852,-473.84 277.198,-424.972 244.43,-397.679"/>
<polygon fill="red" stroke="red" stroke-width="0.148297" points="246.488,-394.841 236.533,-391.215 242.054,-400.258 246.488,-394.841"/>
</g>
<!-- 51388 -->
<g id="node24" class="node"><title>51388</title>
<ellipse fill="white" stroke="black" cx="317" cy="-556.118" rx="27.6545" ry="27.6545"/>
<text text-anchor="middle" x="317" y="-553.918" font-family="Times,serif" font-size="9.00">51388</text>
</g>
<!-- ext&#45;&gt;51388 -->
<g id="edge19" class="edge"><title>ext&#45;&gt;51388</title>
<path fill="none" stroke="green" stroke-width="0.264689" d="M364.201,-638.045C357.735,-626.959 345.856,-606.593 335.633,-589.065"/>
<polygon fill="green" stroke="green" stroke-width="0.264689" points="338.537,-587.097 330.476,-580.223 332.491,-590.624 338.537,-587.097"/>
</g>
<!-- eyt -->
<g id="node2" class="node"><title>eyt</title>
<polygon fill="lightgray" stroke="black" points="201.5,-656.273 174.5,-656.273 174.5,-638.273 201.5,-638.273 201.5,-656.273"/>
<text text-anchor="middle" x="188" y="-645.073" font-family="Times,serif" font-size="9.00">eyt</text>
</g>
<!-- 41989 -->
<g id="node12" class="node"><title>41989</title>
<ellipse fill="white" stroke="black" cx="225" cy="-464.964" rx="27.6545" ry="27.6545"/>
<text text-anchor="middle" x="225" y="-462.764" font-family="Times,serif" font-size="9.00">41989</text>
</g>
<!-- eyt&#45;&gt;41989 -->
<g id="edge10" class="edge"><title>eyt&#45;&gt;41989</title>
<path fill="none" stroke="red" stroke-width="0.288467" stroke-dasharray="1,5" d="M188.961,-638.215C191.319,-619.061 197.871,-569.355 207,-528.541 209.008,-519.564 211.558,-509.971 214.103,-501.061"/>
<polygon fill="red" stroke="red" stroke-width="0.288467" points="217.492,-501.941 216.945,-491.36 210.774,-499.973 217.492,-501.941"/>
</g>
<!-- eyt&#45;&gt;32636 -->
<g id="edge42" class="edge"><title>eyt&#45;&gt;32636</title>
<path fill="none" stroke="green" stroke-width="0.216525" stroke-dasharray="1,5" d="M186.84,-638.186C183.049,-610.068 172.156,-514.1 188,-437.387 190.06,-427.411 193.789,-417.067 197.83,-407.731"/>
<polygon fill="green" stroke="green" stroke-width="0.216525" points="201.111,-408.974 202.098,-398.425 194.748,-406.056 201.111,-408.974"/>
</g>
<!-- 59455 -->
<g id="node26" class="node"><title>59455</title>
<ellipse fill="white" stroke="black" cx="244" cy="-556.118" rx="27.6545" ry="27.6545"/>
<text text-anchor="middle" x="244" y="-553.918" font-family="Times,serif" font-size="9.00">59455</text>
</g>
<!-- eyt&#45;&gt;59455 -->
<g id="edge8" class="edge"><title>eyt&#45;&gt;59455</title>
<path fill="none" stroke="green" stroke-width="0.181356" d="M193.168,-638.045C200.177,-626.886 213.094,-606.322 224.152,-588.717"/>
<polygon fill="green" stroke="green" stroke-width="0.181356" points="227.369,-590.176 229.724,-579.846 221.441,-586.453 227.369,-590.176"/>
</g>
<!-- sf -->
<g id="node3" class="node"><title>sf</title>
<polygon fill="lightgray" stroke="black" points="460.5,-1002.31 437.5,-1002.31 437.5,-984.313 460.5,-984.313 460.5,-1002.31"/>
<text text-anchor="middle" x="449" y="-991.113" font-family="Times,serif" font-size="9.00">sf</text>
</g>
<!-- ux -->
<g id="node7" class="node"><title>ux</title>
<ellipse fill="lightblue" stroke="black" cx="403" cy="-920.736" rx="18.2703" ry="18.2703"/>
<text text-anchor="middle" x="403" y="-918.536" font-family="Times,serif" font-size="9.00">ux</text>
</g>
<!-- sf&#45;&gt;ux -->
<g id="edge40" class="edge"><title>sf&#45;&gt;ux</title>
<path fill="none" stroke="green" stroke-width="2.45128" d="M443.723,-984.217C437.528,-974.712 426.981,-958.53 418.173,-945.016"/>
<polygon fill="green" stroke="green" stroke-width="2.45128" points="421.092,-943.084 412.699,-936.617 415.227,-946.906 421.092,-943.084"/>
</g>
<!-- sf&#45;&gt;uy -->
<g id="edge29" class="edge"><title>sf&#45;&gt;uy</title>
<path fill="none" stroke="green" stroke-width="0.26416" d="M452.372,-984.056C461.672,-960.513 487,-890.863 487,-830.581 487,-830.581 487,-830.581 487,-190.501 487,-134.946 474.391,-119.914 445,-72.7696 436.818,-59.6457 424.94,-47.1388 414.601,-37.5339"/>
<polygon fill="green" stroke="green" stroke-width="0.26416" points="416.864,-34.8619 407.082,-30.7925 412.191,-40.0739 416.864,-34.8619"/>
</g>
<!-- 34199 -->
<g id="node11" class="node"><title>34199</title>
<ellipse fill="white" stroke="black" cx="413" cy="-829.581" rx="27.6545" ry="27.6545"/>
<text text-anchor="middle" x="413" y="-827.381" font-family="Times,serif" font-size="9.00">34199</text>
</g>
<!-- sf&#45;&gt;34199 -->
<g id="edge43" class="edge"><title>sf&#45;&gt;34199</title>
<path fill="none" stroke="green" stroke-width="0.289248" d="M447.677,-984.301C444.838,-967.382 437.781,-926.8 430,-893.159 427.976,-884.408 425.563,-875.034 423.199,-866.275"/>
<polygon fill="green" stroke="green" stroke-width="0.289248" points="426.496,-865.065 420.473,-856.349 419.746,-866.919 426.496,-865.065"/>
</g>
<!-- sl -->
<g id="node4" class="node"><title>sl</title>
<polygon fill="lightgray" stroke="black" points="564.5,-1002.31 541.5,-1002.31 541.5,-984.313 564.5,-984.313 564.5,-1002.31"/>
<text text-anchor="middle" x="553" y="-991.113" font-family="Times,serif" font-size="9.00">sl</text>
</g>
<!-- sl&#45;&gt;ux -->
<g id="edge31" class="edge"><title>sl&#45;&gt;ux</title>
<path fill="none" stroke="red" stroke-width="0.428915" stroke-dasharray="1,5" d="M541.23,-986.775C517.195,-975.466 461.974,-949.484 429.064,-933.999"/>
<polygon fill="red" stroke="red" stroke-width="0.428915" points="430.164,-930.649 419.626,-929.558 427.184,-936.983 430.164,-930.649"/>
</g>
<!-- sl&#45;&gt;uy -->
<g id="edge20" class="edge"><title>sl&#45;&gt;uy</title>
<path fill="none" stroke="red" stroke-width="0.401773" stroke-dasharray="1,5" d="M564.946,-986.683C579.152,-979.486 602.842,-965.831 618,-948.313 656.04,-904.351 675,-888.716 675,-830.581 675,-830.581 675,-830.581 675,-190.501 675,-72.845 493.367,-33.8249 421.641,-23.003"/>
<polygon fill="red" stroke="red" stroke-width="0.401773" points="421.898,-19.5042 411.503,-21.5524 420.906,-26.4336 421.898,-19.5042"/>
</g>
<!-- 27568 -->
<g id="node18" class="node"><title>27568</title>
<ellipse fill="white" stroke="black" cx="562" cy="-829.581" rx="27.6545" ry="27.6545"/>
<text text-anchor="middle" x="562" y="-827.381" font-family="Times,serif" font-size="9.00">27568</text>
</g>
<!-- sl&#45;&gt;27568 -->
<g id="edge39" class="edge"><title>sl&#45;&gt;27568</title>
<path fill="none" stroke="green" stroke-width="0.356949" stroke-dasharray="1,5" d="M550.847,-984.279C548.619,-975.515 545.288,-961.035 544,-948.313 541.531,-923.924 540.578,-917.432 544,-893.159 545.284,-884.049 547.571,-874.408 550.092,-865.494"/>
<polygon fill="green" stroke="green" stroke-width="0.356949" points="553.478,-866.389 552.999,-855.805 546.773,-864.378 553.478,-866.389"/>
</g>
<!-- 69078 -->
<g id="node21" class="node"><title>69078</title>
<ellipse fill="white" stroke="black" cx="581" cy="-920.736" rx="27.6545" ry="27.6545"/>
<text text-anchor="middle" x="581" y="-918.536" font-family="Times,serif" font-size="9.00">69078</text>
</g>
<!-- sl&#45;&gt;69078 -->
<g id="edge18" class="edge"><title>sl&#45;&gt;69078</title>
<path fill="none" stroke="green" stroke-width="0.350612" d="M556.212,-984.217C558.983,-977.231 563.186,-966.638 567.348,-956.148"/>
<polygon fill="green" stroke="green" stroke-width="0.350612" points="570.682,-957.236 571.116,-946.65 564.175,-954.654 570.682,-957.236"/>
</g>
<!-- sr -->
<g id="node5" class="node"><title>sr</title>
<polygon fill="lightgray" stroke="black" points="605.5,-1002.31 582.5,-1002.31 582.5,-984.313 605.5,-984.313 605.5,-1002.31"/>
<text text-anchor="middle" x="594" y="-991.113" font-family="Times,serif" font-size="9.00">sr</text>
</g>
<!-- &#45;6 -->
<g id="node6" class="node"><title>&#45;6</title>
<polygon fill="lightgray" stroke="black" points="169,-1002.31 145,-1002.31 145,-984.313 169,-984.313 169,-1002.31"/>
<text text-anchor="middle" x="157" y="-991.113" font-family="Times,serif" font-size="9.00">&#45;6</text>
</g>
<!-- &#45;6&#45;&gt;ux -->
<g id="edge16" class="edge"><title>&#45;6&#45;&gt;ux</title>
<path fill="none" stroke="red" stroke-width="0.501873" stroke-dasharray="1,5" d="M169.249,-991.856C203.06,-990.173 299.889,-982.482 371,-948.313 375.028,-946.378 378.978,-943.825 382.652,-941.067"/>
<polygon fill="red" stroke="red" stroke-width="0.501873" points="385.168,-943.528 390.634,-934.452 380.701,-938.138 385.168,-943.528"/>
</g>
<!-- 58855 -->
<g id="node14" class="node"><title>58855</title>
<ellipse fill="white" stroke="black" cx="56" cy="-464.964" rx="27.6545" ry="27.6545"/>
<text text-anchor="middle" x="56" y="-462.764" font-family="Times,serif" font-size="9.00">58855</text>
</g>
<!-- &#45;6&#45;&gt;58855 -->
<g id="edge45" class="edge"><title>&#45;6&#45;&gt;58855</title>
<path fill="none" stroke="red" stroke-width="0.194778" d="M144.702,-986.306C131.249,-979.109 110.006,-965.799 98,-948.313 67.2424,-903.513 65,-884.923 65,-830.581 65,-830.581 65,-830.581 65,-646.273 65,-596.494 61.5359,-539.08 58.906,-502.665"/>
<polygon fill="red" stroke="red" stroke-width="0.194778" points="62.384,-502.237 58.1557,-492.523 55.4031,-502.754 62.384,-502.237"/>
</g>
<!-- &#45;6&#45;&gt;32636 -->
<g id="edge27" class="edge"><title>&#45;6&#45;&gt;32636</title>
<path fill="none" stroke="red" stroke-width="0.300058" stroke-dasharray="1,5" d="M153.007,-984.12C141.993,-960.745 112,-891.494 112,-830.581 112,-830.581 112,-830.581 112,-555.118 112,-493.708 157.605,-434.189 188.123,-401.234"/>
<polygon fill="red" stroke="red" stroke-width="0.300058" points="190.8,-403.498 195.141,-393.834 185.72,-398.682 190.8,-403.498"/>
</g>
<!-- 41583 -->
<g id="node17" class="node"><title>41583</title>
<ellipse fill="white" stroke="black" cx="310" cy="-647.273" rx="27.6545" ry="27.6545"/>
<text text-anchor="middle" x="310" y="-645.073" font-family="Times,serif" font-size="9.00">41583</text>
</g>
<!-- &#45;6&#45;&gt;41583 -->
<g id="edge36" class="edge"><title>&#45;6&#45;&gt;41583</title>
<path fill="none" stroke="green" stroke-width="0.275343" d="M160.063,-983.85C172.666,-949.294 222.289,-815.747 274,-710.85 279.092,-700.521 285.165,-689.547 290.86,-679.72"/>
<polygon fill="green" stroke="green" stroke-width="0.275343" points="293.895,-681.463 295.945,-671.069 287.861,-677.916 293.895,-681.463"/>
</g>
<!-- 36598 -->
<g id="node20" class="node"><title>36598</title>
<ellipse fill="white" stroke="black" cx="393" cy="-464.964" rx="27.6545" ry="27.6545"/>
<text text-anchor="middle" x="393" y="-462.764" font-family="Times,serif" font-size="9.00">36598</text>
</g>
<!-- &#45;6&#45;&gt;36598 -->
<g id="edge17" class="edge"><title>&#45;6&#45;&gt;36598</title>
<path fill="none" stroke="green" stroke-width="0.318006" stroke-dasharray="1,5" d="M167.307,-984.181C208.05,-951.186 357.291,-822.014 391,-674.85 404.549,-615.7 401.241,-544.637 397.324,-502.502"/>
<polygon fill="green" stroke="green" stroke-width="0.318006" points="400.795,-502.043 396.324,-492.438 393.83,-502.734 400.795,-502.043"/>
</g>
<!-- 52826 -->
<g id="node22" class="node"><title>52826</title>
<ellipse fill="white" stroke="black" cx="47" cy="-373.81" rx="27.6545" ry="27.6545"/>
<text text-anchor="middle" x="47" y="-371.61" font-family="Times,serif" font-size="9.00">52826</text>
</g>
<!-- &#45;6&#45;&gt;52826 -->
<g id="edge38" class="edge"><title>&#45;6&#45;&gt;52826</title>
<path fill="none" stroke="green" stroke-width="0.556065" d="M144.726,-988.989C125.838,-983.349 89.385,-970.323 66,-948.313 22.3183,-907.2 0,-890.568 0,-830.581 0,-830.581 0,-830.581 0,-555.118 0,-502.116 3.82529,-488.17 19,-437.387 21.9337,-427.569 26.061,-417.277 30.2473,-407.941"/>
<polygon fill="green" stroke="green" stroke-width="0.556065" points="33.5401,-409.16 34.5836,-398.617 27.193,-406.208 33.5401,-409.16"/>
</g>
<!-- ux&#45;&gt;34199 -->
<g id="edge34" class="edge"><title>ux&#45;&gt;34199</title>
<path fill="none" stroke="red" stroke-width="0.173742" d="M404.976,-902.122C406.085,-892.231 407.513,-879.503 408.855,-867.532"/>
<polygon fill="red" stroke="red" stroke-width="0.173742" points="412.367,-867.624 410.003,-857.297 405.411,-866.844 412.367,-867.624"/>
</g>
<!-- 47233 -->
<g id="node9" class="node"><title>47233</title>
<ellipse fill="white" stroke="black" cx="600" cy="-556.118" rx="27.6545" ry="27.6545"/>
<text text-anchor="middle" x="600" y="-553.918" font-family="Times,serif" font-size="9.00">47233</text>
</g>
<!-- 50979 -->
<g id="node10" class="node"><title>50979</title>
<ellipse fill="white" stroke="black" cx="286" cy="-100.347" rx="27.6545" ry="27.6545"/>
<text text-anchor="middle" x="286" y="-98.1467" font-family="Times,serif" font-size="9.00">50979</text>
</g>
<!-- 50979&#45;&gt;uy -->
<g id="edge4" class="edge"><title>50979&#45;&gt;uy</title>
<path fill="none" stroke="green" stroke-width="0.163561" d="M307.653,-83.1652C325.893,-69.5343 351.898,-50.1004 370.401,-36.2735"/>
<polygon fill="green" stroke="green" stroke-width="0.163561" points="372.651,-38.9613 378.566,-30.1714 368.46,-33.354 372.651,-38.9613"/>
</g>
<!-- 34199&#45;&gt;41583 -->
<g id="edge9" class="edge"><title>34199&#45;&gt;41583</title>
<path fill="none" stroke="green" stroke-width="0.480698" stroke-dasharray="1,5" d="M400.334,-804.967C387.436,-781.081 366.727,-743.173 348,-710.85 342.097,-700.661 335.49,-689.652 329.462,-679.75"/>
<polygon fill="green" stroke="green" stroke-width="0.480698" points="332.328,-677.728 324.125,-671.023 326.356,-681.38 332.328,-677.728"/>
</g>
<!-- 55187 -->
<g id="node19" class="node"><title>55187</title>
<ellipse fill="white" stroke="black" cx="311" cy="-738.427" rx="27.6545" ry="27.6545"/>
<text text-anchor="middle" x="311" y="-736.227" font-family="Times,serif" font-size="9.00">55187</text>
</g>
<!-- 34199&#45;&gt;55187 -->
<g id="edge37" class="edge"><title>34199&#45;&gt;55187</title>
<path fill="none" stroke="red" stroke-width="0.395687" d="M392.359,-810.54C377.051,-797.159 356.005,-778.764 339.154,-764.036"/>
<polygon fill="red" stroke="red" stroke-width="0.395687" points="341.095,-761.083 331.262,-757.138 336.488,-766.354 341.095,-761.083"/>
</g>
<!-- 41989&#45;&gt;32636 -->
<g id="edge46" class="edge"><title>41989&#45;&gt;32636</title>
<path fill="none" stroke="red" stroke-width="0.294595" d="M222,-437.215C221.082,-429.031 220.056,-419.887 219.079,-411.176"/>
<polygon fill="red" stroke="red" stroke-width="0.294595" points="222.557,-410.78 217.964,-401.233 215.6,-411.561 222.557,-410.78"/>
</g>
<!-- 28838 -->
<g id="node13" class="node"><title>28838</title>
<ellipse fill="white" stroke="black" cx="581" cy="-738.427" rx="27.6545" ry="27.6545"/>
<text text-anchor="middle" x="581" y="-736.227" font-family="Times,serif" font-size="9.00">28838</text>
</g>
<!-- 28838&#45;&gt;47233 -->
<g id="edge3" class="edge"><title>28838&#45;&gt;47233</title>
<path fill="none" stroke="green" stroke-width="0.186619" stroke-dasharray="1,5" d="M597.461,-716.148C605.344,-704.61 613.938,-689.702 618,-674.85 625.494,-647.451 619.762,-615.556 612.84,-591.879"/>
<polygon fill="green" stroke="green" stroke-width="0.186619" points="616.161,-590.772 609.836,-582.273 609.48,-592.862 616.161,-590.772"/>
</g>
<!-- 53286 -->
<g id="node15" class="node"><title>53286</title>
<ellipse fill="white" stroke="black" cx="581" cy="-647.273" rx="27.6545" ry="27.6545"/>
<text text-anchor="middle" x="581" y="-645.073" font-family="Times,serif" font-size="9.00">53286</text>
</g>
<!-- 28838&#45;&gt;53286 -->
<g id="edge25" class="edge"><title>28838&#45;&gt;53286</title>
<path fill="none" stroke="green" stroke-width="0.469558" d="M581,-710.678C581,-702.656 581,-693.711 581,-685.156"/>
<polygon fill="green" stroke="green" stroke-width="0.469558" points="584.5,-685.003 581,-675.003 577.5,-685.003 584.5,-685.003"/>
</g>
<!-- 58855&#45;&gt;50979 -->
<g id="edge1" class="edge"><title>58855&#45;&gt;50979</title>
<path fill="none" stroke="red" stroke-width="0.319799" d="M70.143,-440.847C101.139,-390.304 177.598,-266.294 244,-163.924 250.774,-153.481 258.313,-142.158 265.114,-132.051"/>
<polygon fill="red" stroke="red" stroke-width="0.319799" points="268.168,-133.781 270.862,-123.535 262.366,-129.865 268.168,-133.781"/>
</g>
<!-- 58855&#45;&gt;32636 -->
<g id="edge30" class="edge"><title>58855&#45;&gt;32636</title>
<path fill="none" stroke="green" stroke-width="0.134943" d="M78.9207,-449.036C85.0629,-445.152 91.7376,-441.036 98,-437.387 125.761,-421.209 158.004,-404.083 181.604,-391.845"/>
<polygon fill="green" stroke="green" stroke-width="0.134943" points="183.235,-394.941 190.514,-387.243 180.023,-388.722 183.235,-394.941"/>
</g>
<!-- 53286&#45;&gt;47233 -->
<g id="edge21" class="edge"><title>53286&#45;&gt;47233</title>
<path fill="none" stroke="green" stroke-width="0.873221" d="M586.598,-620.006C588.395,-611.572 590.418,-602.079 592.337,-593.074"/>
<polygon fill="green" stroke="green" stroke-width="0.873221" points="595.781,-593.708 594.442,-583.198 588.935,-592.248 595.781,-593.708"/>
</g>
<!-- 32636&#45;&gt;uy -->
<g id="edge44" class="edge"><title>32636&#45;&gt;uy</title>
<path fill="none" stroke="red" stroke-width="0.32117" stroke-dasharray="1,5" d="M209.521,-346.485C199.309,-289.628 183.889,-153.944 249,-72.7696 277.301,-37.4867 331.327,-25.5227 364.557,-21.4659"/>
<polygon fill="red" stroke="red" stroke-width="0.32117" points="364.98,-24.9408 374.556,-20.4071 364.243,-17.9797 364.98,-24.9408"/>
</g>
<!-- 39707 -->
<g id="node23" class="node"><title>39707</title>
<ellipse fill="white" stroke="black" cx="281" cy="-191.501" rx="27.6545" ry="27.6545"/>
<text text-anchor="middle" x="281" y="-189.301" font-family="Times,serif" font-size="9.00">39707</text>
</g>
<!-- 32636&#45;&gt;39707 -->
<g id="edge2" class="edge"><title>32636&#45;&gt;39707</title>
<path fill="none" stroke="green" stroke-width="0.120028" stroke-dasharray="1,5" d="M219.219,-346.398C223.634,-322.072 231.663,-285.284 244,-255.078 248.421,-244.254 254.487,-233.069 260.43,-223.202"/>
<polygon fill="green" stroke="green" stroke-width="0.120028" points="263.495,-224.9 265.801,-214.559 257.55,-221.205 263.495,-224.9"/>
</g>
<!-- 54109 -->
<g id="node25" class="node"><title>54109</title>
<ellipse fill="white" stroke="black" cx="281" cy="-282.655" rx="27.6545" ry="27.6545"/>
<text text-anchor="middle" x="281" y="-280.455" font-family="Times,serif" font-size="9.00">54109</text>
</g>
<!-- 32636&#45;&gt;54109 -->
<g id="edge15" class="edge"><title>32636&#45;&gt;54109</title>
<path fill="none" stroke="red" stroke-width="0.459227" d="M230.977,-351.228C239.346,-339.923 249.727,-325.9 258.859,-313.564"/>
<polygon fill="red" stroke="red" stroke-width="0.459227" points="261.805,-315.467 264.942,-305.347 256.179,-311.302 261.805,-315.467"/>
</g>
<!-- 41583&#45;&gt;51388 -->
<g id="edge41" class="edge"><title>41583&#45;&gt;51388</title>
<path fill="none" stroke="red" stroke-width="0.321254" d="M312.1,-619.523C312.73,-611.501 313.432,-602.557 314.104,-594.002"/>
<polygon fill="red" stroke="red" stroke-width="0.321254" points="317.608,-594.092 314.901,-583.849 310.629,-593.544 317.608,-594.092"/>
</g>
<!-- 27568&#45;&gt;uy -->
<g id="edge7" class="edge"><title>27568&#45;&gt;uy</title>
<path fill="none" stroke="green" stroke-width="0.473806" d="M553.418,-803.239C542.488,-768.648 525,-704.515 525,-648.273 525,-648.273 525,-648.273 525,-190.501 525,-137.1 533.589,-115.073 501,-72.7696 481.231,-47.1081 445.854,-32.9571 420.989,-25.7815"/>
<polygon fill="green" stroke="green" stroke-width="0.473806" points="421.617,-22.3265 411.052,-23.1201 419.806,-29.0882 421.617,-22.3265"/>
</g>
<!-- 27568&#45;&gt;28838 -->
<g id="edge23" class="edge"><title>27568&#45;&gt;28838</title>
<path fill="none" stroke="green" stroke-width="0.335045" stroke-dasharray="1,5" d="M567.598,-802.314C569.395,-793.88 571.418,-784.388 573.337,-775.383"/>
<polygon fill="green" stroke="green" stroke-width="0.335045" points="576.781,-776.016 575.442,-765.506 569.935,-774.557 576.781,-776.016"/>
</g>
<!-- 55187&#45;&gt;41583 -->
<g id="edge11" class="edge"><title>55187&#45;&gt;41583</title>
<path fill="none" stroke="red" stroke-width="0.255255" d="M310.7,-710.678C310.61,-702.656 310.51,-693.711 310.414,-685.156"/>
<polygon fill="red" stroke="red" stroke-width="0.255255" points="313.912,-684.963 310.3,-675.003 306.912,-685.042 313.912,-684.963"/>
</g>
<!-- 36598&#45;&gt;uy -->
<g id="edge32" class="edge"><title>36598&#45;&gt;uy</title>
<path fill="none" stroke="red" stroke-width="0.391096" d="M393,-437.385C393,-402.214 393,-338.28 393,-283.655 393,-283.655 393,-283.655 393,-190.501 393,-139.837 393,-80.7344 393,-46.9214"/>
<polygon fill="red" stroke="red" stroke-width="0.391096" points="396.5,-46.8745 393,-36.8746 389.5,-46.8746 396.5,-46.8745"/>
</g>
<!-- 69078&#45;&gt;27568 -->
<g id="edge28" class="edge"><title>69078&#45;&gt;27568</title>
<path fill="none" stroke="green" stroke-width="0.432827" d="M575.402,-893.469C573.605,-885.035 571.582,-875.542 569.663,-866.537"/>
<polygon fill="green" stroke="green" stroke-width="0.432827" points="573.065,-865.711 567.558,-856.661 566.219,-867.171 573.065,-865.711"/>
</g>
<!-- 52826&#45;&gt;uy -->
<g id="edge13" class="edge"><title>52826&#45;&gt;uy</title>
<path fill="none" stroke="red" stroke-width="0.488452" d="M54.2278,-346.742C71.7072,-288.578 121.849,-147.464 215,-72.7696 259.099,-37.4082 326.21,-25.4439 364.179,-21.4141"/>
<polygon fill="red" stroke="red" stroke-width="0.488452" points="364.894,-24.8622 374.521,-20.4378 364.236,-17.8932 364.894,-24.8622"/>
</g>
<!-- 39707&#45;&gt;uy -->
<g id="edge24" class="edge"><title>39707&#45;&gt;uy</title>
<path fill="none" stroke="green" stroke-width="0.124383" stroke-dasharray="1,5" d="M296.067,-168.267C304.113,-156.339 314.154,-141.368 323,-127.924 342.196,-98.7495 363.945,-64.8988 378.035,-42.8608"/>
<polygon fill="green" stroke="green" stroke-width="0.124383" points="381.141,-44.4989 383.575,-34.1872 375.242,-40.7309 381.141,-44.4989"/>
</g>
<!-- 39707&#45;&gt;50979 -->
<g id="edge33" class="edge"><title>39707&#45;&gt;50979</title>
<path fill="none" stroke="red" stroke-width="0.381534" d="M282.5,-163.752C282.95,-155.73 283.452,-146.785 283.931,-138.23"/>
<polygon fill="red" stroke="red" stroke-width="0.381534" points="287.435,-138.257 284.501,-128.077 280.446,-137.865 287.435,-138.257"/>
</g>
<!-- 51388&#45;&gt;50979 -->
<g id="edge6" class="edge"><title>51388&#45;&gt;50979</title>
<path fill="none" stroke="red" stroke-width="0.129664" d="M321.74,-528.942C327.654,-493.947 337,-429.927 337,-374.81 337,-374.81 337,-374.81 337,-281.655 337,-228.653 334.489,-214.296 318,-163.924 314.605,-153.554 309.678,-142.793 304.703,-133.18"/>
<polygon fill="red" stroke="red" stroke-width="0.129664" points="307.783,-131.518 299.966,-124.365 301.616,-134.831 307.783,-131.518"/>
</g>
<!-- 51388&#45;&gt;41989 -->
<g id="edge22" class="edge"><title>51388&#45;&gt;41989</title>
<path fill="none" stroke="red" stroke-width="0.189548" d="M297.489,-536.211C284.194,-523.327 266.42,-506.103 251.8,-491.935"/>
<polygon fill="red" stroke="red" stroke-width="0.189548" points="254.1,-489.29 244.483,-484.844 249.228,-494.317 254.1,-489.29"/>
</g>
<!-- 51388&#45;&gt;36598 -->
<g id="edge5" class="edge"><title>51388&#45;&gt;36598</title>
<path fill="none" stroke="green" stroke-width="0.731118" d="M334.627,-534.44C344.795,-522.513 357.725,-507.344 368.831,-494.317"/>
<polygon fill="green" stroke="green" stroke-width="0.731118" points="371.645,-496.411 375.469,-486.53 366.318,-491.869 371.645,-496.411"/>
</g>
<!-- 54109&#45;&gt;39707 -->
<g id="edge35" class="edge"><title>54109&#45;&gt;39707</title>
<path fill="none" stroke="green" stroke-width="0.102591" d="M281,-254.906C281,-246.884 281,-237.939 281,-229.385"/>
<polygon fill="green" stroke="green" stroke-width="0.102591" points="284.5,-229.231 281,-219.231 277.5,-229.231 284.5,-229.231"/>
</g>
<!-- 59455&#45;&gt;41989 -->
<g id="edge26" class="edge"><title>59455&#45;&gt;41989</title>
<path fill="none" stroke="green" stroke-width="0.330837" d="M238.402,-528.851C236.605,-520.417 234.582,-510.925 232.663,-501.92"/>
<polygon fill="green" stroke="green" stroke-width="0.330837" points="236.065,-501.094 230.558,-492.043 229.219,-502.553 236.065,-501.094"/>
</g>
</g>
</svg>
