<?xml version="1.0" encoding="UTF-8" standalone="no"?>
<!DOCTYPE svg PUBLIC "-//W3C//DTD SVG 1.1//EN"
 "http://www.w3.org/Graphics/SVG/1.1/DTD/svg11.dtd">
<!-- Generated by graphviz version 2.38.0 (20140413.2041)
 -->
<!-- Title: %3 Pages: 1 -->
<svg width="690pt" height="669pt"
 viewBox="0.00 0.00 690.00 668.97" xmlns="http://www.w3.org/2000/svg" xmlns:xlink="http://www.w3.org/1999/xlink">
<g id="graph0" class="graph" transform="scale(1 1) rotate(0) translate(4 664.968)">
<title>%3</title>
<polygon fill="white" stroke="none" points="-4,4 -4,-664.968 686,-664.968 686,4 -4,4"/>
<!-- ext -->
<g id="node1" class="node"><title>ext</title>
<polygon fill="lightgray" stroke="black" points="200.5,-660.968 173.5,-660.968 173.5,-642.968 200.5,-642.968 200.5,-660.968"/>
<text text-anchor="middle" x="187" y="-649.768" font-family="Times,serif" font-size="9.00">ext</text>
</g>
<!-- ux -->
<g id="node7" class="node"><title>ux</title>
<ellipse fill="lightblue" stroke="black" cx="358" cy="-339.161" rx="18.2703" ry="18.2703"/>
<text text-anchor="middle" x="358" y="-336.961" font-family="Times,serif" font-size="9.00">ux</text>
</g>
<!-- ext&#45;&gt;ux -->
<g id="edge3" class="edge"><title>ext&#45;&gt;ux</title>
<path fill="none" stroke="green" stroke-width="0.486552" d="M188.401,-642.56C194.441,-608.368 220.911,-477.578 285,-393.546 297.894,-376.64 317.574,-362.681 333.253,-353.283"/>
<polygon fill="green" stroke="green" stroke-width="0.486552" points="335.015,-356.307 341.94,-348.288 331.526,-350.238 335.015,-356.307"/>
</g>
<!-- uy -->
<g id="node8" class="node"><title>uy</title>
<ellipse fill="lightblue" stroke="black" cx="190" cy="-18.3848" rx="18.2703" ry="18.2703"/>
<text text-anchor="middle" x="190" y="-16.1848" font-family="Times,serif" font-size="9.00">uy</text>
</g>
<!-- ext&#45;&gt;uy -->
<g id="edge30" class="edge"><title>ext&#45;&gt;uy</title>
<path fill="none" stroke="green" stroke-width="0.114699" d="M176.759,-642.955C143.095,-615.636 38,-522.111 38,-419.295 38,-419.295 38,-419.295 38,-171.409 38,-124.891 41.5701,-107.063 73,-72.7696 96.8384,-46.759 135.828,-32.5186 162.18,-25.4283"/>
<polygon fill="green" stroke="green" stroke-width="0.114699" points="163.098,-28.8065 171.942,-22.9719 161.39,-22.0182 163.098,-28.8065"/>
</g>
<!-- 53 -->
<g id="node13" class="node"><title>53</title>
<ellipse fill="white" stroke="black" cx="332" cy="-588.583" rx="18.2703" ry="18.2703"/>
<text text-anchor="middle" x="332" y="-586.383" font-family="Times,serif" font-size="9.00">53</text>
</g>
<!-- ext&#45;&gt;53 -->
<g id="edge20" class="edge"><title>ext&#45;&gt;53</title>
<path fill="none" stroke="red" stroke-width="0.210074" d="M200.641,-645.193C224.688,-635.013 274.992,-613.717 305.898,-600.633"/>
<polygon fill="red" stroke="red" stroke-width="0.210074" points="307.349,-603.82 315.193,-596.698 304.62,-597.373 307.349,-603.82"/>
</g>
<!-- eyt -->
<g id="node2" class="node"><title>eyt</title>
<polygon fill="lightgray" stroke="black" points="70.5,-660.968 43.5,-660.968 43.5,-642.968 70.5,-642.968 70.5,-660.968"/>
<text text-anchor="middle" x="57" y="-649.768" font-family="Times,serif" font-size="9.00">eyt</text>
</g>
<!-- eyt&#45;&gt;ux -->
<g id="edge16" class="edge"><title>eyt&#45;&gt;ux</title>
<path fill="none" stroke="green" stroke-width="0.275675" d="M61.2616,-642.745C79.5265,-608.18 154.622,-472.791 250,-393.546 274.384,-373.287 307.753,-358.304 330.92,-349.451"/>
<polygon fill="green" stroke="green" stroke-width="0.275675" points="332.302,-352.671 340.472,-345.926 329.879,-346.104 332.302,-352.671"/>
</g>
<!-- eyt&#45;&gt;uy -->
<g id="edge18" class="edge"><title>eyt&#45;&gt;uy</title>
<path fill="none" stroke="green" stroke-width="0.448474" d="M51.1147,-642.704C36.5513,-621.417 0,-562.524 0,-507.621 0,-507.621 0,-507.621 0,-171.409 0,-123.933 6.60244,-105.492 41,-72.7696 74.5935,-40.8115 128.636,-27.7893 161.575,-22.6249"/>
<polygon fill="green" stroke="green" stroke-width="0.448474" points="162.071,-26.0896 171.476,-21.2101 161.081,-19.16 162.071,-26.0896"/>
</g>
<!-- 419 -->
<g id="node9" class="node"><title>419</title>
<ellipse fill="white" stroke="black" cx="103" cy="-93.9828" rx="21.4286" ry="21.4286"/>
<text text-anchor="middle" x="103" y="-91.7828" font-family="Times,serif" font-size="9.00">419</text>
</g>
<!-- eyt&#45;&gt;419 -->
<g id="edge6" class="edge"><title>eyt&#45;&gt;419</title>
<path fill="none" stroke="green" stroke-width="0.679712" d="M58.1885,-642.573C62.3481,-612.439 76,-506.867 76,-419.295 76,-419.295 76,-419.295 76,-256.2 76,-209.796 87.0155,-156.898 94.9745,-124.734"/>
<polygon fill="green" stroke="green" stroke-width="0.679712" points="98.4636,-125.214 97.5361,-114.66 91.6795,-123.489 98.4636,-125.214"/>
</g>
<!-- eyt&#45;&gt;53 -->
<g id="edge11" class="edge"><title>eyt&#45;&gt;53</title>
<path fill="none" stroke="red" stroke-width="0.289035" d="M70.6373,-647.924C113.489,-638.358 246.024,-608.774 304.172,-595.795"/>
<polygon fill="red" stroke="red" stroke-width="0.289035" points="305.128,-599.167 314.125,-593.573 303.603,-592.335 305.128,-599.167"/>
</g>
<!-- sf -->
<g id="node3" class="node"><title>sf</title>
<polygon fill="lightgray" stroke="black" points="241.5,-660.968 218.5,-660.968 218.5,-642.968 241.5,-642.968 241.5,-660.968"/>
<text text-anchor="middle" x="230" y="-649.768" font-family="Times,serif" font-size="9.00">sf</text>
</g>
<!-- sf&#45;&gt;ux -->
<g id="edge26" class="edge"><title>sf&#45;&gt;ux</title>
<path fill="none" stroke="green" stroke-width="0.612881" d="M231.342,-642.922C237.057,-610.13 261.414,-484.023 312,-393.546 318.81,-381.366 328.683,-369.442 337.539,-359.963"/>
<polygon fill="green" stroke="green" stroke-width="0.612881" points="340.204,-362.243 344.648,-352.625 335.176,-357.372 340.204,-362.243"/>
</g>
<!-- sf&#45;&gt;uy -->
<g id="edge22" class="edge"><title>sf&#45;&gt;uy</title>
<path fill="none" stroke="green" stroke-width="0.117201" d="M221.653,-642.781C201.531,-622.128 152,-565.419 152,-507.621 152,-507.621 152,-507.621 152,-171.409 152,-125.901 168.225,-74.9561 179.471,-45.1098"/>
<polygon fill="green" stroke="green" stroke-width="0.117201" points="182.854,-46.0652 183.206,-35.4762 176.328,-43.5345 182.854,-46.0652"/>
</g>
<!-- sf&#45;&gt;53 -->
<g id="edge10" class="edge"><title>sf&#45;&gt;53</title>
<path fill="none" stroke="green" stroke-width="0.240134" d="M241.701,-643.926C257.746,-634.27 286.959,-616.689 307.814,-604.139"/>
<polygon fill="green" stroke="green" stroke-width="0.240134" points="309.69,-607.094 316.453,-598.939 306.08,-601.097 309.69,-607.094"/>
</g>
<!-- sl -->
<g id="node4" class="node"><title>sl</title>
<polygon fill="lightgray" stroke="black" points="383.5,-660.968 360.5,-660.968 360.5,-642.968 383.5,-642.968 383.5,-660.968"/>
<text text-anchor="middle" x="372" y="-649.768" font-family="Times,serif" font-size="9.00">sl</text>
</g>
<!-- sl&#45;&gt;uy -->
<g id="edge29" class="edge"><title>sl&#45;&gt;uy</title>
<path fill="none" stroke="green" stroke-width="0.518753" d="M380.907,-642.89C408.895,-616.952 495.602,-532.25 536,-443.044 555.182,-400.686 555,-386.66 555,-340.161 555,-340.161 555,-340.161 555,-171.409 555,-98.5032 303.705,-41.9186 218.137,-24.7643"/>
<polygon fill="green" stroke="green" stroke-width="0.518753" points="218.589,-21.286 208.1,-22.7815 217.232,-28.1533 218.589,-21.286"/>
</g>
<!-- sl&#45;&gt;53 -->
<g id="edge27" class="edge"><title>sl&#45;&gt;53</title>
<path fill="none" stroke="red" stroke-width="0.127504" d="M366.771,-642.943C361.807,-635.326 354.102,-623.501 347.205,-612.917"/>
<polygon fill="red" stroke="red" stroke-width="0.127504" points="350.072,-610.905 341.68,-604.437 344.207,-614.727 350.072,-610.905"/>
</g>
<!-- sr -->
<g id="node5" class="node"><title>sr</title>
<polygon fill="lightgray" stroke="black" points="465.5,-660.968 442.5,-660.968 442.5,-642.968 465.5,-642.968 465.5,-660.968"/>
<text text-anchor="middle" x="454" y="-649.768" font-family="Times,serif" font-size="9.00">sr</text>
</g>
<!-- sr&#45;&gt;ux -->
<g id="edge1" class="edge"><title>sr&#45;&gt;ux</title>
<path fill="none" stroke="red" stroke-width="0.479961" d="M453.085,-642.618C449.255,-609.688 432.771,-486.096 392,-393.546 387.3,-382.878 380.656,-371.883 374.487,-362.665"/>
<polygon fill="red" stroke="red" stroke-width="0.479961" points="377.364,-360.672 368.796,-354.44 371.608,-364.655 377.364,-360.672"/>
</g>
<!-- sr&#45;&gt;uy -->
<g id="edge19" class="edge"><title>sr&#45;&gt;uy</title>
<path fill="none" stroke="red" stroke-width="0.357248" d="M459.663,-642.885C493.027,-594.2 659.434,-335.914 569,-151.196 544.01,-100.152 519.777,-96.2021 468,-72.7696 382.727,-34.1779 270.467,-23.4603 218.571,-20.502"/>
<polygon fill="red" stroke="red" stroke-width="0.357248" points="218.612,-16.9995 208.445,-19.9813 218.252,-23.9903 218.612,-16.9995"/>
</g>
<!-- sr&#45;&gt;53 -->
<g id="edge5" class="edge"><title>sr&#45;&gt;53</title>
<path fill="none" stroke="red" stroke-width="0.458162" d="M442.302,-645.082C422.841,-635.29 383.383,-615.436 357.322,-602.324"/>
<polygon fill="red" stroke="red" stroke-width="0.458162" points="358.565,-599.031 348.059,-597.663 355.419,-605.284 358.565,-599.031"/>
</g>
<!-- &#45;6 -->
<g id="node6" class="node"><title>&#45;6</title>
<polygon fill="lightgray" stroke="black" points="618,-660.968 594,-660.968 594,-642.968 618,-642.968 618,-660.968"/>
<text text-anchor="middle" x="606" y="-649.768" font-family="Times,serif" font-size="9.00">&#45;6</text>
</g>
<!-- &#45;6&#45;&gt;ux -->
<g id="edge23" class="edge"><title>&#45;6&#45;&gt;ux</title>
<path fill="none" stroke="red" stroke-width="0.263643" stroke-dasharray="1,5" d="M598.477,-642.729C590.633,-634.032 578.098,-619.828 568,-606.968 496.086,-515.374 493.035,-480.877 416,-393.546 404.927,-380.993 391.195,-368.249 379.872,-358.362"/>
<polygon fill="red" stroke="red" stroke-width="0.263643" points="381.993,-355.57 372.126,-351.711 377.433,-360.881 381.993,-355.57"/>
</g>
<!-- &#45;6&#45;&gt;uy -->
<g id="edge4" class="edge"><title>&#45;6&#45;&gt;uy</title>
<path fill="none" stroke="red" stroke-width="0.733902" d="M614.133,-642.74C633.739,-621.992 682,-565.084 682,-507.621 682,-507.621 682,-507.621 682,-171.409 682,-73.7306 323.528,-32.0401 218.554,-21.9256"/>
<polygon fill="red" stroke="red" stroke-width="0.733902" points="218.673,-18.4214 208.389,-20.9694 218.017,-25.3907 218.673,-18.4214"/>
</g>
<!-- 372 -->
<g id="node12" class="node"><title>372</title>
<ellipse fill="white" stroke="black" cx="414" cy="-172.409" rx="21.4286" ry="21.4286"/>
<text text-anchor="middle" x="414" y="-170.209" font-family="Times,serif" font-size="9.00">372</text>
</g>
<!-- &#45;6&#45;&gt;372 -->
<g id="edge28" class="edge"><title>&#45;6&#45;&gt;372</title>
<path fill="none" stroke="green" stroke-width="0.324034" stroke-dasharray="1,5" d="M606.136,-642.624C606.401,-609.715 604.826,-486.192 569,-393.546 537.601,-312.349 469.845,-232.777 435.255,-195.446"/>
<polygon fill="green" stroke="green" stroke-width="0.324034" points="437.795,-193.037 428.403,-188.135 432.688,-197.825 437.795,-193.037"/>
</g>
<!-- &#45;6&#45;&gt;53 -->
<g id="edge2" class="edge"><title>&#45;6&#45;&gt;53</title>
<path fill="none" stroke="red" stroke-width="0.319107" d="M593.873,-648.251C552.825,-639.055 418.41,-608.941 359.772,-595.805"/>
<polygon fill="red" stroke="red" stroke-width="0.319107" points="360.268,-592.329 349.745,-593.558 358.738,-599.16 360.268,-592.329"/>
</g>
<!-- 7477 -->
<g id="node14" class="node"><title>7477</title>
<ellipse fill="white" stroke="black" cx="502" cy="-418.295" rx="25" ry="25"/>
<text text-anchor="middle" x="502" y="-416.095" font-family="Times,serif" font-size="9.00">7477</text>
</g>
<!-- &#45;6&#45;&gt;7477 -->
<g id="edge9" class="edge"><title>&#45;6&#45;&gt;7477</title>
<path fill="none" stroke="green" stroke-width="0.23341" d="M602.299,-642.722C588.605,-612.217 540.357,-504.74 516.118,-450.744"/>
<polygon fill="green" stroke="green" stroke-width="0.23341" points="519.174,-449.005 511.885,-441.315 512.788,-451.872 519.174,-449.005"/>
</g>
<!-- 14792 -->
<g id="node10" class="node"><title>14792</title>
<ellipse fill="white" stroke="black" cx="358" cy="-257.2" rx="27.6545" ry="27.6545"/>
<text text-anchor="middle" x="358" y="-255" font-family="Times,serif" font-size="9.00">14792</text>
</g>
<!-- ux&#45;&gt;14792 -->
<g id="edge15" class="edge"><title>ux&#45;&gt;14792</title>
<path fill="none" stroke="green" stroke-width="0.455291" d="M358,-320.415C358,-312.941 358,-303.948 358,-295.151"/>
<polygon fill="green" stroke="green" stroke-width="0.455291" points="361.5,-295.017 358,-285.017 354.5,-295.017 361.5,-295.017"/>
</g>
<!-- ux&#45;&gt;372 -->
<g id="edge25" class="edge"><title>ux&#45;&gt;372</title>
<path fill="none" stroke="green" stroke-width="0.285197" stroke-dasharray="1,5" d="M369.877,-324.651C378.227,-314.406 388.949,-299.602 395,-284.777 405.622,-258.753 410.306,-226.967 412.371,-204.024"/>
<polygon fill="green" stroke="green" stroke-width="0.285197" points="415.876,-204.09 413.168,-193.847 408.898,-203.543 415.876,-204.09"/>
</g>
<!-- 419&#45;&gt;uy -->
<g id="edge8" class="edge"><title>419&#45;&gt;uy</title>
<path fill="none" stroke="green" stroke-width="1.02137" d="M118.957,-79.4838C132.864,-67.719 153.152,-50.5567 168.49,-37.5812"/>
<polygon fill="green" stroke="green" stroke-width="1.02137" points="171.056,-39.9949 176.43,-30.8643 166.535,-34.6507 171.056,-39.9949"/>
</g>
<!-- 14792&#45;&gt;372 -->
<g id="edge24" class="edge"><title>14792&#45;&gt;372</title>
<path fill="none" stroke="red" stroke-width="0.200375" d="M373.007,-234.013C380.318,-223.204 389.148,-210.15 396.738,-198.929"/>
<polygon fill="red" stroke="red" stroke-width="0.200375" points="399.802,-200.646 402.506,-190.402 394.004,-196.724 399.802,-200.646"/>
</g>
<!-- 28074 -->
<g id="node11" class="node"><title>28074</title>
<ellipse fill="white" stroke="black" cx="360" cy="-506.621" rx="27.6545" ry="27.6545"/>
<text text-anchor="middle" x="360" y="-504.421" font-family="Times,serif" font-size="9.00">28074</text>
</g>
<!-- 3125 -->
<g id="node15" class="node"><title>3125</title>
<ellipse fill="white" stroke="black" cx="358" cy="-418.295" rx="25" ry="25"/>
<text text-anchor="middle" x="358" y="-416.095" font-family="Times,serif" font-size="9.00">3125</text>
</g>
<!-- 28074&#45;&gt;3125 -->
<g id="edge12" class="edge"><title>28074&#45;&gt;3125</title>
<path fill="none" stroke="red" stroke-width="0.233728" d="M359.378,-478.78C359.191,-470.687 358.982,-461.696 358.786,-453.206"/>
<polygon fill="red" stroke="red" stroke-width="0.233728" points="362.284,-453.109 358.554,-443.193 355.286,-453.271 362.284,-453.109"/>
</g>
<!-- 372&#45;&gt;419 -->
<g id="edge13" class="edge"><title>372&#45;&gt;419</title>
<path fill="none" stroke="red" stroke-width="0.258557" stroke-dasharray="1,5" d="M393.594,-166.395C340.215,-153.277 196.233,-117.894 133.222,-102.41"/>
<polygon fill="red" stroke="red" stroke-width="0.258557" points="134.027,-99.0034 123.481,-100.016 132.357,-105.801 134.027,-99.0034"/>
</g>
<!-- 53&#45;&gt;ux -->
<g id="edge21" class="edge"><title>53&#45;&gt;ux</title>
<path fill="none" stroke="green" stroke-width="0.256569" d="M327.658,-570.515C319.7,-536.158 305.238,-456.558 324,-393.546 327.374,-382.214 333.92,-370.975 340.374,-361.755"/>
<polygon fill="green" stroke="green" stroke-width="0.256569" points="343.28,-363.712 346.427,-353.596 337.658,-359.541 343.28,-363.712"/>
</g>
<!-- 53&#45;&gt;uy -->
<g id="edge7" class="edge"><title>53&#45;&gt;uy</title>
<path fill="none" stroke="green" stroke-width="0.29126" d="M321.262,-573.409C294.69,-536.88 228,-435.682 228,-340.161 228,-340.161 228,-340.161 228,-171.409 228,-125.901 211.775,-74.9561 200.529,-45.1098"/>
<polygon fill="green" stroke="green" stroke-width="0.29126" points="203.672,-43.5345 196.794,-35.4762 197.146,-46.0652 203.672,-43.5345"/>
</g>
<!-- 53&#45;&gt;28074 -->
<g id="edge31" class="edge"><title>53&#45;&gt;28074</title>
<path fill="none" stroke="green" stroke-width="0.243285" d="M337.802,-571.015C340.685,-562.781 344.285,-552.501 347.74,-542.632"/>
<polygon fill="green" stroke="green" stroke-width="0.243285" points="351.115,-543.585 351.117,-532.99 344.508,-541.271 351.115,-543.585"/>
</g>
<!-- 53&#45;&gt;3125 -->
<g id="edge33" class="edge"><title>53&#45;&gt;3125</title>
<path fill="none" stroke="red" stroke-width="0.294049" stroke-dasharray="1,5" d="M348.354,-579.603C364.12,-570.894 387.014,-555.321 397,-534.198 407.477,-512.037 403.99,-502.539 397,-479.044 393.476,-467.198 386.775,-455.51 379.908,-445.656"/>
<polygon fill="red" stroke="red" stroke-width="0.294049" points="382.657,-443.486 373.907,-437.511 377.021,-447.638 382.657,-443.486"/>
</g>
<!-- 7477&#45;&gt;ux -->
<g id="edge14" class="edge"><title>7477&#45;&gt;ux</title>
<path fill="none" stroke="green" stroke-width="0.19006" d="M481.124,-404.178C475.31,-400.636 468.954,-396.866 463,-393.546 436.204,-378.605 404.755,-362.842 383.308,-352.351"/>
<polygon fill="green" stroke="green" stroke-width="0.19006" points="384.734,-349.153 374.211,-347.924 381.671,-355.447 384.734,-349.153"/>
</g>
<!-- 7477&#45;&gt;372 -->
<g id="edge32" class="edge"><title>7477&#45;&gt;372</title>
<path fill="none" stroke="green" stroke-width="0.157674" d="M493.879,-394.788C477.837,-350.328 442.106,-251.304 424.382,-202.183"/>
<polygon fill="green" stroke="green" stroke-width="0.157674" points="427.674,-200.994 420.988,-192.776 421.09,-203.37 427.674,-200.994"/>
</g>
<!-- 3125&#45;&gt;ux -->
<g id="edge17" class="edge"><title>3125&#45;&gt;ux</title>
<path fill="none" stroke="green" stroke-width="0.164889" d="M358,-393.312C358,-385.228 358,-376.14 358,-367.797"/>
<polygon fill="green" stroke="green" stroke-width="0.164889" points="361.5,-367.758 358,-357.758 354.5,-367.758 361.5,-367.758"/>
</g>
</g>
</svg>
