<?xml version="1.0" encoding="UTF-8" standalone="no"?>
<!DOCTYPE svg PUBLIC "-//W3C//DTD SVG 1.1//EN"
 "http://www.w3.org/Graphics/SVG/1.1/DTD/svg11.dtd">
<!-- Generated by graphviz version 2.38.0 (20140413.2041)
 -->
<!-- Title: %3 Pages: 1 -->
<svg width="545pt" height="360pt"
 viewBox="0.00 0.00 544.65 359.50" xmlns="http://www.w3.org/2000/svg" xmlns:xlink="http://www.w3.org/1999/xlink">
<g id="graph0" class="graph" transform="scale(1 1) rotate(0) translate(4 355.505)">
<title>%3</title>
<polygon fill="white" stroke="none" points="-4,4 -4,-355.505 540.647,-355.505 540.647,4 -4,4"/>
<!-- ext -->
<g id="node1" class="node"><title>ext</title>
<polygon fill="lightgray" stroke="black" points="60.5701,-278.927 33.5701,-278.927 33.5701,-260.927 60.5701,-260.927 60.5701,-278.927"/>
<text text-anchor="middle" x="47.0701" y="-267.727" font-family="Times,serif" font-size="9.00">ext</text>
</g>
<!-- ux -->
<g id="node7" class="node"><title>ux</title>
<ellipse fill="lightblue" stroke="black" cx="187.07" cy="-18.3848" rx="18.2703" ry="18.2703"/>
<text text-anchor="middle" x="187.07" y="-16.1848" font-family="Times,serif" font-size="9.00">ux</text>
</g>
<!-- ext&#45;&gt;ux -->
<g id="edge4" class="edge"><title>ext&#45;&gt;ux</title>
<path fill="none" stroke="green" stroke-width="0.344334" d="M47.5809,-260.569C49.7295,-231.669 60.1894,-134.377 106.07,-72.7696 120.16,-53.8503 143.079,-39.6531 160.948,-30.6741"/>
<polygon fill="green" stroke="green" stroke-width="0.344334" points="162.75,-33.6921 170.267,-26.2258 159.735,-27.3748 162.75,-33.6921"/>
</g>
<!-- wz -->
<g id="node9" class="node"><title>wz</title>
<ellipse fill="lightblue" stroke="black" cx="127.07" cy="-178.773" rx="19.1842" ry="19.1842"/>
<text text-anchor="middle" x="127.07" y="-176.573" font-family="Times,serif" font-size="9.00">wz</text>
</g>
<!-- ext&#45;&gt;wz -->
<g id="edge3" class="edge"><title>ext&#45;&gt;wz</title>
<path fill="none" stroke="green" stroke-width="0.239001" d="M53.5017,-260.922C57.8285,-255.595 63.702,-248.478 69.0701,-242.35 81.4014,-228.275 95.6862,-212.853 106.994,-200.841"/>
<polygon fill="green" stroke="green" stroke-width="0.239001" points="109.618,-203.159 113.944,-193.488 104.531,-198.351 109.618,-203.159"/>
</g>
<!-- eyt -->
<g id="node2" class="node"><title>eyt</title>
<polygon fill="lightgray" stroke="black" points="258.57,-278.927 231.57,-278.927 231.57,-260.927 258.57,-260.927 258.57,-278.927"/>
<text text-anchor="middle" x="245.07" y="-267.727" font-family="Times,serif" font-size="9.00">eyt</text>
</g>
<!-- eyt&#45;&gt;ux -->
<g id="edge14" class="edge"><title>eyt&#45;&gt;ux</title>
<path fill="none" stroke="red" stroke-width="0.30473" d="M243.206,-260.907C235.555,-227.991 206.358,-102.369 193.367,-46.4772"/>
<polygon fill="red" stroke="red" stroke-width="0.30473" points="196.741,-45.531 191.067,-36.583 189.922,-47.1157 196.741,-45.531"/>
</g>
<!-- uy -->
<g id="node8" class="node"><title>uy</title>
<ellipse fill="lightblue" stroke="black" cx="334.07" cy="-178.773" rx="18.2703" ry="18.2703"/>
<text text-anchor="middle" x="334.07" y="-176.573" font-family="Times,serif" font-size="9.00">uy</text>
</g>
<!-- eyt&#45;&gt;uy -->
<g id="edge15" class="edge"><title>eyt&#45;&gt;uy</title>
<path fill="none" stroke="green" stroke-width="0.232331" stroke-dasharray="1,5" d="M251.358,-260.792C255.625,-255.41 261.485,-248.28 267.07,-242.35 281.62,-226.903 299.188,-210.572 312.684,-198.468"/>
<polygon fill="green" stroke="green" stroke-width="0.232331" points="315.348,-200.783 320.497,-191.523 310.697,-195.551 315.348,-200.783"/>
</g>
<!-- eyt&#45;&gt;wz -->
<g id="edge7" class="edge"><title>eyt&#45;&gt;wz</title>
<path fill="none" stroke="green" stroke-width="0.332801" d="M237.123,-260.573C231.716,-255.099 224.264,-247.948 217.07,-242.35 193.424,-223.948 184.445,-223.776 160.07,-206.35 156.502,-203.799 152.806,-200.995 149.235,-198.194"/>
<polygon fill="green" stroke="green" stroke-width="0.332801" points="151.238,-195.314 141.249,-191.783 146.856,-200.772 151.238,-195.314"/>
</g>
<!-- 334 -->
<g id="node11" class="node"><title>334</title>
<ellipse fill="white" stroke="black" cx="163.07" cy="-93.9828" rx="21.4286" ry="21.4286"/>
<text text-anchor="middle" x="163.07" y="-91.7828" font-family="Times,serif" font-size="9.00">334</text>
</g>
<!-- eyt&#45;&gt;334 -->
<g id="edge18" class="edge"><title>eyt&#45;&gt;334</title>
<path fill="none" stroke="green" stroke-width="0.377267" d="M237.369,-260.646C227.112,-249.223 208.993,-227.623 198.07,-206.35 184.664,-180.24 175.225,-148.031 169.555,-124.98"/>
<polygon fill="green" stroke="green" stroke-width="0.377267" points="172.923,-124.013 167.214,-115.087 166.111,-125.625 172.923,-124.013"/>
</g>
<!-- sf -->
<g id="node3" class="node"><title>sf</title>
<polygon fill="lightgray" stroke="black" points="101.57,-278.927 78.5701,-278.927 78.5701,-260.927 101.57,-260.927 101.57,-278.927"/>
<text text-anchor="middle" x="90.0701" y="-267.727" font-family="Times,serif" font-size="9.00">sf</text>
</g>
<!-- sf&#45;&gt;ux -->
<g id="edge21" class="edge"><title>sf&#45;&gt;ux</title>
<path fill="none" stroke="green" stroke-width="0.499999" d="M89.7743,-260.788C89.2686,-241.455 89.1194,-191.391 99.0701,-151.196 108.2,-114.318 111.616,-104.123 133.07,-72.7696 142.088,-59.5916 154.661,-46.9328 165.406,-37.2519"/>
<polygon fill="green" stroke="green" stroke-width="0.499999" points="167.944,-39.6822 173.178,-30.4701 163.342,-34.408 167.944,-39.6822"/>
</g>
<!-- sf&#45;&gt;wz -->
<g id="edge23" class="edge"><title>sf&#45;&gt;wz</title>
<path fill="none" stroke="green" stroke-width="0.102204" d="M93.4847,-260.7C98.58,-248.422 108.399,-224.762 116.11,-206.182"/>
<polygon fill="green" stroke="green" stroke-width="0.102204" points="119.423,-207.33 120.024,-196.752 112.958,-204.647 119.423,-207.33"/>
</g>
<!-- sl -->
<g id="node4" class="node"><title>sl</title>
<polygon fill="lightgray" stroke="black" points="186.57,-351.505 163.57,-351.505 163.57,-333.505 186.57,-333.505 186.57,-351.505"/>
<text text-anchor="middle" x="175.07" y="-340.305" font-family="Times,serif" font-size="9.00">sl</text>
</g>
<!-- sl&#45;&gt;ux -->
<g id="edge10" class="edge"><title>sl&#45;&gt;ux</title>
<path fill="none" stroke="red" stroke-width="0.259243" stroke-dasharray="1,5" d="M163.441,-340.255C128.786,-336.268 27.4244,-322.619 8.07013,-297.505 -6.89308,-278.088 3.24213,-266.383 8.07013,-242.35 24.1631,-162.242 23.1292,-132.325 79.0701,-72.7696 101.122,-49.2923 135.726,-34.7424 159.8,-26.875"/>
<polygon fill="red" stroke="red" stroke-width="0.259243" points="160.885,-30.203 169.405,-23.9058 158.817,-23.5153 160.885,-30.203"/>
</g>
<!-- sl&#45;&gt;uy -->
<g id="edge26" class="edge"><title>sl&#45;&gt;uy</title>
<path fill="none" stroke="green" stroke-width="0.964731" d="M186.699,-341.293C212.633,-340.157 275.476,-333.611 308.07,-297.505 330.26,-272.924 334.954,-233.762 335.301,-207.429"/>
<polygon fill="green" stroke="green" stroke-width="0.964731" points="338.801,-207.322 335.232,-197.346 331.801,-207.37 338.801,-207.322"/>
</g>
<!-- sl&#45;&gt;wz -->
<g id="edge8" class="edge"><title>sl&#45;&gt;wz</title>
<path fill="none" stroke="green" stroke-width="0.227343" stroke-dasharray="1,5" d="M178.15,-333.457C184.285,-316.127 196.427,-274.266 184.07,-242.35 177.193,-224.588 162.669,-208.772 150.004,-197.483"/>
<polygon fill="green" stroke="green" stroke-width="0.227343" points="151.941,-194.537 142.049,-190.744 147.416,-199.878 151.941,-194.537"/>
</g>
<!-- sl&#45;&gt;334 -->
<g id="edge24" class="edge"><title>sl&#45;&gt;334</title>
<path fill="none" stroke="red" stroke-width="0.318273" d="M163.401,-339.908C131.002,-335.213 41.1936,-320.33 24.0701,-297.505 -26.4905,-230.108 83.7802,-146.115 136.751,-111.284"/>
<polygon fill="red" stroke="red" stroke-width="0.318273" points="138.825,-114.111 145.326,-105.746 135.027,-108.231 138.825,-114.111"/>
</g>
<!-- 11159 -->
<g id="node12" class="node"><title>11159</title>
<ellipse fill="white" stroke="black" cx="509.07" cy="-178.773" rx="27.6545" ry="27.6545"/>
<text text-anchor="middle" x="509.07" y="-176.573" font-family="Times,serif" font-size="9.00">11159</text>
</g>
<!-- sl&#45;&gt;11159 -->
<g id="edge6" class="edge"><title>sl&#45;&gt;11159</title>
<path fill="none" stroke="green" stroke-width="0.267366" d="M186.743,-341.723C221.667,-341.881 327.476,-338.707 401.07,-297.505 438.196,-276.719 469.607,-238.572 488.822,-211.332"/>
<polygon fill="green" stroke="green" stroke-width="0.267366" points="491.835,-213.128 494.624,-202.907 486.07,-209.158 491.835,-213.128"/>
</g>
<!-- 15001 -->
<g id="node13" class="node"><title>15001</title>
<ellipse fill="white" stroke="black" cx="147.07" cy="-269.927" rx="27.6545" ry="27.6545"/>
<text text-anchor="middle" x="147.07" y="-267.727" font-family="Times,serif" font-size="9.00">15001</text>
</g>
<!-- sl&#45;&gt;15001 -->
<g id="edge13" class="edge"><title>sl&#45;&gt;15001</title>
<path fill="none" stroke="red" stroke-width="0.238454" d="M171.858,-333.409C169.087,-326.423 164.884,-315.829 160.722,-305.339"/>
<polygon fill="red" stroke="red" stroke-width="0.238454" points="163.895,-303.846 156.954,-295.841 157.389,-306.427 163.895,-303.846"/>
</g>
<!-- sr -->
<g id="node5" class="node"><title>sr</title>
<polygon fill="lightgray" stroke="black" points="299.57,-278.927 276.57,-278.927 276.57,-260.927 299.57,-260.927 299.57,-278.927"/>
<text text-anchor="middle" x="288.07" y="-267.727" font-family="Times,serif" font-size="9.00">sr</text>
</g>
<!-- sr&#45;&gt;ux -->
<g id="edge1" class="edge"><title>sr&#45;&gt;ux</title>
<path fill="none" stroke="green" stroke-width="0.440202" stroke-dasharray="1,5" d="M285.867,-260.851C278.308,-233.63 252.068,-143.022 219.07,-72.7696 214.315,-62.6467 208.175,-51.983 202.546,-42.8705"/>
<polygon fill="green" stroke="green" stroke-width="0.440202" points="205.462,-40.9329 197.158,-34.3526 199.546,-44.6748 205.462,-40.9329"/>
</g>
<!-- sr&#45;&gt;uy -->
<g id="edge16" class="edge"><title>sr&#45;&gt;uy</title>
<path fill="none" stroke="green" stroke-width="0.436614" stroke-dasharray="1,5" d="M292.315,-260.7C298.861,-248.014 311.676,-223.176 321.391,-204.346"/>
<polygon fill="green" stroke="green" stroke-width="0.436614" points="324.53,-205.896 326.005,-195.405 318.309,-202.687 324.53,-205.896"/>
</g>
<!-- sr&#45;&gt;wz -->
<g id="edge27" class="edge"><title>sr&#45;&gt;wz</title>
<path fill="none" stroke="red" stroke-width="0.984054" d="M283.045,-260.616C279.239,-254.88 273.568,-247.406 267.07,-242.35 232.673,-215.588 185.021,-197.464 155.131,-187.874"/>
<polygon fill="red" stroke="red" stroke-width="0.984054" points="155.938,-184.46 145.349,-184.838 153.862,-191.146 155.938,-184.46"/>
</g>
<!-- sr&#45;&gt;334 -->
<g id="edge5" class="edge"><title>sr&#45;&gt;334</title>
<path fill="none" stroke="red" stroke-width="0.292396" d="M282.041,-260.538C263.951,-235.364 209.625,-159.767 181.065,-120.024"/>
<polygon fill="red" stroke="red" stroke-width="0.292396" points="183.732,-117.737 175.054,-111.659 178.047,-121.822 183.732,-117.737"/>
</g>
<!-- &#45;6 -->
<g id="node6" class="node"><title>&#45;6</title>
<polygon fill="lightgray" stroke="black" points="392.07,-278.927 368.07,-278.927 368.07,-260.927 392.07,-260.927 392.07,-278.927"/>
<text text-anchor="middle" x="380.07" y="-267.727" font-family="Times,serif" font-size="9.00">&#45;6</text>
</g>
<!-- &#45;6&#45;&gt;ux -->
<g id="edge20" class="edge"><title>&#45;6&#45;&gt;ux</title>
<path fill="none" stroke="red" stroke-width="0.15841" stroke-dasharray="1,5" d="M380.73,-260.809C381.975,-240.663 382.83,-187.395 361.07,-151.196 325.341,-91.7589 251.784,-49.9447 212.736,-30.929"/>
<polygon fill="red" stroke="red" stroke-width="0.15841" points="214.13,-27.7167 203.596,-26.5889 211.128,-34.04 214.13,-27.7167"/>
</g>
<!-- &#45;6&#45;&gt;uy -->
<g id="edge17" class="edge"><title>&#45;6&#45;&gt;uy</title>
<path fill="none" stroke="red" stroke-width="0.215237" d="M375.825,-260.7C369.28,-248.014 356.464,-223.176 346.749,-204.346"/>
<polygon fill="red" stroke="red" stroke-width="0.215237" points="349.831,-202.687 342.135,-195.405 343.61,-205.896 349.831,-202.687"/>
</g>
<!-- &#45;6&#45;&gt;wz -->
<g id="edge22" class="edge"><title>&#45;6&#45;&gt;wz</title>
<path fill="none" stroke="red" stroke-width="0.226972" stroke-dasharray="1,5" d="M367.868,-264.336C353.57,-258.975 329.149,-249.884 308.07,-242.35 253.785,-222.949 190.005,-201.123 154.494,-189.057"/>
<polygon fill="red" stroke="red" stroke-width="0.226972" points="155.434,-185.68 144.84,-185.78 153.185,-192.308 155.434,-185.68"/>
</g>
<!-- 18989 -->
<g id="node10" class="node"><title>18989</title>
<ellipse fill="white" stroke="black" cx="436.07" cy="-178.773" rx="27.6545" ry="27.6545"/>
<text text-anchor="middle" x="436.07" y="-176.573" font-family="Times,serif" font-size="9.00">18989</text>
</g>
<!-- &#45;6&#45;&gt;18989 -->
<g id="edge11" class="edge"><title>&#45;6&#45;&gt;18989</title>
<path fill="none" stroke="green" stroke-width="0.29678" d="M385.238,-260.7C392.248,-249.54 405.164,-228.977 416.222,-211.372"/>
<polygon fill="green" stroke="green" stroke-width="0.29678" points="419.439,-212.831 421.794,-202.501 413.511,-209.108 419.439,-212.831"/>
</g>
<!-- &#45;6&#45;&gt;11159 -->
<g id="edge19" class="edge"><title>&#45;6&#45;&gt;11159</title>
<path fill="none" stroke="red" stroke-width="0.121028" d="M392.223,-260.993C410.094,-249.272 444.441,-226.535 473.07,-206.35 475.126,-204.901 477.237,-203.393 479.357,-201.865"/>
<polygon fill="red" stroke="red" stroke-width="0.121028" points="481.457,-204.666 487.479,-195.949 477.336,-199.007 481.457,-204.666"/>
</g>
<!-- wz&#45;&gt;334 -->
<g id="edge12" class="edge"><title>wz&#45;&gt;334</title>
<path fill="none" stroke="green" stroke-width="0.640122" d="M134.355,-161.019C139.103,-150.1 145.415,-135.585 150.912,-122.944"/>
<polygon fill="green" stroke="green" stroke-width="0.640122" points="154.139,-124.3 154.917,-113.734 147.719,-121.508 154.139,-124.3"/>
</g>
<!-- 334&#45;&gt;ux -->
<g id="edge9" class="edge"><title>334&#45;&gt;ux</title>
<path fill="none" stroke="red" stroke-width="0.43684" d="M169.376,-73.6458C172.121,-65.229 175.383,-55.2257 178.354,-46.1145"/>
<polygon fill="red" stroke="red" stroke-width="0.43684" points="181.769,-46.9313 181.541,-36.3389 175.114,-44.7611 181.769,-46.9313"/>
</g>
<!-- 11159&#45;&gt;ux -->
<g id="edge2" class="edge"><title>11159&#45;&gt;ux</title>
<path fill="none" stroke="green" stroke-width="0.174809" stroke-dasharray="1,5" d="M491.805,-156.746C471.057,-132.857 434.013,-94.3933 394.07,-72.7696 335.348,-40.9791 256.919,-27.5048 215.49,-22.3039"/>
<polygon fill="green" stroke="green" stroke-width="0.174809" points="215.652,-18.7988 205.311,-21.1006 214.831,-25.7504 215.652,-18.7988"/>
</g>
<!-- 15001&#45;&gt;wz -->
<g id="edge25" class="edge"><title>15001&#45;&gt;wz</title>
<path fill="none" stroke="green" stroke-width="0.285987" d="M141.178,-242.66C138.715,-231.684 135.851,-218.914 133.349,-207.761"/>
<polygon fill="green" stroke="green" stroke-width="0.285987" points="136.69,-206.665 131.086,-197.674 129.86,-208.198 136.69,-206.665"/>
</g>
</g>
</svg>
