<?xml version="1.0" encoding="UTF-8" standalone="no"?>
<!DOCTYPE svg PUBLIC "-//W3C//DTD SVG 1.1//EN"
 "http://www.w3.org/Graphics/SVG/1.1/DTD/svg11.dtd">
<!-- Generated by graphviz version 2.38.0 (20140413.2041)
 -->
<!-- Title: %3 Pages: 1 -->
<svg width="554pt" height="173pt"
 viewBox="0.00 0.00 554.36 172.95" xmlns="http://www.w3.org/2000/svg" xmlns:xlink="http://www.w3.org/1999/xlink">
<g id="graph0" class="graph" transform="scale(1 1) rotate(0) translate(4 168.953)">
<title>%3</title>
<polygon fill="white" stroke="none" points="-4,4 -4,-168.953 550.356,-168.953 550.356,4 -4,4"/>
<!-- ext -->
<g id="node1" class="node"><title>ext</title>
<polygon fill="lightgray" stroke="black" points="131.053,-164.953 104.053,-164.953 104.053,-146.953 131.053,-146.953 131.053,-164.953"/>
<text text-anchor="middle" x="117.553" y="-153.753" font-family="Times,serif" font-size="9.00">ext</text>
</g>
<!-- ux -->
<g id="node6" class="node"><title>ux</title>
<ellipse fill="lightblue" stroke="black" cx="218.553" cy="-19.0919" rx="18.2703" ry="18.2703"/>
<text text-anchor="middle" x="218.553" y="-16.8919" font-family="Times,serif" font-size="9.00">ux</text>
</g>
<!-- ext&#45;&gt;ux -->
<g id="edge5" class="edge"><title>ext&#45;&gt;ux</title>
<path fill="none" stroke="green" stroke-width="0.142551" d="M112.62,-146.659C104.107,-131.152 88.9102,-97.2535 103.553,-74.1838 122.53,-44.2866 162.913,-30.6159 190.403,-24.5768"/>
<polygon fill="green" stroke="green" stroke-width="0.142551" points="191.112,-28.0043 200.236,-22.618 189.745,-21.1392 191.112,-28.0043"/>
</g>
<!-- uy -->
<g id="node7" class="node"><title>uy</title>
<ellipse fill="lightblue" stroke="black" cx="98.5534" cy="-19.0919" rx="18.2703" ry="18.2703"/>
<text text-anchor="middle" x="98.5534" y="-16.8919" font-family="Times,serif" font-size="9.00">uy</text>
</g>
<!-- ext&#45;&gt;uy -->
<g id="edge17" class="edge"><title>ext&#45;&gt;uy</title>
<path fill="none" stroke="green" stroke-width="0.309568" d="M104.022,-154.218C79.6402,-152.078 28.8017,-143.705 6.55341,-110.953 -2.62944,-97.4353 -1.56152,-88.3686 6.55341,-74.1838 20.2943,-50.1648 49.3142,-35.7608 71.1092,-27.928"/>
<polygon fill="green" stroke="green" stroke-width="0.309568" points="72.4504,-31.1704 80.8313,-24.6889 70.2377,-24.5293 72.4504,-31.1704"/>
</g>
<!-- wz -->
<g id="node8" class="node"><title>wz</title>
<ellipse fill="lightblue" stroke="black" cx="310.553" cy="-19.0919" rx="19.1842" ry="19.1842"/>
<text text-anchor="middle" x="310.553" y="-16.8919" font-family="Times,serif" font-size="9.00">wz</text>
</g>
<!-- ext&#45;&gt;wz -->
<g id="edge7" class="edge"><title>ext&#45;&gt;wz</title>
<path fill="none" stroke="red" stroke-width="0.145237" d="M117.004,-146.633C116.413,-130.471 117.5,-94.6276 136.553,-74.1838 141.665,-68.6995 234.638,-41.671 282.531,-28.0167"/>
<polygon fill="red" stroke="red" stroke-width="0.145237" points="283.632,-31.3426 292.293,-25.2409 281.717,-24.6095 283.632,-31.3426"/>
</g>
<!-- 36 -->
<g id="node10" class="node"><title>36</title>
<ellipse fill="white" stroke="black" cx="218.553" cy="-92.5685" rx="18.2703" ry="18.2703"/>
<text text-anchor="middle" x="218.553" y="-90.3685" font-family="Times,serif" font-size="9.00">36</text>
</g>
<!-- ext&#45;&gt;36 -->
<g id="edge4" class="edge"><title>ext&#45;&gt;36</title>
<path fill="none" stroke="green" stroke-width="0.285156" d="M131.04,-146.897C145.715,-138.114 169.852,-123.618 190.553,-110.953 191.835,-110.169 193.148,-109.364 194.472,-108.548"/>
<polygon fill="green" stroke="green" stroke-width="0.285156" points="196.507,-111.406 203.171,-103.17 192.825,-105.452 196.507,-111.406"/>
</g>
<!-- 34 -->
<g id="node13" class="node"><title>34</title>
<ellipse fill="white" stroke="black" cx="163.553" cy="-92.5685" rx="18.2703" ry="18.2703"/>
<text text-anchor="middle" x="163.553" y="-90.3685" font-family="Times,serif" font-size="9.00">34</text>
</g>
<!-- ext&#45;&gt;34 -->
<g id="edge21" class="edge"><title>ext&#45;&gt;34</title>
<path fill="none" stroke="red" stroke-width="0.215218" d="M123.567,-146.928C129.409,-139.133 138.554,-126.929 146.624,-116.16"/>
<polygon fill="red" stroke="red" stroke-width="0.215218" points="149.587,-118.042 152.783,-107.941 143.985,-113.845 149.587,-118.042"/>
</g>
<!-- eyt -->
<g id="node2" class="node"><title>eyt</title>
<polygon fill="lightgray" stroke="black" points="324.053,-164.953 297.053,-164.953 297.053,-146.953 324.053,-146.953 324.053,-164.953"/>
<text text-anchor="middle" x="310.553" y="-153.753" font-family="Times,serif" font-size="9.00">eyt</text>
</g>
<!-- eyt&#45;&gt;wz -->
<g id="edge2" class="edge"><title>eyt&#45;&gt;wz</title>
<path fill="none" stroke="green" stroke-width="0.241609" d="M317.452,-146.853C324.084,-138.491 333.657,-124.754 337.553,-110.953 341.994,-95.2262 341.303,-90.0899 337.553,-74.1838 335.123,-63.8721 330.411,-53.2827 325.596,-44.2377"/>
<polygon fill="green" stroke="green" stroke-width="0.241609" points="328.596,-42.433 320.631,-35.4472 322.501,-45.8756 328.596,-42.433"/>
</g>
<!-- 35 -->
<g id="node9" class="node"><title>35</title>
<ellipse fill="white" stroke="black" cx="310.553" cy="-92.5685" rx="18.2703" ry="18.2703"/>
<text text-anchor="middle" x="310.553" y="-90.3685" font-family="Times,serif" font-size="9.00">35</text>
</g>
<!-- eyt&#45;&gt;35 -->
<g id="edge6" class="edge"><title>eyt&#45;&gt;35</title>
<path fill="none" stroke="green" stroke-width="0.100723" d="M310.553,-146.928C310.553,-140.364 310.553,-130.675 310.553,-121.347"/>
<polygon fill="green" stroke="green" stroke-width="0.100723" points="314.054,-121.156 310.553,-111.156 307.054,-121.156 314.054,-121.156"/>
</g>
<!-- eyt&#45;&gt;36 -->
<g id="edge13" class="edge"><title>eyt&#45;&gt;36</title>
<path fill="none" stroke="green" stroke-width="0.133442" d="M298.526,-146.928C284.341,-137.464 260.418,-121.502 242.425,-109.496"/>
<polygon fill="green" stroke="green" stroke-width="0.133442" points="243.9,-106.273 233.639,-103.634 240.015,-112.096 243.9,-106.273"/>
</g>
<!-- 37 -->
<g id="node11" class="node"><title>37</title>
<ellipse fill="white" stroke="black" cx="440.553" cy="-92.5685" rx="18.2703" ry="18.2703"/>
<text text-anchor="middle" x="440.553" y="-90.3685" font-family="Times,serif" font-size="9.00">37</text>
</g>
<!-- eyt&#45;&gt;37 -->
<g id="edge23" class="edge"><title>eyt&#45;&gt;37</title>
<path fill="none" stroke="green" stroke-width="0.407528" d="M324.34,-149.154C343.448,-141.029 378.972,-125.603 408.553,-110.953 410.883,-109.799 413.291,-108.568 415.69,-107.313"/>
<polygon fill="green" stroke="green" stroke-width="0.407528" points="417.563,-110.28 424.727,-102.474 414.259,-104.109 417.563,-110.28"/>
</g>
<!-- eyt&#45;&gt;34 -->
<g id="edge18" class="edge"><title>eyt&#45;&gt;34</title>
<path fill="none" stroke="green" stroke-width="0.235004" d="M296.982,-150.921C274.5,-144.025 228.357,-128.954 191.553,-110.953 190.172,-110.278 188.772,-109.552 187.373,-108.795"/>
<polygon fill="green" stroke="green" stroke-width="0.235004" points="188.749,-105.546 178.349,-103.525 185.219,-111.591 188.749,-105.546"/>
</g>
<!-- sf -->
<g id="node3" class="node"><title>sf</title>
<polygon fill="lightgray" stroke="black" points="225.053,-164.953 202.053,-164.953 202.053,-146.953 225.053,-146.953 225.053,-164.953"/>
<text text-anchor="middle" x="213.553" y="-153.753" font-family="Times,serif" font-size="9.00">sf</text>
</g>
<!-- sf&#45;&gt;wz -->
<g id="edge22" class="edge"><title>sf&#45;&gt;wz</title>
<path fill="none" stroke="red" stroke-width="0.278147" d="M219.47,-146.858C225.907,-138.041 236.491,-123.517 245.553,-110.953 262.032,-88.1075 280.734,-61.9395 293.833,-43.5717"/>
<polygon fill="red" stroke="red" stroke-width="0.278147" points="296.824,-45.4048 299.779,-35.2302 291.124,-41.3417 296.824,-45.4048"/>
</g>
<!-- sf&#45;&gt;34 -->
<g id="edge10" class="edge"><title>sf&#45;&gt;34</title>
<path fill="none" stroke="green" stroke-width="0.305658" d="M207.017,-146.928C200.52,-138.952 190.264,-126.361 181.346,-115.413"/>
<polygon fill="green" stroke="green" stroke-width="0.305658" points="183.901,-113.007 174.872,-107.464 178.474,-117.428 183.901,-113.007"/>
</g>
<!-- sl -->
<g id="node4" class="node"><title>sl</title>
<polygon fill="lightgray" stroke="black" points="536.053,-164.953 513.053,-164.953 513.053,-146.953 536.053,-146.953 536.053,-164.953"/>
<text text-anchor="middle" x="524.553" y="-153.753" font-family="Times,serif" font-size="9.00">sl</text>
</g>
<!-- sl&#45;&gt;ux -->
<g id="edge11" class="edge"><title>sl&#45;&gt;ux</title>
<path fill="none" stroke="red" stroke-width="0.198111" d="M521.282,-146.734C514.205,-130.094 495.797,-92.4557 467.553,-74.1838 397.223,-28.6845 364.038,-57.5936 282.553,-38.1838 270.342,-35.2749 256.96,-31.5738 245.603,-28.2779"/>
<polygon fill="red" stroke="red" stroke-width="0.198111" points="246.417,-24.869 235.836,-25.3994 244.438,-31.5835 246.417,-24.869"/>
</g>
<!-- sl&#45;&gt;wz -->
<g id="edge9" class="edge"><title>sl&#45;&gt;wz</title>
<path fill="none" stroke="green" stroke-width="0.41893" d="M529.632,-146.847C538.807,-131.059 555.675,-95.8429 538.553,-74.1838 514.074,-43.2167 395.688,-28.1153 339.835,-22.6207"/>
<polygon fill="green" stroke="green" stroke-width="0.41893" points="339.83,-19.1047 329.545,-21.648 339.171,-26.0736 339.83,-19.1047"/>
</g>
<!-- sl&#45;&gt;37 -->
<g id="edge16" class="edge"><title>sl&#45;&gt;37</title>
<path fill="none" stroke="green" stroke-width="0.34633" d="M513.572,-146.928C500.889,-137.66 479.681,-122.162 463.379,-110.249"/>
<polygon fill="green" stroke="green" stroke-width="0.34633" points="465.052,-107.136 454.913,-104.062 460.922,-112.788 465.052,-107.136"/>
</g>
<!-- sr -->
<g id="node5" class="node"><title>sr</title>
<polygon fill="lightgray" stroke="black" points="410.053,-164.953 387.053,-164.953 387.053,-146.953 410.053,-146.953 410.053,-164.953"/>
<text text-anchor="middle" x="398.553" y="-153.753" font-family="Times,serif" font-size="9.00">sr</text>
</g>
<!-- sr&#45;&gt;ux -->
<g id="edge1" class="edge"><title>sr&#45;&gt;ux</title>
<path fill="none" stroke="red" stroke-width="0.438831" d="M394.235,-146.785C385.473,-130.89 364.162,-95.4944 337.553,-74.1838 309.842,-51.9895 271.558,-36.7205 245.973,-28.2012"/>
<polygon fill="red" stroke="red" stroke-width="0.438831" points="246.773,-24.7823 236.182,-25.0638 244.637,-31.4485 246.773,-24.7823"/>
</g>
<!-- sr&#45;&gt;wz -->
<g id="edge15" class="edge"><title>sr&#45;&gt;wz</title>
<path fill="none" stroke="red" stroke-width="0.11427" d="M410.207,-151.458C426.463,-145.88 455.326,-133.252 467.553,-110.953 475.411,-96.6241 477.042,-87.4889 467.553,-74.1838 438.53,-33.487 376.803,-23.1041 339.985,-20.641"/>
<polygon fill="red" stroke="red" stroke-width="0.11427" points="340.031,-17.1389 329.865,-20.1216 339.672,-24.1297 340.031,-17.1389"/>
</g>
<!-- sr&#45;&gt;35 -->
<g id="edge27" class="edge"><title>sr&#45;&gt;35</title>
<path fill="none" stroke="green" stroke-width="0.400617" d="M387.049,-146.928C373.56,-137.519 350.865,-121.688 333.689,-109.707"/>
<polygon fill="green" stroke="green" stroke-width="0.400617" points="335.493,-106.698 325.289,-103.847 331.488,-112.439 335.493,-106.698"/>
</g>
<!-- sr&#45;&gt;37 -->
<g id="edge24" class="edge"><title>sr&#45;&gt;37</title>
<path fill="none" stroke="red" stroke-width="0.111404" d="M404.044,-146.928C409.256,-139.312 417.346,-127.487 424.588,-116.903"/>
<polygon fill="red" stroke="red" stroke-width="0.111404" points="427.631,-118.653 430.39,-108.423 421.854,-114.7 427.631,-118.653"/>
</g>
<!-- 35&#45;&gt;uy -->
<g id="edge3" class="edge"><title>35&#45;&gt;uy</title>
<path fill="none" stroke="red" stroke-width="0.386154" d="M293.205,-85.7193C256.232,-73.2538 169.462,-43.9989 125.336,-29.1218"/>
<polygon fill="red" stroke="red" stroke-width="0.386154" points="126.439,-25.8 115.845,-25.9217 124.202,-32.4332 126.439,-25.8"/>
</g>
<!-- 35&#45;&gt;wz -->
<g id="edge8" class="edge"><title>35&#45;&gt;wz</title>
<path fill="none" stroke="green" stroke-width="0.189905" d="M310.553,-73.9002C310.553,-66.1999 310.553,-56.9807 310.553,-48.367"/>
<polygon fill="green" stroke="green" stroke-width="0.189905" points="314.054,-48.3032 310.553,-38.3033 307.054,-48.3033 314.054,-48.3032"/>
</g>
<!-- 36&#45;&gt;ux -->
<g id="edge28" class="edge"><title>36&#45;&gt;ux</title>
<path fill="none" stroke="red" stroke-width="0.125415" d="M218.553,-73.9002C218.553,-66.0235 218.553,-56.5577 218.553,-47.7762"/>
<polygon fill="red" stroke="red" stroke-width="0.125415" points="222.054,-47.557 218.553,-37.557 215.054,-47.5571 222.054,-47.557"/>
</g>
<!-- 36&#45;&gt;wz -->
<g id="edge25" class="edge"><title>36&#45;&gt;wz</title>
<path fill="none" stroke="green" stroke-width="0.401365" d="M232.928,-80.4003C247.474,-69.0992 270.198,-51.4451 287.307,-38.1523"/>
<polygon fill="green" stroke="green" stroke-width="0.401365" points="289.92,-40.5544 295.67,-31.6553 285.626,-35.0266 289.92,-40.5544"/>
</g>
<!-- 37&#45;&gt;wz -->
<g id="edge14" class="edge"><title>37&#45;&gt;wz</title>
<path fill="none" stroke="green" stroke-width="0.290692" d="M424.872,-82.9468C402.859,-70.8435 362.539,-48.6744 336.144,-34.1622"/>
<polygon fill="green" stroke="green" stroke-width="0.290692" points="337.559,-30.9459 327.11,-29.1949 334.186,-37.0799 337.559,-30.9459"/>
</g>
<!-- 33 -->
<g id="node12" class="node"><title>33</title>
<ellipse fill="white" stroke="black" cx="33.5534" cy="-92.5685" rx="18.2703" ry="18.2703"/>
<text text-anchor="middle" x="33.5534" y="-90.3685" font-family="Times,serif" font-size="9.00">33</text>
</g>
<!-- 33&#45;&gt;ux -->
<g id="edge26" class="edge"><title>33&#45;&gt;ux</title>
<path fill="none" stroke="green" stroke-width="0.42184" d="M49.2556,-82.3974C54.3671,-79.5862 60.1238,-76.6003 65.5534,-74.1838 108.335,-55.1429 160.06,-38.0251 191.08,-28.3598"/>
<polygon fill="green" stroke="green" stroke-width="0.42184" points="192.238,-31.6655 200.764,-25.3756 190.176,-24.9759 192.238,-31.6655"/>
</g>
<!-- 33&#45;&gt;uy -->
<g id="edge20" class="edge"><title>33&#45;&gt;uy</title>
<path fill="none" stroke="green" stroke-width="0.320614" d="M45.4754,-78.4586C54.9759,-68.0115 68.4617,-53.182 79.4622,-41.0854"/>
<polygon fill="green" stroke="green" stroke-width="0.320614" points="82.1268,-43.3575 86.2653,-33.6044 76.9479,-38.6479 82.1268,-43.3575"/>
</g>
<!-- 34&#45;&gt;uy -->
<g id="edge19" class="edge"><title>34&#45;&gt;uy</title>
<path fill="none" stroke="green" stroke-width="0.236625" d="M151.631,-78.4586C142.131,-68.0115 128.645,-53.182 117.645,-41.0854"/>
<polygon fill="green" stroke="green" stroke-width="0.236625" points="120.159,-38.6479 110.841,-33.6044 114.98,-43.3575 120.159,-38.6479"/>
</g>
<!-- 34&#45;&gt;wz -->
<g id="edge12" class="edge"><title>34&#45;&gt;wz</title>
<path fill="none" stroke="red" stroke-width="0.313158" d="M178.748,-81.6405C182.844,-79.1015 187.315,-76.4506 191.553,-74.1838 222.333,-57.7215 259.083,-41.5148 283.519,-31.1991"/>
<polygon fill="red" stroke="red" stroke-width="0.313158" points="284.997,-34.3749 292.87,-27.2855 282.294,-27.9176 284.997,-34.3749"/>
</g>
</g>
</svg>
