<?xml version="1.0" encoding="UTF-8" standalone="no"?>
<!DOCTYPE svg PUBLIC "-//W3C//DTD SVG 1.1//EN"
 "http://www.w3.org/Graphics/SVG/1.1/DTD/svg11.dtd">
<!-- Generated by graphviz version 2.38.0 (20140413.2041)
 -->
<!-- Title: %3 Pages: 1 -->
<svg width="602pt" height="573pt"
 viewBox="0.00 0.00 602.11 572.93" xmlns="http://www.w3.org/2000/svg" xmlns:xlink="http://www.w3.org/1999/xlink">
<g id="graph0" class="graph" transform="scale(1 1) rotate(0) translate(4 568.926)">
<title>%3</title>
<polygon fill="white" stroke="none" points="-4,4 -4,-568.926 598.108,-568.926 598.108,4 -4,4"/>
<!-- ext -->
<g id="node1" class="node"><title>ext</title>
<polygon fill="lightgray" stroke="black" points="593.077,-492.349 566.077,-492.349 566.077,-474.349 593.077,-474.349 593.077,-492.349"/>
<text text-anchor="middle" x="579.577" y="-481.149" font-family="Times,serif" font-size="9.00">ext</text>
</g>
<!-- uy -->
<g id="node8" class="node"><title>uy</title>
<ellipse fill="lightblue" stroke="black" cx="306.577" cy="-118.731" rx="18.2703" ry="18.2703"/>
<text text-anchor="middle" x="306.577" y="-116.531" font-family="Times,serif" font-size="9.00">uy</text>
</g>
<!-- ext&#45;&gt;uy -->
<g id="edge15" class="edge"><title>ext&#45;&gt;uy</title>
<path fill="none" stroke="green" stroke-width="0.352061" stroke-dasharray="1,5" d="M581.461,-474.128C589.76,-435.626 619.322,-271.262 541.577,-182.309 514.366,-151.174 391.217,-131.049 334.873,-123.313"/>
<polygon fill="green" stroke="green" stroke-width="0.352061" points="335.231,-119.83 324.855,-121.972 334.302,-126.768 335.231,-119.83"/>
</g>
<!-- 32636 -->
<g id="node19" class="node"><title>32636</title>
<ellipse fill="white" stroke="black" cx="498.577" cy="-392.194" rx="27.6545" ry="27.6545"/>
<text text-anchor="middle" x="498.577" y="-389.994" font-family="Times,serif" font-size="9.00">32636</text>
</g>
<!-- ext&#45;&gt;32636 -->
<g id="edge16" class="edge"><title>ext&#45;&gt;32636</title>
<path fill="none" stroke="green" stroke-width="0.209071" d="M572.102,-474.121C561.205,-462.127 540.436,-439.268 523.745,-420.896"/>
<polygon fill="green" stroke="green" stroke-width="0.209071" points="526.196,-418.389 516.881,-413.341 521.015,-423.096 526.196,-418.389"/>
</g>
<!-- eyt -->
<g id="node2" class="node"><title>eyt</title>
<polygon fill="lightgray" stroke="black" points="497.077,-564.926 470.077,-564.926 470.077,-546.926 497.077,-546.926 497.077,-564.926"/>
<text text-anchor="middle" x="483.577" y="-553.726" font-family="Times,serif" font-size="9.00">eyt</text>
</g>
<!-- 41989 -->
<g id="node11" class="node"><title>41989</title>
<ellipse fill="white" stroke="black" cx="455.577" cy="-483.349" rx="27.6545" ry="27.6545"/>
<text text-anchor="middle" x="455.577" y="-481.149" font-family="Times,serif" font-size="9.00">41989</text>
</g>
<!-- eyt&#45;&gt;41989 -->
<g id="edge11" class="edge"><title>eyt&#45;&gt;41989</title>
<path fill="none" stroke="green" stroke-width="0.330455" d="M480.365,-546.83C477.594,-539.844 473.391,-529.251 469.229,-518.761"/>
<polygon fill="green" stroke="green" stroke-width="0.330455" points="472.402,-517.267 465.461,-509.263 465.896,-519.849 472.402,-517.267"/>
</g>
<!-- eyt&#45;&gt;32636 -->
<g id="edge20" class="edge"><title>eyt&#45;&gt;32636</title>
<path fill="none" stroke="red" stroke-width="0.476412" stroke-dasharray="1,5" d="M485.605,-546.877C487.725,-538.101 490.966,-523.611 492.577,-510.926 495.999,-483.988 497.485,-453.349 498.124,-430.08"/>
<polygon fill="red" stroke="red" stroke-width="0.476412" points="501.626,-430.027 498.361,-419.948 494.628,-429.863 501.626,-430.027"/>
</g>
<!-- sf -->
<g id="node3" class="node"><title>sf</title>
<polygon fill="lightgray" stroke="black" points="374.077,-310.04 351.077,-310.04 351.077,-292.04 374.077,-292.04 374.077,-310.04"/>
<text text-anchor="middle" x="362.577" y="-298.84" font-family="Times,serif" font-size="9.00">sf</text>
</g>
<!-- ux -->
<g id="node7" class="node"><title>ux</title>
<ellipse fill="lightblue" stroke="black" cx="203.577" cy="-209.886" rx="18.2703" ry="18.2703"/>
<text text-anchor="middle" x="203.577" y="-207.686" font-family="Times,serif" font-size="9.00">ux</text>
</g>
<!-- sf&#45;&gt;ux -->
<g id="edge19" class="edge"><title>sf&#45;&gt;ux</title>
<path fill="none" stroke="green" stroke-width="1.92036" d="M357.869,-291.724C354.281,-285.986 348.892,-278.511 342.577,-273.463 308.552,-246.265 260.82,-228.173 231.072,-218.72"/>
<polygon fill="green" stroke="green" stroke-width="1.92036" points="231.938,-215.325 221.352,-215.736 229.884,-222.017 231.938,-215.325"/>
</g>
<!-- sf&#45;&gt;uy -->
<g id="edge9" class="edge"><title>sf&#45;&gt;uy</title>
<path fill="none" stroke="green" stroke-width="0.219204" d="M360.025,-291.824C352.116,-266.356 327.765,-187.952 314.838,-146.329"/>
<polygon fill="green" stroke="green" stroke-width="0.219204" points="318.123,-145.106 311.814,-136.594 311.438,-147.183 318.123,-145.106"/>
</g>
<!-- 34199 -->
<g id="node16" class="node"><title>34199</title>
<ellipse fill="white" stroke="black" cx="381.577" cy="-209.886" rx="27.6545" ry="27.6545"/>
<text text-anchor="middle" x="381.577" y="-207.686" font-family="Times,serif" font-size="9.00">34199</text>
</g>
<!-- sf&#45;&gt;34199 -->
<g id="edge28" class="edge"><title>sf&#45;&gt;34199</title>
<path fill="none" stroke="green" stroke-width="0.187694" d="M364.331,-291.813C366.506,-281.603 370.36,-263.522 373.873,-247.036"/>
<polygon fill="green" stroke="green" stroke-width="0.187694" points="377.337,-247.573 375.999,-237.063 370.491,-246.114 377.337,-247.573"/>
</g>
<!-- sl -->
<g id="node4" class="node"><title>sl</title>
<polygon fill="lightgray" stroke="black" points="123.077,-310.04 100.077,-310.04 100.077,-292.04 123.077,-292.04 123.077,-310.04"/>
<text text-anchor="middle" x="111.577" y="-298.84" font-family="Times,serif" font-size="9.00">sl</text>
</g>
<!-- sl&#45;&gt;ux -->
<g id="edge12" class="edge"><title>sl&#45;&gt;ux</title>
<path fill="none" stroke="red" stroke-width="0.455665" stroke-dasharray="1,5" d="M120.02,-291.969C132.446,-280.078 156.373,-257.131 176.577,-237.463 178.786,-235.312 181.092,-233.058 183.384,-230.811"/>
<polygon fill="red" stroke="red" stroke-width="0.455665" points="186.291,-232.861 190.969,-223.354 181.384,-227.869 186.291,-232.861"/>
</g>
<!-- sl&#45;&gt;uy -->
<g id="edge22" class="edge"><title>sl&#45;&gt;uy</title>
<path fill="none" stroke="green" stroke-width="0.437832" stroke-dasharray="1,5" d="M107.674,-291.908C98.3952,-271.268 77.5966,-216.101 102.577,-182.309 143.352,-127.151 231.86,-119.046 277.724,-118.784"/>
<polygon fill="green" stroke="green" stroke-width="0.437832" points="277.862,-122.285 287.885,-118.852 277.909,-115.285 277.862,-122.285"/>
</g>
<!-- 36962 -->
<g id="node9" class="node"><title>36962</title>
<ellipse fill="white" stroke="black" cx="139.577" cy="-209.886" rx="27.6545" ry="27.6545"/>
<text text-anchor="middle" x="139.577" y="-207.686" font-family="Times,serif" font-size="9.00">36962</text>
</g>
<!-- sl&#45;&gt;36962 -->
<g id="edge24" class="edge"><title>sl&#45;&gt;36962</title>
<path fill="none" stroke="green" stroke-width="0.357881" d="M114.161,-291.813C117.443,-281.362 123.315,-262.666 128.589,-245.874"/>
<polygon fill="green" stroke="green" stroke-width="0.357881" points="131.943,-246.874 131.6,-236.285 125.265,-244.777 131.943,-246.874"/>
</g>
<!-- 27568 -->
<g id="node14" class="node"><title>27568</title>
<ellipse fill="white" stroke="black" cx="27.5772" cy="-209.886" rx="27.6545" ry="27.6545"/>
<text text-anchor="middle" x="27.5772" y="-207.686" font-family="Times,serif" font-size="9.00">27568</text>
</g>
<!-- sl&#45;&gt;27568 -->
<g id="edge5" class="edge"><title>sl&#45;&gt;27568</title>
<path fill="none" stroke="green" stroke-width="0.472774" d="M103.825,-291.813C92.453,-279.742 70.7155,-256.671 53.3508,-238.241"/>
<polygon fill="green" stroke="green" stroke-width="0.472774" points="55.6245,-235.55 46.2195,-230.672 50.5296,-240.351 55.6245,-235.55"/>
</g>
<!-- sr -->
<g id="node5" class="node"><title>sr</title>
<polygon fill="lightgray" stroke="black" points="538.077,-564.926 515.077,-564.926 515.077,-546.926 538.077,-546.926 538.077,-564.926"/>
<text text-anchor="middle" x="526.577" y="-553.726" font-family="Times,serif" font-size="9.00">sr</text>
</g>
<!-- &#45;6 -->
<g id="node6" class="node"><title>&#45;6</title>
<polygon fill="lightgray" stroke="black" points="317.577,-492.349 293.577,-492.349 293.577,-474.349 317.577,-474.349 317.577,-492.349"/>
<text text-anchor="middle" x="305.577" y="-481.149" font-family="Times,serif" font-size="9.00">&#45;6</text>
</g>
<!-- &#45;6&#45;&gt;ux -->
<g id="edge17" class="edge"><title>&#45;6&#45;&gt;ux</title>
<path fill="none" stroke="green" stroke-width="0.320323" stroke-dasharray="1,5" d="M293.347,-475.225C277.207,-465.114 249.248,-444.995 235.577,-419.772 203.803,-361.145 201.017,-280.471 202.073,-238.609"/>
<polygon fill="green" stroke="green" stroke-width="0.320323" points="205.58,-238.475 202.43,-228.359 198.584,-238.231 205.58,-238.475"/>
</g>
<!-- &#45;6&#45;&gt;uy -->
<g id="edge4" class="edge"><title>&#45;6&#45;&gt;uy</title>
<path fill="none" stroke="red" stroke-width="0.230465" d="M298.713,-474.112C289.728,-462.74 274.438,-441.198 268.577,-419.772 241.5,-320.774 277.927,-198.03 296.667,-145.519"/>
<polygon fill="red" stroke="red" stroke-width="0.230465" points="300.007,-146.575 300.155,-135.981 293.433,-144.17 300.007,-146.575"/>
</g>
<!-- 41583 -->
<g id="node13" class="node"><title>41583</title>
<ellipse fill="white" stroke="black" cx="305.577" cy="-392.194" rx="27.6545" ry="27.6545"/>
<text text-anchor="middle" x="305.577" y="-389.994" font-family="Times,serif" font-size="9.00">41583</text>
</g>
<!-- &#45;6&#45;&gt;41583 -->
<g id="edge14" class="edge"><title>&#45;6&#45;&gt;41583</title>
<path fill="none" stroke="green" stroke-width="0.494288" d="M305.577,-474.121C305.577,-464.149 305.577,-446.668 305.577,-430.499"/>
<polygon fill="green" stroke="green" stroke-width="0.494288" points="309.077,-430.155 305.577,-420.155 302.077,-430.155 309.077,-430.155"/>
</g>
<!-- 36598 -->
<g id="node15" class="node"><title>36598</title>
<ellipse fill="white" stroke="black" cx="305.577" cy="-301.04" rx="27.6545" ry="27.6545"/>
<text text-anchor="middle" x="305.577" y="-298.84" font-family="Times,serif" font-size="9.00">36598</text>
</g>
<!-- &#45;6&#45;&gt;36598 -->
<g id="edge18" class="edge"><title>&#45;6&#45;&gt;36598</title>
<path fill="none" stroke="green" stroke-width="0.533165" stroke-dasharray="1,5" d="M312.442,-474.112C321.426,-462.74 336.717,-441.198 342.577,-419.772 349.044,-396.127 349.044,-388.262 342.577,-364.617 339.467,-353.246 333.701,-341.842 327.63,-331.943"/>
<polygon fill="green" stroke="green" stroke-width="0.533165" points="330.416,-329.805 322.038,-323.319 324.542,-333.614 330.416,-329.805"/>
</g>
<!-- &#45;6&#45;&gt;32636 -->
<g id="edge7" class="edge"><title>&#45;6&#45;&gt;32636</title>
<path fill="none" stroke="green" stroke-width="0.499243" stroke-dasharray="1,5" d="M317.65,-476.772C346.558,-463.418 420.601,-429.215 464.486,-408.942"/>
<polygon fill="green" stroke="green" stroke-width="0.499243" points="466.02,-412.09 473.63,-404.719 463.084,-405.735 466.02,-412.09"/>
</g>
<!-- 36962&#45;&gt;uy -->
<g id="edge10" class="edge"><title>36962&#45;&gt;uy</title>
<path fill="none" stroke="green" stroke-width="0.584034" d="M161.065,-192.496C166.048,-188.966 171.409,-185.377 176.577,-182.309 211.145,-161.786 253.466,-142.4 280.231,-130.792"/>
<polygon fill="green" stroke="green" stroke-width="0.584034" points="281.87,-133.898 289.679,-126.738 279.109,-127.465 281.87,-133.898"/>
</g>
<!-- 47233 -->
<g id="node10" class="node"><title>47233</title>
<ellipse fill="white" stroke="black" cx="27.5772" cy="-27.5772" rx="27.6545" ry="27.6545"/>
<text text-anchor="middle" x="27.5772" y="-25.3772" font-family="Times,serif" font-size="9.00">47233</text>
</g>
<!-- 41989&#45;&gt;32636 -->
<g id="edge26" class="edge"><title>41989&#45;&gt;32636</title>
<path fill="none" stroke="green" stroke-width="0.306712" d="M467.327,-457.987C471.972,-448.356 477.388,-437.127 482.394,-426.749"/>
<polygon fill="green" stroke="green" stroke-width="0.306712" points="485.65,-428.054 486.841,-417.527 479.345,-425.013 485.65,-428.054"/>
</g>
<!-- 28838 -->
<g id="node12" class="node"><title>28838</title>
<ellipse fill="white" stroke="black" cx="27.5772" cy="-118.731" rx="27.6545" ry="27.6545"/>
<text text-anchor="middle" x="27.5772" y="-116.531" font-family="Times,serif" font-size="9.00">28838</text>
</g>
<!-- 28838&#45;&gt;47233 -->
<g id="edge6" class="edge"><title>28838&#45;&gt;47233</title>
<path fill="none" stroke="green" stroke-width="0.239791" d="M27.5772,-90.9823C27.5772,-82.96 27.5772,-74.0155 27.5772,-65.4608"/>
<polygon fill="green" stroke="green" stroke-width="0.239791" points="31.0773,-65.3075 27.5772,-55.3075 24.0773,-65.3076 31.0773,-65.3075"/>
</g>
<!-- 41583&#45;&gt;36598 -->
<g id="edge2" class="edge"><title>41583&#45;&gt;36598</title>
<path fill="none" stroke="green" stroke-width="0.434225" d="M305.577,-364.445C305.577,-356.423 305.577,-347.479 305.577,-338.924"/>
<polygon fill="green" stroke="green" stroke-width="0.434225" points="309.077,-338.77 305.577,-328.771 302.077,-338.771 309.077,-338.77"/>
</g>
<!-- 27568&#45;&gt;uy -->
<g id="edge8" class="edge"><title>27568&#45;&gt;uy</title>
<path fill="none" stroke="green" stroke-width="0.106218" d="M49.9809,-192.938C56.1271,-189.063 62.933,-185.206 69.5772,-182.309 141.624,-150.895 233.073,-132.237 278.427,-124.28"/>
<polygon fill="green" stroke="green" stroke-width="0.106218" points="279.146,-127.708 288.412,-122.572 277.965,-120.808 279.146,-127.708"/>
</g>
<!-- 27568&#45;&gt;28838 -->
<g id="edge1" class="edge"><title>27568&#45;&gt;28838</title>
<path fill="none" stroke="red" stroke-width="0.116468" stroke-dasharray="1,5" d="M27.5772,-182.137C27.5772,-174.114 27.5772,-165.17 27.5772,-156.615"/>
<polygon fill="red" stroke="red" stroke-width="0.116468" points="31.0773,-156.462 27.5772,-146.462 24.0773,-156.462 31.0773,-156.462"/>
</g>
<!-- 36598&#45;&gt;uy -->
<g id="edge13" class="edge"><title>36598&#45;&gt;uy</title>
<path fill="none" stroke="red" stroke-width="0.436438" d="M305.725,-273.435C305.912,-239.668 306.233,-181.702 306.424,-147.425"/>
<polygon fill="red" stroke="red" stroke-width="0.436438" points="309.925,-147.208 306.48,-137.189 302.925,-147.17 309.925,-147.208"/>
</g>
<!-- 33401 -->
<g id="node17" class="node"><title>33401</title>
<ellipse fill="white" stroke="black" cx="492.577" cy="-301.04" rx="27.6545" ry="27.6545"/>
<text text-anchor="middle" x="492.577" y="-298.84" font-family="Times,serif" font-size="9.00">33401</text>
</g>
<!-- 33401&#45;&gt;uy -->
<g id="edge23" class="edge"><title>33401&#45;&gt;uy</title>
<path fill="none" stroke="green" stroke-width="0.157693" stroke-dasharray="1,5" d="M500.238,-274.448C506.294,-248.659 510.874,-208.966 491.577,-182.309 455.457,-132.408 377.425,-121.818 335.164,-119.875"/>
<polygon fill="green" stroke="green" stroke-width="0.157693" points="335.101,-116.371 324.993,-119.543 334.873,-123.367 335.101,-116.371"/>
</g>
<!-- 39707 -->
<g id="node18" class="node"><title>39707</title>
<ellipse fill="white" stroke="black" cx="454.577" cy="-209.886" rx="27.6545" ry="27.6545"/>
<text text-anchor="middle" x="454.577" y="-207.686" font-family="Times,serif" font-size="9.00">39707</text>
</g>
<!-- 33401&#45;&gt;39707 -->
<g id="edge21" class="edge"><title>33401&#45;&gt;39707</title>
<path fill="none" stroke="green" stroke-width="0.109046" d="M481.992,-275.206C477.998,-265.835 473.382,-255.005 469.09,-244.936"/>
<polygon fill="green" stroke="green" stroke-width="0.109046" points="472.246,-243.414 465.106,-235.587 465.807,-246.159 472.246,-243.414"/>
</g>
<!-- 39707&#45;&gt;uy -->
<g id="edge3" class="edge"><title>39707&#45;&gt;uy</title>
<path fill="none" stroke="green" stroke-width="0.228683" d="M433.188,-192.411C428.455,-188.959 423.409,-185.424 418.577,-182.309 389.749,-163.72 355.075,-144.85 332.02,-132.765"/>
<polygon fill="green" stroke="green" stroke-width="0.228683" points="333.388,-129.531 322.902,-128.021 330.158,-135.741 333.388,-129.531"/>
</g>
<!-- 32636&#45;&gt;uy -->
<g id="edge25" class="edge"><title>32636&#45;&gt;uy</title>
<path fill="none" stroke="red" stroke-width="0.49028" stroke-dasharray="1,5" d="M513.047,-368.39C519.475,-356.931 526.316,-342.547 529.577,-328.617 544.5,-264.877 556.239,-231.085 512.577,-182.309 466.631,-130.981 380.07,-121.124 335.189,-119.629"/>
<polygon fill="red" stroke="red" stroke-width="0.49028" points="335.055,-116.126 324.983,-119.411 334.906,-123.124 335.055,-116.126"/>
</g>
<!-- 32636&#45;&gt;33401 -->
<g id="edge27" class="edge"><title>32636&#45;&gt;33401</title>
<path fill="none" stroke="green" stroke-width="0.14341" d="M496.777,-364.445C496.237,-356.423 495.635,-347.479 495.059,-338.924"/>
<polygon fill="green" stroke="green" stroke-width="0.14341" points="498.54,-338.513 494.376,-328.771 491.556,-338.983 498.54,-338.513"/>
</g>
</g>
</svg>
