<?xml version="1.0" encoding="UTF-8" standalone="no"?>
<!DOCTYPE svg PUBLIC "-//W3C//DTD SVG 1.1//EN"
 "http://www.w3.org/Graphics/SVG/1.1/DTD/svg11.dtd">
<!-- Generated by graphviz version 2.38.0 (20140413.2041)
 -->
<!-- Title: %3 Pages: 1 -->
<svg width="425pt" height="519pt"
 viewBox="0.00 0.00 425.08 518.93" xmlns="http://www.w3.org/2000/svg" xmlns:xlink="http://www.w3.org/1999/xlink">
<g id="graph0" class="graph" transform="scale(1 1) rotate(0) translate(4 514.926)">
<title>%3</title>
<polygon fill="white" stroke="none" points="-4,4 -4,-514.926 421.077,-514.926 421.077,4 -4,4"/>
<!-- ext -->
<g id="node1" class="node"><title>ext</title>
<polygon fill="lightgray" stroke="black" points="27,-401.194 0,-401.194 0,-383.194 27,-383.194 27,-401.194"/>
<text text-anchor="middle" x="13.5" y="-389.994" font-family="Times,serif" font-size="9.00">ext</text>
</g>
<!-- 32636 -->
<g id="node19" class="node"><title>32636</title>
<ellipse fill="white" stroke="black" cx="42.5" cy="-301.04" rx="27.6545" ry="27.6545"/>
<text text-anchor="middle" x="42.5" y="-298.84" font-family="Times,serif" font-size="9.00">32636</text>
</g>
<!-- ext&#45;&gt;32636 -->
<g id="edge12" class="edge"><title>ext&#45;&gt;32636</title>
<path fill="none" stroke="green" stroke-width="0.209071" d="M16.1763,-382.967C19.5755,-372.517 25.6571,-353.82 31.119,-337.029"/>
<polygon fill="green" stroke="green" stroke-width="0.209071" points="34.4733,-338.031 34.2383,-327.439 27.8166,-335.866 34.4733,-338.031"/>
</g>
<!-- eyt -->
<g id="node2" class="node"><title>eyt</title>
<polygon fill="lightgray" stroke="black" points="86,-492.349 59,-492.349 59,-474.349 86,-474.349 86,-492.349"/>
<text text-anchor="middle" x="72.5" y="-481.149" font-family="Times,serif" font-size="9.00">eyt</text>
</g>
<!-- 41989 -->
<g id="node11" class="node"><title>41989</title>
<ellipse fill="white" stroke="black" cx="72.5" cy="-392.194" rx="27.6545" ry="27.6545"/>
<text text-anchor="middle" x="72.5" y="-389.994" font-family="Times,serif" font-size="9.00">41989</text>
</g>
<!-- eyt&#45;&gt;41989 -->
<g id="edge9" class="edge"><title>eyt&#45;&gt;41989</title>
<path fill="none" stroke="green" stroke-width="0.330455" d="M72.5,-474.121C72.5,-464.149 72.5,-446.668 72.5,-430.499"/>
<polygon fill="green" stroke="green" stroke-width="0.330455" points="76.0001,-430.155 72.5,-420.155 69.0001,-430.155 76.0001,-430.155"/>
</g>
<!-- sf -->
<g id="node3" class="node"><title>sf</title>
<polygon fill="lightgray" stroke="black" points="369,-127.731 346,-127.731 346,-109.731 369,-109.731 369,-127.731"/>
<text text-anchor="middle" x="357.5" y="-116.531" font-family="Times,serif" font-size="9.00">sf</text>
</g>
<!-- ux -->
<g id="node7" class="node"><title>ux</title>
<ellipse fill="lightblue" stroke="black" cx="325.5" cy="-27.5772" rx="18.2703" ry="18.2703"/>
<text text-anchor="middle" x="325.5" y="-25.3772" font-family="Times,serif" font-size="9.00">ux</text>
</g>
<!-- sf&#45;&gt;ux -->
<g id="edge13" class="edge"><title>sf&#45;&gt;ux</title>
<path fill="none" stroke="green" stroke-width="1.92036" d="M354.547,-109.504C350.114,-97.1533 341.547,-73.2841 334.86,-54.6549"/>
<polygon fill="green" stroke="green" stroke-width="1.92036" points="338.145,-53.4454 331.472,-45.2157 331.556,-55.8102 338.145,-53.4454"/>
</g>
<!-- uy -->
<g id="node8" class="node"><title>uy</title>
<ellipse fill="lightblue" stroke="black" cx="190.5" cy="-27.5772" rx="18.2703" ry="18.2703"/>
<text text-anchor="middle" x="190.5" y="-25.3772" font-family="Times,serif" font-size="9.00">uy</text>
</g>
<!-- sf&#45;&gt;uy -->
<g id="edge7" class="edge"><title>sf&#45;&gt;uy</title>
<path fill="none" stroke="green" stroke-width="0.219204" d="M352.824,-109.375C349.251,-103.618 343.866,-96.137 337.5,-91.1543 300.999,-62.5869 249.513,-44.6507 218.16,-35.6391"/>
<polygon fill="green" stroke="green" stroke-width="0.219204" points="218.921,-32.2181 208.349,-32.9226 217.053,-38.9643 218.921,-32.2181"/>
</g>
<!-- 34199 -->
<g id="node16" class="node"><title>34199</title>
<ellipse fill="white" stroke="black" cx="389.5" cy="-27.5772" rx="27.6545" ry="27.6545"/>
<text text-anchor="middle" x="389.5" y="-25.3772" font-family="Times,serif" font-size="9.00">34199</text>
</g>
<!-- sf&#45;&gt;34199 -->
<g id="edge18" class="edge"><title>sf&#45;&gt;34199</title>
<path fill="none" stroke="green" stroke-width="0.187694" d="M360.453,-109.504C364.204,-99.0537 370.915,-80.357 376.942,-63.5657"/>
<polygon fill="green" stroke="green" stroke-width="0.187694" points="380.3,-64.5706 380.384,-53.9761 373.711,-62.2058 380.3,-64.5706"/>
</g>
<!-- sl -->
<g id="node4" class="node"><title>sl</title>
<polygon fill="lightgray" stroke="black" points="275,-218.886 252,-218.886 252,-200.886 275,-200.886 275,-218.886"/>
<text text-anchor="middle" x="263.5" y="-207.686" font-family="Times,serif" font-size="9.00">sl</text>
</g>
<!-- 36962 -->
<g id="node9" class="node"><title>36962</title>
<ellipse fill="white" stroke="black" cx="227.5" cy="-118.731" rx="27.6545" ry="27.6545"/>
<text text-anchor="middle" x="227.5" y="-116.531" font-family="Times,serif" font-size="9.00">36962</text>
</g>
<!-- sl&#45;&gt;36962 -->
<g id="edge15" class="edge"><title>sl&#45;&gt;36962</title>
<path fill="none" stroke="green" stroke-width="0.357881" d="M260.178,-200.658C255.929,-190.136 248.304,-171.253 241.488,-154.373"/>
<polygon fill="green" stroke="green" stroke-width="0.357881" points="244.59,-152.706 237.6,-144.744 238.099,-155.327 244.59,-152.706"/>
</g>
<!-- 27568 -->
<g id="node14" class="node"><title>27568</title>
<ellipse fill="white" stroke="black" cx="300.5" cy="-118.731" rx="27.6545" ry="27.6545"/>
<text text-anchor="middle" x="300.5" y="-116.531" font-family="Times,serif" font-size="9.00">27568</text>
</g>
<!-- sl&#45;&gt;27568 -->
<g id="edge4" class="edge"><title>sl&#45;&gt;27568</title>
<path fill="none" stroke="green" stroke-width="0.472774" d="M266.915,-200.658C271.311,-190.064 279.226,-170.994 286.267,-154.026"/>
<polygon fill="green" stroke="green" stroke-width="0.472774" points="289.679,-154.937 290.279,-144.359 283.214,-152.253 289.679,-154.937"/>
</g>
<!-- sr -->
<g id="node5" class="node"><title>sr</title>
<polygon fill="lightgray" stroke="black" points="127,-492.349 104,-492.349 104,-474.349 127,-474.349 127,-492.349"/>
<text text-anchor="middle" x="115.5" y="-481.149" font-family="Times,serif" font-size="9.00">sr</text>
</g>
<!-- &#45;6 -->
<g id="node6" class="node"><title>&#45;6</title>
<polygon fill="lightgray" stroke="black" points="139.5,-310.04 115.5,-310.04 115.5,-292.04 139.5,-292.04 139.5,-310.04"/>
<text text-anchor="middle" x="127.5" y="-298.84" font-family="Times,serif" font-size="9.00">&#45;6</text>
</g>
<!-- &#45;6&#45;&gt;uy -->
<g id="edge3" class="edge"><title>&#45;6&#45;&gt;uy</title>
<path fill="none" stroke="red" stroke-width="0.230465" d="M124.582,-291.957C114.655,-263.052 84.5808,-162.732 117.5,-91.1543 127.328,-69.7848 148.453,-52.9813 165.461,-42.1915"/>
<polygon fill="red" stroke="red" stroke-width="0.230465" points="167.621,-44.9768 174.389,-36.825 164.015,-38.9772 167.621,-44.9768"/>
</g>
<!-- 41583 -->
<g id="node13" class="node"><title>41583</title>
<ellipse fill="white" stroke="black" cx="154.5" cy="-209.886" rx="27.6545" ry="27.6545"/>
<text text-anchor="middle" x="154.5" y="-207.686" font-family="Times,serif" font-size="9.00">41583</text>
</g>
<!-- &#45;6&#45;&gt;41583 -->
<g id="edge11" class="edge"><title>&#45;6&#45;&gt;41583</title>
<path fill="none" stroke="green" stroke-width="0.494288" d="M129.992,-291.813C133.105,-281.531 138.636,-263.268 143.657,-246.691"/>
<polygon fill="green" stroke="green" stroke-width="0.494288" points="147.142,-247.258 146.69,-236.673 140.442,-245.229 147.142,-247.258"/>
</g>
<!-- 36962&#45;&gt;uy -->
<g id="edge8" class="edge"><title>36962&#45;&gt;uy</title>
<path fill="none" stroke="green" stroke-width="0.584034" d="M217.193,-92.897C212.215,-80.9017 206.245,-66.5163 201.214,-54.3945"/>
<polygon fill="green" stroke="green" stroke-width="0.584034" points="204.318,-52.7414 197.252,-44.8468 197.853,-55.4246 204.318,-52.7414"/>
</g>
<!-- 47233 -->
<g id="node10" class="node"><title>47233</title>
<ellipse fill="white" stroke="black" cx="172.5" cy="-392.194" rx="27.6545" ry="27.6545"/>
<text text-anchor="middle" x="172.5" y="-389.994" font-family="Times,serif" font-size="9.00">47233</text>
</g>
<!-- 41989&#45;&gt;32636 -->
<g id="edge16" class="edge"><title>41989&#45;&gt;32636</title>
<path fill="none" stroke="green" stroke-width="0.306712" d="M63.9834,-365.885C60.975,-356.944 57.5356,-346.723 54.3038,-337.119"/>
<polygon fill="green" stroke="green" stroke-width="0.306712" points="57.5444,-335.775 51.0378,-327.413 50.9099,-338.007 57.5444,-335.775"/>
</g>
<!-- 28838 -->
<g id="node12" class="node"><title>28838</title>
<ellipse fill="white" stroke="black" cx="172.5" cy="-483.349" rx="27.6545" ry="27.6545"/>
<text text-anchor="middle" x="172.5" y="-481.149" font-family="Times,serif" font-size="9.00">28838</text>
</g>
<!-- 28838&#45;&gt;47233 -->
<g id="edge5" class="edge"><title>28838&#45;&gt;47233</title>
<path fill="none" stroke="green" stroke-width="0.239791" d="M172.5,-455.6C172.5,-447.577 172.5,-438.633 172.5,-430.078"/>
<polygon fill="green" stroke="green" stroke-width="0.239791" points="176,-429.925 172.5,-419.925 169,-429.925 176,-429.925"/>
</g>
<!-- 36598 -->
<g id="node15" class="node"><title>36598</title>
<ellipse fill="white" stroke="black" cx="154.5" cy="-118.731" rx="27.6545" ry="27.6545"/>
<text text-anchor="middle" x="154.5" y="-116.531" font-family="Times,serif" font-size="9.00">36598</text>
</g>
<!-- 41583&#45;&gt;36598 -->
<g id="edge1" class="edge"><title>41583&#45;&gt;36598</title>
<path fill="none" stroke="green" stroke-width="0.434225" d="M154.5,-182.137C154.5,-174.114 154.5,-165.17 154.5,-156.615"/>
<polygon fill="green" stroke="green" stroke-width="0.434225" points="158,-156.462 154.5,-146.462 151,-156.462 158,-156.462"/>
</g>
<!-- 27568&#45;&gt;uy -->
<g id="edge6" class="edge"><title>27568&#45;&gt;uy</title>
<path fill="none" stroke="green" stroke-width="0.106218" d="M279.551,-100.752C260.329,-85.173 231.959,-62.179 212.432,-46.353"/>
<polygon fill="green" stroke="green" stroke-width="0.106218" points="214.375,-43.4228 204.403,-39.8453 209.968,-48.861 214.375,-43.4228"/>
</g>
<!-- 36598&#45;&gt;uy -->
<g id="edge10" class="edge"><title>36598&#45;&gt;uy</title>
<path fill="none" stroke="red" stroke-width="0.436438" d="M164.528,-92.897C169.372,-80.9017 175.18,-66.5163 180.075,-54.3945"/>
<polygon fill="red" stroke="red" stroke-width="0.436438" points="183.432,-55.4299 183.93,-44.8468 176.941,-52.8089 183.432,-55.4299"/>
</g>
<!-- 33401 -->
<g id="node17" class="node"><title>33401</title>
<ellipse fill="white" stroke="black" cx="42.5" cy="-209.886" rx="27.6545" ry="27.6545"/>
<text text-anchor="middle" x="42.5" y="-207.686" font-family="Times,serif" font-size="9.00">33401</text>
</g>
<!-- 39707 -->
<g id="node18" class="node"><title>39707</title>
<ellipse fill="white" stroke="black" cx="42.5" cy="-118.731" rx="27.6545" ry="27.6545"/>
<text text-anchor="middle" x="42.5" y="-116.531" font-family="Times,serif" font-size="9.00">39707</text>
</g>
<!-- 33401&#45;&gt;39707 -->
<g id="edge14" class="edge"><title>33401&#45;&gt;39707</title>
<path fill="none" stroke="green" stroke-width="0.109046" d="M42.5,-182.137C42.5,-174.114 42.5,-165.17 42.5,-156.615"/>
<polygon fill="green" stroke="green" stroke-width="0.109046" points="46.0001,-156.462 42.5,-146.462 39.0001,-156.462 46.0001,-156.462"/>
</g>
<!-- 39707&#45;&gt;uy -->
<g id="edge2" class="edge"><title>39707&#45;&gt;uy</title>
<path fill="none" stroke="green" stroke-width="0.228683" d="M65.5268,-102.981C71.6681,-99.0962 78.3159,-94.9351 84.5,-91.1543 112.294,-74.1617 144.574,-55.2172 166.141,-42.6708"/>
<polygon fill="green" stroke="green" stroke-width="0.228683" points="168.072,-45.5966 174.963,-37.5483 164.557,-39.5432 168.072,-45.5966"/>
</g>
<!-- 32636&#45;&gt;33401 -->
<g id="edge17" class="edge"><title>32636&#45;&gt;33401</title>
<path fill="none" stroke="green" stroke-width="0.14341" d="M42.5,-273.291C42.5,-265.269 42.5,-256.324 42.5,-247.769"/>
<polygon fill="green" stroke="green" stroke-width="0.14341" points="46.0001,-247.616 42.5,-237.616 39.0001,-247.616 46.0001,-247.616"/>
</g>
</g>
</svg>
