<?xml version="1.0" encoding="UTF-8" standalone="no"?>
<!DOCTYPE svg PUBLIC "-//W3C//DTD SVG 1.1//EN"
 "http://www.w3.org/Graphics/SVG/1.1/DTD/svg11.dtd">
<!-- Generated by graphviz version 2.38.0 (20140413.2041)
 -->
<!-- Title: %3 Pages: 1 -->
<svg width="410pt" height="1047pt"
 viewBox="0.00 0.00 409.58 1047.47" xmlns="http://www.w3.org/2000/svg" xmlns:xlink="http://www.w3.org/1999/xlink">
<g id="graph0" class="graph" transform="scale(1 1) rotate(0) translate(4 1043.47)">
<title>%3</title>
<polygon fill="white" stroke="none" points="-4,4 -4,-1043.47 405.577,-1043.47 405.577,4 -4,4"/>
<!-- ext -->
<g id="node1" class="node"><title>ext</title>
<polygon fill="lightgray" stroke="black" points="165.5,-656.273 138.5,-656.273 138.5,-638.273 165.5,-638.273 165.5,-656.273"/>
<text text-anchor="middle" x="152" y="-645.073" font-family="Times,serif" font-size="9.00">ext</text>
</g>
<!-- 32636 -->
<g id="node16" class="node"><title>32636</title>
<ellipse fill="white" stroke="black" cx="206" cy="-373.81" rx="27.6545" ry="27.6545"/>
<text text-anchor="middle" x="206" y="-371.61" font-family="Times,serif" font-size="9.00">32636</text>
</g>
<!-- ext&#45;&gt;32636 -->
<g id="edge9" class="edge"><title>ext&#45;&gt;32636</title>
<path fill="none" stroke="red" stroke-width="0.148297" d="M152.588,-638.118C154.14,-618.755 159.076,-568.627 171,-528.541 175.992,-511.759 182.008,-509.324 187,-492.541 194.883,-466.039 199.712,-435.149 202.528,-411.66"/>
<polygon fill="red" stroke="red" stroke-width="0.148297" points="206.039,-411.761 203.684,-401.432 199.083,-410.975 206.039,-411.761"/>
</g>
<!-- 51388 -->
<g id="node24" class="node"><title>51388</title>
<ellipse fill="white" stroke="black" cx="94" cy="-556.118" rx="27.6545" ry="27.6545"/>
<text text-anchor="middle" x="94" y="-553.918" font-family="Times,serif" font-size="9.00">51388</text>
</g>
<!-- ext&#45;&gt;51388 -->
<g id="edge12" class="edge"><title>ext&#45;&gt;51388</title>
<path fill="none" stroke="green" stroke-width="0.264689" d="M146.647,-638.045C139.321,-626.783 125.764,-605.944 114.242,-588.234"/>
<polygon fill="green" stroke="green" stroke-width="0.264689" points="117.173,-586.32 108.786,-579.846 111.305,-590.137 117.173,-586.32"/>
</g>
<!-- eyt -->
<g id="node2" class="node"><title>eyt</title>
<polygon fill="lightgray" stroke="black" points="221.5,-656.273 194.5,-656.273 194.5,-638.273 221.5,-638.273 221.5,-656.273"/>
<text text-anchor="middle" x="208" y="-645.073" font-family="Times,serif" font-size="9.00">eyt</text>
</g>
<!-- 59455 -->
<g id="node26" class="node"><title>59455</title>
<ellipse fill="white" stroke="black" cx="208" cy="-556.118" rx="27.6545" ry="27.6545"/>
<text text-anchor="middle" x="208" y="-553.918" font-family="Times,serif" font-size="9.00">59455</text>
</g>
<!-- eyt&#45;&gt;59455 -->
<g id="edge6" class="edge"><title>eyt&#45;&gt;59455</title>
<path fill="none" stroke="green" stroke-width="0.181356" d="M208,-638.045C208,-628.073 208,-610.592 208,-594.423"/>
<polygon fill="green" stroke="green" stroke-width="0.181356" points="211.5,-594.079 208,-584.079 204.5,-594.079 211.5,-594.079"/>
</g>
<!-- sf -->
<g id="node3" class="node"><title>sf</title>
<polygon fill="lightgray" stroke="black" points="51.5,-1020.89 28.5,-1020.89 28.5,-1002.89 51.5,-1002.89 51.5,-1020.89"/>
<text text-anchor="middle" x="40" y="-1009.69" font-family="Times,serif" font-size="9.00">sf</text>
</g>
<!-- ux -->
<g id="node7" class="node"><title>ux</title>
<ellipse fill="lightblue" stroke="black" cx="86" cy="-920.736" rx="18.2703" ry="18.2703"/>
<text text-anchor="middle" x="86" y="-918.536" font-family="Times,serif" font-size="9.00">ux</text>
</g>
<!-- sf&#45;&gt;ux -->
<g id="edge27" class="edge"><title>sf&#45;&gt;ux</title>
<path fill="none" stroke="green" stroke-width="2.45128" d="M44.2451,-1002.66C50.7904,-989.977 63.6057,-965.139 73.3211,-946.309"/>
<polygon fill="green" stroke="green" stroke-width="2.45128" points="76.4599,-947.859 77.9348,-937.367 70.2391,-944.649 76.4599,-947.859"/>
</g>
<!-- uy -->
<g id="node8" class="node"><title>uy</title>
<ellipse fill="lightblue" stroke="black" cx="206" cy="-18.3848" rx="18.2703" ry="18.2703"/>
<text text-anchor="middle" x="206" y="-16.1848" font-family="Times,serif" font-size="9.00">uy</text>
</g>
<!-- sf&#45;&gt;uy -->
<g id="edge18" class="edge"><title>sf&#45;&gt;uy</title>
<path fill="none" stroke="green" stroke-width="0.26416" d="M36.8613,-1002.77C27.4316,-977.602 0,-898.558 0,-830.581 0,-830.581 0,-830.581 0,-190.501 0,-98.5865 122.851,-46.5856 178.811,-27.6666"/>
<polygon fill="green" stroke="green" stroke-width="0.26416" points="180.021,-30.9533 188.437,-24.5168 177.844,-24.3004 180.021,-30.9533"/>
</g>
<!-- 34199 -->
<g id="node11" class="node"><title>34199</title>
<ellipse fill="white" stroke="black" cx="86" cy="-829.581" rx="27.6545" ry="27.6545"/>
<text text-anchor="middle" x="86" y="-827.381" font-family="Times,serif" font-size="9.00">34199</text>
</g>
<!-- sf&#45;&gt;34199 -->
<g id="edge29" class="edge"><title>sf&#45;&gt;34199</title>
<path fill="none" stroke="green" stroke-width="0.289248" d="M40.6171,-1002.74C42.2321,-983.399 47.2948,-933.309 59,-893.159 61.8265,-883.463 65.7696,-873.277 69.7704,-864.004"/>
<polygon fill="green" stroke="green" stroke-width="0.289248" points="73.0299,-865.289 73.9163,-854.732 66.6395,-862.432 73.0299,-865.289"/>
</g>
<!-- sl -->
<g id="node4" class="node"><title>sl</title>
<polygon fill="lightgray" stroke="black" points="385.5,-291.655 362.5,-291.655 362.5,-273.655 385.5,-273.655 385.5,-291.655"/>
<text text-anchor="middle" x="374" y="-280.455" font-family="Times,serif" font-size="9.00">sl</text>
</g>
<!-- 69078 -->
<g id="node21" class="node"><title>69078</title>
<ellipse fill="white" stroke="black" cx="374" cy="-191.501" rx="27.6545" ry="27.6545"/>
<text text-anchor="middle" x="374" y="-189.301" font-family="Times,serif" font-size="9.00">69078</text>
</g>
<!-- sl&#45;&gt;69078 -->
<g id="edge11" class="edge"><title>sl&#45;&gt;69078</title>
<path fill="none" stroke="green" stroke-width="0.350612" d="M374,-273.428C374,-263.456 374,-245.975 374,-229.806"/>
<polygon fill="green" stroke="green" stroke-width="0.350612" points="377.5,-229.462 374,-219.462 370.5,-229.462 377.5,-229.462"/>
</g>
<!-- sr -->
<g id="node5" class="node"><title>sr</title>
<polygon fill="lightgray" stroke="black" points="102.5,-1020.89 79.5,-1020.89 79.5,-1002.89 102.5,-1002.89 102.5,-1020.89"/>
<text text-anchor="middle" x="91" y="-1009.69" font-family="Times,serif" font-size="9.00">sr</text>
</g>
<!-- &#45;6 -->
<g id="node6" class="node"><title>&#45;6</title>
<polygon fill="lightgray" stroke="black" points="276,-747.427 252,-747.427 252,-729.427 276,-729.427 276,-747.427"/>
<text text-anchor="middle" x="264" y="-736.227" font-family="Times,serif" font-size="9.00">&#45;6</text>
</g>
<!-- 58855 -->
<g id="node14" class="node"><title>58855</title>
<ellipse fill="white" stroke="black" cx="262" cy="-464.964" rx="27.6545" ry="27.6545"/>
<text text-anchor="middle" x="262" y="-462.764" font-family="Times,serif" font-size="9.00">58855</text>
</g>
<!-- &#45;6&#45;&gt;58855 -->
<g id="edge30" class="edge"><title>&#45;6&#45;&gt;58855</title>
<path fill="none" stroke="red" stroke-width="0.194778" d="M263.94,-729.303C263.693,-695.792 262.745,-567.059 262.272,-502.839"/>
<polygon fill="red" stroke="red" stroke-width="0.194778" points="265.771,-502.715 262.197,-492.741 258.771,-502.766 265.771,-502.715"/>
</g>
<!-- 41583 -->
<g id="node17" class="node"><title>41583</title>
<ellipse fill="white" stroke="black" cx="93" cy="-647.273" rx="27.6545" ry="27.6545"/>
<text text-anchor="middle" x="93" y="-645.073" font-family="Times,serif" font-size="9.00">41583</text>
</g>
<!-- &#45;6&#45;&gt;41583 -->
<g id="edge24" class="edge"><title>&#45;6&#45;&gt;41583</title>
<path fill="none" stroke="green" stroke-width="0.275343" d="M251.667,-732.69C227.411,-723.163 172.113,-700.401 129,-674.85 126.836,-673.568 124.644,-672.185 122.465,-670.747"/>
<polygon fill="green" stroke="green" stroke-width="0.275343" points="124.428,-667.849 114.216,-665.027 120.44,-673.601 124.428,-667.849"/>
</g>
<!-- 52826 -->
<g id="node22" class="node"><title>52826</title>
<ellipse fill="white" stroke="black" cx="320" cy="-556.118" rx="27.6545" ry="27.6545"/>
<text text-anchor="middle" x="320" y="-553.918" font-family="Times,serif" font-size="9.00">52826</text>
</g>
<!-- &#45;6&#45;&gt;52826 -->
<g id="edge26" class="edge"><title>&#45;6&#45;&gt;52826</title>
<path fill="none" stroke="green" stroke-width="0.556065" d="M266.552,-729.211C273.94,-705.421 295.675,-635.44 309.043,-592.396"/>
<polygon fill="green" stroke="green" stroke-width="0.556065" points="312.462,-593.189 312.086,-582.601 305.777,-591.113 312.462,-593.189"/>
</g>
<!-- ux&#45;&gt;34199 -->
<g id="edge22" class="edge"><title>ux&#45;&gt;34199</title>
<path fill="none" stroke="red" stroke-width="0.173742" d="M86,-902.122C86,-892.231 86,-879.503 86,-867.532"/>
<polygon fill="red" stroke="red" stroke-width="0.173742" points="89.5001,-867.297 86,-857.297 82.5001,-867.297 89.5001,-867.297"/>
</g>
<!-- 47233 -->
<g id="node9" class="node"><title>47233</title>
<ellipse fill="white" stroke="black" cx="159" cy="-829.581" rx="27.6545" ry="27.6545"/>
<text text-anchor="middle" x="159" y="-827.381" font-family="Times,serif" font-size="9.00">47233</text>
</g>
<!-- 50979 -->
<g id="node10" class="node"><title>50979</title>
<ellipse fill="white" stroke="black" cx="206" cy="-100.347" rx="27.6545" ry="27.6545"/>
<text text-anchor="middle" x="206" y="-98.1467" font-family="Times,serif" font-size="9.00">50979</text>
</g>
<!-- 50979&#45;&gt;uy -->
<g id="edge2" class="edge"><title>50979&#45;&gt;uy</title>
<path fill="none" stroke="green" stroke-width="0.163561" d="M206,-72.7205C206,-64.4151 206,-55.2409 206,-46.8773"/>
<polygon fill="green" stroke="green" stroke-width="0.163561" points="209.5,-46.8432 206,-36.8432 202.5,-46.8432 209.5,-46.8432"/>
</g>
<!-- 55187 -->
<g id="node19" class="node"><title>55187</title>
<ellipse fill="white" stroke="black" cx="91" cy="-738.427" rx="27.6545" ry="27.6545"/>
<text text-anchor="middle" x="91" y="-736.227" font-family="Times,serif" font-size="9.00">55187</text>
</g>
<!-- 34199&#45;&gt;55187 -->
<g id="edge25" class="edge"><title>34199&#45;&gt;55187</title>
<path fill="none" stroke="red" stroke-width="0.395687" d="M87.5002,-801.832C87.9501,-793.81 88.4517,-784.865 88.9315,-776.311"/>
<polygon fill="red" stroke="red" stroke-width="0.395687" points="92.4354,-776.338 89.5009,-766.157 85.4463,-775.946 92.4354,-776.338"/>
</g>
<!-- 41989 -->
<g id="node12" class="node"><title>41989</title>
<ellipse fill="white" stroke="black" cx="150" cy="-464.964" rx="27.6545" ry="27.6545"/>
<text text-anchor="middle" x="150" y="-462.764" font-family="Times,serif" font-size="9.00">41989</text>
</g>
<!-- 41989&#45;&gt;32636 -->
<g id="edge31" class="edge"><title>41989&#45;&gt;32636</title>
<path fill="none" stroke="red" stroke-width="0.294595" d="M164.421,-441.005C171.019,-430.501 178.943,-417.885 186.096,-406.497"/>
<polygon fill="red" stroke="red" stroke-width="0.294595" points="189.272,-408.021 191.627,-397.691 183.345,-404.298 189.272,-408.021"/>
</g>
<!-- 28838 -->
<g id="node13" class="node"><title>28838</title>
<ellipse fill="white" stroke="black" cx="159" cy="-1011.89" rx="27.6545" ry="27.6545"/>
<text text-anchor="middle" x="159" y="-1009.69" font-family="Times,serif" font-size="9.00">28838</text>
</g>
<!-- 53286 -->
<g id="node15" class="node"><title>53286</title>
<ellipse fill="white" stroke="black" cx="159" cy="-920.736" rx="27.6545" ry="27.6545"/>
<text text-anchor="middle" x="159" y="-918.536" font-family="Times,serif" font-size="9.00">53286</text>
</g>
<!-- 28838&#45;&gt;53286 -->
<g id="edge15" class="edge"><title>28838&#45;&gt;53286</title>
<path fill="none" stroke="green" stroke-width="0.469558" d="M159,-984.141C159,-976.119 159,-967.174 159,-958.619"/>
<polygon fill="green" stroke="green" stroke-width="0.469558" points="162.5,-958.466 159,-948.466 155.5,-958.466 162.5,-958.466"/>
</g>
<!-- 58855&#45;&gt;50979 -->
<g id="edge1" class="edge"><title>58855&#45;&gt;50979</title>
<path fill="none" stroke="red" stroke-width="0.319799" d="M264.408,-437.134C268.317,-383.738 272.866,-260.95 243,-163.924 239.56,-152.749 233.765,-141.467 227.769,-131.619"/>
<polygon fill="red" stroke="red" stroke-width="0.319799" points="230.606,-129.559 222.268,-123.023 224.71,-133.332 230.606,-129.559"/>
</g>
<!-- 58855&#45;&gt;32636 -->
<g id="edge19" class="edge"><title>58855&#45;&gt;32636</title>
<path fill="none" stroke="green" stroke-width="0.134943" d="M247.579,-441.005C240.981,-430.501 233.057,-417.885 225.904,-406.497"/>
<polygon fill="green" stroke="green" stroke-width="0.134943" points="228.655,-404.298 220.373,-397.691 222.728,-408.021 228.655,-404.298"/>
</g>
<!-- 53286&#45;&gt;47233 -->
<g id="edge13" class="edge"><title>53286&#45;&gt;47233</title>
<path fill="none" stroke="green" stroke-width="0.873221" d="M159,-892.986C159,-884.964 159,-876.02 159,-867.465"/>
<polygon fill="green" stroke="green" stroke-width="0.873221" points="162.5,-867.312 159,-857.312 155.5,-867.312 162.5,-867.312"/>
</g>
<!-- 54109 -->
<g id="node25" class="node"><title>54109</title>
<ellipse fill="white" stroke="black" cx="206" cy="-282.655" rx="27.6545" ry="27.6545"/>
<text text-anchor="middle" x="206" y="-280.455" font-family="Times,serif" font-size="9.00">54109</text>
</g>
<!-- 32636&#45;&gt;54109 -->
<g id="edge10" class="edge"><title>32636&#45;&gt;54109</title>
<path fill="none" stroke="red" stroke-width="0.459227" d="M206,-346.06C206,-338.038 206,-329.094 206,-320.539"/>
<polygon fill="red" stroke="red" stroke-width="0.459227" points="209.5,-320.386 206,-310.386 202.5,-320.386 209.5,-320.386"/>
</g>
<!-- 41583&#45;&gt;51388 -->
<g id="edge28" class="edge"><title>41583&#45;&gt;51388</title>
<path fill="none" stroke="red" stroke-width="0.321254" d="M93.3,-619.523C93.39,-611.501 93.4903,-602.557 93.5863,-594.002"/>
<polygon fill="red" stroke="red" stroke-width="0.321254" points="97.0877,-593.887 93.7002,-583.849 90.0881,-593.809 97.0877,-593.887"/>
</g>
<!-- 27568 -->
<g id="node18" class="node"><title>27568</title>
<ellipse fill="white" stroke="black" cx="374" cy="-100.347" rx="27.6545" ry="27.6545"/>
<text text-anchor="middle" x="374" y="-98.1467" font-family="Times,serif" font-size="9.00">27568</text>
</g>
<!-- 27568&#45;&gt;uy -->
<g id="edge5" class="edge"><title>27568&#45;&gt;uy</title>
<path fill="none" stroke="green" stroke-width="0.473806" d="M351.294,-84.0304C345.15,-80.15 338.421,-76.1325 332,-72.7696 298.743,-55.3511 258.534,-39.0954 232.627,-29.2039"/>
<polygon fill="green" stroke="green" stroke-width="0.473806" points="233.707,-25.8708 223.116,-25.6134 231.235,-32.4197 233.707,-25.8708"/>
</g>
<!-- 55187&#45;&gt;41583 -->
<g id="edge7" class="edge"><title>55187&#45;&gt;41583</title>
<path fill="none" stroke="red" stroke-width="0.255255" d="M91.6001,-710.678C91.78,-702.656 91.9807,-693.711 92.1726,-685.156"/>
<polygon fill="red" stroke="red" stroke-width="0.255255" points="95.6751,-685.079 92.4004,-675.003 88.6769,-684.922 95.6751,-685.079"/>
</g>
<!-- 36598 -->
<g id="node20" class="node"><title>36598</title>
<ellipse fill="white" stroke="black" cx="56" cy="-373.81" rx="27.6545" ry="27.6545"/>
<text text-anchor="middle" x="56" y="-371.61" font-family="Times,serif" font-size="9.00">36598</text>
</g>
<!-- 36598&#45;&gt;uy -->
<g id="edge20" class="edge"><title>36598&#45;&gt;uy</title>
<path fill="none" stroke="red" stroke-width="0.391096" d="M57.617,-345.947C60.899,-305.039 70.5443,-225.394 98,-163.924 120.113,-114.416 161.697,-65.7778 186.313,-39.4668"/>
<polygon fill="red" stroke="red" stroke-width="0.391096" points="189.017,-41.7024 193.367,-32.0419 183.942,-36.881 189.017,-41.7024"/>
</g>
<!-- 69078&#45;&gt;27568 -->
<g id="edge17" class="edge"><title>69078&#45;&gt;27568</title>
<path fill="none" stroke="green" stroke-width="0.432827" d="M374,-163.752C374,-155.73 374,-146.785 374,-138.23"/>
<polygon fill="green" stroke="green" stroke-width="0.432827" points="377.5,-138.077 374,-128.077 370.5,-138.077 377.5,-138.077"/>
</g>
<!-- 52826&#45;&gt;uy -->
<g id="edge8" class="edge"><title>52826&#45;&gt;uy</title>
<path fill="none" stroke="red" stroke-width="0.488452" d="M319.521,-528.54C318.929,-493.37 318,-429.438 318,-374.81 318,-374.81 318,-374.81 318,-190.501 318,-125.365 260.484,-65.7096 227.886,-37.1294"/>
<polygon fill="red" stroke="red" stroke-width="0.488452" points="230.061,-34.3844 220.185,-30.5483 225.513,-39.7059 230.061,-34.3844"/>
</g>
<!-- 39707 -->
<g id="node23" class="node"><title>39707</title>
<ellipse fill="white" stroke="black" cx="206" cy="-191.501" rx="27.6545" ry="27.6545"/>
<text text-anchor="middle" x="206" y="-189.301" font-family="Times,serif" font-size="9.00">39707</text>
</g>
<!-- 39707&#45;&gt;50979 -->
<g id="edge21" class="edge"><title>39707&#45;&gt;50979</title>
<path fill="none" stroke="red" stroke-width="0.381534" d="M206,-163.752C206,-155.73 206,-146.785 206,-138.23"/>
<polygon fill="red" stroke="red" stroke-width="0.381534" points="209.5,-138.077 206,-128.077 202.5,-138.077 209.5,-138.077"/>
</g>
<!-- 51388&#45;&gt;50979 -->
<g id="edge4" class="edge"><title>51388&#45;&gt;50979</title>
<path fill="none" stroke="red" stroke-width="0.129664" d="M97.983,-528.412C101.625,-504.513 107.298,-468.546 113,-437.387 135.332,-315.352 124.371,-279.68 169,-163.924 173.206,-153.014 179.213,-141.806 185.167,-131.943"/>
<polygon fill="red" stroke="red" stroke-width="0.129664" points="188.231,-133.646 190.567,-123.312 182.296,-129.933 188.231,-133.646"/>
</g>
<!-- 51388&#45;&gt;41989 -->
<g id="edge14" class="edge"><title>51388&#45;&gt;41989</title>
<path fill="none" stroke="red" stroke-width="0.189548" d="M108.421,-532.159C115.019,-521.656 122.943,-509.04 130.096,-497.652"/>
<polygon fill="red" stroke="red" stroke-width="0.189548" points="133.272,-499.175 135.627,-488.846 127.345,-495.452 133.272,-499.175"/>
</g>
<!-- 51388&#45;&gt;36598 -->
<g id="edge3" class="edge"><title>51388&#45;&gt;36598</title>
<path fill="none" stroke="green" stroke-width="0.731118" d="M88.0311,-528.959C85.5048,-517.754 82.56,-504.517 80,-492.541 74.1502,-465.176 67.841,-434.162 63.1601,-410.838"/>
<polygon fill="green" stroke="green" stroke-width="0.731118" points="66.5906,-410.144 61.1958,-401.025 59.7268,-411.518 66.5906,-410.144"/>
</g>
<!-- 54109&#45;&gt;39707 -->
<g id="edge23" class="edge"><title>54109&#45;&gt;39707</title>
<path fill="none" stroke="green" stroke-width="0.102591" d="M206,-254.906C206,-246.884 206,-237.939 206,-229.385"/>
<polygon fill="green" stroke="green" stroke-width="0.102591" points="209.5,-229.231 206,-219.231 202.5,-229.231 209.5,-229.231"/>
</g>
<!-- 59455&#45;&gt;41989 -->
<g id="edge16" class="edge"><title>59455&#45;&gt;41989</title>
<path fill="none" stroke="green" stroke-width="0.330837" d="M193.364,-532.621C186.358,-521.851 177.855,-508.781 170.241,-497.077"/>
<polygon fill="green" stroke="green" stroke-width="0.330837" points="173.018,-494.928 164.631,-488.454 167.151,-498.745 173.018,-494.928"/>
</g>
</g>
</svg>
