<?xml version="1.0" encoding="UTF-8" standalone="no"?>
<!DOCTYPE svg PUBLIC "-//W3C//DTD SVG 1.1//EN"
 "http://www.w3.org/Graphics/SVG/1.1/DTD/svg11.dtd">
<!-- Generated by graphviz version 2.38.0 (20140413.2041)
 -->
<!-- Title: %3 Pages: 1 -->
<svg width="517pt" height="523pt"
 viewBox="0.00 0.00 517.25 523.43" xmlns="http://www.w3.org/2000/svg" xmlns:xlink="http://www.w3.org/1999/xlink">
<g id="graph0" class="graph" transform="scale(1 1) rotate(0) translate(4 519.428)">
<title>%3</title>
<polygon fill="white" stroke="none" points="-4,4 -4,-519.428 513.249,-519.428 513.249,4 -4,4"/>
<!-- ext -->
<g id="node1" class="node"><title>ext</title>
<polygon fill="lightgray" stroke="black" points="27,-515.428 0,-515.428 0,-497.428 27,-497.428 27,-515.428"/>
<text text-anchor="middle" x="13.5" y="-504.228" font-family="Times,serif" font-size="9.00">ext</text>
</g>
<!-- ux -->
<g id="node7" class="node"><title>ux</title>
<ellipse fill="lightblue" stroke="black" cx="348.5" cy="-187.966" rx="18.2703" ry="18.2703"/>
<text text-anchor="middle" x="348.5" y="-185.766" font-family="Times,serif" font-size="9.00">ux</text>
</g>
<!-- ext&#45;&gt;ux -->
<g id="edge3" class="edge"><title>ext&#45;&gt;ux</title>
<path fill="none" stroke="green" stroke-width="0.486552" d="M14.542,-497.063C16.6953,-481.319 22.3905,-446.406 33.5,-419.002 71.137,-326.163 87.6897,-294.045 173.5,-242.35 220.596,-213.978 284.01,-199.567 320.144,-193.209"/>
<polygon fill="green" stroke="green" stroke-width="0.486552" points="321.149,-196.59 330.434,-191.488 319.994,-189.686 321.149,-196.59"/>
</g>
<!-- uy -->
<g id="node8" class="node"><title>uy</title>
<ellipse fill="lightblue" stroke="black" cx="206.5" cy="-355.425" rx="18.2703" ry="18.2703"/>
<text text-anchor="middle" x="206.5" y="-353.225" font-family="Times,serif" font-size="9.00">uy</text>
</g>
<!-- ext&#45;&gt;uy -->
<g id="edge26" class="edge"><title>ext&#45;&gt;uy</title>
<path fill="none" stroke="green" stroke-width="0.114699" d="M17.021,-497.193C24.559,-480.422 43.7721,-441.952 70.5,-419.002 102.956,-391.134 149.896,-373.233 179.279,-364.003"/>
<polygon fill="green" stroke="green" stroke-width="0.114699" points="180.329,-367.342 188.888,-361.097 178.303,-360.642 180.329,-367.342"/>
</g>
<!-- 53 -->
<g id="node13" class="node"><title>53</title>
<ellipse fill="white" stroke="black" cx="271.5" cy="-440.215" rx="18.2703" ry="18.2703"/>
<text text-anchor="middle" x="271.5" y="-438.015" font-family="Times,serif" font-size="9.00">53</text>
</g>
<!-- ext&#45;&gt;53 -->
<g id="edge19" class="edge"><title>ext&#45;&gt;53</title>
<path fill="none" stroke="red" stroke-width="0.210074" d="M27.0079,-502.067C67.6258,-491.957 189.222,-461.693 244.098,-448.035"/>
<polygon fill="red" stroke="red" stroke-width="0.210074" points="244.979,-451.423 253.837,-445.611 243.288,-444.63 244.979,-451.423"/>
</g>
<!-- eyt -->
<g id="node2" class="node"><title>eyt</title>
<polygon fill="lightgray" stroke="black" points="138,-515.428 111,-515.428 111,-497.428 138,-497.428 138,-515.428"/>
<text text-anchor="middle" x="124.5" y="-504.228" font-family="Times,serif" font-size="9.00">eyt</text>
</g>
<!-- eyt&#45;&gt;ux -->
<g id="edge15" class="edge"><title>eyt&#45;&gt;ux</title>
<path fill="none" stroke="green" stroke-width="0.275675" d="M110.917,-498.88C97.8214,-491.724 78.8035,-478.905 70.5,-461.428 62.408,-444.397 62.5169,-436.085 70.5,-419.002 123.777,-304.996 264.615,-228.268 322.795,-200.511"/>
<polygon fill="green" stroke="green" stroke-width="0.275675" points="324.457,-203.598 332.029,-196.188 321.489,-197.258 324.457,-203.598"/>
</g>
<!-- eyt&#45;&gt;uy -->
<g id="edge17" class="edge"><title>eyt&#45;&gt;uy</title>
<path fill="none" stroke="green" stroke-width="0.448474" d="M128.909,-497.417C140.828,-475.758 174.066,-415.362 192.946,-381.055"/>
<polygon fill="green" stroke="green" stroke-width="0.448474" points="196.105,-382.573 197.86,-372.124 189.972,-379.198 196.105,-382.573"/>
</g>
<!-- 419 -->
<g id="node9" class="node"><title>419</title>
<ellipse fill="white" stroke="black" cx="100.5" cy="-440.215" rx="21.4286" ry="21.4286"/>
<text text-anchor="middle" x="100.5" y="-438.015" font-family="Times,serif" font-size="9.00">419</text>
</g>
<!-- eyt&#45;&gt;419 -->
<g id="edge6" class="edge"><title>eyt&#45;&gt;419</title>
<path fill="none" stroke="green" stroke-width="0.679712" d="M121.46,-497.296C118.841,-490.288 114.899,-479.741 111.138,-469.678"/>
<polygon fill="green" stroke="green" stroke-width="0.679712" points="114.416,-468.451 107.636,-460.309 107.859,-470.901 114.416,-468.451"/>
</g>
<!-- eyt&#45;&gt;53 -->
<g id="edge11" class="edge"><title>eyt&#45;&gt;53</title>
<path fill="none" stroke="red" stroke-width="0.289035" d="M138.066,-499.503C162.437,-488.857 214.012,-466.328 245.422,-452.607"/>
<polygon fill="red" stroke="red" stroke-width="0.289035" points="247.089,-455.698 254.852,-448.488 244.287,-449.283 247.089,-455.698"/>
</g>
<!-- sf -->
<g id="node3" class="node"><title>sf</title>
<polygon fill="lightgray" stroke="black" points="283,-515.428 260,-515.428 260,-497.428 283,-497.428 283,-515.428"/>
<text text-anchor="middle" x="271.5" y="-504.228" font-family="Times,serif" font-size="9.00">sf</text>
</g>
<!-- sf&#45;&gt;ux -->
<g id="edge23" class="edge"><title>sf&#45;&gt;ux</title>
<path fill="none" stroke="green" stroke-width="0.612881" d="M281.763,-497.305C303.411,-479.431 353.253,-434.186 371.5,-383.002 392.492,-324.12 384.127,-303.574 371.5,-242.35 369.464,-232.479 365.516,-222.184 361.458,-213.299"/>
<polygon fill="green" stroke="green" stroke-width="0.612881" points="364.606,-211.771 357.096,-204.298 358.307,-214.824 364.606,-211.771"/>
</g>
<!-- sf&#45;&gt;uy -->
<g id="edge21" class="edge"><title>sf&#45;&gt;uy</title>
<path fill="none" stroke="green" stroke-width="0.117201" d="M265.801,-497.279C259.939,-488.655 250.8,-474.51 244.5,-461.428 232.066,-435.61 221.322,-404.6 214.462,-383.001"/>
<polygon fill="green" stroke="green" stroke-width="0.117201" points="217.731,-381.725 211.416,-373.218 211.047,-383.806 217.731,-381.725"/>
</g>
<!-- sf&#45;&gt;53 -->
<g id="edge10" class="edge"><title>sf&#45;&gt;53</title>
<path fill="none" stroke="green" stroke-width="0.240134" d="M271.5,-497.296C271.5,-490.132 271.5,-479.27 271.5,-469.006"/>
<polygon fill="green" stroke="green" stroke-width="0.240134" points="275,-468.707 271.5,-458.707 268,-468.708 275,-468.707"/>
</g>
<!-- sl -->
<g id="node4" class="node"><title>sl</title>
<polygon fill="lightgray" stroke="black" points="220,-515.428 197,-515.428 197,-497.428 220,-497.428 220,-515.428"/>
<text text-anchor="middle" x="208.5" y="-504.228" font-family="Times,serif" font-size="9.00">sl</text>
</g>
<!-- sl&#45;&gt;uy -->
<g id="edge25" class="edge"><title>sl&#45;&gt;uy</title>
<path fill="none" stroke="green" stroke-width="0.518753" d="M208.392,-497.417C208.111,-476.472 207.344,-419.302 206.877,-384.531"/>
<polygon fill="green" stroke="green" stroke-width="0.518753" points="210.371,-384.055 206.737,-374.103 203.372,-384.149 210.371,-384.055"/>
</g>
<!-- sl&#45;&gt;53 -->
<g id="edge24" class="edge"><title>sl&#45;&gt;53</title>
<path fill="none" stroke="red" stroke-width="0.127504" d="M216.479,-497.296C225.363,-488.241 240.046,-473.275 252.01,-461.081"/>
<polygon fill="red" stroke="red" stroke-width="0.127504" points="254.527,-463.513 259.032,-453.923 249.53,-458.61 254.527,-463.513"/>
</g>
<!-- sr -->
<g id="node5" class="node"><title>sr</title>
<polygon fill="lightgray" stroke="black" points="327,-515.428 304,-515.428 304,-497.428 327,-497.428 327,-515.428"/>
<text text-anchor="middle" x="315.5" y="-504.228" font-family="Times,serif" font-size="9.00">sr</text>
</g>
<!-- sr&#45;&gt;ux -->
<g id="edge1" class="edge"><title>sr&#45;&gt;ux</title>
<path fill="none" stroke="red" stroke-width="0.479961" d="M327.167,-500.67C350.877,-490.885 402.851,-468.805 407.5,-461.428 459.414,-379.054 446.995,-331.349 407.5,-242.35 400.352,-226.244 385.679,-212.934 372.754,-203.632"/>
<polygon fill="red" stroke="red" stroke-width="0.479961" points="374.444,-200.55 364.199,-197.848 370.523,-206.349 374.444,-200.55"/>
</g>
<!-- sr&#45;&gt;uy -->
<g id="edge18" class="edge"><title>sr&#45;&gt;uy</title>
<path fill="none" stroke="red" stroke-width="0.357248" d="M315.864,-497.284C316.197,-481.005 314.938,-443.882 298.5,-419.002 282.525,-394.823 253.678,-377.492 232.532,-367.287"/>
<polygon fill="red" stroke="red" stroke-width="0.357248" points="233.98,-364.101 223.432,-363.101 231.054,-370.46 233.98,-364.101"/>
</g>
<!-- sr&#45;&gt;53 -->
<g id="edge5" class="edge"><title>sr&#45;&gt;53</title>
<path fill="none" stroke="red" stroke-width="0.458162" d="M309.927,-497.296C304.252,-489.013 295.187,-475.784 287.287,-464.255"/>
<polygon fill="red" stroke="red" stroke-width="0.458162" points="290.088,-462.15 281.548,-455.879 284.313,-466.107 290.088,-462.15"/>
</g>
<!-- &#45;6 -->
<g id="node6" class="node"><title>&#45;6</title>
<polygon fill="lightgray" stroke="black" points="369.5,-515.428 345.5,-515.428 345.5,-497.428 369.5,-497.428 369.5,-515.428"/>
<text text-anchor="middle" x="357.5" y="-504.228" font-family="Times,serif" font-size="9.00">&#45;6</text>
</g>
<!-- &#45;6&#45;&gt;uy -->
<g id="edge4" class="edge"><title>&#45;6&#45;&gt;uy</title>
<path fill="none" stroke="red" stroke-width="0.733902" d="M355.897,-497.316C352.263,-480.771 341.991,-442.699 320.5,-419.002 296.532,-392.575 258.716,-374.929 233.281,-365.294"/>
<polygon fill="red" stroke="red" stroke-width="0.733902" points="234.462,-361.999 223.868,-361.879 232.074,-368.58 234.462,-361.999"/>
</g>
<!-- &#45;6&#45;&gt;53 -->
<g id="edge2" class="edge"><title>&#45;6&#45;&gt;53</title>
<path fill="none" stroke="red" stroke-width="0.319107" d="M346.608,-497.296C333.522,-487.525 311.218,-470.871 294.306,-458.244"/>
<polygon fill="red" stroke="red" stroke-width="0.319107" points="296.138,-455.243 286.031,-452.065 291.95,-460.852 296.138,-455.243"/>
</g>
<!-- 7477 -->
<g id="node14" class="node"><title>7477</title>
<ellipse fill="white" stroke="black" cx="484.5" cy="-267.099" rx="25" ry="25"/>
<text text-anchor="middle" x="484.5" y="-264.899" font-family="Times,serif" font-size="9.00">7477</text>
</g>
<!-- &#45;6&#45;&gt;7477 -->
<g id="edge9" class="edge"><title>&#45;6&#45;&gt;7477</title>
<path fill="none" stroke="green" stroke-width="0.23341" d="M369.621,-502.944C388.893,-498.328 426.298,-486.525 445.5,-461.428 481.196,-414.774 486.563,-343.821 486.22,-302.093"/>
<polygon fill="green" stroke="green" stroke-width="0.23341" points="489.716,-301.824 486.017,-291.896 482.717,-301.963 489.716,-301.824"/>
</g>
<!-- 14792 -->
<g id="node10" class="node"><title>14792</title>
<ellipse fill="white" stroke="black" cx="393.5" cy="-106.004" rx="27.6545" ry="27.6545"/>
<text text-anchor="middle" x="393.5" y="-103.804" font-family="Times,serif" font-size="9.00">14792</text>
</g>
<!-- ux&#45;&gt;14792 -->
<g id="edge14" class="edge"><title>ux&#45;&gt;14792</title>
<path fill="none" stroke="green" stroke-width="0.455291" d="M357.176,-171.548C362.284,-162.471 368.944,-150.637 375.164,-139.585"/>
<polygon fill="green" stroke="green" stroke-width="0.455291" points="378.388,-140.994 380.242,-130.562 372.287,-137.561 378.388,-140.994"/>
</g>
<!-- 419&#45;&gt;uy -->
<g id="edge8" class="edge"><title>419&#45;&gt;uy</title>
<path fill="none" stroke="green" stroke-width="1.02137" d="M117.062,-426.279C135.2,-412.113 164.373,-389.328 184.44,-373.655"/>
<polygon fill="green" stroke="green" stroke-width="1.02137" points="186.697,-376.333 192.424,-367.419 182.389,-370.816 186.697,-376.333"/>
</g>
<!-- 372 -->
<g id="node12" class="node"><title>372</title>
<ellipse fill="white" stroke="black" cx="432.5" cy="-21.2132" rx="21.4286" ry="21.4286"/>
<text text-anchor="middle" x="432.5" y="-19.0132" font-family="Times,serif" font-size="9.00">372</text>
</g>
<!-- 14792&#45;&gt;372 -->
<g id="edge22" class="edge"><title>14792&#45;&gt;372</title>
<path fill="none" stroke="red" stroke-width="0.200375" d="M404.99,-80.6115C409.554,-70.9245 414.825,-59.7338 419.525,-49.7566"/>
<polygon fill="red" stroke="red" stroke-width="0.200375" points="422.719,-51.1894 423.814,-40.6513 416.386,-48.2063 422.719,-51.1894"/>
</g>
<!-- 28074 -->
<g id="node11" class="node"><title>28074</title>
<ellipse fill="white" stroke="black" cx="334.5" cy="-355.425" rx="27.6545" ry="27.6545"/>
<text text-anchor="middle" x="334.5" y="-353.225" font-family="Times,serif" font-size="9.00">28074</text>
</g>
<!-- 3125 -->
<g id="node15" class="node"><title>3125</title>
<ellipse fill="white" stroke="black" cx="337.5" cy="-267.099" rx="25" ry="25"/>
<text text-anchor="middle" x="337.5" y="-264.899" font-family="Times,serif" font-size="9.00">3125</text>
</g>
<!-- 28074&#45;&gt;3125 -->
<g id="edge12" class="edge"><title>28074&#45;&gt;3125</title>
<path fill="none" stroke="red" stroke-width="0.233728" d="M335.433,-327.584C335.714,-319.491 336.026,-310.5 336.322,-302.01"/>
<polygon fill="red" stroke="red" stroke-width="0.233728" points="339.82,-302.113 336.669,-291.997 332.824,-301.869 339.82,-302.113"/>
</g>
<!-- 53&#45;&gt;ux -->
<g id="edge20" class="edge"><title>53&#45;&gt;ux</title>
<path fill="none" stroke="green" stroke-width="0.256569" d="M271.281,-421.733C271.477,-386.234 275.233,-303.861 303.5,-242.35 309.352,-229.615 319.098,-217.493 328.026,-208.029"/>
<polygon fill="green" stroke="green" stroke-width="0.256569" points="330.684,-210.319 335.23,-200.749 325.709,-205.395 330.684,-210.319"/>
</g>
<!-- 53&#45;&gt;uy -->
<g id="edge7" class="edge"><title>53&#45;&gt;uy</title>
<path fill="none" stroke="green" stroke-width="0.29126" d="M260.474,-425.171C250.421,-412.367 235.408,-393.245 223.766,-378.416"/>
<polygon fill="green" stroke="green" stroke-width="0.29126" points="226.292,-375.966 217.364,-370.262 220.786,-380.289 226.292,-375.966"/>
</g>
<!-- 53&#45;&gt;28074 -->
<g id="edge27" class="edge"><title>53&#45;&gt;28074</title>
<path fill="none" stroke="green" stroke-width="0.243285" d="M282.187,-425.171C290.327,-414.474 301.824,-399.366 311.967,-386.036"/>
<polygon fill="green" stroke="green" stroke-width="0.243285" points="314.795,-388.099 318.066,-378.022 309.225,-383.86 314.795,-388.099"/>
</g>
<!-- 7477&#45;&gt;ux -->
<g id="edge13" class="edge"><title>7477&#45;&gt;ux</title>
<path fill="none" stroke="green" stroke-width="0.19006" d="M463.551,-253.111C457.736,-249.569 451.399,-245.768 445.5,-242.35 421.2,-228.274 393.045,-212.878 373.348,-202.252"/>
<polygon fill="green" stroke="green" stroke-width="0.19006" points="374.877,-199.101 364.412,-197.446 371.561,-205.266 374.877,-199.101"/>
</g>
<!-- 7477&#45;&gt;372 -->
<g id="edge28" class="edge"><title>7477&#45;&gt;372</title>
<path fill="none" stroke="green" stroke-width="0.157674" d="M479.514,-242.714C470.017,-198.174 449.349,-101.236 438.868,-52.0789"/>
<polygon fill="green" stroke="green" stroke-width="0.157674" points="442.242,-51.1199 436.734,-42.0696 435.396,-52.5797 442.242,-51.1199"/>
</g>
<!-- 3125&#45;&gt;ux -->
<g id="edge16" class="edge"><title>3125&#45;&gt;ux</title>
<path fill="none" stroke="green" stroke-width="0.164889" d="M340.86,-242.537C342.046,-234.222 343.389,-224.804 344.615,-216.21"/>
<polygon fill="green" stroke="green" stroke-width="0.164889" points="348.086,-216.658 346.033,-206.264 341.156,-215.669 348.086,-216.658"/>
</g>
</g>
</svg>
