<?xml version="1.0" encoding="UTF-8" standalone="no"?>
<!DOCTYPE svg PUBLIC "-//W3C//DTD SVG 1.1//EN"
 "http://www.w3.org/Graphics/SVG/1.1/DTD/svg11.dtd">
<!-- Generated by graphviz version 2.38.0 (20140413.2041)
 -->
<!-- Title: %3 Pages: 1 -->
<svg width="1022pt" height="1403pt"
 viewBox="0.00 0.00 1022.08 1402.95" xmlns="http://www.w3.org/2000/svg" xmlns:xlink="http://www.w3.org/1999/xlink">
<g id="graph0" class="graph" transform="scale(1 1) rotate(0) translate(4 1398.95)">
<title>%3</title>
<polygon fill="white" stroke="none" points="-4,4 -4,-1398.95 1018.08,-1398.95 1018.08,4 -4,4"/>
<!-- ext -->
<g id="node1" class="node"><title>ext</title>
<polygon fill="lightgray" stroke="black" points="162,-1372.84 135,-1372.84 135,-1354.84 162,-1354.84 162,-1372.84"/>
<text text-anchor="middle" x="148.5" y="-1361.64" font-family="Times,serif" font-size="9.00">ext</text>
</g>
<!-- 60980 -->
<g id="node33" class="node"><title>60980</title>
<ellipse fill="white" stroke="black" cx="68.5" cy="-1265.62" rx="27.6545" ry="27.6545"/>
<text text-anchor="middle" x="68.5" y="-1263.42" font-family="Times,serif" font-size="9.00">60980</text>
</g>
<!-- ext&#45;&gt;60980 -->
<g id="edge16" class="edge"><title>ext&#45;&gt;60980</title>
<path fill="none" stroke="green" stroke-width="1.10821" d="M141.679,-1354.64C130.871,-1341.64 109.3,-1315.69 92.365,-1295.32"/>
<polygon fill="green" stroke="green" stroke-width="1.10821" points="94.9863,-1293 85.902,-1287.55 89.6036,-1297.47 94.9863,-1293"/>
</g>
<!-- 73833 -->
<g id="node50" class="node"><title>73833</title>
<ellipse fill="white" stroke="black" cx="356.5" cy="-1167.39" rx="27.6545" ry="27.6545"/>
<text text-anchor="middle" x="356.5" y="-1165.19" font-family="Times,serif" font-size="9.00">73833</text>
</g>
<!-- ext&#45;&gt;73833 -->
<g id="edge31" class="edge"><title>ext&#45;&gt;73833</title>
<path fill="none" stroke="red" stroke-width="0.459876" d="M158.713,-1354.76C173.999,-1342.57 203.591,-1318.55 227.5,-1296.73 264.452,-1263 305.053,-1221.89 330.647,-1195.44"/>
<polygon fill="red" stroke="red" stroke-width="0.459876" points="333.346,-1197.68 337.769,-1188.05 328.308,-1192.82 333.346,-1197.68"/>
</g>
<!-- eyt -->
<g id="node2" class="node"><title>eyt</title>
<polygon fill="lightgray" stroke="black" points="560,-1372.84 533,-1372.84 533,-1354.84 560,-1354.84 560,-1372.84"/>
<text text-anchor="middle" x="546.5" y="-1361.64" font-family="Times,serif" font-size="9.00">eyt</text>
</g>
<!-- sf -->
<g id="node3" class="node"><title>sf</title>
<polygon fill="lightgray" stroke="black" points="204,-1078.17 181,-1078.17 181,-1060.17 204,-1060.17 204,-1078.17"/>
<text text-anchor="middle" x="192.5" y="-1066.97" font-family="Times,serif" font-size="9.00">sf</text>
</g>
<!-- ux -->
<g id="node7" class="node"><title>ux</title>
<ellipse fill="lightblue" stroke="black" cx="253.5" cy="-970.94" rx="18.2703" ry="18.2703"/>
<text text-anchor="middle" x="253.5" y="-968.74" font-family="Times,serif" font-size="9.00">ux</text>
</g>
<!-- sf&#45;&gt;ux -->
<g id="edge64" class="edge"><title>sf&#45;&gt;ux</title>
<path fill="none" stroke="green" stroke-width="2.92999" d="M197.701,-1059.96C206.636,-1045.87 225.217,-1016.56 238.482,-995.631"/>
<polygon fill="green" stroke="green" stroke-width="2.92999" points="241.575,-997.289 243.973,-986.969 235.663,-993.541 241.575,-997.289"/>
</g>
<!-- sl -->
<g id="node4" class="node"><title>sl</title>
<polygon fill="lightgray" stroke="black" points="23,-1274.62 0,-1274.62 0,-1256.62 23,-1256.62 23,-1274.62"/>
<text text-anchor="middle" x="11.5" y="-1263.42" font-family="Times,serif" font-size="9.00">sl</text>
</g>
<!-- uy -->
<g id="node8" class="node"><title>uy</title>
<ellipse fill="lightblue" stroke="black" cx="68.5" cy="-1167.39" rx="18.2703" ry="18.2703"/>
<text text-anchor="middle" x="68.5" y="-1165.19" font-family="Times,serif" font-size="9.00">uy</text>
</g>
<!-- sl&#45;&gt;uy -->
<g id="edge51" class="edge"><title>sl&#45;&gt;uy</title>
<path fill="none" stroke="green" stroke-width="2.17339" d="M16.3598,-1256.41C24.6617,-1242.4 41.8769,-1213.34 54.2573,-1192.44"/>
<polygon fill="green" stroke="green" stroke-width="2.17339" points="57.3061,-1194.16 59.3913,-1183.77 51.2834,-1190.59 57.3061,-1194.16"/>
</g>
<!-- sr -->
<g id="node5" class="node"><title>sr</title>
<polygon fill="lightgray" stroke="black" points="283,-1372.84 260,-1372.84 260,-1354.84 283,-1354.84 283,-1372.84"/>
<text text-anchor="middle" x="271.5" y="-1361.64" font-family="Times,serif" font-size="9.00">sr</text>
</g>
<!-- sr&#45;&gt;ux -->
<g id="edge32" class="edge"><title>sr&#45;&gt;ux</title>
<path fill="none" stroke="green" stroke-width="0.937447" d="M274.04,-1354.6C285.161,-1317.2 327.518,-1159.99 293.5,-1038.05 289.033,-1022.04 279.518,-1006.04 270.888,-993.789"/>
<polygon fill="green" stroke="green" stroke-width="0.937447" points="273.595,-991.562 264.846,-985.586 267.959,-995.713 273.595,-991.562"/>
</g>
<!-- 87767 -->
<g id="node42" class="node"><title>87767</title>
<ellipse fill="white" stroke="black" cx="365.5" cy="-1265.62" rx="27.6545" ry="27.6545"/>
<text text-anchor="middle" x="365.5" y="-1263.42" font-family="Times,serif" font-size="9.00">87767</text>
</g>
<!-- sr&#45;&gt;87767 -->
<g id="edge61" class="edge"><title>sr&#45;&gt;87767</title>
<path fill="none" stroke="red" stroke-width="0.330006" d="M279.514,-1354.64C292.642,-1341.2 319.285,-1313.93 339.455,-1293.28"/>
<polygon fill="red" stroke="red" stroke-width="0.330006" points="342.071,-1295.61 346.555,-1286.01 337.064,-1290.72 342.071,-1295.61"/>
</g>
<!-- 128231 -->
<g id="node48" class="node"><title>128231</title>
<ellipse fill="white" stroke="black" cx="145.5" cy="-1265.62" rx="31.2258" ry="31.2258"/>
<text text-anchor="middle" x="145.5" y="-1263.42" font-family="Times,serif" font-size="9.00">128231</text>
</g>
<!-- sr&#45;&gt;128231 -->
<g id="edge49" class="edge"><title>sr&#45;&gt;128231</title>
<path fill="none" stroke="red" stroke-width="0.594626" d="M260.757,-1354.64C242.636,-1340.8 205.303,-1312.29 178.019,-1291.45"/>
<polygon fill="red" stroke="red" stroke-width="0.594626" points="179.978,-1288.54 169.906,-1285.26 175.729,-1294.11 179.978,-1288.54"/>
</g>
<!-- &#45;6 -->
<g id="node6" class="node"><title>&#45;6</title>
<polygon fill="lightgray" stroke="black" points="218.5,-1274.62 194.5,-1274.62 194.5,-1256.62 218.5,-1256.62 218.5,-1274.62"/>
<text text-anchor="middle" x="206.5" y="-1263.42" font-family="Times,serif" font-size="9.00">&#45;6</text>
</g>
<!-- &#45;6&#45;&gt;uy -->
<g id="edge15" class="edge"><title>&#45;6&#45;&gt;uy</title>
<path fill="none" stroke="red" stroke-width="1.96467" d="M202.5,-1256.5C198.86,-1249.83 192.927,-1240.52 185.5,-1234.5 153.631,-1208.67 134.866,-1220.91 100.5,-1198.5 96.0609,-1195.61 91.6746,-1192.07 87.6393,-1188.44"/>
<polygon fill="red" stroke="red" stroke-width="1.96467" points="90.0401,-1185.9 80.3905,-1181.52 85.206,-1190.96 90.0401,-1185.9"/>
</g>
<!-- 258053 -->
<g id="node14" class="node"><title>258053</title>
<ellipse fill="white" stroke="black" cx="216.5" cy="-1167.39" rx="31.2258" ry="31.2258"/>
<text text-anchor="middle" x="216.5" y="-1165.19" font-family="Times,serif" font-size="9.00">258053</text>
</g>
<!-- &#45;6&#45;&gt;258053 -->
<g id="edge57" class="edge"><title>&#45;6&#45;&gt;258053</title>
<path fill="none" stroke="green" stroke-width="0.231754" d="M207.353,-1256.41C208.463,-1245.72 210.483,-1226.29 212.343,-1208.39"/>
<polygon fill="green" stroke="green" stroke-width="0.231754" points="215.83,-1208.7 213.382,-1198.39 208.867,-1207.98 215.83,-1208.7"/>
</g>
<!-- 14871 -->
<g id="node20" class="node"><title>14871</title>
<ellipse fill="white" stroke="black" cx="453.5" cy="-497.491" rx="27.6545" ry="27.6545"/>
<text text-anchor="middle" x="453.5" y="-495.291" font-family="Times,serif" font-size="9.00">14871</text>
</g>
<!-- &#45;6&#45;&gt;14871 -->
<g id="edge27" class="edge"><title>&#45;6&#45;&gt;14871</title>
<path fill="none" stroke="red" stroke-width="0.216158" d="M201.942,-1256.32C195.382,-1244.04 183.322,-1220.14 176.5,-1198.5 159.051,-1143.16 152.5,-1128.19 152.5,-1070.17 152.5,-1070.17 152.5,-1070.17 152.5,-678.8 152.5,-557.394 334.935,-515.738 415.746,-503.241"/>
<polygon fill="red" stroke="red" stroke-width="0.216158" points="416.608,-506.652 425.99,-501.73 415.587,-499.727 416.608,-506.652"/>
</g>
<!-- 57597 -->
<g id="node57" class="node"><title>57597</title>
<ellipse fill="white" stroke="black" cx="298.5" cy="-27.5772" rx="27.6545" ry="27.6545"/>
<text text-anchor="middle" x="298.5" y="-25.3772" font-family="Times,serif" font-size="9.00">57597</text>
</g>
<!-- &#45;6&#45;&gt;57597 -->
<g id="edge63" class="edge"><title>&#45;6&#45;&gt;57597</title>
<path fill="none" stroke="green" stroke-width="0.109657" d="M201.189,-1256.53C197.068,-1250.38 191.127,-1241.75 185.5,-1234.5 172.555,-1217.82 164.744,-1216.97 154.5,-1198.5 125.515,-1146.26 114.5,-1129.91 114.5,-1070.17 114.5,-1070.17 114.5,-1070.17 114.5,-215.957 114.5,-131.441 210.976,-71.0737 264.21,-44.1966"/>
<polygon fill="green" stroke="green" stroke-width="0.109657" points="265.877,-47.2776 273.301,-39.7196 262.784,-40.9978 265.877,-47.2776"/>
</g>
<!-- 59784 -->
<g id="node13" class="node"><title>59784</title>
<ellipse fill="white" stroke="black" cx="253.5" cy="-872.715" rx="27.6545" ry="27.6545"/>
<text text-anchor="middle" x="253.5" y="-870.515" font-family="Times,serif" font-size="9.00">59784</text>
</g>
<!-- ux&#45;&gt;59784 -->
<g id="edge21" class="edge"><title>ux&#45;&gt;59784</title>
<path fill="none" stroke="green" stroke-width="0.239305" d="M253.5,-952.291C253.5,-940.59 253.5,-924.806 253.5,-910.454"/>
<polygon fill="green" stroke="green" stroke-width="0.239305" points="257,-910.335 253.5,-900.335 250,-910.335 257,-910.335"/>
</g>
<!-- 88886 -->
<g id="node35" class="node"><title>88886</title>
<ellipse fill="white" stroke="black" cx="326.5" cy="-872.715" rx="27.6545" ry="27.6545"/>
<text text-anchor="middle" x="326.5" y="-870.515" font-family="Times,serif" font-size="9.00">88886</text>
</g>
<!-- ux&#45;&gt;88886 -->
<g id="edge44" class="edge"><title>ux&#45;&gt;88886</title>
<path fill="none" stroke="green" stroke-width="0.277164" d="M264.271,-955.742C274.701,-941.994 290.833,-920.73 304.058,-903.297"/>
<polygon fill="green" stroke="green" stroke-width="0.277164" points="307.024,-905.179 310.279,-895.097 301.447,-900.948 307.024,-905.179"/>
</g>
<!-- 89071 -->
<g id="node53" class="node"><title>89071</title>
<ellipse fill="white" stroke="black" cx="354.5" cy="-588.645" rx="27.6545" ry="27.6545"/>
<text text-anchor="middle" x="354.5" y="-586.445" font-family="Times,serif" font-size="9.00">89071</text>
</g>
<!-- ux&#45;&gt;89071 -->
<g id="edge55" class="edge"><title>ux&#45;&gt;89071</title>
<path fill="none" stroke="red" stroke-width="0.454498" d="M242.64,-955.65C233.643,-942.853 221.545,-923.173 216.5,-903.828 209.521,-877.067 211.441,-868.791 216.5,-841.602 233.001,-752.919 239.602,-727.37 289.5,-652.222 299.167,-637.664 312.753,-623.91 325.006,-613.024"/>
<polygon fill="red" stroke="red" stroke-width="0.454498" points="327.516,-615.482 332.811,-606.306 322.949,-610.177 327.516,-615.482"/>
</g>
<!-- 55044 -->
<g id="node9" class="node"><title>55044</title>
<ellipse fill="white" stroke="black" cx="605.5" cy="-1363.84" rx="27.6545" ry="27.6545"/>
<text text-anchor="middle" x="605.5" y="-1361.64" font-family="Times,serif" font-size="9.00">55044</text>
</g>
<!-- 178053 -->
<g id="node10" class="node"><title>178053</title>
<ellipse fill="white" stroke="black" cx="682.5" cy="-1363.84" rx="31.2258" ry="31.2258"/>
<text text-anchor="middle" x="682.5" y="-1361.64" font-family="Times,serif" font-size="9.00">178053</text>
</g>
<!-- 67844 -->
<g id="node11" class="node"><title>67844</title>
<ellipse fill="white" stroke="black" cx="550.5" cy="-1069.17" rx="27.6545" ry="27.6545"/>
<text text-anchor="middle" x="550.5" y="-1066.97" font-family="Times,serif" font-size="9.00">67844</text>
</g>
<!-- 222087 -->
<g id="node12" class="node"><title>222087</title>
<ellipse fill="white" stroke="black" cx="326.5" cy="-774.489" rx="31.2258" ry="31.2258"/>
<text text-anchor="middle" x="326.5" y="-772.289" font-family="Times,serif" font-size="9.00">222087</text>
</g>
<!-- 68658 -->
<g id="node32" class="node"><title>68658</title>
<ellipse fill="white" stroke="black" cx="326.5" cy="-679.8" rx="27.6545" ry="27.6545"/>
<text text-anchor="middle" x="326.5" y="-677.6" font-family="Times,serif" font-size="9.00">68658</text>
</g>
<!-- 222087&#45;&gt;68658 -->
<g id="edge48" class="edge"><title>222087&#45;&gt;68658</title>
<path fill="none" stroke="green" stroke-width="0.192634" d="M326.5,-743.139C326.5,-734.957 326.5,-726.016 326.5,-717.525"/>
<polygon fill="green" stroke="green" stroke-width="0.192634" points="330,-717.473 326.5,-707.473 323,-717.473 330,-717.473"/>
</g>
<!-- 181026 -->
<g id="node24" class="node"><title>181026</title>
<ellipse fill="white" stroke="black" cx="253.5" cy="-1069.17" rx="31.2258" ry="31.2258"/>
<text text-anchor="middle" x="253.5" y="-1066.97" font-family="Times,serif" font-size="9.00">181026</text>
</g>
<!-- 258053&#45;&gt;181026 -->
<g id="edge9" class="edge"><title>258053&#45;&gt;181026</title>
<path fill="none" stroke="green" stroke-width="0.802482" d="M227.401,-1138.04C231.02,-1128.63 235.108,-1118 238.956,-1107.99"/>
<polygon fill="green" stroke="green" stroke-width="0.802482" points="242.227,-1109.24 242.549,-1098.65 235.693,-1106.72 242.227,-1109.24"/>
</g>
<!-- 193675 -->
<g id="node15" class="node"><title>193675</title>
<ellipse fill="white" stroke="black" cx="515.5" cy="-872.715" rx="31.2258" ry="31.2258"/>
<text text-anchor="middle" x="515.5" y="-870.515" font-family="Times,serif" font-size="9.00">193675</text>
</g>
<!-- 84786 -->
<g id="node36" class="node"><title>84786</title>
<ellipse fill="white" stroke="black" cx="476.5" cy="-774.489" rx="27.6545" ry="27.6545"/>
<text text-anchor="middle" x="476.5" y="-772.289" font-family="Times,serif" font-size="9.00">84786</text>
</g>
<!-- 193675&#45;&gt;84786 -->
<g id="edge59" class="edge"><title>193675&#45;&gt;84786</title>
<path fill="none" stroke="red" stroke-width="0.150659" d="M504.115,-843.624C499.837,-833.069 494.925,-820.95 490.441,-809.887"/>
<polygon fill="red" stroke="red" stroke-width="0.150659" points="493.637,-808.455 486.637,-800.502 487.15,-811.084 493.637,-808.455"/>
</g>
<!-- 89356 -->
<g id="node16" class="node"><title>89356</title>
<ellipse fill="white" stroke="black" cx="403.5" cy="-774.489" rx="27.6545" ry="27.6545"/>
<text text-anchor="middle" x="403.5" y="-772.289" font-family="Times,serif" font-size="9.00">89356</text>
</g>
<!-- 141328 -->
<g id="node17" class="node"><title>141328</title>
<ellipse fill="white" stroke="black" cx="571.5" cy="-402.801" rx="31.2258" ry="31.2258"/>
<text text-anchor="middle" x="571.5" y="-400.601" font-family="Times,serif" font-size="9.00">141328</text>
</g>
<!-- 77341 -->
<g id="node22" class="node"><title>77341</title>
<ellipse fill="white" stroke="black" cx="571.5" cy="-216.957" rx="27.6545" ry="27.6545"/>
<text text-anchor="middle" x="571.5" y="-214.757" font-family="Times,serif" font-size="9.00">77341</text>
</g>
<!-- 141328&#45;&gt;77341 -->
<g id="edge47" class="edge"><title>141328&#45;&gt;77341</title>
<path fill="none" stroke="red" stroke-width="0.252879" d="M571.5,-371.443C571.5,-339.464 571.5,-289.087 571.5,-254.841"/>
<polygon fill="red" stroke="red" stroke-width="0.252879" points="575,-254.769 571.5,-244.769 568,-254.769 575,-254.769"/>
</g>
<!-- 93039 -->
<g id="node52" class="node"><title>93039</title>
<ellipse fill="white" stroke="black" cx="630.5" cy="-308.111" rx="27.6545" ry="27.6545"/>
<text text-anchor="middle" x="630.5" y="-305.911" font-family="Times,serif" font-size="9.00">93039</text>
</g>
<!-- 141328&#45;&gt;93039 -->
<g id="edge19" class="edge"><title>141328&#45;&gt;93039</title>
<path fill="none" stroke="green" stroke-width="0.21017" d="M587.935,-375.982C594.945,-364.969 603.189,-352.018 610.545,-340.461"/>
<polygon fill="green" stroke="green" stroke-width="0.21017" points="613.545,-342.266 615.962,-331.951 607.639,-338.507 613.545,-342.266"/>
</g>
<!-- 190353 -->
<g id="node18" class="node"><title>190353</title>
<ellipse fill="white" stroke="black" cx="691.5" cy="-122.267" rx="31.2258" ry="31.2258"/>
<text text-anchor="middle" x="691.5" y="-120.067" font-family="Times,serif" font-size="9.00">190353</text>
</g>
<!-- 31865 -->
<g id="node55" class="node"><title>31865</title>
<ellipse fill="white" stroke="black" cx="651.5" cy="-27.5772" rx="27.6545" ry="27.6545"/>
<text text-anchor="middle" x="651.5" y="-25.3772" font-family="Times,serif" font-size="9.00">31865</text>
</g>
<!-- 190353&#45;&gt;31865 -->
<g id="edge14" class="edge"><title>190353&#45;&gt;31865</title>
<path fill="none" stroke="green" stroke-width="0.795552" d="M679.499,-93.457C675.313,-83.7585 670.568,-72.7635 666.19,-62.6168"/>
<polygon fill="green" stroke="green" stroke-width="0.795552" points="669.31,-61.0133 662.134,-53.2186 662.883,-63.7869 669.31,-61.0133"/>
</g>
<!-- 87571 -->
<g id="node19" class="node"><title>87571</title>
<ellipse fill="white" stroke="black" cx="513.5" cy="-1167.39" rx="27.6545" ry="27.6545"/>
<text text-anchor="middle" x="513.5" y="-1165.19" font-family="Times,serif" font-size="9.00">87571</text>
</g>
<!-- 87571&#45;&gt;67844 -->
<g id="edge3" class="edge"><title>87571&#45;&gt;67844</title>
<path fill="none" stroke="green" stroke-width="0.397813" d="M523.125,-1141.36C527.45,-1130.11 532.623,-1116.66 537.303,-1104.49"/>
<polygon fill="green" stroke="green" stroke-width="0.397813" points="540.601,-1105.66 540.923,-1095.07 534.068,-1103.15 540.601,-1105.66"/>
</g>
<!-- 57948 -->
<g id="node43" class="node"><title>57948</title>
<ellipse fill="white" stroke="black" cx="477.5" cy="-1069.17" rx="27.6545" ry="27.6545"/>
<text text-anchor="middle" x="477.5" y="-1066.97" font-family="Times,serif" font-size="9.00">57948</text>
</g>
<!-- 87571&#45;&gt;57948 -->
<g id="edge7" class="edge"><title>87571&#45;&gt;57948</title>
<path fill="none" stroke="green" stroke-width="0.192075" d="M504.135,-1141.36C499.96,-1130.2 494.972,-1116.87 490.448,-1104.77"/>
<polygon fill="green" stroke="green" stroke-width="0.192075" points="493.725,-1103.55 486.943,-1095.41 487.169,-1106 493.725,-1103.55"/>
</g>
<!-- 14871&#45;&gt;141328 -->
<g id="edge54" class="edge"><title>14871&#45;&gt;141328</title>
<path fill="none" stroke="green" stroke-width="0.588094" d="M474.869,-479.706C492.848,-465.583 518.827,-445.176 539.322,-429.077"/>
<polygon fill="green" stroke="green" stroke-width="0.588094" points="541.743,-431.626 547.445,-422.696 537.419,-426.121 541.743,-431.626"/>
</g>
<!-- 177968 -->
<g id="node29" class="node"><title>177968</title>
<ellipse fill="white" stroke="black" cx="453.5" cy="-402.801" rx="31.2258" ry="31.2258"/>
<text text-anchor="middle" x="453.5" y="-400.601" font-family="Times,serif" font-size="9.00">177968</text>
</g>
<!-- 14871&#45;&gt;177968 -->
<g id="edge23" class="edge"><title>14871&#45;&gt;177968</title>
<path fill="none" stroke="green" stroke-width="0.484948" d="M453.5,-469.681C453.5,-461.775 453.5,-452.94 453.5,-444.373"/>
<polygon fill="green" stroke="green" stroke-width="0.484948" points="457,-444.135 453.5,-434.135 450,-444.135 457,-444.135"/>
</g>
<!-- 59159 -->
<g id="node21" class="node"><title>59159</title>
<ellipse fill="white" stroke="black" cx="686.5" cy="-402.801" rx="27.6545" ry="27.6545"/>
<text text-anchor="middle" x="686.5" y="-400.601" font-family="Times,serif" font-size="9.00">59159</text>
</g>
<!-- 59159&#45;&gt;93039 -->
<g id="edge6" class="edge"><title>59159&#45;&gt;93039</title>
<path fill="none" stroke="green" stroke-width="0.851305" d="M672.657,-378.889C665.725,-367.414 657.22,-353.338 649.67,-340.842"/>
<polygon fill="green" stroke="green" stroke-width="0.851305" points="652.544,-338.83 644.378,-332.081 646.553,-342.45 652.544,-338.83"/>
</g>
<!-- 77341&#45;&gt;190353 -->
<g id="edge53" class="edge"><title>77341&#45;&gt;190353</title>
<path fill="none" stroke="green" stroke-width="0.230272" d="M592.954,-199.386C611.403,-185.135 638.285,-164.371 659.313,-148.128"/>
<polygon fill="green" stroke="green" stroke-width="0.230272" points="661.57,-150.808 667.345,-141.925 657.291,-145.268 661.57,-150.808"/>
</g>
<!-- 202279 -->
<g id="node26" class="node"><title>202279</title>
<ellipse fill="white" stroke="black" cx="451.5" cy="-122.267" rx="31.2258" ry="31.2258"/>
<text text-anchor="middle" x="451.5" y="-120.067" font-family="Times,serif" font-size="9.00">202279</text>
</g>
<!-- 77341&#45;&gt;202279 -->
<g id="edge58" class="edge"><title>77341&#45;&gt;202279</title>
<path fill="none" stroke="green" stroke-width="0.255673" d="M550.046,-199.386C531.597,-185.135 504.715,-164.371 483.687,-148.128"/>
<polygon fill="green" stroke="green" stroke-width="0.255673" points="485.709,-145.268 475.655,-141.925 481.43,-150.808 485.709,-145.268"/>
</g>
<!-- 186704 -->
<g id="node39" class="node"><title>186704</title>
<ellipse fill="white" stroke="black" cx="611.5" cy="-122.267" rx="31.2258" ry="31.2258"/>
<text text-anchor="middle" x="611.5" y="-120.067" font-family="Times,serif" font-size="9.00">186704</text>
</g>
<!-- 77341&#45;&gt;186704 -->
<g id="edge42" class="edge"><title>77341&#45;&gt;186704</title>
<path fill="none" stroke="red" stroke-width="0.125327" d="M582.219,-191.118C586.294,-181.675 591.03,-170.701 595.49,-160.367"/>
<polygon fill="red" stroke="red" stroke-width="0.125327" points="598.732,-161.687 599.481,-151.118 592.305,-158.913 598.732,-161.687"/>
</g>
<!-- 233439 -->
<g id="node45" class="node"><title>233439</title>
<ellipse fill="white" stroke="black" cx="531.5" cy="-122.267" rx="31.2258" ry="31.2258"/>
<text text-anchor="middle" x="531.5" y="-120.067" font-family="Times,serif" font-size="9.00">233439</text>
</g>
<!-- 77341&#45;&gt;233439 -->
<g id="edge33" class="edge"><title>77341&#45;&gt;233439</title>
<path fill="none" stroke="green" stroke-width="0.446955" d="M560.781,-191.118C556.706,-181.675 551.97,-170.701 547.51,-160.367"/>
<polygon fill="green" stroke="green" stroke-width="0.446955" points="550.695,-158.913 543.519,-151.118 544.268,-161.687 550.695,-158.913"/>
</g>
<!-- 73631 -->
<g id="node23" class="node"><title>73631</title>
<ellipse fill="white" stroke="black" cx="759.5" cy="-1363.84" rx="27.6545" ry="27.6545"/>
<text text-anchor="middle" x="759.5" y="-1361.64" font-family="Times,serif" font-size="9.00">73631</text>
</g>
<!-- 181026&#45;&gt;ux -->
<g id="edge5" class="edge"><title>181026&#45;&gt;ux</title>
<path fill="none" stroke="green" stroke-width="0.369038" d="M253.5,-1037.98C253.5,-1025.75 253.5,-1011.7 253.5,-999.72"/>
<polygon fill="green" stroke="green" stroke-width="0.369038" points="257,-999.407 253.5,-989.407 250,-999.407 257,-999.407"/>
</g>
<!-- 88229 -->
<g id="node25" class="node"><title>88229</title>
<ellipse fill="white" stroke="black" cx="592.5" cy="-872.715" rx="27.6545" ry="27.6545"/>
<text text-anchor="middle" x="592.5" y="-870.515" font-family="Times,serif" font-size="9.00">88229</text>
</g>
<!-- 73901 -->
<g id="node27" class="node"><title>73901</title>
<ellipse fill="white" stroke="black" cx="742.5" cy="-1167.39" rx="27.6545" ry="27.6545"/>
<text text-anchor="middle" x="742.5" y="-1165.19" font-family="Times,serif" font-size="9.00">73901</text>
</g>
<!-- 73901&#45;&gt;141328 -->
<g id="edge17" class="edge"><title>73901&#45;&gt;141328</title>
<path fill="none" stroke="green" stroke-width="0.162113" d="M738.505,-1140.04C733.202,-1102.72 724.5,-1032.29 724.5,-971.94 724.5,-971.94 724.5,-971.94 724.5,-871.715 724.5,-732.272 731.365,-690.903 680.5,-561.068 661.367,-512.231 624.372,-463.812 598.826,-433.873"/>
<polygon fill="green" stroke="green" stroke-width="0.162113" points="601.464,-431.572 592.273,-426.302 596.172,-436.154 601.464,-431.572"/>
</g>
<!-- 88683 -->
<g id="node51" class="node"><title>88683</title>
<ellipse fill="white" stroke="black" cx="798.5" cy="-679.8" rx="27.6545" ry="27.6545"/>
<text text-anchor="middle" x="798.5" y="-677.6" font-family="Times,serif" font-size="9.00">88683</text>
</g>
<!-- 73901&#45;&gt;88683 -->
<g id="edge68" class="edge"><title>73901&#45;&gt;88683</title>
<path fill="none" stroke="red" stroke-width="0.582303" d="M752.68,-1141.7C766.77,-1105.24 790.5,-1034.53 790.5,-971.94 790.5,-971.94 790.5,-971.94 790.5,-871.715 790.5,-818.043 793.695,-755.958 796.047,-717.53"/>
<polygon fill="red" stroke="red" stroke-width="0.582303" points="799.553,-717.545 796.685,-707.346 792.567,-717.108 799.553,-717.545"/>
</g>
<!-- 191095 -->
<g id="node54" class="node"><title>191095</title>
<ellipse fill="white" stroke="black" cx="627.5" cy="-1069.17" rx="31.2258" ry="31.2258"/>
<text text-anchor="middle" x="627.5" y="-1066.97" font-family="Times,serif" font-size="9.00">191095</text>
</g>
<!-- 73901&#45;&gt;191095 -->
<g id="edge45" class="edge"><title>73901&#45;&gt;191095</title>
<path fill="none" stroke="green" stroke-width="0.413033" d="M721.674,-1148.97C704.153,-1134.3 678.833,-1113.12 658.86,-1096.41"/>
<polygon fill="green" stroke="green" stroke-width="0.413033" points="660.859,-1093.51 650.943,-1089.78 656.366,-1098.88 660.859,-1093.51"/>
</g>
<!-- 133678 -->
<g id="node28" class="node"><title>133678</title>
<ellipse fill="white" stroke="black" cx="836.5" cy="-1363.84" rx="31.2258" ry="31.2258"/>
<text text-anchor="middle" x="836.5" y="-1361.64" font-family="Times,serif" font-size="9.00">133678</text>
</g>
<!-- 91618 -->
<g id="node46" class="node"><title>91618</title>
<ellipse fill="white" stroke="black" cx="512.5" cy="-308.111" rx="27.6545" ry="27.6545"/>
<text text-anchor="middle" x="512.5" y="-305.911" font-family="Times,serif" font-size="9.00">91618</text>
</g>
<!-- 177968&#45;&gt;91618 -->
<g id="edge38" class="edge"><title>177968&#45;&gt;91618</title>
<path fill="none" stroke="red" stroke-width="0.210499" d="M469.935,-375.982C476.945,-364.969 485.189,-352.018 492.545,-340.461"/>
<polygon fill="red" stroke="red" stroke-width="0.210499" points="495.545,-342.266 497.962,-331.951 489.639,-338.507 495.545,-342.266"/>
</g>
<!-- 208305 -->
<g id="node30" class="node"><title>208305</title>
<ellipse fill="white" stroke="black" cx="372.5" cy="-970.94" rx="31.2258" ry="31.2258"/>
<text text-anchor="middle" x="372.5" y="-968.74" font-family="Times,serif" font-size="9.00">208305</text>
</g>
<!-- 208305&#45;&gt;84786 -->
<g id="edge43" class="edge"><title>208305&#45;&gt;84786</title>
<path fill="none" stroke="red" stroke-width="0.171655" d="M374.072,-939.73C376.663,-912.418 383.499,-871.958 401.5,-841.602 403.129,-838.855 427.68,-817.41 448.255,-799.677"/>
<polygon fill="red" stroke="red" stroke-width="0.171655" points="450.591,-802.284 455.89,-793.109 446.026,-796.977 450.591,-802.284"/>
</g>
<!-- 161586 -->
<g id="node31" class="node"><title>161586</title>
<ellipse fill="white" stroke="black" cx="590.5" cy="-1167.39" rx="31.2258" ry="31.2258"/>
<text text-anchor="middle" x="590.5" y="-1165.19" font-family="Times,serif" font-size="9.00">161586</text>
</g>
<!-- 161586&#45;&gt;67844 -->
<g id="edge11" class="edge"><title>161586&#45;&gt;67844</title>
<path fill="none" stroke="red" stroke-width="0.557046" d="M578.823,-1138.3C574.4,-1127.66 569.316,-1115.43 564.686,-1104.29"/>
<polygon fill="red" stroke="red" stroke-width="0.557046" points="567.834,-1102.75 560.764,-1094.86 561.37,-1105.43 567.834,-1102.75"/>
</g>
<!-- 68658&#45;&gt;89071 -->
<g id="edge35" class="edge"><title>68658&#45;&gt;89071</title>
<path fill="none" stroke="red" stroke-width="0.761155" d="M334.599,-653.012C337.38,-644.157 340.541,-634.091 343.512,-624.631"/>
<polygon fill="red" stroke="red" stroke-width="0.761155" points="346.859,-625.656 346.516,-615.067 340.181,-623.558 346.859,-625.656"/>
</g>
<!-- 68658&#45;&gt;57597 -->
<g id="edge66" class="edge"><title>68658&#45;&gt;57597</title>
<path fill="none" stroke="green" stroke-width="0.212245" d="M319.864,-652.719C311.584,-617.831 298.5,-553.929 298.5,-498.491 298.5,-498.491 298.5,-498.491 298.5,-215.957 298.5,-163.622 298.5,-103.066 298.5,-65.2883"/>
<polygon fill="green" stroke="green" stroke-width="0.212245" points="302,-65.2629 298.5,-55.2629 295,-65.263 302,-65.2629"/>
</g>
<!-- 60980&#45;&gt;uy -->
<g id="edge26" class="edge"><title>60980&#45;&gt;uy</title>
<path fill="none" stroke="green" stroke-width="0.81614" d="M68.5,-1237.81C68.5,-1224.87 68.5,-1209.34 68.5,-1196.26"/>
<polygon fill="green" stroke="green" stroke-width="0.81614" points="72.0001,-1195.95 68.5,-1185.95 65.0001,-1195.95 72.0001,-1195.95"/>
</g>
<!-- 87861 -->
<g id="node34" class="node"><title>87861</title>
<ellipse fill="white" stroke="black" cx="487.5" cy="-970.94" rx="27.6545" ry="27.6545"/>
<text text-anchor="middle" x="487.5" y="-968.74" font-family="Times,serif" font-size="9.00">87861</text>
</g>
<!-- 87861&#45;&gt;88886 -->
<g id="edge24" class="edge"><title>87861&#45;&gt;88886</title>
<path fill="none" stroke="green" stroke-width="0.334348" d="M465.595,-953.514C459.218,-948.93 452.17,-944.052 445.5,-939.828 417.297,-921.966 383.989,-903.688 359.795,-890.89"/>
<polygon fill="green" stroke="green" stroke-width="0.334348" points="361.155,-887.652 350.675,-886.098 357.899,-893.848 361.155,-887.652"/>
</g>
<!-- 68197 -->
<g id="node47" class="node"><title>68197</title>
<ellipse fill="white" stroke="black" cx="438.5" cy="-872.715" rx="27.6545" ry="27.6545"/>
<text text-anchor="middle" x="438.5" y="-870.515" font-family="Times,serif" font-size="9.00">68197</text>
</g>
<!-- 87861&#45;&gt;68197 -->
<g id="edge29" class="edge"><title>87861&#45;&gt;68197</title>
<path fill="none" stroke="red" stroke-width="0.275527" d="M475.388,-946.154C469.321,-934.242 461.88,-919.629 455.274,-906.656"/>
<polygon fill="red" stroke="red" stroke-width="0.275527" points="458.3,-904.884 450.643,-897.561 452.062,-908.06 458.3,-904.884"/>
</g>
<!-- 88886&#45;&gt;222087 -->
<g id="edge18" class="edge"><title>88886&#45;&gt;222087</title>
<path fill="none" stroke="green" stroke-width="0.254605" d="M326.5,-844.911C326.5,-836.008 326.5,-825.885 326.5,-816.176"/>
<polygon fill="green" stroke="green" stroke-width="0.254605" points="330,-815.88 326.5,-805.88 323,-815.88 330,-815.88"/>
</g>
<!-- 88886&#45;&gt;89356 -->
<g id="edge36" class="edge"><title>88886&#45;&gt;89356</title>
<path fill="none" stroke="green" stroke-width="0.753334" d="M343.589,-850.359C354.43,-836.811 368.592,-819.113 380.425,-804.325"/>
<polygon fill="green" stroke="green" stroke-width="0.753334" points="383.209,-806.449 386.724,-796.454 377.743,-802.075 383.209,-806.449"/>
</g>
<!-- 88886&#45;&gt;68658 -->
<g id="edge67" class="edge"><title>88886&#45;&gt;68658</title>
<path fill="none" stroke="green" stroke-width="0.367474" d="M309.753,-850.772C300.958,-838.412 291.078,-822.013 286.5,-805.602 279.069,-778.964 278.741,-769.922 286.5,-743.377 289.969,-731.507 296.453,-719.749 303.206,-709.683"/>
<polygon fill="green" stroke="green" stroke-width="0.367474" points="306.212,-711.496 309.141,-701.314 300.501,-707.447 306.212,-711.496"/>
</g>
<!-- 84786&#45;&gt;14871 -->
<g id="edge52" class="edge"><title>84786&#45;&gt;14871</title>
<path fill="none" stroke="green" stroke-width="0.136985" d="M474.274,-746.872C470.143,-697.485 461.286,-591.589 456.583,-535.35"/>
<polygon fill="green" stroke="green" stroke-width="0.136985" points="460.049,-534.797 455.727,-525.123 453.073,-535.38 460.049,-534.797"/>
</g>
<!-- 84786&#45;&gt;68658 -->
<g id="edge13" class="edge"><title>84786&#45;&gt;68658</title>
<path fill="none" stroke="green" stroke-width="0.272539" d="M456.101,-755.259C451.14,-751.158 445.748,-746.962 440.5,-743.377 414.775,-725.804 383.661,-708.994 360.442,-697.23"/>
<polygon fill="green" stroke="green" stroke-width="0.272539" points="361.837,-694.015 351.329,-692.666 358.703,-700.274 361.837,-694.015"/>
</g>
<!-- 84786&#45;&gt;93039 -->
<g id="edge1" class="edge"><title>84786&#45;&gt;93039</title>
<path fill="none" stroke="green" stroke-width="0.104725" d="M488.288,-749.431C514.577,-694.752 578.3,-556.378 611.5,-433.914 619.378,-404.855 624.272,-371.045 627.117,-345.95"/>
<polygon fill="green" stroke="green" stroke-width="0.104725" points="630.622,-346.086 628.213,-335.769 623.662,-345.336 630.622,-346.086"/>
</g>
<!-- 74046 -->
<g id="node37" class="node"><title>74046</title>
<ellipse fill="white" stroke="black" cx="414.5" cy="-1363.84" rx="27.6545" ry="27.6545"/>
<text text-anchor="middle" x="414.5" y="-1361.64" font-family="Times,serif" font-size="9.00">74046</text>
</g>
<!-- 74046&#45;&gt;208305 -->
<g id="edge12" class="edge"><title>74046&#45;&gt;208305</title>
<path fill="none" stroke="red" stroke-width="0.36134" d="M412.34,-1336.3C408.827,-1293.96 401.462,-1208.53 393.5,-1136.28 388.823,-1093.84 382.51,-1045.37 378.03,-1012.12"/>
<polygon fill="red" stroke="red" stroke-width="0.36134" points="381.455,-1011.33 376.644,-1001.89 374.518,-1012.27 381.455,-1011.33"/>
</g>
<!-- 74046&#45;&gt;87767 -->
<g id="edge37" class="edge"><title>74046&#45;&gt;87767</title>
<path fill="none" stroke="red" stroke-width="0.258848" d="M402.388,-1339.06C396.321,-1327.14 388.88,-1312.53 382.274,-1299.56"/>
<polygon fill="red" stroke="red" stroke-width="0.258848" points="385.3,-1297.79 377.643,-1290.46 379.062,-1300.96 385.3,-1297.79"/>
</g>
<!-- 92926 -->
<g id="node58" class="node"><title>92926</title>
<ellipse fill="white" stroke="black" cx="557.5" cy="-1265.62" rx="27.6545" ry="27.6545"/>
<text text-anchor="middle" x="557.5" y="-1263.42" font-family="Times,serif" font-size="9.00">92926</text>
</g>
<!-- 74046&#45;&gt;92926 -->
<g id="edge30" class="edge"><title>74046&#45;&gt;92926</title>
<path fill="none" stroke="red" stroke-width="0.187599" d="M434.829,-1344.51C439.793,-1340.41 445.204,-1336.24 450.5,-1332.73 479.651,-1313.39 491.219,-1315.87 520.5,-1296.73 523.273,-1294.92 526.082,-1292.93 528.85,-1290.88"/>
<polygon fill="red" stroke="red" stroke-width="0.187599" points="531.187,-1293.5 536.945,-1284.6 526.898,-1287.97 531.187,-1293.5"/>
</g>
<!-- 74692 -->
<g id="node38" class="node"><title>74692</title>
<ellipse fill="white" stroke="black" cx="487.5" cy="-1363.84" rx="27.6545" ry="27.6545"/>
<text text-anchor="middle" x="487.5" y="-1361.64" font-family="Times,serif" font-size="9.00">74692</text>
</g>
<!-- 74692&#45;&gt;87767 -->
<g id="edge50" class="edge"><title>74692&#45;&gt;87767</title>
<path fill="none" stroke="red" stroke-width="0.11442" d="M466.68,-1345.18C461.737,-1341.05 456.458,-1336.71 451.5,-1332.73 433.11,-1317.98 412.142,-1301.85 395.514,-1289.21"/>
<polygon fill="red" stroke="red" stroke-width="0.11442" points="397.334,-1286.2 387.251,-1282.95 393.106,-1291.78 397.334,-1286.2"/>
</g>
<!-- 137053 -->
<g id="node44" class="node"><title>137053</title>
<ellipse fill="white" stroke="black" cx="480.5" cy="-1265.62" rx="31.2258" ry="31.2258"/>
<text text-anchor="middle" x="480.5" y="-1263.42" font-family="Times,serif" font-size="9.00">137053</text>
</g>
<!-- 74692&#45;&gt;137053 -->
<g id="edge22" class="edge"><title>74692&#45;&gt;137053</title>
<path fill="none" stroke="green" stroke-width="0.330604" d="M485.569,-1336.29C484.908,-1327.21 484.153,-1316.83 483.431,-1306.91"/>
<polygon fill="green" stroke="green" stroke-width="0.330604" points="486.913,-1306.53 482.697,-1296.81 479.932,-1307.04 486.913,-1306.53"/>
</g>
<!-- 74692&#45;&gt;91618 -->
<g id="edge20" class="edge"><title>74692&#45;&gt;91618</title>
<path fill="none" stroke="red" stroke-width="0.585513" d="M507.815,-1344.49C512.779,-1340.39 518.194,-1336.23 523.5,-1332.73 553.037,-1313.25 567.647,-1319.77 594.5,-1296.73 647.766,-1251.03 686.5,-1238.57 686.5,-1168.39 686.5,-1168.39 686.5,-1168.39 686.5,-871.715 686.5,-665.302 581.702,-634.129 531.5,-433.914 524.177,-404.71 519.242,-370.91 516.241,-345.857"/>
<polygon fill="red" stroke="red" stroke-width="0.585513" points="519.692,-345.229 515.072,-335.694 512.738,-346.029 519.692,-345.229"/>
</g>
<!-- 186704&#45;&gt;31865 -->
<g id="edge40" class="edge"><title>186704&#45;&gt;31865</title>
<path fill="none" stroke="green" stroke-width="0.411053" d="M623.501,-93.457C627.687,-83.7585 632.432,-72.7635 636.81,-62.6168"/>
<polygon fill="green" stroke="green" stroke-width="0.411053" points="640.117,-63.7869 640.866,-53.2186 633.69,-61.0133 640.117,-63.7869"/>
</g>
<!-- 55123 -->
<g id="node40" class="node"><title>55123</title>
<ellipse fill="white" stroke="black" cx="913.5" cy="-1363.84" rx="27.6545" ry="27.6545"/>
<text text-anchor="middle" x="913.5" y="-1361.64" font-family="Times,serif" font-size="9.00">55123</text>
</g>
<!-- 88023 -->
<g id="node41" class="node"><title>88023</title>
<ellipse fill="white" stroke="black" cx="451.5" cy="-216.957" rx="27.6545" ry="27.6545"/>
<text text-anchor="middle" x="451.5" y="-214.757" font-family="Times,serif" font-size="9.00">88023</text>
</g>
<!-- 88023&#45;&gt;202279 -->
<g id="edge65" class="edge"><title>88023&#45;&gt;202279</title>
<path fill="none" stroke="red" stroke-width="0.409853" d="M451.5,-189.147C451.5,-181.241 451.5,-172.406 451.5,-163.839"/>
<polygon fill="red" stroke="red" stroke-width="0.409853" points="455,-163.601 451.5,-153.601 448,-163.601 455,-163.601"/>
</g>
<!-- 57948&#45;&gt;59784 -->
<g id="edge56" class="edge"><title>57948&#45;&gt;59784</title>
<path fill="none" stroke="red" stroke-width="0.150388" d="M467.722,-1043.36C454.204,-1010.21 429.548,-953.994 412.5,-939.828 368.692,-903.423 339.74,-930.667 289.5,-903.828 286.625,-902.292 283.77,-900.501 280.998,-898.572"/>
<polygon fill="red" stroke="red" stroke-width="0.150388" points="283.076,-895.755 272.998,-892.488 278.839,-901.327 283.076,-895.755"/>
</g>
<!-- 57948&#45;&gt;190353 -->
<g id="edge8" class="edge"><title>57948&#45;&gt;190353</title>
<path fill="none" stroke="green" stroke-width="0.415777" d="M497.099,-1049.58C502.177,-1045.4 507.822,-1041.25 513.5,-1038.05 556.472,-1013.82 583.95,-1037.27 618.5,-1002.05 700.826,-918.144 780.5,-616.042 780.5,-498.491 780.5,-498.491 780.5,-498.491 780.5,-307.111 780.5,-248.922 743.933,-189.795 717.677,-154.84"/>
<polygon fill="green" stroke="green" stroke-width="0.415777" points="720.124,-152.28 711.252,-146.489 714.576,-156.549 720.124,-152.28"/>
</g>
<!-- 57948&#45;&gt;87861 -->
<g id="edge39" class="edge"><title>57948&#45;&gt;87861</title>
<path fill="none" stroke="green" stroke-width="0.593621" d="M480.259,-1041.62C481.319,-1031.42 482.549,-1019.58 483.691,-1008.6"/>
<polygon fill="green" stroke="green" stroke-width="0.593621" points="487.197,-1008.71 484.75,-998.402 480.235,-1007.99 487.197,-1008.71"/>
</g>
<!-- 137053&#45;&gt;73833 -->
<g id="edge25" class="edge"><title>137053&#45;&gt;73833</title>
<path fill="none" stroke="red" stroke-width="0.153186" d="M456.297,-1245.83C436.262,-1230.29 407.711,-1208.13 386.277,-1191.5"/>
<polygon fill="red" stroke="red" stroke-width="0.153186" points="388.199,-1188.56 378.153,-1185.19 383.908,-1194.09 388.199,-1188.56"/>
</g>
<!-- 233439&#45;&gt;57597 -->
<g id="edge2" class="edge"><title>233439&#45;&gt;57597</title>
<path fill="none" stroke="red" stroke-width="0.735152" d="M507.818,-101.434C502.646,-97.6861 497.053,-94.0411 491.5,-91.1543 440.181,-64.4746 375.29,-46.275 335.353,-36.6536"/>
<polygon fill="red" stroke="red" stroke-width="0.735152" points="336.053,-33.2226 325.516,-34.336 334.447,-40.036 336.053,-33.2226"/>
</g>
<!-- 91618&#45;&gt;77341 -->
<g id="edge62" class="edge"><title>91618&#45;&gt;77341</title>
<path fill="none" stroke="red" stroke-width="0.269315" d="M527.388,-284.614C534.515,-273.844 543.165,-260.774 550.91,-249.07"/>
<polygon fill="red" stroke="red" stroke-width="0.269315" points="554.017,-250.718 556.617,-240.447 548.179,-246.855 554.017,-250.718"/>
</g>
<!-- 128231&#45;&gt;uy -->
<g id="edge46" class="edge"><title>128231&#45;&gt;uy</title>
<path fill="none" stroke="green" stroke-width="0.401964" d="M126.466,-1240.83C114.181,-1225.48 98.3068,-1205.64 86.2774,-1190.61"/>
<polygon fill="green" stroke="green" stroke-width="0.401964" points="88.6759,-1188 79.6952,-1182.38 83.2104,-1192.38 88.6759,-1188"/>
</g>
<!-- 41704 -->
<g id="node49" class="node"><title>41704</title>
<ellipse fill="white" stroke="black" cx="581.5" cy="-970.94" rx="27.6545" ry="27.6545"/>
<text text-anchor="middle" x="581.5" y="-968.74" font-family="Times,serif" font-size="9.00">41704</text>
</g>
<!-- 41704&#45;&gt;193675 -->
<g id="edge10" class="edge"><title>41704&#45;&gt;193675</title>
<path fill="none" stroke="red" stroke-width="0.379509" d="M566.192,-947.622C558.008,-935.69 547.763,-920.752 538.628,-907.435"/>
<polygon fill="red" stroke="red" stroke-width="0.379509" points="541.362,-905.232 532.819,-898.966 535.589,-909.192 541.362,-905.232"/>
</g>
<!-- 41704&#45;&gt;88229 -->
<g id="edge60" class="edge"><title>41704&#45;&gt;88229</title>
<path fill="none" stroke="green" stroke-width="0.246841" d="M584.535,-943.392C585.701,-933.19 587.054,-921.357 588.31,-910.37"/>
<polygon fill="green" stroke="green" stroke-width="0.246841" points="591.817,-910.51 589.475,-900.177 584.862,-909.715 591.817,-910.51"/>
</g>
<!-- 88683&#45;&gt;77341 -->
<g id="edge4" class="edge"><title>88683&#45;&gt;77341</title>
<path fill="none" stroke="red" stroke-width="0.308337" d="M786.072,-655.033C769.574,-621.217 742.5,-556.837 742.5,-498.491 742.5,-498.491 742.5,-498.491 742.5,-401.801 742.5,-321.782 654.569,-261.989 604.816,-234.561"/>
<polygon fill="red" stroke="red" stroke-width="0.308337" points="606.465,-231.474 596,-229.819 603.149,-237.639 606.465,-231.474"/>
</g>
<!-- 89071&#45;&gt;14871 -->
<g id="edge34" class="edge"><title>89071&#45;&gt;14871</title>
<path fill="none" stroke="green" stroke-width="0.489385" d="M374.534,-569.604C389.295,-556.311 409.552,-538.069 425.853,-523.389"/>
<polygon fill="green" stroke="green" stroke-width="0.489385" points="428.407,-525.799 433.496,-516.506 423.723,-520.597 428.407,-525.799"/>
</g>
<!-- 191095&#45;&gt;87861 -->
<g id="edge28" class="edge"><title>191095&#45;&gt;87861</title>
<path fill="none" stroke="red" stroke-width="0.266562" d="M603.136,-1049.45C598.014,-1045.62 592.613,-1041.66 587.5,-1038.05 564.942,-1022.13 538.905,-1004.95 519.055,-992.098"/>
<polygon fill="red" stroke="red" stroke-width="0.266562" points="520.705,-988.997 510.405,-986.517 516.91,-994.879 520.705,-988.997"/>
</g>
<!-- 80123 -->
<g id="node56" class="node"><title>80123</title>
<ellipse fill="white" stroke="black" cx="986.5" cy="-1363.84" rx="27.6545" ry="27.6545"/>
<text text-anchor="middle" x="986.5" y="-1361.64" font-family="Times,serif" font-size="9.00">80123</text>
</g>
<!-- 92926&#45;&gt;87571 -->
<g id="edge41" class="edge"><title>92926&#45;&gt;87571</title>
<path fill="none" stroke="red" stroke-width="0.25185" d="M546.397,-1240.33C541.082,-1228.71 534.631,-1214.6 528.855,-1201.97"/>
<polygon fill="red" stroke="red" stroke-width="0.25185" points="531.941,-1200.3 524.6,-1192.67 525.575,-1203.21 531.941,-1200.3"/>
</g>
</g>
</svg>
