<?xml version="1.0" encoding="UTF-8" standalone="no"?>
<!DOCTYPE svg PUBLIC "-//W3C//DTD SVG 1.1//EN"
 "http://www.w3.org/Graphics/SVG/1.1/DTD/svg11.dtd">
<!-- Generated by graphviz version 2.38.0 (20140413.2041)
 -->
<!-- Title: %3 Pages: 1 -->
<svg width="478pt" height="343pt"
 viewBox="0.00 0.00 478.08 342.53" xmlns="http://www.w3.org/2000/svg" xmlns:xlink="http://www.w3.org/1999/xlink">
<g id="graph0" class="graph" transform="scale(1 1) rotate(0) translate(4 338.534)">
<title>%3</title>
<polygon fill="white" stroke="none" points="-4,4 -4,-338.534 474.077,-338.534 474.077,4 -4,4"/>
<!-- ext -->
<g id="node1" class="node"><title>ext</title>
<polygon fill="lightgray" stroke="black" points="27,-261.957 0,-261.957 0,-243.957 27,-243.957 27,-261.957"/>
<text text-anchor="middle" x="13.5" y="-250.757" font-family="Times,serif" font-size="9.00">ext</text>
</g>
<!-- ux -->
<g id="node7" class="node"><title>ux</title>
<ellipse fill="lightblue" stroke="black" cx="89.5" cy="-18.3848" rx="18.2703" ry="18.2703"/>
<text text-anchor="middle" x="89.5" y="-16.1848" font-family="Times,serif" font-size="9.00">ux</text>
</g>
<!-- ext&#45;&gt;ux -->
<g id="edge2" class="edge"><title>ext&#45;&gt;ux</title>
<path fill="none" stroke="green" stroke-width="0.344334" d="M16.1161,-243.951C26.3201,-212.725 63.725,-98.2605 80.8433,-45.8757"/>
<polygon fill="green" stroke="green" stroke-width="0.344334" points="84.203,-46.8621 83.9824,-36.2695 77.5493,-44.6877 84.203,-46.8621"/>
</g>
<!-- wz -->
<g id="node9" class="node"><title>wz</title>
<ellipse fill="lightblue" stroke="black" cx="132.5" cy="-170.288" rx="19.1842" ry="19.1842"/>
<text text-anchor="middle" x="132.5" y="-168.088" font-family="Times,serif" font-size="9.00">wz</text>
</g>
<!-- ext&#45;&gt;wz -->
<g id="edge1" class="edge"><title>ext&#45;&gt;wz</title>
<path fill="none" stroke="green" stroke-width="0.239001" d="M19.9624,-243.92C24.7189,-238.313 31.5435,-230.88 38.5,-225.38 59.696,-208.619 86.6691,-193.651 106.28,-183.733"/>
<polygon fill="green" stroke="green" stroke-width="0.239001" points="107.853,-186.86 115.259,-179.284 104.745,-180.588 107.853,-186.86"/>
</g>
<!-- eyt -->
<g id="node2" class="node"><title>eyt</title>
<polygon fill="lightgray" stroke="black" points="75,-261.957 48,-261.957 48,-243.957 75,-243.957 75,-261.957"/>
<text text-anchor="middle" x="61.5" y="-250.757" font-family="Times,serif" font-size="9.00">eyt</text>
</g>
<!-- eyt&#45;&gt;ux -->
<g id="edge10" class="edge"><title>eyt&#45;&gt;ux</title>
<path fill="none" stroke="red" stroke-width="0.30473" d="M62.4638,-243.951C66.1974,-212.94 79.8151,-99.8292 86.1797,-46.964"/>
<polygon fill="red" stroke="red" stroke-width="0.30473" points="89.6657,-47.2889 87.3862,-36.9422 82.7159,-46.4521 89.6657,-47.2889"/>
</g>
<!-- eyt&#45;&gt;wz -->
<g id="edge5" class="edge"><title>eyt&#45;&gt;wz</title>
<path fill="none" stroke="green" stroke-width="0.332801" d="M68.3412,-243.498C72.6364,-238.236 78.3238,-231.356 83.5,-225.38 93.0566,-214.345 103.935,-202.288 113.01,-192.363"/>
<polygon fill="green" stroke="green" stroke-width="0.332801" points="115.658,-194.654 119.842,-184.921 110.501,-189.92 115.658,-194.654"/>
</g>
<!-- 334 -->
<g id="node11" class="node"><title>334</title>
<ellipse fill="white" stroke="black" cx="132.5" cy="-93.9828" rx="21.4286" ry="21.4286"/>
<text text-anchor="middle" x="132.5" y="-91.7828" font-family="Times,serif" font-size="9.00">334</text>
</g>
<!-- eyt&#45;&gt;334 -->
<g id="edge12" class="edge"><title>eyt&#45;&gt;334</title>
<path fill="none" stroke="green" stroke-width="0.377267" d="M64.7954,-243.788C71.7937,-226.543 88.7872,-185.211 104.5,-151.196 108.912,-141.646 113.975,-131.31 118.572,-122.136"/>
<polygon fill="green" stroke="green" stroke-width="0.377267" points="121.763,-123.583 123.148,-113.079 115.515,-120.427 121.763,-123.583"/>
</g>
<!-- sf -->
<g id="node3" class="node"><title>sf</title>
<polygon fill="lightgray" stroke="black" points="269,-261.957 246,-261.957 246,-243.957 269,-243.957 269,-261.957"/>
<text text-anchor="middle" x="257.5" y="-250.757" font-family="Times,serif" font-size="9.00">sf</text>
</g>
<!-- sf&#45;&gt;ux -->
<g id="edge14" class="edge"><title>sf&#45;&gt;ux</title>
<path fill="none" stroke="green" stroke-width="0.499999" d="M254.65,-243.671C245.066,-216.679 211.812,-129.744 162.5,-72.7696 148.8,-56.9411 129.57,-43.1196 114.285,-33.5079"/>
<polygon fill="green" stroke="green" stroke-width="0.499999" points="115.727,-30.2884 105.363,-28.087 112.092,-36.2707 115.727,-30.2884"/>
</g>
<!-- sf&#45;&gt;wz -->
<g id="edge15" class="edge"><title>sf&#45;&gt;wz</title>
<path fill="none" stroke="green" stroke-width="0.102204" d="M245.964,-244.512C225.764,-231.476 183.588,-204.258 156.734,-186.927"/>
<polygon fill="green" stroke="green" stroke-width="0.102204" points="158.568,-183.945 148.268,-181.464 154.772,-189.827 158.568,-183.945"/>
</g>
<!-- sl -->
<g id="node4" class="node"><title>sl</title>
<polygon fill="lightgray" stroke="black" points="277,-334.534 254,-334.534 254,-316.534 277,-316.534 277,-334.534"/>
<text text-anchor="middle" x="265.5" y="-323.334" font-family="Times,serif" font-size="9.00">sl</text>
</g>
<!-- uy -->
<g id="node8" class="node"><title>uy</title>
<ellipse fill="lightblue" stroke="black" cx="378.5" cy="-252.957" rx="18.2703" ry="18.2703"/>
<text text-anchor="middle" x="378.5" y="-250.757" font-family="Times,serif" font-size="9.00">uy</text>
</g>
<!-- sl&#45;&gt;uy -->
<g id="edge18" class="edge"><title>sl&#45;&gt;uy</title>
<path fill="none" stroke="green" stroke-width="0.964731" d="M277.266,-319.874C294.449,-312.777 327.022,-298.202 351.5,-280.534 354,-278.73 356.49,-276.695 358.889,-274.575"/>
<polygon fill="green" stroke="green" stroke-width="0.964731" points="361.755,-276.679 366.582,-267.248 356.927,-271.61 361.755,-276.679"/>
</g>
<!-- sl&#45;&gt;334 -->
<g id="edge16" class="edge"><title>sl&#45;&gt;334</title>
<path fill="none" stroke="red" stroke-width="0.318273" d="M259.51,-316.358C253.321,-307.711 243.592,-293.548 236.5,-280.534 206.443,-225.373 212.641,-204.561 179.5,-151.196 172.16,-139.376 162.512,-127.395 153.869,-117.548"/>
<polygon fill="red" stroke="red" stroke-width="0.318273" points="156.21,-114.918 146.918,-109.829 151.009,-119.602 156.21,-114.918"/>
</g>
<!-- 11159 -->
<g id="node12" class="node"><title>11159</title>
<ellipse fill="white" stroke="black" cx="314.5" cy="-252.957" rx="27.6545" ry="27.6545"/>
<text text-anchor="middle" x="314.5" y="-250.757" font-family="Times,serif" font-size="9.00">11159</text>
</g>
<!-- sl&#45;&gt;11159 -->
<g id="edge4" class="edge"><title>sl&#45;&gt;11159</title>
<path fill="none" stroke="green" stroke-width="0.267366" d="M271.121,-316.438C276.583,-308.571 285.22,-296.13 293.355,-284.413"/>
<polygon fill="green" stroke="green" stroke-width="0.267366" points="296.309,-286.296 299.137,-276.085 290.559,-282.304 296.309,-286.296"/>
</g>
<!-- 15001 -->
<g id="node13" class="node"><title>15001</title>
<ellipse fill="white" stroke="black" cx="120.5" cy="-252.957" rx="27.6545" ry="27.6545"/>
<text text-anchor="middle" x="120.5" y="-250.757" font-family="Times,serif" font-size="9.00">15001</text>
</g>
<!-- sl&#45;&gt;15001 -->
<g id="edge9" class="edge"><title>sl&#45;&gt;15001</title>
<path fill="none" stroke="red" stroke-width="0.238454" d="M253.927,-320.938C233.533,-314.369 190.165,-299.356 156.5,-280.534 154.305,-279.307 152.089,-277.965 149.893,-276.557"/>
<polygon fill="red" stroke="red" stroke-width="0.238454" points="151.839,-273.648 141.606,-270.902 147.894,-279.43 151.839,-273.648"/>
</g>
<!-- sr -->
<g id="node5" class="node"><title>sr</title>
<polygon fill="lightgray" stroke="black" points="189,-261.957 166,-261.957 166,-243.957 189,-243.957 189,-261.957"/>
<text text-anchor="middle" x="177.5" y="-250.757" font-family="Times,serif" font-size="9.00">sr</text>
</g>
<!-- sr&#45;&gt;wz -->
<g id="edge19" class="edge"><title>sr&#45;&gt;wz</title>
<path fill="none" stroke="red" stroke-width="0.984054" d="M173.021,-243.927C166.888,-232.934 155.601,-212.7 146.494,-196.374"/>
<polygon fill="red" stroke="red" stroke-width="0.984054" points="149.368,-194.341 141.439,-187.313 143.254,-197.751 149.368,-194.341"/>
</g>
<!-- sr&#45;&gt;334 -->
<g id="edge3" class="edge"><title>sr&#45;&gt;334</title>
<path fill="none" stroke="red" stroke-width="0.292396" d="M176.952,-243.928C175.595,-226.607 171.37,-184.598 160.5,-151.196 157.245,-141.193 152.466,-130.745 147.774,-121.608"/>
<polygon fill="red" stroke="red" stroke-width="0.292396" points="150.781,-119.809 142.984,-112.636 144.606,-123.106 150.781,-119.809"/>
</g>
<!-- &#45;6 -->
<g id="node6" class="node"><title>&#45;6</title>
<polygon fill="lightgray" stroke="black" points="390.5,-334.534 366.5,-334.534 366.5,-316.534 390.5,-316.534 390.5,-334.534"/>
<text text-anchor="middle" x="378.5" y="-323.334" font-family="Times,serif" font-size="9.00">&#45;6</text>
</g>
<!-- &#45;6&#45;&gt;uy -->
<g id="edge11" class="edge"><title>&#45;6&#45;&gt;uy</title>
<path fill="none" stroke="red" stroke-width="0.215237" d="M378.5,-316.438C378.5,-307.895 378.5,-293.958 378.5,-281.412"/>
<polygon fill="red" stroke="red" stroke-width="0.215237" points="382,-281.349 378.5,-271.349 375,-281.349 382,-281.349"/>
</g>
<!-- 18989 -->
<g id="node10" class="node"><title>18989</title>
<ellipse fill="white" stroke="black" cx="442.5" cy="-252.957" rx="27.6545" ry="27.6545"/>
<text text-anchor="middle" x="442.5" y="-250.757" font-family="Times,serif" font-size="9.00">18989</text>
</g>
<!-- &#45;6&#45;&gt;18989 -->
<g id="edge7" class="edge"><title>&#45;6&#45;&gt;18989</title>
<path fill="none" stroke="green" stroke-width="0.29678" d="M385.842,-316.438C393.564,-307.922 406.147,-294.046 417.495,-281.531"/>
<polygon fill="green" stroke="green" stroke-width="0.29678" points="420.223,-283.734 424.347,-273.975 415.037,-279.032 420.223,-283.734"/>
</g>
<!-- &#45;6&#45;&gt;11159 -->
<g id="edge13" class="edge"><title>&#45;6&#45;&gt;11159</title>
<path fill="none" stroke="red" stroke-width="0.121028" d="M371.158,-316.438C363.436,-307.922 350.853,-294.046 339.505,-281.531"/>
<polygon fill="red" stroke="red" stroke-width="0.121028" points="341.963,-279.032 332.653,-273.975 336.777,-283.734 341.963,-279.032"/>
</g>
<!-- wz&#45;&gt;334 -->
<g id="edge8" class="edge"><title>wz&#45;&gt;334</title>
<path fill="none" stroke="green" stroke-width="0.640122" d="M132.5,-150.92C132.5,-143.221 132.5,-134.061 132.5,-125.405"/>
<polygon fill="green" stroke="green" stroke-width="0.640122" points="136,-125.229 132.5,-115.229 129,-125.229 136,-125.229"/>
</g>
<!-- 334&#45;&gt;ux -->
<g id="edge6" class="edge"><title>334&#45;&gt;ux</title>
<path fill="none" stroke="red" stroke-width="0.43684" d="M122.091,-75.1667C116.534,-65.6559 109.616,-53.8155 103.585,-43.4932"/>
<polygon fill="red" stroke="red" stroke-width="0.43684" points="106.427,-41.4194 98.3607,-34.5507 100.383,-44.9506 106.427,-41.4194"/>
</g>
<!-- 15001&#45;&gt;wz -->
<g id="edge17" class="edge"><title>15001&#45;&gt;wz</title>
<path fill="none" stroke="green" stroke-width="0.285987" d="M124.429,-225.543C125.66,-217.272 127.022,-208.111 128.272,-199.707"/>
<polygon fill="green" stroke="green" stroke-width="0.285987" points="131.767,-199.999 129.777,-189.593 124.844,-198.969 131.767,-199.999"/>
</g>
</g>
</svg>
