<?xml version="1.0" encoding="utf-8" standalone="no"?>
<!DOCTYPE svg PUBLIC "-//W3C//DTD SVG 1.1//EN"
  "http://www.w3.org/Graphics/SVG/1.1/DTD/svg11.dtd">
<!-- Created with matplotlib (http://matplotlib.org/) -->
<svg height="345pt" version="1.1" viewBox="0 0 460 345" width="460pt" xmlns="http://www.w3.org/2000/svg" xmlns:xlink="http://www.w3.org/1999/xlink">
 <defs>
  <style type="text/css">
*{stroke-linecap:butt;stroke-linejoin:round;}
  </style>
 </defs>
 <g id="figure_1">
  <g id="patch_1">
   <path d="M 0 345.6 
L 460.8 345.6 
L 460.8 0 
L 0 0 
z
" style="fill:#ffffff;"/>
  </g>
  <g id="axes_1">
   <g id="patch_2">
    <path d="M 57.6 307.584 
L 414.72 307.584 
L 414.72 41.472 
L 57.6 41.472 
z
" style="fill:#ffffff;"/>
   </g>
   <g id="matplotlib.axis_1">
    <g id="xtick_1">
     <g id="line2d_1">
      <path clip-path="url(#p847a01f469)" d="M 73.832727 307.584 
L 73.832727 41.472 
" style="fill:none;stroke:#b0b0b0;stroke-linecap:square;stroke-width:0.8;"/>
     </g>
     <g id="line2d_2">
      <defs>
       <path d="M 0 0 
L 0 3.5 
" id="mbf7b7423db" style="stroke:#000000;stroke-width:0.8;"/>
      </defs>
      <g>
       <use style="stroke:#000000;stroke-width:0.8;" x="73.832727" xlink:href="#mbf7b7423db" y="307.584"/>
      </g>
     </g>
     <g id="text_1">
      <!-- 0 -->
      <defs>
       <path d="M 31.78125 66.40625 
Q 24.171875 66.40625 20.328125 58.90625 
Q 16.5 51.421875 16.5 36.375 
Q 16.5 21.390625 20.328125 13.890625 
Q 24.171875 6.390625 31.78125 6.390625 
Q 39.453125 6.390625 43.28125 13.890625 
Q 47.125 21.390625 47.125 36.375 
Q 47.125 51.421875 43.28125 58.90625 
Q 39.453125 66.40625 31.78125 66.40625 
z
M 31.78125 74.21875 
Q 44.046875 74.21875 50.515625 64.515625 
Q 56.984375 54.828125 56.984375 36.375 
Q 56.984375 17.96875 50.515625 8.265625 
Q 44.046875 -1.421875 31.78125 -1.421875 
Q 19.53125 -1.421875 13.0625 8.265625 
Q 6.59375 17.96875 6.59375 36.375 
Q 6.59375 54.828125 13.0625 64.515625 
Q 19.53125 74.21875 31.78125 74.21875 
z
" id="DejaVuSans-30"/>
      </defs>
      <g transform="translate(70.651477 322.182437)scale(0.1 -0.1)">
       <use xlink:href="#DejaVuSans-30"/>
      </g>
     </g>
    </g>
    <g id="xtick_2">
     <g id="line2d_3">
      <path clip-path="url(#p847a01f469)" d="M 149.686593 307.584 
L 149.686593 41.472 
" style="fill:none;stroke:#b0b0b0;stroke-linecap:square;stroke-width:0.8;"/>
     </g>
     <g id="line2d_4">
      <g>
       <use style="stroke:#000000;stroke-width:0.8;" x="149.686593" xlink:href="#mbf7b7423db" y="307.584"/>
      </g>
     </g>
     <g id="text_2">
      <!-- 100 -->
      <defs>
       <path d="M 12.40625 8.296875 
L 28.515625 8.296875 
L 28.515625 63.921875 
L 10.984375 60.40625 
L 10.984375 69.390625 
L 28.421875 72.90625 
L 38.28125 72.90625 
L 38.28125 8.296875 
L 54.390625 8.296875 
L 54.390625 0 
L 12.40625 0 
z
" id="DejaVuSans-31"/>
      </defs>
      <g transform="translate(140.142843 322.182437)scale(0.1 -0.1)">
       <use xlink:href="#DejaVuSans-31"/>
       <use x="63.623047" xlink:href="#DejaVuSans-30"/>
       <use x="127.246094" xlink:href="#DejaVuSans-30"/>
      </g>
     </g>
    </g>
    <g id="xtick_3">
     <g id="line2d_5">
      <path clip-path="url(#p847a01f469)" d="M 225.540459 307.584 
L 225.540459 41.472 
" style="fill:none;stroke:#b0b0b0;stroke-linecap:square;stroke-width:0.8;"/>
     </g>
     <g id="line2d_6">
      <g>
       <use style="stroke:#000000;stroke-width:0.8;" x="225.540459" xlink:href="#mbf7b7423db" y="307.584"/>
      </g>
     </g>
     <g id="text_3">
      <!-- 200 -->
      <defs>
       <path d="M 19.1875 8.296875 
L 53.609375 8.296875 
L 53.609375 0 
L 7.328125 0 
L 7.328125 8.296875 
Q 12.9375 14.109375 22.625 23.890625 
Q 32.328125 33.6875 34.8125 36.53125 
Q 39.546875 41.84375 41.421875 45.53125 
Q 43.3125 49.21875 43.3125 52.78125 
Q 43.3125 58.59375 39.234375 62.25 
Q 35.15625 65.921875 28.609375 65.921875 
Q 23.96875 65.921875 18.8125 64.3125 
Q 13.671875 62.703125 7.8125 59.421875 
L 7.8125 69.390625 
Q 13.765625 71.78125 18.9375 73 
Q 24.125 74.21875 28.421875 74.21875 
Q 39.75 74.21875 46.484375 68.546875 
Q 53.21875 62.890625 53.21875 53.421875 
Q 53.21875 48.921875 51.53125 44.890625 
Q 49.859375 40.875 45.40625 35.40625 
Q 44.1875 33.984375 37.640625 27.21875 
Q 31.109375 20.453125 19.1875 8.296875 
z
" id="DejaVuSans-32"/>
      </defs>
      <g transform="translate(215.996709 322.182437)scale(0.1 -0.1)">
       <use xlink:href="#DejaVuSans-32"/>
       <use x="63.623047" xlink:href="#DejaVuSans-30"/>
       <use x="127.246094" xlink:href="#DejaVuSans-30"/>
      </g>
     </g>
    </g>
    <g id="xtick_4">
     <g id="line2d_7">
      <path clip-path="url(#p847a01f469)" d="M 301.394325 307.584 
L 301.394325 41.472 
" style="fill:none;stroke:#b0b0b0;stroke-linecap:square;stroke-width:0.8;"/>
     </g>
     <g id="line2d_8">
      <g>
       <use style="stroke:#000000;stroke-width:0.8;" x="301.394325" xlink:href="#mbf7b7423db" y="307.584"/>
      </g>
     </g>
     <g id="text_4">
      <!-- 300 -->
      <defs>
       <path d="M 40.578125 39.3125 
Q 47.65625 37.796875 51.625 33 
Q 55.609375 28.21875 55.609375 21.1875 
Q 55.609375 10.40625 48.1875 4.484375 
Q 40.765625 -1.421875 27.09375 -1.421875 
Q 22.515625 -1.421875 17.65625 -0.515625 
Q 12.796875 0.390625 7.625 2.203125 
L 7.625 11.71875 
Q 11.71875 9.328125 16.59375 8.109375 
Q 21.484375 6.890625 26.8125 6.890625 
Q 36.078125 6.890625 40.9375 10.546875 
Q 45.796875 14.203125 45.796875 21.1875 
Q 45.796875 27.640625 41.28125 31.265625 
Q 36.765625 34.90625 28.71875 34.90625 
L 20.21875 34.90625 
L 20.21875 43.015625 
L 29.109375 43.015625 
Q 36.375 43.015625 40.234375 45.921875 
Q 44.09375 48.828125 44.09375 54.296875 
Q 44.09375 59.90625 40.109375 62.90625 
Q 36.140625 65.921875 28.71875 65.921875 
Q 24.65625 65.921875 20.015625 65.03125 
Q 15.375 64.15625 9.8125 62.3125 
L 9.8125 71.09375 
Q 15.4375 72.65625 20.34375 73.4375 
Q 25.25 74.21875 29.59375 74.21875 
Q 40.828125 74.21875 47.359375 69.109375 
Q 53.90625 64.015625 53.90625 55.328125 
Q 53.90625 49.265625 50.4375 45.09375 
Q 46.96875 40.921875 40.578125 39.3125 
z
" id="DejaVuSans-33"/>
      </defs>
      <g transform="translate(291.850575 322.182437)scale(0.1 -0.1)">
       <use xlink:href="#DejaVuSans-33"/>
       <use x="63.623047" xlink:href="#DejaVuSans-30"/>
       <use x="127.246094" xlink:href="#DejaVuSans-30"/>
      </g>
     </g>
    </g>
    <g id="xtick_5">
     <g id="line2d_9">
      <path clip-path="url(#p847a01f469)" d="M 377.24819 307.584 
L 377.24819 41.472 
" style="fill:none;stroke:#b0b0b0;stroke-linecap:square;stroke-width:0.8;"/>
     </g>
     <g id="line2d_10">
      <g>
       <use style="stroke:#000000;stroke-width:0.8;" x="377.24819" xlink:href="#mbf7b7423db" y="307.584"/>
      </g>
     </g>
     <g id="text_5">
      <!-- 400 -->
      <defs>
       <path d="M 37.796875 64.3125 
L 12.890625 25.390625 
L 37.796875 25.390625 
z
M 35.203125 72.90625 
L 47.609375 72.90625 
L 47.609375 25.390625 
L 58.015625 25.390625 
L 58.015625 17.1875 
L 47.609375 17.1875 
L 47.609375 0 
L 37.796875 0 
L 37.796875 17.1875 
L 4.890625 17.1875 
L 4.890625 26.703125 
z
" id="DejaVuSans-34"/>
      </defs>
      <g transform="translate(367.70444 322.182437)scale(0.1 -0.1)">
       <use xlink:href="#DejaVuSans-34"/>
       <use x="63.623047" xlink:href="#DejaVuSans-30"/>
       <use x="127.246094" xlink:href="#DejaVuSans-30"/>
      </g>
     </g>
    </g>
    <g id="text_6">
     <!-- Generations -->
     <defs>
      <path d="M 59.515625 10.40625 
L 59.515625 29.984375 
L 43.40625 29.984375 
L 43.40625 38.09375 
L 69.28125 38.09375 
L 69.28125 6.78125 
Q 63.578125 2.734375 56.6875 0.65625 
Q 49.8125 -1.421875 42 -1.421875 
Q 24.90625 -1.421875 15.25 8.5625 
Q 5.609375 18.5625 5.609375 36.375 
Q 5.609375 54.25 15.25 64.234375 
Q 24.90625 74.21875 42 74.21875 
Q 49.125 74.21875 55.546875 72.453125 
Q 61.96875 70.703125 67.390625 67.28125 
L 67.390625 56.78125 
Q 61.921875 61.421875 55.765625 63.765625 
Q 49.609375 66.109375 42.828125 66.109375 
Q 29.4375 66.109375 22.71875 58.640625 
Q 16.015625 51.171875 16.015625 36.375 
Q 16.015625 21.625 22.71875 14.15625 
Q 29.4375 6.6875 42.828125 6.6875 
Q 48.046875 6.6875 52.140625 7.59375 
Q 56.25 8.5 59.515625 10.40625 
z
" id="DejaVuSans-47"/>
      <path d="M 56.203125 29.59375 
L 56.203125 25.203125 
L 14.890625 25.203125 
Q 15.484375 15.921875 20.484375 11.0625 
Q 25.484375 6.203125 34.421875 6.203125 
Q 39.59375 6.203125 44.453125 7.46875 
Q 49.3125 8.734375 54.109375 11.28125 
L 54.109375 2.78125 
Q 49.265625 0.734375 44.1875 -0.34375 
Q 39.109375 -1.421875 33.890625 -1.421875 
Q 20.796875 -1.421875 13.15625 6.1875 
Q 5.515625 13.8125 5.515625 26.8125 
Q 5.515625 40.234375 12.765625 48.109375 
Q 20.015625 56 32.328125 56 
Q 43.359375 56 49.78125 48.890625 
Q 56.203125 41.796875 56.203125 29.59375 
z
M 47.21875 32.234375 
Q 47.125 39.59375 43.09375 43.984375 
Q 39.0625 48.390625 32.421875 48.390625 
Q 24.90625 48.390625 20.390625 44.140625 
Q 15.875 39.890625 15.1875 32.171875 
z
" id="DejaVuSans-65"/>
      <path d="M 54.890625 33.015625 
L 54.890625 0 
L 45.90625 0 
L 45.90625 32.71875 
Q 45.90625 40.484375 42.875 44.328125 
Q 39.84375 48.1875 33.796875 48.1875 
Q 26.515625 48.1875 22.3125 43.546875 
Q 18.109375 38.921875 18.109375 30.90625 
L 18.109375 0 
L 9.078125 0 
L 9.078125 54.6875 
L 18.109375 54.6875 
L 18.109375 46.1875 
Q 21.34375 51.125 25.703125 53.5625 
Q 30.078125 56 35.796875 56 
Q 45.21875 56 50.046875 50.171875 
Q 54.890625 44.34375 54.890625 33.015625 
z
" id="DejaVuSans-6e"/>
      <path d="M 41.109375 46.296875 
Q 39.59375 47.171875 37.8125 47.578125 
Q 36.03125 48 33.890625 48 
Q 26.265625 48 22.1875 43.046875 
Q 18.109375 38.09375 18.109375 28.8125 
L 18.109375 0 
L 9.078125 0 
L 9.078125 54.6875 
L 18.109375 54.6875 
L 18.109375 46.1875 
Q 20.953125 51.171875 25.484375 53.578125 
Q 30.03125 56 36.53125 56 
Q 37.453125 56 38.578125 55.875 
Q 39.703125 55.765625 41.0625 55.515625 
z
" id="DejaVuSans-72"/>
      <path d="M 34.28125 27.484375 
Q 23.390625 27.484375 19.1875 25 
Q 14.984375 22.515625 14.984375 16.5 
Q 14.984375 11.71875 18.140625 8.90625 
Q 21.296875 6.109375 26.703125 6.109375 
Q 34.1875 6.109375 38.703125 11.40625 
Q 43.21875 16.703125 43.21875 25.484375 
L 43.21875 27.484375 
z
M 52.203125 31.203125 
L 52.203125 0 
L 43.21875 0 
L 43.21875 8.296875 
Q 40.140625 3.328125 35.546875 0.953125 
Q 30.953125 -1.421875 24.3125 -1.421875 
Q 15.921875 -1.421875 10.953125 3.296875 
Q 6 8.015625 6 15.921875 
Q 6 25.140625 12.171875 29.828125 
Q 18.359375 34.515625 30.609375 34.515625 
L 43.21875 34.515625 
L 43.21875 35.40625 
Q 43.21875 41.609375 39.140625 45 
Q 35.0625 48.390625 27.6875 48.390625 
Q 23 48.390625 18.546875 47.265625 
Q 14.109375 46.140625 10.015625 43.890625 
L 10.015625 52.203125 
Q 14.9375 54.109375 19.578125 55.046875 
Q 24.21875 56 28.609375 56 
Q 40.484375 56 46.34375 49.84375 
Q 52.203125 43.703125 52.203125 31.203125 
z
" id="DejaVuSans-61"/>
      <path d="M 18.3125 70.21875 
L 18.3125 54.6875 
L 36.8125 54.6875 
L 36.8125 47.703125 
L 18.3125 47.703125 
L 18.3125 18.015625 
Q 18.3125 11.328125 20.140625 9.421875 
Q 21.96875 7.515625 27.59375 7.515625 
L 36.8125 7.515625 
L 36.8125 0 
L 27.59375 0 
Q 17.1875 0 13.234375 3.875 
Q 9.28125 7.765625 9.28125 18.015625 
L 9.28125 47.703125 
L 2.6875 47.703125 
L 2.6875 54.6875 
L 9.28125 54.6875 
L 9.28125 70.21875 
z
" id="DejaVuSans-74"/>
      <path d="M 9.421875 54.6875 
L 18.40625 54.6875 
L 18.40625 0 
L 9.421875 0 
z
M 9.421875 75.984375 
L 18.40625 75.984375 
L 18.40625 64.59375 
L 9.421875 64.59375 
z
" id="DejaVuSans-69"/>
      <path d="M 30.609375 48.390625 
Q 23.390625 48.390625 19.1875 42.75 
Q 14.984375 37.109375 14.984375 27.296875 
Q 14.984375 17.484375 19.15625 11.84375 
Q 23.34375 6.203125 30.609375 6.203125 
Q 37.796875 6.203125 41.984375 11.859375 
Q 46.1875 17.53125 46.1875 27.296875 
Q 46.1875 37.015625 41.984375 42.703125 
Q 37.796875 48.390625 30.609375 48.390625 
z
M 30.609375 56 
Q 42.328125 56 49.015625 48.375 
Q 55.71875 40.765625 55.71875 27.296875 
Q 55.71875 13.875 49.015625 6.21875 
Q 42.328125 -1.421875 30.609375 -1.421875 
Q 18.84375 -1.421875 12.171875 6.21875 
Q 5.515625 13.875 5.515625 27.296875 
Q 5.515625 40.765625 12.171875 48.375 
Q 18.84375 56 30.609375 56 
z
" id="DejaVuSans-6f"/>
      <path d="M 44.28125 53.078125 
L 44.28125 44.578125 
Q 40.484375 46.53125 36.375 47.5 
Q 32.28125 48.484375 27.875 48.484375 
Q 21.1875 48.484375 17.84375 46.4375 
Q 14.5 44.390625 14.5 40.28125 
Q 14.5 37.15625 16.890625 35.375 
Q 19.28125 33.59375 26.515625 31.984375 
L 29.59375 31.296875 
Q 39.15625 29.25 43.1875 25.515625 
Q 47.21875 21.78125 47.21875 15.09375 
Q 47.21875 7.46875 41.1875 3.015625 
Q 35.15625 -1.421875 24.609375 -1.421875 
Q 20.21875 -1.421875 15.453125 -0.5625 
Q 10.6875 0.296875 5.421875 2 
L 5.421875 11.28125 
Q 10.40625 8.6875 15.234375 7.390625 
Q 20.0625 6.109375 24.8125 6.109375 
Q 31.15625 6.109375 34.5625 8.28125 
Q 37.984375 10.453125 37.984375 14.40625 
Q 37.984375 18.0625 35.515625 20.015625 
Q 33.0625 21.96875 24.703125 23.78125 
L 21.578125 24.515625 
Q 13.234375 26.265625 9.515625 29.90625 
Q 5.8125 33.546875 5.8125 39.890625 
Q 5.8125 47.609375 11.28125 51.796875 
Q 16.75 56 26.8125 56 
Q 31.78125 56 36.171875 55.265625 
Q 40.578125 54.546875 44.28125 53.078125 
z
" id="DejaVuSans-73"/>
     </defs>
     <g transform="translate(205.662344 335.860562)scale(0.1 -0.1)">
      <use xlink:href="#DejaVuSans-47"/>
      <use x="77.490234" xlink:href="#DejaVuSans-65"/>
      <use x="139.013672" xlink:href="#DejaVuSans-6e"/>
      <use x="202.392578" xlink:href="#DejaVuSans-65"/>
      <use x="263.916016" xlink:href="#DejaVuSans-72"/>
      <use x="305.029297" xlink:href="#DejaVuSans-61"/>
      <use x="366.308594" xlink:href="#DejaVuSans-74"/>
      <use x="405.517578" xlink:href="#DejaVuSans-69"/>
      <use x="433.300781" xlink:href="#DejaVuSans-6f"/>
      <use x="494.482422" xlink:href="#DejaVuSans-6e"/>
      <use x="557.861328" xlink:href="#DejaVuSans-73"/>
     </g>
    </g>
   </g>
   <g id="matplotlib.axis_2">
    <g id="ytick_1">
     <g id="line2d_11">
      <path clip-path="url(#p847a01f469)" d="M 57.6 296.07329 
L 414.72 296.07329 
" style="fill:none;stroke:#b0b0b0;stroke-linecap:square;stroke-width:0.8;"/>
     </g>
     <g id="line2d_12">
      <defs>
       <path d="M 0 0 
L -3.5 0 
" id="m2afa7f7656" style="stroke:#000000;stroke-width:0.8;"/>
      </defs>
      <g>
       <use style="stroke:#000000;stroke-width:0.8;" x="57.6" xlink:href="#m2afa7f7656" y="296.07329"/>
      </g>
     </g>
     <g id="text_7">
      <!-- $\mathdefault{-10^{2}}$ -->
      <defs>
       <path d="M 10.59375 35.5 
L 73.1875 35.5 
L 73.1875 27.203125 
L 10.59375 27.203125 
z
" id="DejaVuSans-2212"/>
      </defs>
      <g transform="translate(24.6 299.872509)scale(0.1 -0.1)">
       <use transform="translate(0 0.765625)" xlink:href="#DejaVuSans-2212"/>
       <use transform="translate(83.789062 0.765625)" xlink:href="#DejaVuSans-31"/>
       <use transform="translate(147.412109 0.765625)" xlink:href="#DejaVuSans-30"/>
       <use transform="translate(211.992188 39.046875)scale(0.7)" xlink:href="#DejaVuSans-32"/>
      </g>
     </g>
    </g>
    <g id="ytick_2">
     <g id="line2d_13">
      <path clip-path="url(#p847a01f469)" d="M 57.6 252.922778 
L 414.72 252.922778 
" style="fill:none;stroke:#b0b0b0;stroke-linecap:square;stroke-width:0.8;"/>
     </g>
     <g id="line2d_14">
      <g>
       <use style="stroke:#000000;stroke-width:0.8;" x="57.6" xlink:href="#m2afa7f7656" y="252.922778"/>
      </g>
     </g>
     <g id="text_8">
      <!-- $\mathdefault{-10^{1}}$ -->
      <g transform="translate(24.6 256.721996)scale(0.1 -0.1)">
       <use transform="translate(0 0.684375)" xlink:href="#DejaVuSans-2212"/>
       <use transform="translate(83.789062 0.684375)" xlink:href="#DejaVuSans-31"/>
       <use transform="translate(147.412109 0.684375)" xlink:href="#DejaVuSans-30"/>
       <use transform="translate(211.992188 38.965625)scale(0.7)" xlink:href="#DejaVuSans-31"/>
      </g>
     </g>
    </g>
    <g id="ytick_3">
     <g id="line2d_15">
      <path clip-path="url(#p847a01f469)" d="M 57.6 198.789357 
L 414.72 198.789357 
" style="fill:none;stroke:#b0b0b0;stroke-linecap:square;stroke-width:0.8;"/>
     </g>
     <g id="line2d_16">
      <g>
       <use style="stroke:#000000;stroke-width:0.8;" x="57.6" xlink:href="#m2afa7f7656" y="198.789357"/>
      </g>
     </g>
     <g id="text_9">
      <!-- $\mathdefault{-10^{0}}$ -->
      <g transform="translate(24.6 202.588575)scale(0.1 -0.1)">
       <use transform="translate(0 0.765625)" xlink:href="#DejaVuSans-2212"/>
       <use transform="translate(83.789062 0.765625)" xlink:href="#DejaVuSans-31"/>
       <use transform="translate(147.412109 0.765625)" xlink:href="#DejaVuSans-30"/>
       <use transform="translate(211.992188 39.046875)scale(0.7)" xlink:href="#DejaVuSans-30"/>
      </g>
     </g>
    </g>
    <g id="ytick_4">
     <g id="line2d_17">
      <path clip-path="url(#p847a01f469)" d="M 57.6 174.81685 
L 414.72 174.81685 
" style="fill:none;stroke:#b0b0b0;stroke-linecap:square;stroke-width:0.8;"/>
     </g>
     <g id="line2d_18">
      <g>
       <use style="stroke:#000000;stroke-width:0.8;" x="57.6" xlink:href="#m2afa7f7656" y="174.81685"/>
      </g>
     </g>
     <g id="text_10">
      <!-- $\mathdefault{0}$ -->
      <g transform="translate(44.2 178.616068)scale(0.1 -0.1)">
       <use transform="translate(0 0.78125)" xlink:href="#DejaVuSans-30"/>
      </g>
     </g>
    </g>
    <g id="ytick_5">
     <g id="line2d_19">
      <path clip-path="url(#p847a01f469)" d="M 57.6 150.844343 
L 414.72 150.844343 
" style="fill:none;stroke:#b0b0b0;stroke-linecap:square;stroke-width:0.8;"/>
     </g>
     <g id="line2d_20">
      <g>
       <use style="stroke:#000000;stroke-width:0.8;" x="57.6" xlink:href="#m2afa7f7656" y="150.844343"/>
      </g>
     </g>
     <g id="text_11">
      <!-- $\mathdefault{10^{0}}$ -->
      <g transform="translate(33 154.643561)scale(0.1 -0.1)">
       <use transform="translate(0 0.765625)" xlink:href="#DejaVuSans-31"/>
       <use transform="translate(63.623047 0.765625)" xlink:href="#DejaVuSans-30"/>
       <use transform="translate(128.203125 39.046875)scale(0.7)" xlink:href="#DejaVuSans-30"/>
      </g>
     </g>
    </g>
    <g id="ytick_6">
     <g id="line2d_21">
      <path clip-path="url(#p847a01f469)" d="M 57.6 96.710922 
L 414.72 96.710922 
" style="fill:none;stroke:#b0b0b0;stroke-linecap:square;stroke-width:0.8;"/>
     </g>
     <g id="line2d_22">
      <g>
       <use style="stroke:#000000;stroke-width:0.8;" x="57.6" xlink:href="#m2afa7f7656" y="96.710922"/>
      </g>
     </g>
     <g id="text_12">
      <!-- $\mathdefault{10^{1}}$ -->
      <g transform="translate(33 100.51014)scale(0.1 -0.1)">
       <use transform="translate(0 0.684375)" xlink:href="#DejaVuSans-31"/>
       <use transform="translate(63.623047 0.684375)" xlink:href="#DejaVuSans-30"/>
       <use transform="translate(128.203125 38.965625)scale(0.7)" xlink:href="#DejaVuSans-31"/>
      </g>
     </g>
    </g>
    <g id="ytick_7">
     <g id="line2d_23">
      <path clip-path="url(#p847a01f469)" d="M 57.6 53.560409 
L 414.72 53.560409 
" style="fill:none;stroke:#b0b0b0;stroke-linecap:square;stroke-width:0.8;"/>
     </g>
     <g id="line2d_24">
      <g>
       <use style="stroke:#000000;stroke-width:0.8;" x="57.6" xlink:href="#m2afa7f7656" y="53.560409"/>
      </g>
     </g>
     <g id="text_13">
      <!-- $\mathdefault{10^{2}}$ -->
      <g transform="translate(33 57.359628)scale(0.1 -0.1)">
       <use transform="translate(0 0.765625)" xlink:href="#DejaVuSans-31"/>
       <use transform="translate(63.623047 0.765625)" xlink:href="#DejaVuSans-30"/>
       <use transform="translate(128.203125 39.046875)scale(0.7)" xlink:href="#DejaVuSans-32"/>
      </g>
     </g>
    </g>
    <g id="ytick_8">
     <g id="line2d_25">
      <defs>
       <path d="M 0 0 
L -2 0 
" id="m143c75aa85" style="stroke:#000000;stroke-width:0.6;"/>
      </defs>
      <g>
       <use style="stroke:#000000;stroke-width:0.6;" x="57.6" xlink:href="#m143c75aa85" y="296.07329"/>
      </g>
     </g>
    </g>
    <g id="ytick_9">
     <g id="line2d_26">
      <g>
       <use style="stroke:#000000;stroke-width:0.6;" x="57.6" xlink:href="#m143c75aa85" y="252.922778"/>
      </g>
     </g>
    </g>
    <g id="ytick_10">
     <g id="line2d_27">
      <g>
       <use style="stroke:#000000;stroke-width:0.6;" x="57.6" xlink:href="#m143c75aa85" y="198.789357"/>
      </g>
     </g>
    </g>
    <g id="ytick_11">
     <g id="line2d_28">
      <g>
       <use style="stroke:#000000;stroke-width:0.6;" x="57.6" xlink:href="#m143c75aa85" y="174.81685"/>
      </g>
     </g>
    </g>
    <g id="ytick_12">
     <g id="line2d_29">
      <g>
       <use style="stroke:#000000;stroke-width:0.6;" x="57.6" xlink:href="#m143c75aa85" y="150.844343"/>
      </g>
     </g>
    </g>
    <g id="ytick_13">
     <g id="line2d_30">
      <g>
       <use style="stroke:#000000;stroke-width:0.6;" x="57.6" xlink:href="#m143c75aa85" y="96.710922"/>
      </g>
     </g>
    </g>
    <g id="ytick_14">
     <g id="line2d_31">
      <g>
       <use style="stroke:#000000;stroke-width:0.6;" x="57.6" xlink:href="#m143c75aa85" y="53.560409"/>
      </g>
     </g>
    </g>
    <g id="text_14">
     <!-- Fitness -->
     <defs>
      <path d="M 9.8125 72.90625 
L 51.703125 72.90625 
L 51.703125 64.59375 
L 19.671875 64.59375 
L 19.671875 43.109375 
L 48.578125 43.109375 
L 48.578125 34.8125 
L 19.671875 34.8125 
L 19.671875 0 
L 9.8125 0 
z
" id="DejaVuSans-46"/>
     </defs>
     <g transform="translate(18.520312 192.202219)rotate(-90)scale(0.1 -0.1)">
      <use xlink:href="#DejaVuSans-46"/>
      <use x="57.410156" xlink:href="#DejaVuSans-69"/>
      <use x="85.193359" xlink:href="#DejaVuSans-74"/>
      <use x="124.402344" xlink:href="#DejaVuSans-6e"/>
      <use x="187.78125" xlink:href="#DejaVuSans-65"/>
      <use x="249.304688" xlink:href="#DejaVuSans-73"/>
      <use x="301.404297" xlink:href="#DejaVuSans-73"/>
     </g>
    </g>
   </g>
   <g id="line2d_32">
    <path clip-path="url(#p847a01f469)" d="M 73.832727 288.205881 
L 74.591266 287.572819 
L 76.866882 287.221933 
L 79.901037 287.20577 
L 80.659575 287.094668 
L 81.418114 287.102516 
L 82.176653 287.227274 
L 82.935191 287.206276 
L 83.69373 286.976566 
L 84.452268 287.089097 
L 85.210807 286.976586 
L 85.969346 287.102516 
L 89.0035 287.110858 
L 89.762039 287.219645 
L 90.520578 287.094936 
L 95.830348 287.094935 
L 96.588887 286.976545 
L 98.105964 287.211304 
L 101.898658 287.229633 
L 102.657196 287.094935 
L 103.415735 287.229414 
L 109.484044 287.102517 
L 110.242583 287.219647 
L 111.001121 287.094086 
L 111.75966 287.11212 
L 112.518199 286.986693 
L 113.276737 275.920724 
L 114.035276 282.955954 
L 114.793815 282.802558 
L 116.310892 276.709994 
L 117.069431 271.642002 
L 117.827969 263.695269 
L 118.586508 266.654779 
L 119.345047 259.865285 
L 120.103585 264.822928 
L 120.862124 259.319322 
L 121.620663 244.09796 
L 122.379201 246.108388 
L 123.13774 128.428604 
L 123.896279 162.130084 
L 124.654817 109.976016 
L 125.413356 118.181193 
L 126.171895 102.571221 
L 126.930433 109.474445 
L 127.688972 97.299182 
L 128.447511 103.909391 
L 129.206049 119.396776 
L 129.964588 161.234961 
L 130.723127 181.0005 
L 131.481665 110.684631 
L 132.240204 143.075937 
L 132.998743 187.008065 
L 133.757281 158.652964 
L 134.51582 178.728288 
L 135.274359 105.387176 
L 136.032897 217.321753 
L 136.791436 98.635248 
L 138.308513 121.960551 
L 139.067052 166.065504 
L 139.82559 110.750962 
L 140.584129 118.477814 
L 141.342668 109.8008 
L 142.101206 126.248814 
L 142.859745 146.27495 
L 143.618284 213.897352 
L 144.376822 209.663381 
L 145.135361 116.529082 
L 145.8939 210.310669 
L 146.652438 226.62933 
L 147.410977 106.06487 
L 148.169516 122.068471 
L 148.928054 147.083892 
L 149.686593 123.88496 
L 150.445132 234.657112 
L 151.20367 196.679818 
L 151.962209 234.629345 
L 152.720748 238.276106 
L 153.479286 225.191384 
L 154.237825 259.617588 
L 154.996364 270.500446 
L 155.754902 258.174329 
L 156.513441 264.513141 
L 157.27198 244.089928 
L 158.030518 255.503464 
L 158.789057 218.541433 
L 159.547596 242.89945 
L 160.306134 242.426234 
L 161.064673 251.05414 
L 161.823212 245.08351 
L 162.58175 253.57852 
L 163.340289 210.53507 
L 164.857366 255.482225 
L 165.615905 127.240709 
L 166.374444 222.679786 
L 167.132982 239.555922 
L 167.891521 259.011 
L 168.650059 119.976762 
L 169.408598 246.920228 
L 170.167137 239.285746 
L 170.925675 127.007682 
L 171.684214 116.936756 
L 172.442753 216.010855 
L 173.201291 254.404204 
L 173.95983 225.075132 
L 175.476907 244.184107 
L 176.235446 249.07609 
L 176.993985 208.879546 
L 177.752523 255.921205 
L 178.511062 236.36129 
L 179.269601 136.812834 
L 180.028139 101.864425 
L 180.786678 119.569217 
L 181.545217 253.502634 
L 182.303755 256.508757 
L 183.062294 198.502368 
L 183.820833 223.186372 
L 184.579371 142.958132 
L 185.33791 245.803015 
L 186.096449 241.76277 
L 186.854987 250.332387 
L 187.613526 253.081614 
L 188.372065 243.271884 
L 189.130603 263.337884 
L 189.889142 251.780895 
L 190.647681 253.643208 
L 191.406219 252.025286 
L 192.923297 262.961786 
L 193.681835 252.346753 
L 194.440374 253.991251 
L 195.198912 232.748213 
L 195.957451 253.6787 
L 196.71599 256.672558 
L 197.474528 233.43042 
L 198.233067 262.093921 
L 198.991606 254.789514 
L 199.750144 258.531779 
L 200.508683 251.82058 
L 201.267222 259.23675 
L 202.02576 259.146923 
L 202.784299 265.78385 
L 203.542838 259.740077 
L 204.301376 265.73725 
L 205.059915 259.39236 
L 205.818454 251.761258 
L 206.576992 256.193336 
L 207.335531 252.908933 
L 208.09407 250.655535 
L 208.852608 260.284245 
L 209.611147 263.041273 
L 210.369686 244.890845 
L 211.128224 254.046291 
L 211.886763 252.448129 
L 212.645302 248.691205 
L 213.40384 249.6931 
L 214.162379 261.172472 
L 214.920918 244.575885 
L 215.679456 263.147867 
L 216.437995 264.44242 
L 217.196534 260.605474 
L 217.955072 262.39879 
L 218.713611 254.574414 
L 219.47215 249.101126 
L 220.230688 256.437369 
L 220.989227 247.302646 
L 221.747766 249.76217 
L 222.506304 133.127221 
L 223.264843 237.233722 
L 224.023381 234.297221 
L 224.78192 247.235558 
L 225.540459 257.812701 
L 226.298997 249.654312 
L 227.057536 248.034807 
L 227.816075 251.739219 
L 228.574613 108.841853 
L 229.333152 237.820108 
L 230.091691 253.510873 
L 230.850229 247.898216 
L 231.608768 258.786308 
L 232.367307 244.300295 
L 233.125845 120.674264 
L 233.884384 105.217278 
L 234.642923 238.87417 
L 235.401461 185.693003 
L 236.16 233.676326 
L 236.918539 151.159069 
L 237.677077 223.676765 
L 238.435616 185.899616 
L 239.194155 202.655329 
L 239.952693 242.996159 
L 240.711232 227.26309 
L 241.469771 252.72941 
L 242.228309 241.78905 
L 242.986848 257.05841 
L 243.745387 213.231233 
L 244.503925 162.450871 
L 245.262464 249.61311 
L 246.021003 209.264385 
L 246.779541 246.779419 
L 247.53808 101.757389 
L 248.296619 253.888331 
L 249.055157 134.657852 
L 249.813696 199.690285 
L 250.572234 224.884382 
L 251.330773 113.111768 
L 252.089312 99.017961 
L 252.84785 78.63682 
L 253.606389 104.81543 
L 254.364928 96.920718 
L 255.123466 93.260049 
L 255.882005 117.756776 
L 256.640544 87.504599 
L 257.399082 93.600918 
L 258.157621 233.883355 
L 258.91616 119.47069 
L 259.674698 161.187153 
L 260.433237 251.270111 
L 261.191776 232.047716 
L 261.950314 223.928304 
L 262.708853 97.944305 
L 263.467392 93.86793 
L 264.22593 164.606408 
L 264.984469 94.957934 
L 265.743008 118.075033 
L 266.501546 99.44225 
L 267.260085 228.603638 
L 268.018624 93.577295 
L 268.777162 113.619057 
L 269.535701 168.544021 
L 270.29424 204.825355 
L 271.052778 246.516193 
L 271.811317 239.685483 
L 272.569856 234.791873 
L 273.328394 113.686702 
L 274.086933 106.846762 
L 274.845472 243.316738 
L 275.60401 234.514129 
L 276.362549 93.153139 
L 277.121088 118.868251 
L 278.638165 102.157044 
L 279.396703 141.514347 
L 280.155242 107.100157 
L 280.913781 120.371893 
L 281.672319 99.656311 
L 282.430858 106.882278 
L 283.189397 104.295588 
L 283.947935 226.509322 
L 284.706474 153.438527 
L 285.465013 142.545834 
L 286.223551 109.102438 
L 286.98209 156.295724 
L 287.740629 101.225898 
L 288.499167 225.52033 
L 289.257706 123.425042 
L 290.016245 125.631215 
L 290.774783 238.14766 
L 292.291861 111.303502 
L 293.050399 178.412276 
L 293.808938 94.966039 
L 294.567477 112.618114 
L 295.326015 202.368411 
L 296.084554 249.955788 
L 296.843093 101.37589 
L 297.601631 98.94783 
L 298.36017 207.755378 
L 299.118709 242.719771 
L 299.877247 246.904498 
L 300.635786 246.692929 
L 301.394325 256.611062 
L 302.152863 255.738035 
L 302.911402 241.826754 
L 303.669941 240.120794 
L 304.428479 159.822232 
L 305.187018 256.031733 
L 305.945556 118.549955 
L 306.704095 210.282908 
L 307.462634 243.348724 
L 308.221172 244.994288 
L 308.979711 119.70409 
L 309.73825 250.69709 
L 310.496788 108.412957 
L 311.255327 206.685931 
L 312.013866 192.28263 
L 312.772404 237.66558 
L 313.530943 225.392098 
L 314.289482 116.306291 
L 315.04802 105.04099 
L 315.806559 233.279141 
L 316.565098 238.092372 
L 317.323636 243.789361 
L 318.082175 242.713183 
L 318.840714 235.199633 
L 319.599252 99.155075 
L 320.357791 233.538623 
L 321.874868 256.901627 
L 322.633407 250.418218 
L 323.391946 98.266091 
L 324.150484 117.074682 
L 324.909023 210.997963 
L 325.667562 249.65625 
L 326.4261 233.851265 
L 327.184639 252.177479 
L 327.943178 244.643131 
L 328.701716 125.323436 
L 329.460255 246.897266 
L 330.218794 236.663635 
L 330.977332 250.412844 
L 331.735871 240.680313 
L 332.49441 228.12588 
L 333.252948 238.937142 
L 334.011487 241.245084 
L 334.770025 109.672497 
L 335.528564 131.811352 
L 336.287103 114.516644 
L 337.045641 186.452658 
L 337.80418 148.272526 
L 338.562719 239.871503 
L 339.321257 236.873385 
L 340.079796 256.96961 
L 340.838335 218.969561 
L 341.596873 94.716122 
L 342.355412 99.30336 
L 343.113951 164.350922 
L 343.872489 114.719813 
L 344.631028 137.84053 
L 345.389567 222.943012 
L 346.148105 170.454683 
L 346.906644 210.037555 
L 347.665183 117.084926 
L 348.423721 230.67306 
L 349.18226 98.115549 
L 349.940799 97.784875 
L 350.699337 246.870823 
L 351.457876 185.279204 
L 352.216415 174.438311 
L 352.974953 240.547418 
L 353.733492 206.417774 
L 354.492031 177.569314 
L 355.250569 115.610181 
L 356.009108 242.883536 
L 356.767647 103.912166 
L 357.526185 116.796966 
L 358.284724 105.456723 
L 359.043263 105.299342 
L 359.801801 114.70044 
L 360.56034 203.952314 
L 361.318879 93.329646 
L 362.077417 240.260503 
L 362.835956 87.683536 
L 363.594494 103.642073 
L 364.353033 114.248203 
L 365.111572 102.794104 
L 365.87011 98.731354 
L 366.628649 97.484825 
L 367.387188 108.631929 
L 368.145726 98.377855 
L 368.904265 151.840305 
L 369.662804 95.80855 
L 370.421342 168.482354 
L 371.179881 105.972811 
L 371.93842 109.403336 
L 372.696958 235.707865 
L 373.455497 105.97755 
L 374.214036 108.120953 
L 374.972574 125.41241 
L 375.731113 114.048219 
L 376.489652 235.704147 
L 377.24819 95.378433 
L 378.006729 103.040871 
L 378.765268 242.974807 
L 379.523806 106.153306 
L 380.282345 101.733106 
L 381.040884 93.737922 
L 381.799422 101.131096 
L 382.557961 225.526081 
L 383.3165 240.463214 
L 384.075038 241.952057 
L 384.833577 99.516624 
L 385.592116 123.976425 
L 386.350654 229.984854 
L 387.109193 102.220387 
L 387.867732 168.716547 
L 388.62627 104.107512 
L 389.384809 181.713892 
L 390.143347 229.660549 
L 390.901886 238.807627 
L 391.660425 99.295872 
L 392.418963 119.670015 
L 393.177502 92.95203 
L 394.694579 144.55863 
L 395.453118 210.740187 
L 396.211657 250.131681 
L 396.970195 121.601976 
L 397.728734 119.106577 
L 398.487273 254.125336 
L 398.487273 254.125336 
" style="fill:none;stroke:#0000ff;stroke-linecap:square;stroke-width:1.5;"/>
   </g>
   <g id="line2d_33">
    <path clip-path="url(#p847a01f469)" d="M 73.832727 295.476322 
L 74.591266 295.334335 
L 75.349805 295.25259 
L 76.866882 295.398149 
L 79.901037 295.368264 
L 81.418114 295.431443 
L 82.935191 295.368525 
L 83.69373 295.487966 
L 84.452268 295.422607 
L 85.210807 295.487933 
L 86.727884 295.436283 
L 95.830348 295.436284 
L 97.347426 295.431445 
L 98.864503 295.377317 
L 104.174274 295.382261 
L 105.691351 295.436284 
L 107.208428 295.382261 
L 108.725506 295.436284 
L 111.75966 295.442249 
L 112.518199 295.14906 
L 113.276737 293.940159 
L 114.793815 293.796693 
L 115.552353 294.063095 
L 117.069431 293.411728 
L 117.827969 291.54771 
L 118.586508 292.390726 
L 119.345047 291.308662 
L 120.103585 292.527636 
L 120.862124 291.200284 
L 121.620663 289.416326 
L 122.379201 289.94729 
L 123.13774 287.733425 
L 123.896279 288.067615 
L 124.654817 286.8759 
L 125.413356 287.177412 
L 126.171895 286.103848 
L 126.930433 286.504056 
L 127.688972 284.752283 
L 128.447511 285.816481 
L 129.206049 287.222252 
L 130.723127 288.89124 
L 131.481665 287.291627 
L 132.240204 288.035513 
L 132.998743 288.415181 
L 133.757281 288.042003 
L 134.51582 288.684419 
L 135.274359 286.615489 
L 136.032897 289.215079 
L 136.791436 285.593758 
L 137.549975 287.19771 
L 139.067052 288.650976 
L 139.82559 287.272062 
L 140.584129 287.72019 
L 141.342668 286.777088 
L 142.101206 288.1245 
L 142.859745 288.518414 
L 143.618284 289.550883 
L 144.376822 289.309799 
L 145.135361 287.7272 
L 145.8939 289.429715 
L 146.652438 289.479551 
L 147.410977 286.735157 
L 148.169516 288.083219 
L 148.928054 288.379167 
L 149.686593 288.087858 
L 150.445132 289.934505 
L 151.20367 288.821748 
L 151.962209 290.179998 
L 152.720748 290.038855 
L 153.479286 289.546822 
L 154.996364 294.392333 
L 155.754902 292.22852 
L 156.513441 292.96635 
L 157.27198 290.924458 
L 158.030518 291.951461 
L 158.789057 289.865374 
L 159.547596 290.67719 
L 160.306134 290.662417 
L 161.064673 291.358871 
L 161.823212 290.844288 
L 162.58175 291.496787 
L 163.340289 289.24705 
L 164.098828 289.704356 
L 164.857366 291.982994 
L 165.615905 287.945861 
L 166.374444 289.369366 
L 167.132982 290.316187 
L 167.891521 292.213716 
L 168.650059 288.001648 
L 169.408598 290.597835 
L 170.167137 290.4898 
L 170.925675 288.465168 
L 171.684214 287.759157 
L 172.442753 289.067482 
L 173.201291 291.256808 
L 173.95983 289.740861 
L 174.718369 289.801683 
L 175.476907 290.450372 
L 176.235446 290.902141 
L 176.993985 289.42906 
L 177.752523 291.5874 
L 178.511062 290.11 
L 179.269601 287.765195 
L 180.028139 286.299999 
L 180.786678 288.157578 
L 181.545217 291.588286 
L 182.303755 292.048769 
L 183.062294 289.136548 
L 183.820833 289.311336 
L 184.579371 288.614422 
L 185.33791 290.706872 
L 186.096449 290.516582 
L 186.854987 290.865153 
L 187.613526 291.642835 
L 188.372065 290.521616 
L 189.130603 292.970083 
L 189.889142 291.406637 
L 190.647681 291.256087 
L 192.164758 292.04082 
L 192.923297 292.818916 
L 193.681835 291.079345 
L 194.440374 291.628228 
L 195.198912 289.946896 
L 195.957451 291.461005 
L 196.71599 291.922364 
L 197.474528 289.933571 
L 198.233067 292.781859 
L 198.991606 291.804944 
L 199.750144 292.347702 
L 200.508683 291.070293 
L 201.267222 292.126937 
L 202.02576 292.040745 
L 202.784299 292.752617 
L 203.542838 292.380459 
L 204.301376 293.203431 
L 205.059915 292.493673 
L 205.818454 291.307979 
L 206.576992 292.234405 
L 207.335531 291.608594 
L 208.09407 291.417732 
L 208.852608 292.629885 
L 209.611147 292.770664 
L 210.369686 290.605686 
L 211.128224 291.653911 
L 211.886763 291.521256 
L 212.645302 291.120138 
L 213.40384 291.545686 
L 214.162379 292.666758 
L 214.920918 290.82123 
L 215.679456 293.217965 
L 216.437995 293.047475 
L 217.196534 292.434656 
L 217.955072 292.620186 
L 218.713611 291.762606 
L 219.47215 290.467281 
L 220.230688 292.242872 
L 220.989227 290.750135 
L 221.747766 291.100578 
L 222.506304 289.159959 
L 223.264843 290.096714 
L 224.023381 289.675071 
L 224.78192 291.21529 
L 225.540459 292.141314 
L 226.298997 291.329531 
L 227.057536 291.096806 
L 227.816075 291.602852 
L 228.574613 287.541025 
L 229.333152 290.170075 
L 230.091691 291.524529 
L 230.850229 290.928587 
L 231.608768 292.511343 
L 232.367307 290.876095 
L 233.125845 288.085841 
L 233.884384 287.353645 
L 234.642923 290.091951 
L 235.401461 289.043881 
L 236.16 290.350029 
L 236.918539 288.365182 
L 237.677077 289.69948 
L 238.435616 289.005516 
L 239.194155 289.099179 
L 239.952693 290.476521 
L 240.711232 289.639502 
L 241.469771 291.565526 
L 242.228309 290.324414 
L 242.986848 292.16406 
L 243.745387 289.427494 
L 244.503925 288.522841 
L 245.262464 290.912374 
L 246.021003 289.487543 
L 246.779541 290.740845 
L 247.53808 286.586073 
L 248.296619 291.612028 
L 249.055157 288.204584 
L 250.572234 289.789089 
L 252.089312 286.120357 
L 252.84785 277.461702 
L 253.606389 287.143705 
L 255.123466 284.533952 
L 255.882005 288.010416 
L 256.640544 283.390883 
L 257.399082 284.776585 
L 258.157621 289.297705 
L 258.91616 288.262626 
L 259.674698 288.961539 
L 260.433237 291.293014 
L 261.191776 290.122235 
L 261.950314 289.514564 
L 262.708853 286.195648 
L 263.467392 285.167085 
L 264.22593 288.980437 
L 264.984469 285.08176 
L 265.743008 288.492628 
L 266.501546 286.092873 
L 267.260085 290.005465 
L 268.018624 285.225217 
L 268.777162 288.036581 
L 269.535701 288.747333 
L 270.29424 289.626437 
L 271.052778 290.947246 
L 271.811317 290.495291 
L 272.569856 290.324529 
L 273.328394 288.364094 
L 274.086933 287.559974 
L 274.845472 290.72948 
L 275.60401 290.218519 
L 276.362549 285.212337 
L 277.121088 288.54218 
L 277.879626 287.544293 
L 278.638165 286.842047 
L 279.396703 289.003134 
L 280.155242 287.366711 
L 280.913781 288.410967 
L 281.672319 286.808806 
L 282.430858 287.468698 
L 283.189397 287.481262 
L 283.947935 290.208547 
L 284.706474 288.97212 
L 285.465013 288.961412 
L 286.223551 288.190572 
L 286.98209 289.038125 
L 287.740629 287.082753 
L 288.499167 289.663949 
L 289.257706 288.822788 
L 290.016245 288.558934 
L 290.774783 290.727586 
L 292.291861 288.175368 
L 293.050399 289.309125 
L 293.808938 285.882798 
L 294.567477 287.969735 
L 295.326015 289.677793 
L 296.084554 291.698404 
L 296.843093 287.056812 
L 297.601631 287.018844 
L 298.36017 289.878297 
L 299.118709 291.206108 
L 299.877247 290.945311 
L 300.635786 291.185943 
L 301.394325 292.370877 
L 302.152863 292.230539 
L 302.911402 291.095818 
L 303.669941 291.370734 
L 304.428479 289.704971 
L 305.187018 292.707308 
L 305.945556 288.927168 
L 306.704095 289.701496 
L 307.462634 291.059046 
L 308.221172 290.947484 
L 308.979711 288.314712 
L 309.73825 291.77204 
L 310.496788 287.406213 
L 311.255327 289.726533 
L 312.013866 289.791794 
L 312.772404 290.49141 
L 313.530943 290.204147 
L 315.04802 287.7318 
L 315.806559 290.177714 
L 316.565098 290.696268 
L 317.323636 290.752099 
L 318.082175 290.978498 
L 318.840714 290.985535 
L 319.599252 287.412798 
L 320.357791 290.47275 
L 321.11633 291.079024 
L 321.874868 292.46486 
L 322.633407 292.10759 
L 323.391946 287.493605 
L 324.150484 289.146356 
L 324.909023 290.154437 
L 325.667562 291.622614 
L 326.4261 290.936393 
L 327.184639 291.72922 
L 327.943178 291.359083 
L 328.701716 289.544607 
L 329.460255 291.651356 
L 330.218794 291.011004 
L 330.977332 291.69987 
L 331.735871 290.947349 
L 332.49441 290.488161 
L 333.252948 291.104655 
L 334.011487 290.872327 
L 334.770025 288.404384 
L 335.528564 288.884375 
L 336.287103 288.669389 
L 337.045641 289.886798 
L 337.80418 289.043323 
L 338.562719 290.979326 
L 339.321257 290.736056 
L 340.079796 292.201675 
L 340.838335 290.458743 
L 341.596873 286.518624 
L 342.355412 287.037584 
L 343.113951 289.503487 
L 343.872489 288.816738 
L 344.631028 288.932582 
L 345.389567 289.985159 
L 346.148105 289.216502 
L 346.906644 290.273021 
L 347.665183 288.245242 
L 348.423721 290.281189 
L 349.18226 286.843495 
L 349.940799 286.446506 
L 350.699337 291.507175 
L 351.457876 289.864702 
L 352.216415 289.600995 
L 352.974953 291.135716 
L 353.733492 289.758676 
L 354.492031 289.657199 
L 355.250569 288.596067 
L 356.009108 291.234554 
L 356.767647 287.635798 
L 357.526185 288.6593 
L 358.284724 288.015112 
L 359.043263 287.887512 
L 359.801801 288.560065 
L 360.56034 289.971796 
L 361.318879 285.943402 
L 362.077417 290.60399 
L 362.835956 283.96757 
L 363.594494 287.414897 
L 364.353033 288.746992 
L 365.111572 286.851947 
L 365.87011 286.500476 
L 366.628649 286.498226 
L 367.387188 288.354548 
L 368.145726 286.715179 
L 368.904265 289.5775 
L 369.662804 286.931134 
L 370.421342 289.823771 
L 371.179881 287.242094 
L 371.93842 288.190136 
L 372.696958 290.575398 
L 373.455497 287.455805 
L 374.972574 288.827994 
L 375.731113 288.338493 
L 376.489652 290.351764 
L 377.24819 286.261126 
L 378.006729 287.23272 
L 378.765268 290.7978 
L 379.523806 287.490649 
L 380.282345 287.206096 
L 381.040884 285.78453 
L 381.799422 286.712463 
L 382.557961 290.093323 
L 383.3165 290.776734 
L 384.075038 290.974254 
L 384.833577 287.198693 
L 386.350654 290.719345 
L 387.109193 287.06702 
L 387.867732 289.697319 
L 388.62627 287.587866 
L 389.384809 289.880528 
L 390.143347 290.274025 
L 390.901886 290.295427 
L 391.660425 286.725571 
L 392.418963 288.398167 
L 393.177502 286.265987 
L 393.936041 288.406662 
L 394.694579 288.838878 
L 395.453118 289.650835 
L 396.211657 291.56727 
L 396.970195 289.115323 
L 397.728734 288.479852 
L 398.487273 291.893123 
L 398.487273 291.893123 
" style="fill:none;stroke:#008000;stroke-dasharray:9.6,2.4,1.5,2.4;stroke-dashoffset:0;stroke-width:1.5;"/>
   </g>
   <g id="line2d_34">
    <path clip-path="url(#p847a01f469)" d="M 73.832727 276.167147 
L 74.591266 274.085262 
L 75.349805 273.868177 
L 76.866882 272.38372 
L 77.625421 272.507021 
L 78.383959 273.158197 
L 79.142498 272.444621 
L 79.901037 272.414338 
L 80.659575 271.678782 
L 81.418114 271.733253 
L 82.176653 272.455509 
L 82.935191 272.41568 
L 83.69373 270.946383 
L 84.452268 271.703598 
L 85.210807 270.946602 
L 85.969346 271.733253 
L 88.244962 271.681623 
L 89.0035 271.737637 
L 89.762039 272.444621 
L 90.520578 271.681623 
L 92.796194 271.733256 
L 94.313271 271.737306 
L 95.07181 272.440056 
L 96.588887 270.946163 
L 98.105964 272.428033 
L 101.898658 272.458044 
L 102.657196 271.681617 
L 103.415735 272.491824 
L 104.174274 272.396078 
L 104.932812 271.733247 
L 105.691351 271.681617 
L 106.44989 272.507611 
L 107.208428 272.396078 
L 107.966967 271.747073 
L 108.725506 271.681617 
L 109.484044 271.73325 
L 110.242583 272.444618 
L 111.001121 271.672589 
L 111.75966 271.738605 
L 112.518199 272.195695 
L 113.276737 82.800521 
L 114.035276 253.959499 
L 114.793815 252.829637 
L 115.552353 104.780139 
L 116.310892 86.86702 
L 117.069431 74.649089 
L 117.827969 69.372693 
L 118.586508 70.479021 
L 119.345047 67.089249 
L 120.103585 68.515719 
L 120.862124 66.941488 
L 121.620663 63.894163 
L 122.379201 63.699908 
L 123.13774 60.801338 
L 123.896279 61.26446 
L 124.654817 59.960637 
L 125.413356 60.632043 
L 126.171895 59.362626 
L 126.930433 60.208918 
L 127.688972 59.193481 
L 128.447511 59.854854 
L 129.206049 60.700613 
L 129.964588 61.172 
L 130.723127 60.88483 
L 131.481665 59.696836 
L 132.240204 60.851229 
L 132.998743 61.507554 
L 133.757281 61.207725 
L 134.51582 61.040211 
L 135.274359 59.468956 
L 136.032897 61.402201 
L 136.791436 58.898057 
L 137.549975 59.674235 
L 139.067052 60.780502 
L 139.82559 59.722551 
L 140.584129 60.165562 
L 141.342668 60.021213 
L 142.101206 60.36077 
L 142.859745 60.459101 
L 143.618284 60.968803 
L 144.376822 61.122274 
L 145.135361 59.977235 
L 145.8939 61.012212 
L 146.652438 61.512169 
L 147.410977 59.484466 
L 148.169516 60.122689 
L 148.928054 60.611956 
L 149.686593 60.245795 
L 150.445132 61.77201 
L 151.20367 61.322159 
L 151.962209 61.494815 
L 152.720748 62.125343 
L 153.479286 61.336509 
L 154.237825 65.626672 
L 154.996364 70.580249 
L 155.754902 64.769793 
L 156.513441 67.471786 
L 157.27198 62.072946 
L 158.030518 63.995109 
L 158.789057 60.745454 
L 159.547596 62.140226 
L 160.306134 62.071324 
L 161.064673 63.241044 
L 161.823212 62.371661 
L 162.58175 63.891765 
L 163.340289 61.208244 
L 164.098828 61.703962 
L 164.857366 63.942481 
L 165.615905 60.573915 
L 166.374444 61.366262 
L 167.132982 61.997484 
L 167.891521 65.208717 
L 168.650059 60.035974 
L 169.408598 63.088092 
L 170.167137 61.756567 
L 170.925675 60.079028 
L 171.684214 59.987833 
L 172.442753 61.526407 
L 173.201291 64.530116 
L 173.95983 61.121262 
L 175.476907 62.660814 
L 176.235446 63.259551 
L 176.993985 60.979623 
L 177.752523 64.681706 
L 178.511062 61.783733 
L 179.269601 60.964974 
L 180.028139 59.063546 
L 180.786678 59.859374 
L 181.545217 63.740463 
L 182.303755 64.274205 
L 183.062294 61.041172 
L 183.820833 61.455919 
L 184.579371 60.291971 
L 185.33791 62.694692 
L 186.096449 62.125541 
L 186.854987 63.666112 
L 187.613526 63.519886 
L 188.372065 62.395225 
L 189.130603 66.597453 
L 189.889142 63.40427 
L 190.647681 64.24347 
L 191.406219 63.204027 
L 192.164758 64.564561 
L 192.923297 66.592964 
L 193.681835 64.024925 
L 194.440374 63.862479 
L 195.198912 61.547251 
L 195.957451 63.976663 
L 196.71599 64.526489 
L 197.474528 61.634681 
L 198.233067 66.081436 
L 198.991606 63.919074 
L 199.750144 64.766404 
L 200.508683 63.861865 
L 201.267222 65.458603 
L 202.02576 65.542874 
L 202.784299 68.930755 
L 203.542838 65.338474 
L 204.301376 68.042247 
L 205.059915 64.981229 
L 205.818454 63.528143 
L 206.576992 63.877671 
L 208.09407 63.04555 
L 208.852608 65.250001 
L 209.611147 66.729225 
L 210.369686 62.619954 
L 211.128224 63.847578 
L 211.886763 63.468965 
L 212.645302 62.880099 
L 213.40384 62.60876 
L 214.162379 65.700863 
L 214.920918 62.294225 
L 215.679456 66.049411 
L 216.437995 67.273088 
L 217.196534 65.736934 
L 217.955072 66.546187 
L 218.713611 63.89549 
L 219.47215 63.822096 
L 220.230688 63.967359 
L 220.989227 62.991766 
L 221.747766 63.196631 
L 222.506304 59.554076 
L 223.264843 61.913631 
L 224.023381 62.019729 
L 224.78192 62.39843 
L 225.540459 64.726312 
L 226.298997 62.873598 
L 227.057536 62.740804 
L 227.816075 63.132989 
L 228.574613 59.229771 
L 229.333152 61.91073 
L 230.091691 63.829854 
L 230.850229 62.916985 
L 231.608768 64.647512 
L 233.125845 60.014393 
L 233.884384 58.827626 
L 234.642923 62.152363 
L 235.401461 60.838904 
L 236.16 61.199768 
L 236.918539 60.718589 
L 237.677077 61.074169 
L 238.435616 60.882557 
L 239.194155 61.176878 
L 239.952693 62.396483 
L 240.711232 61.388317 
L 241.469771 63.503779 
L 242.228309 62.35601 
L 242.986848 64.348371 
L 243.745387 61.082622 
L 244.503925 60.823804 
L 245.262464 63.39591 
L 246.021003 60.927587 
L 246.779541 62.877208 
L 247.53808 58.813816 
L 248.296619 63.846963 
L 249.055157 60.497189 
L 249.813696 61.157561 
L 250.572234 61.056953 
L 251.330773 59.42474 
L 252.089312 58.585663 
L 252.84785 55.637465 
L 253.606389 58.933222 
L 254.364928 58.377412 
L 255.123466 58.200523 
L 255.882005 59.836565 
L 256.640544 56.936532 
L 257.399082 58.135674 
L 258.157621 62.392856 
L 258.91616 59.754865 
L 259.674698 60.363271 
L 260.433237 63.393264 
L 261.191776 61.282815 
L 261.950314 61.286801 
L 262.708853 58.274759 
L 263.467392 57.940927 
L 264.22593 60.421619 
L 264.984469 58.316136 
L 265.743008 59.42575 
L 266.501546 58.704152 
L 267.260085 61.099771 
L 268.018624 57.814125 
L 269.535701 60.741938 
L 270.29424 60.681043 
L 271.052778 62.561255 
L 271.811317 61.810775 
L 272.569856 61.352356 
L 273.328394 59.112763 
L 274.086933 58.917866 
L 274.845472 62.15631 
L 275.60401 61.438685 
L 276.362549 57.696297 
L 277.121088 59.44842 
L 277.879626 59.525758 
L 278.638165 58.688586 
L 279.396703 59.886246 
L 280.155242 59.120436 
L 280.913781 59.691054 
L 281.672319 58.195753 
L 282.430858 59.000489 
L 283.189397 58.564027 
L 283.947935 60.720892 
L 284.706474 60.179597 
L 285.465013 59.949006 
L 286.223551 58.706509 
L 286.98209 60.178749 
L 287.740629 58.310091 
L 288.499167 61.234076 
L 289.257706 59.52917 
L 290.016245 59.915398 
L 290.774783 61.321364 
L 292.291861 59.004154 
L 293.050399 60.405397 
L 293.808938 57.740606 
L 294.567477 59.342429 
L 295.326015 60.571883 
L 296.084554 62.486157 
L 296.843093 58.361088 
L 297.601631 57.87548 
L 298.36017 60.486202 
L 299.877247 62.653985 
L 300.635786 62.308354 
L 301.394325 63.858594 
L 302.152863 63.698233 
L 302.911402 61.458009 
L 303.669941 60.868778 
L 304.428479 59.602277 
L 305.187018 63.148875 
L 305.945556 59.069021 
L 306.704095 60.727907 
L 307.462634 61.77088 
L 308.221172 62.228183 
L 308.979711 59.726205 
L 309.73825 62.600286 
L 310.496788 59.283684 
L 311.255327 60.619642 
L 312.013866 60.227658 
L 312.772404 61.523966 
L 313.530943 60.648104 
L 314.289482 58.867898 
L 315.04802 58.483283 
L 315.806559 61.348035 
L 316.565098 61.349387 
L 317.323636 62.2202 
L 318.082175 61.750007 
L 318.840714 60.662397 
L 319.599252 57.614204 
L 320.357791 61.049226 
L 321.11633 62.07343 
L 321.874868 63.848162 
L 322.633407 62.091633 
L 323.391946 57.35427 
L 324.909023 60.271553 
L 325.667562 62.500911 
L 326.4261 60.569646 
L 327.184639 63.105296 
L 327.943178 61.661723 
L 328.701716 58.969708 
L 329.460255 61.783724 
L 330.218794 60.807361 
L 330.977332 62.611882 
L 331.735871 61.443316 
L 332.49441 60.540749 
L 333.252948 61.001742 
L 334.011487 61.621774 
L 334.770025 58.597294 
L 335.528564 59.787666 
L 336.287103 58.927608 
L 337.045641 60.001703 
L 337.80418 59.995988 
L 338.562719 61.281479 
L 339.321257 61.14312 
L 340.079796 64.254965 
L 340.838335 60.130352 
L 341.596873 57.209874 
L 342.355412 57.939726 
L 343.113951 59.899304 
L 343.872489 58.816056 
L 344.631028 59.873426 
L 345.389567 60.726365 
L 346.148105 60.319123 
L 346.906644 60.126536 
L 347.665183 59.561573 
L 348.423721 60.978448 
L 349.18226 57.820921 
L 349.940799 58.045879 
L 350.699337 61.954486 
L 351.457876 59.998217 
L 352.216415 60.024346 
L 352.974953 61.204533 
L 354.492031 60.037202 
L 355.250569 59.103467 
L 356.009108 61.478603 
L 356.767647 58.369401 
L 357.526185 59.159192 
L 358.284724 58.314742 
L 359.043263 58.395985 
L 359.801801 59.044587 
L 360.56034 60.30359 
L 361.318879 57.234292 
L 362.077417 61.774587 
L 362.835956 56.65198 
L 363.594494 58.502934 
L 364.353033 58.830261 
L 365.111572 58.804149 
L 365.87011 58.227125 
L 366.628649 57.934275 
L 367.387188 58.500589 
L 368.145726 57.980362 
L 368.904265 59.554911 
L 369.662804 57.192367 
L 370.421342 59.672197 
L 371.179881 59.045992 
L 371.93842 58.747486 
L 372.696958 61.179644 
L 373.455497 58.867824 
L 374.214036 58.633111 
L 374.972574 59.649349 
L 375.731113 59.174594 
L 376.489652 61.429809 
L 377.24819 57.575931 
L 378.006729 58.541772 
L 378.765268 62.011248 
L 379.523806 58.866918 
L 380.282345 58.312745 
L 381.040884 57.465505 
L 381.799422 58.585254 
L 382.557961 60.77549 
L 383.3165 61.606574 
L 384.075038 61.621522 
L 384.833577 57.860344 
L 385.592116 59.346214 
L 386.350654 60.44147 
L 387.109193 58.519957 
L 387.867732 59.802828 
L 388.62627 58.443199 
L 389.384809 59.903836 
L 390.901886 61.908857 
L 391.660425 58.180977 
L 392.418963 59.646769 
L 393.177502 56.895652 
L 393.936041 59.641987 
L 394.694579 60.111471 
L 395.453118 60.791281 
L 396.211657 62.702571 
L 396.970195 59.131502 
L 397.728734 59.525458 
L 398.487273 63.549819 
L 398.487273 63.549819 
" style="fill:none;stroke:#008000;stroke-dasharray:9.6,2.4,1.5,2.4;stroke-dashoffset:0;stroke-width:1.5;"/>
   </g>
   <g id="line2d_35">
    <path clip-path="url(#p847a01f469)" d="M 73.832727 61.125415 
L 112.518199 61.125415 
L 113.276737 59.909898 
L 114.035276 59.338904 
L 114.793815 59.338904 
L 115.552353 58.91376 
L 116.310892 58.91376 
L 117.069431 58.732289 
L 125.413356 58.685635 
L 126.171895 55.097086 
L 205.818454 55.000514 
L 208.852608 54.972123 
L 236.918539 54.941583 
L 237.677077 53.977092 
L 270.29424 53.869947 
L 277.121088 53.865668 
L 277.879626 53.686602 
L 397.728734 53.590399 
L 398.487273 53.568 
L 398.487273 53.568 
" style="fill:none;stroke:#ff0000;stroke-linecap:square;stroke-width:1.5;"/>
   </g>
   <g id="patch_3">
    <path d="M 57.6 307.584 
L 57.6 41.472 
" style="fill:none;stroke:#000000;stroke-linecap:square;stroke-linejoin:miter;stroke-width:0.8;"/>
   </g>
   <g id="patch_4">
    <path d="M 414.72 307.584 
L 414.72 41.472 
" style="fill:none;stroke:#000000;stroke-linecap:square;stroke-linejoin:miter;stroke-width:0.8;"/>
   </g>
   <g id="patch_5">
    <path d="M 57.6 307.584 
L 414.72 307.584 
" style="fill:none;stroke:#000000;stroke-linecap:square;stroke-linejoin:miter;stroke-width:0.8;"/>
   </g>
   <g id="patch_6">
    <path d="M 57.6 41.472 
L 414.72 41.472 
" style="fill:none;stroke:#000000;stroke-linecap:square;stroke-linejoin:miter;stroke-width:0.8;"/>
   </g>
   <g id="text_15">
    <!-- Population's average and best fitness -->
    <defs>
     <path d="M 19.671875 64.796875 
L 19.671875 37.40625 
L 32.078125 37.40625 
Q 38.96875 37.40625 42.71875 40.96875 
Q 46.484375 44.53125 46.484375 51.125 
Q 46.484375 57.671875 42.71875 61.234375 
Q 38.96875 64.796875 32.078125 64.796875 
z
M 9.8125 72.90625 
L 32.078125 72.90625 
Q 44.34375 72.90625 50.609375 67.359375 
Q 56.890625 61.8125 56.890625 51.125 
Q 56.890625 40.328125 50.609375 34.8125 
Q 44.34375 29.296875 32.078125 29.296875 
L 19.671875 29.296875 
L 19.671875 0 
L 9.8125 0 
z
" id="DejaVuSans-50"/>
     <path d="M 18.109375 8.203125 
L 18.109375 -20.796875 
L 9.078125 -20.796875 
L 9.078125 54.6875 
L 18.109375 54.6875 
L 18.109375 46.390625 
Q 20.953125 51.265625 25.265625 53.625 
Q 29.59375 56 35.59375 56 
Q 45.5625 56 51.78125 48.09375 
Q 58.015625 40.1875 58.015625 27.296875 
Q 58.015625 14.40625 51.78125 6.484375 
Q 45.5625 -1.421875 35.59375 -1.421875 
Q 29.59375 -1.421875 25.265625 0.953125 
Q 20.953125 3.328125 18.109375 8.203125 
z
M 48.6875 27.296875 
Q 48.6875 37.203125 44.609375 42.84375 
Q 40.53125 48.484375 33.40625 48.484375 
Q 26.265625 48.484375 22.1875 42.84375 
Q 18.109375 37.203125 18.109375 27.296875 
Q 18.109375 17.390625 22.1875 11.75 
Q 26.265625 6.109375 33.40625 6.109375 
Q 40.53125 6.109375 44.609375 11.75 
Q 48.6875 17.390625 48.6875 27.296875 
z
" id="DejaVuSans-70"/>
     <path d="M 8.5 21.578125 
L 8.5 54.6875 
L 17.484375 54.6875 
L 17.484375 21.921875 
Q 17.484375 14.15625 20.5 10.265625 
Q 23.53125 6.390625 29.59375 6.390625 
Q 36.859375 6.390625 41.078125 11.03125 
Q 45.3125 15.671875 45.3125 23.6875 
L 45.3125 54.6875 
L 54.296875 54.6875 
L 54.296875 0 
L 45.3125 0 
L 45.3125 8.40625 
Q 42.046875 3.421875 37.71875 1 
Q 33.40625 -1.421875 27.6875 -1.421875 
Q 18.265625 -1.421875 13.375 4.4375 
Q 8.5 10.296875 8.5 21.578125 
z
M 31.109375 56 
z
" id="DejaVuSans-75"/>
     <path d="M 9.421875 75.984375 
L 18.40625 75.984375 
L 18.40625 0 
L 9.421875 0 
z
" id="DejaVuSans-6c"/>
     <path d="M 17.921875 72.90625 
L 17.921875 45.796875 
L 9.625 45.796875 
L 9.625 72.90625 
z
" id="DejaVuSans-27"/>
     <path id="DejaVuSans-20"/>
     <path d="M 2.984375 54.6875 
L 12.5 54.6875 
L 29.59375 8.796875 
L 46.6875 54.6875 
L 56.203125 54.6875 
L 35.6875 0 
L 23.484375 0 
z
" id="DejaVuSans-76"/>
     <path d="M 45.40625 27.984375 
Q 45.40625 37.75 41.375 43.109375 
Q 37.359375 48.484375 30.078125 48.484375 
Q 22.859375 48.484375 18.828125 43.109375 
Q 14.796875 37.75 14.796875 27.984375 
Q 14.796875 18.265625 18.828125 12.890625 
Q 22.859375 7.515625 30.078125 7.515625 
Q 37.359375 7.515625 41.375 12.890625 
Q 45.40625 18.265625 45.40625 27.984375 
z
M 54.390625 6.78125 
Q 54.390625 -7.171875 48.1875 -13.984375 
Q 42 -20.796875 29.203125 -20.796875 
Q 24.46875 -20.796875 20.265625 -20.09375 
Q 16.0625 -19.390625 12.109375 -17.921875 
L 12.109375 -9.1875 
Q 16.0625 -11.328125 19.921875 -12.34375 
Q 23.78125 -13.375 27.78125 -13.375 
Q 36.625 -13.375 41.015625 -8.765625 
Q 45.40625 -4.15625 45.40625 5.171875 
L 45.40625 9.625 
Q 42.625 4.78125 38.28125 2.390625 
Q 33.9375 0 27.875 0 
Q 17.828125 0 11.671875 7.65625 
Q 5.515625 15.328125 5.515625 27.984375 
Q 5.515625 40.671875 11.671875 48.328125 
Q 17.828125 56 27.875 56 
Q 33.9375 56 38.28125 53.609375 
Q 42.625 51.21875 45.40625 46.390625 
L 45.40625 54.6875 
L 54.390625 54.6875 
z
" id="DejaVuSans-67"/>
     <path d="M 45.40625 46.390625 
L 45.40625 75.984375 
L 54.390625 75.984375 
L 54.390625 0 
L 45.40625 0 
L 45.40625 8.203125 
Q 42.578125 3.328125 38.25 0.953125 
Q 33.9375 -1.421875 27.875 -1.421875 
Q 17.96875 -1.421875 11.734375 6.484375 
Q 5.515625 14.40625 5.515625 27.296875 
Q 5.515625 40.1875 11.734375 48.09375 
Q 17.96875 56 27.875 56 
Q 33.9375 56 38.25 53.625 
Q 42.578125 51.265625 45.40625 46.390625 
z
M 14.796875 27.296875 
Q 14.796875 17.390625 18.875 11.75 
Q 22.953125 6.109375 30.078125 6.109375 
Q 37.203125 6.109375 41.296875 11.75 
Q 45.40625 17.390625 45.40625 27.296875 
Q 45.40625 37.203125 41.296875 42.84375 
Q 37.203125 48.484375 30.078125 48.484375 
Q 22.953125 48.484375 18.875 42.84375 
Q 14.796875 37.203125 14.796875 27.296875 
z
" id="DejaVuSans-64"/>
     <path d="M 48.6875 27.296875 
Q 48.6875 37.203125 44.609375 42.84375 
Q 40.53125 48.484375 33.40625 48.484375 
Q 26.265625 48.484375 22.1875 42.84375 
Q 18.109375 37.203125 18.109375 27.296875 
Q 18.109375 17.390625 22.1875 11.75 
Q 26.265625 6.109375 33.40625 6.109375 
Q 40.53125 6.109375 44.609375 11.75 
Q 48.6875 17.390625 48.6875 27.296875 
z
M 18.109375 46.390625 
Q 20.953125 51.265625 25.265625 53.625 
Q 29.59375 56 35.59375 56 
Q 45.5625 56 51.78125 48.09375 
Q 58.015625 40.1875 58.015625 27.296875 
Q 58.015625 14.40625 51.78125 6.484375 
Q 45.5625 -1.421875 35.59375 -1.421875 
Q 29.59375 -1.421875 25.265625 0.953125 
Q 20.953125 3.328125 18.109375 8.203125 
L 18.109375 0 
L 9.078125 0 
L 9.078125 75.984375 
L 18.109375 75.984375 
z
" id="DejaVuSans-62"/>
     <path d="M 37.109375 75.984375 
L 37.109375 68.5 
L 28.515625 68.5 
Q 23.6875 68.5 21.796875 66.546875 
Q 19.921875 64.59375 19.921875 59.515625 
L 19.921875 54.6875 
L 34.71875 54.6875 
L 34.71875 47.703125 
L 19.921875 47.703125 
L 19.921875 0 
L 10.890625 0 
L 10.890625 47.703125 
L 2.296875 47.703125 
L 2.296875 54.6875 
L 10.890625 54.6875 
L 10.890625 58.5 
Q 10.890625 67.625 15.140625 71.796875 
Q 19.390625 75.984375 28.609375 75.984375 
z
" id="DejaVuSans-66"/>
    </defs>
    <g transform="translate(123.315 35.472)scale(0.12 -0.12)">
     <use xlink:href="#DejaVuSans-50"/>
     <use x="60.255859" xlink:href="#DejaVuSans-6f"/>
     <use x="121.4375" xlink:href="#DejaVuSans-70"/>
     <use x="184.914062" xlink:href="#DejaVuSans-75"/>
     <use x="248.292969" xlink:href="#DejaVuSans-6c"/>
     <use x="276.076172" xlink:href="#DejaVuSans-61"/>
     <use x="337.355469" xlink:href="#DejaVuSans-74"/>
     <use x="376.564453" xlink:href="#DejaVuSans-69"/>
     <use x="404.347656" xlink:href="#DejaVuSans-6f"/>
     <use x="465.529297" xlink:href="#DejaVuSans-6e"/>
     <use x="528.908203" xlink:href="#DejaVuSans-27"/>
     <use x="556.398438" xlink:href="#DejaVuSans-73"/>
     <use x="608.498047" xlink:href="#DejaVuSans-20"/>
     <use x="640.285156" xlink:href="#DejaVuSans-61"/>
     <use x="701.564453" xlink:href="#DejaVuSans-76"/>
     <use x="760.744141" xlink:href="#DejaVuSans-65"/>
     <use x="822.267578" xlink:href="#DejaVuSans-72"/>
     <use x="863.380859" xlink:href="#DejaVuSans-61"/>
     <use x="924.660156" xlink:href="#DejaVuSans-67"/>
     <use x="988.136719" xlink:href="#DejaVuSans-65"/>
     <use x="1049.660156" xlink:href="#DejaVuSans-20"/>
     <use x="1081.447266" xlink:href="#DejaVuSans-61"/>
     <use x="1142.726562" xlink:href="#DejaVuSans-6e"/>
     <use x="1206.105469" xlink:href="#DejaVuSans-64"/>
     <use x="1269.582031" xlink:href="#DejaVuSans-20"/>
     <use x="1301.369141" xlink:href="#DejaVuSans-62"/>
     <use x="1364.845703" xlink:href="#DejaVuSans-65"/>
     <use x="1426.369141" xlink:href="#DejaVuSans-73"/>
     <use x="1478.46875" xlink:href="#DejaVuSans-74"/>
     <use x="1517.677734" xlink:href="#DejaVuSans-20"/>
     <use x="1549.464844" xlink:href="#DejaVuSans-66"/>
     <use x="1584.669922" xlink:href="#DejaVuSans-69"/>
     <use x="1612.453125" xlink:href="#DejaVuSans-74"/>
     <use x="1651.662109" xlink:href="#DejaVuSans-6e"/>
     <use x="1715.041016" xlink:href="#DejaVuSans-65"/>
     <use x="1776.564453" xlink:href="#DejaVuSans-73"/>
     <use x="1828.664062" xlink:href="#DejaVuSans-73"/>
    </g>
   </g>
   <g id="legend_1">
    <g id="patch_7">
     <path d="M 64.6 205.38425 
L 137.540625 205.38425 
Q 139.540625 205.38425 139.540625 203.38425 
L 139.540625 145.67175 
Q 139.540625 143.67175 137.540625 143.67175 
L 64.6 143.67175 
Q 62.6 143.67175 62.6 145.67175 
L 62.6 203.38425 
Q 62.6 205.38425 64.6 205.38425 
z
" style="fill:#ffffff;opacity:0.8;stroke:#cccccc;stroke-linejoin:miter;"/>
    </g>
    <g id="line2d_36">
     <path d="M 66.6 151.770188 
L 86.6 151.770188 
" style="fill:none;stroke:#0000ff;stroke-linecap:square;stroke-width:1.5;"/>
    </g>
    <g id="line2d_37"/>
    <g id="text_16">
     <!-- average -->
     <g transform="translate(94.6 155.270188)scale(0.1 -0.1)">
      <use xlink:href="#DejaVuSans-61"/>
      <use x="61.279297" xlink:href="#DejaVuSans-76"/>
      <use x="120.458984" xlink:href="#DejaVuSans-65"/>
      <use x="181.982422" xlink:href="#DejaVuSans-72"/>
      <use x="223.095703" xlink:href="#DejaVuSans-61"/>
      <use x="284.375" xlink:href="#DejaVuSans-67"/>
      <use x="347.851562" xlink:href="#DejaVuSans-65"/>
     </g>
    </g>
    <g id="line2d_38">
     <path d="M 66.6 166.448313 
L 86.6 166.448313 
" style="fill:none;stroke:#008000;stroke-dasharray:9.6,2.4,1.5,2.4;stroke-dashoffset:0;stroke-width:1.5;"/>
    </g>
    <g id="line2d_39"/>
    <g id="text_17">
     <!-- -1 sd -->
     <defs>
      <path d="M 4.890625 31.390625 
L 31.203125 31.390625 
L 31.203125 23.390625 
L 4.890625 23.390625 
z
" id="DejaVuSans-2d"/>
     </defs>
     <g transform="translate(94.6 169.948313)scale(0.1 -0.1)">
      <use xlink:href="#DejaVuSans-2d"/>
      <use x="36.083984" xlink:href="#DejaVuSans-31"/>
      <use x="99.707031" xlink:href="#DejaVuSans-20"/>
      <use x="131.494141" xlink:href="#DejaVuSans-73"/>
      <use x="183.59375" xlink:href="#DejaVuSans-64"/>
     </g>
    </g>
    <g id="line2d_40">
     <path d="M 66.6 181.126438 
L 86.6 181.126438 
" style="fill:none;stroke:#008000;stroke-dasharray:9.6,2.4,1.5,2.4;stroke-dashoffset:0;stroke-width:1.5;"/>
    </g>
    <g id="line2d_41"/>
    <g id="text_18">
     <!-- +1 sd -->
     <defs>
      <path d="M 46 62.703125 
L 46 35.5 
L 73.1875 35.5 
L 73.1875 27.203125 
L 46 27.203125 
L 46 0 
L 37.796875 0 
L 37.796875 27.203125 
L 10.59375 27.203125 
L 10.59375 35.5 
L 37.796875 35.5 
L 37.796875 62.703125 
z
" id="DejaVuSans-2b"/>
     </defs>
     <g transform="translate(94.6 184.626438)scale(0.1 -0.1)">
      <use xlink:href="#DejaVuSans-2b"/>
      <use x="83.789062" xlink:href="#DejaVuSans-31"/>
      <use x="147.412109" xlink:href="#DejaVuSans-20"/>
      <use x="179.199219" xlink:href="#DejaVuSans-73"/>
      <use x="231.298828" xlink:href="#DejaVuSans-64"/>
     </g>
    </g>
    <g id="line2d_42">
     <path d="M 66.6 195.804563 
L 86.6 195.804563 
" style="fill:none;stroke:#ff0000;stroke-linecap:square;stroke-width:1.5;"/>
    </g>
    <g id="line2d_43"/>
    <g id="text_19">
     <!-- best -->
     <g transform="translate(94.6 199.304563)scale(0.1 -0.1)">
      <use xlink:href="#DejaVuSans-62"/>
      <use x="63.476562" xlink:href="#DejaVuSans-65"/>
      <use x="125" xlink:href="#DejaVuSans-73"/>
      <use x="177.099609" xlink:href="#DejaVuSans-74"/>
     </g>
    </g>
   </g>
  </g>
 </g>
 <defs>
  <clipPath id="p847a01f469">
   <rect height="266.112" width="357.12" x="57.6" y="41.472"/>
  </clipPath>
 </defs>
</svg>
