<?xml version="1.0" encoding="UTF-8" standalone="no"?>
<!DOCTYPE svg PUBLIC "-//W3C//DTD SVG 1.1//EN"
 "http://www.w3.org/Graphics/SVG/1.1/DTD/svg11.dtd">
<!-- Generated by graphviz version 2.38.0 (20140413.2041)
 -->
<!-- Title: %3 Pages: 1 -->
<svg width="449pt" height="452pt"
 viewBox="0.00 0.00 449.49 452.07" xmlns="http://www.w3.org/2000/svg" xmlns:xlink="http://www.w3.org/1999/xlink">
<g id="graph0" class="graph" transform="scale(1 1) rotate(0) translate(4 448.073)">
<title>%3</title>
<polygon fill="white" stroke="none" points="-4,4 -4,-448.073 445.492,-448.073 445.492,4 -4,4"/>
<!-- ext -->
<g id="node1" class="node"><title>ext</title>
<polygon fill="lightgray" stroke="black" points="161.197,-444.073 134.197,-444.073 134.197,-426.073 161.197,-426.073 161.197,-444.073"/>
<text text-anchor="middle" x="147.697" y="-432.873" font-family="Times,serif" font-size="9.00">ext</text>
</g>
<!-- wz -->
<g id="node8" class="node"><title>wz</title>
<ellipse fill="lightblue" stroke="black" cx="141.697" cy="-274.17" rx="19.1842" ry="19.1842"/>
<text text-anchor="middle" x="141.697" y="-271.97" font-family="Times,serif" font-size="9.00">wz</text>
</g>
<!-- ext&#45;&gt;wz -->
<g id="edge12" class="edge"><title>ext&#45;&gt;wz</title>
<path fill="none" stroke="green" stroke-width="0.306745" stroke-dasharray="1,5" d="M147.391,-425.975C146.55,-403.698 144.171,-340.7 142.769,-303.552"/>
<polygon fill="green" stroke="green" stroke-width="0.306745" points="146.259,-303.231 142.384,-293.37 139.264,-303.495 146.259,-303.231"/>
</g>
<!-- 18 -->
<g id="node10" class="node"><title>18</title>
<ellipse fill="white" stroke="black" cx="327.697" cy="-362.496" rx="18.2703" ry="18.2703"/>
<text text-anchor="middle" x="327.697" y="-360.296" font-family="Times,serif" font-size="9.00">18</text>
</g>
<!-- ext&#45;&gt;18 -->
<g id="edge16" class="edge"><title>ext&#45;&gt;18</title>
<path fill="none" stroke="green" stroke-width="0.77783" stroke-dasharray="1,5" d="M161.544,-428.891C183.187,-420.766 226.322,-404.466 262.697,-390.073 275.539,-384.992 289.743,-379.203 301.59,-374.329"/>
<polygon fill="green" stroke="green" stroke-width="0.77783" points="302.996,-377.535 310.905,-370.484 300.326,-371.064 302.996,-377.535"/>
</g>
<!-- 21 -->
<g id="node12" class="node"><title>21</title>
<ellipse fill="white" stroke="black" cx="86.697" cy="-274.17" rx="18.2703" ry="18.2703"/>
<text text-anchor="middle" x="86.697" y="-271.97" font-family="Times,serif" font-size="9.00">21</text>
</g>
<!-- ext&#45;&gt;21 -->
<g id="edge5" class="edge"><title>ext&#45;&gt;21</title>
<path fill="none" stroke="green" stroke-width="0.249839" d="M134.18,-434.511C105.561,-434.61 39.0739,-430.274 9.69703,-390.073 -4.76594,-370.281 -1.08531,-356.933 9.69703,-334.919 20.3447,-313.179 43.1388,-297.078 61.1783,-287.103"/>
<polygon fill="green" stroke="green" stroke-width="0.249839" points="62.8466,-290.18 70.0889,-282.447 59.6049,-283.976 62.8466,-290.18"/>
</g>
<!-- 22 -->
<g id="node13" class="node"><title>22</title>
<ellipse fill="white" stroke="black" cx="235.697" cy="-362.496" rx="18.2703" ry="18.2703"/>
<text text-anchor="middle" x="235.697" y="-360.296" font-family="Times,serif" font-size="9.00">22</text>
</g>
<!-- ext&#45;&gt;22 -->
<g id="edge22" class="edge"><title>ext&#45;&gt;22</title>
<path fill="none" stroke="red" stroke-width="0.15433" stroke-dasharray="1,5" d="M159.53,-426.06C171.877,-417.547 191.639,-403.491 207.697,-390.073 210.32,-387.881 213.009,-385.508 215.634,-383.113"/>
<polygon fill="red" stroke="red" stroke-width="0.15433" points="218.293,-385.417 223.185,-376.019 213.501,-380.315 218.293,-385.417"/>
</g>
<!-- 14646 -->
<g id="node14" class="node"><title>14646</title>
<ellipse fill="white" stroke="black" cx="46.697" cy="-362.496" rx="27.6545" ry="27.6545"/>
<text text-anchor="middle" x="46.697" y="-360.296" font-family="Times,serif" font-size="9.00">14646</text>
</g>
<!-- ext&#45;&gt;14646 -->
<g id="edge8" class="edge"><title>ext&#45;&gt;14646</title>
<path fill="none" stroke="green" stroke-width="0.506114" d="M135.132,-425.788C121.963,-417.053 100.722,-402.819 82.697,-390.073 80.6435,-388.621 78.5336,-387.111 76.4144,-385.581"/>
<polygon fill="green" stroke="green" stroke-width="0.506114" points="78.4372,-382.725 68.2947,-379.662 74.3136,-388.381 78.4372,-382.725"/>
</g>
<!-- eyt -->
<g id="node2" class="node"><title>eyt</title>
<polygon fill="lightgray" stroke="black" points="119.197,-371.496 92.197,-371.496 92.197,-353.496 119.197,-353.496 119.197,-371.496"/>
<text text-anchor="middle" x="105.697" y="-360.296" font-family="Times,serif" font-size="9.00">eyt</text>
</g>
<!-- eyt&#45;&gt;wz -->
<g id="edge7" class="edge"><title>eyt&#45;&gt;wz</title>
<path fill="none" stroke="green" stroke-width="0.306705" d="M109.149,-353.219C114.079,-341.397 123.357,-319.148 130.75,-301.421"/>
<polygon fill="green" stroke="green" stroke-width="0.306705" points="134.005,-302.709 134.624,-292.132 127.544,-300.014 134.005,-302.709"/>
</g>
<!-- sf -->
<g id="node3" class="node"><title>sf</title>
<polygon fill="lightgray" stroke="black" points="293.197,-444.073 270.197,-444.073 270.197,-426.073 293.197,-426.073 293.197,-444.073"/>
<text text-anchor="middle" x="281.697" y="-432.873" font-family="Times,serif" font-size="9.00">sf</text>
</g>
<!-- ux -->
<g id="node6" class="node"><title>ux</title>
<ellipse fill="lightblue" stroke="black" cx="196.697" cy="-274.17" rx="18.2703" ry="18.2703"/>
<text text-anchor="middle" x="196.697" y="-271.97" font-family="Times,serif" font-size="9.00">ux</text>
</g>
<!-- sf&#45;&gt;ux -->
<g id="edge11" class="edge"><title>sf&#45;&gt;ux</title>
<path fill="none" stroke="green" stroke-width="1.14906" d="M281.833,-426.037C281.79,-408.373 279.791,-365.322 262.697,-334.919 257.066,-324.904 235.716,-306.37 218.803,-292.589"/>
<polygon fill="green" stroke="green" stroke-width="1.14906" points="220.93,-289.808 210.945,-286.264 216.541,-295.261 220.93,-289.808"/>
</g>
<!-- sf&#45;&gt;18 -->
<g id="edge4" class="edge"><title>sf&#45;&gt;18</title>
<path fill="none" stroke="red" stroke-width="0.355068" d="M286.974,-425.977C293.169,-416.473 303.716,-400.29 312.524,-386.776"/>
<polygon fill="red" stroke="red" stroke-width="0.355068" points="315.47,-388.666 317.998,-378.377 309.605,-384.844 315.47,-388.666"/>
</g>
<!-- sf&#45;&gt;22 -->
<g id="edge9" class="edge"><title>sf&#45;&gt;22</title>
<path fill="none" stroke="green" stroke-width="0.323608" d="M276.42,-425.977C270.225,-416.473 259.678,-400.29 250.87,-386.776"/>
<polygon fill="green" stroke="green" stroke-width="0.323608" points="253.789,-384.844 245.396,-378.377 247.924,-388.666 253.789,-384.844"/>
</g>
<!-- sl -->
<g id="node4" class="node"><title>sl</title>
<polygon fill="lightgray" stroke="black" points="334.197,-444.073 311.197,-444.073 311.197,-426.073 334.197,-426.073 334.197,-444.073"/>
<text text-anchor="middle" x="322.697" y="-432.873" font-family="Times,serif" font-size="9.00">sl</text>
</g>
<!-- sr -->
<g id="node5" class="node"><title>sr</title>
<polygon fill="lightgray" stroke="black" points="199.197,-371.496 176.197,-371.496 176.197,-353.496 199.197,-353.496 199.197,-371.496"/>
<text text-anchor="middle" x="187.697" y="-360.296" font-family="Times,serif" font-size="9.00">sr</text>
</g>
<!-- sr&#45;&gt;ux -->
<g id="edge1" class="edge"><title>sr&#45;&gt;ux</title>
<path fill="none" stroke="red" stroke-width="0.325968" d="M188.56,-353.219C189.755,-341.756 191.972,-320.489 193.791,-303.046"/>
<polygon fill="red" stroke="red" stroke-width="0.325968" points="197.303,-303.111 194.859,-292.802 190.341,-302.385 197.303,-303.111"/>
</g>
<!-- sr&#45;&gt;wz -->
<g id="edge23" class="edge"><title>sr&#45;&gt;wz</title>
<path fill="none" stroke="green" stroke-width="0.38973" stroke-dasharray="1,5" d="M183.286,-353.219C176.911,-341.255 164.845,-318.611 155.345,-300.782"/>
<polygon fill="green" stroke="green" stroke-width="0.38973" points="158.175,-298.65 150.383,-291.471 151.997,-301.942 158.175,-298.65"/>
</g>
<!-- sr&#45;&gt;21 -->
<g id="edge18" class="edge"><title>sr&#45;&gt;21</title>
<path fill="none" stroke="red" stroke-width="1.21304" d="M178.067,-353.455C163.898,-341.6 136.631,-318.698 113.697,-298.919 111.753,-297.242 109.737,-295.491 107.722,-293.733"/>
<polygon fill="red" stroke="red" stroke-width="1.21304" points="109.937,-291.021 100.111,-287.06 105.322,-296.285 109.937,-291.021"/>
</g>
<!-- uy -->
<g id="node7" class="node"><title>uy</title>
<ellipse fill="lightblue" stroke="black" cx="294.697" cy="-18.3848" rx="18.2703" ry="18.2703"/>
<text text-anchor="middle" x="294.697" y="-16.1848" font-family="Times,serif" font-size="9.00">uy</text>
</g>
<!-- 14564 -->
<g id="node9" class="node"><title>14564</title>
<ellipse fill="white" stroke="black" cx="298.697" cy="-185.844" rx="27.6545" ry="27.6545"/>
<text text-anchor="middle" x="298.697" y="-183.644" font-family="Times,serif" font-size="9.00">14564</text>
</g>
<!-- 14564&#45;&gt;uy -->
<g id="edge13" class="edge"><title>14564&#45;&gt;uy</title>
<path fill="none" stroke="green" stroke-width="0.382455" d="M298.054,-158.26C297.316,-127.698 296.109,-77.7812 295.361,-46.8522"/>
<polygon fill="green" stroke="green" stroke-width="0.382455" points="298.858,-46.6794 295.117,-36.7669 291.86,-46.8486 298.858,-46.6794"/>
</g>
<!-- 18&#45;&gt;ux -->
<g id="edge2" class="edge"><title>18&#45;&gt;ux</title>
<path fill="none" stroke="red" stroke-width="0.487227" stroke-dasharray="1,5" d="M314.463,-349.489C308.87,-344.689 302.165,-339.278 295.697,-334.919 267.666,-316.025 257.234,-317.04 228.697,-298.919 225.47,-296.87 222.146,-294.599 218.916,-292.298"/>
<polygon fill="red" stroke="red" stroke-width="0.487227" points="220.849,-289.375 210.72,-286.266 216.7,-295.012 220.849,-289.375"/>
</g>
<!-- 18&#45;&gt;uy -->
<g id="edge14" class="edge"><title>18&#45;&gt;uy</title>
<path fill="none" stroke="red" stroke-width="0.270679" d="M318.082,-346.744C302.012,-320.99 270.583,-265.583 261.697,-213.421 251.443,-153.226 271.584,-82.5213 284.683,-45.3104"/>
<polygon fill="red" stroke="red" stroke-width="0.270679" points="288.035,-46.3339 288.159,-35.7398 281.455,-43.9438 288.035,-46.3339"/>
</g>
<!-- 18&#45;&gt;14564 -->
<g id="edge21" class="edge"><title>18&#45;&gt;14564</title>
<path fill="none" stroke="green" stroke-width="0.4195" d="M318.683,-346.168C311.988,-333.863 303.401,-315.896 299.697,-298.919 294.314,-274.249 294.132,-245.793 295.26,-223.727"/>
<polygon fill="green" stroke="green" stroke-width="0.4195" points="298.772,-223.651 295.903,-213.453 291.785,-223.215 298.772,-223.651"/>
</g>
<!-- 19 -->
<g id="node11" class="node"><title>19</title>
<ellipse fill="white" stroke="black" cx="400.697" cy="-185.844" rx="18.2703" ry="18.2703"/>
<text text-anchor="middle" x="400.697" y="-183.644" font-family="Times,serif" font-size="9.00">19</text>
</g>
<!-- 18&#45;&gt;19 -->
<g id="edge10" class="edge"><title>18&#45;&gt;19</title>
<path fill="none" stroke="red" stroke-width="0.211925" d="M345.293,-357.109C370.354,-349.806 415.423,-332.519 434.697,-298.919 451.204,-270.142 432.86,-232.523 417.383,-209.02"/>
<polygon fill="red" stroke="red" stroke-width="0.211925" points="420.234,-206.99 411.67,-200.752 414.475,-210.969 420.234,-206.99"/>
</g>
<!-- 7577 -->
<g id="node16" class="node"><title>7577</title>
<ellipse fill="white" stroke="black" cx="400.697" cy="-274.17" rx="25" ry="25"/>
<text text-anchor="middle" x="400.697" y="-271.97" font-family="Times,serif" font-size="9.00">7577</text>
</g>
<!-- 18&#45;&gt;7577 -->
<g id="edge17" class="edge"><title>18&#45;&gt;7577</title>
<path fill="none" stroke="red" stroke-width="0.277469" d="M339.103,-348.008C349.621,-335.57 365.526,-316.761 378.539,-301.373"/>
<polygon fill="red" stroke="red" stroke-width="0.277469" points="381.252,-303.585 385.037,-293.689 375.907,-299.065 381.252,-303.585"/>
</g>
<!-- 1271 -->
<g id="node17" class="node"><title>1271</title>
<ellipse fill="white" stroke="black" cx="333.697" cy="-274.17" rx="25" ry="25"/>
<text text-anchor="middle" x="333.697" y="-271.97" font-family="Times,serif" font-size="9.00">1271</text>
</g>
<!-- 18&#45;&gt;1271 -->
<g id="edge25" class="edge"><title>18&#45;&gt;1271</title>
<path fill="none" stroke="green" stroke-width="0.14356" stroke-dasharray="1,5" d="M328.911,-344.027C329.605,-334.043 330.499,-321.176 331.327,-309.272"/>
<polygon fill="green" stroke="green" stroke-width="0.14356" points="334.828,-309.374 332.03,-299.156 327.845,-308.889 334.828,-309.374"/>
</g>
<!-- 19&#45;&gt;uy -->
<g id="edge24" class="edge"><title>19&#45;&gt;uy</title>
<path fill="none" stroke="red" stroke-width="0.457328" stroke-dasharray="1,5" d="M401.987,-167.282C402.831,-143.73 401.142,-101.55 381.697,-72.7696 367.354,-51.5406 341.464,-37.2632 321.644,-28.8563"/>
<polygon fill="red" stroke="red" stroke-width="0.457328" points="322.788,-25.5445 312.202,-25.0928 320.195,-32.0469 322.788,-25.5445"/>
</g>
<!-- 7541 -->
<g id="node15" class="node"><title>7541</title>
<ellipse fill="white" stroke="black" cx="347.697" cy="-97.5183" rx="25" ry="25"/>
<text text-anchor="middle" x="347.697" y="-95.3183" font-family="Times,serif" font-size="9.00">7541</text>
</g>
<!-- 19&#45;&gt;7541 -->
<g id="edge15" class="edge"><title>19&#45;&gt;7541</title>
<path fill="none" stroke="green" stroke-width="0.827376" d="M391.465,-169.807C384.361,-158.236 374.325,-141.889 365.654,-127.767"/>
<polygon fill="green" stroke="green" stroke-width="0.827376" points="368.413,-125.571 360.199,-118.881 362.448,-129.234 368.413,-125.571"/>
</g>
<!-- 21&#45;&gt;uy -->
<g id="edge19" class="edge"><title>21&#45;&gt;uy</title>
<path fill="none" stroke="green" stroke-width="1.18196" d="M95.577,-257.788C116.228,-222.73 170.198,-135.117 228.697,-72.7696 241.684,-58.9282 258.308,-45.5023 271.623,-35.5769"/>
<polygon fill="green" stroke="green" stroke-width="1.18196" points="273.81,-38.3139 279.823,-29.5909 269.682,-32.66 273.81,-38.3139"/>
</g>
<!-- 14646&#45;&gt;wz -->
<g id="edge3" class="edge"><title>14646&#45;&gt;wz</title>
<path fill="none" stroke="red" stroke-width="0.266556" d="M66.8441,-343.188C82.5208,-328.943 104.227,-309.218 120.23,-294.677"/>
<polygon fill="red" stroke="red" stroke-width="0.266556" points="122.969,-296.917 128.016,-287.602 118.262,-291.737 122.969,-296.917"/>
</g>
<!-- 7541&#45;&gt;uy -->
<g id="edge6" class="edge"><title>7541&#45;&gt;uy</title>
<path fill="none" stroke="green" stroke-width="0.106161" d="M334.048,-76.6545C326.956,-66.3322 318.242,-53.6514 310.819,-42.8483"/>
<polygon fill="green" stroke="green" stroke-width="0.106161" points="313.499,-40.5681 304.951,-34.3083 307.73,-44.5323 313.499,-40.5681"/>
</g>
<!-- 7577&#45;&gt;19 -->
<g id="edge20" class="edge"><title>7577&#45;&gt;19</title>
<path fill="none" stroke="red" stroke-width="0.875213" d="M400.697,-249.124C400.697,-238.386 400.697,-225.672 400.697,-214.539"/>
<polygon fill="red" stroke="red" stroke-width="0.875213" points="404.197,-214.466 400.697,-204.466 397.197,-214.466 404.197,-214.466"/>
</g>
</g>
</svg>
