<?xml version="1.0" encoding="UTF-8" standalone="no"?>
<!DOCTYPE svg PUBLIC "-//W3C//DTD SVG 1.1//EN"
 "http://www.w3.org/Graphics/SVG/1.1/DTD/svg11.dtd">
<!-- Generated by graphviz version 2.38.0 (20140413.2041)
 -->
<!-- Title: %3 Pages: 1 -->
<svg width="400pt" height="484pt"
 viewBox="0.00 0.00 400.33 483.57" xmlns="http://www.w3.org/2000/svg" xmlns:xlink="http://www.w3.org/1999/xlink">
<g id="graph0" class="graph" transform="scale(1 1) rotate(0) translate(4 479.571)">
<title>%3</title>
<polygon fill="white" stroke="none" points="-4,4 -4,-479.571 396.326,-479.571 396.326,4 -4,4"/>
<!-- ext -->
<g id="node1" class="node"><title>ext</title>
<polygon fill="lightgray" stroke="black" points="284.077,-459.822 257.077,-459.822 257.077,-441.822 284.077,-441.822 284.077,-459.822"/>
<text text-anchor="middle" x="270.577" y="-448.622" font-family="Times,serif" font-size="9.00">ext</text>
</g>
<!-- 21 -->
<g id="node12" class="node"><title>21</title>
<ellipse fill="white" stroke="black" cx="216.577" cy="-362.496" rx="18.2703" ry="18.2703"/>
<text text-anchor="middle" x="216.577" y="-360.296" font-family="Times,serif" font-size="9.00">21</text>
</g>
<!-- ext&#45;&gt;21 -->
<g id="edge4" class="edge"><title>ext&#45;&gt;21</title>
<path fill="none" stroke="green" stroke-width="0.249839" d="M265.399,-441.545C257.666,-429.182 242.8,-405.417 231.495,-387.344"/>
<polygon fill="green" stroke="green" stroke-width="0.249839" points="234.235,-385.124 225.964,-378.502 228.3,-388.836 234.235,-385.124"/>
</g>
<!-- 14646 -->
<g id="node14" class="node"><title>14646</title>
<ellipse fill="white" stroke="black" cx="325.577" cy="-362.496" rx="27.6545" ry="27.6545"/>
<text text-anchor="middle" x="325.577" y="-360.296" font-family="Times,serif" font-size="9.00">14646</text>
</g>
<!-- ext&#45;&gt;14646 -->
<g id="edge7" class="edge"><title>ext&#45;&gt;14646</title>
<path fill="none" stroke="green" stroke-width="0.506114" d="M275.851,-441.545C282.72,-430.764 295.114,-411.31 305.81,-394.522"/>
<polygon fill="green" stroke="green" stroke-width="0.506114" points="308.788,-396.361 311.21,-386.047 302.884,-392.6 308.788,-396.361"/>
</g>
<!-- eyt -->
<g id="node2" class="node"><title>eyt</title>
<polygon fill="lightgray" stroke="black" points="280.077,-371.496 253.077,-371.496 253.077,-353.496 280.077,-353.496 280.077,-371.496"/>
<text text-anchor="middle" x="266.577" y="-360.296" font-family="Times,serif" font-size="9.00">eyt</text>
</g>
<!-- wz -->
<g id="node8" class="node"><title>wz</title>
<ellipse fill="lightblue" stroke="black" cx="295.577" cy="-274.17" rx="19.1842" ry="19.1842"/>
<text text-anchor="middle" x="295.577" y="-271.97" font-family="Times,serif" font-size="9.00">wz</text>
</g>
<!-- eyt&#45;&gt;wz -->
<g id="edge6" class="edge"><title>eyt&#45;&gt;wz</title>
<path fill="none" stroke="green" stroke-width="0.306705" d="M269.358,-353.219C273.269,-341.577 280.576,-319.823 286.486,-302.234"/>
<polygon fill="green" stroke="green" stroke-width="0.306705" points="289.9,-303.06 289.767,-292.466 283.265,-300.831 289.9,-303.06"/>
</g>
<!-- sf -->
<g id="node3" class="node"><title>sf</title>
<polygon fill="lightgray" stroke="black" points="118.077,-459.822 95.0772,-459.822 95.0772,-441.822 118.077,-441.822 118.077,-459.822"/>
<text text-anchor="middle" x="106.577" y="-448.622" font-family="Times,serif" font-size="9.00">sf</text>
</g>
<!-- ux -->
<g id="node6" class="node"><title>ux</title>
<ellipse fill="lightblue" stroke="black" cx="161.577" cy="-362.496" rx="18.2703" ry="18.2703"/>
<text text-anchor="middle" x="161.577" y="-360.296" font-family="Times,serif" font-size="9.00">ux</text>
</g>
<!-- sf&#45;&gt;ux -->
<g id="edge10" class="edge"><title>sf&#45;&gt;ux</title>
<path fill="none" stroke="green" stroke-width="1.14906" d="M111.851,-441.545C119.727,-429.182 134.868,-405.417 146.383,-387.344"/>
<polygon fill="green" stroke="green" stroke-width="1.14906" points="149.595,-388.816 152.017,-378.502 143.691,-385.055 149.595,-388.816"/>
</g>
<!-- 18 -->
<g id="node10" class="node"><title>18</title>
<ellipse fill="white" stroke="black" cx="51.5772" cy="-362.496" rx="18.2703" ry="18.2703"/>
<text text-anchor="middle" x="51.5772" y="-360.296" font-family="Times,serif" font-size="9.00">18</text>
</g>
<!-- sf&#45;&gt;18 -->
<g id="edge3" class="edge"><title>sf&#45;&gt;18</title>
<path fill="none" stroke="red" stroke-width="0.355068" d="M101.304,-441.545C93.4274,-429.182 78.286,-405.417 66.7711,-387.344"/>
<polygon fill="red" stroke="red" stroke-width="0.355068" points="69.4629,-385.055 61.1378,-378.502 63.5593,-388.816 69.4629,-385.055"/>
</g>
<!-- 22 -->
<g id="node13" class="node"><title>22</title>
<ellipse fill="white" stroke="black" cx="106.577" cy="-362.496" rx="18.2703" ry="18.2703"/>
<text text-anchor="middle" x="106.577" y="-360.296" font-family="Times,serif" font-size="9.00">22</text>
</g>
<!-- sf&#45;&gt;22 -->
<g id="edge8" class="edge"><title>sf&#45;&gt;22</title>
<path fill="none" stroke="green" stroke-width="0.323608" d="M106.577,-441.545C106.577,-430.082 106.577,-408.815 106.577,-391.372"/>
<polygon fill="green" stroke="green" stroke-width="0.323608" points="110.077,-391.128 106.577,-381.128 103.077,-391.128 110.077,-391.128"/>
</g>
<!-- sl -->
<g id="node4" class="node"><title>sl</title>
<polygon fill="lightgray" stroke="black" points="325.077,-459.822 302.077,-459.822 302.077,-441.822 325.077,-441.822 325.077,-459.822"/>
<text text-anchor="middle" x="313.577" y="-448.622" font-family="Times,serif" font-size="9.00">sl</text>
</g>
<!-- sr -->
<g id="node5" class="node"><title>sr</title>
<polygon fill="lightgray" stroke="black" points="200.077,-459.822 177.077,-459.822 177.077,-441.822 200.077,-441.822 200.077,-459.822"/>
<text text-anchor="middle" x="188.577" y="-448.622" font-family="Times,serif" font-size="9.00">sr</text>
</g>
<!-- sr&#45;&gt;ux -->
<g id="edge1" class="edge"><title>sr&#45;&gt;ux</title>
<path fill="none" stroke="red" stroke-width="0.325968" d="M185.988,-441.545C182.325,-429.833 175.461,-407.885 169.942,-390.24"/>
<polygon fill="red" stroke="red" stroke-width="0.325968" points="173.208,-388.957 166.882,-380.458 166.527,-391.047 173.208,-388.957"/>
</g>
<!-- sr&#45;&gt;21 -->
<g id="edge15" class="edge"><title>sr&#45;&gt;21</title>
<path fill="none" stroke="red" stroke-width="1.21304" d="M191.262,-441.545C195.084,-429.762 202.265,-407.621 208.006,-389.922"/>
<polygon fill="red" stroke="red" stroke-width="1.21304" points="211.427,-390.718 211.183,-380.126 204.769,-388.558 211.427,-390.718"/>
</g>
<!-- uy -->
<g id="node7" class="node"><title>uy</title>
<ellipse fill="lightblue" stroke="black" cx="130.577" cy="-18.3848" rx="18.2703" ry="18.2703"/>
<text text-anchor="middle" x="130.577" y="-16.1848" font-family="Times,serif" font-size="9.00">uy</text>
</g>
<!-- 14564 -->
<g id="node9" class="node"><title>14564</title>
<ellipse fill="white" stroke="black" cx="27.5772" cy="-185.844" rx="27.6545" ry="27.6545"/>
<text text-anchor="middle" x="27.5772" y="-183.644" font-family="Times,serif" font-size="9.00">14564</text>
</g>
<!-- 14564&#45;&gt;uy -->
<g id="edge11" class="edge"><title>14564&#45;&gt;uy</title>
<path fill="none" stroke="green" stroke-width="0.382455" d="M33.7959,-158.681C40.3164,-134.82 52.2043,-99.3382 70.5772,-72.7696 80.5645,-58.327 95.2459,-45.1748 107.586,-35.5385"/>
<polygon fill="green" stroke="green" stroke-width="0.382455" points="109.783,-38.2658 115.669,-29.4563 105.574,-32.6725 109.783,-38.2658"/>
</g>
<!-- 18&#45;&gt;uy -->
<g id="edge12" class="edge"><title>18&#45;&gt;uy</title>
<path fill="none" stroke="red" stroke-width="0.270679" d="M63.892,-348.727C68.6023,-344.139 74.1498,-339.076 79.5772,-334.919 103.964,-316.241 123.542,-325.706 138.577,-298.919 184.819,-216.534 156.139,-97.8808 139.719,-45.6989"/>
<polygon fill="red" stroke="red" stroke-width="0.270679" points="142.951,-44.3201 136.528,-35.8939 136.295,-46.4862 142.951,-44.3201"/>
</g>
<!-- 18&#45;&gt;14564 -->
<g id="edge18" class="edge"><title>18&#45;&gt;14564</title>
<path fill="none" stroke="green" stroke-width="0.4195" d="M47.1687,-344.613C44.0519,-332.084 40.0106,-314.539 37.5772,-298.919 33.701,-274.037 31.1929,-245.797 29.6579,-223.889"/>
<polygon fill="green" stroke="green" stroke-width="0.4195" points="33.1354,-223.431 28.9809,-213.685 26.1507,-223.895 33.1354,-223.431"/>
</g>
<!-- 19 -->
<g id="node11" class="node"><title>19</title>
<ellipse fill="white" stroke="black" cx="104.577" cy="-185.844" rx="18.2703" ry="18.2703"/>
<text text-anchor="middle" x="104.577" y="-183.644" font-family="Times,serif" font-size="9.00">19</text>
</g>
<!-- 18&#45;&gt;19 -->
<g id="edge9" class="edge"><title>18&#45;&gt;19</title>
<path fill="none" stroke="red" stroke-width="0.211925" d="M52.7562,-343.968C54.6673,-321.527 59.4228,-281.689 70.5772,-249.421 75.2478,-235.91 82.6353,-221.838 89.3326,-210.468"/>
<polygon fill="red" stroke="red" stroke-width="0.211925" points="92.5065,-211.986 94.7212,-201.625 86.5288,-208.343 92.5065,-211.986"/>
</g>
<!-- 7577 -->
<g id="node16" class="node"><title>7577</title>
<ellipse fill="white" stroke="black" cx="104.577" cy="-274.17" rx="25" ry="25"/>
<text text-anchor="middle" x="104.577" y="-271.97" font-family="Times,serif" font-size="9.00">7577</text>
</g>
<!-- 18&#45;&gt;7577 -->
<g id="edge14" class="edge"><title>18&#45;&gt;7577</title>
<path fill="none" stroke="red" stroke-width="0.277469" d="M60.8091,-346.459C67.9131,-334.888 77.9496,-318.541 86.6198,-304.419"/>
<polygon fill="red" stroke="red" stroke-width="0.277469" points="89.8262,-305.886 92.0756,-295.532 83.8608,-302.223 89.8262,-305.886"/>
</g>
<!-- 7541 -->
<g id="node15" class="node"><title>7541</title>
<ellipse fill="white" stroke="black" cx="104.577" cy="-97.5183" rx="25" ry="25"/>
<text text-anchor="middle" x="104.577" y="-95.3183" font-family="Times,serif" font-size="9.00">7541</text>
</g>
<!-- 19&#45;&gt;7541 -->
<g id="edge13" class="edge"><title>19&#45;&gt;7541</title>
<path fill="none" stroke="green" stroke-width="0.827376" d="M104.577,-167.375C104.577,-157.391 104.577,-144.525 104.577,-132.621"/>
<polygon fill="green" stroke="green" stroke-width="0.827376" points="108.077,-132.504 104.577,-122.504 101.077,-132.504 108.077,-132.504"/>
</g>
<!-- 21&#45;&gt;uy -->
<g id="edge16" class="edge"><title>21&#45;&gt;uy</title>
<path fill="none" stroke="green" stroke-width="1.18196" d="M216.075,-343.883C214.228,-297.706 205.681,-169.997 166.577,-72.7696 162.089,-61.6091 155.013,-50.3985 148.318,-41.1518"/>
<polygon fill="green" stroke="green" stroke-width="1.18196" points="150.938,-38.8149 142.112,-32.9541 145.357,-43.0398 150.938,-38.8149"/>
</g>
<!-- 14646&#45;&gt;wz -->
<g id="edge2" class="edge"><title>14646&#45;&gt;wz</title>
<path fill="none" stroke="red" stroke-width="0.266556" d="M316.738,-336.062C313.045,-325.434 308.748,-313.07 304.995,-302.27"/>
<polygon fill="red" stroke="red" stroke-width="0.266556" points="308.19,-300.8 301.601,-292.503 301.577,-303.098 308.19,-300.8"/>
</g>
<!-- 7541&#45;&gt;uy -->
<g id="edge5" class="edge"><title>7541&#45;&gt;uy</title>
<path fill="none" stroke="green" stroke-width="0.106161" d="M112.237,-73.7929C115.198,-65.0107 118.605,-54.9021 121.673,-45.7995"/>
<polygon fill="green" stroke="green" stroke-width="0.106161" points="125.074,-46.6682 124.952,-36.0741 118.441,-44.4322 125.074,-46.6682"/>
</g>
<!-- 7577&#45;&gt;19 -->
<g id="edge17" class="edge"><title>7577&#45;&gt;19</title>
<path fill="none" stroke="red" stroke-width="0.875213" d="M104.577,-249.124C104.577,-238.386 104.577,-225.672 104.577,-214.539"/>
<polygon fill="red" stroke="red" stroke-width="0.875213" points="108.077,-214.466 104.577,-204.466 101.077,-214.466 108.077,-214.466"/>
</g>
<!-- 1271 -->
<g id="node17" class="node"><title>1271</title>
<ellipse fill="white" stroke="black" cx="367.577" cy="-450.822" rx="25" ry="25"/>
<text text-anchor="middle" x="367.577" y="-448.622" font-family="Times,serif" font-size="9.00">1271</text>
</g>
</g>
</svg>
