<?xml version="1.0" encoding="UTF-8" standalone="no"?>
<!DOCTYPE svg PUBLIC "-//W3C//DTD SVG 1.1//EN"
 "http://www.w3.org/Graphics/SVG/1.1/DTD/svg11.dtd">
<!-- Generated by graphviz version 2.38.0 (20140413.2041)
 -->
<!-- Title: %3 Pages: 1 -->
<svg width="881pt" height="653pt"
 viewBox="0.00 0.00 881.18 652.77" xmlns="http://www.w3.org/2000/svg" xmlns:xlink="http://www.w3.org/1999/xlink">
<g id="graph0" class="graph" transform="scale(1 1) rotate(0) translate(4 648.767)">
<title>%3</title>
<polygon fill="white" stroke="none" points="-4,4 -4,-648.767 877.182,-648.767 877.182,4 -4,4"/>
<!-- ext -->
<g id="node1" class="node"><title>ext</title>
<polygon fill="lightgray" stroke="black" points="217.5,-644.767 190.5,-644.767 190.5,-626.767 217.5,-626.767 217.5,-644.767"/>
<text text-anchor="middle" x="204" y="-633.567" font-family="Times,serif" font-size="9.00">ext</text>
</g>
<!-- uy -->
<g id="node8" class="node"><title>uy</title>
<ellipse fill="lightblue" stroke="black" cx="280" cy="-18.3848" rx="18.2703" ry="18.2703"/>
<text text-anchor="middle" x="280" y="-16.1848" font-family="Times,serif" font-size="9.00">uy</text>
</g>
<!-- ext&#45;&gt;uy -->
<g id="edge20" class="edge"><title>ext&#45;&gt;uy</title>
<path fill="none" stroke="red" stroke-width="0.198749" stroke-dasharray="1,5" d="M190.472,-633.243C165.238,-629.786 110.35,-619.306 75,-590.767 24.6481,-550.116 0,-530.677 0,-465.964 0,-465.964 0,-465.964 0,-190.501 0,-131.773 13.9223,-109.182 60,-72.7696 116.953,-27.7627 206.238,-19.9101 251.559,-19.0274"/>
<polygon fill="red" stroke="red" stroke-width="0.198749" points="251.605,-22.5272 261.571,-18.934 251.539,-15.5275 251.605,-22.5272"/>
</g>
<!-- 39598 -->
<g id="node14" class="node"><title>39598</title>
<ellipse fill="white" stroke="black" cx="319" cy="-559.654" rx="27.6545" ry="27.6545"/>
<text text-anchor="middle" x="319" y="-557.454" font-family="Times,serif" font-size="9.00">39598</text>
</g>
<!-- ext&#45;&gt;39598 -->
<g id="edge35" class="edge"><title>ext&#45;&gt;39598</title>
<path fill="none" stroke="red" stroke-width="0.197161" d="M217.654,-626.974C232.472,-618.416 256.73,-604.111 277,-590.767 280.813,-588.257 284.768,-585.555 288.66,-582.837"/>
<polygon fill="red" stroke="red" stroke-width="0.197161" points="290.862,-585.567 296.997,-576.929 286.814,-579.855 290.862,-585.567"/>
</g>
<!-- 37840 -->
<g id="node16" class="node"><title>37840</title>
<ellipse fill="white" stroke="black" cx="263" cy="-464.964" rx="27.6545" ry="27.6545"/>
<text text-anchor="middle" x="263" y="-462.764" font-family="Times,serif" font-size="9.00">37840</text>
</g>
<!-- ext&#45;&gt;37840 -->
<g id="edge53" class="edge"><title>ext&#45;&gt;37840</title>
<path fill="none" stroke="red" stroke-width="0.133432" stroke-dasharray="1,5" d="M214.372,-626.526C223.737,-618.465 237.076,-605.307 244,-590.767 257.169,-563.114 261.622,-528.462 262.951,-502.692"/>
<polygon fill="red" stroke="red" stroke-width="0.133432" points="266.453,-502.715 263.337,-492.588 259.458,-502.447 266.453,-502.715"/>
</g>
<!-- 7602 -->
<g id="node18" class="node"><title>7602</title>
<ellipse fill="white" stroke="black" cx="580" cy="-191.501" rx="25" ry="25"/>
<text text-anchor="middle" x="580" y="-189.301" font-family="Times,serif" font-size="9.00">7602</text>
</g>
<!-- ext&#45;&gt;7602 -->
<g id="edge21" class="edge"><title>ext&#45;&gt;7602</title>
<path fill="none" stroke="green" stroke-width="0.115446" d="M217.723,-635.089C250.01,-635.132 331.834,-630.993 382,-590.767 503.111,-493.651 556.113,-303.444 573.288,-226.256"/>
<polygon fill="green" stroke="green" stroke-width="0.115446" points="576.783,-226.649 575.477,-216.136 569.941,-225.17 576.783,-226.649"/>
</g>
<!-- 35925 -->
<g id="node20" class="node"><title>35925</title>
<ellipse fill="white" stroke="black" cx="216" cy="-373.81" rx="27.6545" ry="27.6545"/>
<text text-anchor="middle" x="216" y="-371.61" font-family="Times,serif" font-size="9.00">35925</text>
</g>
<!-- ext&#45;&gt;35925 -->
<g id="edge4" class="edge"><title>ext&#45;&gt;35925</title>
<path fill="none" stroke="green" stroke-width="0.588524" d="M190.227,-631.016C172.837,-625.455 143.663,-613.185 131,-590.767 97.473,-531.412 100.243,-498.223 131,-437.387 131.786,-435.833 161.632,-414.044 185.735,-396.608"/>
<polygon fill="green" stroke="green" stroke-width="0.588524" points="187.908,-399.356 193.965,-390.663 183.809,-393.682 187.908,-399.356"/>
</g>
<!-- 23128 -->
<g id="node21" class="node"><title>23128</title>
<ellipse fill="white" stroke="black" cx="304" cy="-373.81" rx="27.6545" ry="27.6545"/>
<text text-anchor="middle" x="304" y="-371.61" font-family="Times,serif" font-size="9.00">23128</text>
</g>
<!-- ext&#45;&gt;23128 -->
<g id="edge43" class="edge"><title>ext&#45;&gt;23128</title>
<path fill="none" stroke="red" stroke-width="0.383108" stroke-dasharray="1,5" d="M193.116,-626.746C183.391,-618.841 169.807,-605.788 164,-590.767 154.027,-564.971 155.863,-554.973 164,-528.541 181.967,-470.179 237.32,-421.821 272.805,-395.729"/>
<polygon fill="red" stroke="red" stroke-width="0.383108" points="275.283,-398.259 281.364,-389.583 271.2,-392.573 275.283,-398.259"/>
</g>
<!-- 1146 -->
<g id="node23" class="node"><title>1146</title>
<ellipse fill="white" stroke="black" cx="106" cy="-282.655" rx="25" ry="25"/>
<text text-anchor="middle" x="106" y="-280.455" font-family="Times,serif" font-size="9.00">1146</text>
</g>
<!-- ext&#45;&gt;1146 -->
<g id="edge54" class="edge"><title>ext&#45;&gt;1146</title>
<path fill="none" stroke="red" stroke-width="0.338583" d="M190.346,-633.374C167.807,-630.257 123.383,-620.471 104,-590.767 48.2237,-505.288 76.9799,-375.926 95.0359,-316.103"/>
<polygon fill="red" stroke="red" stroke-width="0.338583" points="98.4132,-317.029 98.0437,-306.44 91.7295,-314.948 98.4132,-317.029"/>
</g>
<!-- 10750 -->
<g id="node26" class="node"><title>10750</title>
<ellipse fill="white" stroke="black" cx="394" cy="-282.655" rx="27.6545" ry="27.6545"/>
<text text-anchor="middle" x="394" y="-280.455" font-family="Times,serif" font-size="9.00">10750</text>
</g>
<!-- ext&#45;&gt;10750 -->
<g id="edge28" class="edge"><title>ext&#45;&gt;10750</title>
<path fill="none" stroke="green" stroke-width="0.551009" stroke-dasharray="1,5" d="M217.52,-635.373C247.629,-635.913 320.349,-632.575 356,-590.767 390.056,-550.829 394.262,-392.95 394.345,-320.432"/>
<polygon fill="green" stroke="green" stroke-width="0.551009" points="397.845,-320.371 394.331,-310.376 390.845,-320.381 397.845,-320.371"/>
</g>
<!-- 102207 -->
<g id="node27" class="node"><title>102207</title>
<ellipse fill="white" stroke="black" cx="204" cy="-559.654" rx="31.2258" ry="31.2258"/>
<text text-anchor="middle" x="204" y="-557.454" font-family="Times,serif" font-size="9.00">102207</text>
</g>
<!-- ext&#45;&gt;102207 -->
<g id="edge55" class="edge"><title>ext&#45;&gt;102207</title>
<path fill="none" stroke="green" stroke-width="0.199605" d="M204,-626.552C204,-620.175 204,-610.814 204,-601.14"/>
<polygon fill="green" stroke="green" stroke-width="0.199605" points="207.5,-601.056 204,-591.056 200.5,-601.056 207.5,-601.056"/>
</g>
<!-- eyt -->
<g id="node2" class="node"><title>eyt</title>
<polygon fill="lightgray" stroke="black" points="270.5,-200.501 243.5,-200.501 243.5,-182.501 270.5,-182.501 270.5,-200.501"/>
<text text-anchor="middle" x="257" y="-189.301" font-family="Times,serif" font-size="9.00">eyt</text>
</g>
<!-- ux -->
<g id="node7" class="node"><title>ux</title>
<ellipse fill="lightblue" stroke="black" cx="553" cy="-100.347" rx="18.2703" ry="18.2703"/>
<text text-anchor="middle" x="553" y="-98.1467" font-family="Times,serif" font-size="9.00">ux</text>
</g>
<!-- eyt&#45;&gt;ux -->
<g id="edge3" class="edge"><title>eyt&#45;&gt;ux</title>
<path fill="none" stroke="red" stroke-width="0.336835" stroke-dasharray="1,5" d="M270.88,-186.321C316.8,-172.49 464.364,-128.044 525.781,-109.545"/>
<polygon fill="red" stroke="red" stroke-width="0.336835" points="526.973,-112.841 535.539,-106.606 524.954,-106.139 526.973,-112.841"/>
</g>
<!-- eyt&#45;&gt;uy -->
<g id="edge37" class="edge"><title>eyt&#45;&gt;uy</title>
<path fill="none" stroke="green" stroke-width="0.802301" d="M258.109,-182.248C261.356,-158.092 270.946,-86.7418 276.293,-46.9646"/>
<polygon fill="green" stroke="green" stroke-width="0.802301" points="279.785,-47.2578 277.648,-36.8806 272.847,-46.3252 279.785,-47.2578"/>
</g>
<!-- 34332 -->
<g id="node25" class="node"><title>34332</title>
<ellipse fill="white" stroke="black" cx="205" cy="-100.347" rx="27.6545" ry="27.6545"/>
<text text-anchor="middle" x="205" y="-98.1467" font-family="Times,serif" font-size="9.00">34332</text>
</g>
<!-- eyt&#45;&gt;34332 -->
<g id="edge11" class="edge"><title>eyt&#45;&gt;34332</title>
<path fill="none" stroke="green" stroke-width="0.514926" d="M252.201,-182.273C245.735,-171.187 233.856,-150.821 223.633,-133.294"/>
<polygon fill="green" stroke="green" stroke-width="0.514926" points="226.537,-131.326 218.476,-124.451 220.491,-134.853 226.537,-131.326"/>
</g>
<!-- sf -->
<g id="node3" class="node"><title>sf</title>
<polygon fill="lightgray" stroke="black" points="538.5,-568.654 515.5,-568.654 515.5,-550.654 538.5,-550.654 538.5,-568.654"/>
<text text-anchor="middle" x="527" y="-557.454" font-family="Times,serif" font-size="9.00">sf</text>
</g>
<!-- sf&#45;&gt;ux -->
<g id="edge49" class="edge"><title>sf&#45;&gt;ux</title>
<path fill="none" stroke="green" stroke-width="0.211411" stroke-dasharray="1,5" d="M524.018,-550.351C515.06,-524.64 489,-443.905 489,-374.81 489,-374.81 489,-374.81 489,-281.655 489,-223.004 519.446,-159.482 538.34,-125.711"/>
<polygon fill="green" stroke="green" stroke-width="0.211411" points="541.618,-127.029 543.557,-116.613 535.546,-123.547 541.618,-127.029"/>
</g>
<!-- sf&#45;&gt;uy -->
<g id="edge38" class="edge"><title>sf&#45;&gt;uy</title>
<path fill="none" stroke="green" stroke-width="0.163445" stroke-dasharray="1,5" d="M520.781,-550.364C502.63,-525.321 451,-447.683 451,-374.81 451,-374.81 451,-374.81 451,-190.501 451,-109.363 353.616,-53.2367 305.83,-30.5795"/>
<polygon fill="green" stroke="green" stroke-width="0.163445" points="307.254,-27.3823 296.708,-26.376 304.325,-33.7399 307.254,-27.3823"/>
</g>
<!-- 9362 -->
<g id="node19" class="node"><title>9362</title>
<ellipse fill="white" stroke="black" cx="593" cy="-464.964" rx="25" ry="25"/>
<text text-anchor="middle" x="593" y="-462.764" font-family="Times,serif" font-size="9.00">9362</text>
</g>
<!-- sf&#45;&gt;9362 -->
<g id="edge2" class="edge"><title>sf&#45;&gt;9362</title>
<path fill="none" stroke="red" stroke-width="0.196696" stroke-dasharray="1,5" d="M532.857,-550.428C541.816,-537.846 559.339,-513.238 573.169,-493.814"/>
<polygon fill="red" stroke="red" stroke-width="0.196696" points="576.078,-495.764 579.027,-485.588 570.376,-491.703 576.078,-495.764"/>
</g>
<!-- 5657 -->
<g id="node22" class="node"><title>5657</title>
<ellipse fill="white" stroke="black" cx="738" cy="-464.964" rx="25" ry="25"/>
<text text-anchor="middle" x="738" y="-462.764" font-family="Times,serif" font-size="9.00">5657</text>
</g>
<!-- sf&#45;&gt;5657 -->
<g id="edge29" class="edge"><title>sf&#45;&gt;5657</title>
<path fill="none" stroke="green" stroke-width="0.786193" d="M538.645,-553.538C570.248,-539.656 658.452,-500.909 706.249,-479.912"/>
<polygon fill="green" stroke="green" stroke-width="0.786193" points="707.772,-483.066 715.52,-475.839 704.957,-476.657 707.772,-483.066"/>
</g>
<!-- sl -->
<g id="node4" class="node"><title>sl</title>
<polygon fill="lightgray" stroke="black" points="170.5,-382.81 147.5,-382.81 147.5,-364.81 170.5,-364.81 170.5,-382.81"/>
<text text-anchor="middle" x="159" y="-371.61" font-family="Times,serif" font-size="9.00">sl</text>
</g>
<!-- sl&#45;&gt;ux -->
<g id="edge8" class="edge"><title>sl&#45;&gt;ux</title>
<path fill="none" stroke="red" stroke-width="0.546687" stroke-dasharray="1,5" d="M163.178,-364.672C166.642,-358.714 172.109,-350.887 179,-346.233 230.102,-311.715 261.416,-344.025 313,-310.233 339.231,-293.049 337.34,-279.508 357,-255.078 389.716,-214.425 390.471,-196.793 431,-163.924 460.379,-140.097 500.292,-121.739 526.342,-111.241"/>
<polygon fill="red" stroke="red" stroke-width="0.546687" points="527.895,-114.392 535.926,-107.482 525.339,-107.875 527.895,-114.392"/>
</g>
<!-- sl&#45;&gt;uy -->
<g id="edge52" class="edge"><title>sl&#45;&gt;uy</title>
<path fill="none" stroke="green" stroke-width="1.29257" d="M165.26,-364.396C169.18,-359.151 174.352,-352.274 179,-346.233 222.84,-289.249 253.632,-286.35 279,-219.078 301.019,-160.688 292.569,-85.6855 285.61,-46.2977"/>
<polygon fill="green" stroke="green" stroke-width="1.29257" points="289.038,-45.5879 283.759,-36.4023 282.158,-46.8755 289.038,-45.5879"/>
</g>
<!-- 5102 -->
<g id="node15" class="node"><title>5102</title>
<ellipse fill="white" stroke="black" cx="132" cy="-191.501" rx="25" ry="25"/>
<text text-anchor="middle" x="132" y="-189.301" font-family="Times,serif" font-size="9.00">5102</text>
</g>
<!-- sl&#45;&gt;5102 -->
<g id="edge15" class="edge"><title>sl&#45;&gt;5102</title>
<path fill="none" stroke="green" stroke-width="0.393308" d="M157.77,-364.594C154.158,-340.472 143.435,-268.862 137.015,-225.995"/>
<polygon fill="green" stroke="green" stroke-width="0.393308" points="140.464,-225.391 135.522,-216.02 133.541,-226.428 140.464,-225.391"/>
</g>
<!-- sl&#45;&gt;1146 -->
<g id="edge42" class="edge"><title>sl&#45;&gt;1146</title>
<path fill="none" stroke="green" stroke-width="0.152657" d="M154.109,-364.582C147.257,-353.056 134.44,-331.496 123.758,-313.527"/>
<polygon fill="green" stroke="green" stroke-width="0.152657" points="126.528,-311.337 118.409,-304.53 120.511,-314.914 126.528,-311.337"/>
</g>
<!-- sr -->
<g id="node5" class="node"><title>sr</title>
<polygon fill="lightgray" stroke="black" points="856.5,-200.501 833.5,-200.501 833.5,-182.501 856.5,-182.501 856.5,-200.501"/>
<text text-anchor="middle" x="845" y="-189.301" font-family="Times,serif" font-size="9.00">sr</text>
</g>
<!-- sr&#45;&gt;ux -->
<g id="edge32" class="edge"><title>sr&#45;&gt;ux</title>
<path fill="none" stroke="green" stroke-width="0.590649" stroke-dasharray="1,5" d="M839.157,-182.159C834.438,-176.094 827.241,-168.222 819,-163.924 732.708,-118.916 695.172,-159.171 603,-127.924 594.167,-124.929 585.014,-120.504 576.991,-116.12"/>
<polygon fill="green" stroke="green" stroke-width="0.590649" points="578.597,-113.006 568.178,-111.08 575.122,-119.083 578.597,-113.006"/>
</g>
<!-- sr&#45;&gt;uy -->
<g id="edge39" class="edge"><title>sr&#45;&gt;uy</title>
<path fill="none" stroke="red" stroke-width="0.568681" d="M837.081,-182.281C830.828,-176.28 821.584,-168.435 812,-163.924 739.759,-129.924 702.581,-171.988 636,-127.924 611.176,-111.495 623.111,-88.7559 598,-72.7696 549.925,-42.1637 377.165,-26.4725 308.466,-21.3318"/>
<polygon fill="red" stroke="red" stroke-width="0.568681" points="308.596,-17.8321 298.368,-20.5967 308.088,-24.8137 308.596,-17.8321"/>
</g>
<!-- &#45;6 -->
<g id="node6" class="node"><title>&#45;6</title>
<polygon fill="lightgray" stroke="black" points="817,-291.655 793,-291.655 793,-273.655 817,-273.655 817,-291.655"/>
<text text-anchor="middle" x="805" y="-280.455" font-family="Times,serif" font-size="9.00">&#45;6</text>
</g>
<!-- &#45;6&#45;&gt;ux -->
<g id="edge25" class="edge"><title>&#45;6&#45;&gt;ux</title>
<path fill="none" stroke="red" stroke-width="0.592873" stroke-dasharray="1,5" d="M806.5,-273.446C809.88,-252.138 815.638,-194.594 786,-163.924 728.398,-104.316 681.108,-155.677 603,-127.924 594.211,-124.801 585.07,-120.343 577.044,-115.967"/>
<polygon fill="red" stroke="red" stroke-width="0.592873" points="578.646,-112.852 568.222,-110.955 575.187,-118.938 578.646,-112.852"/>
</g>
<!-- &#45;6&#45;&gt;uy -->
<g id="edge34" class="edge"><title>&#45;6&#45;&gt;uy</title>
<path fill="none" stroke="red" stroke-width="1.12745" d="M817.022,-273.623C831.579,-263.09 855.345,-243.098 865,-219.078 874.142,-196.334 877.171,-185.202 865,-163.924 825.319,-94.5527 785.669,-98.4827 710,-72.7696 565.317,-23.6047 379.505,-18.851 308.93,-18.9843"/>
<polygon fill="red" stroke="red" stroke-width="1.12745" points="308.597,-15.486 298.616,-19.0417 308.636,-22.4859 308.597,-15.486"/>
</g>
<!-- &#45;6&#45;&gt;7602 -->
<g id="edge30" class="edge"><title>&#45;6&#45;&gt;7602</title>
<path fill="none" stroke="green" stroke-width="0.176503" d="M792.903,-276.862C759.187,-263.502 663.309,-225.512 612.509,-205.383"/>
<polygon fill="green" stroke="green" stroke-width="0.176503" points="613.568,-202.038 602.982,-201.608 610.99,-208.545 613.568,-202.038"/>
</g>
<!-- ux&#45;&gt;ux -->
<g id="edge13" class="edge"><title>ux&#45;&gt;ux</title>
<path fill="none" stroke="red" stroke-width="0.322249" stroke-dasharray="1,5" d="M566.435,-113.058C577.658,-118.49 589.385,-114.253 589.385,-100.347 589.385,-90.5689 583.587,-85.5714 576.243,-85.3541"/>
<polygon fill="red" stroke="red" stroke-width="0.322249" points="575.382,-81.961 566.435,-87.6355 576.968,-88.7791 575.382,-81.961"/>
</g>
<!-- uy&#45;&gt;uy -->
<g id="edge31" class="edge"><title>uy&#45;&gt;uy</title>
<path fill="none" stroke="green" stroke-width="0.574593" d="M293.435,-31.096C304.658,-36.5281 316.385,-32.291 316.385,-18.3848 316.385,-8.60694 310.587,-3.60941 303.243,-3.39218"/>
<polygon fill="green" stroke="green" stroke-width="0.574593" points="302.382,0.000899203 293.435,-5.67359 303.968,-6.81711 302.382,0.000899203"/>
</g>
<!-- 24897 -->
<g id="node9" class="node"><title>24897</title>
<ellipse fill="white" stroke="black" cx="673" cy="-100.347" rx="27.6545" ry="27.6545"/>
<text text-anchor="middle" x="673" y="-98.1467" font-family="Times,serif" font-size="9.00">24897</text>
</g>
<!-- 24897&#45;&gt;uy -->
<g id="edge56" class="edge"><title>24897&#45;&gt;uy</title>
<path fill="none" stroke="red" stroke-width="0.102775" d="M651.231,-83.1883C644.972,-79.2183 637.952,-75.3668 631,-72.7696 516.886,-30.1346 369.772,-21.5116 308.621,-19.7958"/>
<polygon fill="red" stroke="red" stroke-width="0.102775" points="308.643,-16.2954 298.562,-19.5556 308.475,-23.2934 308.643,-16.2954"/>
</g>
<!-- 711 -->
<g id="node10" class="node"><title>711</title>
<ellipse fill="white" stroke="black" cx="682" cy="-191.501" rx="21.4286" ry="21.4286"/>
<text text-anchor="middle" x="682" y="-189.301" font-family="Times,serif" font-size="9.00">711</text>
</g>
<!-- 711&#45;&gt;ux -->
<g id="edge22" class="edge"><title>711&#45;&gt;ux</title>
<path fill="none" stroke="green" stroke-width="0.129974" d="M665.422,-177.58C659.649,-173.169 653.092,-168.259 647,-163.924 623.419,-147.146 595.777,-128.91 576.598,-116.476"/>
<polygon fill="green" stroke="green" stroke-width="0.129974" points="578.472,-113.52 568.173,-111.034 574.674,-119.4 578.472,-113.52"/>
</g>
<!-- 13544 -->
<g id="node11" class="node"><title>13544</title>
<ellipse fill="white" stroke="black" cx="132" cy="-100.347" rx="27.6545" ry="27.6545"/>
<text text-anchor="middle" x="132" y="-98.1467" font-family="Times,serif" font-size="9.00">13544</text>
</g>
<!-- 13544&#45;&gt;uy -->
<g id="edge6" class="edge"><title>13544&#45;&gt;uy</title>
<path fill="none" stroke="green" stroke-width="0.301067" d="M153.24,-82.6323C157.982,-79.1954 163.07,-75.727 168,-72.7696 196.158,-55.8768 230.495,-40.1728 253.668,-30.2318"/>
<polygon fill="green" stroke="green" stroke-width="0.301067" points="255.321,-33.3328 263.166,-26.2119 252.593,-26.8864 255.321,-33.3328"/>
</g>
<!-- 31626 -->
<g id="node12" class="node"><title>31626</title>
<ellipse fill="white" stroke="black" cx="621" cy="-373.81" rx="27.6545" ry="27.6545"/>
<text text-anchor="middle" x="621" y="-371.61" font-family="Times,serif" font-size="9.00">31626</text>
</g>
<!-- 27824 -->
<g id="node17" class="node"><title>27824</title>
<ellipse fill="white" stroke="black" cx="668" cy="-282.655" rx="27.6545" ry="27.6545"/>
<text text-anchor="middle" x="668" y="-280.455" font-family="Times,serif" font-size="9.00">27824</text>
</g>
<!-- 31626&#45;&gt;27824 -->
<g id="edge7" class="edge"><title>31626&#45;&gt;27824</title>
<path fill="none" stroke="green" stroke-width="0.208476" d="M633.595,-348.918C638.853,-338.945 645.046,-327.196 650.719,-316.436"/>
<polygon fill="green" stroke="green" stroke-width="0.208476" points="653.966,-317.782 655.533,-307.304 647.773,-314.518 653.966,-317.782"/>
</g>
<!-- 18221 -->
<g id="node13" class="node"><title>18221</title>
<ellipse fill="white" stroke="black" cx="749" cy="-191.501" rx="27.6545" ry="27.6545"/>
<text text-anchor="middle" x="749" y="-189.301" font-family="Times,serif" font-size="9.00">18221</text>
</g>
<!-- 18221&#45;&gt;ux -->
<g id="edge17" class="edge"><title>18221&#45;&gt;ux</title>
<path fill="none" stroke="red" stroke-width="0.342437" d="M727.791,-173.605C722.794,-170.102 717.357,-166.651 712,-163.924 666.536,-140.775 649.916,-147.969 603,-127.924 594.423,-124.259 585.336,-119.661 577.295,-115.324"/>
<polygon fill="red" stroke="red" stroke-width="0.342437" points="578.875,-112.198 568.429,-110.424 575.489,-118.324 578.875,-112.198"/>
</g>
<!-- 39598&#45;&gt;23128 -->
<g id="edge26" class="edge"><title>39598&#45;&gt;23128</title>
<path fill="none" stroke="green" stroke-width="0.272456" d="M316.819,-531.921C314.23,-500.197 309.901,-447.131 306.998,-411.56"/>
<polygon fill="green" stroke="green" stroke-width="0.272456" points="310.485,-411.257 306.184,-401.574 303.509,-411.826 310.485,-411.257"/>
</g>
<!-- 5102&#45;&gt;uy -->
<g id="edge12" class="edge"><title>5102&#45;&gt;uy</title>
<path fill="none" stroke="green" stroke-width="0.364391" stroke-dasharray="1,5" d="M116.462,-171.599C98.027,-146.746 72.4608,-102.733 95,-72.7696 113.876,-47.6761 204.677,-30.6626 251.673,-23.3839"/>
<polygon fill="green" stroke="green" stroke-width="0.364391" points="252.435,-26.8088 261.804,-21.861 251.394,-19.8866 252.435,-26.8088"/>
</g>
<!-- 5102&#45;&gt;13544 -->
<g id="edge50" class="edge"><title>5102&#45;&gt;13544</title>
<path fill="none" stroke="red" stroke-width="0.729512" stroke-dasharray="1,5" d="M132,-166.609C132,-157.897 132,-147.831 132,-138.252"/>
<polygon fill="red" stroke="red" stroke-width="0.729512" points="135.5,-138.136 132,-128.136 128.5,-138.136 135.5,-138.136"/>
</g>
<!-- 37840&#45;&gt;23128 -->
<g id="edge24" class="edge"><title>37840&#45;&gt;23128</title>
<path fill="none" stroke="green" stroke-width="0.411052" d="M274.203,-439.602C278.633,-429.971 283.797,-418.742 288.569,-408.364"/>
<polygon fill="green" stroke="green" stroke-width="0.411052" points="291.812,-409.69 292.81,-399.142 285.452,-406.765 291.812,-409.69"/>
</g>
<!-- 27824&#45;&gt;7602 -->
<g id="edge40" class="edge"><title>27824&#45;&gt;7602</title>
<path fill="none" stroke="green" stroke-width="0.11045" d="M648.905,-262.31C635.854,-249.088 618.444,-231.449 604.389,-217.21"/>
<polygon fill="green" stroke="green" stroke-width="0.11045" points="606.491,-214.357 596.975,-209.699 601.509,-219.275 606.491,-214.357"/>
</g>
<!-- 7602&#45;&gt;ux -->
<g id="edge19" class="edge"><title>7602&#45;&gt;ux</title>
<path fill="none" stroke="green" stroke-width="0.183134" stroke-dasharray="1,5" d="M573.047,-167.542C569.385,-155.449 564.875,-140.557 561.06,-127.962"/>
<polygon fill="green" stroke="green" stroke-width="0.183134" points="564.302,-126.59 558.054,-118.034 557.603,-128.619 564.302,-126.59"/>
</g>
<!-- 9362&#45;&gt;ux -->
<g id="edge1" class="edge"><title>9362&#45;&gt;ux</title>
<path fill="none" stroke="green" stroke-width="0.349089" d="M586.619,-440.89C583.487,-429.122 579.797,-414.549 577,-401.387 554.878,-297.277 540.075,-270.193 546,-163.924 546.644,-152.381 547.95,-139.697 549.262,-128.783"/>
<polygon fill="green" stroke="green" stroke-width="0.349089" points="552.771,-128.928 550.551,-118.568 545.826,-128.051 552.771,-128.928"/>
</g>
<!-- 9362&#45;&gt;31626 -->
<g id="edge44" class="edge"><title>9362&#45;&gt;31626</title>
<path fill="none" stroke="green" stroke-width="0.454979" d="M600.211,-441.005C603.158,-431.621 606.634,-420.551 609.892,-410.177"/>
<polygon fill="green" stroke="green" stroke-width="0.454979" points="613.268,-411.111 612.925,-400.522 606.589,-409.014 613.268,-411.111"/>
</g>
<!-- 9362&#45;&gt;27824 -->
<g id="edge47" class="edge"><title>9362&#45;&gt;27824</title>
<path fill="none" stroke="red" stroke-width="0.317593" stroke-dasharray="1,5" d="M613.242,-450.668C628.406,-439.484 648.164,-422.034 658,-401.387 669.988,-376.221 672.067,-344.599 671.379,-320.466"/>
<polygon fill="red" stroke="red" stroke-width="0.317593" points="674.866,-320.119 670.914,-310.289 667.874,-320.438 674.866,-320.119"/>
</g>
<!-- 9362&#45;&gt;7602 -->
<g id="edge41" class="edge"><title>9362&#45;&gt;7602</title>
<path fill="none" stroke="red" stroke-width="0.260656" stroke-dasharray="1,5" d="M588.887,-440.27C587.042,-428.6 585.048,-414.296 584,-401.387 579.006,-339.86 578.884,-267.822 579.363,-226.44"/>
<polygon fill="red" stroke="red" stroke-width="0.260656" points="582.864,-226.404 579.5,-216.357 575.865,-226.309 582.864,-226.404"/>
</g>
<!-- 43067 -->
<g id="node24" class="node"><title>43067</title>
<ellipse fill="white" stroke="black" cx="733" cy="-373.81" rx="27.6545" ry="27.6545"/>
<text text-anchor="middle" x="733" y="-371.61" font-family="Times,serif" font-size="9.00">43067</text>
</g>
<!-- 9362&#45;&gt;43067 -->
<g id="edge9" class="edge"><title>9362&#45;&gt;43067</title>
<path fill="none" stroke="red" stroke-width="0.334142" d="M613.657,-450.809C636.755,-436.1 674.436,-412.104 701.276,-395.012"/>
<polygon fill="red" stroke="red" stroke-width="0.334142" points="703.371,-397.827 709.926,-389.504 699.611,-391.923 703.371,-397.827"/>
</g>
<!-- 35925&#45;&gt;1146 -->
<g id="edge46" class="edge"><title>35925&#45;&gt;1146</title>
<path fill="none" stroke="red" stroke-width="0.235327" d="M195.051,-355.831C177.379,-341.508 151.975,-320.918 132.819,-305.392"/>
<polygon fill="red" stroke="red" stroke-width="0.235327" points="135.006,-302.659 125.033,-299.082 130.598,-308.097 135.006,-302.659"/>
</g>
<!-- 35925&#45;&gt;10750 -->
<g id="edge51" class="edge"><title>35925&#45;&gt;10750</title>
<path fill="none" stroke="green" stroke-width="0.604707" d="M239.929,-359.838C248.406,-355.377 258.059,-350.447 267,-346.233 304.11,-328.739 315.655,-329.265 352,-310.233 355.512,-308.394 359.115,-306.359 362.665,-304.258"/>
<polygon fill="green" stroke="green" stroke-width="0.604707" points="364.595,-307.18 371.294,-298.972 360.939,-301.211 364.595,-307.18"/>
</g>
<!-- 23128&#45;&gt;10750 -->
<g id="edge45" class="edge"><title>23128&#45;&gt;10750</title>
<path fill="none" stroke="green" stroke-width="0.142228" d="M323.087,-353.902C336.005,-341.105 353.245,-324.027 367.492,-309.914"/>
<polygon fill="green" stroke="green" stroke-width="0.142228" points="369.989,-312.367 374.631,-302.843 365.063,-307.394 369.989,-312.367"/>
</g>
<!-- 5657&#45;&gt;ux -->
<g id="edge27" class="edge"><title>5657&#45;&gt;ux</title>
<path fill="none" stroke="green" stroke-width="1.25379" d="M751.257,-444.064C758.343,-432.216 766.343,-416.571 770,-401.387 775.74,-377.555 777.471,-369.579 770,-346.233 754.834,-298.842 740.583,-289.859 705,-255.078 684.637,-235.174 672.202,-239.147 652,-219.078 630.881,-198.099 632.902,-186.921 614,-163.924 601.514,-148.733 586.035,-132.883 573.794,-120.936"/>
<polygon fill="green" stroke="green" stroke-width="1.25379" points="575.911,-118.115 566.282,-113.695 571.053,-123.155 575.911,-118.115"/>
</g>
<!-- 1146&#45;&gt;uy -->
<g id="edge23" class="edge"><title>1146&#45;&gt;uy</title>
<path fill="none" stroke="green" stroke-width="0.10779" stroke-dasharray="1,5" d="M94.8861,-260.409C75.1946,-219.488 40.1029,-128.838 83,-72.7696 103.461,-46.026 202.12,-29.5678 251.591,-22.8632"/>
<polygon fill="green" stroke="green" stroke-width="0.10779" points="252.177,-26.3165 261.636,-21.5447 251.266,-19.376 252.177,-26.3165"/>
</g>
<!-- 1146&#45;&gt;5102 -->
<g id="edge33" class="edge"><title>1146&#45;&gt;5102</title>
<path fill="none" stroke="red" stroke-width="0.407125" d="M112.696,-258.696C115.668,-248.505 119.22,-236.324 122.462,-225.207"/>
<polygon fill="red" stroke="red" stroke-width="0.407125" points="125.887,-225.963 125.327,-215.383 119.167,-224.003 125.887,-225.963"/>
</g>
<!-- 43067&#45;&gt;27824 -->
<g id="edge10" class="edge"><title>43067&#45;&gt;27824</title>
<path fill="none" stroke="red" stroke-width="0.38891" d="M716.933,-350.772C708.746,-339.543 698.673,-325.726 689.797,-313.553"/>
<polygon fill="red" stroke="red" stroke-width="0.38891" points="692.602,-311.459 683.883,-305.44 686.946,-315.582 692.602,-311.459"/>
</g>
<!-- 34332&#45;&gt;uy -->
<g id="edge14" class="edge"><title>34332&#45;&gt;uy</title>
<path fill="none" stroke="green" stroke-width="0.255898" d="M223.539,-79.5808C234.784,-67.5925 249.115,-52.3134 260.525,-40.1486"/>
<polygon fill="green" stroke="green" stroke-width="0.255898" points="263.251,-42.3584 267.539,-32.6702 258.145,-37.5696 263.251,-42.3584"/>
</g>
<!-- 10750&#45;&gt;ux -->
<g id="edge18" class="edge"><title>10750&#45;&gt;ux</title>
<path fill="none" stroke="green" stroke-width="0.810158" d="M407.405,-258.062C422.163,-233.179 447.474,-193.551 475,-163.924 491.551,-146.11 513.34,-129.057 529.68,-117.264"/>
<polygon fill="green" stroke="green" stroke-width="0.810158" points="531.99,-119.917 538.13,-111.283 527.946,-114.204 531.99,-119.917"/>
</g>
<!-- 10750&#45;&gt;uy -->
<g id="edge48" class="edge"><title>10750&#45;&gt;uy</title>
<path fill="none" stroke="green" stroke-width="0.691308" d="M385.842,-256.259C372.63,-216.287 344.801,-136.668 313,-72.7696 307.903,-62.5271 301.435,-51.7059 295.579,-42.5037"/>
<polygon fill="green" stroke="green" stroke-width="0.691308" points="298.385,-40.3987 290,-33.9225 292.516,-44.2142 298.385,-40.3987"/>
</g>
<!-- 10750&#45;&gt;5102 -->
<g id="edge5" class="edge"><title>10750&#45;&gt;5102</title>
<path fill="none" stroke="red" stroke-width="0.299872" d="M367.921,-272.781C319.89,-256.437 217.554,-221.614 164.861,-203.683"/>
<polygon fill="red" stroke="red" stroke-width="0.299872" points="165.914,-200.344 155.319,-200.436 163.658,-206.971 165.914,-200.344"/>
</g>
<!-- 10750&#45;&gt;7602 -->
<g id="edge16" class="edge"><title>10750&#45;&gt;7602</title>
<path fill="none" stroke="green" stroke-width="0.107147" d="M418.699,-269.816C452.173,-253.772 511.955,-225.117 548.585,-207.559"/>
<polygon fill="green" stroke="green" stroke-width="0.107147" points="550.31,-210.614 557.814,-203.135 547.284,-204.301 550.31,-210.614"/>
</g>
<!-- 102207&#45;&gt;37840 -->
<g id="edge36" class="edge"><title>102207&#45;&gt;37840</title>
<path fill="none" stroke="green" stroke-width="0.128432" d="M220.435,-532.835C227.445,-521.822 235.689,-508.871 243.045,-497.314"/>
<polygon fill="green" stroke="green" stroke-width="0.128432" points="246.045,-499.119 248.462,-488.804 240.139,-495.36 246.045,-499.119"/>
</g>
</g>
</svg>
