<?xml version="1.0" encoding="UTF-8" standalone="no"?>
<!DOCTYPE svg PUBLIC "-//W3C//DTD SVG 1.1//EN"
 "http://www.w3.org/Graphics/SVG/1.1/DTD/svg11.dtd">
<!-- Generated by graphviz version 2.38.0 (20140413.2041)
 -->
<!-- Title: %3 Pages: 1 -->
<svg width="1024pt" height="720pt"
 viewBox="0.00 0.00 1024.00 719.88" xmlns="http://www.w3.org/2000/svg" xmlns:xlink="http://www.w3.org/1999/xlink">
<g id="graph0" class="graph" transform="scale(1 1) rotate(0) translate(4 715.879)">
<title>%3</title>
<polygon fill="white" stroke="none" points="-4,4 -4,-715.879 1020,-715.879 1020,4 -4,4"/>
<!-- ext -->
<g id="node1" class="node"><title>ext</title>
<polygon fill="lightgray" stroke="black" points="546.5,-642.131 519.5,-642.131 519.5,-624.131 546.5,-624.131 546.5,-642.131"/>
<text text-anchor="middle" x="533" y="-630.931" font-family="Times,serif" font-size="9.00">ext</text>
</g>
<!-- ux -->
<g id="node7" class="node"><title>ux</title>
<ellipse fill="lightblue" stroke="black" cx="834" cy="-204.229" rx="18.2703" ry="18.2703"/>
<text text-anchor="middle" x="834" y="-202.029" font-family="Times,serif" font-size="9.00">ux</text>
</g>
<!-- ext&#45;&gt;ux -->
<g id="edge11" class="edge"><title>ext&#45;&gt;ux</title>
<path fill="none" stroke="green" stroke-width="0.212737" d="M538.744,-623.984C573.961,-574.036 761.035,-308.714 817.713,-228.328"/>
<polygon fill="green" stroke="green" stroke-width="0.212737" points="820.767,-230.071 823.669,-219.881 815.046,-226.037 820.767,-230.071"/>
</g>
<!-- uy -->
<g id="node8" class="node"><title>uy</title>
<ellipse fill="lightblue" stroke="black" cx="587" cy="-204.229" rx="18.2703" ry="18.2703"/>
<text text-anchor="middle" x="587" y="-202.029" font-family="Times,serif" font-size="9.00">uy</text>
</g>
<!-- ext&#45;&gt;uy -->
<g id="edge12" class="edge"><title>ext&#45;&gt;uy</title>
<path fill="none" stroke="green" stroke-width="0.127203" d="M534.031,-623.984C540.239,-574.902 572.754,-317.848 583.528,-232.674"/>
<polygon fill="green" stroke="green" stroke-width="0.127203" points="587.005,-233.078 584.788,-222.718 580.06,-232.2 587.005,-233.078"/>
</g>
<!-- wz -->
<g id="node9" class="node"><title>wz</title>
<ellipse fill="lightblue" stroke="black" cx="241" cy="-547.633" rx="19.1842" ry="19.1842"/>
<text text-anchor="middle" x="241" y="-545.433" font-family="Times,serif" font-size="9.00">wz</text>
</g>
<!-- ext&#45;&gt;wz -->
<g id="edge35" class="edge"><title>ext&#45;&gt;wz</title>
<path fill="none" stroke="green" stroke-width="0.409399" d="M519.308,-628.215C474.328,-615.353 330.489,-574.222 269.147,-556.682"/>
<polygon fill="green" stroke="green" stroke-width="0.409399" points="269.941,-553.269 259.364,-553.884 268.017,-559.999 269.941,-553.269"/>
</g>
<!-- 124 -->
<g id="node20" class="node"><title>124</title>
<ellipse fill="white" stroke="black" cx="311" cy="-289.019" rx="21.4286" ry="21.4286"/>
<text text-anchor="middle" x="311" y="-286.819" font-family="Times,serif" font-size="9.00">124</text>
</g>
<!-- ext&#45;&gt;124 -->
<g id="edge15" class="edge"><title>ext&#45;&gt;124</title>
<path fill="none" stroke="green" stroke-width="0.151661" d="M530.651,-624.13C525.049,-605.625 509.876,-558.709 490,-522.884 443.365,-438.829 368.349,-352.295 332.038,-312.512"/>
<polygon fill="green" stroke="green" stroke-width="0.151661" points="334.45,-309.965 325.106,-304.971 329.297,-314.702 334.45,-309.965"/>
</g>
<!-- eyt -->
<g id="node2" class="node"><title>eyt</title>
<polygon fill="lightgray" stroke="black" points="690.5,-711.879 663.5,-711.879 663.5,-693.879 690.5,-693.879 690.5,-711.879"/>
<text text-anchor="middle" x="677" y="-700.679" font-family="Times,serif" font-size="9.00">eyt</text>
</g>
<!-- eyt&#45;&gt;ux -->
<g id="edge2" class="edge"><title>eyt&#45;&gt;ux</title>
<path fill="none" stroke="green" stroke-width="0.186" stroke-dasharray="1,5" d="M690.559,-701.241C739.923,-698.689 909.436,-687.869 953,-657.879 999.167,-626.098 1016,-604.682 1016,-548.633 1016,-548.633 1016,-548.633 1016,-369.981 1016,-287.244 911.345,-235.25 860.756,-214.95"/>
<polygon fill="green" stroke="green" stroke-width="0.186" points="861.711,-211.566 851.122,-211.206 859.175,-218.09 861.711,-211.566"/>
</g>
<!-- eyt&#45;&gt;uy -->
<g id="edge22" class="edge"><title>eyt&#45;&gt;uy</title>
<path fill="none" stroke="green" stroke-width="0.392586" d="M690.711,-697.534C707.029,-691.537 733.509,-679.001 745,-657.879 811.972,-534.775 740.303,-479.518 697,-346.233 685.368,-310.429 687.513,-297.978 665,-267.806 650.371,-248.2 628.215,-231.219 611.25,-219.912"/>
<polygon fill="green" stroke="green" stroke-width="0.392586" points="612.742,-216.71 602.44,-214.235 608.95,-222.594 612.742,-216.71"/>
</g>
<!-- eyt&#45;&gt;wz -->
<g id="edge7" class="edge"><title>eyt&#45;&gt;wz</title>
<path fill="none" stroke="red" stroke-width="0.264733" d="M663.252,-701.344C607.895,-698.995 401.577,-688.322 345,-657.879 319.338,-644.071 321.981,-629.594 302,-608.382 289.16,-594.75 274.138,-580.022 262.214,-568.6"/>
<polygon fill="red" stroke="red" stroke-width="0.264733" points="264.535,-565.978 254.88,-561.616 259.708,-571.047 264.535,-565.978"/>
</g>
<!-- 4073 -->
<g id="node12" class="node"><title>4073</title>
<ellipse fill="white" stroke="black" cx="268" cy="-633.131" rx="25" ry="25"/>
<text text-anchor="middle" x="268" y="-630.931" font-family="Times,serif" font-size="9.00">4073</text>
</g>
<!-- eyt&#45;&gt;4073 -->
<g id="edge51" class="edge"><title>eyt&#45;&gt;4073</title>
<path fill="none" stroke="green" stroke-width="0.151531" d="M663.435,-702.311C614.079,-703.46 439.984,-703.826 307,-657.879 303.497,-656.669 299.973,-655.109 296.552,-653.367"/>
<polygon fill="green" stroke="green" stroke-width="0.151531" points="298.254,-650.308 287.824,-648.446 294.817,-656.406 298.254,-650.308"/>
</g>
<!-- 4310 -->
<g id="node17" class="node"><title>4310</title>
<ellipse fill="white" stroke="black" cx="963" cy="-547.633" rx="25" ry="25"/>
<text text-anchor="middle" x="963" y="-545.433" font-family="Times,serif" font-size="9.00">4310</text>
</g>
<!-- eyt&#45;&gt;4310 -->
<g id="edge19" class="edge"><title>eyt&#45;&gt;4310</title>
<path fill="none" stroke="red" stroke-width="0.107641" d="M690.576,-701.217C736.934,-698.697 888.084,-688.26 924,-657.879 946.064,-639.216 955.647,-607.149 959.808,-582.57"/>
<polygon fill="red" stroke="red" stroke-width="0.107641" points="963.288,-582.958 961.28,-572.555 956.363,-581.94 963.288,-582.958"/>
</g>
<!-- 251 -->
<g id="node19" class="node"><title>251</title>
<ellipse fill="white" stroke="black" cx="677" cy="-547.633" rx="21.4286" ry="21.4286"/>
<text text-anchor="middle" x="677" y="-545.433" font-family="Times,serif" font-size="9.00">251</text>
</g>
<!-- eyt&#45;&gt;251 -->
<g id="edge46" class="edge"><title>eyt&#45;&gt;251</title>
<path fill="none" stroke="green" stroke-width="0.475771" stroke-dasharray="1,5" d="M677,-693.64C677,-672.456 677,-615.242 677,-579.338"/>
<polygon fill="green" stroke="green" stroke-width="0.475771" points="680.5,-578.943 677,-568.943 673.5,-578.943 680.5,-578.943"/>
</g>
<!-- eyt&#45;&gt;124 -->
<g id="edge56" class="edge"><title>eyt&#45;&gt;124</title>
<path fill="none" stroke="green" stroke-width="0.245759" d="M663.219,-701.672C610.538,-700.61 422.612,-694.291 378,-657.879 330.055,-618.747 294.397,-456.738 284,-395.73 280.304,-374.044 279.116,-367.682 284,-346.233 286.319,-336.047 290.726,-325.555 295.316,-316.433"/>
<polygon fill="green" stroke="green" stroke-width="0.245759" points="298.466,-317.964 300.087,-307.494 292.291,-314.668 298.466,-317.964"/>
</g>
<!-- sf -->
<g id="node3" class="node"><title>sf</title>
<polygon fill="lightgray" stroke="black" points="150.5,-711.879 127.5,-711.879 127.5,-693.879 150.5,-693.879 150.5,-711.879"/>
<text text-anchor="middle" x="139" y="-700.679" font-family="Times,serif" font-size="9.00">sf</text>
</g>
<!-- sf&#45;&gt;ux -->
<g id="edge54" class="edge"><title>sf&#45;&gt;ux</title>
<path fill="none" stroke="green" stroke-width="0.388877" d="M150.666,-701.008C170.471,-699.531 211.935,-696.445 247,-693.879 357.66,-685.781 642.43,-700.194 745,-657.879 813.827,-629.485 872,-623.087 872,-548.633 872,-548.633 872,-548.633 872,-369.981 872,-319.92 855.136,-263.442 843.876,-231.313"/>
<polygon fill="green" stroke="green" stroke-width="0.388877" points="847.124,-230.002 840.446,-221.777 840.537,-232.371 847.124,-230.002"/>
</g>
<!-- sf&#45;&gt;uy -->
<g id="edge37" class="edge"><title>sf&#45;&gt;uy</title>
<path fill="none" stroke="red" stroke-width="0.183782" d="M138.378,-693.836C136.049,-657.575 131.572,-507.777 209,-431.73 257.913,-383.689 298.616,-428.198 359,-395.73 432.372,-356.278 431.055,-319.979 496,-267.806 517.838,-250.263 544.387,-232.363 563.158,-220.227"/>
<polygon fill="red" stroke="red" stroke-width="0.183782" points="565.162,-223.1 571.694,-214.759 561.386,-217.206 565.162,-223.1"/>
</g>
<!-- sf&#45;&gt;wz -->
<g id="edge20" class="edge"><title>sf&#45;&gt;wz</title>
<path fill="none" stroke="green" stroke-width="0.137053" d="M144.484,-693.64C159.45,-671.155 201.434,-608.077 224.797,-572.977"/>
<polygon fill="green" stroke="green" stroke-width="0.137053" points="227.954,-574.55 230.581,-564.286 222.127,-570.672 227.954,-574.55"/>
</g>
<!-- sf&#45;&gt;4073 -->
<g id="edge34" class="edge"><title>sf&#45;&gt;4073</title>
<path fill="none" stroke="red" stroke-width="0.465399" d="M150.905,-695.627C170.406,-685.385 209.755,-664.72 237.44,-650.18"/>
<polygon fill="red" stroke="red" stroke-width="0.465399" points="239.11,-653.257 246.336,-645.508 235.855,-647.059 239.11,-653.257"/>
</g>
<!-- sf&#45;&gt;124 -->
<g id="edge30" class="edge"><title>sf&#45;&gt;124</title>
<path fill="none" stroke="red" stroke-width="0.116371" d="M127.149,-696.12C93.5349,-678.862 0,-624.063 0,-548.633 0,-548.633 0,-548.633 0,-458.307 0,-332.246 200.095,-300.141 279.285,-292.372"/>
<polygon fill="red" stroke="red" stroke-width="0.116371" points="279.983,-295.823 289.624,-291.43 279.347,-288.852 279.983,-295.823"/>
</g>
<!-- sl -->
<g id="node4" class="node"><title>sl</title>
<polygon fill="lightgray" stroke="black" points="279.5,-711.879 256.5,-711.879 256.5,-693.879 279.5,-693.879 279.5,-711.879"/>
<text text-anchor="middle" x="268" y="-700.679" font-family="Times,serif" font-size="9.00">sl</text>
</g>
<!-- sl&#45;&gt;ux -->
<g id="edge42" class="edge"><title>sl&#45;&gt;ux</title>
<path fill="none" stroke="green" stroke-width="0.100126" d="M279.593,-701.873C360.453,-701.72 838.345,-699.074 886,-657.879 923.608,-625.37 910,-598.345 910,-548.633 910,-548.633 910,-548.633 910,-369.981 910,-323.334 906.794,-309.562 886,-267.806 878.019,-251.779 865.194,-236.283 854.278,-224.72"/>
<polygon fill="green" stroke="green" stroke-width="0.100126" points="856.601,-222.09 847.108,-217.385 851.595,-226.983 856.601,-222.09"/>
</g>
<!-- sl&#45;&gt;uy -->
<g id="edge47" class="edge"><title>sl&#45;&gt;uy</title>
<path fill="none" stroke="green" stroke-width="1.14764" d="M279.801,-701.901C328.923,-701.731 516.415,-698.401 555,-657.879 669.151,-538.001 617.476,-309.974 595.285,-232.086"/>
<polygon fill="green" stroke="green" stroke-width="1.14764" points="598.537,-230.734 592.37,-222.119 591.818,-232.699 598.537,-230.734"/>
</g>
<!-- sl&#45;&gt;wz -->
<g id="edge4" class="edge"><title>sl&#45;&gt;wz</title>
<path fill="none" stroke="red" stroke-width="0.123803" stroke-dasharray="1,5" d="M259.033,-693.818C250.724,-685.692 238.927,-672.314 234,-657.879 224.884,-631.173 228.698,-598.694 233.509,-576.124"/>
<polygon fill="red" stroke="red" stroke-width="0.123803" points="236.959,-576.742 235.823,-566.208 230.142,-575.151 236.959,-576.742"/>
</g>
<!-- sl&#45;&gt;4073 -->
<g id="edge52" class="edge"><title>sl&#45;&gt;4073</title>
<path fill="none" stroke="green" stroke-width="0.564245" d="M268,-693.842C268,-687.406 268,-677.909 268,-668.372"/>
<polygon fill="green" stroke="green" stroke-width="0.564245" points="271.5,-668.152 268,-658.152 264.5,-668.152 271.5,-668.152"/>
</g>
<!-- sl&#45;&gt;124 -->
<g id="edge1" class="edge"><title>sl&#45;&gt;124</title>
<path fill="none" stroke="red" stroke-width="0.209978" d="M256.941,-693.76C246.94,-685.785 232.644,-672.685 225,-657.879 161.141,-534.199 119.891,-464.057 194,-346.233 212.725,-316.462 252.101,-302.098 279.991,-295.42"/>
<polygon fill="red" stroke="red" stroke-width="0.209978" points="281.029,-298.776 290.05,-293.221 279.534,-291.938 281.029,-298.776"/>
</g>
<!-- sr -->
<g id="node5" class="node"><title>sr</title>
<polygon fill="lightgray" stroke="black" points="410.5,-642.131 387.5,-642.131 387.5,-624.131 410.5,-624.131 410.5,-642.131"/>
<text text-anchor="middle" x="399" y="-630.931" font-family="Times,serif" font-size="9.00">sr</text>
</g>
<!-- sr&#45;&gt;ux -->
<g id="edge28" class="edge"><title>sr&#45;&gt;ux</title>
<path fill="none" stroke="red" stroke-width="0.190564" stroke-dasharray="1,5" d="M405.316,-623.909C419.699,-605.332 456.265,-558.929 490,-522.884 602.365,-402.827 634.893,-376.822 758,-267.806 775.814,-252.031 796.729,-234.907 812.104,-222.566"/>
<polygon fill="red" stroke="red" stroke-width="0.190564" points="814.393,-225.218 820.021,-216.242 810.023,-219.749 814.393,-225.218"/>
</g>
<!-- sr&#45;&gt;uy -->
<g id="edge13" class="edge"><title>sr&#45;&gt;uy</title>
<path fill="none" stroke="red" stroke-width="0.451342" d="M400.805,-623.968C409.96,-582.868 451.852,-398.504 478,-346.233 501.835,-298.585 542.919,-251.243 567.265,-225.352"/>
<polygon fill="red" stroke="red" stroke-width="0.451342" points="569.879,-227.682 574.245,-218.029 564.812,-222.852 569.879,-227.682"/>
</g>
<!-- sr&#45;&gt;wz -->
<g id="edge44" class="edge"><title>sr&#45;&gt;wz</title>
<path fill="none" stroke="green" stroke-width="0.26074" d="M387.382,-625.991C362.107,-612.634 301.611,-580.664 266.815,-562.276"/>
<polygon fill="green" stroke="green" stroke-width="0.26074" points="268.21,-559.054 257.734,-557.476 264.94,-565.243 268.21,-559.054"/>
</g>
<!-- 165 -->
<g id="node11" class="node"><title>165</title>
<ellipse fill="white" stroke="black" cx="389" cy="-459.307" rx="21.4286" ry="21.4286"/>
<text text-anchor="middle" x="389" y="-457.107" font-family="Times,serif" font-size="9.00">165</text>
</g>
<!-- sr&#45;&gt;165 -->
<g id="edge45" class="edge"><title>sr&#45;&gt;165</title>
<path fill="none" stroke="green" stroke-width="0.158811" d="M398.518,-623.843C397.139,-600.151 393.129,-531.247 390.777,-490.836"/>
<polygon fill="green" stroke="green" stroke-width="0.158811" points="394.264,-490.517 390.189,-480.737 387.276,-490.924 394.264,-490.517"/>
</g>
<!-- sr&#45;&gt;124 -->
<g id="edge59" class="edge"><title>sr&#45;&gt;124</title>
<path fill="none" stroke="red" stroke-width="0.160081" stroke-dasharray="1,5" d="M396.281,-623.824C386.972,-595.841 354.804,-502.79 316,-431.73 306.664,-414.633 296.822,-414.319 291,-395.73 282.952,-370.033 290.312,-339.753 298.277,-318.202"/>
<polygon fill="red" stroke="red" stroke-width="0.160081" points="301.623,-319.259 302.049,-308.672 295.114,-316.683 301.623,-319.259"/>
</g>
<!-- &#45;6 -->
<g id="node6" class="node"><title>&#45;6</title>
<polygon fill="lightgray" stroke="black" points="736,-642.131 712,-642.131 712,-624.131 736,-624.131 736,-642.131"/>
<text text-anchor="middle" x="724" y="-630.931" font-family="Times,serif" font-size="9.00">&#45;6</text>
</g>
<!-- &#45;6&#45;&gt;ux -->
<g id="edge16" class="edge"><title>&#45;6&#45;&gt;ux</title>
<path fill="none" stroke="red" stroke-width="0.241114" d="M734.151,-624.044C761.383,-601.365 834,-533.98 834,-460.307 834,-460.307 834,-460.307 834,-369.981 834,-321.926 834,-265.987 834,-233.209"/>
<polygon fill="red" stroke="red" stroke-width="0.241114" points="837.5,-233.026 834,-223.026 830.5,-233.026 837.5,-233.026"/>
</g>
<!-- &#45;6&#45;&gt;uy -->
<g id="edge32" class="edge"><title>&#45;6&#45;&gt;uy</title>
<path fill="none" stroke="red" stroke-width="0.235334" d="M723.716,-623.889C721.992,-582.839 710.503,-397.262 641,-267.806 632.396,-251.781 619.075,-236.284 607.816,-224.721"/>
<polygon fill="red" stroke="red" stroke-width="0.235334" points="609.995,-221.952 600.435,-217.386 605.061,-226.918 609.995,-221.952"/>
</g>
<!-- &#45;6&#45;&gt;wz -->
<g id="edge55" class="edge"><title>&#45;6&#45;&gt;wz</title>
<path fill="none" stroke="red" stroke-width="0.459768" d="M711.575,-629.983C648.37,-619.056 361.935,-569.539 269.706,-553.596"/>
<polygon fill="red" stroke="red" stroke-width="0.459768" points="270.14,-550.119 259.69,-551.864 268.948,-557.016 270.14,-550.119"/>
</g>
<!-- &#45;6&#45;&gt;4310 -->
<g id="edge3" class="edge"><title>&#45;6&#45;&gt;4310</title>
<path fill="none" stroke="green" stroke-width="0.365288" d="M736.181,-627.875C771.748,-615.449 876.331,-578.912 930.161,-560.106"/>
<polygon fill="green" stroke="green" stroke-width="0.365288" points="931.618,-563.304 939.904,-556.702 929.309,-556.696 931.618,-563.304"/>
</g>
<!-- &#45;6&#45;&gt;251 -->
<g id="edge14" class="edge"><title>&#45;6&#45;&gt;251</title>
<path fill="none" stroke="green" stroke-width="0.108263" d="M719.493,-624.124C713.251,-613.035 701.668,-592.458 692.171,-575.584"/>
<polygon fill="green" stroke="green" stroke-width="0.108263" points="695.111,-573.673 687.156,-566.675 689.011,-577.106 695.111,-573.673"/>
</g>
<!-- ux&#45;&gt;ux -->
<g id="edge31" class="edge"><title>ux&#45;&gt;ux</title>
<path fill="none" stroke="red" stroke-width="0.365724" stroke-dasharray="1,5" d="M847.056,-217.38C858.393,-223.378 870.385,-218.995 870.385,-204.229 870.385,-193.847 864.456,-188.598 856.995,-188.481"/>
<polygon fill="red" stroke="red" stroke-width="0.365724" points="855.847,-185.164 847.056,-191.078 857.617,-191.936 855.847,-185.164"/>
</g>
<!-- uy&#45;&gt;uy -->
<g id="edge27" class="edge"><title>uy&#45;&gt;uy</title>
<path fill="none" stroke="green" stroke-width="0.163627" d="M600.056,-217.38C611.393,-223.378 623.385,-218.995 623.385,-204.229 623.385,-193.847 617.456,-188.598 609.995,-188.481"/>
<polygon fill="green" stroke="green" stroke-width="0.163627" points="608.847,-185.164 600.056,-191.078 610.617,-191.936 608.847,-185.164"/>
</g>
<!-- wz&#45;&gt;wz -->
<g id="edge53" class="edge"><title>wz&#45;&gt;wz</title>
<path fill="none" stroke="green" stroke-width="0.374386" d="M254.696,-560.98C266.137,-566.684 278.092,-562.235 278.092,-547.633 278.092,-537.252 272.049,-532.003 264.445,-531.885"/>
<polygon fill="green" stroke="green" stroke-width="0.374386" points="263.568,-528.496 254.696,-534.286 265.243,-535.293 263.568,-528.496"/>
</g>
<!-- wz&#45;&gt;165 -->
<g id="edge58" class="edge"><title>wz&#45;&gt;165</title>
<path fill="none" stroke="green" stroke-width="0.102726" d="M257.12,-537.23C282.377,-522.498 331.55,-493.817 362.194,-475.943"/>
<polygon fill="green" stroke="green" stroke-width="0.102726" points="364.188,-478.832 371.063,-470.77 360.661,-472.785 364.188,-478.832"/>
</g>
<!-- 10387 -->
<g id="node15" class="node"><title>10387</title>
<ellipse fill="white" stroke="black" cx="246" cy="-459.307" rx="27.6545" ry="27.6545"/>
<text text-anchor="middle" x="246" y="-457.107" font-family="Times,serif" font-size="9.00">10387</text>
</g>
<!-- wz&#45;&gt;10387 -->
<g id="edge43" class="edge"><title>wz&#45;&gt;10387</title>
<path fill="none" stroke="green" stroke-width="0.34073" d="M236.443,-528.746C236.006,-519.294 236.342,-507.344 237.266,-496.085"/>
<polygon fill="green" stroke="green" stroke-width="0.34073" points="240.759,-496.33 238.276,-486.031 233.794,-495.631 240.759,-496.33"/>
</g>
<!-- 7556 -->
<g id="node10" class="node"><title>7556</title>
<ellipse fill="white" stroke="black" cx="373" cy="-204.229" rx="25" ry="25"/>
<text text-anchor="middle" x="373" y="-202.029" font-family="Times,serif" font-size="9.00">7556</text>
</g>
<!-- 3673 -->
<g id="node18" class="node"><title>3673</title>
<ellipse fill="white" stroke="black" cx="373" cy="-113.075" rx="25" ry="25"/>
<text text-anchor="middle" x="373" y="-110.875" font-family="Times,serif" font-size="9.00">3673</text>
</g>
<!-- 7556&#45;&gt;3673 -->
<g id="edge5" class="edge"><title>7556&#45;&gt;3673</title>
<path fill="none" stroke="green" stroke-width="0.541621" d="M373,-179.337C373,-169.743 373,-158.507 373,-148.088"/>
<polygon fill="green" stroke="green" stroke-width="0.541621" points="376.5,-148.032 373,-138.032 369.5,-148.032 376.5,-148.032"/>
</g>
<!-- 165&#45;&gt;ux -->
<g id="edge41" class="edge"><title>165&#45;&gt;ux</title>
<path fill="none" stroke="red" stroke-width="0.177414" d="M399.106,-440.363C413.657,-415.983 442.683,-372.439 478,-346.233 584.987,-266.844 742.636,-225.34 806.062,-211.058"/>
<polygon fill="red" stroke="red" stroke-width="0.177414" points="807.081,-214.418 816.095,-208.851 805.577,-207.581 807.081,-214.418"/>
</g>
<!-- 3442 -->
<g id="node14" class="node"><title>3442</title>
<ellipse fill="white" stroke="black" cx="325" cy="-370.981" rx="25" ry="25"/>
<text text-anchor="middle" x="325" y="-368.781" font-family="Times,serif" font-size="9.00">3442</text>
</g>
<!-- 165&#45;&gt;3442 -->
<g id="edge18" class="edge"><title>165&#45;&gt;3442</title>
<path fill="none" stroke="green" stroke-width="0.249307" d="M376.66,-441.663C367.817,-429.734 355.702,-413.393 345.427,-399.534"/>
<polygon fill="green" stroke="green" stroke-width="0.249307" points="348.08,-397.236 339.313,-391.287 342.457,-401.405 348.08,-397.236"/>
</g>
<!-- 4073&#45;&gt;wz -->
<g id="edge33" class="edge"><title>4073&#45;&gt;wz</title>
<path fill="none" stroke="red" stroke-width="0.784703" d="M260.622,-609.315C257.285,-598.996 253.316,-586.719 249.823,-575.917"/>
<polygon fill="red" stroke="red" stroke-width="0.784703" points="253.063,-574.562 246.656,-566.124 246.403,-576.716 253.063,-574.562"/>
</g>
<!-- 10286 -->
<g id="node13" class="node"><title>10286</title>
<ellipse fill="white" stroke="black" cx="246" cy="-204.229" rx="27.6545" ry="27.6545"/>
<text text-anchor="middle" x="246" y="-202.029" font-family="Times,serif" font-size="9.00">10286</text>
</g>
<!-- 10102 -->
<g id="node16" class="node"><title>10102</title>
<ellipse fill="white" stroke="black" cx="275" cy="-113.075" rx="27.6545" ry="27.6545"/>
<text text-anchor="middle" x="275" y="-110.875" font-family="Times,serif" font-size="9.00">10102</text>
</g>
<!-- 10286&#45;&gt;10102 -->
<g id="edge25" class="edge"><title>10286&#45;&gt;10102</title>
<path fill="none" stroke="green" stroke-width="0.159834" d="M254.388,-177.442C257.268,-168.587 260.543,-158.521 263.62,-149.06"/>
<polygon fill="green" stroke="green" stroke-width="0.159834" points="266.966,-150.088 266.731,-139.496 260.309,-147.923 266.966,-150.088"/>
</g>
<!-- 3442&#45;&gt;124 -->
<g id="edge6" class="edge"><title>3442&#45;&gt;124</title>
<path fill="none" stroke="green" stroke-width="0.160112" d="M315.084,-348.131C312.907,-339.531 310.994,-329.51 309.723,-320.235"/>
<polygon fill="green" stroke="green" stroke-width="0.160112" points="313.189,-319.737 308.58,-310.197 306.233,-320.529 313.189,-319.737"/>
</g>
<!-- 10387&#45;&gt;wz -->
<g id="edge38" class="edge"><title>10387&#45;&gt;wz</title>
<path fill="none" stroke="green" stroke-width="0.390937" d="M250.746,-486.51C250.771,-496.995 250.087,-509.068 248.874,-519.632"/>
<polygon fill="green" stroke="green" stroke-width="0.390937" points="245.402,-519.191 247.492,-529.578 252.335,-520.155 245.402,-519.191"/>
</g>
<!-- 10102&#45;&gt;124 -->
<g id="edge24" class="edge"><title>10102&#45;&gt;124</title>
<path fill="none" stroke="red" stroke-width="0.2068" d="M285.059,-138.997C293.864,-170.268 305.082,-223.868 309.971,-257.545"/>
<polygon fill="red" stroke="red" stroke-width="0.2068" points="306.537,-258.274 311.324,-267.725 313.476,-257.351 306.537,-258.274"/>
</g>
<!-- 7647 -->
<g id="node21" class="node"><title>7647</title>
<ellipse fill="white" stroke="black" cx="190" cy="-24.7487" rx="25" ry="25"/>
<text text-anchor="middle" x="190" y="-22.5487" font-family="Times,serif" font-size="9.00">7647</text>
</g>
<!-- 10102&#45;&gt;7647 -->
<g id="edge26" class="edge"><title>10102&#45;&gt;7647</title>
<path fill="none" stroke="green" stroke-width="0.263043" d="M256.136,-92.9161C243.756,-80.3428 227.452,-63.7848 214.13,-50.2551"/>
<polygon fill="green" stroke="green" stroke-width="0.263043" points="216.59,-47.7647 207.08,-43.0948 211.602,-52.676 216.59,-47.7647"/>
</g>
<!-- 4310&#45;&gt;ux -->
<g id="edge10" class="edge"><title>4310&#45;&gt;ux</title>
<path fill="none" stroke="red" stroke-width="0.150213" d="M965.705,-522.878C970.293,-471.963 974.676,-350.258 924,-267.806 909.118,-243.592 880.969,-226.333 860.098,-216.155"/>
<polygon fill="red" stroke="red" stroke-width="0.150213" points="861.356,-212.88 850.811,-211.852 858.413,-219.232 861.356,-212.88"/>
</g>
<!-- 3673&#45;&gt;wz -->
<g id="edge23" class="edge"><title>3673&#45;&gt;wz</title>
<path fill="none" stroke="red" stroke-width="0.443696" d="M350.857,-124.197C339.353,-129.334 325.014,-135.551 312,-140.652 266.851,-158.349 245.554,-144.786 209,-176.652 167.087,-213.19 152,-232.416 152,-288.019 152,-371.981 152,-371.981 152,-371.981 152,-432.899 195.515,-494.017 221.69,-525.271"/>
<polygon fill="red" stroke="red" stroke-width="0.443696" points="219.08,-527.604 228.248,-532.913 224.392,-523.045 219.08,-527.604"/>
</g>
<!-- 251&#45;&gt;uy -->
<g id="edge39" class="edge"><title>251&#45;&gt;uy</title>
<path fill="none" stroke="green" stroke-width="0.2614" d="M674.869,-526.502C669.509,-479.875 653.444,-361.317 620,-267.806 615.218,-254.434 608.023,-240.376 601.572,-228.979"/>
<polygon fill="green" stroke="green" stroke-width="0.2614" points="604.457,-226.98 596.396,-220.105 598.411,-230.507 604.457,-226.98"/>
</g>
<!-- 124&#45;&gt;ux -->
<g id="edge8" class="edge"><title>124&#45;&gt;ux</title>
<path fill="none" stroke="green" stroke-width="0.230317" d="M331.825,-284.723C413.513,-271.792 712.161,-224.516 805.754,-209.7"/>
<polygon fill="green" stroke="green" stroke-width="0.230317" points="806.551,-213.118 815.88,-208.097 805.456,-206.204 806.551,-213.118"/>
</g>
<!-- 124&#45;&gt;uy -->
<g id="edge57" class="edge"><title>124&#45;&gt;uy</title>
<path fill="none" stroke="green" stroke-width="0.165801" d="M330.48,-280.104C340.432,-276.185 352.779,-271.512 364,-267.806 433.519,-244.848 516.951,-222.893 559.341,-212.127"/>
<polygon fill="green" stroke="green" stroke-width="0.165801" points="560.362,-215.479 569.201,-209.637 558.648,-208.692 560.362,-215.479"/>
</g>
<!-- 124&#45;&gt;wz -->
<g id="edge50" class="edge"><title>124&#45;&gt;wz</title>
<path fill="none" stroke="red" stroke-width="0.699466" stroke-dasharray="1,5" d="M290.973,-296.517C269.608,-304.573 236.604,-320.481 220,-346.233 186.021,-398.931 193.739,-426.067 209,-486.884 212.19,-499.596 218.661,-512.556 224.954,-523.142"/>
<polygon fill="red" stroke="red" stroke-width="0.699466" points="222.081,-525.148 230.352,-531.768 228.015,-521.435 222.081,-525.148"/>
</g>
<!-- 124&#45;&gt;7556 -->
<g id="edge49" class="edge"><title>124&#45;&gt;7556</title>
<path fill="none" stroke="green" stroke-width="0.316868" d="M323.249,-271.663C331.587,-260.53 342.822,-245.526 352.507,-232.594"/>
<polygon fill="green" stroke="green" stroke-width="0.316868" points="355.408,-234.559 358.601,-224.457 349.805,-230.363 355.408,-234.559"/>
</g>
<!-- 124&#45;&gt;10286 -->
<g id="edge40" class="edge"><title>124&#45;&gt;10286</title>
<path fill="none" stroke="green" stroke-width="0.437096" d="M298.158,-271.663C289.842,-261.071 278.776,-246.975 268.977,-234.494"/>
<polygon fill="green" stroke="green" stroke-width="0.437096" points="271.69,-232.282 262.762,-226.578 266.184,-236.605 271.69,-232.282"/>
</g>
<!-- 124&#45;&gt;3442 -->
<g id="edge29" class="edge"><title>124&#45;&gt;3442</title>
<path fill="none" stroke="green" stroke-width="0.115837" d="M320.003,-308.4C322.252,-316.598 324.29,-326.528 325.732,-335.998"/>
<polygon fill="green" stroke="green" stroke-width="0.115837" points="322.272,-336.531 327.045,-345.99 329.212,-335.619 322.272,-336.531"/>
</g>
<!-- 124&#45;&gt;10102 -->
<g id="edge36" class="edge"><title>124&#45;&gt;10102</title>
<path fill="none" stroke="green" stroke-width="0.361729" stroke-dasharray="1,5" d="M302.777,-269.404C294.277,-241.246 282.683,-187.263 276.997,-150.954"/>
<polygon fill="green" stroke="green" stroke-width="0.361729" points="280.415,-150.142 275.495,-140.76 273.49,-151.163 280.415,-150.142"/>
</g>
<!-- 124&#45;&gt;3673 -->
<g id="edge9" class="edge"><title>124&#45;&gt;3673</title>
<path fill="none" stroke="red" stroke-width="0.196299" stroke-dasharray="1,5" d="M330.355,-279.5C355.861,-267.831 398.499,-246.635 407,-231.806 423.209,-203.532 407.845,-166.94 392.89,-142.108"/>
<polygon fill="red" stroke="red" stroke-width="0.196299" points="395.765,-140.106 387.458,-133.529 389.85,-143.851 395.765,-140.106"/>
</g>
<!-- 124&#45;&gt;124 -->
<g id="edge17" class="edge"><title>124&#45;&gt;124</title>
<path fill="none" stroke="green" stroke-width="0.546647" stroke-dasharray="1,5" d="M327.52,-302.554C338.955,-306.656 350.213,-302.144 350.213,-289.019 350.213,-279.996 344.892,-275.044 337.85,-274.162"/>
<polygon fill="green" stroke="green" stroke-width="0.546647" points="336.995,-270.743 327.52,-275.484 337.884,-277.687 336.995,-270.743"/>
</g>
<!-- 124&#45;&gt;7647 -->
<g id="edge48" class="edge"><title>124&#45;&gt;7647</title>
<path fill="none" stroke="green" stroke-width="0.203663" d="M290.574,-282.987C266.627,-275.919 227.824,-260.567 209,-231.806 174.74,-179.46 178.298,-102.981 184.077,-59.424"/>
<polygon fill="green" stroke="green" stroke-width="0.203663" points="187.566,-59.7509 185.531,-49.3532 180.638,-58.7501 187.566,-59.7509"/>
</g>
<!-- 7647&#45;&gt;wz -->
<g id="edge21" class="edge"><title>7647&#45;&gt;wz</title>
<path fill="none" stroke="red" stroke-width="0.528642" d="M171.175,-41.1815C138.796,-69.5879 76,-133.648 76,-203.229 76,-371.981 76,-371.981 76,-371.981 76,-451.814 168.221,-509.895 214.773,-534.129"/>
<polygon fill="red" stroke="red" stroke-width="0.528642" points="213.461,-537.387 223.964,-538.781 216.623,-531.142 213.461,-537.387"/>
</g>
</g>
</svg>
