<?xml version="1.0" encoding="UTF-8" standalone="no"?>
<!DOCTYPE svg PUBLIC "-//W3C//DTD SVG 1.1//EN"
 "http://www.w3.org/Graphics/SVG/1.1/DTD/svg11.dtd">
<!-- Generated by graphviz version 2.38.0 (20140413.2041)
 -->
<!-- Title: %3 Pages: 1 -->
<svg width="817pt" height="641pt"
 viewBox="0.00 0.00 817.44 641.45" xmlns="http://www.w3.org/2000/svg" xmlns:xlink="http://www.w3.org/1999/xlink">
<g id="graph0" class="graph" transform="scale(1 1) rotate(0) translate(4 637.453)">
<title>%3</title>
<polygon fill="white" stroke="none" points="-4,4 -4,-637.453 813.437,-637.453 813.437,4 -4,4"/>
<!-- ext -->
<g id="node1" class="node"><title>ext</title>
<polygon fill="lightgray" stroke="black" points="279.937,-633.453 252.937,-633.453 252.937,-615.453 279.937,-615.453 279.937,-633.453"/>
<text text-anchor="middle" x="266.437" y="-622.253" font-family="Times,serif" font-size="9.00">ext</text>
</g>
<!-- ux -->
<g id="node6" class="node"><title>ux</title>
<ellipse fill="lightblue" stroke="black" cx="507.437" cy="-190.087" rx="18.2703" ry="18.2703"/>
<text text-anchor="middle" x="507.437" y="-187.887" font-family="Times,serif" font-size="9.00">ux</text>
</g>
<!-- ext&#45;&gt;ux -->
<g id="edge3" class="edge"><title>ext&#45;&gt;ux</title>
<path fill="none" stroke="green" stroke-width="0.683414" stroke-dasharray="1,5" d="M280.097,-622.127C306.778,-618.942 366.674,-608.812 406.437,-579.453 430.384,-561.771 424.273,-546.197 444.437,-524.299 461.552,-505.711 475.561,-510.039 488.437,-488.299 542.706,-396.671 531.822,-356.718 520.437,-250.836 519.266,-239.947 516.927,-228.131 514.553,-217.904"/>
<polygon fill="green" stroke="green" stroke-width="0.683414" points="517.888,-216.808 512.112,-207.926 511.088,-218.471 517.888,-216.808"/>
</g>
<!-- 168 -->
<g id="node14" class="node"><title>168</title>
<ellipse fill="white" stroke="black" cx="67.4367" cy="-551.876" rx="21.4286" ry="21.4286"/>
<text text-anchor="middle" x="67.4367" y="-549.676" font-family="Times,serif" font-size="9.00">168</text>
</g>
<!-- ext&#45;&gt;168 -->
<g id="edge9" class="edge"><title>ext&#45;&gt;168</title>
<path fill="none" stroke="green" stroke-width="0.151907" d="M252.759,-618.602C220.742,-607.247 140.348,-578.734 96.7114,-563.258"/>
<polygon fill="green" stroke="green" stroke-width="0.151907" points="97.8184,-559.937 87.2236,-559.893 95.4785,-566.535 97.8184,-559.937"/>
</g>
<!-- 170 -->
<g id="node16" class="node"><title>170</title>
<ellipse fill="white" stroke="black" cx="203.437" cy="-278.413" rx="21.4286" ry="21.4286"/>
<text text-anchor="middle" x="203.437" y="-276.213" font-family="Times,serif" font-size="9.00">170</text>
</g>
<!-- ext&#45;&gt;170 -->
<g id="edge27" class="edge"><title>ext&#45;&gt;170</title>
<path fill="none" stroke="red" stroke-width="0.336047" stroke-dasharray="1,5" d="M264.942,-615.288C257.322,-573.68 222.646,-384.313 208.988,-309.729"/>
<polygon fill="red" stroke="red" stroke-width="0.336047" points="212.375,-308.795 207.131,-299.589 205.49,-310.056 212.375,-308.795"/>
</g>
<!-- eyt -->
<g id="node2" class="node"><title>eyt</title>
<polygon fill="lightgray" stroke="black" points="123.937,-633.453 96.9367,-633.453 96.9367,-615.453 123.937,-615.453 123.937,-633.453"/>
<text text-anchor="middle" x="110.437" y="-622.253" font-family="Times,serif" font-size="9.00">eyt</text>
</g>
<!-- eyt&#45;&gt;168 -->
<g id="edge34" class="edge"><title>eyt&#45;&gt;168</title>
<path fill="none" stroke="red" stroke-width="0.185422" d="M105.504,-615.357C100.091,-606.472 91.1231,-591.753 83.2509,-578.832"/>
<polygon fill="red" stroke="red" stroke-width="0.185422" points="86.2251,-576.987 78.0331,-570.268 80.2472,-580.629 86.2251,-576.987"/>
</g>
<!-- 169 -->
<g id="node15" class="node"><title>169</title>
<ellipse fill="white" stroke="black" cx="440.437" cy="-460.721" rx="21.4286" ry="21.4286"/>
<text text-anchor="middle" x="440.437" y="-458.521" font-family="Times,serif" font-size="9.00">169</text>
</g>
<!-- eyt&#45;&gt;169 -->
<g id="edge19" class="edge"><title>eyt&#45;&gt;169</title>
<path fill="none" stroke="green" stroke-width="0.266203" d="M114.536,-615.216C125.484,-593.552 155.772,-535.855 173.437,-524.299 260.754,-467.171 309.398,-529.096 405.437,-488.299 409.387,-486.621 413.291,-484.397 416.978,-481.948"/>
<polygon fill="green" stroke="green" stroke-width="0.266203" points="419.12,-484.717 425.109,-475.978 414.977,-479.075 419.12,-484.717"/>
</g>
<!-- 16627 -->
<g id="node20" class="node"><title>16627</title>
<ellipse fill="white" stroke="black" cx="352.437" cy="-101.761" rx="27.6545" ry="27.6545"/>
<text text-anchor="middle" x="352.437" y="-99.5609" font-family="Times,serif" font-size="9.00">16627</text>
</g>
<!-- eyt&#45;&gt;16627 -->
<g id="edge56" class="edge"><title>eyt&#45;&gt;16627</title>
<path fill="none" stroke="red" stroke-width="0.613547" stroke-dasharray="1,5" d="M96.9113,-619.266C80.0676,-613.302 51.7685,-600.665 37.4367,-579.453 7.76432,-535.535 18.4367,-514.724 18.4367,-461.721 18.4367,-461.721 18.4367,-461.721 18.4367,-277.413 18.4367,-144.895 227.459,-112.743 314.795,-105.093"/>
<polygon fill="red" stroke="red" stroke-width="0.613547" points="315.137,-108.577 324.82,-104.276 314.569,-101.6 315.137,-108.577"/>
</g>
<!-- 52285 -->
<g id="node25" class="node"><title>52285</title>
<ellipse fill="white" stroke="black" cx="210.437" cy="-551.876" rx="27.6545" ry="27.6545"/>
<text text-anchor="middle" x="210.437" y="-549.676" font-family="Times,serif" font-size="9.00">52285</text>
</g>
<!-- eyt&#45;&gt;52285 -->
<g id="edge33" class="edge"><title>eyt&#45;&gt;52285</title>
<path fill="none" stroke="green" stroke-width="0.382042" d="M121.908,-615.357C135.94,-605.453 160.246,-588.299 179.843,-574.468"/>
<polygon fill="green" stroke="green" stroke-width="0.382042" points="182.033,-577.206 188.185,-568.58 177.997,-571.487 182.033,-577.206"/>
</g>
<!-- sf -->
<g id="node3" class="node"><title>sf</title>
<polygon fill="lightgray" stroke="black" points="34.9367,-633.453 11.9367,-633.453 11.9367,-615.453 34.9367,-615.453 34.9367,-633.453"/>
<text text-anchor="middle" x="23.4367" y="-622.253" font-family="Times,serif" font-size="9.00">sf</text>
</g>
<!-- sf&#45;&gt;168 -->
<g id="edge17" class="edge"><title>sf&#45;&gt;168</title>
<path fill="none" stroke="green" stroke-width="0.229208" stroke-dasharray="1,5" d="M28.484,-615.357C34.0229,-606.472 43.1994,-591.753 51.2547,-578.832"/>
<polygon fill="green" stroke="green" stroke-width="0.229208" points="54.2734,-580.606 56.5938,-570.268 48.3332,-576.902 54.2734,-580.606"/>
</g>
<!-- sf&#45;&gt;169 -->
<g id="edge7" class="edge"><title>sf&#45;&gt;169</title>
<path fill="none" stroke="green" stroke-width="0.226927" stroke-dasharray="1,5" d="M35.1427,-618.69C50.8184,-611.86 78.8099,-598.029 97.4367,-579.453 117.663,-559.282 106.556,-539.975 130.437,-524.299 233.483,-456.655 291.419,-535.141 405.437,-488.299 409.486,-486.635 413.478,-484.382 417.235,-481.888"/>
<polygon fill="green" stroke="green" stroke-width="0.226927" points="419.526,-484.547 425.493,-475.793 415.369,-478.915 419.526,-484.547"/>
</g>
<!-- sf&#45;&gt;170 -->
<g id="edge46" class="edge"><title>sf&#45;&gt;170</title>
<path fill="none" stroke="green" stroke-width="0.384576" stroke-dasharray="1,5" d="M20.9073,-615.243C10.2293,-578.827 -27.6914,-429.827 37.4367,-341.99 69.0435,-299.362 133.302,-285.768 171.942,-281.436"/>
<polygon fill="green" stroke="green" stroke-width="0.384576" points="172.5,-284.898 182.112,-280.443 171.819,-277.932 172.5,-284.898"/>
</g>
<!-- 30492 -->
<g id="node24" class="node"><title>30492</title>
<ellipse fill="white" stroke="black" cx="74.4367" cy="-369.567" rx="27.6545" ry="27.6545"/>
<text text-anchor="middle" x="74.4367" y="-367.367" font-family="Times,serif" font-size="9.00">30492</text>
</g>
<!-- sf&#45;&gt;30492 -->
<g id="edge42" class="edge"><title>sf&#45;&gt;30492</title>
<path fill="none" stroke="green" stroke-width="0.924667" stroke-dasharray="1,5" d="M24.3036,-615.442C26.1923,-598.523 31.0282,-557.942 37.4367,-524.299 45.1899,-483.596 56.6627,-437.448 64.7738,-406.426"/>
<polygon fill="green" stroke="green" stroke-width="0.924667" points="68.2217,-407.077 67.3854,-396.515 61.4528,-405.293 68.2217,-407.077"/>
</g>
<!-- sl -->
<g id="node4" class="node"><title>sl</title>
<polygon fill="lightgray" stroke="black" points="586.937,-633.453 563.937,-633.453 563.937,-615.453 586.937,-615.453 586.937,-633.453"/>
<text text-anchor="middle" x="575.437" y="-622.253" font-family="Times,serif" font-size="9.00">sl</text>
</g>
<!-- sl&#45;&gt;ux -->
<g id="edge38" class="edge"><title>sl&#45;&gt;ux</title>
<path fill="none" stroke="green" stroke-width="0.551389" stroke-dasharray="1,5" d="M587.284,-622.359C610.817,-619.559 663.736,-610.04 693.437,-579.453 731.935,-539.806 733.437,-516.984 733.437,-461.721 733.437,-461.721 733.437,-461.721 733.437,-368.567 733.437,-310.432 719.763,-289.598 676.437,-250.836 636.013,-214.67 572.295,-200.054 535.74,-194.409"/>
<polygon fill="green" stroke="green" stroke-width="0.551389" points="536.151,-190.932 525.757,-192.987 535.164,-197.862 536.151,-190.932"/>
</g>
<!-- wz -->
<g id="node8" class="node"><title>wz</title>
<ellipse fill="lightblue" stroke="black" cx="567.437" cy="-19.0919" rx="19.1842" ry="19.1842"/>
<text text-anchor="middle" x="567.437" y="-16.8919" font-family="Times,serif" font-size="9.00">wz</text>
</g>
<!-- sl&#45;&gt;wz -->
<g id="edge11" class="edge"><title>sl&#45;&gt;wz</title>
<path fill="none" stroke="green" stroke-width="0.185956" stroke-dasharray="1,5" d="M587.373,-624.059C619.259,-625.027 707.521,-623.354 759.437,-579.453 802.845,-542.745 809.437,-518.57 809.437,-461.721 809.437,-461.721 809.437,-461.721 809.437,-189.087 809.437,-85.9354 659.814,-40.5155 595.867,-25.814"/>
<polygon fill="green" stroke="green" stroke-width="0.185956" points="596.544,-22.3792 586.024,-23.6396 595.034,-29.2144 596.544,-22.3792"/>
</g>
<!-- 52674 -->
<g id="node9" class="node"><title>52674</title>
<ellipse fill="white" stroke="black" cx="631.437" cy="-551.876" rx="27.6545" ry="27.6545"/>
<text text-anchor="middle" x="631.437" y="-549.676" font-family="Times,serif" font-size="9.00">52674</text>
</g>
<!-- sl&#45;&gt;52674 -->
<g id="edge35" class="edge"><title>sl&#45;&gt;52674</title>
<path fill="none" stroke="green" stroke-width="0.179377" d="M581.861,-615.357C588.303,-607.237 598.613,-594.244 608.166,-582.204"/>
<polygon fill="green" stroke="green" stroke-width="0.179377" points="611.128,-584.102 614.602,-574.093 605.644,-579.751 611.128,-584.102"/>
</g>
<!-- 80580 -->
<g id="node10" class="node"><title>80580</title>
<ellipse fill="white" stroke="black" cx="369.437" cy="-551.876" rx="27.6545" ry="27.6545"/>
<text text-anchor="middle" x="369.437" y="-549.676" font-family="Times,serif" font-size="9.00">80580</text>
</g>
<!-- sl&#45;&gt;80580 -->
<g id="edge15" class="edge"><title>sl&#45;&gt;80580</title>
<path fill="none" stroke="green" stroke-width="0.206398" d="M563.849,-619.632C540.979,-612.076 488.434,-594.636 444.437,-579.453 431.454,-574.973 417.243,-569.964 404.716,-565.512"/>
<polygon fill="green" stroke="green" stroke-width="0.206398" points="405.681,-562.141 395.087,-562.083 403.333,-568.735 405.681,-562.141"/>
</g>
<!-- sl&#45;&gt;168 -->
<g id="edge10" class="edge"><title>sl&#45;&gt;168</title>
<path fill="none" stroke="red" stroke-width="0.540405" stroke-dasharray="1,5" d="M563.842,-622.766C515.644,-619.787 326.509,-606.887 173.437,-579.453 147.438,-574.793 118.368,-567.342 97.2557,-561.513"/>
<polygon fill="red" stroke="red" stroke-width="0.540405" points="98.1528,-558.129 87.5793,-558.801 96.2639,-564.87 98.1528,-558.129"/>
</g>
<!-- sl&#45;&gt;169 -->
<g id="edge21" class="edge"><title>sl&#45;&gt;169</title>
<path fill="none" stroke="green" stroke-width="0.471511" stroke-dasharray="1,5" d="M572.04,-615.358C564.325,-597.578 544.139,-554.31 518.437,-524.299 503.382,-506.72 482.855,-490.479 466.637,-478.951"/>
<polygon fill="green" stroke="green" stroke-width="0.471511" points="468.344,-475.875 458.133,-473.052 464.355,-481.627 468.344,-475.875"/>
</g>
<!-- sl&#45;&gt;170 -->
<g id="edge57" class="edge"><title>sl&#45;&gt;170</title>
<path fill="none" stroke="red" stroke-width="0.785264" d="M563.681,-622.774C520.199,-620.049 369.094,-608.611 332.437,-579.453 320.994,-570.351 244.222,-381.076 214.843,-307.922"/>
<polygon fill="red" stroke="red" stroke-width="0.785264" points="217.995,-306.379 211.023,-298.401 211.498,-308.985 217.995,-306.379"/>
</g>
<!-- 53195 -->
<g id="node17" class="node"><title>53195</title>
<ellipse fill="white" stroke="black" cx="481.437" cy="-551.876" rx="27.6545" ry="27.6545"/>
<text text-anchor="middle" x="481.437" y="-549.676" font-family="Times,serif" font-size="9.00">53195</text>
</g>
<!-- sl&#45;&gt;53195 -->
<g id="edge4" class="edge"><title>sl&#45;&gt;53195</title>
<path fill="none" stroke="green" stroke-width="0.251726" d="M564.654,-615.357C551.69,-605.623 529.398,-588.886 511.147,-575.183"/>
<polygon fill="green" stroke="green" stroke-width="0.251726" points="513.193,-572.342 503.094,-569.137 508.99,-577.94 513.193,-572.342"/>
</g>
<!-- 52589 -->
<g id="node19" class="node"><title>52589</title>
<ellipse fill="white" stroke="black" cx="601.437" cy="-369.567" rx="27.6545" ry="27.6545"/>
<text text-anchor="middle" x="601.437" y="-367.367" font-family="Times,serif" font-size="9.00">52589</text>
</g>
<!-- sl&#45;&gt;52589 -->
<g id="edge54" class="edge"><title>sl&#45;&gt;52589</title>
<path fill="none" stroke="red" stroke-width="0.284833" stroke-dasharray="1,5" d="M573.137,-615.283C565.992,-588.546 545.752,-501.458 564.437,-433.144 567.547,-421.773 573.313,-410.369 579.383,-400.47"/>
<polygon fill="red" stroke="red" stroke-width="0.284833" points="582.471,-402.141 584.976,-391.846 576.598,-398.332 582.471,-402.141"/>
</g>
<!-- 52439 -->
<g id="node22" class="node"><title>52439</title>
<ellipse fill="white" stroke="black" cx="567.437" cy="-101.761" rx="27.6545" ry="27.6545"/>
<text text-anchor="middle" x="567.437" y="-99.5609" font-family="Times,serif" font-size="9.00">52439</text>
</g>
<!-- sl&#45;&gt;52439 -->
<g id="edge32" class="edge"><title>sl&#45;&gt;52439</title>
<path fill="none" stroke="red" stroke-width="0.121005" d="M587.249,-623.35C614.993,-622.474 685.021,-616.491 725.437,-579.453 766.853,-541.498 771.437,-517.899 771.437,-461.721 771.437,-461.721 771.437,-461.721 771.437,-277.413 771.437,-189.927 661.834,-136.858 603.303,-114.755"/>
<polygon fill="red" stroke="red" stroke-width="0.121005" points="604.282,-111.386 593.688,-111.229 601.872,-117.958 604.282,-111.386"/>
</g>
<!-- 54009 -->
<g id="node23" class="node"><title>54009</title>
<ellipse fill="white" stroke="black" cx="639.437" cy="-278.413" rx="27.6545" ry="27.6545"/>
<text text-anchor="middle" x="639.437" y="-276.213" font-family="Times,serif" font-size="9.00">54009</text>
</g>
<!-- sl&#45;&gt;54009 -->
<g id="edge26" class="edge"><title>sl&#45;&gt;54009</title>
<path fill="none" stroke="green" stroke-width="0.243056" stroke-dasharray="1,5" d="M587.174,-621.905C607.847,-618.475 650.282,-608.126 668.437,-579.453 721.475,-495.685 680.128,-371.578 655.049,-312.715"/>
<polygon fill="green" stroke="green" stroke-width="0.243056" points="658.239,-311.274 651.03,-303.509 651.823,-314.074 658.239,-311.274"/>
</g>
<!-- sr -->
<g id="node5" class="node"><title>sr</title>
<polygon fill="lightgray" stroke="black" points="328.937,-469.721 305.937,-469.721 305.937,-451.721 328.937,-451.721 328.937,-469.721"/>
<text text-anchor="middle" x="317.437" y="-458.521" font-family="Times,serif" font-size="9.00">sr</text>
</g>
<!-- sr&#45;&gt;ux -->
<g id="edge28" class="edge"><title>sr&#45;&gt;ux</title>
<path fill="none" stroke="green" stroke-width="0.357957" stroke-dasharray="1,5" d="M322.33,-451.49C339.437,-422.9 398.62,-325.574 455.437,-250.836 465.75,-237.269 478.263,-222.837 488.43,-211.555"/>
<polygon fill="green" stroke="green" stroke-width="0.357957" points="491.207,-213.705 495.353,-203.955 486.032,-208.991 491.207,-213.705"/>
</g>
<!-- uy -->
<g id="node7" class="node"><title>uy</title>
<ellipse fill="lightblue" stroke="black" cx="352.437" cy="-190.087" rx="18.2703" ry="18.2703"/>
<text text-anchor="middle" x="352.437" y="-187.887" font-family="Times,serif" font-size="9.00">uy</text>
</g>
<!-- sr&#45;&gt;uy -->
<g id="edge36" class="edge"><title>sr&#45;&gt;uy</title>
<path fill="none" stroke="red" stroke-width="0.256977" stroke-dasharray="1,5" d="M314.304,-451.407C303.932,-422.546 272.892,-324.442 300.437,-250.836 306.546,-234.511 319.353,-219.705 330.727,-208.915"/>
<polygon fill="red" stroke="red" stroke-width="0.256977" points="333.186,-211.411 338.274,-202.118 328.501,-206.21 333.186,-211.411"/>
</g>
<!-- 52866 -->
<g id="node12" class="node"><title>52866</title>
<ellipse fill="white" stroke="black" cx="337.437" cy="-278.413" rx="27.6545" ry="27.6545"/>
<text text-anchor="middle" x="337.437" y="-276.213" font-family="Times,serif" font-size="9.00">52866</text>
</g>
<!-- sr&#45;&gt;52866 -->
<g id="edge55" class="edge"><title>sr&#45;&gt;52866</title>
<path fill="none" stroke="green" stroke-width="0.240727" stroke-dasharray="1,5" d="M319.69,-451.7C322.908,-439.87 328.73,-416.999 331.437,-397.144 335.105,-370.239 336.583,-339.598 337.155,-316.321"/>
<polygon fill="green" stroke="green" stroke-width="0.240727" points="340.657,-316.253 337.359,-306.184 333.658,-316.112 340.657,-316.253"/>
</g>
<!-- 13127 -->
<g id="node13" class="node"><title>13127</title>
<ellipse fill="white" stroke="black" cx="147.437" cy="-369.567" rx="27.6545" ry="27.6545"/>
<text text-anchor="middle" x="147.437" y="-367.367" font-family="Times,serif" font-size="9.00">13127</text>
</g>
<!-- sr&#45;&gt;13127 -->
<g id="edge49" class="edge"><title>sr&#45;&gt;13127</title>
<path fill="none" stroke="green" stroke-width="0.811788" d="M305.752,-453.593C280.372,-440.283 219.405,-408.31 180.965,-388.151"/>
<polygon fill="green" stroke="green" stroke-width="0.811788" points="182.195,-384.843 171.713,-383.299 178.944,-391.043 182.195,-384.843"/>
</g>
<!-- sr&#45;&gt;170 -->
<g id="edge22" class="edge"><title>sr&#45;&gt;170</title>
<path fill="none" stroke="red" stroke-width="0.80564" stroke-dasharray="1,5" d="M313.915,-451.686C305.21,-432.164 281.489,-380.981 255.437,-341.99 246.154,-328.097 234.347,-313.682 224.331,-302.194"/>
<polygon fill="red" stroke="red" stroke-width="0.80564" points="226.67,-299.556 217.416,-294.396 221.432,-304.2 226.67,-299.556"/>
</g>
<!-- uy&#45;&gt;16627 -->
<g id="edge51" class="edge"><title>uy&#45;&gt;16627</title>
<path fill="none" stroke="red" stroke-width="0.709326" d="M352.437,-171.617C352.437,-162.338 352.437,-150.568 352.437,-139.396"/>
<polygon fill="red" stroke="red" stroke-width="0.709326" points="355.937,-139.392 352.437,-129.392 348.937,-139.392 355.937,-139.392"/>
</g>
<!-- uy&#45;&gt;52439 -->
<g id="edge5" class="edge"><title>uy&#45;&gt;52439</title>
<path fill="none" stroke="red" stroke-width="0.833111" d="M369.307,-182.313C404.334,-168.249 485.573,-135.631 532.423,-116.82"/>
<polygon fill="red" stroke="red" stroke-width="0.833111" points="533.893,-120.001 541.869,-113.027 531.285,-113.505 533.893,-120.001"/>
</g>
<!-- wz&#45;&gt;wz -->
<g id="edge25" class="edge"><title>wz&#45;&gt;wz</title>
<path fill="none" stroke="green" stroke-width="0.152316" d="M581.518,-32.3048C592.841,-37.5899 604.529,-33.1856 604.529,-19.0919 604.529,-9.18222 598.75,-4.06287 591.384,-3.73383"/>
<polygon fill="green" stroke="green" stroke-width="0.152316" points="590.546,-0.33405 581.518,-5.87899 592.034,-7.17421 590.546,-0.33405"/>
</g>
<!-- 53834 -->
<g id="node18" class="node"><title>53834</title>
<ellipse fill="white" stroke="black" cx="601.437" cy="-460.721" rx="27.6545" ry="27.6545"/>
<text text-anchor="middle" x="601.437" y="-458.521" font-family="Times,serif" font-size="9.00">53834</text>
</g>
<!-- 52674&#45;&gt;53834 -->
<g id="edge40" class="edge"><title>52674&#45;&gt;53834</title>
<path fill="none" stroke="red" stroke-width="0.173123" d="M622.92,-525.566C619.912,-516.625 616.472,-506.404 613.24,-496.8"/>
<polygon fill="red" stroke="red" stroke-width="0.173123" points="616.481,-495.456 609.975,-487.094 609.847,-497.688 616.481,-495.456"/>
</g>
<!-- 52674&#45;&gt;52589 -->
<g id="edge12" class="edge"><title>52674&#45;&gt;52589</title>
<path fill="none" stroke="red" stroke-width="0.625773" stroke-dasharray="1,5" d="M637.756,-524.654C642.477,-500.459 646.81,-463.757 638.437,-433.144 635.326,-421.773 629.56,-410.369 623.49,-400.47"/>
<polygon fill="red" stroke="red" stroke-width="0.625773" points="626.275,-398.332 617.897,-391.846 620.402,-402.141 626.275,-398.332"/>
</g>
<!-- 80580&#45;&gt;169 -->
<g id="edge30" class="edge"><title>80580&#45;&gt;169</title>
<path fill="none" stroke="green" stroke-width="0.295864" d="M386.263,-529.747C396.722,-516.614 410.205,-499.683 421.103,-485.999"/>
<polygon fill="green" stroke="green" stroke-width="0.295864" points="424.013,-487.963 427.504,-477.96 418.537,-483.602 424.013,-487.963"/>
</g>
<!-- 30112 -->
<g id="node11" class="node"><title>30112</title>
<ellipse fill="white" stroke="black" cx="135.437" cy="-460.721" rx="27.6545" ry="27.6545"/>
<text text-anchor="middle" x="135.437" y="-458.521" font-family="Times,serif" font-size="9.00">30112</text>
</g>
<!-- 30112&#45;&gt;13127 -->
<g id="edge13" class="edge"><title>30112&#45;&gt;13127</title>
<path fill="none" stroke="red" stroke-width="0.466979" stroke-dasharray="1,5" d="M139.037,-432.972C140.139,-424.788 141.369,-415.644 142.542,-406.933"/>
<polygon fill="red" stroke="red" stroke-width="0.466979" points="146.015,-407.368 143.88,-396.99 139.077,-406.434 146.015,-407.368"/>
</g>
<!-- 52866&#45;&gt;ux -->
<g id="edge50" class="edge"><title>52866&#45;&gt;ux</title>
<path fill="none" stroke="red" stroke-width="0.525506" d="M360.226,-262.252C366.369,-258.37 373.077,-254.313 379.437,-250.836 413.779,-232.054 455.054,-213.467 481.268,-202.132"/>
<polygon fill="red" stroke="red" stroke-width="0.525506" points="482.722,-205.317 490.531,-198.158 479.962,-198.884 482.722,-205.317"/>
</g>
<!-- 13127&#45;&gt;170 -->
<g id="edge37" class="edge"><title>13127&#45;&gt;170</title>
<path fill="none" stroke="green" stroke-width="0.234751" d="M161.858,-345.608C169.577,-333.319 179.113,-318.138 187.104,-305.415"/>
<polygon fill="green" stroke="green" stroke-width="0.234751" points="190.247,-306.992 192.602,-296.662 184.319,-303.268 190.247,-306.992"/>
</g>
<!-- 168&#45;&gt;ux -->
<g id="edge20" class="edge"><title>168&#45;&gt;ux</title>
<path fill="none" stroke="green" stroke-width="0.14817" stroke-dasharray="1,5" d="M80.0627,-534.617C83.934,-530.646 88.491,-526.82 93.4367,-524.299 191.098,-474.514 245.699,-548.301 337.437,-488.299 436.928,-423.225 484.722,-278.435 500.872,-218.196"/>
<polygon fill="green" stroke="green" stroke-width="0.14817" points="504.318,-218.854 503.444,-208.295 497.542,-217.094 504.318,-218.854"/>
</g>
<!-- 168&#45;&gt;30112 -->
<g id="edge8" class="edge"><title>168&#45;&gt;30112</title>
<path fill="none" stroke="red" stroke-width="0.38393" d="M79.9089,-534.523C89.1397,-522.421 101.967,-505.603 112.967,-491.181"/>
<polygon fill="red" stroke="red" stroke-width="0.38393" points="115.911,-493.093 119.192,-483.019 110.345,-488.848 115.911,-493.093"/>
</g>
<!-- 168&#45;&gt;13127 -->
<g id="edge24" class="edge"><title>168&#45;&gt;13127</title>
<path fill="none" stroke="green" stroke-width="0.133611" d="M70.1712,-530.839C74.0296,-506.684 82.4564,-465.327 98.4367,-433.144 104.635,-420.662 113.569,-408.289 122.116,-397.881"/>
<polygon fill="green" stroke="green" stroke-width="0.133611" points="125.014,-399.876 128.828,-389.991 119.683,-395.34 125.014,-399.876"/>
</g>
<!-- 169&#45;&gt;ux -->
<g id="edge29" class="edge"><title>169&#45;&gt;ux</title>
<path fill="none" stroke="green" stroke-width="0.163713" d="M454.097,-444.474C463.996,-432.494 476.768,-414.916 483.437,-397.144 506.213,-336.45 508.825,-259.237 508.369,-218.74"/>
<polygon fill="green" stroke="green" stroke-width="0.163713" points="511.865,-218.501 508.179,-208.568 504.867,-218.632 511.865,-218.501"/>
</g>
<!-- 169&#45;&gt;uy -->
<g id="edge16" class="edge"><title>169&#45;&gt;uy</title>
<path fill="none" stroke="green" stroke-width="0.405753" d="M434.553,-440.038C423.373,-402.881 398.059,-319.931 374.437,-250.836 370.616,-239.659 366.152,-227.404 362.247,-216.917"/>
<polygon fill="green" stroke="green" stroke-width="0.405753" points="365.503,-215.631 358.714,-207.497 358.949,-218.09 365.503,-215.631"/>
</g>
<!-- 169&#45;&gt;wz -->
<g id="edge6" class="edge"><title>169&#45;&gt;wz</title>
<path fill="none" stroke="green" stroke-width="0.114412" stroke-dasharray="1,5" d="M461.138,-455.36C506.184,-445.531 611.236,-420.667 638.437,-397.144 682.41,-359.117 695.437,-337.548 695.437,-279.413 695.437,-279.413 695.437,-279.413 695.437,-189.087 695.437,-120.94 628.478,-62.9659 591.419,-36.0982"/>
<polygon fill="green" stroke="green" stroke-width="0.114412" points="593.32,-33.1559 583.132,-30.2468 589.282,-38.8741 593.32,-33.1559"/>
</g>
<!-- 169&#45;&gt;169 -->
<g id="edge53" class="edge"><title>169&#45;&gt;169</title>
<path fill="none" stroke="green" stroke-width="0.331045" d="M456.14,-475.602C467.849,-480.799 479.65,-475.839 479.65,-460.721 479.65,-449.974 473.685,-444.36 466.03,-443.88"/>
<polygon fill="green" stroke="green" stroke-width="0.331045" points="465.269,-440.463 456.14,-445.84 466.63,-447.329 465.269,-440.463"/>
</g>
<!-- 170&#45;&gt;ux -->
<g id="edge39" class="edge"><title>170&#45;&gt;ux</title>
<path fill="none" stroke="red" stroke-width="1.90804" d="M223.855,-271.615C276.978,-256.529 419.551,-216.043 479.875,-198.913"/>
<polygon fill="red" stroke="red" stroke-width="1.90804" points="481.15,-202.19 489.814,-196.091 479.238,-195.456 481.15,-202.19"/>
</g>
<!-- 170&#45;&gt;uy -->
<g id="edge52" class="edge"><title>170&#45;&gt;uy</title>
<path fill="none" stroke="green" stroke-width="1.13178" d="M221.41,-267C247.95,-251.623 297.708,-222.795 327.683,-205.428"/>
<polygon fill="green" stroke="green" stroke-width="1.13178" points="329.767,-208.266 336.665,-200.224 326.258,-202.209 329.767,-208.266"/>
</g>
<!-- 170&#45;&gt;wz -->
<g id="edge14" class="edge"><title>170&#45;&gt;wz</title>
<path fill="none" stroke="green" stroke-width="0.523616" stroke-dasharray="1,5" d="M190.735,-260.973C174.918,-238.34 151.983,-196.812 169.437,-165.338 243.368,-32.0219 458.449,-19.3687 537.68,-19.3839"/>
<polygon fill="green" stroke="green" stroke-width="0.523616" points="537.904,-22.8855 547.93,-19.4588 537.956,-15.8857 537.904,-22.8855"/>
</g>
<!-- 170&#45;&gt;170 -->
<g id="edge44" class="edge"><title>170&#45;&gt;170</title>
<path fill="none" stroke="red" stroke-width="0.249684" d="M219.14,-292.963C230.849,-298.044 242.65,-293.194 242.65,-278.413 242.65,-267.904 236.685,-262.415 229.03,-261.946"/>
<polygon fill="red" stroke="red" stroke-width="0.249684" points="228.291,-258.524 219.14,-263.862 229.623,-265.396 228.291,-258.524"/>
</g>
<!-- 1047 -->
<g id="node21" class="node"><title>1047</title>
<ellipse fill="white" stroke="black" cx="203.437" cy="-190.087" rx="25" ry="25"/>
<text text-anchor="middle" x="203.437" y="-187.887" font-family="Times,serif" font-size="9.00">1047</text>
</g>
<!-- 170&#45;&gt;1047 -->
<g id="edge1" class="edge"><title>170&#45;&gt;1047</title>
<path fill="none" stroke="green" stroke-width="0.714598" d="M197.676,-257.824C196.75,-247.922 196.474,-235.631 196.848,-224.306"/>
<polygon fill="green" stroke="green" stroke-width="0.714598" points="200.346,-224.444 197.375,-214.274 193.356,-224.076 200.346,-224.444"/>
</g>
<!-- 53195&#45;&gt;169 -->
<g id="edge2" class="edge"><title>53195&#45;&gt;169</title>
<path fill="none" stroke="red" stroke-width="0.145047" d="M470.233,-526.514C465.01,-515.155 458.765,-501.575 453.344,-489.788"/>
<polygon fill="red" stroke="red" stroke-width="0.145047" points="456.383,-488.02 449.025,-480.397 450.024,-490.945 456.383,-488.02"/>
</g>
<!-- 53834&#45;&gt;52589 -->
<g id="edge45" class="edge"><title>53834&#45;&gt;52589</title>
<path fill="none" stroke="red" stroke-width="0.100459" d="M601.437,-432.972C601.437,-424.95 601.437,-416.005 601.437,-407.451"/>
<polygon fill="red" stroke="red" stroke-width="0.100459" points="604.937,-407.297 601.437,-397.297 597.937,-407.297 604.937,-407.297"/>
</g>
<!-- 52589&#45;&gt;ux -->
<g id="edge41" class="edge"><title>52589&#45;&gt;ux</title>
<path fill="none" stroke="green" stroke-width="0.1468" d="M595.171,-342.558C588.542,-317.86 576.644,-280.242 559.437,-250.836 550.83,-236.127 538.371,-221.658 527.806,-210.643"/>
<polygon fill="green" stroke="green" stroke-width="0.1468" points="530.048,-207.933 520.53,-203.279 525.069,-212.852 530.048,-207.933"/>
</g>
<!-- 16627&#45;&gt;wz -->
<g id="edge23" class="edge"><title>16627&#45;&gt;wz</title>
<path fill="none" stroke="green" stroke-width="0.497047" stroke-dasharray="1,5" d="M377.944,-91.1903C418.74,-75.8836 498.323,-46.0237 540.191,-30.3146"/>
<polygon fill="green" stroke="green" stroke-width="0.497047" points="541.602,-33.5235 549.735,-26.7335 539.143,-26.9696 541.602,-33.5235"/>
</g>
<!-- 1047&#45;&gt;170 -->
<g id="edge43" class="edge"><title>1047&#45;&gt;170</title>
<path fill="none" stroke="red" stroke-width="2.37691" d="M209.498,-214.274C210.263,-224.587 210.391,-236.851 209.881,-247.816"/>
<polygon fill="red" stroke="red" stroke-width="2.37691" points="206.387,-247.609 209.197,-257.824 213.371,-248.086 206.387,-247.609"/>
</g>
<!-- 52439&#45;&gt;wz -->
<g id="edge48" class="edge"><title>52439&#45;&gt;wz</title>
<path fill="none" stroke="green" stroke-width="0.463328" d="M567.437,-73.8993C567.437,-65.6493 567.437,-56.5497 567.437,-48.2175"/>
<polygon fill="green" stroke="green" stroke-width="0.463328" points="570.937,-48.1956 567.437,-38.1956 563.937,-48.1956 570.937,-48.1956"/>
</g>
<!-- 54009&#45;&gt;ux -->
<g id="edge47" class="edge"><title>54009&#45;&gt;ux</title>
<path fill="none" stroke="red" stroke-width="0.23075" d="M616.745,-262.573C592.823,-246.928 555.309,-222.394 531.046,-206.527"/>
<polygon fill="red" stroke="red" stroke-width="0.23075" points="532.736,-203.45 522.451,-200.906 528.905,-209.309 532.736,-203.45"/>
</g>
<!-- 30492&#45;&gt;170 -->
<g id="edge18" class="edge"><title>30492&#45;&gt;170</title>
<path fill="none" stroke="green" stroke-width="0.48682" d="M96.0273,-352.391C100.748,-348.921 105.738,-345.303 110.437,-341.99 132.853,-326.185 158.774,-308.816 177.548,-296.395"/>
<polygon fill="green" stroke="green" stroke-width="0.48682" points="179.724,-299.153 186.143,-290.724 175.869,-293.31 179.724,-299.153"/>
</g>
<!-- 52285&#45;&gt;169 -->
<g id="edge31" class="edge"><title>52285&#45;&gt;169</title>
<path fill="none" stroke="red" stroke-width="0.192997" d="M237.427,-545.274C276.141,-536.572 348.986,-517.687 405.437,-488.299 409.243,-486.317 413.067,-483.923 416.716,-481.393"/>
<polygon fill="red" stroke="red" stroke-width="0.192997" points="418.881,-484.146 424.825,-475.376 414.709,-478.525 418.881,-484.146"/>
</g>
</g>
</svg>
