<?xml version="1.0" encoding="UTF-8" standalone="no"?>
<!DOCTYPE svg PUBLIC "-//W3C//DTD SVG 1.1//EN"
 "http://www.w3.org/Graphics/SVG/1.1/DTD/svg11.dtd">
<!-- Generated by graphviz version 2.38.0 (20140413.2041)
 -->
<!-- Title: %3 Pages: 1 -->
<svg width="675pt" height="664pt"
 viewBox="0.00 0.00 674.58 664.08" xmlns="http://www.w3.org/2000/svg" xmlns:xlink="http://www.w3.org/1999/xlink">
<g id="graph0" class="graph" transform="scale(1 1) rotate(0) translate(4 660.08)">
<title>%3</title>
<polygon fill="white" stroke="none" points="-4,4 -4,-660.08 670.577,-660.08 670.577,4 -4,4"/>
<!-- ext -->
<g id="node1" class="node"><title>ext</title>
<polygon fill="lightgray" stroke="black" points="514.5,-492.349 487.5,-492.349 487.5,-474.349 514.5,-474.349 514.5,-492.349"/>
<text text-anchor="middle" x="501" y="-481.149" font-family="Times,serif" font-size="9.00">ext</text>
</g>
<!-- ux -->
<g id="node7" class="node"><title>ux</title>
<ellipse fill="lightblue" stroke="black" cx="264" cy="-392.194" rx="18.2703" ry="18.2703"/>
<text text-anchor="middle" x="264" y="-389.994" font-family="Times,serif" font-size="9.00">ux</text>
</g>
<!-- ext&#45;&gt;ux -->
<g id="edge8" class="edge"><title>ext&#45;&gt;ux</title>
<path fill="none" stroke="red" stroke-width="0.448745" stroke-dasharray="1,5" d="M495.89,-474.266C491.746,-468.336 485.393,-460.52 478,-455.772 418.702,-417.683 335.505,-402.12 292.398,-396.307"/>
<polygon fill="red" stroke="red" stroke-width="0.448745" points="292.702,-392.818 282.341,-395.032 291.821,-399.762 292.702,-392.818"/>
</g>
<!-- uy -->
<g id="node8" class="node"><title>uy</title>
<ellipse fill="lightblue" stroke="black" cx="416" cy="-118.731" rx="18.2703" ry="18.2703"/>
<text text-anchor="middle" x="416" y="-116.531" font-family="Times,serif" font-size="9.00">uy</text>
</g>
<!-- ext&#45;&gt;uy -->
<g id="edge9" class="edge"><title>ext&#45;&gt;uy</title>
<path fill="none" stroke="green" stroke-width="0.133794" d="M500.596,-474.228C498.63,-438.689 488.52,-293.662 450,-182.309 445.326,-168.798 437.939,-154.726 431.242,-143.357"/>
<polygon fill="green" stroke="green" stroke-width="0.133794" points="434.046,-141.232 425.854,-134.513 428.068,-144.874 434.046,-141.232"/>
</g>
<!-- eyt -->
<g id="node2" class="node"><title>eyt</title>
<polygon fill="lightgray" stroke="black" points="469.5,-492.349 442.5,-492.349 442.5,-474.349 469.5,-474.349 469.5,-492.349"/>
<text text-anchor="middle" x="456" y="-481.149" font-family="Times,serif" font-size="9.00">eyt</text>
</g>
<!-- eyt&#45;&gt;ux -->
<g id="edge2" class="edge"><title>eyt&#45;&gt;ux</title>
<path fill="none" stroke="green" stroke-width="0.396461" stroke-dasharray="1,5" d="M442.499,-476.08C410.732,-461.329 330.835,-424.229 289.562,-405.064"/>
<polygon fill="green" stroke="green" stroke-width="0.396461" points="290.97,-401.859 280.426,-400.822 288.021,-408.208 290.97,-401.859"/>
</g>
<!-- eyt&#45;&gt;uy -->
<g id="edge23" class="edge"><title>eyt&#45;&gt;uy</title>
<path fill="none" stroke="red" stroke-width="0.531692" stroke-dasharray="1,5" d="M455.851,-473.933C455.112,-438.339 451.063,-296.742 432,-182.309 430.017,-170.406 426.874,-157.453 423.897,-146.435"/>
<polygon fill="red" stroke="red" stroke-width="0.531692" points="427.2,-145.251 421.136,-136.563 420.459,-147.136 427.2,-145.251"/>
</g>
<!-- sf -->
<g id="node3" class="node"><title>sf</title>
<polygon fill="lightgray" stroke="black" points="170.5,-583.503 147.5,-583.503 147.5,-565.503 170.5,-565.503 170.5,-583.503"/>
<text text-anchor="middle" x="159" y="-572.303" font-family="Times,serif" font-size="9.00">sf</text>
</g>
<!-- sf&#45;&gt;ux -->
<g id="edge36" class="edge"><title>sf&#45;&gt;ux</title>
<path fill="none" stroke="green" stroke-width="1.20775" stroke-dasharray="1,5" d="M161.776,-565.417C168.695,-545.783 187.9,-494.368 212,-455.772 221.361,-440.78 233.994,-425.494 244.464,-413.782"/>
<polygon fill="green" stroke="green" stroke-width="1.20775" points="247.143,-416.039 251.3,-406.293 241.973,-411.319 247.143,-416.039"/>
</g>
<!-- sf&#45;&gt;uy -->
<g id="edge41" class="edge"><title>sf&#45;&gt;uy</title>
<path fill="none" stroke="red" stroke-width="0.130264" d="M170.687,-569.899C212.944,-556.858 355.402,-512.791 357,-510.926 448.637,-403.997 431.335,-217.417 420.812,-147.361"/>
<polygon fill="red" stroke="red" stroke-width="0.130264" points="424.217,-146.48 419.2,-137.148 417.302,-147.572 424.217,-146.48"/>
</g>
<!-- 30543 -->
<g id="node15" class="node"><title>30543</title>
<ellipse fill="white" stroke="black" cx="132" cy="-483.349" rx="27.6545" ry="27.6545"/>
<text text-anchor="middle" x="132" y="-481.149" font-family="Times,serif" font-size="9.00">30543</text>
</g>
<!-- sf&#45;&gt;30543 -->
<g id="edge44" class="edge"><title>sf&#45;&gt;30543</title>
<path fill="none" stroke="green" stroke-width="0.451978" d="M156.508,-565.276C153.395,-554.994 147.864,-536.731 142.843,-520.154"/>
<polygon fill="green" stroke="green" stroke-width="0.451978" points="146.058,-518.692 139.81,-510.136 139.358,-520.721 146.058,-518.692"/>
</g>
<!-- 22 -->
<g id="node19" class="node"><title>22</title>
<ellipse fill="white" stroke="black" cx="180" cy="-209.886" rx="18.2703" ry="18.2703"/>
<text text-anchor="middle" x="180" y="-207.686" font-family="Times,serif" font-size="9.00">22</text>
</g>
<!-- sf&#45;&gt;22 -->
<g id="edge5" class="edge"><title>sf&#45;&gt;22</title>
<path fill="none" stroke="red" stroke-width="0.451948" stroke-dasharray="1,5" d="M147.264,-566.375C131.88,-556.259 105.608,-536.135 95,-510.926 54.0646,-413.649 47.3824,-367.649 95,-273.463 107.221,-249.29 133.667,-232.17 153.837,-222.016"/>
<polygon fill="red" stroke="red" stroke-width="0.451948" points="155.616,-225.046 163.144,-217.591 152.61,-218.724 155.616,-225.046"/>
</g>
<!-- sl -->
<g id="node4" class="node"><title>sl</title>
<polygon fill="lightgray" stroke="black" points="285.5,-656.08 262.5,-656.08 262.5,-638.08 285.5,-638.08 285.5,-656.08"/>
<text text-anchor="middle" x="274" y="-644.88" font-family="Times,serif" font-size="9.00">sl</text>
</g>
<!-- sl&#45;&gt;ux -->
<g id="edge26" class="edge"><title>sl&#45;&gt;ux</title>
<path fill="none" stroke="green" stroke-width="0.83963" stroke-dasharray="1,5" d="M266.598,-638.074C259.482,-629.784 249.205,-616.101 245,-602.08 225.947,-538.549 243.625,-459.677 255.411,-419.457"/>
<polygon fill="green" stroke="green" stroke-width="0.83963" points="258.766,-420.453 258.327,-409.868 252.069,-418.417 258.766,-420.453"/>
</g>
<!-- sl&#45;&gt;uy -->
<g id="edge40" class="edge"><title>sl&#45;&gt;uy</title>
<path fill="none" stroke="green" stroke-width="0.332662" stroke-dasharray="1,5" d="M285.66,-645.547C341.737,-642.305 581,-620.496 581,-484.349 581,-484.349 581,-484.349 581,-300.04 581,-218.434 487.878,-157.679 441.549,-132.503"/>
<polygon fill="green" stroke="green" stroke-width="0.332662" points="442.9,-129.258 432.424,-127.676 439.627,-135.446 442.9,-129.258"/>
</g>
<!-- 11908 -->
<g id="node11" class="node"><title>11908</title>
<ellipse fill="white" stroke="black" cx="107" cy="-118.731" rx="27.6545" ry="27.6545"/>
<text text-anchor="middle" x="107" y="-116.531" font-family="Times,serif" font-size="9.00">11908</text>
</g>
<!-- sl&#45;&gt;11908 -->
<g id="edge25" class="edge"><title>sl&#45;&gt;11908</title>
<path fill="none" stroke="red" stroke-width="0.398957" d="M262.285,-645.027C222.267,-641.228 91.6561,-627.115 59,-602.08 12.5507,-566.472 0,-542.877 0,-484.349 0,-484.349 0,-484.349 0,-300.04 0,-237.529 48.1513,-177.745 79.8513,-145.161"/>
<polygon fill="red" stroke="red" stroke-width="0.398957" points="82.5458,-147.415 87.1249,-137.861 77.5872,-142.474 82.5458,-147.415"/>
</g>
<!-- 15374 -->
<g id="node14" class="node"><title>15374</title>
<ellipse fill="white" stroke="black" cx="323" cy="-574.503" rx="27.6545" ry="27.6545"/>
<text text-anchor="middle" x="323" y="-572.303" font-family="Times,serif" font-size="9.00">15374</text>
</g>
<!-- sl&#45;&gt;15374 -->
<g id="edge14" class="edge"><title>sl&#45;&gt;15374</title>
<path fill="none" stroke="green" stroke-width="0.308937" d="M279.621,-637.984C285.083,-630.118 293.72,-617.676 301.855,-605.959"/>
<polygon fill="green" stroke="green" stroke-width="0.308937" points="304.809,-607.842 307.637,-597.631 299.059,-603.85 304.809,-607.842"/>
</g>
<!-- sl&#45;&gt;22 -->
<g id="edge35" class="edge"><title>sl&#45;&gt;22</title>
<path fill="none" stroke="green" stroke-width="0.467628" d="M262.297,-644.054C214.677,-635.08 38,-594.368 38,-484.349 38,-484.349 38,-484.349 38,-391.194 38,-337.197 35.0903,-316.272 68,-273.463 89.4519,-245.558 127.096,-228.259 152.768,-219.106"/>
<polygon fill="green" stroke="green" stroke-width="0.467628" points="153.941,-222.404 162.293,-215.885 151.699,-215.773 153.941,-222.404"/>
</g>
<!-- 12541 -->
<g id="node22" class="node"><title>12541</title>
<ellipse fill="white" stroke="black" cx="295" cy="-209.886" rx="27.6545" ry="27.6545"/>
<text text-anchor="middle" x="295" y="-207.686" font-family="Times,serif" font-size="9.00">12541</text>
</g>
<!-- sl&#45;&gt;12541 -->
<g id="edge20" class="edge"><title>sl&#45;&gt;12541</title>
<path fill="none" stroke="red" stroke-width="0.517028" d="M285.529,-644.091C326.983,-636.241 468.876,-603.206 523,-510.926 535.402,-489.782 531.975,-478.583 523,-455.772 502.078,-402.596 378.646,-286.513 322.627,-235.624"/>
<polygon fill="red" stroke="red" stroke-width="0.517028" points="324.951,-233.006 315.188,-228.89 320.253,-238.196 324.951,-233.006"/>
</g>
<!-- sr -->
<g id="node5" class="node"><title>sr</title>
<polygon fill="lightgray" stroke="black" points="277.5,-583.503 254.5,-583.503 254.5,-565.503 277.5,-565.503 277.5,-583.503"/>
<text text-anchor="middle" x="266" y="-572.303" font-family="Times,serif" font-size="9.00">sr</text>
</g>
<!-- sr&#45;&gt;ux -->
<g id="edge16" class="edge"><title>sr&#45;&gt;ux</title>
<path fill="none" stroke="green" stroke-width="0.557339" stroke-dasharray="1,5" d="M265.909,-565.287C265.628,-540 264.769,-462.525 264.305,-420.684"/>
<polygon fill="green" stroke="green" stroke-width="0.557339" points="267.804,-420.586 264.193,-410.625 260.805,-420.664 267.804,-420.586"/>
</g>
<!-- 28095 -->
<g id="node23" class="node"><title>28095</title>
<ellipse fill="white" stroke="black" cx="320" cy="-483.349" rx="27.6545" ry="27.6545"/>
<text text-anchor="middle" x="320" y="-481.149" font-family="Times,serif" font-size="9.00">28095</text>
</g>
<!-- sr&#45;&gt;28095 -->
<g id="edge27" class="edge"><title>sr&#45;&gt;28095</title>
<path fill="none" stroke="green" stroke-width="0.235253" d="M270.983,-565.276C277.698,-554.19 290.034,-533.823 300.65,-516.296"/>
<polygon fill="green" stroke="green" stroke-width="0.235253" points="303.819,-517.82 306.006,-507.453 297.831,-514.193 303.819,-517.82"/>
</g>
<!-- &#45;6 -->
<g id="node6" class="node"><title>&#45;6</title>
<polygon fill="lightgray" stroke="black" points="633,-218.886 609,-218.886 609,-200.886 633,-200.886 633,-218.886"/>
<text text-anchor="middle" x="621" y="-207.686" font-family="Times,serif" font-size="9.00">&#45;6</text>
</g>
<!-- &#45;6&#45;&gt;uy -->
<g id="edge19" class="edge"><title>&#45;6&#45;&gt;uy</title>
<path fill="none" stroke="red" stroke-width="0.710913" d="M614.726,-200.694C609.888,-194.866 602.735,-187.227 595,-182.309 546.453,-151.442 480.776,-133.556 443.977,-125.313"/>
<polygon fill="red" stroke="red" stroke-width="0.710913" points="444.481,-121.841 433.968,-123.15 443.003,-128.683 444.481,-121.841"/>
</g>
<!-- 28432 -->
<g id="node18" class="node"><title>28432</title>
<ellipse fill="white" stroke="black" cx="593" cy="-118.731" rx="27.6545" ry="27.6545"/>
<text text-anchor="middle" x="593" y="-116.531" font-family="Times,serif" font-size="9.00">28432</text>
</g>
<!-- &#45;6&#45;&gt;28432 -->
<g id="edge42" class="edge"><title>&#45;6&#45;&gt;28432</title>
<path fill="none" stroke="green" stroke-width="0.427854" d="M618.416,-200.658C615.134,-190.208 609.262,-171.511 603.989,-154.72"/>
<polygon fill="green" stroke="green" stroke-width="0.427854" points="607.312,-153.622 600.977,-145.13 600.634,-155.72 607.312,-153.622"/>
</g>
<!-- 11836 -->
<g id="node21" class="node"><title>11836</title>
<ellipse fill="white" stroke="black" cx="621" cy="-27.5772" rx="27.6545" ry="27.6545"/>
<text text-anchor="middle" x="621" y="-25.3772" font-family="Times,serif" font-size="9.00">11836</text>
</g>
<!-- &#45;6&#45;&gt;11836 -->
<g id="edge4" class="edge"><title>&#45;6&#45;&gt;11836</title>
<path fill="none" stroke="red" stroke-width="0.254855" stroke-dasharray="1,5" d="M622.536,-200.825C624.713,-188.946 628.59,-166.015 630,-146.309 631.749,-121.858 631.749,-115.605 630,-91.1543 629.393,-82.6706 628.329,-73.589 627.14,-65.0489"/>
<polygon fill="red" stroke="red" stroke-width="0.254855" points="630.576,-64.3573 625.65,-54.9771 623.651,-65.3816 630.576,-64.3573"/>
</g>
<!-- 8704 -->
<g id="node12" class="node"><title>8704</title>
<ellipse fill="white" stroke="black" cx="365" cy="-209.886" rx="25" ry="25"/>
<text text-anchor="middle" x="365" y="-207.686" font-family="Times,serif" font-size="9.00">8704</text>
</g>
<!-- ux&#45;&gt;8704 -->
<g id="edge18" class="edge"><title>ux&#45;&gt;8704</title>
<path fill="none" stroke="green" stroke-width="0.315251" d="M278.99,-381.246C294.499,-370.184 318.329,-350.911 332,-328.617 347.827,-302.808 356.262,-269.214 360.628,-244.521"/>
<polygon fill="green" stroke="green" stroke-width="0.315251" points="364.102,-244.965 362.26,-234.531 357.194,-243.836 364.102,-244.965"/>
</g>
<!-- 12777 -->
<g id="node13" class="node"><title>12777</title>
<ellipse fill="white" stroke="black" cx="253" cy="-118.731" rx="27.6545" ry="27.6545"/>
<text text-anchor="middle" x="253" y="-116.531" font-family="Times,serif" font-size="9.00">12777</text>
</g>
<!-- ux&#45;&gt;12777 -->
<g id="edge7" class="edge"><title>ux&#45;&gt;12777</title>
<path fill="none" stroke="green" stroke-width="0.141517" d="M274.951,-376.698C283.381,-364.574 294.353,-346.445 299,-328.617 305.183,-304.897 309.11,-295.794 299,-273.463 288.999,-251.372 268.468,-259.337 258,-237.463 245.922,-212.225 245.322,-180.353 247.383,-156.137"/>
<polygon fill="green" stroke="green" stroke-width="0.141517" points="250.891,-156.244 248.444,-145.936 243.928,-155.52 250.891,-156.244"/>
</g>
<!-- 21296 -->
<g id="node16" class="node"><title>21296</title>
<ellipse fill="white" stroke="black" cx="262" cy="-301.04" rx="27.6545" ry="27.6545"/>
<text text-anchor="middle" x="262" y="-298.84" font-family="Times,serif" font-size="9.00">21296</text>
</g>
<!-- ux&#45;&gt;21296 -->
<g id="edge39" class="edge"><title>ux&#45;&gt;21296</title>
<path fill="none" stroke="red" stroke-width="0.358226" d="M263.605,-373.58C263.383,-363.69 263.097,-350.962 262.829,-338.991"/>
<polygon fill="red" stroke="red" stroke-width="0.358226" points="266.323,-338.674 262.599,-328.755 259.325,-338.831 266.323,-338.674"/>
</g>
<!-- ux&#45;&gt;22 -->
<g id="edge17" class="edge"><title>ux&#45;&gt;22</title>
<path fill="none" stroke="red" stroke-width="0.2053" stroke-dasharray="1,5" d="M249.496,-380.042C238.721,-367.812 225.343,-347.418 216,-328.617 201.155,-298.746 188.033,-262.703 181.747,-238.431"/>
<polygon fill="red" stroke="red" stroke-width="0.2053" points="185.106,-237.428 179.421,-228.487 178.29,-239.022 185.106,-237.428"/>
</g>
<!-- uy&#45;&gt;uy -->
<g id="edge15" class="edge"><title>uy&#45;&gt;uy</title>
<path fill="none" stroke="green" stroke-width="0.226457" stroke-dasharray="1,5" d="M428.679,-132.603C440.125,-139.351 452.385,-134.728 452.385,-118.731 452.385,-107.234 446.051,-101.612 438.239,-101.865"/>
<polygon fill="green" stroke="green" stroke-width="0.226457" points="437.175,-98.5301 428.679,-104.86 439.268,-105.21 437.175,-98.5301"/>
</g>
<!-- uy&#45;&gt;8704 -->
<g id="edge28" class="edge"><title>uy&#45;&gt;8704</title>
<path fill="none" stroke="green" stroke-width="0.607663" stroke-dasharray="1,5" d="M411.663,-136.839C405.733,-149.666 395.815,-167.468 386.529,-182.166"/>
<polygon fill="green" stroke="green" stroke-width="0.607663" points="383.4,-180.556 380.869,-190.844 389.263,-184.38 383.4,-180.556"/>
</g>
<!-- 28273 -->
<g id="node17" class="node"><title>28273</title>
<ellipse fill="white" stroke="black" cx="390" cy="-27.5772" rx="27.6545" ry="27.6545"/>
<text text-anchor="middle" x="390" y="-25.3772" font-family="Times,serif" font-size="9.00">28273</text>
</g>
<!-- uy&#45;&gt;28273 -->
<g id="edge13" class="edge"><title>uy&#45;&gt;28273</title>
<path fill="none" stroke="green" stroke-width="0.423785" d="M411.11,-100.962C408.092,-90.6139 404.103,-76.9367 400.406,-64.2599"/>
<polygon fill="green" stroke="green" stroke-width="0.423785" points="403.688,-63.0107 397.528,-54.3905 396.968,-64.9705 403.688,-63.0107"/>
</g>
<!-- 25889 -->
<g id="node9" class="node"><title>25889</title>
<ellipse fill="white" stroke="black" cx="132" cy="-392.194" rx="27.6545" ry="27.6545"/>
<text text-anchor="middle" x="132" y="-389.994" font-family="Times,serif" font-size="9.00">25889</text>
</g>
<!-- 22211 -->
<g id="node10" class="node"><title>22211</title>
<ellipse fill="white" stroke="black" cx="132" cy="-301.04" rx="27.6545" ry="27.6545"/>
<text text-anchor="middle" x="132" y="-298.84" font-family="Times,serif" font-size="9.00">22211</text>
</g>
<!-- 25889&#45;&gt;22211 -->
<g id="edge32" class="edge"><title>25889&#45;&gt;22211</title>
<path fill="none" stroke="green" stroke-width="0.633175" d="M132,-364.445C132,-356.423 132,-347.479 132,-338.924"/>
<polygon fill="green" stroke="green" stroke-width="0.633175" points="135.5,-338.77 132,-328.771 128.5,-338.771 135.5,-338.77"/>
</g>
<!-- 22211&#45;&gt;22 -->
<g id="edge10" class="edge"><title>22211&#45;&gt;22</title>
<path fill="none" stroke="green" stroke-width="0.164841" d="M144.863,-276.148C151.635,-263.571 159.926,-248.171 166.754,-235.49"/>
<polygon fill="green" stroke="green" stroke-width="0.164841" points="169.981,-236.878 171.64,-226.414 163.818,-233.56 169.981,-236.878"/>
</g>
<!-- 11908&#45;&gt;22 -->
<g id="edge45" class="edge"><title>11908&#45;&gt;22</title>
<path fill="none" stroke="red" stroke-width="0.673987" d="M127.233,-137.678C139.716,-151.201 155.195,-169.887 166.293,-184.724"/>
<polygon fill="red" stroke="red" stroke-width="0.673987" points="163.557,-186.912 172.265,-192.947 169.22,-182.799 163.557,-186.912"/>
</g>
<!-- 8704&#45;&gt;uy -->
<g id="edge31" class="edge"><title>8704&#45;&gt;uy</title>
<path fill="none" stroke="green" stroke-width="0.478796" d="M372.146,-185.926C378.96,-172.177 388.933,-154.807 397.778,-141.31"/>
<polygon fill="green" stroke="green" stroke-width="0.478796" points="400.923,-142.91 403.669,-132.677 395.141,-138.965 400.923,-142.91"/>
</g>
<!-- 15374&#45;&gt;ux -->
<g id="edge6" class="edge"><title>15374&#45;&gt;ux</title>
<path fill="none" stroke="red" stroke-width="0.141673" d="M338.806,-551.64C354.374,-527.193 373.597,-486.945 357,-455.772 343.058,-429.586 312.743,-412.397 290.499,-402.775"/>
<polygon fill="red" stroke="red" stroke-width="0.141673" points="291.814,-399.532 281.233,-398.996 289.17,-406.013 291.814,-399.532"/>
</g>
<!-- 15374&#45;&gt;28095 -->
<g id="edge1" class="edge"><title>15374&#45;&gt;28095</title>
<path fill="none" stroke="green" stroke-width="0.186261" d="M322.1,-546.754C321.83,-538.732 321.529,-529.787 321.241,-521.232"/>
<polygon fill="green" stroke="green" stroke-width="0.186261" points="324.734,-520.956 320.899,-511.079 317.738,-521.191 324.734,-520.956"/>
</g>
<!-- 30543&#45;&gt;ux -->
<g id="edge34" class="edge"><title>30543&#45;&gt;ux</title>
<path fill="none" stroke="green" stroke-width="0.975975" d="M154.392,-467.225C178.369,-451.031 216.243,-425.45 240.601,-408.999"/>
<polygon fill="green" stroke="green" stroke-width="0.975975" points="242.584,-411.882 248.912,-403.385 238.666,-406.082 242.584,-411.882"/>
</g>
<!-- 21296&#45;&gt;22 -->
<g id="edge3" class="edge"><title>21296&#45;&gt;22</title>
<path fill="none" stroke="red" stroke-width="0.253529" d="M243.802,-280.254C230.505,-265.797 212.516,-246.239 199.029,-231.575"/>
<polygon fill="red" stroke="red" stroke-width="0.253529" points="201.404,-228.987 192.058,-223.996 196.252,-233.726 201.404,-228.987"/>
</g>
<!-- 28273&#45;&gt;8704 -->
<g id="edge22" class="edge"><title>28273&#45;&gt;8704</title>
<path fill="none" stroke="green" stroke-width="0.905619" d="M386.325,-55.0854C381.909,-86.9354 374.493,-140.416 369.674,-175.173"/>
<polygon fill="green" stroke="green" stroke-width="0.905619" points="366.175,-174.928 368.268,-185.314 373.109,-175.889 366.175,-174.928"/>
</g>
<!-- 28432&#45;&gt;11836 -->
<g id="edge37" class="edge"><title>28432&#45;&gt;11836</title>
<path fill="none" stroke="red" stroke-width="0.234308" stroke-dasharray="1,5" d="M601.099,-91.9444C603.88,-83.0893 607.041,-73.0233 610.012,-63.5625"/>
<polygon fill="red" stroke="red" stroke-width="0.234308" points="613.359,-64.5877 613.016,-53.9985 606.681,-62.4903 613.359,-64.5877"/>
</g>
<!-- 22&#45;&gt;ux -->
<g id="edge30" class="edge"><title>22&#45;&gt;ux</title>
<path fill="none" stroke="red" stroke-width="0.130208" d="M190.256,-225.398C200.842,-248.005 216.179,-292.758 234,-328.617 240.231,-341.156 248.257,-354.403 254.704,-365.465"/>
<polygon fill="red" stroke="red" stroke-width="0.130208" points="251.68,-367.227 259.675,-374.179 257.76,-363.758 251.68,-367.227"/>
</g>
<!-- 22&#45;&gt;uy -->
<g id="edge43" class="edge"><title>22&#45;&gt;uy</title>
<path fill="none" stroke="green" stroke-width="0.264069" stroke-dasharray="1,5" d="M196.973,-202.474C237.526,-187.154 340.311,-148.325 389.274,-129.828"/>
<polygon fill="green" stroke="green" stroke-width="0.264069" points="390.746,-133.013 398.864,-126.205 388.272,-126.465 390.746,-133.013"/>
</g>
<!-- 22&#45;&gt;11908 -->
<g id="edge11" class="edge"><title>22&#45;&gt;11908</title>
<path fill="none" stroke="green" stroke-width="0.641301" d="M166.081,-197.594C154.735,-186.023 138.962,-167.5 126.456,-151.423"/>
<polygon fill="green" stroke="green" stroke-width="0.641301" points="129.102,-149.12 120.256,-143.289 123.535,-153.363 129.102,-149.12"/>
</g>
<!-- 22&#45;&gt;12777 -->
<g id="edge38" class="edge"><title>22&#45;&gt;12777</title>
<path fill="none" stroke="red" stroke-width="0.226998" d="M191.406,-194.955C201.582,-182.528 216.802,-163.94 229.566,-148.352"/>
<polygon fill="red" stroke="red" stroke-width="0.226998" points="232.35,-150.476 235.977,-140.522 226.934,-146.042 232.35,-150.476"/>
</g>
<!-- 16406 -->
<g id="node20" class="node"><title>16406</title>
<ellipse fill="white" stroke="black" cx="180" cy="-118.731" rx="27.6545" ry="27.6545"/>
<text text-anchor="middle" x="180" y="-116.531" font-family="Times,serif" font-size="9.00">16406</text>
</g>
<!-- 22&#45;&gt;16406 -->
<g id="edge33" class="edge"><title>22&#45;&gt;16406</title>
<path fill="none" stroke="red" stroke-width="0.159903" stroke-dasharray="1,5" d="M180,-191.272C180,-181.381 180,-168.653 180,-156.682"/>
<polygon fill="red" stroke="red" stroke-width="0.159903" points="183.5,-156.447 180,-146.447 176.5,-156.447 183.5,-156.447"/>
</g>
<!-- 11836&#45;&gt;11836 -->
<g id="edge12" class="edge"><title>11836&#45;&gt;11836</title>
<path fill="none" stroke="green" stroke-width="0.615358" d="M643.512,-43.7559C655.582,-46.5052 666.577,-41.1123 666.577,-27.5772 666.577,-18.0603 661.141,-12.5688 653.718,-11.1026"/>
<polygon fill="green" stroke="green" stroke-width="0.615358" points="653.407,-7.6101 643.512,-11.3984 653.609,-14.6072 653.407,-7.6101"/>
</g>
<!-- 12541&#45;&gt;uy -->
<g id="edge24" class="edge"><title>12541&#45;&gt;uy</title>
<path fill="none" stroke="red" stroke-width="0.758343" d="M316.699,-192.86C321.413,-189.38 326.373,-185.72 331,-182.309 352.101,-166.752 376.164,-149.04 393.288,-136.44"/>
<polygon fill="red" stroke="red" stroke-width="0.758343" points="395.577,-139.101 401.558,-130.355 391.429,-133.462 395.577,-139.101"/>
</g>
<!-- 12541&#45;&gt;12777 -->
<g id="edge21" class="edge"><title>12541&#45;&gt;12777</title>
<path fill="none" stroke="red" stroke-width="0.251695" d="M283.523,-184.524C278.986,-174.893 273.696,-163.664 268.807,-153.286"/>
<polygon fill="red" stroke="red" stroke-width="0.251695" points="271.891,-151.619 264.463,-144.064 265.558,-154.602 271.891,-151.619"/>
</g>
<!-- 28095&#45;&gt;ux -->
<g id="edge29" class="edge"><title>28095&#45;&gt;ux</title>
<path fill="none" stroke="green" stroke-width="0.2708" d="M305.579,-459.389C297.363,-446.31 287.091,-429.956 278.812,-416.775"/>
<polygon fill="green" stroke="green" stroke-width="0.2708" points="281.731,-414.843 273.448,-408.236 275.803,-418.566 281.731,-414.843"/>
</g>
</g>
</svg>
