<?xml version="1.0" encoding="UTF-8" standalone="no"?>
<!DOCTYPE svg PUBLIC "-//W3C//DTD SVG 1.1//EN"
 "http://www.w3.org/Graphics/SVG/1.1/DTD/svg11.dtd">
<!-- Generated by graphviz version 2.38.0 (20140413.2041)
 -->
<!-- Title: %3 Pages: 1 -->
<svg width="591pt" height="550pt"
 viewBox="0.00 0.00 590.50 550.30" xmlns="http://www.w3.org/2000/svg" xmlns:xlink="http://www.w3.org/1999/xlink">
<g id="graph0" class="graph" transform="scale(1 1) rotate(0) translate(4 546.299)">
<title>%3</title>
<polygon fill="white" stroke="none" points="-4,4 -4,-546.299 586.5,-546.299 586.5,4 -4,4"/>
<!-- ext -->
<g id="node1" class="node"><title>ext</title>
<polygon fill="lightgray" stroke="black" points="541.5,-542.299 514.5,-542.299 514.5,-524.299 541.5,-524.299 541.5,-542.299"/>
<text text-anchor="middle" x="528" y="-531.099" font-family="Times,serif" font-size="9.00">ext</text>
</g>
<!-- 168 -->
<g id="node14" class="node"><title>168</title>
<ellipse fill="white" stroke="black" cx="528" cy="-460.721" rx="21.4286" ry="21.4286"/>
<text text-anchor="middle" x="528" y="-458.521" font-family="Times,serif" font-size="9.00">168</text>
</g>
<!-- ext&#45;&gt;168 -->
<g id="edge6" class="edge"><title>ext&#45;&gt;168</title>
<path fill="none" stroke="green" stroke-width="0.151907" d="M528,-524.202C528,-516.305 528,-503.798 528,-492.041"/>
<polygon fill="green" stroke="green" stroke-width="0.151907" points="531.5,-492.038 528,-482.038 524.5,-492.038 531.5,-492.038"/>
</g>
<!-- eyt -->
<g id="node2" class="node"><title>eyt</title>
<polygon fill="lightgray" stroke="black" points="450.5,-542.299 423.5,-542.299 423.5,-524.299 450.5,-524.299 450.5,-542.299"/>
<text text-anchor="middle" x="437" y="-531.099" font-family="Times,serif" font-size="9.00">eyt</text>
</g>
<!-- eyt&#45;&gt;168 -->
<g id="edge18" class="edge"><title>eyt&#45;&gt;168</title>
<path fill="none" stroke="red" stroke-width="0.185422" d="M448.697,-524.119C460.934,-515.47 480.607,-501.306 497,-488.299 499.395,-486.398 501.863,-484.384 504.311,-482.348"/>
<polygon fill="red" stroke="red" stroke-width="0.185422" points="507.055,-484.611 512.424,-475.477 502.531,-479.269 507.055,-484.611"/>
</g>
<!-- 169 -->
<g id="node15" class="node"><title>169</title>
<ellipse fill="white" stroke="black" cx="258" cy="-369.567" rx="21.4286" ry="21.4286"/>
<text text-anchor="middle" x="258" y="-367.367" font-family="Times,serif" font-size="9.00">169</text>
</g>
<!-- eyt&#45;&gt;169 -->
<g id="edge10" class="edge"><title>eyt&#45;&gt;169</title>
<path fill="none" stroke="green" stroke-width="0.266203" d="M434.178,-524.03C427.491,-505.518 409.032,-460.24 380,-433.144 353.262,-408.189 338.454,-414.008 306,-397.144 299.143,-393.581 291.812,-389.607 284.995,-385.841"/>
<polygon fill="green" stroke="green" stroke-width="0.266203" points="286.551,-382.701 276.112,-380.892 283.144,-388.816 286.551,-382.701"/>
</g>
<!-- 52285 -->
<g id="node25" class="node"><title>52285</title>
<ellipse fill="white" stroke="black" cx="343" cy="-460.721" rx="27.6545" ry="27.6545"/>
<text text-anchor="middle" x="343" y="-458.521" font-family="Times,serif" font-size="9.00">52285</text>
</g>
<!-- eyt&#45;&gt;52285 -->
<g id="edge17" class="edge"><title>eyt&#45;&gt;52285</title>
<path fill="none" stroke="green" stroke-width="0.382042" d="M426.217,-524.202C413.253,-514.469 390.961,-497.732 372.711,-484.029"/>
<polygon fill="green" stroke="green" stroke-width="0.382042" points="374.756,-481.188 364.658,-477.982 370.553,-486.786 374.756,-481.188"/>
</g>
<!-- sf -->
<g id="node3" class="node"><title>sf</title>
<polygon fill="lightgray" stroke="black" points="582.5,-542.299 559.5,-542.299 559.5,-524.299 582.5,-524.299 582.5,-542.299"/>
<text text-anchor="middle" x="571" y="-531.099" font-family="Times,serif" font-size="9.00">sf</text>
</g>
<!-- sl -->
<g id="node4" class="node"><title>sl</title>
<polygon fill="lightgray" stroke="black" points="208.5,-542.299 185.5,-542.299 185.5,-524.299 208.5,-524.299 208.5,-542.299"/>
<text text-anchor="middle" x="197" y="-531.099" font-family="Times,serif" font-size="9.00">sl</text>
</g>
<!-- 52674 -->
<g id="node9" class="node"><title>52674</title>
<ellipse fill="white" stroke="black" cx="124" cy="-460.721" rx="27.6545" ry="27.6545"/>
<text text-anchor="middle" x="124" y="-458.521" font-family="Times,serif" font-size="9.00">52674</text>
</g>
<!-- sl&#45;&gt;52674 -->
<g id="edge19" class="edge"><title>sl&#45;&gt;52674</title>
<path fill="none" stroke="green" stroke-width="0.179377" d="M188.626,-524.202C179.399,-515.282 164.088,-500.479 150.684,-487.52"/>
<polygon fill="green" stroke="green" stroke-width="0.179377" points="153.107,-484.994 143.485,-480.559 148.241,-490.027 153.107,-484.994"/>
</g>
<!-- 80580 -->
<g id="node10" class="node"><title>80580</title>
<ellipse fill="white" stroke="black" cx="197" cy="-460.721" rx="27.6545" ry="27.6545"/>
<text text-anchor="middle" x="197" y="-458.521" font-family="Times,serif" font-size="9.00">80580</text>
</g>
<!-- sl&#45;&gt;80580 -->
<g id="edge7" class="edge"><title>sl&#45;&gt;80580</title>
<path fill="none" stroke="green" stroke-width="0.206398" d="M197,-524.202C197,-517.753 197,-508.229 197,-498.55"/>
<polygon fill="green" stroke="green" stroke-width="0.206398" points="200.5,-498.529 197,-488.529 193.5,-498.529 200.5,-498.529"/>
</g>
<!-- 170 -->
<g id="node16" class="node"><title>170</title>
<ellipse fill="white" stroke="black" cx="351" cy="-278.413" rx="21.4286" ry="21.4286"/>
<text text-anchor="middle" x="351" y="-276.213" font-family="Times,serif" font-size="9.00">170</text>
</g>
<!-- sl&#45;&gt;170 -->
<g id="edge34" class="edge"><title>sl&#45;&gt;170</title>
<path fill="none" stroke="red" stroke-width="0.785264" d="M208.671,-531.328C245.549,-527.999 358.409,-515.696 380,-488.299 422.032,-434.963 387.937,-349.266 365.961,-306.095"/>
<polygon fill="red" stroke="red" stroke-width="0.785264" points="368.967,-304.291 361.221,-297.063 362.768,-307.544 368.967,-304.291"/>
</g>
<!-- 53195 -->
<g id="node17" class="node"><title>53195</title>
<ellipse fill="white" stroke="black" cx="270" cy="-460.721" rx="27.6545" ry="27.6545"/>
<text text-anchor="middle" x="270" y="-458.521" font-family="Times,serif" font-size="9.00">53195</text>
</g>
<!-- sl&#45;&gt;53195 -->
<g id="edge3" class="edge"><title>sl&#45;&gt;53195</title>
<path fill="none" stroke="green" stroke-width="0.251726" d="M205.374,-524.202C214.601,-515.282 229.912,-500.479 243.316,-487.52"/>
<polygon fill="green" stroke="green" stroke-width="0.251726" points="245.759,-490.027 250.515,-480.559 240.893,-484.994 245.759,-490.027"/>
</g>
<!-- 52439 -->
<g id="node22" class="node"><title>52439</title>
<ellipse fill="white" stroke="black" cx="109" cy="-101.761" rx="27.6545" ry="27.6545"/>
<text text-anchor="middle" x="109" y="-99.5609" font-family="Times,serif" font-size="9.00">52439</text>
</g>
<!-- sl&#45;&gt;52439 -->
<g id="edge16" class="edge"><title>sl&#45;&gt;52439</title>
<path fill="none" stroke="red" stroke-width="0.121005" d="M185.341,-529.872C164.023,-524.983 118.097,-512.306 87,-488.299 35.5002,-448.539 0,-435.629 0,-370.567 0,-370.567 0,-370.567 0,-277.413 0,-216.197 48.7873,-158.718 81.0824,-127.376"/>
<polygon fill="red" stroke="red" stroke-width="0.121005" points="83.6437,-129.771 88.4979,-120.353 78.8305,-124.688 83.6437,-129.771"/>
</g>
<!-- sr -->
<g id="node5" class="node"><title>sr</title>
<polygon fill="lightgray" stroke="black" points="488.5,-469.721 465.5,-469.721 465.5,-451.721 488.5,-451.721 488.5,-469.721"/>
<text text-anchor="middle" x="477" y="-458.521" font-family="Times,serif" font-size="9.00">sr</text>
</g>
<!-- 13127 -->
<g id="node13" class="node"><title>13127</title>
<ellipse fill="white" stroke="black" cx="466" cy="-369.567" rx="27.6545" ry="27.6545"/>
<text text-anchor="middle" x="466" y="-367.367" font-family="Times,serif" font-size="9.00">13127</text>
</g>
<!-- sr&#45;&gt;13127 -->
<g id="edge29" class="edge"><title>sr&#45;&gt;13127</title>
<path fill="none" stroke="green" stroke-width="0.811788" d="M475.985,-451.494C474.734,-441.355 472.525,-423.455 470.503,-407.064"/>
<polygon fill="green" stroke="green" stroke-width="0.811788" points="473.976,-406.631 469.278,-397.135 467.029,-407.489 473.976,-406.631"/>
</g>
<!-- ux -->
<g id="node6" class="node"><title>ux</title>
<ellipse fill="lightblue" stroke="black" cx="202" cy="-190.087" rx="18.2703" ry="18.2703"/>
<text text-anchor="middle" x="202" y="-187.887" font-family="Times,serif" font-size="9.00">ux</text>
</g>
<!-- uy -->
<g id="node7" class="node"><title>uy</title>
<ellipse fill="lightblue" stroke="black" cx="290" cy="-190.087" rx="18.2703" ry="18.2703"/>
<text text-anchor="middle" x="290" y="-187.887" font-family="Times,serif" font-size="9.00">uy</text>
</g>
<!-- 16627 -->
<g id="node20" class="node"><title>16627</title>
<ellipse fill="white" stroke="black" cx="290" cy="-101.761" rx="27.6545" ry="27.6545"/>
<text text-anchor="middle" x="290" y="-99.5609" font-family="Times,serif" font-size="9.00">16627</text>
</g>
<!-- uy&#45;&gt;16627 -->
<g id="edge31" class="edge"><title>uy&#45;&gt;16627</title>
<path fill="none" stroke="red" stroke-width="0.709326" d="M290,-171.617C290,-162.338 290,-150.568 290,-139.396"/>
<polygon fill="red" stroke="red" stroke-width="0.709326" points="293.5,-139.392 290,-129.392 286.5,-139.392 293.5,-139.392"/>
</g>
<!-- uy&#45;&gt;52439 -->
<g id="edge4" class="edge"><title>uy&#45;&gt;52439</title>
<path fill="none" stroke="red" stroke-width="0.833111" d="M273.618,-181.274C244.257,-167.27 182.104,-137.627 143.129,-119.038"/>
<polygon fill="red" stroke="red" stroke-width="0.833111" points="144.286,-115.713 133.754,-114.567 141.273,-122.031 144.286,-115.713"/>
</g>
<!-- wz -->
<g id="node8" class="node"><title>wz</title>
<ellipse fill="lightblue" stroke="black" cx="109" cy="-19.0919" rx="19.1842" ry="19.1842"/>
<text text-anchor="middle" x="109" y="-16.8919" font-family="Times,serif" font-size="9.00">wz</text>
</g>
<!-- wz&#45;&gt;wz -->
<g id="edge12" class="edge"><title>wz&#45;&gt;wz</title>
<path fill="none" stroke="green" stroke-width="0.152316" d="M123.082,-32.3048C134.404,-37.5899 146.092,-33.1856 146.092,-19.0919 146.092,-9.18222 140.314,-4.06287 132.947,-3.73383"/>
<polygon fill="green" stroke="green" stroke-width="0.152316" points="132.109,-0.33405 123.082,-5.87899 133.597,-7.17421 132.109,-0.33405"/>
</g>
<!-- 53834 -->
<g id="node18" class="node"><title>53834</title>
<ellipse fill="white" stroke="black" cx="157" cy="-369.567" rx="27.6545" ry="27.6545"/>
<text text-anchor="middle" x="157" y="-367.367" font-family="Times,serif" font-size="9.00">53834</text>
</g>
<!-- 52674&#45;&gt;53834 -->
<g id="edge22" class="edge"><title>52674&#45;&gt;53834</title>
<path fill="none" stroke="red" stroke-width="0.173123" d="M133.368,-434.412C136.741,-425.3 140.606,-414.858 144.22,-405.094"/>
<polygon fill="red" stroke="red" stroke-width="0.173123" points="147.534,-406.225 147.723,-395.631 140.969,-403.795 147.534,-406.225"/>
</g>
<!-- 80580&#45;&gt;169 -->
<g id="edge14" class="edge"><title>80580&#45;&gt;169</title>
<path fill="none" stroke="green" stroke-width="0.295864" d="M212.393,-437.224C220.996,-424.65 231.744,-408.941 240.645,-395.932"/>
<polygon fill="green" stroke="green" stroke-width="0.295864" points="243.705,-397.658 246.464,-387.428 237.928,-393.705 243.705,-397.658"/>
</g>
<!-- 30112 -->
<g id="node11" class="node"><title>30112</title>
<ellipse fill="white" stroke="black" cx="539" cy="-369.567" rx="27.6545" ry="27.6545"/>
<text text-anchor="middle" x="539" y="-367.367" font-family="Times,serif" font-size="9.00">30112</text>
</g>
<!-- 52866 -->
<g id="node12" class="node"><title>52866</title>
<ellipse fill="white" stroke="black" cx="56" cy="-278.413" rx="27.6545" ry="27.6545"/>
<text text-anchor="middle" x="56" y="-276.213" font-family="Times,serif" font-size="9.00">52866</text>
</g>
<!-- 52866&#45;&gt;ux -->
<g id="edge30" class="edge"><title>52866&#45;&gt;ux</title>
<path fill="none" stroke="red" stroke-width="0.525506" d="M77.3609,-260.894C82.0959,-257.445 87.15,-253.922 92,-250.836 120.075,-232.968 153.919,-215.099 176.587,-203.622"/>
<polygon fill="red" stroke="red" stroke-width="0.525506" points="178.201,-206.728 185.568,-199.114 175.061,-200.472 178.201,-206.728"/>
</g>
<!-- 13127&#45;&gt;170 -->
<g id="edge20" class="edge"><title>13127&#45;&gt;170</title>
<path fill="none" stroke="green" stroke-width="0.234751" d="M444.639,-352.007C425,-336.782 395.903,-314.224 375.366,-298.302"/>
<polygon fill="green" stroke="green" stroke-width="0.234751" points="377.459,-295.497 367.412,-292.136 373.171,-301.029 377.459,-295.497"/>
</g>
<!-- 168&#45;&gt;30112 -->
<g id="edge5" class="edge"><title>168&#45;&gt;30112</title>
<path fill="none" stroke="red" stroke-width="0.38393" d="M530.496,-439.491C531.668,-429.991 533.103,-418.364 534.457,-407.384"/>
<polygon fill="red" stroke="red" stroke-width="0.38393" points="537.97,-407.5 535.721,-397.147 531.022,-406.643 537.97,-407.5"/>
</g>
<!-- 168&#45;&gt;13127 -->
<g id="edge11" class="edge"><title>168&#45;&gt;13127</title>
<path fill="none" stroke="green" stroke-width="0.133611" d="M516.338,-442.952C508.146,-431.173 496.955,-415.08 487.205,-401.059"/>
<polygon fill="green" stroke="green" stroke-width="0.133611" points="489.942,-398.865 481.359,-392.654 484.195,-402.862 489.942,-398.865"/>
</g>
<!-- 169&#45;&gt;ux -->
<g id="edge13" class="edge"><title>169&#45;&gt;ux</title>
<path fill="none" stroke="green" stroke-width="0.163713" d="M257.12,-347.948C255.545,-323.942 251.163,-283.422 239,-250.836 234.067,-237.619 226.042,-224.153 218.725,-213.358"/>
<polygon fill="green" stroke="green" stroke-width="0.163713" points="221.447,-211.145 212.828,-204.984 215.723,-215.175 221.447,-211.145"/>
</g>
<!-- 169&#45;&gt;uy -->
<g id="edge8" class="edge"><title>169&#45;&gt;uy</title>
<path fill="none" stroke="green" stroke-width="0.405753" d="M262.807,-348.626C265.676,-336.368 269.278,-320.317 272,-305.99 277.628,-276.364 282.816,-242.198 286.161,-218.873"/>
<polygon fill="green" stroke="green" stroke-width="0.405753" points="289.67,-219.06 287.607,-208.668 282.739,-218.078 289.67,-219.06"/>
</g>
<!-- 169&#45;&gt;169 -->
<g id="edge33" class="edge"><title>169&#45;&gt;169</title>
<path fill="none" stroke="green" stroke-width="0.331045" d="M273.703,-384.448C285.412,-389.645 297.213,-384.684 297.213,-369.567 297.213,-358.82 291.249,-353.206 283.593,-352.726"/>
<polygon fill="green" stroke="green" stroke-width="0.331045" points="282.832,-349.308 273.703,-354.686 284.193,-356.175 282.832,-349.308"/>
</g>
<!-- 170&#45;&gt;ux -->
<g id="edge21" class="edge"><title>170&#45;&gt;ux</title>
<path fill="none" stroke="red" stroke-width="1.90804" d="M333.027,-267C306.487,-251.623 256.728,-222.795 226.754,-205.428"/>
<polygon fill="red" stroke="red" stroke-width="1.90804" points="228.179,-202.209 217.772,-200.224 224.67,-208.266 228.179,-202.209"/>
</g>
<!-- 170&#45;&gt;uy -->
<g id="edge32" class="edge"><title>170&#45;&gt;uy</title>
<path fill="none" stroke="green" stroke-width="1.13178" d="M338.948,-260.358C329.575,-247.092 316.477,-228.557 306.189,-213.997"/>
<polygon fill="green" stroke="green" stroke-width="1.13178" points="308.834,-211.675 300.205,-205.528 303.117,-215.715 308.834,-211.675"/>
</g>
<!-- 170&#45;&gt;170 -->
<g id="edge25" class="edge"><title>170&#45;&gt;170</title>
<path fill="none" stroke="red" stroke-width="0.249684" d="M366.703,-292.963C378.412,-298.044 390.213,-293.194 390.213,-278.413 390.213,-267.904 384.249,-262.415 376.593,-261.946"/>
<polygon fill="red" stroke="red" stroke-width="0.249684" points="375.855,-258.524 366.703,-263.862 377.187,-265.396 375.855,-258.524"/>
</g>
<!-- 1047 -->
<g id="node21" class="node"><title>1047</title>
<ellipse fill="white" stroke="black" cx="351" cy="-190.087" rx="25" ry="25"/>
<text text-anchor="middle" x="351" y="-187.887" font-family="Times,serif" font-size="9.00">1047</text>
</g>
<!-- 170&#45;&gt;1047 -->
<g id="edge1" class="edge"><title>170&#45;&gt;1047</title>
<path fill="none" stroke="green" stroke-width="0.714598" d="M345.239,-257.824C344.313,-247.922 344.037,-235.631 344.412,-224.306"/>
<polygon fill="green" stroke="green" stroke-width="0.714598" points="347.909,-224.444 344.939,-214.274 340.919,-224.076 347.909,-224.444"/>
</g>
<!-- 53195&#45;&gt;169 -->
<g id="edge2" class="edge"><title>53195&#45;&gt;169</title>
<path fill="none" stroke="red" stroke-width="0.145047" d="M266.4,-432.972C265.033,-422.817 263.467,-411.183 262.06,-400.733"/>
<polygon fill="red" stroke="red" stroke-width="0.145047" points="265.523,-400.22 260.72,-390.777 258.585,-401.154 265.523,-400.22"/>
</g>
<!-- 52589 -->
<g id="node19" class="node"><title>52589</title>
<ellipse fill="white" stroke="black" cx="202" cy="-278.413" rx="27.6545" ry="27.6545"/>
<text text-anchor="middle" x="202" y="-276.213" font-family="Times,serif" font-size="9.00">52589</text>
</g>
<!-- 53834&#45;&gt;52589 -->
<g id="edge26" class="edge"><title>53834&#45;&gt;52589</title>
<path fill="none" stroke="red" stroke-width="0.100459" d="M169.059,-344.675C174.053,-334.782 179.928,-323.142 185.324,-312.452"/>
<polygon fill="red" stroke="red" stroke-width="0.100459" points="188.526,-313.875 189.908,-303.37 182.277,-310.721 188.526,-313.875"/>
</g>
<!-- 52589&#45;&gt;ux -->
<g id="edge23" class="edge"><title>52589&#45;&gt;ux</title>
<path fill="none" stroke="green" stroke-width="0.1468" d="M202,-250.572C202,-240.433 202,-228.886 202,-218.679"/>
<polygon fill="green" stroke="green" stroke-width="0.1468" points="205.5,-218.644 202,-208.644 198.5,-218.644 205.5,-218.644"/>
</g>
<!-- 1047&#45;&gt;170 -->
<g id="edge24" class="edge"><title>1047&#45;&gt;170</title>
<path fill="none" stroke="red" stroke-width="2.37691" d="M357.061,-214.274C357.826,-224.587 357.954,-236.851 357.444,-247.816"/>
<polygon fill="red" stroke="red" stroke-width="2.37691" points="353.951,-247.609 356.761,-257.824 360.934,-248.086 353.951,-247.609"/>
</g>
<!-- 52439&#45;&gt;wz -->
<g id="edge28" class="edge"><title>52439&#45;&gt;wz</title>
<path fill="none" stroke="green" stroke-width="0.463328" d="M109,-73.8993C109,-65.6493 109,-56.5497 109,-48.2175"/>
<polygon fill="green" stroke="green" stroke-width="0.463328" points="112.5,-48.1956 109,-38.1956 105.5,-48.1956 112.5,-48.1956"/>
</g>
<!-- 54009 -->
<g id="node23" class="node"><title>54009</title>
<ellipse fill="white" stroke="black" cx="129" cy="-278.413" rx="27.6545" ry="27.6545"/>
<text text-anchor="middle" x="129" y="-276.213" font-family="Times,serif" font-size="9.00">54009</text>
</g>
<!-- 54009&#45;&gt;ux -->
<g id="edge27" class="edge"><title>54009&#45;&gt;ux</title>
<path fill="none" stroke="red" stroke-width="0.23075" d="M146.671,-256.516C157.993,-243.127 172.643,-225.803 184.024,-212.344"/>
<polygon fill="red" stroke="red" stroke-width="0.23075" points="186.844,-214.43 190.629,-204.534 181.499,-209.91 186.844,-214.43"/>
</g>
<!-- 30492 -->
<g id="node24" class="node"><title>30492</title>
<ellipse fill="white" stroke="black" cx="343" cy="-369.567" rx="27.6545" ry="27.6545"/>
<text text-anchor="middle" x="343" y="-367.367" font-family="Times,serif" font-size="9.00">30492</text>
</g>
<!-- 30492&#45;&gt;170 -->
<g id="edge9" class="edge"><title>30492&#45;&gt;170</title>
<path fill="none" stroke="green" stroke-width="0.48682" d="M345.4,-341.818C346.302,-331.768 347.334,-320.271 348.264,-309.906"/>
<polygon fill="green" stroke="green" stroke-width="0.48682" points="351.779,-309.895 349.187,-299.622 344.807,-309.269 351.779,-309.895"/>
</g>
<!-- 52285&#45;&gt;169 -->
<g id="edge15" class="edge"><title>52285&#45;&gt;169</title>
<path fill="none" stroke="red" stroke-width="0.192997" d="M324.136,-439.935C310.93,-426.084 293.261,-407.551 279.507,-393.126"/>
<polygon fill="red" stroke="red" stroke-width="0.192997" points="281.757,-390.413 272.323,-385.59 276.69,-395.243 281.757,-390.413"/>
</g>
</g>
</svg>
