<?xml version="1.0" encoding="UTF-8" standalone="no"?>
<!DOCTYPE svg PUBLIC "-//W3C//DTD SVG 1.1//EN"
 "http://www.w3.org/Graphics/SVG/1.1/DTD/svg11.dtd">
<!-- Generated by graphviz version 2.38.0 (20140413.2041)
 -->
<!-- Title: %3 Pages: 1 -->
<svg width="483pt" height="623pt"
 viewBox="0.00 0.00 483.26 623.07" xmlns="http://www.w3.org/2000/svg" xmlns:xlink="http://www.w3.org/1999/xlink">
<g id="graph0" class="graph" transform="scale(1 1) rotate(0) translate(4 619.068)">
<title>%3</title>
<polygon fill="white" stroke="none" points="-4,4 -4,-619.068 479.26,-619.068 479.26,4 -4,4"/>
<!-- ext -->
<g id="node1" class="node"><title>ext</title>
<polygon fill="lightgray" stroke="black" points="258.011,-371.496 231.011,-371.496 231.011,-353.496 258.011,-353.496 258.011,-371.496"/>
<text text-anchor="middle" x="244.511" y="-360.296" font-family="Times,serif" font-size="9.00">ext</text>
</g>
<!-- 9072 -->
<g id="node15" class="node"><title>9072</title>
<ellipse fill="white" stroke="black" cx="223.511" cy="-271.342" rx="25" ry="25"/>
<text text-anchor="middle" x="223.511" y="-269.142" font-family="Times,serif" font-size="9.00">9072</text>
</g>
<!-- ext&#45;&gt;9072 -->
<g id="edge35" class="edge"><title>ext&#45;&gt;9072</title>
<path fill="none" stroke="red" stroke-width="0.263433" d="M242.573,-353.268C240.027,-342.458 235.401,-322.822 231.345,-305.6"/>
<polygon fill="red" stroke="red" stroke-width="0.263433" points="234.742,-304.755 229.042,-295.824 227.928,-306.36 234.742,-304.755"/>
</g>
<!-- 211 -->
<g id="node18" class="node"><title>211</title>
<ellipse fill="white" stroke="black" cx="360.511" cy="-271.342" rx="21.4286" ry="21.4286"/>
<text text-anchor="middle" x="360.511" y="-269.142" font-family="Times,serif" font-size="9.00">211</text>
</g>
<!-- ext&#45;&gt;211 -->
<g id="edge5" class="edge"><title>ext&#45;&gt;211</title>
<path fill="none" stroke="green" stroke-width="0.283658" d="M250.004,-353.382C254.099,-347.739 260.075,-340.295 266.511,-334.919 291.559,-313.998 303.924,-317.846 330.511,-298.919 332.902,-297.216 335.32,-295.353 337.691,-293.429"/>
<polygon fill="green" stroke="green" stroke-width="0.283658" points="340.131,-295.948 345.463,-286.793 335.585,-290.625 340.131,-295.948"/>
</g>
<!-- 212 -->
<g id="node19" class="node"><title>212</title>
<ellipse fill="white" stroke="black" cx="159.511" cy="-271.342" rx="21.4286" ry="21.4286"/>
<text text-anchor="middle" x="159.511" y="-269.142" font-family="Times,serif" font-size="9.00">212</text>
</g>
<!-- ext&#45;&gt;212 -->
<g id="edge32" class="edge"><title>ext&#45;&gt;212</title>
<path fill="none" stroke="red" stroke-width="0.305638" d="M236.667,-353.268C224.096,-340.084 199.01,-313.772 180.848,-294.722"/>
<polygon fill="red" stroke="red" stroke-width="0.305638" points="183.22,-292.137 173.786,-287.314 178.153,-296.967 183.22,-292.137"/>
</g>
<!-- 16026 -->
<g id="node22" class="node"><title>16026</title>
<ellipse fill="white" stroke="black" cx="293.511" cy="-271.342" rx="27.6545" ry="27.6545"/>
<text text-anchor="middle" x="293.511" y="-269.142" font-family="Times,serif" font-size="9.00">16026</text>
</g>
<!-- ext&#45;&gt;16026 -->
<g id="edge23" class="edge"><title>ext&#45;&gt;16026</title>
<path fill="none" stroke="green" stroke-width="0.581477" d="M249.033,-353.268C255.086,-342.256 266.171,-322.085 275.761,-304.637"/>
<polygon fill="green" stroke="green" stroke-width="0.581477" points="278.855,-306.274 280.605,-295.824 272.721,-302.902 278.855,-306.274"/>
</g>
<!-- eyt -->
<g id="node2" class="node"><title>eyt</title>
<polygon fill="lightgray" stroke="black" points="173.011,-371.496 146.011,-371.496 146.011,-353.496 173.011,-353.496 173.011,-371.496"/>
<text text-anchor="middle" x="159.511" y="-360.296" font-family="Times,serif" font-size="9.00">eyt</text>
</g>
<!-- eyt&#45;&gt;212 -->
<g id="edge27" class="edge"><title>eyt&#45;&gt;212</title>
<path fill="none" stroke="red" stroke-width="0.72835" d="M159.511,-353.268C159.511,-341.881 159.511,-320.703 159.511,-302.867"/>
<polygon fill="red" stroke="red" stroke-width="0.72835" points="163.011,-302.851 159.511,-292.851 156.011,-302.851 163.011,-302.851"/>
</g>
<!-- sf -->
<g id="node3" class="node"><title>sf</title>
<polygon fill="lightgray" stroke="black" points="140.011,-545.319 117.011,-545.319 117.011,-527.319 140.011,-527.319 140.011,-545.319"/>
<text text-anchor="middle" x="128.511" y="-534.119" font-family="Times,serif" font-size="9.00">sf</text>
</g>
<!-- 335 -->
<g id="node14" class="node"><title>335</title>
<ellipse fill="white" stroke="black" cx="127.511" cy="-450.822" rx="21.4286" ry="21.4286"/>
<text text-anchor="middle" x="127.511" y="-448.622" font-family="Times,serif" font-size="9.00">335</text>
</g>
<!-- sf&#45;&gt;335 -->
<g id="edge34" class="edge"><title>sf&#45;&gt;335</title>
<path fill="none" stroke="green" stroke-width="1.13257" d="M128.415,-527.313C128.292,-517 128.07,-498.483 127.877,-482.369"/>
<polygon fill="green" stroke="green" stroke-width="1.13257" points="131.375,-482.195 127.755,-472.238 124.376,-482.279 131.375,-482.195"/>
</g>
<!-- sl -->
<g id="node4" class="node"><title>sl</title>
<polygon fill="lightgray" stroke="black" points="375.011,-545.319 352.011,-545.319 352.011,-527.319 375.011,-527.319 375.011,-545.319"/>
<text text-anchor="middle" x="363.511" y="-534.119" font-family="Times,serif" font-size="9.00">sl</text>
</g>
<!-- wz -->
<g id="node8" class="node"><title>wz</title>
<ellipse fill="lightblue" stroke="black" cx="240.511" cy="-450.822" rx="19.1842" ry="19.1842"/>
<text text-anchor="middle" x="240.511" y="-448.622" font-family="Times,serif" font-size="9.00">wz</text>
</g>
<!-- sl&#45;&gt;wz -->
<g id="edge4" class="edge"><title>sl&#45;&gt;wz</title>
<path fill="none" stroke="red" stroke-width="0.549695" d="M351.766,-527.724C334.493,-516.509 301.279,-494.769 273.511,-475.571 270.365,-473.395 267.072,-471.077 263.836,-468.774"/>
<polygon fill="red" stroke="red" stroke-width="0.549695" points="265.705,-465.807 255.54,-462.819 261.623,-471.494 265.705,-465.807"/>
</g>
<!-- 7150 -->
<g id="node13" class="node"><title>7150</title>
<ellipse fill="white" stroke="black" cx="450.511" cy="-450.822" rx="25" ry="25"/>
<text text-anchor="middle" x="450.511" y="-448.622" font-family="Times,serif" font-size="9.00">7150</text>
</g>
<!-- sl&#45;&gt;7150 -->
<g id="edge6" class="edge"><title>sl&#45;&gt;7150</title>
<path fill="none" stroke="green" stroke-width="0.239075" d="M371.853,-527.313C384.133,-515.527 407.58,-493.024 425.692,-475.641"/>
<polygon fill="green" stroke="green" stroke-width="0.239075" points="428.289,-478.001 433.08,-468.551 423.442,-472.95 428.289,-478.001"/>
</g>
<!-- sl&#45;&gt;211 -->
<g id="edge31" class="edge"><title>sl&#45;&gt;211</title>
<path fill="none" stroke="green" stroke-width="0.442977" d="M363.763,-527.298C364.57,-500.217 366.898,-409.684 364.511,-334.919 364.176,-324.421 363.525,-312.947 362.844,-302.724"/>
<polygon fill="green" stroke="green" stroke-width="0.442977" points="366.327,-302.348 362.136,-292.617 359.344,-302.837 366.327,-302.348"/>
</g>
<!-- sl&#45;&gt;212 -->
<g id="edge30" class="edge"><title>sl&#45;&gt;212</title>
<path fill="none" stroke="green" stroke-width="0.143634" d="M357.338,-527.149C342.895,-508.286 305.326,-460.67 268.511,-426.073 249.336,-408.054 238.481,-410.182 221.511,-390.073 198.626,-362.955 180.882,-325.992 170.349,-300.762"/>
<polygon fill="green" stroke="green" stroke-width="0.143634" points="173.546,-299.334 166.54,-291.386 167.061,-301.968 173.546,-299.334"/>
</g>
<!-- sr -->
<g id="node5" class="node"><title>sr</title>
<polygon fill="lightgray" stroke="black" points="191.011,-615.068 168.011,-615.068 168.011,-597.068 191.011,-597.068 191.011,-615.068"/>
<text text-anchor="middle" x="179.511" y="-603.868" font-family="Times,serif" font-size="9.00">sr</text>
</g>
<!-- ux -->
<g id="node6" class="node"><title>ux</title>
<ellipse fill="lightblue" stroke="black" cx="110.511" cy="-18.3848" rx="18.2703" ry="18.2703"/>
<text text-anchor="middle" x="110.511" y="-16.1848" font-family="Times,serif" font-size="9.00">ux</text>
</g>
<!-- sr&#45;&gt;ux -->
<g id="edge17" class="edge"><title>sr&#45;&gt;ux</title>
<path fill="none" stroke="green" stroke-width="0.385528" d="M167.933,-605.651C138.69,-606.437 61.4194,-604.121 22.5109,-561.068 -10.5328,-524.505 3.51094,-501.105 3.51094,-451.822 3.51094,-451.822 3.51094,-451.822 3.51094,-182.016 3.51094,-120.586 57.4483,-64.4052 88.733,-36.9859"/>
<polygon fill="green" stroke="green" stroke-width="0.385528" points="91.1861,-39.4937 96.5226,-30.341 86.6431,-34.1681 91.1861,-39.4937"/>
</g>
<!-- sr&#45;&gt;wz -->
<g id="edge22" class="edge"><title>sr&#45;&gt;wz</title>
<path fill="none" stroke="green" stroke-width="0.813377" d="M191.232,-604.345C214.349,-602.211 265.481,-593.831 287.511,-561.068 306.68,-532.56 281.078,-494.962 260.805,-472.131"/>
<polygon fill="green" stroke="green" stroke-width="0.813377" points="263.299,-469.673 253.938,-464.711 258.161,-474.428 263.299,-469.673"/>
</g>
<!-- 386 -->
<g id="node9" class="node"><title>386</title>
<ellipse fill="white" stroke="black" cx="179.511" cy="-536.319" rx="21.4286" ry="21.4286"/>
<text text-anchor="middle" x="179.511" y="-534.119" font-family="Times,serif" font-size="9.00">386</text>
</g>
<!-- sr&#45;&gt;386 -->
<g id="edge33" class="edge"><title>sr&#45;&gt;386</title>
<path fill="none" stroke="red" stroke-width="0.309847" d="M179.511,-597.03C179.511,-589.752 179.511,-578.557 179.511,-567.819"/>
<polygon fill="red" stroke="red" stroke-width="0.309847" points="183.011,-567.806 179.511,-557.806 176.011,-567.806 183.011,-567.806"/>
</g>
<!-- 2853 -->
<g id="node10" class="node"><title>2853</title>
<ellipse fill="white" stroke="black" cx="56.5109" cy="-536.319" rx="25" ry="25"/>
<text text-anchor="middle" x="56.5109" y="-534.119" font-family="Times,serif" font-size="9.00">2853</text>
</g>
<!-- sr&#45;&gt;2853 -->
<g id="edge12" class="edge"><title>sr&#45;&gt;2853</title>
<path fill="none" stroke="green" stroke-width="0.720128" d="M167.717,-598.572C149.214,-588.381 112.783,-568.314 86.657,-553.924"/>
<polygon fill="green" stroke="green" stroke-width="0.720128" points="88.3398,-550.855 77.892,-549.096 84.9626,-556.986 88.3398,-550.855"/>
</g>
<!-- 208 -->
<g id="node16" class="node"><title>208</title>
<ellipse fill="white" stroke="black" cx="239.511" cy="-536.319" rx="21.4286" ry="21.4286"/>
<text text-anchor="middle" x="239.511" y="-534.119" font-family="Times,serif" font-size="9.00">208</text>
</g>
<!-- sr&#45;&gt;208 -->
<g id="edge20" class="edge"><title>sr&#45;&gt;208</title>
<path fill="none" stroke="red" stroke-width="0.158279" d="M186.629,-597.03C194.598,-588.032 207.871,-573.046 219.125,-560.338"/>
<polygon fill="red" stroke="red" stroke-width="0.158279" points="221.796,-562.601 225.806,-552.795 216.555,-557.96 221.796,-562.601"/>
</g>
<!-- ux&#45;&gt;ux -->
<g id="edge18" class="edge"><title>ux&#45;&gt;ux</title>
<path fill="none" stroke="green" stroke-width="0.346188" d="M124.324,-30.9531C135.431,-35.9805 146.896,-31.791 146.896,-18.3848 146.896,-9.16798 141.477,-4.30756 134.481,-3.80352"/>
<polygon fill="green" stroke="green" stroke-width="0.346188" points="133.453,-0.439076 124.324,-5.81642 134.814,-7.30553 133.453,-0.439076"/>
</g>
<!-- uy -->
<g id="node7" class="node"><title>uy</title>
<ellipse fill="lightblue" stroke="black" cx="185.511" cy="-450.822" rx="18.2703" ry="18.2703"/>
<text text-anchor="middle" x="185.511" y="-448.622" font-family="Times,serif" font-size="9.00">uy</text>
</g>
<!-- wz&#45;&gt;211 -->
<g id="edge24" class="edge"><title>wz&#45;&gt;211</title>
<path fill="none" stroke="green" stroke-width="0.739396" d="M258.6,-444.296C281.58,-436.278 320.634,-419.112 340.511,-390.073 358.135,-364.325 361.95,-328.161 362.1,-302.727"/>
<polygon fill="green" stroke="green" stroke-width="0.739396" points="365.598,-302.5 361.97,-292.546 358.598,-302.59 365.598,-302.5"/>
</g>
<!-- 386&#45;&gt;uy -->
<g id="edge3" class="edge"><title>386&#45;&gt;uy</title>
<path fill="none" stroke="red" stroke-width="0.410588" d="M180.963,-515.107C181.733,-504.391 182.691,-491.068 183.528,-479.414"/>
<polygon fill="red" stroke="red" stroke-width="0.410588" points="187.029,-479.529 184.255,-469.303 180.047,-479.027 187.029,-479.529"/>
</g>
<!-- 386&#45;&gt;wz -->
<g id="edge1" class="edge"><title>386&#45;&gt;wz</title>
<path fill="none" stroke="red" stroke-width="1.02915" d="M191.563,-518.823C200.764,-506.228 213.553,-488.722 223.751,-474.763"/>
<polygon fill="red" stroke="red" stroke-width="1.02915" points="226.638,-476.745 229.711,-466.605 220.985,-472.615 226.638,-476.745"/>
</g>
<!-- 386&#45;&gt;335 -->
<g id="edge13" class="edge"><title>386&#45;&gt;335</title>
<path fill="none" stroke="green" stroke-width="0.669226" d="M168.737,-518.019C161.534,-506.453 151.924,-491.022 143.794,-477.968"/>
<polygon fill="green" stroke="green" stroke-width="0.669226" points="146.708,-476.026 138.45,-469.388 140.766,-479.726 146.708,-476.026"/>
</g>
<!-- 2853&#45;&gt;2853 -->
<g id="edge25" class="edge"><title>2853&#45;&gt;2853</title>
<path fill="none" stroke="green" stroke-width="0.147118" d="M78.0666,-548.621C89.2126,-550.514 99.2597,-546.413 99.2597,-536.319 99.2597,-529.538 94.7243,-525.461 88.3674,-524.09"/>
<polygon fill="green" stroke="green" stroke-width="0.147118" points="88.0912,-520.588 78.0666,-524.018 88.0416,-527.588 88.0912,-520.588"/>
</g>
<!-- 36007 -->
<g id="node11" class="node"><title>36007</title>
<ellipse fill="white" stroke="black" cx="303.511" cy="-362.496" rx="27.6545" ry="27.6545"/>
<text text-anchor="middle" x="303.511" y="-360.296" font-family="Times,serif" font-size="9.00">36007</text>
</g>
<!-- 36007&#45;&gt;211 -->
<g id="edge26" class="edge"><title>36007&#45;&gt;211</title>
<path fill="none" stroke="red" stroke-width="0.781903" d="M318.19,-338.537C326.047,-326.248 335.752,-311.067 343.887,-298.344"/>
<polygon fill="red" stroke="red" stroke-width="0.781903" points="347.045,-299.902 349.483,-289.591 341.147,-296.131 347.045,-299.902"/>
</g>
<!-- 301 -->
<g id="node12" class="node"><title>301</title>
<ellipse fill="white" stroke="black" cx="176.511" cy="-97.5183" rx="21.4286" ry="21.4286"/>
<text text-anchor="middle" x="176.511" y="-95.3183" font-family="Times,serif" font-size="9.00">301</text>
</g>
<!-- 301&#45;&gt;212 -->
<g id="edge7" class="edge"><title>301&#45;&gt;212</title>
<path fill="none" stroke="green" stroke-width="0.108305" d="M174.497,-118.877C171.533,-148.83 165.977,-204.988 162.526,-239.868"/>
<polygon fill="green" stroke="green" stroke-width="0.108305" points="159.029,-239.66 161.528,-249.957 165.995,-240.35 159.029,-239.66"/>
</g>
<!-- 335&#45;&gt;ux -->
<g id="edge28" class="edge"><title>335&#45;&gt;ux</title>
<path fill="none" stroke="green" stroke-width="0.725882" d="M124.313,-429.653C119.389,-396.791 110.511,-329.606 110.511,-272.342 110.511,-272.342 110.511,-272.342 110.511,-182.016 110.511,-134.58 110.511,-79.3604 110.511,-47.0049"/>
<polygon fill="green" stroke="green" stroke-width="0.725882" points="114.011,-46.9529 110.511,-36.9529 107.011,-46.953 114.011,-46.9529"/>
</g>
<!-- 335&#45;&gt;36007 -->
<g id="edge16" class="edge"><title>335&#45;&gt;36007</title>
<path fill="none" stroke="green" stroke-width="0.298882" d="M143.231,-436.175C147.93,-432.549 153.24,-428.869 158.511,-426.073 203.208,-402.362 221.454,-413.093 266.511,-390.073 268.853,-388.877 271.21,-387.543 273.54,-386.127"/>
<polygon fill="green" stroke="green" stroke-width="0.298882" points="275.856,-388.794 282.297,-380.381 272.016,-382.941 275.856,-388.794"/>
</g>
<!-- 208&#45;&gt;uy -->
<g id="edge11" class="edge"><title>208&#45;&gt;uy</title>
<path fill="none" stroke="red" stroke-width="0.16696" d="M228.322,-518.019C220.34,-505.677 209.512,-488.934 200.743,-475.374"/>
<polygon fill="red" stroke="red" stroke-width="0.16696" points="203.431,-473.085 195.061,-466.589 197.553,-476.887 203.431,-473.085"/>
</g>
<!-- 208&#45;&gt;wz -->
<g id="edge19" class="edge"><title>208&#45;&gt;wz</title>
<path fill="none" stroke="red" stroke-width="0.616767" d="M239.753,-515.107C239.879,-504.612 240.034,-491.618 240.172,-480.139"/>
<polygon fill="red" stroke="red" stroke-width="0.616767" points="243.671,-480.181 240.292,-470.139 236.672,-480.097 243.671,-480.181"/>
</g>
<!-- 208&#45;&gt;208 -->
<g id="edge2" class="edge"><title>208&#45;&gt;208</title>
<path fill="none" stroke="green" stroke-width="0.120735" d="M257.255,-548.17C268.255,-551.027 278.724,-547.077 278.724,-536.319 278.724,-529.091 273.998,-524.937 267.561,-523.855"/>
<polygon fill="green" stroke="green" stroke-width="0.120735" points="267.029,-520.38 257.255,-524.469 267.446,-527.368 267.029,-520.38"/>
</g>
<!-- 978 -->
<g id="node17" class="node"><title>978</title>
<ellipse fill="white" stroke="black" cx="293.511" cy="-183.016" rx="21.4286" ry="21.4286"/>
<text text-anchor="middle" x="293.511" y="-180.816" font-family="Times,serif" font-size="9.00">978</text>
</g>
<!-- 6902 -->
<g id="node20" class="node"><title>6902</title>
<ellipse fill="white" stroke="black" cx="275.511" cy="-97.5183" rx="25" ry="25"/>
<text text-anchor="middle" x="275.511" y="-95.3183" font-family="Times,serif" font-size="9.00">6902</text>
</g>
<!-- 978&#45;&gt;6902 -->
<g id="edge21" class="edge"><title>978&#45;&gt;6902</title>
<path fill="none" stroke="red" stroke-width="0.246333" d="M289.245,-162.228C287.296,-153.186 284.932,-142.222 282.72,-131.957"/>
<polygon fill="red" stroke="red" stroke-width="0.246333" points="286.107,-131.06 280.578,-122.022 279.264,-132.535 286.107,-131.06"/>
</g>
<!-- 211&#45;&gt;978 -->
<g id="edge9" class="edge"><title>211&#45;&gt;978</title>
<path fill="none" stroke="red" stroke-width="0.528713" d="M347.909,-254.104C337.895,-241.203 323.735,-222.957 312.371,-208.316"/>
<polygon fill="red" stroke="red" stroke-width="0.528713" points="314.953,-205.934 306.057,-200.18 309.423,-210.226 314.953,-205.934"/>
</g>
<!-- 4089 -->
<g id="node21" class="node"><title>4089</title>
<ellipse fill="white" stroke="black" cx="212.511" cy="-183.016" rx="25" ry="25"/>
<text text-anchor="middle" x="212.511" y="-180.816" font-family="Times,serif" font-size="9.00">4089</text>
</g>
<!-- 212&#45;&gt;4089 -->
<g id="edge10" class="edge"><title>212&#45;&gt;4089</title>
<path fill="none" stroke="red" stroke-width="0.163913" d="M170.236,-252.872C177.216,-241.504 186.491,-226.397 194.575,-213.23"/>
<polygon fill="red" stroke="red" stroke-width="0.163913" points="197.689,-214.848 199.938,-204.494 191.723,-211.185 197.689,-214.848"/>
</g>
<!-- 6902&#45;&gt;ux -->
<g id="edge14" class="edge"><title>6902&#45;&gt;ux</title>
<path fill="none" stroke="red" stroke-width="0.13217" d="M253.258,-86.1157C222.806,-71.88 168.274,-46.3874 136.147,-31.3688"/>
<polygon fill="red" stroke="red" stroke-width="0.13217" points="137.488,-28.1324 126.947,-27.0682 134.524,-34.4738 137.488,-28.1324"/>
</g>
<!-- 4089&#45;&gt;301 -->
<g id="edge29" class="edge"><title>4089&#45;&gt;301</title>
<path fill="none" stroke="green" stroke-width="0.623052" d="M203.052,-160.078C198.65,-149.868 193.361,-137.599 188.666,-126.711"/>
<polygon fill="green" stroke="green" stroke-width="0.623052" points="191.738,-124.995 184.565,-117.198 185.31,-127.767 191.738,-124.995"/>
</g>
<!-- 16026&#45;&gt;978 -->
<g id="edge8" class="edge"><title>16026&#45;&gt;978</title>
<path fill="none" stroke="green" stroke-width="0.345299" d="M293.511,-243.501C293.511,-234.295 293.511,-223.927 293.511,-214.457"/>
<polygon fill="green" stroke="green" stroke-width="0.345299" points="297.011,-214.255 293.511,-204.255 290.011,-214.255 297.011,-214.255"/>
</g>
<!-- 16026&#45;&gt;4089 -->
<g id="edge15" class="edge"><title>16026&#45;&gt;4089</title>
<path fill="none" stroke="red" stroke-width="0.418854" d="M275.131,-250.753C263.581,-238.444 248.57,-222.445 236.14,-209.198"/>
<polygon fill="red" stroke="red" stroke-width="0.418854" points="238.56,-206.663 229.165,-201.765 233.456,-211.453 238.56,-206.663"/>
</g>
</g>
</svg>
