<?xml version="1.0" encoding="UTF-8" standalone="no"?>
<!DOCTYPE svg PUBLIC "-//W3C//DTD SVG 1.1//EN"
 "http://www.w3.org/Graphics/SVG/1.1/DTD/svg11.dtd">
<!-- Generated by graphviz version 2.38.0 (20140413.2041)
 -->
<!-- Title: %3 Pages: 1 -->
<svg width="814pt" height="609pt"
 viewBox="0.00 0.00 814.00 608.93" xmlns="http://www.w3.org/2000/svg" xmlns:xlink="http://www.w3.org/1999/xlink">
<g id="graph0" class="graph" transform="scale(1 1) rotate(0) translate(4 604.926)">
<title>%3</title>
<polygon fill="white" stroke="none" points="-4,4 -4,-604.926 810,-604.926 810,4 -4,4"/>
<!-- ext -->
<g id="node1" class="node"><title>ext</title>
<polygon fill="lightgray" stroke="black" points="593.5,-531.177 566.5,-531.177 566.5,-513.177 593.5,-513.177 593.5,-531.177"/>
<text text-anchor="middle" x="580" y="-519.977" font-family="Times,serif" font-size="9.00">ext</text>
</g>
<!-- wz -->
<g id="node8" class="node"><title>wz</title>
<ellipse fill="lightblue" stroke="black" cx="337" cy="-342.697" rx="19.1842" ry="19.1842"/>
<text text-anchor="middle" x="337" y="-340.497" font-family="Times,serif" font-size="9.00">wz</text>
</g>
<!-- ext&#45;&gt;wz -->
<g id="edge28" class="edge"><title>ext&#45;&gt;wz</title>
<path fill="none" stroke="red" stroke-width="0.954623" stroke-dasharray="1,5" d="M566.38,-513.86C548.046,-503.622 514.968,-483.753 491,-461.428 468.255,-440.243 471.552,-426.558 448,-406.274 422.332,-384.169 387.657,-366.119 363.934,-355.182"/>
<polygon fill="red" stroke="red" stroke-width="0.954623" points="365.051,-351.847 354.495,-350.939 362.181,-358.232 365.051,-351.847"/>
</g>
<!-- 9072 -->
<g id="node15" class="node"><title>9072</title>
<ellipse fill="white" stroke="black" cx="525" cy="-433.851" rx="25" ry="25"/>
<text text-anchor="middle" x="525" y="-431.651" font-family="Times,serif" font-size="9.00">9072</text>
</g>
<!-- ext&#45;&gt;9072 -->
<g id="edge49" class="edge"><title>ext&#45;&gt;9072</title>
<path fill="none" stroke="red" stroke-width="0.263433" d="M574.726,-512.9C567.583,-501.688 554.463,-481.095 543.493,-463.877"/>
<polygon fill="red" stroke="red" stroke-width="0.263433" points="546.32,-461.801 537.995,-455.248 540.417,-465.562 546.32,-461.801"/>
</g>
<!-- 211 -->
<g id="node18" class="node"><title>211</title>
<ellipse fill="white" stroke="black" cx="313" cy="-257.907" rx="21.4286" ry="21.4286"/>
<text text-anchor="middle" x="313" y="-255.707" font-family="Times,serif" font-size="9.00">211</text>
</g>
<!-- ext&#45;&gt;211 -->
<g id="edge9" class="edge"><title>ext&#45;&gt;211</title>
<path fill="none" stroke="green" stroke-width="0.283658" d="M580.669,-513.09C581.907,-493.053 582.56,-440.279 559,-406.274 505.172,-328.585 395.895,-285.078 343.01,-267.78"/>
<polygon fill="green" stroke="green" stroke-width="0.283658" points="343.809,-264.361 333.218,-264.667 341.688,-271.032 343.809,-264.361"/>
</g>
<!-- 212 -->
<g id="node19" class="node"><title>212</title>
<ellipse fill="white" stroke="black" cx="627" cy="-433.851" rx="21.4286" ry="21.4286"/>
<text text-anchor="middle" x="627" y="-431.651" font-family="Times,serif" font-size="9.00">212</text>
</g>
<!-- ext&#45;&gt;212 -->
<g id="edge46" class="edge"><title>ext&#45;&gt;212</title>
<path fill="none" stroke="red" stroke-width="0.305638" d="M584.507,-512.9C590.826,-501.292 602.62,-479.63 612.182,-462.067"/>
<polygon fill="red" stroke="red" stroke-width="0.305638" points="615.508,-463.278 617.216,-452.822 609.36,-459.931 615.508,-463.278"/>
</g>
<!-- 4089 -->
<g id="node21" class="node"><title>4089</title>
<ellipse fill="white" stroke="black" cx="692" cy="-342.697" rx="25" ry="25"/>
<text text-anchor="middle" x="692" y="-340.497" font-family="Times,serif" font-size="9.00">4089</text>
</g>
<!-- ext&#45;&gt;4089 -->
<g id="edge13" class="edge"><title>ext&#45;&gt;4089</title>
<path fill="none" stroke="green" stroke-width="0.833166" stroke-dasharray="1,5" d="M587.379,-513.079C592.111,-508.174 598.557,-502.003 605,-497.428 633.526,-477.176 654.684,-489.91 675,-461.428 692.209,-437.302 695.467,-403.231 695.007,-377.945"/>
<polygon fill="green" stroke="green" stroke-width="0.833166" points="698.494,-377.558 694.612,-367.7 691.5,-377.828 698.494,-377.558"/>
</g>
<!-- 16026 -->
<g id="node22" class="node"><title>16026</title>
<ellipse fill="white" stroke="black" cx="750" cy="-433.851" rx="27.6545" ry="27.6545"/>
<text text-anchor="middle" x="750" y="-431.651" font-family="Times,serif" font-size="9.00">16026</text>
</g>
<!-- ext&#45;&gt;16026 -->
<g id="edge34" class="edge"><title>ext&#45;&gt;16026</title>
<path fill="none" stroke="green" stroke-width="0.581477" d="M587.167,-512.757C591.819,-507.731 598.255,-501.545 605,-497.428 646.393,-472.165 664.339,-482.531 708,-461.428 711.569,-459.704 715.209,-457.742 718.781,-455.684"/>
<polygon fill="green" stroke="green" stroke-width="0.581477" points="720.69,-458.62 727.436,-450.45 717.068,-452.63 720.69,-458.62"/>
</g>
<!-- eyt -->
<g id="node2" class="node"><title>eyt</title>
<polygon fill="lightgray" stroke="black" points="640.5,-531.177 613.5,-531.177 613.5,-513.177 640.5,-513.177 640.5,-531.177"/>
<text text-anchor="middle" x="627" y="-519.977" font-family="Times,serif" font-size="9.00">eyt</text>
</g>
<!-- eyt&#45;&gt;212 -->
<g id="edge38" class="edge"><title>eyt&#45;&gt;212</title>
<path fill="none" stroke="red" stroke-width="0.72835" d="M627,-512.9C627,-501.996 627,-482.222 627,-465.306"/>
<polygon fill="red" stroke="red" stroke-width="0.72835" points="630.5,-465.248 627,-455.248 623.5,-465.248 630.5,-465.248"/>
</g>
<!-- sf -->
<g id="node3" class="node"><title>sf</title>
<polygon fill="lightgray" stroke="black" points="60.5,-531.177 37.5,-531.177 37.5,-513.177 60.5,-513.177 60.5,-531.177"/>
<text text-anchor="middle" x="49" y="-519.977" font-family="Times,serif" font-size="9.00">sf</text>
</g>
<!-- ux -->
<g id="node6" class="node"><title>ux</title>
<ellipse fill="lightblue" stroke="black" cx="312" cy="-18.3848" rx="18.2703" ry="18.2703"/>
<text text-anchor="middle" x="312" y="-16.1848" font-family="Times,serif" font-size="9.00">ux</text>
</g>
<!-- sf&#45;&gt;ux -->
<g id="edge42" class="edge"><title>sf&#45;&gt;ux</title>
<path fill="none" stroke="green" stroke-width="0.258902" stroke-dasharray="1,5" d="M43.8829,-513.014C37.1071,-501.818 25.2838,-480.867 19,-461.428 2.69671,-410.996 0,-396.699 0,-343.697 0,-343.697 0,-343.697 0,-178.48 0,-123.558 19.2749,-104.646 64,-72.7696 131.52,-24.6469 233.853,-18.4318 283.28,-18.512"/>
<polygon fill="green" stroke="green" stroke-width="0.258902" points="283.512,-22.0147 293.549,-18.6229 283.587,-15.0151 283.512,-22.0147"/>
</g>
<!-- 335 -->
<g id="node14" class="node"><title>335</title>
<ellipse fill="white" stroke="black" cx="49" cy="-433.851" rx="21.4286" ry="21.4286"/>
<text text-anchor="middle" x="49" y="-431.651" font-family="Times,serif" font-size="9.00">335</text>
</g>
<!-- sf&#45;&gt;335 -->
<g id="edge48" class="edge"><title>sf&#45;&gt;335</title>
<path fill="none" stroke="green" stroke-width="1.13257" d="M49,-512.9C49,-501.996 49,-482.222 49,-465.306"/>
<polygon fill="green" stroke="green" stroke-width="1.13257" points="52.5001,-465.248 49,-455.248 45.5001,-465.248 52.5001,-465.248"/>
</g>
<!-- sf&#45;&gt;212 -->
<g id="edge3" class="edge"><title>sf&#45;&gt;212</title>
<path fill="none" stroke="red" stroke-width="0.183175" stroke-dasharray="1,5" d="M60.8182,-516.243C74.7167,-510.673 98.6092,-501.816 120,-497.428 311.774,-458.093 368.265,-505.526 559,-461.428 572.411,-458.328 586.68,-453.076 598.666,-448.055"/>
<polygon fill="red" stroke="red" stroke-width="0.183175" points="600.351,-451.139 608.129,-443.944 597.562,-444.719 600.351,-451.139"/>
</g>
<!-- sl -->
<g id="node4" class="node"><title>sl</title>
<polygon fill="lightgray" stroke="black" points="339.5,-531.177 316.5,-531.177 316.5,-513.177 339.5,-513.177 339.5,-531.177"/>
<text text-anchor="middle" x="328" y="-519.977" font-family="Times,serif" font-size="9.00">sl</text>
</g>
<!-- sl&#45;&gt;wz -->
<g id="edge7" class="edge"><title>sl&#45;&gt;wz</title>
<path fill="none" stroke="red" stroke-width="0.549695" d="M328.41,-513.09C329.66,-488.449 333.462,-413.463 335.565,-372.004"/>
<polygon fill="red" stroke="red" stroke-width="0.549695" points="339.061,-372.159 336.072,-361.995 332.07,-371.805 339.061,-372.159"/>
</g>
<!-- 7150 -->
<g id="node13" class="node"><title>7150</title>
<ellipse fill="white" stroke="black" cx="381" cy="-433.851" rx="25" ry="25"/>
<text text-anchor="middle" x="381" y="-431.651" font-family="Times,serif" font-size="9.00">7150</text>
</g>
<!-- sl&#45;&gt;7150 -->
<g id="edge10" class="edge"><title>sl&#45;&gt;7150</title>
<path fill="none" stroke="green" stroke-width="0.239075" d="M333.082,-512.9C339.966,-501.688 352.608,-481.095 363.18,-463.877"/>
<polygon fill="green" stroke="green" stroke-width="0.239075" points="366.228,-465.601 368.478,-455.248 360.263,-461.939 366.228,-465.601"/>
</g>
<!-- 208 -->
<g id="node16" class="node"><title>208</title>
<ellipse fill="white" stroke="black" cx="223" cy="-433.851" rx="21.4286" ry="21.4286"/>
<text text-anchor="middle" x="223" y="-431.651" font-family="Times,serif" font-size="9.00">208</text>
</g>
<!-- sl&#45;&gt;208 -->
<g id="edge39" class="edge"><title>sl&#45;&gt;208</title>
<path fill="none" stroke="red" stroke-width="0.483684" stroke-dasharray="1,5" d="M317.932,-512.9C301.658,-499.52 269.134,-472.781 246.728,-454.359"/>
<polygon fill="red" stroke="red" stroke-width="0.483684" points="248.927,-451.636 238.979,-447.989 244.481,-457.043 248.927,-451.636"/>
</g>
<!-- sl&#45;&gt;211 -->
<g id="edge45" class="edge"><title>sl&#45;&gt;211</title>
<path fill="none" stroke="green" stroke-width="0.442977" d="M326.609,-513.032C322.832,-490.45 312.437,-425.09 309,-370.274 307.466,-345.809 308.13,-339.617 309,-315.12 309.298,-306.732 309.845,-297.654 310.442,-289.29"/>
<polygon fill="green" stroke="green" stroke-width="0.442977" points="313.942,-289.419 311.208,-279.183 306.962,-288.89 313.942,-289.419"/>
</g>
<!-- sl&#45;&gt;212 -->
<g id="edge44" class="edge"><title>sl&#45;&gt;212</title>
<path fill="none" stroke="green" stroke-width="0.143634" d="M339.678,-518.676C373.812,-511.256 476.232,-488.201 559,-461.428 572.096,-457.192 586.318,-451.768 598.353,-446.925"/>
<polygon fill="green" stroke="green" stroke-width="0.143634" points="599.944,-450.056 607.876,-443.033 597.296,-443.577 599.944,-450.056"/>
</g>
<!-- sr -->
<g id="node5" class="node"><title>sr</title>
<polygon fill="lightgray" stroke="black" points="260.5,-600.926 237.5,-600.926 237.5,-582.926 260.5,-582.926 260.5,-600.926"/>
<text text-anchor="middle" x="249" y="-589.726" font-family="Times,serif" font-size="9.00">sr</text>
</g>
<!-- sr&#45;&gt;ux -->
<g id="edge25" class="edge"><title>sr&#45;&gt;ux</title>
<path fill="none" stroke="green" stroke-width="0.385528" d="M260.762,-590.342C318.821,-587.355 575.057,-572.898 650,-546.926 730.664,-518.971 806,-520.223 806,-434.851 806,-434.851 806,-434.851 806,-178.48 806,-80.0363 446.071,-33.7351 340.67,-22.2868"/>
<polygon fill="green" stroke="green" stroke-width="0.385528" points="340.778,-18.7786 330.464,-21.2015 340.038,-25.7393 340.778,-18.7786"/>
</g>
<!-- uy -->
<g id="node7" class="node"><title>uy</title>
<ellipse fill="lightblue" stroke="black" cx="207" cy="-342.697" rx="18.2703" ry="18.2703"/>
<text text-anchor="middle" x="207" y="-340.497" font-family="Times,serif" font-size="9.00">uy</text>
</g>
<!-- sr&#45;&gt;uy -->
<g id="edge17" class="edge"><title>sr&#45;&gt;uy</title>
<path fill="none" stroke="red" stroke-width="0.227839" stroke-dasharray="1,5" d="M237.135,-591.056C210.783,-590.62 147.538,-585.414 120,-546.926 98.0284,-516.217 142.195,-411.126 145,-406.274 146.494,-403.691 169.216,-380.993 186.724,-363.67"/>
<polygon fill="red" stroke="red" stroke-width="0.227839" points="189.652,-365.698 194.307,-356.18 184.733,-360.718 189.652,-365.698"/>
</g>
<!-- sr&#45;&gt;wz -->
<g id="edge33" class="edge"><title>sr&#45;&gt;wz</title>
<path fill="none" stroke="green" stroke-width="0.813377" d="M260.654,-587.773C280.222,-582.061 320.261,-568.551 348,-546.926 386.074,-517.244 399.249,-507.063 415,-461.428 422.998,-438.257 425.603,-428.375 415,-406.274 404.271,-383.912 381.226,-367.02 362.951,-356.458"/>
<polygon fill="green" stroke="green" stroke-width="0.813377" points="364.631,-353.387 354.18,-351.65 361.267,-359.526 364.631,-353.387"/>
</g>
<!-- 386 -->
<g id="node9" class="node"><title>386</title>
<ellipse fill="white" stroke="black" cx="150" cy="-522.177" rx="21.4286" ry="21.4286"/>
<text text-anchor="middle" x="150" y="-519.977" font-family="Times,serif" font-size="9.00">386</text>
</g>
<!-- sr&#45;&gt;386 -->
<g id="edge47" class="edge"><title>sr&#45;&gt;386</title>
<path fill="none" stroke="red" stroke-width="0.309847" d="M237.039,-583.81C223.084,-575.392 199.445,-560.768 180,-546.926 178.109,-545.58 176.176,-544.159 174.247,-542.709"/>
<polygon fill="red" stroke="red" stroke-width="0.309847" points="176.013,-539.651 165.961,-536.303 171.732,-545.189 176.013,-539.651"/>
</g>
<!-- 2853 -->
<g id="node10" class="node"><title>2853</title>
<ellipse fill="white" stroke="black" cx="214" cy="-522.177" rx="25" ry="25"/>
<text text-anchor="middle" x="214" y="-519.977" font-family="Times,serif" font-size="9.00">2853</text>
</g>
<!-- sr&#45;&gt;2853 -->
<g id="edge20" class="edge"><title>sr&#45;&gt;2853</title>
<path fill="none" stroke="green" stroke-width="0.720128" d="M244.848,-582.888C241.094,-575.623 235.324,-564.454 229.785,-553.732"/>
<polygon fill="green" stroke="green" stroke-width="0.720128" points="232.733,-551.813 225.034,-544.535 226.514,-555.026 232.733,-551.813"/>
</g>
<!-- sr&#45;&gt;208 -->
<g id="edge30" class="edge"><title>sr&#45;&gt;208</title>
<path fill="none" stroke="red" stroke-width="0.158279" d="M253.209,-582.761C257.406,-574.123 263.568,-559.968 266,-546.926 270.033,-525.3 272.523,-518.438 266,-497.428 261.515,-482.983 252.411,-468.914 243.73,-457.787"/>
<polygon fill="red" stroke="red" stroke-width="0.158279" points="246.305,-455.408 237.258,-449.894 240.893,-459.846 246.305,-455.408"/>
</g>
<!-- ux&#45;&gt;ux -->
<g id="edge27" class="edge"><title>ux&#45;&gt;ux</title>
<path fill="none" stroke="green" stroke-width="0.346188" d="M325.813,-30.9531C336.92,-35.9805 348.385,-31.791 348.385,-18.3848 348.385,-9.16798 342.966,-4.30756 335.97,-3.80352"/>
<polygon fill="green" stroke="green" stroke-width="0.346188" points="334.942,-0.439076 325.813,-5.81642 336.303,-7.30553 334.942,-0.439076"/>
</g>
<!-- wz&#45;&gt;211 -->
<g id="edge35" class="edge"><title>wz&#45;&gt;211</title>
<path fill="none" stroke="green" stroke-width="0.739396" d="M327.074,-326.125C322.837,-315.805 318.436,-301.921 315.315,-289.45"/>
<polygon fill="green" stroke="green" stroke-width="0.739396" points="318.662,-288.388 313.026,-279.417 311.838,-289.945 318.662,-288.388"/>
</g>
<!-- 386&#45;&gt;uy -->
<g id="edge6" class="edge"><title>386&#45;&gt;uy</title>
<path fill="none" stroke="red" stroke-width="0.410588" d="M148.47,-500.917C147.427,-477.359 147.977,-437.692 160,-406.274 166.018,-390.549 177.223,-375.385 187.183,-363.923"/>
<polygon fill="red" stroke="red" stroke-width="0.410588" points="189.994,-366.033 194.123,-356.276 184.811,-361.329 189.994,-366.033"/>
</g>
<!-- 386&#45;&gt;wz -->
<g id="edge1" class="edge"><title>386&#45;&gt;wz</title>
<path fill="none" stroke="red" stroke-width="1.02915" d="M152.703,-500.764C157.035,-475.578 167.775,-432.842 193,-406.274 224.195,-373.418 275.585,-356.847 307.796,-349.266"/>
<polygon fill="red" stroke="red" stroke-width="1.02915" points="308.917,-352.602 317.927,-347.028 307.408,-345.767 308.917,-352.602"/>
</g>
<!-- 386&#45;&gt;335 -->
<g id="edge21" class="edge"><title>386&#45;&gt;335</title>
<path fill="none" stroke="green" stroke-width="0.669226" d="M134.219,-507.689C117.616,-493.498 91.3096,-471.014 72.3141,-454.778"/>
<polygon fill="green" stroke="green" stroke-width="0.669226" points="74.5462,-452.082 64.6704,-448.245 69.9981,-457.403 74.5462,-452.082"/>
</g>
<!-- 386&#45;&gt;212 -->
<g id="edge5" class="edge"><title>386&#45;&gt;212</title>
<path fill="none" stroke="green" stroke-width="0.602832" stroke-dasharray="1,5" d="M164.795,-506.734C169.336,-503.096 174.576,-499.608 180,-497.428 336.997,-434.329 394.395,-500.603 559,-461.428 572.39,-458.242 586.657,-452.976 598.646,-447.969"/>
<polygon fill="green" stroke="green" stroke-width="0.602832" points="600.323,-451.057 608.112,-443.875 597.545,-444.632 600.323,-451.057"/>
</g>
<!-- 2853&#45;&gt;2853 -->
<g id="edge36" class="edge"><title>2853&#45;&gt;2853</title>
<path fill="none" stroke="green" stroke-width="0.147118" d="M235.556,-534.479C246.702,-536.372 256.749,-532.271 256.749,-522.177 256.749,-515.395 252.213,-511.319 245.856,-509.948"/>
<polygon fill="green" stroke="green" stroke-width="0.147118" points="245.58,-506.446 235.556,-509.875 245.531,-513.446 245.58,-506.446"/>
</g>
<!-- 36007 -->
<g id="node11" class="node"><title>36007</title>
<ellipse fill="white" stroke="black" cx="143" cy="-342.697" rx="27.6545" ry="27.6545"/>
<text text-anchor="middle" x="143" y="-340.497" font-family="Times,serif" font-size="9.00">36007</text>
</g>
<!-- 36007&#45;&gt;211 -->
<g id="edge37" class="edge"><title>36007&#45;&gt;211</title>
<path fill="none" stroke="red" stroke-width="0.781903" d="M164.379,-325.119C169.368,-321.599 174.758,-318.062 180,-315.12 214.072,-295.999 255.955,-279.324 283.509,-269.204"/>
<polygon fill="red" stroke="red" stroke-width="0.781903" points="284.759,-272.474 292.971,-265.78 282.377,-265.892 284.759,-272.474"/>
</g>
<!-- 301 -->
<g id="node12" class="node"><title>301</title>
<ellipse fill="white" stroke="black" cx="627" cy="-257.907" rx="21.4286" ry="21.4286"/>
<text text-anchor="middle" x="627" y="-255.707" font-family="Times,serif" font-size="9.00">301</text>
</g>
<!-- 301&#45;&gt;212 -->
<g id="edge12" class="edge"><title>301&#45;&gt;212</title>
<path fill="none" stroke="green" stroke-width="0.108305" d="M631.497,-278.895C634.22,-309.243 634.475,-367.156 632.26,-402.656"/>
<polygon fill="green" stroke="green" stroke-width="0.108305" points="628.75,-402.664 631.494,-412.898 635.731,-403.187 628.75,-402.664"/>
</g>
<!-- 335&#45;&gt;ux -->
<g id="edge40" class="edge"><title>335&#45;&gt;ux</title>
<path fill="none" stroke="green" stroke-width="0.725882" d="M49,-412.499C49,-380.022 49,-314.472 49,-258.907 49,-258.907 49,-258.907 49,-178.48 49,-69.8272 215.365,-33.368 283.462,-22.9956"/>
<polygon fill="green" stroke="green" stroke-width="0.725882" points="284.108,-26.4386 293.506,-21.5478 283.109,-19.5102 284.108,-26.4386"/>
</g>
<!-- 335&#45;&gt;36007 -->
<g id="edge24" class="edge"><title>335&#45;&gt;36007</title>
<path fill="none" stroke="green" stroke-width="0.298882" d="M64.1027,-418.527C78.0543,-405.295 99.1058,-385.328 115.955,-369.348"/>
<polygon fill="green" stroke="green" stroke-width="0.298882" points="118.514,-371.745 123.361,-362.324 113.696,-366.666 118.514,-371.745"/>
</g>
<!-- 335&#45;&gt;211 -->
<g id="edge11" class="edge"><title>335&#45;&gt;211</title>
<path fill="none" stroke="red" stroke-width="0.622375" stroke-dasharray="1,5" d="M53.2084,-413.022C59.8333,-386.716 75.2395,-340.639 106,-315.12 157.101,-272.726 237.433,-262.117 281.49,-259.582"/>
<polygon fill="red" stroke="red" stroke-width="0.622375" points="281.786,-263.072 291.611,-259.107 281.458,-256.08 281.786,-263.072"/>
</g>
<!-- 9072&#45;&gt;wz -->
<g id="edge41" class="edge"><title>9072&#45;&gt;wz</title>
<path fill="none" stroke="red" stroke-width="0.368349" stroke-dasharray="1,5" d="M505.244,-418.261C499.223,-414.126 492.479,-409.796 486,-406.274 445.25,-384.123 394.996,-364.486 364.506,-353.353"/>
<polygon fill="red" stroke="red" stroke-width="0.368349" points="365.56,-350.012 354.965,-349.912 363.185,-356.597 365.56,-350.012"/>
</g>
<!-- 208&#45;&gt;uy -->
<g id="edge19" class="edge"><title>208&#45;&gt;uy</title>
<path fill="none" stroke="red" stroke-width="0.16696" d="M219.369,-412.621C217.158,-400.297 214.303,-384.392 211.894,-370.967"/>
<polygon fill="red" stroke="red" stroke-width="0.16696" points="215.289,-370.072 210.078,-360.847 208.399,-371.308 215.289,-370.072"/>
</g>
<!-- 208&#45;&gt;wz -->
<g id="edge29" class="edge"><title>208&#45;&gt;wz</title>
<path fill="none" stroke="red" stroke-width="0.616767" d="M239.333,-420.078C258.987,-404.708 292.098,-378.813 314.247,-361.491"/>
<polygon fill="red" stroke="red" stroke-width="0.616767" points="316.427,-364.23 322.148,-355.312 312.114,-358.716 316.427,-364.23"/>
</g>
<!-- 208&#45;&gt;208 -->
<g id="edge2" class="edge"><title>208&#45;&gt;208</title>
<path fill="none" stroke="green" stroke-width="0.120735" d="M238.703,-448.402C250.412,-453.483 262.213,-448.633 262.213,-433.851 262.213,-423.343 256.249,-417.854 248.593,-417.384"/>
<polygon fill="green" stroke="green" stroke-width="0.120735" points="247.855,-413.962 238.703,-419.301 249.187,-420.834 247.855,-413.962"/>
</g>
<!-- 978 -->
<g id="node17" class="node"><title>978</title>
<ellipse fill="white" stroke="black" cx="366" cy="-179.48" rx="21.4286" ry="21.4286"/>
<text text-anchor="middle" x="366" y="-177.28" font-family="Times,serif" font-size="9.00">978</text>
</g>
<!-- 978&#45;&gt;ux -->
<g id="edge26" class="edge"><title>978&#45;&gt;ux</title>
<path fill="none" stroke="red" stroke-width="0.609945" stroke-dasharray="1,5" d="M372.552,-159.176C378.845,-137.204 385.691,-100.741 373,-72.7696 365.464,-56.1592 349.923,-42.6841 336.414,-33.4273"/>
<polygon fill="red" stroke="red" stroke-width="0.609945" points="338.236,-30.438 327.935,-27.9628 334.444,-36.322 338.236,-30.438"/>
</g>
<!-- 6902 -->
<g id="node20" class="node"><title>6902</title>
<ellipse fill="white" stroke="black" cx="339" cy="-97.5183" rx="25" ry="25"/>
<text text-anchor="middle" x="339" y="-95.3183" font-family="Times,serif" font-size="9.00">6902</text>
</g>
<!-- 978&#45;&gt;6902 -->
<g id="edge31" class="edge"><title>978&#45;&gt;6902</title>
<path fill="none" stroke="red" stroke-width="0.246333" d="M359.464,-159.124C356.591,-150.616 353.139,-140.393 349.896,-130.787"/>
<polygon fill="red" stroke="red" stroke-width="0.246333" points="353.14,-129.453 346.624,-121.098 346.508,-131.692 353.14,-129.453"/>
</g>
<!-- 211&#45;&gt;ux -->
<g id="edge32" class="edge"><title>211&#45;&gt;ux</title>
<path fill="none" stroke="green" stroke-width="0.366307" stroke-dasharray="1,5" d="M310.692,-236.728C307.135,-202.831 301.112,-132.32 305,-72.7696 305.557,-64.2435 306.608,-55 307.73,-46.6384"/>
<polygon fill="green" stroke="green" stroke-width="0.366307" points="311.209,-47.0333 309.157,-36.6391 304.279,-46.0443 311.209,-47.0333"/>
</g>
<!-- 211&#45;&gt;wz -->
<g id="edge8" class="edge"><title>211&#45;&gt;wz</title>
<path fill="none" stroke="green" stroke-width="0.473129" stroke-dasharray="1,5" d="M323.692,-276.379C327.957,-287.143 332.3,-301.192 335.262,-313.502"/>
<polygon fill="green" stroke="green" stroke-width="0.473129" points="331.852,-314.293 337.394,-323.323 338.693,-312.808 331.852,-314.293"/>
</g>
<!-- 211&#45;&gt;978 -->
<g id="edge16" class="edge"><title>211&#45;&gt;978</title>
<path fill="none" stroke="red" stroke-width="0.528713" d="M324.762,-239.945C331.693,-229.952 340.595,-217.115 348.353,-205.927"/>
<polygon fill="red" stroke="red" stroke-width="0.528713" points="351.448,-207.606 354.27,-197.394 345.696,-203.617 351.448,-207.606"/>
</g>
<!-- 212&#45;&gt;301 -->
<g id="edge15" class="edge"><title>212&#45;&gt;301</title>
<path fill="none" stroke="red" stroke-width="0.421822" stroke-dasharray="1,5" d="M622.506,-412.898C619.781,-382.571 619.525,-324.659 621.737,-289.143"/>
<polygon fill="red" stroke="red" stroke-width="0.421822" points="625.248,-289.128 622.503,-278.895 618.267,-288.606 625.248,-289.128"/>
</g>
<!-- 212&#45;&gt;212 -->
<g id="edge4" class="edge"><title>212&#45;&gt;212</title>
<path fill="none" stroke="red" stroke-width="0.622092" stroke-dasharray="1,5" d="M642.703,-448.402C654.412,-453.483 666.213,-448.633 666.213,-433.851 666.213,-423.343 660.249,-417.854 652.593,-417.384"/>
<polygon fill="red" stroke="red" stroke-width="0.622092" points="651.855,-413.962 642.703,-419.301 653.187,-420.834 651.855,-413.962"/>
</g>
<!-- 212&#45;&gt;4089 -->
<g id="edge18" class="edge"><title>212&#45;&gt;4089</title>
<path fill="none" stroke="red" stroke-width="0.163913" d="M639.226,-416.082C648.387,-403.517 661.126,-386.043 671.794,-371.412"/>
<polygon fill="red" stroke="red" stroke-width="0.163913" points="674.729,-373.327 677.792,-363.185 669.073,-369.203 674.729,-373.327"/>
</g>
<!-- 6902&#45;&gt;ux -->
<g id="edge22" class="edge"><title>6902&#45;&gt;ux</title>
<path fill="none" stroke="red" stroke-width="0.13217" d="M331.045,-73.7929C327.971,-65.0107 324.433,-54.9021 321.246,-45.7995"/>
<polygon fill="red" stroke="red" stroke-width="0.13217" points="324.449,-44.3562 317.842,-36.0741 317.842,-46.6689 324.449,-44.3562"/>
</g>
<!-- 4089&#45;&gt;301 -->
<g id="edge43" class="edge"><title>4089&#45;&gt;301</title>
<path fill="none" stroke="green" stroke-width="0.623052" d="M676.924,-322.495C667.783,-310.852 656.03,-295.882 646.225,-283.393"/>
<polygon fill="green" stroke="green" stroke-width="0.623052" points="648.731,-280.918 639.803,-275.214 643.226,-285.241 648.731,-280.918"/>
</g>
<!-- 16026&#45;&gt;978 -->
<g id="edge14" class="edge"><title>16026&#45;&gt;978</title>
<path fill="none" stroke="green" stroke-width="0.345299" d="M748.461,-405.855C746.155,-381.125 740.392,-344.073 726,-315.12 705.334,-273.547 697.289,-259.763 657,-236.693 572.439,-188.273 453.743,-180.729 397.688,-180.082"/>
<polygon fill="green" stroke="green" stroke-width="0.345299" points="397.357,-176.58 387.341,-180.034 397.325,-183.58 397.357,-176.58"/>
</g>
<!-- 16026&#45;&gt;4089 -->
<g id="edge23" class="edge"><title>16026&#45;&gt;4089</title>
<path fill="none" stroke="red" stroke-width="0.418854" d="M735.364,-410.354C727.857,-398.814 718.632,-384.634 710.623,-372.323"/>
<polygon fill="red" stroke="red" stroke-width="0.418854" points="713.435,-370.227 705.048,-363.754 707.567,-374.045 713.435,-370.227"/>
</g>
</g>
</svg>
