<?xml version="1.0" encoding="UTF-8" standalone="no"?>
<!DOCTYPE svg PUBLIC "-//W3C//DTD SVG 1.1//EN"
 "http://www.w3.org/Graphics/SVG/1.1/DTD/svg11.dtd">
<!-- Generated by graphviz version 2.38.0 (20140413.2041)
 -->
<!-- Title: %3 Pages: 1 -->
<svg width="1046pt" height="835pt"
 viewBox="0.00 0.00 1045.57 834.82" xmlns="http://www.w3.org/2000/svg" xmlns:xlink="http://www.w3.org/1999/xlink">
<g id="graph0" class="graph" transform="scale(1 1) rotate(0) translate(4 830.815)">
<title>%3</title>
<polygon fill="white" stroke="none" points="-4,4 -4,-830.815 1041.57,-830.815 1041.57,4 -4,4"/>
<!-- ext -->
<g id="node1" class="node"><title>ext</title>
<polygon fill="lightgray" stroke="black" points="177.077,-517.098 150.077,-517.098 150.077,-499.098 177.077,-499.098 177.077,-517.098"/>
<text text-anchor="middle" x="163.577" y="-505.898" font-family="Times,serif" font-size="9.00">ext</text>
</g>
<!-- uy -->
<g id="node8" class="node"><title>uy</title>
<ellipse fill="lightblue" stroke="black" cx="237.577" cy="-409.872" rx="18.2703" ry="18.2703"/>
<text text-anchor="middle" x="237.577" y="-407.672" font-family="Times,serif" font-size="9.00">uy</text>
</g>
<!-- ext&#45;&gt;uy -->
<g id="edge48" class="edge"><title>ext&#45;&gt;uy</title>
<path fill="none" stroke="red" stroke-width="0.427617" d="M169.814,-498.91C174.435,-492.849 180.889,-484.395 186.577,-476.985 197.837,-462.316 210.538,-445.851 220.449,-433.021"/>
<polygon fill="red" stroke="red" stroke-width="0.427617" points="223.467,-434.84 226.812,-424.787 217.928,-430.559 223.467,-434.84"/>
</g>
<!-- eyt -->
<g id="node2" class="node"><title>eyt</title>
<polygon fill="lightgray" stroke="black" points="525.077,-615.323 498.077,-615.323 498.077,-597.323 525.077,-597.323 525.077,-615.323"/>
<text text-anchor="middle" x="511.577" y="-604.123" font-family="Times,serif" font-size="9.00">eyt</text>
</g>
<!-- ux -->
<g id="node7" class="node"><title>ux</title>
<ellipse fill="lightblue" stroke="black" cx="665.577" cy="-508.098" rx="18.2703" ry="18.2703"/>
<text text-anchor="middle" x="665.577" y="-505.898" font-family="Times,serif" font-size="9.00">ux</text>
</g>
<!-- eyt&#45;&gt;ux -->
<g id="edge3" class="edge"><title>eyt&#45;&gt;ux</title>
<path fill="none" stroke="green" stroke-width="0.378498" d="M517.412,-597.153C522.572,-590.447 530.651,-581.126 539.577,-575.21 578.604,-549.347 599.786,-565.426 638.577,-539.21 642.013,-536.888 645.301,-534.035 648.326,-531.019"/>
<polygon fill="green" stroke="green" stroke-width="0.378498" points="651.113,-533.155 655.239,-523.396 645.928,-528.452 651.113,-533.155"/>
</g>
<!-- 5137 -->
<g id="node13" class="node"><title>5137</title>
<ellipse fill="white" stroke="black" cx="380.577" cy="-508.098" rx="25" ry="25"/>
<text text-anchor="middle" x="380.577" y="-505.898" font-family="Times,serif" font-size="9.00">5137</text>
</g>
<!-- eyt&#45;&gt;5137 -->
<g id="edge62" class="edge"><title>eyt&#45;&gt;5137</title>
<path fill="none" stroke="green" stroke-width="1.20009" d="M500.408,-597.119C480.222,-582.291 437.106,-550.62 408.479,-529.592"/>
<polygon fill="green" stroke="green" stroke-width="1.20009" points="410.232,-526.538 400.101,-523.438 406.088,-532.179 410.232,-526.538"/>
</g>
<!-- sf -->
<g id="node3" class="node"><title>sf</title>
<polygon fill="lightgray" stroke="black" points="702.077,-808.238 679.077,-808.238 679.077,-790.238 702.077,-790.238 702.077,-808.238"/>
<text text-anchor="middle" x="690.577" y="-797.038" font-family="Times,serif" font-size="9.00">sf</text>
</g>
<!-- sf&#45;&gt;ux -->
<g id="edge72" class="edge"><title>sf&#45;&gt;ux</title>
<path fill="none" stroke="green" stroke-width="1.79763" d="M678.828,-793.235C660.283,-784.607 624.869,-764.985 610.577,-735.661 579.335,-671.558 586.329,-642.273 610.577,-575.21 612.508,-569.871 631.562,-547.536 646.709,-530.287"/>
<polygon fill="green" stroke="green" stroke-width="1.79763" points="649.744,-532.137 653.739,-522.325 644.496,-527.504 649.744,-532.137"/>
</g>
<!-- 693634 -->
<g id="node9" class="node"><title>693634</title>
<ellipse fill="white" stroke="black" cx="650.577" cy="-704.548" rx="31.2258" ry="31.2258"/>
<text text-anchor="middle" x="650.577" y="-702.348" font-family="Times,serif" font-size="9.00">693634</text>
</g>
<!-- sf&#45;&gt;693634 -->
<g id="edge16" class="edge"><title>sf&#45;&gt;693634</title>
<path fill="none" stroke="red" stroke-width="0.33677" d="M687.027,-790.013C682.446,-779.396 674.169,-760.216 666.659,-742.813"/>
<polygon fill="red" stroke="red" stroke-width="0.33677" points="669.77,-741.188 662.594,-733.394 663.343,-743.962 669.77,-741.188"/>
</g>
<!-- 693751 -->
<g id="node10" class="node"><title>693751</title>
<ellipse fill="white" stroke="black" cx="857.577" cy="-704.548" rx="31.2258" ry="31.2258"/>
<text text-anchor="middle" x="857.577" y="-702.348" font-family="Times,serif" font-size="9.00">693751</text>
</g>
<!-- sf&#45;&gt;693751 -->
<g id="edge24" class="edge"><title>sf&#45;&gt;693751</title>
<path fill="none" stroke="green" stroke-width="0.294012" d="M695.008,-790.005C698.533,-784.155 703.963,-776.508 710.577,-771.661 749.352,-743.242 769.597,-757.198 812.577,-735.661 816.359,-733.766 820.202,-731.607 823.967,-729.335"/>
<polygon fill="green" stroke="green" stroke-width="0.294012" points="825.973,-732.208 832.548,-723.9 822.227,-726.294 825.973,-732.208"/>
</g>
<!-- 693128 -->
<g id="node11" class="node"><title>693128</title>
<ellipse fill="white" stroke="black" cx="730.577" cy="-704.548" rx="31.2258" ry="31.2258"/>
<text text-anchor="middle" x="730.577" y="-702.348" font-family="Times,serif" font-size="9.00">693128</text>
</g>
<!-- sf&#45;&gt;693128 -->
<g id="edge44" class="edge"><title>sf&#45;&gt;693128</title>
<path fill="none" stroke="red" stroke-width="0.298751" d="M694.127,-790.013C698.709,-779.396 706.986,-760.216 714.496,-742.813"/>
<polygon fill="red" stroke="red" stroke-width="0.298751" points="717.812,-743.962 718.561,-733.394 711.385,-741.188 717.812,-743.962"/>
</g>
<!-- 28942 -->
<g id="node12" class="node"><title>28942</title>
<ellipse fill="white" stroke="black" cx="64.5772" cy="-704.548" rx="27.6545" ry="27.6545"/>
<text text-anchor="middle" x="64.5772" y="-702.348" font-family="Times,serif" font-size="9.00">28942</text>
</g>
<!-- sf&#45;&gt;28942 -->
<g id="edge28" class="edge"><title>sf&#45;&gt;28942</title>
<path fill="none" stroke="green" stroke-width="0.533555" d="M679.065,-797.035C625.79,-791.401 397.905,-766.606 212.577,-735.661 174.52,-729.306 131.314,-720.308 101.453,-713.804"/>
<polygon fill="green" stroke="green" stroke-width="0.533555" points="101.995,-710.34 91.4776,-711.617 100.496,-717.178 101.995,-710.34"/>
</g>
<!-- 693657 -->
<g id="node18" class="node"><title>693657</title>
<ellipse fill="white" stroke="black" cx="382.577" cy="-704.548" rx="31.2258" ry="31.2258"/>
<text text-anchor="middle" x="382.577" y="-702.348" font-family="Times,serif" font-size="9.00">693657</text>
</g>
<!-- sf&#45;&gt;693657 -->
<g id="edge55" class="edge"><title>sf&#45;&gt;693657</title>
<path fill="none" stroke="green" stroke-width="0.473762" d="M678.678,-795.651C643.899,-787.967 539.577,-764.034 455.577,-735.661 443.924,-731.725 431.473,-726.849 420.214,-722.176"/>
<polygon fill="green" stroke="green" stroke-width="0.473762" points="421.251,-718.814 410.677,-718.15 418.528,-725.263 421.251,-718.814"/>
</g>
<!-- 32421 -->
<g id="node23" class="node"><title>32421</title>
<ellipse fill="white" stroke="black" cx="948.577" cy="-409.872" rx="27.6545" ry="27.6545"/>
<text text-anchor="middle" x="948.577" y="-407.672" font-family="Times,serif" font-size="9.00">32421</text>
</g>
<!-- sf&#45;&gt;32421 -->
<g id="edge74" class="edge"><title>sf&#45;&gt;32421</title>
<path fill="none" stroke="green" stroke-width="0.224445" d="M694.592,-789.842C697.971,-783.748 703.402,-775.864 710.577,-771.661 762.238,-741.402 938.172,-780.735 977.577,-735.661 1049.88,-652.96 995.914,-509.033 965.557,-444.207"/>
<polygon fill="green" stroke="green" stroke-width="0.224445" points="968.562,-442.378 961.089,-434.868 962.248,-445.399 968.562,-442.378"/>
</g>
<!-- 21548 -->
<g id="node27" class="node"><title>21548</title>
<ellipse fill="white" stroke="black" cx="489.577" cy="-508.098" rx="27.6545" ry="27.6545"/>
<text text-anchor="middle" x="489.577" y="-505.898" font-family="Times,serif" font-size="9.00">21548</text>
</g>
<!-- sf&#45;&gt;21548 -->
<g id="edge14" class="edge"><title>sf&#45;&gt;21548</title>
<path fill="none" stroke="green" stroke-width="0.275424" d="M678.706,-797.926C646.249,-796.396 555.4,-787.458 509.577,-735.661 463.045,-683.062 471.514,-594.198 481.021,-544.843"/>
<polygon fill="green" stroke="green" stroke-width="0.275424" points="484.472,-545.437 483.046,-534.938 477.614,-544.035 484.472,-545.437"/>
</g>
<!-- 24670 -->
<g id="node39" class="node"><title>24670</title>
<ellipse fill="white" stroke="black" cx="959.577" cy="-118.731" rx="27.6545" ry="27.6545"/>
<text text-anchor="middle" x="959.577" y="-116.531" font-family="Times,serif" font-size="9.00">24670</text>
</g>
<!-- sf&#45;&gt;24670 -->
<g id="edge70" class="edge"><title>sf&#45;&gt;24670</title>
<path fill="none" stroke="green" stroke-width="0.30597" d="M694.576,-789.815C697.947,-783.707 703.375,-775.817 710.577,-771.661 825.363,-705.427 908.578,-824.875 1006.58,-735.661 1049.75,-696.36 1034.58,-665.704 1034.58,-607.323 1034.58,-607.323 1034.58,-607.323 1034.58,-310.647 1034.58,-250.898 1002.36,-187.461 980.158,-150.835"/>
<polygon fill="green" stroke="green" stroke-width="0.30597" points="982.999,-148.774 974.755,-142.12 977.049,-152.463 982.999,-148.774"/>
</g>
<!-- 694126 -->
<g id="node41" class="node"><title>694126</title>
<ellipse fill="white" stroke="black" cx="937.577" cy="-704.548" rx="31.2258" ry="31.2258"/>
<text text-anchor="middle" x="937.577" y="-702.348" font-family="Times,serif" font-size="9.00">694126</text>
</g>
<!-- sf&#45;&gt;694126 -->
<g id="edge54" class="edge"><title>sf&#45;&gt;694126</title>
<path fill="none" stroke="red" stroke-width="0.501495" d="M694.661,-789.956C698.076,-783.922 703.523,-776.064 710.577,-771.661 782.379,-726.851 820.218,-769.998 897.577,-735.661 900.425,-734.397 903.259,-732.897 906.028,-731.251"/>
<polygon fill="red" stroke="red" stroke-width="0.501495" points="908.163,-734.036 914.586,-725.61 904.311,-728.191 908.163,-734.036"/>
</g>
<!-- 25206 -->
<g id="node46" class="node"><title>25206</title>
<ellipse fill="white" stroke="black" cx="819.577" cy="-508.098" rx="27.6545" ry="27.6545"/>
<text text-anchor="middle" x="819.577" y="-505.898" font-family="Times,serif" font-size="9.00">25206</text>
</g>
<!-- sf&#45;&gt;25206 -->
<g id="edge36" class="edge"><title>sf&#45;&gt;25206</title>
<path fill="none" stroke="red" stroke-width="0.149515" d="M695.474,-790.145C699.151,-784.512 704.569,-777.071 710.577,-771.661 733.688,-750.852 751.541,-760.253 770.577,-735.661 813.722,-679.923 820.767,-594.401 820.912,-545.941"/>
<polygon fill="red" stroke="red" stroke-width="0.149515" points="824.412,-545.874 820.845,-535.898 817.412,-545.922 824.412,-545.874"/>
</g>
<!-- 28667 -->
<g id="node48" class="node"><title>28667</title>
<ellipse fill="white" stroke="black" cx="249.577" cy="-704.548" rx="27.6545" ry="27.6545"/>
<text text-anchor="middle" x="249.577" y="-702.348" font-family="Times,serif" font-size="9.00">28667</text>
</g>
<!-- sf&#45;&gt;28667 -->
<g id="edge67" class="edge"><title>sf&#45;&gt;28667</title>
<path fill="none" stroke="green" stroke-width="0.675689" d="M679.042,-796.742C634.947,-790.902 472.98,-768.338 342.577,-735.661 323.311,-730.833 302.224,-724.126 285.008,-718.267"/>
<polygon fill="green" stroke="green" stroke-width="0.675689" points="285.956,-714.892 275.361,-714.936 283.671,-721.509 285.956,-714.892"/>
</g>
<!-- sl -->
<g id="node4" class="node"><title>sl</title>
<polygon fill="lightgray" stroke="black" points="743.077,-808.238 720.077,-808.238 720.077,-790.238 743.077,-790.238 743.077,-808.238"/>
<text text-anchor="middle" x="731.577" y="-797.038" font-family="Times,serif" font-size="9.00">sl</text>
</g>
<!-- sr -->
<g id="node5" class="node"><title>sr</title>
<polygon fill="lightgray" stroke="black" points="542.077,-713.548 519.077,-713.548 519.077,-695.548 542.077,-695.548 542.077,-713.548"/>
<text text-anchor="middle" x="530.577" y="-702.348" font-family="Times,serif" font-size="9.00">sr</text>
</g>
<!-- sr&#45;&gt;ux -->
<g id="edge57" class="edge"><title>sr&#45;&gt;ux</title>
<path fill="none" stroke="red" stroke-width="1.87986" d="M531.629,-695.391C534.816,-673.57 546.148,-612.955 577.577,-575.21 597.721,-551.018 614.228,-559.164 638.577,-539.21 641.725,-536.63 644.832,-533.675 647.755,-530.646"/>
<polygon fill="red" stroke="red" stroke-width="1.87986" points="650.438,-532.898 654.56,-523.138 645.251,-528.197 650.438,-532.898"/>
</g>
<!-- 26005 -->
<g id="node14" class="node"><title>26005</title>
<ellipse fill="white" stroke="black" cx="647.577" cy="-606.323" rx="27.6545" ry="27.6545"/>
<text text-anchor="middle" x="647.577" y="-604.123" font-family="Times,serif" font-size="9.00">26005</text>
</g>
<!-- sr&#45;&gt;26005 -->
<g id="edge35" class="edge"><title>sr&#45;&gt;26005</title>
<path fill="none" stroke="red" stroke-width="0.507344" d="M540.553,-695.344C557.706,-681.237 593.398,-651.882 618.845,-630.953"/>
<polygon fill="red" stroke="red" stroke-width="0.507344" points="621.21,-633.54 626.711,-624.485 616.764,-628.133 621.21,-633.54"/>
</g>
<!-- 702151 -->
<g id="node34" class="node"><title>702151</title>
<ellipse fill="white" stroke="black" cx="263.577" cy="-606.323" rx="31.2258" ry="31.2258"/>
<text text-anchor="middle" x="263.577" y="-604.123" font-family="Times,serif" font-size="9.00">702151</text>
</g>
<!-- sr&#45;&gt;702151 -->
<g id="edge6" class="edge"><title>sr&#45;&gt;702151</title>
<path fill="none" stroke="red" stroke-width="0.103766" d="M518.971,-700.294C474.061,-687.683 313.67,-642.491 303.577,-637.436 300.954,-636.122 298.328,-634.631 295.744,-633.033"/>
<polygon fill="red" stroke="red" stroke-width="0.103766" points="297.445,-629.959 287.192,-627.286 293.54,-635.769 297.445,-629.959"/>
</g>
<!-- 191707 -->
<g id="node38" class="node"><title>191707</title>
<ellipse fill="white" stroke="black" cx="226.577" cy="-508.098" rx="31.2258" ry="31.2258"/>
<text text-anchor="middle" x="226.577" y="-505.898" font-family="Times,serif" font-size="9.00">191707</text>
</g>
<!-- sr&#45;&gt;191707 -->
<g id="edge43" class="edge"><title>sr&#45;&gt;191707</title>
<path fill="none" stroke="green" stroke-width="0.267501" d="M519.001,-699.938C499.33,-693.89 458.056,-681.572 422.577,-673.436 378.774,-663.39 252.388,-671.926 223.577,-637.436 203.09,-612.909 206.494,-575.594 213.454,-547.512"/>
<polygon fill="green" stroke="green" stroke-width="0.267501" points="216.896,-548.192 216.141,-537.624 210.141,-546.356 216.896,-548.192"/>
</g>
<!-- &#45;6 -->
<g id="node6" class="node"><title>&#45;6</title>
<polygon fill="lightgray" stroke="black" points="790.577,-615.323 766.577,-615.323 766.577,-597.323 790.577,-597.323 790.577,-615.323"/>
<text text-anchor="middle" x="778.577" y="-604.123" font-family="Times,serif" font-size="9.00">&#45;6</text>
</g>
<!-- &#45;6&#45;&gt;ux -->
<g id="edge51" class="edge"><title>&#45;6&#45;&gt;ux</title>
<path fill="none" stroke="green" stroke-width="0.118602" d="M773.896,-597.092C770.022,-590.699 764.11,-581.837 757.577,-575.21 737.073,-554.414 709.404,-535.5 689.779,-523.282"/>
<polygon fill="green" stroke="green" stroke-width="0.118602" points="691.48,-520.22 681.121,-518 687.835,-526.196 691.48,-520.22"/>
</g>
<!-- &#45;6&#45;&gt;uy -->
<g id="edge20" class="edge"><title>&#45;6&#45;&gt;uy</title>
<path fill="none" stroke="red" stroke-width="0.296125" d="M775.026,-597.053C771.594,-590.094 765.717,-580.464 757.577,-575.21 684.262,-527.894 636.422,-588.73 564.577,-539.21 537.896,-520.82 552.88,-495.911 526.577,-476.985 505.262,-461.647 334.266,-428.748 265.785,-416.034"/>
<polygon fill="red" stroke="red" stroke-width="0.296125" points="266.183,-412.549 255.713,-414.173 264.911,-419.432 266.183,-412.549"/>
</g>
<!-- 33114 -->
<g id="node37" class="node"><title>33114</title>
<ellipse fill="white" stroke="black" cx="940.577" cy="-311.647" rx="27.6545" ry="27.6545"/>
<text text-anchor="middle" x="940.577" y="-309.447" font-family="Times,serif" font-size="9.00">33114</text>
</g>
<!-- &#45;6&#45;&gt;33114 -->
<g id="edge33" class="edge"><title>&#45;6&#45;&gt;33114</title>
<path fill="none" stroke="green" stroke-width="0.657032" d="M776.796,-597.051C772.669,-575.943 764.147,-518.802 782.577,-476.985 791.831,-455.99 803.481,-457.336 819.577,-440.985 853.258,-406.771 891.067,-366.329 915.316,-340.119"/>
<polygon fill="green" stroke="green" stroke-width="0.657032" points="918.173,-342.186 922.387,-332.465 913.031,-337.436 918.173,-342.186"/>
</g>
<!-- &#45;6&#45;&gt;25206 -->
<g id="edge52" class="edge"><title>&#45;6&#45;&gt;25206</title>
<path fill="none" stroke="green" stroke-width="0.132111" d="M782.073,-597.119C787.165,-585.167 796.92,-562.273 805.205,-542.829"/>
<polygon fill="green" stroke="green" stroke-width="0.132111" points="808.427,-544.196 809.127,-533.624 801.987,-541.452 808.427,-544.196"/>
</g>
<!-- 28568 -->
<g id="node16" class="node"><title>28568</title>
<ellipse fill="white" stroke="black" cx="591.577" cy="-409.872" rx="27.6545" ry="27.6545"/>
<text text-anchor="middle" x="591.577" y="-407.672" font-family="Times,serif" font-size="9.00">28568</text>
</g>
<!-- ux&#45;&gt;28568 -->
<g id="edge13" class="edge"><title>ux&#45;&gt;28568</title>
<path fill="none" stroke="red" stroke-width="0.277569" d="M651.889,-495.298C639.947,-482.36 622.957,-461.045 609.928,-443.07"/>
<polygon fill="red" stroke="red" stroke-width="0.277569" points="612.533,-440.693 603.889,-434.566 606.825,-444.746 612.533,-440.693"/>
</g>
<!-- 16537 -->
<g id="node17" class="node"><title>16537</title>
<ellipse fill="white" stroke="black" cx="319.577" cy="-311.647" rx="27.6545" ry="27.6545"/>
<text text-anchor="middle" x="319.577" y="-309.447" font-family="Times,serif" font-size="9.00">16537</text>
</g>
<!-- uy&#45;&gt;16537 -->
<g id="edge49" class="edge"><title>uy&#45;&gt;16537</title>
<path fill="none" stroke="red" stroke-width="0.117356" d="M249.326,-395.085C261.308,-381.025 280.244,-358.804 295.438,-340.973"/>
<polygon fill="red" stroke="red" stroke-width="0.117356" points="298.296,-343.016 302.118,-333.135 292.968,-338.476 298.296,-343.016"/>
</g>
<!-- 166561 -->
<g id="node22" class="node"><title>166561</title>
<ellipse fill="white" stroke="black" cx="237.577" cy="-311.647" rx="31.2258" ry="31.2258"/>
<text text-anchor="middle" x="237.577" y="-309.447" font-family="Times,serif" font-size="9.00">166561</text>
</g>
<!-- uy&#45;&gt;166561 -->
<g id="edge8" class="edge"><title>uy&#45;&gt;166561</title>
<path fill="none" stroke="green" stroke-width="0.229754" d="M237.577,-391.223C237.577,-380.606 237.577,-366.626 237.577,-353.405"/>
<polygon fill="green" stroke="green" stroke-width="0.229754" points="241.077,-353.043 237.577,-343.044 234.077,-353.044 241.077,-353.043"/>
</g>
<!-- 693634&#45;&gt;26005 -->
<g id="edge71" class="edge"><title>693634&#45;&gt;26005</title>
<path fill="none" stroke="red" stroke-width="0.114341" d="M649.636,-673.366C649.348,-664.137 649.029,-653.882 648.729,-644.258"/>
<polygon fill="red" stroke="red" stroke-width="0.114341" points="652.223,-644.027 648.413,-634.141 645.227,-644.245 652.223,-644.027"/>
</g>
<!-- 696388 -->
<g id="node33" class="node"><title>696388</title>
<ellipse fill="white" stroke="black" cx="884.577" cy="-606.323" rx="31.2258" ry="31.2258"/>
<text text-anchor="middle" x="884.577" y="-604.123" font-family="Times,serif" font-size="9.00">696388</text>
</g>
<!-- 693751&#45;&gt;696388 -->
<g id="edge9" class="edge"><title>693751&#45;&gt;696388</title>
<path fill="none" stroke="green" stroke-width="0.381972" d="M865.751,-674.416C868.263,-665.467 871.067,-655.473 873.728,-645.989"/>
<polygon fill="green" stroke="green" stroke-width="0.381972" points="877.099,-646.93 876.431,-636.356 870.359,-645.038 877.099,-646.93"/>
</g>
<!-- 693128&#45;&gt;26005 -->
<g id="edge22" class="edge"><title>693128&#45;&gt;26005</title>
<path fill="none" stroke="red" stroke-width="0.201991" d="M710.485,-680.255C698.827,-666.739 684.065,-649.624 671.771,-635.372"/>
<polygon fill="red" stroke="red" stroke-width="0.201991" points="674.412,-633.075 665.23,-627.789 669.111,-637.647 674.412,-633.075"/>
</g>
<!-- 25752 -->
<g id="node19" class="node"><title>25752</title>
<ellipse fill="white" stroke="black" cx="27.5772" cy="-508.098" rx="27.6545" ry="27.6545"/>
<text text-anchor="middle" x="27.5772" y="-505.898" font-family="Times,serif" font-size="9.00">25752</text>
</g>
<!-- 28942&#45;&gt;25752 -->
<g id="edge60" class="edge"><title>28942&#45;&gt;25752</title>
<path fill="none" stroke="red" stroke-width="0.682491" d="M59.5872,-677.324C53.1323,-643.401 41.8528,-584.122 34.5525,-545.756"/>
<polygon fill="red" stroke="red" stroke-width="0.682491" points="37.9139,-544.697 32.6063,-535.528 31.0373,-546.006 37.9139,-544.697"/>
</g>
<!-- 5137&#45;&gt;uy -->
<g id="edge61" class="edge"><title>5137&#45;&gt;uy</title>
<path fill="none" stroke="green" stroke-width="1.74423" d="M363.085,-490.531C357.927,-485.945 352.163,-481.101 346.577,-476.985 319.138,-456.766 285.267,-436.948 262.632,-424.366"/>
<polygon fill="green" stroke="green" stroke-width="1.74423" points="264.119,-421.19 253.671,-419.436 260.745,-427.323 264.119,-421.19"/>
</g>
<!-- 5137&#45;&gt;16537 -->
<g id="edge45" class="edge"><title>5137&#45;&gt;16537</title>
<path fill="none" stroke="green" stroke-width="0.505441" d="M373.34,-484.028C362.773,-450.341 343.032,-387.413 330.636,-347.901"/>
<polygon fill="green" stroke="green" stroke-width="0.505441" points="333.91,-346.643 327.577,-338.149 327.231,-348.738 333.91,-346.643"/>
</g>
<!-- 36374 -->
<g id="node15" class="node"><title>36374</title>
<ellipse fill="white" stroke="black" cx="615.577" cy="-27.5772" rx="27.6545" ry="27.6545"/>
<text text-anchor="middle" x="615.577" y="-25.3772" font-family="Times,serif" font-size="9.00">36374</text>
</g>
<!-- 28568&#45;&gt;ux -->
<g id="edge7" class="edge"><title>28568&#45;&gt;ux</title>
<path fill="none" stroke="green" stroke-width="0.238773" d="M611.443,-429.586C624.483,-444.587 640.949,-465.772 652.429,-482.204"/>
<polygon fill="green" stroke="green" stroke-width="0.238773" points="649.732,-484.462 658.241,-490.774 655.525,-480.533 649.732,-484.462"/>
</g>
<!-- 13685 -->
<g id="node45" class="node"><title>13685</title>
<ellipse fill="white" stroke="black" cx="347.577" cy="-213.421" rx="27.6545" ry="27.6545"/>
<text text-anchor="middle" x="347.577" y="-211.221" font-family="Times,serif" font-size="9.00">13685</text>
</g>
<!-- 16537&#45;&gt;13685 -->
<g id="edge73" class="edge"><title>16537&#45;&gt;13685</title>
<path fill="none" stroke="red" stroke-width="0.20552" d="M321.195,-284.098C323.762,-272.798 327.518,-259.498 331.483,-247.563"/>
<polygon fill="red" stroke="red" stroke-width="0.20552" points="334.853,-248.527 334.841,-237.932 328.244,-246.222 334.853,-248.527"/>
</g>
<!-- 24757 -->
<g id="node30" class="node"><title>24757</title>
<ellipse fill="white" stroke="black" cx="148.577" cy="-606.323" rx="27.6545" ry="27.6545"/>
<text text-anchor="middle" x="148.577" y="-604.123" font-family="Times,serif" font-size="9.00">24757</text>
</g>
<!-- 693657&#45;&gt;24757 -->
<g id="edge27" class="edge"><title>693657&#45;&gt;24757</title>
<path fill="none" stroke="red" stroke-width="0.213052" d="M352.773,-694.45C306.445,-680.113 219.472,-652.362 190.577,-637.436 186.317,-635.235 182.006,-632.641 177.85,-629.914"/>
<polygon fill="red" stroke="red" stroke-width="0.213052" points="179.82,-627.021 169.604,-624.212 175.839,-632.779 179.82,-627.021"/>
</g>
<!-- 25752&#45;&gt;uy -->
<g id="edge23" class="edge"><title>25752&#45;&gt;uy</title>
<path fill="none" stroke="green" stroke-width="0.429317" d="M49.1409,-490.09C55.5124,-485.497 62.6424,-480.76 69.5772,-476.985 116.98,-451.183 176.619,-430.181 210.589,-419.194"/>
<polygon fill="green" stroke="green" stroke-width="0.429317" points="211.799,-422.482 220.265,-416.112 209.675,-415.812 211.799,-422.482"/>
</g>
<!-- 20253 -->
<g id="node20" class="node"><title>20253</title>
<ellipse fill="white" stroke="black" cx="720.577" cy="-606.323" rx="27.6545" ry="27.6545"/>
<text text-anchor="middle" x="720.577" y="-604.123" font-family="Times,serif" font-size="9.00">20253</text>
</g>
<!-- 20253&#45;&gt;ux -->
<g id="edge25" class="edge"><title>20253&#45;&gt;ux</title>
<path fill="none" stroke="green" stroke-width="0.508595" d="M707.263,-582.029C698.786,-567.198 687.831,-548.033 679.28,-533.071"/>
<polygon fill="green" stroke="green" stroke-width="0.508595" points="682.31,-531.32 674.309,-524.375 676.233,-534.793 682.31,-531.32"/>
</g>
<!-- 1712 -->
<g id="node28" class="node"><title>1712</title>
<ellipse fill="white" stroke="black" cx="664.577" cy="-311.647" rx="25" ry="25"/>
<text text-anchor="middle" x="664.577" y="-309.447" font-family="Times,serif" font-size="9.00">1712</text>
</g>
<!-- 20253&#45;&gt;1712 -->
<g id="edge56" class="edge"><title>20253&#45;&gt;1712</title>
<path fill="none" stroke="green" stroke-width="0.473524" d="M721.945,-578.472C723.349,-535.339 722.886,-448.398 701.577,-378.759 697.538,-365.56 690.593,-352.072 683.803,-340.751"/>
<polygon fill="green" stroke="green" stroke-width="0.473524" points="686.716,-338.808 678.449,-332.182 680.78,-342.517 686.716,-338.808"/>
</g>
<!-- 23968 -->
<g id="node21" class="node"><title>23968</title>
<ellipse fill="white" stroke="black" cx="788.577" cy="-799.238" rx="27.6545" ry="27.6545"/>
<text text-anchor="middle" x="788.577" y="-797.038" font-family="Times,serif" font-size="9.00">23968</text>
</g>
<!-- 28856 -->
<g id="node31" class="node"><title>28856</title>
<ellipse fill="white" stroke="black" cx="959.577" cy="-213.421" rx="27.6545" ry="27.6545"/>
<text text-anchor="middle" x="959.577" y="-211.221" font-family="Times,serif" font-size="9.00">28856</text>
</g>
<!-- 32421&#45;&gt;28856 -->
<g id="edge5" class="edge"><title>32421&#45;&gt;28856</title>
<path fill="none" stroke="red" stroke-width="0.283402" d="M961.669,-385.49C967.816,-373.184 974.465,-357.602 977.577,-342.759 984.14,-311.462 977.867,-275.357 970.988,-249.43"/>
<polygon fill="red" stroke="red" stroke-width="0.283402" points="974.322,-248.357 968.245,-239.678 967.583,-250.252 974.322,-248.357"/>
</g>
<!-- 32421&#45;&gt;33114 -->
<g id="edge37" class="edge"><title>32421&#45;&gt;33114</title>
<path fill="none" stroke="green" stroke-width="0.693034" d="M946.37,-382.323C945.529,-372.206 944.554,-360.484 943.647,-349.575"/>
<polygon fill="green" stroke="green" stroke-width="0.693034" points="947.122,-349.119 942.805,-339.443 940.146,-349.699 947.122,-349.119"/>
</g>
<!-- 705829 -->
<g id="node24" class="node"><title>705829</title>
<ellipse fill="white" stroke="black" cx="779.577" cy="-409.872" rx="31.2258" ry="31.2258"/>
<text text-anchor="middle" x="779.577" y="-407.672" font-family="Times,serif" font-size="9.00">705829</text>
</g>
<!-- 705829&#45;&gt;1712 -->
<g id="edge50" class="edge"><title>705829&#45;&gt;1712</title>
<path fill="none" stroke="green" stroke-width="0.333431" d="M756.028,-389.167C737.084,-373.316 710.481,-351.056 690.849,-334.629"/>
<polygon fill="green" stroke="green" stroke-width="0.333431" points="693.085,-331.937 683.17,-328.204 688.593,-337.306 693.085,-331.937"/>
</g>
<!-- 34087 -->
<g id="node25" class="node"><title>34087</title>
<ellipse fill="white" stroke="black" cx="664.577" cy="-409.872" rx="27.6545" ry="27.6545"/>
<text text-anchor="middle" x="664.577" y="-407.672" font-family="Times,serif" font-size="9.00">34087</text>
</g>
<!-- 34087&#45;&gt;1712 -->
<g id="edge64" class="edge"><title>34087&#45;&gt;1712</title>
<path fill="none" stroke="red" stroke-width="0.480275" d="M664.577,-382.068C664.577,-371.168 664.577,-358.441 664.577,-346.881"/>
<polygon fill="red" stroke="red" stroke-width="0.480275" points="668.077,-346.68 664.577,-336.68 661.077,-346.68 668.077,-346.68"/>
</g>
<!-- 693547 -->
<g id="node26" class="node"><title>693547</title>
<ellipse fill="white" stroke="black" cx="514.577" cy="-409.872" rx="31.2258" ry="31.2258"/>
<text text-anchor="middle" x="514.577" y="-407.672" font-family="Times,serif" font-size="9.00">693547</text>
</g>
<!-- 693547&#45;&gt;1712 -->
<g id="edge42" class="edge"><title>693547&#45;&gt;1712</title>
<path fill="none" stroke="green" stroke-width="0.172215" d="M538.823,-389.988C543.954,-386.171 549.388,-382.258 554.577,-378.759 580.881,-361.024 611.953,-342.566 634.352,-329.675"/>
<polygon fill="green" stroke="green" stroke-width="0.172215" points="636.14,-332.684 643.081,-324.68 632.663,-326.608 636.14,-332.684"/>
</g>
<!-- 21548&#45;&gt;693547 -->
<g id="edge65" class="edge"><title>21548&#45;&gt;693547</title>
<path fill="none" stroke="green" stroke-width="0.186135" d="M496.277,-481.311C498.776,-471.692 501.672,-460.544 504.413,-449.993"/>
<polygon fill="green" stroke="green" stroke-width="0.186135" points="507.848,-450.69 506.976,-440.131 501.073,-448.929 507.848,-450.69"/>
</g>
<!-- 21548&#45;&gt;13685 -->
<g id="edge1" class="edge"><title>21548&#45;&gt;13685</title>
<path fill="none" stroke="green" stroke-width="0.281948" d="M464.991,-495.118C444.625,-483.918 416.526,-465.283 400.577,-440.985 380.221,-409.973 361.794,-306.844 353.005,-251.039"/>
<polygon fill="green" stroke="green" stroke-width="0.281948" points="356.419,-250.216 351.428,-240.871 349.502,-251.289 356.419,-250.216"/>
</g>
<!-- 693208 -->
<g id="node36" class="node"><title>693208</title>
<ellipse fill="white" stroke="black" cx="631.577" cy="-213.421" rx="31.2258" ry="31.2258"/>
<text text-anchor="middle" x="631.577" y="-211.221" font-family="Times,serif" font-size="9.00">693208</text>
</g>
<!-- 1712&#45;&gt;693208 -->
<g id="edge39" class="edge"><title>1712&#45;&gt;693208</title>
<path fill="none" stroke="green" stroke-width="0.613259" d="M656.757,-287.843C653.183,-277.422 648.85,-264.787 644.793,-252.957"/>
<polygon fill="green" stroke="green" stroke-width="0.613259" points="648.027,-251.6 641.473,-243.276 641.406,-253.87 648.027,-251.6"/>
</g>
<!-- 77237 -->
<g id="node29" class="node"><title>77237</title>
<ellipse fill="white" stroke="black" cx="538.577" cy="-27.5772" rx="27.6545" ry="27.6545"/>
<text text-anchor="middle" x="538.577" y="-25.3772" font-family="Times,serif" font-size="9.00">77237</text>
</g>
<!-- 77237&#45;&gt;693547 -->
<g id="edge26" class="edge"><title>77237&#45;&gt;693547</title>
<path fill="none" stroke="red" stroke-width="0.25094" d="M536.9,-55.1464C532.767,-120.639 522.069,-290.157 517.137,-368.312"/>
<polygon fill="red" stroke="red" stroke-width="0.25094" points="513.617,-368.513 516.48,-378.713 520.603,-368.953 513.617,-368.513"/>
</g>
<!-- 24757&#45;&gt;191707 -->
<g id="edge4" class="edge"><title>24757&#45;&gt;191707</title>
<path fill="none" stroke="green" stroke-width="0.337508" d="M165.502,-584.443C175.765,-571.783 189.068,-555.371 200.638,-541.098"/>
<polygon fill="green" stroke="green" stroke-width="0.337508" points="203.635,-542.958 207.213,-532.986 198.197,-538.55 203.635,-542.958"/>
</g>
<!-- 24757&#45;&gt;13685 -->
<g id="edge59" class="edge"><title>24757&#45;&gt;13685</title>
<path fill="none" stroke="green" stroke-width="0.559843" d="M143.936,-578.733C134.931,-517.815 122.082,-366.78 197.577,-280.534 226.88,-247.058 276.33,-229.813 310.394,-221.46"/>
<polygon fill="green" stroke="green" stroke-width="0.559843" points="311.475,-224.802 320.433,-219.144 309.902,-217.981 311.475,-224.802"/>
</g>
<!-- 28856&#45;&gt;24670 -->
<g id="edge30" class="edge"><title>28856&#45;&gt;24670</title>
<path fill="none" stroke="green" stroke-width="0.197245" d="M959.577,-185.612C959.577,-176.581 959.577,-166.339 959.577,-156.667"/>
<polygon fill="green" stroke="green" stroke-width="0.197245" points="963.077,-156.481 959.577,-146.481 956.077,-156.481 963.077,-156.481"/>
</g>
<!-- 693444 -->
<g id="node32" class="node"><title>693444</title>
<ellipse fill="white" stroke="black" cx="306.577" cy="-508.098" rx="31.2258" ry="31.2258"/>
<text text-anchor="middle" x="306.577" y="-505.898" font-family="Times,serif" font-size="9.00">693444</text>
</g>
<!-- 693444&#45;&gt;uy -->
<g id="edge40" class="edge"><title>693444&#45;&gt;uy</title>
<path fill="none" stroke="green" stroke-width="0.248792" d="M288.808,-482.317C278.094,-467.376 264.54,-448.474 254.065,-433.866"/>
<polygon fill="green" stroke="green" stroke-width="0.248792" points="256.665,-431.486 247.994,-425.399 250.977,-435.565 256.665,-431.486"/>
</g>
<!-- 20464 -->
<g id="node42" class="node"><title>20464</title>
<ellipse fill="white" stroke="black" cx="892.577" cy="-508.098" rx="27.6545" ry="27.6545"/>
<text text-anchor="middle" x="892.577" y="-505.898" font-family="Times,serif" font-size="9.00">20464</text>
</g>
<!-- 696388&#45;&gt;20464 -->
<g id="edge53" class="edge"><title>696388&#45;&gt;20464</title>
<path fill="none" stroke="red" stroke-width="0.48448" d="M887.086,-575.141C887.86,-565.831 888.721,-555.476 889.528,-545.779"/>
<polygon fill="red" stroke="red" stroke-width="0.48448" points="893.034,-545.851 890.374,-535.595 886.058,-545.271 893.034,-545.851"/>
</g>
<!-- 702151&#45;&gt;191707 -->
<g id="edge21" class="edge"><title>702151&#45;&gt;191707</title>
<path fill="none" stroke="red" stroke-width="0.217835" d="M252.676,-576.973C249.058,-567.562 244.97,-556.931 241.121,-546.922"/>
<polygon fill="red" stroke="red" stroke-width="0.217835" points="244.384,-545.655 237.528,-537.578 237.85,-548.168 244.384,-545.655"/>
</g>
<!-- 32341 -->
<g id="node35" class="node"><title>32341</title>
<ellipse fill="white" stroke="black" cx="601.577" cy="-508.098" rx="27.6545" ry="27.6545"/>
<text text-anchor="middle" x="601.577" y="-505.898" font-family="Times,serif" font-size="9.00">32341</text>
</g>
<!-- 32341&#45;&gt;28568 -->
<g id="edge18" class="edge"><title>32341&#45;&gt;28568</title>
<path fill="none" stroke="red" stroke-width="0.381832" d="M598.818,-480.549C597.758,-470.347 596.528,-458.514 595.386,-447.528"/>
<polygon fill="red" stroke="red" stroke-width="0.381832" points="598.842,-446.919 594.327,-437.334 591.88,-447.642 598.842,-446.919"/>
</g>
<!-- 26612 -->
<g id="node44" class="node"><title>26612</title>
<ellipse fill="white" stroke="black" cx="437.577" cy="-409.872" rx="27.6545" ry="27.6545"/>
<text text-anchor="middle" x="437.577" y="-407.672" font-family="Times,serif" font-size="9.00">26612</text>
</g>
<!-- 32341&#45;&gt;26612 -->
<g id="edge19" class="edge"><title>32341&#45;&gt;26612</title>
<path fill="none" stroke="red" stroke-width="0.11361" d="M579.95,-490.205C573.577,-485.614 566.463,-480.848 559.577,-476.985 523.798,-456.909 509.726,-462.144 474.577,-440.985 471.739,-439.276 468.884,-437.366 466.088,-435.36"/>
<polygon fill="red" stroke="red" stroke-width="0.11361" points="468.022,-432.433 457.947,-429.155 463.778,-438.001 468.022,-432.433"/>
</g>
<!-- 6771 -->
<g id="node43" class="node"><title>6771</title>
<ellipse fill="white" stroke="black" cx="615.577" cy="-118.731" rx="25" ry="25"/>
<text text-anchor="middle" x="615.577" y="-116.531" font-family="Times,serif" font-size="9.00">6771</text>
</g>
<!-- 693208&#45;&gt;6771 -->
<g id="edge10" class="edge"><title>693208&#45;&gt;6771</title>
<path fill="none" stroke="green" stroke-width="0.14983" d="M626.427,-182.583C624.816,-173.256 623.029,-162.902 621.378,-153.334"/>
<polygon fill="green" stroke="green" stroke-width="0.14983" points="624.804,-152.605 619.653,-143.346 617.906,-153.796 624.804,-152.605"/>
</g>
<!-- 33114&#45;&gt;28856 -->
<g id="edge47" class="edge"><title>33114&#45;&gt;28856</title>
<path fill="none" stroke="green" stroke-width="0.507358" d="M945.769,-284.353C947.822,-273.957 950.215,-261.838 952.426,-250.637"/>
<polygon fill="green" stroke="green" stroke-width="0.507358" points="955.888,-251.172 954.392,-240.684 949.021,-249.816 955.888,-251.172"/>
</g>
<!-- 191707&#45;&gt;uy -->
<g id="edge2" class="edge"><title>191707&#45;&gt;uy</title>
<path fill="none" stroke="red" stroke-width="0.444705" d="M230.027,-476.915C231.441,-464.553 233.065,-450.347 234.443,-438.286"/>
<polygon fill="red" stroke="red" stroke-width="0.444705" points="237.922,-438.672 235.58,-428.339 230.967,-437.877 237.922,-438.672"/>
</g>
<!-- 24670&#45;&gt;20464 -->
<g id="edge17" class="edge"><title>24670&#45;&gt;20464</title>
<path fill="none" stroke="red" stroke-width="0.166782" d="M944.079,-141.672C936.555,-153.269 927.993,-168.03 922.577,-182.309 885.084,-281.159 886.322,-408.573 889.74,-470.312"/>
<polygon fill="red" stroke="red" stroke-width="0.166782" points="886.249,-470.58 890.348,-480.35 893.237,-470.156 886.249,-470.58"/>
</g>
<!-- 24936 -->
<g id="node40" class="node"><title>24936</title>
<ellipse fill="white" stroke="black" cx="340.577" cy="-606.323" rx="27.6545" ry="27.6545"/>
<text text-anchor="middle" x="340.577" y="-604.123" font-family="Times,serif" font-size="9.00">24936</text>
</g>
<!-- 24936&#45;&gt;693444 -->
<g id="edge46" class="edge"><title>24936&#45;&gt;693444</title>
<path fill="none" stroke="green" stroke-width="0.394609" d="M331.644,-580.041C328.083,-569.963 323.908,-558.145 319.997,-547.077"/>
<polygon fill="green" stroke="green" stroke-width="0.394609" points="323.282,-545.869 316.65,-537.606 316.682,-548.201 323.282,-545.869"/>
</g>
<!-- 694126&#45;&gt;32421 -->
<g id="edge11" class="edge"><title>694126&#45;&gt;32421</title>
<path fill="none" stroke="red" stroke-width="0.317529" d="M938.713,-673.329C940.744,-619.294 944.99,-506.308 947.19,-447.781"/>
<polygon fill="red" stroke="red" stroke-width="0.317529" points="950.698,-447.638 947.576,-437.513 943.703,-447.375 950.698,-447.638"/>
</g>
<!-- 20464&#45;&gt;32421 -->
<g id="edge32" class="edge"><title>20464&#45;&gt;32421</title>
<path fill="none" stroke="red" stroke-width="0.27639" d="M906.133,-483.804C913.234,-471.602 922.042,-456.467 929.791,-443.153"/>
<polygon fill="red" stroke="red" stroke-width="0.27639" points="932.947,-444.688 934.952,-434.285 926.897,-441.167 932.947,-444.688"/>
</g>
<!-- 20464&#45;&gt;705829 -->
<g id="edge69" class="edge"><title>20464&#45;&gt;705829</title>
<path fill="none" stroke="green" stroke-width="0.243166" d="M871.851,-489.448C854.715,-474.856 830.121,-453.913 810.633,-437.317"/>
<polygon fill="green" stroke="green" stroke-width="0.243166" points="812.784,-434.552 802.901,-430.734 808.245,-439.882 812.784,-434.552"/>
</g>
<!-- 6771&#45;&gt;36374 -->
<g id="edge38" class="edge"><title>6771&#45;&gt;36374</title>
<path fill="none" stroke="green" stroke-width="0.217827" d="M615.577,-93.8398C615.577,-85.1277 615.577,-75.0612 615.577,-65.482"/>
<polygon fill="green" stroke="green" stroke-width="0.217827" points="619.077,-65.366 615.577,-55.3661 612.077,-65.3661 619.077,-65.366"/>
</g>
<!-- 6771&#45;&gt;77237 -->
<g id="edge41" class="edge"><title>6771&#45;&gt;77237</title>
<path fill="none" stroke="green" stroke-width="0.613485" d="M599.623,-99.2587C589.018,-86.9795 574.889,-70.6202 562.894,-56.7328"/>
<polygon fill="green" stroke="green" stroke-width="0.613485" points="565.307,-54.1717 556.122,-48.8913 560.009,-58.7472 565.307,-54.1717"/>
</g>
<!-- 6771&#45;&gt;6771 -->
<g id="edge34" class="edge"><title>6771&#45;&gt;6771</title>
<path fill="none" stroke="red" stroke-width="0.544691" d="M634.921,-134.416C646.913,-138.198 658.326,-132.97 658.326,-118.731 658.326,-108.609 652.558,-103.04 644.914,-102.026"/>
<polygon fill="red" stroke="red" stroke-width="0.544691" points="644.514,-98.5486 634.921,-103.047 645.225,-105.512 644.514,-98.5486"/>
</g>
<!-- 26612&#45;&gt;13685 -->
<g id="edge12" class="edge"><title>26612&#45;&gt;13685</title>
<path fill="none" stroke="red" stroke-width="0.274303" d="M452.452,-386.5C468.263,-359.646 488.456,-314.049 468.577,-280.534 450.443,-249.961 412.635,-232.612 384.078,-223.432"/>
<polygon fill="red" stroke="red" stroke-width="0.274303" points="384.995,-220.053 374.411,-220.517 382.975,-226.755 384.995,-220.053"/>
</g>
<!-- 30839 -->
<g id="node47" class="node"><title>30839</title>
<ellipse fill="white" stroke="black" cx="431.577" cy="-311.647" rx="27.6545" ry="27.6545"/>
<text text-anchor="middle" x="431.577" y="-309.447" font-family="Times,serif" font-size="9.00">30839</text>
</g>
<!-- 26612&#45;&gt;30839 -->
<g id="edge31" class="edge"><title>26612&#45;&gt;30839</title>
<path fill="none" stroke="green" stroke-width="0.400204" d="M435.922,-382.323C435.291,-372.206 434.56,-360.484 433.88,-349.575"/>
<polygon fill="green" stroke="green" stroke-width="0.400204" points="437.364,-349.206 433.248,-339.443 430.377,-349.641 437.364,-349.206"/>
</g>
<!-- 13685&#45;&gt;16537 -->
<g id="edge58" class="edge"><title>13685&#45;&gt;16537</title>
<path fill="none" stroke="green" stroke-width="0.2346" d="M345.956,-240.984C343.406,-252.208 339.683,-265.403 335.748,-277.273"/>
<polygon fill="green" stroke="green" stroke-width="0.2346" points="332.393,-276.266 332.414,-286.861 339.005,-278.565 332.393,-276.266"/>
</g>
<!-- 30839&#45;&gt;13685 -->
<g id="edge15" class="edge"><title>30839&#45;&gt;13685</title>
<path fill="none" stroke="green" stroke-width="0.353861" d="M413.763,-290.24C401.624,-276.334 385.396,-257.744 372.047,-242.452"/>
<polygon fill="green" stroke="green" stroke-width="0.353861" points="374.579,-240.031 365.366,-234.799 369.305,-244.634 374.579,-240.031"/>
</g>
<!-- 28667&#45;&gt;uy -->
<g id="edge63" class="edge"><title>28667&#45;&gt;uy</title>
<path fill="none" stroke="green" stroke-width="0.356916" d="M222.332,-699.295C189.539,-692.557 135.856,-675.988 111.577,-637.436 72.9602,-576.115 97.8946,-535.548 140.577,-476.985 158.876,-451.878 189.777,-433.229 211.783,-422.25"/>
<polygon fill="green" stroke="green" stroke-width="0.356916" points="213.392,-425.36 220.899,-417.884 210.368,-419.047 213.392,-425.36"/>
</g>
<!-- 22525 -->
<g id="node49" class="node"><title>22525</title>
<ellipse fill="white" stroke="black" cx="413.577" cy="-606.323" rx="27.6545" ry="27.6545"/>
<text text-anchor="middle" x="413.577" y="-604.123" font-family="Times,serif" font-size="9.00">22525</text>
</g>
<!-- 22525&#45;&gt;693547 -->
<g id="edge66" class="edge"><title>22525&#45;&gt;693547</title>
<path fill="none" stroke="red" stroke-width="0.1716" d="M417.902,-579.08C423.159,-552.099 433.755,-509.544 452.577,-476.985 460.846,-462.681 472.762,-448.989 483.943,-437.813"/>
<polygon fill="red" stroke="red" stroke-width="0.1716" points="486.385,-440.32 491.138,-430.851 481.517,-435.289 486.385,-440.32"/>
</g>
<!-- 22525&#45;&gt;21548 -->
<g id="edge68" class="edge"><title>22525&#45;&gt;21548</title>
<path fill="none" stroke="red" stroke-width="0.177985" d="M430.444,-583.967C440.972,-570.637 454.674,-553.289 466.237,-538.649"/>
<polygon fill="red" stroke="red" stroke-width="0.177985" points="469.306,-540.41 472.757,-530.393 463.813,-536.072 469.306,-540.41"/>
</g>
<!-- 22525&#45;&gt;693444 -->
<g id="edge29" class="edge"><title>22525&#45;&gt;693444</title>
<path fill="none" stroke="red" stroke-width="0.114083" d="M393.451,-587.224C377.56,-572.933 355.128,-552.76 337.039,-536.492"/>
<polygon fill="red" stroke="red" stroke-width="0.114083" points="339.361,-533.873 329.585,-529.788 334.68,-539.078 339.361,-533.873"/>
</g>
</g>
</svg>
