<?xml version="1.0" encoding="UTF-8" standalone="no"?>
<!DOCTYPE svg PUBLIC "-//W3C//DTD SVG 1.1//EN"
 "http://www.w3.org/Graphics/SVG/1.1/DTD/svg11.dtd">
<!-- Generated by graphviz version 2.38.0 (20140413.2041)
 -->
<!-- Title: %3 Pages: 1 -->
<svg width="645pt" height="1038pt"
 viewBox="0.00 0.00 644.60 1037.83" xmlns="http://www.w3.org/2000/svg" xmlns:xlink="http://www.w3.org/1999/xlink">
<g id="graph0" class="graph" transform="scale(1 1) rotate(0) translate(4 1033.83)">
<title>%3</title>
<polygon fill="white" stroke="none" points="-4,4 -4,-1033.83 640.598,-1033.83 640.598,4 -4,4"/>
<!-- ext -->
<g id="node1" class="node"><title>ext</title>
<polygon fill="lightgray" stroke="black" points="211.5,-871.753 184.5,-871.753 184.5,-853.753 211.5,-853.753 211.5,-871.753"/>
<text text-anchor="middle" x="198" y="-860.553" font-family="Times,serif" font-size="9.00">ext</text>
</g>
<!-- ux -->
<g id="node6" class="node"><title>ux</title>
<ellipse fill="lightblue" stroke="black" cx="424" cy="-768.063" rx="18.2703" ry="18.2703"/>
<text text-anchor="middle" x="424" y="-765.863" font-family="Times,serif" font-size="9.00">ux</text>
</g>
<!-- ext&#45;&gt;ux -->
<g id="edge2" class="edge"><title>ext&#45;&gt;ux</title>
<path fill="none" stroke="green" stroke-width="0.113592" d="M211.797,-856.094C248.57,-841.013 349.408,-799.656 397.633,-779.877"/>
<polygon fill="green" stroke="green" stroke-width="0.113592" points="399.159,-783.034 407.083,-776.001 396.503,-776.558 399.159,-783.034"/>
</g>
<!-- 653 -->
<g id="node10" class="node"><title>653</title>
<ellipse fill="white" stroke="black" cx="125" cy="-768.063" rx="21.4286" ry="21.4286"/>
<text text-anchor="middle" x="125" y="-765.863" font-family="Times,serif" font-size="9.00">653</text>
</g>
<!-- ext&#45;&gt;653 -->
<g id="edge47" class="edge"><title>ext&#45;&gt;653</title>
<path fill="none" stroke="red" stroke-width="0.872337" d="M191.522,-853.527C180.958,-840.114 159.628,-813.031 143.958,-793.134"/>
<polygon fill="red" stroke="red" stroke-width="0.872337" points="146.573,-790.798 137.636,-785.108 141.074,-795.129 146.573,-790.798"/>
</g>
<!-- 16193 -->
<g id="node19" class="node"><title>16193</title>
<ellipse fill="white" stroke="black" cx="192" cy="-768.063" rx="27.6545" ry="27.6545"/>
<text text-anchor="middle" x="192" y="-765.863" font-family="Times,serif" font-size="9.00">16193</text>
</g>
<!-- ext&#45;&gt;16193 -->
<g id="edge34" class="edge"><title>ext&#45;&gt;16193</title>
<path fill="none" stroke="green" stroke-width="0.400087" d="M197.468,-853.527C196.772,-842.787 195.51,-823.281 194.373,-805.719"/>
<polygon fill="green" stroke="green" stroke-width="0.400087" points="197.862,-805.437 193.723,-795.684 190.877,-805.89 197.862,-805.437"/>
</g>
<!-- 66 -->
<g id="node20" class="node"><title>66</title>
<ellipse fill="white" stroke="black" cx="256" cy="-768.063" rx="18.2703" ry="18.2703"/>
<text text-anchor="middle" x="256" y="-765.863" font-family="Times,serif" font-size="9.00">66</text>
</g>
<!-- ext&#45;&gt;66 -->
<g id="edge5" class="edge"><title>ext&#45;&gt;66</title>
<path fill="none" stroke="red" stroke-width="0.10761" d="M203.147,-853.527C211.61,-840.003 228.768,-812.582 241.245,-792.643"/>
<polygon fill="red" stroke="red" stroke-width="0.10761" points="244.263,-794.418 246.601,-784.084 238.329,-790.705 244.263,-794.418"/>
</g>
<!-- eyt -->
<g id="node2" class="node"><title>eyt</title>
<polygon fill="lightgray" stroke="black" points="263.5,-526.935 236.5,-526.935 236.5,-508.935 263.5,-508.935 263.5,-526.935"/>
<text text-anchor="middle" x="250" y="-515.735" font-family="Times,serif" font-size="9.00">eyt</text>
</g>
<!-- 2175 -->
<g id="node27" class="node"><title>2175</title>
<ellipse fill="white" stroke="black" cx="211" cy="-432.437" rx="25" ry="25"/>
<text text-anchor="middle" x="211" y="-430.237" font-family="Times,serif" font-size="9.00">2175</text>
</g>
<!-- eyt&#45;&gt;2175 -->
<g id="edge27" class="edge"><title>eyt&#45;&gt;2175</title>
<path fill="none" stroke="green" stroke-width="0.171914" d="M246.261,-508.929C241.479,-498.692 232.922,-480.372 225.436,-464.343"/>
<polygon fill="green" stroke="green" stroke-width="0.171914" points="228.591,-462.828 221.188,-455.249 222.249,-465.791 228.591,-462.828"/>
</g>
<!-- sf -->
<g id="node3" class="node"><title>sf</title>
<polygon fill="lightgray" stroke="black" points="130.5,-1029.83 107.5,-1029.83 107.5,-1011.83 130.5,-1011.83 130.5,-1029.83"/>
<text text-anchor="middle" x="119" y="-1018.63" font-family="Times,serif" font-size="9.00">sf</text>
</g>
<!-- uy -->
<g id="node7" class="node"><title>uy</title>
<ellipse fill="lightblue" stroke="black" cx="359" cy="-103.882" rx="18.2703" ry="18.2703"/>
<text text-anchor="middle" x="359" y="-101.682" font-family="Times,serif" font-size="9.00">uy</text>
</g>
<!-- sf&#45;&gt;uy -->
<g id="edge26" class="edge"><title>sf&#45;&gt;uy</title>
<path fill="none" stroke="red" stroke-width="0.219091" d="M107.265,-1014.94C92.2159,-1008.15 66.1399,-994.553 50,-975.828 14.3898,-934.513 0,-918.296 0,-863.753 0,-863.753 0,-863.753 0,-254.078 0,-182.556 246.049,-127.201 330.753,-110.264"/>
<polygon fill="red" stroke="red" stroke-width="0.219091" points="331.569,-113.671 340.704,-108.304 330.216,-106.803 331.569,-113.671"/>
</g>
<!-- sf&#45;&gt;653 -->
<g id="edge33" class="edge"><title>sf&#45;&gt;653</title>
<path fill="none" stroke="red" stroke-width="0.269574" d="M119.193,-1011.77C119.967,-979.399 122.876,-857.821 124.26,-799.994"/>
<polygon fill="red" stroke="red" stroke-width="0.269574" points="127.767,-799.729 124.507,-789.648 120.769,-799.562 127.767,-799.729"/>
</g>
<!-- 315 -->
<g id="node14" class="node"><title>315</title>
<ellipse fill="white" stroke="black" cx="241" cy="-951.079" rx="21.4286" ry="21.4286"/>
<text text-anchor="middle" x="241" y="-948.879" font-family="Times,serif" font-size="9.00">315</text>
</g>
<!-- sf&#45;&gt;315 -->
<g id="edge17" class="edge"><title>sf&#45;&gt;315</title>
<path fill="none" stroke="red" stroke-width="0.205401" d="M130.509,-1014.58C147.401,-1006.76 179.747,-991.287 206,-975.828 209.227,-973.927 212.557,-971.841 215.822,-969.72"/>
<polygon fill="red" stroke="red" stroke-width="0.205401" points="217.826,-972.59 224.193,-964.121 213.935,-966.771 217.826,-972.59"/>
</g>
<!-- 7161 -->
<g id="node15" class="node"><title>7161</title>
<ellipse fill="white" stroke="black" cx="172" cy="-951.079" rx="25" ry="25"/>
<text text-anchor="middle" x="172" y="-948.879" font-family="Times,serif" font-size="9.00">7161</text>
</g>
<!-- sf&#45;&gt;7161 -->
<g id="edge9" class="edge"><title>sf&#45;&gt;7161</title>
<path fill="none" stroke="red" stroke-width="0.267667" d="M125.288,-1011.79C131.615,-1003.7 141.727,-990.776 150.927,-979.016"/>
<polygon fill="red" stroke="red" stroke-width="0.267667" points="153.688,-981.167 157.093,-971.134 148.175,-976.853 153.688,-981.167"/>
</g>
<!-- 63 -->
<g id="node17" class="node"><title>63</title>
<ellipse fill="white" stroke="black" cx="133" cy="-255.078" rx="18.2703" ry="18.2703"/>
<text text-anchor="middle" x="133" y="-252.878" font-family="Times,serif" font-size="9.00">63</text>
</g>
<!-- sf&#45;&gt;63 -->
<g id="edge13" class="edge"><title>sf&#45;&gt;63</title>
<path fill="none" stroke="red" stroke-width="0.257296" d="M111.233,-1011.81C90.9597,-989.989 38,-926.946 38,-863.753 38,-863.753 38,-863.753 38,-431.437 38,-373.807 51.6626,-358.462 82,-309.463 89.9863,-296.564 101.49,-284.181 111.551,-274.594"/>
<polygon fill="red" stroke="red" stroke-width="0.257296" points="114.222,-276.893 119.215,-267.549 109.484,-271.739 114.222,-276.893"/>
</g>
<!-- sl -->
<g id="node4" class="node"><title>sl</title>
<polygon fill="lightgray" stroke="black" points="577.5,-871.753 554.5,-871.753 554.5,-853.753 577.5,-853.753 577.5,-871.753"/>
<text text-anchor="middle" x="566" y="-860.553" font-family="Times,serif" font-size="9.00">sl</text>
</g>
<!-- sl&#45;&gt;ux -->
<g id="edge29" class="edge"><title>sl&#45;&gt;ux</title>
<path fill="none" stroke="green" stroke-width="0.75901" d="M555.493,-853.552C548.421,-848.142 538.811,-841.006 530,-835.176 503.747,-817.804 495.648,-815.936 469,-799.176 461.838,-794.671 454.151,-789.612 447.192,-784.945"/>
<polygon fill="green" stroke="green" stroke-width="0.75901" points="449.106,-782.015 438.861,-779.315 445.186,-787.814 449.106,-782.015"/>
</g>
<!-- sl&#45;&gt;uy -->
<g id="edge41" class="edge"><title>sl&#45;&gt;uy</title>
<path fill="none" stroke="green" stroke-width="0.754378" d="M575.262,-853.448C587.021,-842.328 606.982,-821.409 617,-799.176 638.392,-751.701 636,-735.637 636,-683.566 636,-683.566 636,-683.566 636,-254.078 636,-142.115 458.413,-113.797 387.624,-106.957"/>
<polygon fill="green" stroke="green" stroke-width="0.754378" points="387.876,-103.466 377.605,-106.065 387.255,-110.438 387.876,-103.466"/>
</g>
<!-- 6938 -->
<g id="node13" class="node"><title>6938</title>
<ellipse fill="white" stroke="black" cx="583" cy="-768.063" rx="25" ry="25"/>
<text text-anchor="middle" x="583" y="-765.863" font-family="Times,serif" font-size="9.00">6938</text>
</g>
<!-- sl&#45;&gt;6938 -->
<g id="edge45" class="edge"><title>sl&#45;&gt;6938</title>
<path fill="none" stroke="red" stroke-width="0.564917" d="M567.509,-853.527C569.597,-842.141 573.492,-820.905 576.853,-802.576"/>
<polygon fill="red" stroke="red" stroke-width="0.564917" points="580.341,-802.963 578.702,-792.496 573.456,-801.7 580.341,-802.963"/>
</g>
<!-- 170429 -->
<g id="node16" class="node"><title>170429</title>
<ellipse fill="white" stroke="black" cx="509" cy="-768.063" rx="31.2258" ry="31.2258"/>
<text text-anchor="middle" x="509" y="-765.863" font-family="Times,serif" font-size="9.00">170429</text>
</g>
<!-- sl&#45;&gt;170429 -->
<g id="edge3" class="edge"><title>sl&#45;&gt;170429</title>
<path fill="none" stroke="green" stroke-width="0.340098" d="M560.942,-853.527C554.058,-842.333 541.319,-821.619 530.181,-803.506"/>
<polygon fill="green" stroke="green" stroke-width="0.340098" points="533.094,-801.561 524.874,-794.877 527.131,-805.228 533.094,-801.561"/>
</g>
<!-- sr -->
<g id="node5" class="node"><title>sr</title>
<polygon fill="lightgray" stroke="black" points="313.5,-871.753 290.5,-871.753 290.5,-853.753 313.5,-853.753 313.5,-871.753"/>
<text text-anchor="middle" x="302" y="-860.553" font-family="Times,serif" font-size="9.00">sr</text>
</g>
<!-- sr&#45;&gt;ux -->
<g id="edge20" class="edge"><title>sr&#45;&gt;ux</title>
<path fill="none" stroke="green" stroke-width="1.3621" d="M306.79,-853.537C310.417,-847.846 315.818,-840.386 322,-835.176 348.75,-812.629 363.426,-819.361 392,-799.176 396.328,-796.118 400.664,-792.502 404.684,-788.857"/>
<polygon fill="green" stroke="green" stroke-width="1.3621" points="407.112,-791.378 411.942,-781.948 402.286,-786.308 407.112,-791.378"/>
</g>
<!-- sr&#45;&gt;uy -->
<g id="edge11" class="edge"><title>sr&#45;&gt;uy</title>
<path fill="none" stroke="red" stroke-width="0.40177" d="M307.193,-853.569C314.383,-841.909 327.349,-819.655 335,-799.176 392.7,-644.732 397,-598.307 397,-433.437 397,-433.437 397,-433.437 397,-254.078 397,-209.606 380.948,-159.919 369.71,-130.582"/>
<polygon fill="red" stroke="red" stroke-width="0.40177" points="372.894,-129.115 365.97,-121.096 366.382,-131.682 372.894,-129.115"/>
</g>
<!-- wz -->
<g id="node8" class="node"><title>wz</title>
<ellipse fill="lightblue" stroke="black" cx="256" cy="-603.432" rx="19.1842" ry="19.1842"/>
<text text-anchor="middle" x="256" y="-601.232" font-family="Times,serif" font-size="9.00">wz</text>
</g>
<!-- sr&#45;&gt;wz -->
<g id="edge31" class="edge"><title>sr&#45;&gt;wz</title>
<path fill="none" stroke="red" stroke-width="0.361369" d="M300.912,-853.425C297.292,-826.139 285.026,-737.007 270,-664.181 267.827,-653.649 265.191,-642.133 262.795,-632.047"/>
<polygon fill="red" stroke="red" stroke-width="0.361369" points="266.157,-631.059 260.415,-622.155 259.351,-632.697 266.157,-631.059"/>
</g>
<!-- sr&#45;&gt;653 -->
<g id="edge14" class="edge"><title>sr&#45;&gt;653</title>
<path fill="none" stroke="green" stroke-width="0.276644" d="M290.181,-858.428C264.184,-850.763 200.715,-830.108 155,-799.176 151.818,-797.023 148.689,-794.5 145.724,-791.847"/>
<polygon fill="green" stroke="green" stroke-width="0.276644" points="147.949,-789.129 138.332,-784.684 143.078,-794.157 147.949,-789.129"/>
</g>
<!-- sr&#45;&gt;66 -->
<g id="edge16" class="edge"><title>sr&#45;&gt;66</title>
<path fill="none" stroke="green" stroke-width="0.179506" d="M297.918,-853.527C291.342,-840.277 278.147,-813.688 268.308,-793.864"/>
<polygon fill="green" stroke="green" stroke-width="0.179506" points="271.373,-792.165 263.792,-784.764 265.102,-795.277 271.373,-792.165"/>
</g>
<!-- 7545 -->
<g id="node26" class="node"><title>7545</title>
<ellipse fill="white" stroke="black" cx="341" cy="-603.432" rx="25" ry="25"/>
<text text-anchor="middle" x="341" y="-601.232" font-family="Times,serif" font-size="9.00">7545</text>
</g>
<!-- sr&#45;&gt;7545 -->
<g id="edge37" class="edge"><title>sr&#45;&gt;7545</title>
<path fill="none" stroke="green" stroke-width="0.344904" d="M304.052,-853.7C307.02,-841.832 312.533,-818.912 316,-799.176 325.838,-743.17 333.47,-677.463 337.594,-638.478"/>
<polygon fill="green" stroke="green" stroke-width="0.344904" points="341.107,-638.53 338.663,-628.221 334.145,-637.805 341.107,-638.53"/>
</g>
<!-- ux&#45;&gt;ux -->
<g id="edge21" class="edge"><title>ux&#45;&gt;ux</title>
<path fill="none" stroke="red" stroke-width="1.1752" d="M437.056,-781.214C448.393,-787.212 460.385,-782.829 460.385,-768.063 460.385,-757.681 454.456,-752.432 446.995,-752.315"/>
<polygon fill="red" stroke="red" stroke-width="1.1752" points="445.847,-748.998 437.056,-754.912 447.617,-755.77 445.847,-748.998"/>
</g>
<!-- 67 -->
<g id="node21" class="node"><title>67</title>
<ellipse fill="white" stroke="black" cx="424" cy="-682.566" rx="18.2703" ry="18.2703"/>
<text text-anchor="middle" x="424" y="-680.366" font-family="Times,serif" font-size="9.00">67</text>
</g>
<!-- ux&#45;&gt;67 -->
<g id="edge30" class="edge"><title>ux&#45;&gt;67</title>
<path fill="none" stroke="red" stroke-width="0.651588" d="M418.451,-750.166C417.191,-738.774 416.922,-723.501 417.645,-710.454"/>
<polygon fill="red" stroke="red" stroke-width="0.651588" points="421.161,-710.404 418.486,-700.152 414.184,-709.835 421.161,-710.404"/>
</g>
<!-- 7244 -->
<g id="node23" class="node"><title>7244</title>
<ellipse fill="white" stroke="black" cx="359" cy="-24.7487" rx="25" ry="25"/>
<text text-anchor="middle" x="359" y="-22.5487" font-family="Times,serif" font-size="9.00">7244</text>
</g>
<!-- uy&#45;&gt;7244 -->
<g id="edge12" class="edge"><title>uy&#45;&gt;7244</title>
<path fill="none" stroke="red" stroke-width="0.257951" d="M359,-85.3795C359,-77.776 359,-68.5969 359,-59.7437"/>
<polygon fill="red" stroke="red" stroke-width="0.257951" points="362.5,-59.6145 359,-49.6145 355.5,-59.6145 362.5,-59.6145"/>
</g>
<!-- wz&#45;&gt;wz -->
<g id="edge25" class="edge"><title>wz&#45;&gt;wz</title>
<path fill="none" stroke="green" stroke-width="0.557872" d="M270.468,-616.168C281.668,-620.931 293.092,-616.686 293.092,-603.432 293.092,-594.32 287.692,-589.466 280.678,-588.87"/>
<polygon fill="green" stroke="green" stroke-width="0.557872" points="279.695,-585.49 270.468,-590.696 280.928,-592.381 279.695,-585.49"/>
</g>
<!-- 7175 -->
<g id="node9" class="node"><title>7175</title>
<ellipse fill="white" stroke="black" cx="306" cy="-517.935" rx="25" ry="25"/>
<text text-anchor="middle" x="306" y="-515.735" font-family="Times,serif" font-size="9.00">7175</text>
</g>
<!-- wz&#45;&gt;7175 -->
<g id="edge32" class="edge"><title>wz&#45;&gt;7175</title>
<path fill="none" stroke="red" stroke-width="0.26829" d="M265.405,-586.727C271.886,-575.903 280.697,-561.19 288.453,-548.237"/>
<polygon fill="red" stroke="red" stroke-width="0.26829" points="291.479,-549.997 293.613,-539.62 285.473,-546.401 291.479,-549.997"/>
</g>
<!-- wz&#45;&gt;2175 -->
<g id="edge36" class="edge"><title>wz&#45;&gt;2175</title>
<path fill="none" stroke="red" stroke-width="0.977607" d="M241.641,-590.073C232.903,-578.301 223.292,-559.874 218,-542.683 210.39,-517.965 206.358,-488.957 205.563,-467.046"/>
<polygon fill="red" stroke="red" stroke-width="0.977607" points="209.061,-466.864 205.431,-456.91 202.061,-466.955 209.061,-466.864"/>
</g>
<!-- 7175&#45;&gt;2175 -->
<g id="edge18" class="edge"><title>7175&#45;&gt;2175</title>
<path fill="none" stroke="red" stroke-width="0.242019" d="M287.683,-500.835C273.226,-488.129 252.881,-470.247 236.78,-456.096"/>
<polygon fill="red" stroke="red" stroke-width="0.242019" points="239.083,-453.46 229.261,-449.487 234.461,-458.718 239.083,-453.46"/>
</g>
<!-- 653&#45;&gt;63 -->
<g id="edge10" class="edge"><title>653&#45;&gt;63</title>
<path fill="none" stroke="red" stroke-width="0.307842" d="M122.747,-746.81C119.529,-716.075 114,-655.795 114,-604.432 114,-604.432 114,-604.432 114,-431.437 114,-378.936 122.522,-318.106 128.151,-283.65"/>
<polygon fill="red" stroke="red" stroke-width="0.307842" points="131.662,-283.874 129.863,-273.433 124.758,-282.718 131.662,-283.874"/>
</g>
<!-- 271 -->
<g id="node11" class="node"><title>271</title>
<ellipse fill="white" stroke="black" cx="212" cy="-179.48" rx="21.4286" ry="21.4286"/>
<text text-anchor="middle" x="212" y="-177.28" font-family="Times,serif" font-size="9.00">271</text>
</g>
<!-- 271&#45;&gt;uy -->
<g id="edge6" class="edge"><title>271&#45;&gt;uy</title>
<path fill="none" stroke="green" stroke-width="0.596971" d="M230.618,-169.159C256.716,-156.092 304.263,-132.287 333.595,-117.602"/>
<polygon fill="green" stroke="green" stroke-width="0.596971" points="335.411,-120.607 342.786,-113 332.277,-114.347 335.411,-120.607"/>
</g>
<!-- 157328 -->
<g id="node12" class="node"><title>157328</title>
<ellipse fill="white" stroke="black" cx="211" cy="-340.576" rx="31.2258" ry="31.2258"/>
<text text-anchor="middle" x="211" y="-338.376" font-family="Times,serif" font-size="9.00">157328</text>
</g>
<!-- 157328&#45;&gt;63 -->
<g id="edge22" class="edge"><title>157328&#45;&gt;63</title>
<path fill="none" stroke="green" stroke-width="0.645418" d="M190.097,-317.2C178.4,-304.678 163.911,-289.168 152.456,-276.906"/>
<polygon fill="green" stroke="green" stroke-width="0.645418" points="154.811,-274.299 145.427,-269.381 149.695,-279.078 154.811,-274.299"/>
</g>
<!-- 64 -->
<g id="node18" class="node"><title>64</title>
<ellipse fill="white" stroke="black" cx="540" cy="-682.566" rx="18.2703" ry="18.2703"/>
<text text-anchor="middle" x="540" y="-680.366" font-family="Times,serif" font-size="9.00">64</text>
</g>
<!-- 6938&#45;&gt;64 -->
<g id="edge4" class="edge"><title>6938&#45;&gt;64</title>
<path fill="none" stroke="green" stroke-width="0.443883" d="M571.926,-745.56C566.036,-734.122 558.768,-720.009 552.655,-708.139"/>
<polygon fill="green" stroke="green" stroke-width="0.443883" points="555.739,-706.482 548.049,-699.194 549.515,-709.687 555.739,-706.482"/>
</g>
<!-- 315&#45;&gt;63 -->
<g id="edge44" class="edge"><title>315&#45;&gt;63</title>
<path fill="none" stroke="green" stroke-width="0.450721" d="M224.576,-937.073C182.841,-903.384 76,-812.862 76,-769.063 76,-769.063 76,-769.063 76,-431.437 76,-375.204 102.837,-313.578 119.682,-280.436"/>
<polygon fill="green" stroke="green" stroke-width="0.450721" points="122.828,-281.972 124.343,-271.486 116.62,-278.739 122.828,-281.972"/>
</g>
<!-- 315&#45;&gt;66 -->
<g id="edge46" class="edge"><title>315&#45;&gt;66</title>
<path fill="none" stroke="green" stroke-width="0.197901" d="M242.692,-929.666C245.397,-897.014 250.702,-833.001 253.733,-796.422"/>
<polygon fill="green" stroke="green" stroke-width="0.197901" points="257.222,-796.703 254.559,-786.448 250.245,-796.125 257.222,-796.703"/>
</g>
<!-- 7800 -->
<g id="node25" class="node"><title>7800</title>
<ellipse fill="white" stroke="black" cx="356" cy="-862.753" rx="25" ry="25"/>
<text text-anchor="middle" x="356" y="-860.553" font-family="Times,serif" font-size="9.00">7800</text>
</g>
<!-- 315&#45;&gt;7800 -->
<g id="edge38" class="edge"><title>315&#45;&gt;7800</title>
<path fill="none" stroke="green" stroke-width="0.34728" d="M257.856,-937.856C274.311,-925.874 300.012,-907.028 322,-890.33 324.293,-888.588 326.665,-886.771 329.039,-884.939"/>
<polygon fill="green" stroke="green" stroke-width="0.34728" points="331.26,-887.645 337.011,-878.747 326.967,-882.116 331.26,-887.645"/>
</g>
<!-- 170429&#45;&gt;64 -->
<g id="edge40" class="edge"><title>170429&#45;&gt;64</title>
<path fill="none" stroke="red" stroke-width="0.171633" d="M519.668,-738.328C523.167,-728.905 527.03,-718.499 530.441,-709.312"/>
<polygon fill="red" stroke="red" stroke-width="0.171633" points="533.727,-710.518 533.926,-699.925 527.164,-708.082 533.727,-710.518"/>
</g>
<!-- 63&#45;&gt;wz -->
<g id="edge8" class="edge"><title>63&#45;&gt;wz</title>
<path fill="none" stroke="green" stroke-width="0.194711" d="M134.963,-273.645C140.765,-320.217 160.813,-449.642 213,-542.683 220.203,-555.524 229.631,-568.908 237.823,-579.745"/>
<polygon fill="green" stroke="green" stroke-width="0.194711" points="235.182,-582.052 244.061,-587.832 240.724,-577.776 235.182,-582.052"/>
</g>
<!-- 63&#45;&gt;271 -->
<g id="edge39" class="edge"><title>63&#45;&gt;271</title>
<path fill="none" stroke="green" stroke-width="0.344691" d="M146.045,-241.925C157.804,-230.97 175.351,-214.623 189.391,-201.543"/>
<polygon fill="green" stroke="green" stroke-width="0.344691" points="191.84,-204.045 196.771,-194.668 187.068,-198.924 191.84,-204.045"/>
</g>
<!-- 64&#45;&gt;64 -->
<g id="edge7" class="edge"><title>64&#45;&gt;64</title>
<path fill="none" stroke="green" stroke-width="0.134137" d="M553.813,-695.134C564.92,-700.161 576.385,-695.972 576.385,-682.566 576.385,-673.349 570.966,-668.488 563.97,-667.984"/>
<polygon fill="green" stroke="green" stroke-width="0.134137" points="562.942,-664.62 553.813,-669.997 564.303,-671.486 562.942,-664.62"/>
</g>
<!-- 66&#45;&gt;wz -->
<g id="edge43" class="edge"><title>66&#45;&gt;wz</title>
<path fill="none" stroke="green" stroke-width="0.266962" d="M256,-749.659C256,-721.709 256,-666.547 256,-632.834"/>
<polygon fill="green" stroke="green" stroke-width="0.266962" points="259.5,-632.703 256,-622.703 252.5,-632.703 259.5,-632.703"/>
</g>
<!-- 67&#45;&gt;ux -->
<g id="edge23" class="edge"><title>67&#45;&gt;ux</title>
<path fill="none" stroke="green" stroke-width="1.20514" d="M429.514,-700.152C430.792,-711.473 431.079,-726.731 430.374,-739.818"/>
<polygon fill="green" stroke="green" stroke-width="1.20514" points="426.855,-739.919 429.549,-750.166 433.833,-740.476 426.855,-739.919"/>
</g>
<!-- 67&#45;&gt;wz -->
<g id="edge1" class="edge"><title>67&#45;&gt;wz</title>
<path fill="none" stroke="green" stroke-width="0.206246" d="M407.319,-674.003C384.605,-663.695 342.687,-644.631 307,-628.181 298.928,-624.46 290.151,-620.384 282.189,-616.675"/>
<polygon fill="green" stroke="green" stroke-width="0.206246" points="283.527,-613.437 272.985,-612.381 280.568,-619.78 283.527,-613.437"/>
</g>
<!-- 5187 -->
<g id="node22" class="node"><title>5187</title>
<ellipse fill="white" stroke="black" cx="423" cy="-862.753" rx="25" ry="25"/>
<text text-anchor="middle" x="423" y="-860.553" font-family="Times,serif" font-size="9.00">5187</text>
</g>
<!-- 5187&#45;&gt;ux -->
<g id="edge15" class="edge"><title>5187&#45;&gt;ux</title>
<path fill="none" stroke="green" stroke-width="0.736904" d="M423.258,-837.883C423.392,-825.395 423.558,-810.035 423.699,-796.996"/>
<polygon fill="green" stroke="green" stroke-width="0.736904" points="427.202,-796.741 423.81,-786.704 420.202,-796.665 427.202,-796.741"/>
</g>
<!-- 23158 -->
<g id="node24" class="node"><title>23158</title>
<ellipse fill="white" stroke="black" cx="493" cy="-862.753" rx="27.6545" ry="27.6545"/>
<text text-anchor="middle" x="493" y="-860.553" font-family="Times,serif" font-size="9.00">23158</text>
</g>
<!-- 23158&#45;&gt;ux -->
<g id="edge19" class="edge"><title>23158&#45;&gt;ux</title>
<path fill="none" stroke="green" stroke-width="0.346786" d="M476.997,-840.255C466.081,-825.592 451.658,-806.217 440.614,-791.382"/>
<polygon fill="green" stroke="green" stroke-width="0.346786" points="443.334,-789.173 434.555,-783.242 437.719,-793.353 443.334,-789.173"/>
</g>
<!-- 7800&#45;&gt;ux -->
<g id="edge35" class="edge"><title>7800&#45;&gt;ux</title>
<path fill="none" stroke="red" stroke-width="0.291166" d="M370.421,-842.096C381.241,-827.347 396.074,-807.129 407.39,-791.705"/>
<polygon fill="red" stroke="red" stroke-width="0.291166" points="410.496,-793.387 413.589,-783.254 404.852,-789.247 410.496,-793.387"/>
</g>
<!-- 7545&#45;&gt;uy -->
<g id="edge42" class="edge"><title>7545&#45;&gt;uy</title>
<path fill="none" stroke="green" stroke-width="0.109325" d="M345.084,-579.005C350.395,-546.456 359,-485.662 359,-433.437 359,-433.437 359,-433.437 359,-254.078 359,-211.631 359,-162.391 359,-132.449"/>
<polygon fill="green" stroke="green" stroke-width="0.109325" points="362.5,-132.339 359,-122.339 355.5,-132.339 362.5,-132.339"/>
</g>
<!-- 2175&#45;&gt;wz -->
<g id="edge28" class="edge"><title>2175&#45;&gt;wz</title>
<path fill="none" stroke="green" stroke-width="0.14484" d="M219.132,-456.058C223.032,-478.466 227.032,-513.554 236,-542.683 239.384,-553.676 244.534,-565.173 249.027,-575.113"/>
<polygon fill="green" stroke="green" stroke-width="0.14484" points="245.93,-576.762 253.212,-584.458 252.319,-573.9 245.93,-576.762"/>
</g>
<!-- 2175&#45;&gt;157328 -->
<g id="edge24" class="edge"><title>2175&#45;&gt;157328</title>
<path fill="none" stroke="red" stroke-width="0.430214" d="M211,-407.356C211,-399.509 211,-390.572 211,-381.869"/>
<polygon fill="red" stroke="red" stroke-width="0.430214" points="214.5,-381.84 211,-371.84 207.5,-381.84 214.5,-381.84"/>
</g>
</g>
</svg>
