<?xml version="1.0" encoding="UTF-8" standalone="no"?>
<!DOCTYPE svg PUBLIC "-//W3C//DTD SVG 1.1//EN"
 "http://www.w3.org/Graphics/SVG/1.1/DTD/svg11.dtd">
<!-- Generated by graphviz version 2.38.0 (20140413.2041)
 -->
<!-- Title: %3 Pages: 1 -->
<svg width="1082pt" height="933pt"
 viewBox="0.00 0.00 1082.38 933.04" xmlns="http://www.w3.org/2000/svg" xmlns:xlink="http://www.w3.org/1999/xlink">
<g id="graph0" class="graph" transform="scale(1 1) rotate(0) translate(4 929.041)">
<title>%3</title>
<polygon fill="white" stroke="none" points="-4,4 -4,-929.041 1078.38,-929.041 1078.38,4 -4,4"/>
<!-- ext -->
<g id="node1" class="node"><title>ext</title>
<polygon fill="lightgray" stroke="black" points="757.767,-906.464 730.767,-906.464 730.767,-888.464 757.767,-888.464 757.767,-906.464"/>
<text text-anchor="middle" x="744.267" y="-895.264" font-family="Times,serif" font-size="9.00">ext</text>
</g>
<!-- 99720 -->
<g id="node10" class="node"><title>99720</title>
<ellipse fill="white" stroke="black" cx="745.267" cy="-409.872" rx="27.6545" ry="27.6545"/>
<text text-anchor="middle" x="745.267" y="-407.672" font-family="Times,serif" font-size="9.00">99720</text>
</g>
<!-- ext&#45;&gt;99720 -->
<g id="edge14" class="edge"><title>ext&#45;&gt;99720</title>
<path fill="none" stroke="red" stroke-width="0.324188" d="M745.695,-888.119C750.114,-861.548 763.267,-776.496 763.267,-705.548 763.267,-705.548 763.267,-705.548 763.267,-605.323 763.267,-550.161 755.997,-486.571 750.697,-447.548"/>
<polygon fill="red" stroke="red" stroke-width="0.324188" points="754.105,-446.643 749.262,-437.22 747.172,-447.607 754.105,-446.643"/>
</g>
<!-- 88199 -->
<g id="node11" class="node"><title>88199</title>
<ellipse fill="white" stroke="black" cx="129.267" cy="-802.774" rx="27.6545" ry="27.6545"/>
<text text-anchor="middle" x="129.267" y="-800.574" font-family="Times,serif" font-size="9.00">88199</text>
</g>
<!-- ext&#45;&gt;88199 -->
<g id="edge11" class="edge"><title>ext&#45;&gt;88199</title>
<path fill="none" stroke="green" stroke-width="0.354695" d="M730.659,-895.848C654.588,-892.278 281.596,-873.009 174.267,-833.886 169.079,-831.995 163.901,-829.386 159.004,-826.488"/>
<polygon fill="green" stroke="green" stroke-width="0.354695" points="160.852,-823.516 150.548,-821.053 157.067,-829.404 160.852,-823.516"/>
</g>
<!-- 38 -->
<g id="node17" class="node"><title>38</title>
<ellipse fill="white" stroke="black" cx="365.267" cy="-409.872" rx="18.2703" ry="18.2703"/>
<text text-anchor="middle" x="365.267" y="-407.672" font-family="Times,serif" font-size="9.00">38</text>
</g>
<!-- ext&#45;&gt;38 -->
<g id="edge42" class="edge"><title>ext&#45;&gt;38</title>
<path fill="none" stroke="red" stroke-width="0.179555" d="M730.523,-894.866C644.904,-884.543 188.267,-823.938 188.267,-705.548 188.267,-705.548 188.267,-705.548 188.267,-605.323 188.267,-547.662 171.881,-522.51 207.267,-476.985 239.074,-436.066 300.81,-420.219 336.977,-414.272"/>
<polygon fill="red" stroke="red" stroke-width="0.179555" points="337.517,-417.731 346.887,-412.786 336.478,-410.808 337.517,-417.731"/>
</g>
<!-- 101673 -->
<g id="node20" class="node"><title>101673</title>
<ellipse fill="white" stroke="black" cx="702.267" cy="-508.098" rx="31.2258" ry="31.2258"/>
<text text-anchor="middle" x="702.267" y="-505.898" font-family="Times,serif" font-size="9.00">101673</text>
</g>
<!-- ext&#45;&gt;101673 -->
<g id="edge3" class="edge"><title>ext&#45;&gt;101673</title>
<path fill="none" stroke="red" stroke-width="0.838882" d="M743.39,-888.373C738.681,-844.941 716.257,-638.127 706.651,-549.532"/>
<polygon fill="red" stroke="red" stroke-width="0.838882" points="710.103,-548.897 705.546,-539.332 703.144,-549.651 710.103,-548.897"/>
</g>
<!-- 87904 -->
<g id="node34" class="node"><title>87904</title>
<ellipse fill="white" stroke="black" cx="857.267" cy="-802.774" rx="27.6545" ry="27.6545"/>
<text text-anchor="middle" x="857.267" y="-800.574" font-family="Times,serif" font-size="9.00">87904</text>
</g>
<!-- ext&#45;&gt;87904 -->
<g id="edge44" class="edge"><title>ext&#45;&gt;87904</title>
<path fill="none" stroke="red" stroke-width="0.74577" d="M754.295,-888.238C770.795,-874.704 804.26,-847.254 828.573,-827.31"/>
<polygon fill="red" stroke="red" stroke-width="0.74577" points="830.918,-829.914 836.43,-820.866 826.479,-824.502 830.918,-829.914"/>
</g>
<!-- 87671 -->
<g id="node39" class="node"><title>87671</title>
<ellipse fill="white" stroke="black" cx="558.267" cy="-118.731" rx="27.6545" ry="27.6545"/>
<text text-anchor="middle" x="558.267" y="-116.531" font-family="Times,serif" font-size="9.00">87671</text>
</g>
<!-- ext&#45;&gt;87671 -->
<g id="edge19" class="edge"><title>ext&#45;&gt;87671</title>
<path fill="none" stroke="red" stroke-width="0.184563" d="M748.552,-888.35C761.808,-862.466 801.267,-779.227 801.267,-705.548 801.267,-705.548 801.267,-705.548 801.267,-310.647 801.267,-206.799 662.345,-150.845 594.58,-129.729"/>
<polygon fill="red" stroke="red" stroke-width="0.184563" points="595.32,-126.297 584.735,-126.751 593.293,-132.997 595.32,-126.297"/>
</g>
<!-- eyt -->
<g id="node2" class="node"><title>eyt</title>
<polygon fill="lightgray" stroke="black" points="479.767,-713.548 452.767,-713.548 452.767,-695.548 479.767,-695.548 479.767,-713.548"/>
<text text-anchor="middle" x="466.267" y="-702.348" font-family="Times,serif" font-size="9.00">eyt</text>
</g>
<!-- 123663 -->
<g id="node12" class="node"><title>123663</title>
<ellipse fill="white" stroke="black" cx="390.267" cy="-606.323" rx="31.2258" ry="31.2258"/>
<text text-anchor="middle" x="390.267" y="-604.123" font-family="Times,serif" font-size="9.00">123663</text>
</g>
<!-- eyt&#45;&gt;123663 -->
<g id="edge34" class="edge"><title>eyt&#45;&gt;123663</title>
<path fill="none" stroke="red" stroke-width="0.256459" d="M459.788,-695.344C450.07,-683.041 431.195,-659.142 415.561,-639.348"/>
<polygon fill="red" stroke="red" stroke-width="0.256459" points="418.261,-637.12 409.317,-631.442 412.768,-641.459 418.261,-637.12"/>
</g>
<!-- 100169 -->
<g id="node31" class="node"><title>100169</title>
<ellipse fill="white" stroke="black" cx="628.267" cy="-606.323" rx="31.2258" ry="31.2258"/>
<text text-anchor="middle" x="628.267" y="-604.123" font-family="Times,serif" font-size="9.00">100169</text>
</g>
<!-- eyt&#45;&gt;100169 -->
<g id="edge36" class="edge"><title>eyt&#45;&gt;100169</title>
<path fill="none" stroke="red" stroke-width="0.660736" d="M479.794,-696.336C501.781,-684.517 546.516,-660.071 583.267,-637.436 586.869,-635.217 590.595,-632.848 594.29,-630.45"/>
<polygon fill="red" stroke="red" stroke-width="0.660736" points="596.356,-633.281 602.784,-624.859 592.507,-627.434 596.356,-633.281"/>
</g>
<!-- 123123 -->
<g id="node38" class="node"><title>123123</title>
<ellipse fill="white" stroke="black" cx="247.267" cy="-508.098" rx="31.2258" ry="31.2258"/>
<text text-anchor="middle" x="247.267" y="-505.898" font-family="Times,serif" font-size="9.00">123123</text>
</g>
<!-- eyt&#45;&gt;123123 -->
<g id="edge52" class="edge"><title>eyt&#45;&gt;123123</title>
<path fill="none" stroke="green" stroke-width="0.383002" d="M452.716,-697.86C429.94,-687.877 383.245,-665.567 350.267,-637.436 318.004,-609.914 288.527,-571.161 269.451,-543.453"/>
<polygon fill="green" stroke="green" stroke-width="0.383002" points="272.142,-541.186 263.633,-534.874 266.349,-545.115 272.142,-541.186"/>
</g>
<!-- eyt&#45;&gt;87671 -->
<g id="edge47" class="edge"><title>eyt&#45;&gt;87671</title>
<path fill="none" stroke="green" stroke-width="0.152937" d="M471.037,-695.164C477.977,-682.779 491.036,-658.755 500.267,-637.436 518.683,-594.907 524.389,-584.26 535.267,-539.21 568.555,-401.358 564.546,-230.923 560.692,-156.924"/>
<polygon fill="green" stroke="green" stroke-width="0.152937" points="564.175,-156.513 560.129,-146.721 557.185,-156.898 564.175,-156.513"/>
</g>
<!-- sf -->
<g id="node3" class="node"><title>sf</title>
<polygon fill="lightgray" stroke="black" points="179.767,-320.647 156.767,-320.647 156.767,-302.647 179.767,-302.647 179.767,-320.647"/>
<text text-anchor="middle" x="168.267" y="-309.447" font-family="Times,serif" font-size="9.00">sf</text>
</g>
<!-- 123025 -->
<g id="node13" class="node"><title>123025</title>
<ellipse fill="white" stroke="black" cx="168.267" cy="-213.421" rx="31.2258" ry="31.2258"/>
<text text-anchor="middle" x="168.267" y="-211.221" font-family="Times,serif" font-size="9.00">123025</text>
</g>
<!-- sf&#45;&gt;123025 -->
<g id="edge26" class="edge"><title>sf&#45;&gt;123025</title>
<path fill="none" stroke="green" stroke-width="0.162971" d="M168.267,-302.443C168.267,-291.881 168.267,-272.773 168.267,-255.053"/>
<polygon fill="green" stroke="green" stroke-width="0.162971" points="171.767,-254.855 168.267,-244.855 164.767,-254.855 171.767,-254.855"/>
</g>
<!-- sl -->
<g id="node4" class="node"><title>sl</title>
<polygon fill="lightgray" stroke="black" points="437.767,-517.098 414.767,-517.098 414.767,-499.098 437.767,-499.098 437.767,-517.098"/>
<text text-anchor="middle" x="426.267" y="-505.898" font-family="Times,serif" font-size="9.00">sl</text>
</g>
<!-- sl&#45;&gt;38 -->
<g id="edge6" class="edge"><title>sl&#45;&gt;38</title>
<path fill="none" stroke="green" stroke-width="0.555004" d="M421.067,-498.893C412.132,-484.799 393.55,-455.488 380.285,-434.563"/>
<polygon fill="green" stroke="green" stroke-width="0.555004" points="383.105,-432.473 374.794,-425.901 377.192,-436.221 383.105,-432.473"/>
</g>
<!-- 88113 -->
<g id="node24" class="node"><title>88113</title>
<ellipse fill="white" stroke="black" cx="259.267" cy="-27.5772" rx="27.6545" ry="27.6545"/>
<text text-anchor="middle" x="259.267" y="-25.3772" font-family="Times,serif" font-size="9.00">88113</text>
</g>
<!-- sl&#45;&gt;88113 -->
<g id="edge43" class="edge"><title>sl&#45;&gt;88113</title>
<path fill="none" stroke="red" stroke-width="0.163743" d="M428.187,-498.76C434.761,-468.86 455.057,-364.343 438.267,-280.534 418.68,-182.758 333.199,-94.1619 287.817,-52.9449"/>
<polygon fill="red" stroke="red" stroke-width="0.163743" points="289.886,-50.0997 280.1,-46.0414 285.219,-55.317 289.886,-50.0997"/>
</g>
<!-- sr -->
<g id="node5" class="node"><title>sr</title>
<polygon fill="lightgray" stroke="black" points="491.767,-615.323 468.767,-615.323 468.767,-597.323 491.767,-597.323 491.767,-615.323"/>
<text text-anchor="middle" x="480.267" y="-604.123" font-family="Times,serif" font-size="9.00">sr</text>
</g>
<!-- ux -->
<g id="node6" class="node"><title>ux</title>
<ellipse fill="lightblue" stroke="black" cx="227.267" cy="-118.731" rx="18.2703" ry="18.2703"/>
<text text-anchor="middle" x="227.267" y="-116.531" font-family="Times,serif" font-size="9.00">ux</text>
</g>
<!-- sr&#45;&gt;ux -->
<g id="edge32" class="edge"><title>sr&#45;&gt;ux</title>
<path fill="none" stroke="red" stroke-width="0.49074" d="M468.735,-597.413C458.842,-590.867 444.044,-581.632 430.267,-575.21 385.553,-554.368 359.72,-574.52 325.267,-539.21 277.715,-490.473 252.52,-311.69 241.267,-244.534 235.687,-211.231 231.735,-172.545 229.483,-147.179"/>
<polygon fill="red" stroke="red" stroke-width="0.49074" points="232.967,-146.841 228.622,-137.178 225.993,-147.441 232.967,-146.841"/>
</g>
<!-- wz -->
<g id="node8" class="node"><title>wz</title>
<ellipse fill="lightblue" stroke="black" cx="530.267" cy="-213.421" rx="19.1842" ry="19.1842"/>
<text text-anchor="middle" x="530.267" y="-211.221" font-family="Times,serif" font-size="9.00">wz</text>
</g>
<!-- sr&#45;&gt;wz -->
<g id="edge54" class="edge"><title>sr&#45;&gt;wz</title>
<path fill="none" stroke="green" stroke-width="0.46866" d="M485.886,-597.235C493.884,-585.218 508.247,-561.649 514.267,-539.21 542.784,-432.917 537.149,-300.177 532.838,-242.9"/>
<polygon fill="green" stroke="green" stroke-width="0.46866" points="536.316,-242.483 532.031,-232.794 529.338,-243.041 536.316,-242.483"/>
</g>
<!-- 104567 -->
<g id="node14" class="node"><title>104567</title>
<ellipse fill="white" stroke="black" cx="365.267" cy="-508.098" rx="31.2258" ry="31.2258"/>
<text text-anchor="middle" x="365.267" y="-505.898" font-family="Times,serif" font-size="9.00">104567</text>
</g>
<!-- sr&#45;&gt;104567 -->
<g id="edge1" class="edge"><title>sr&#45;&gt;104567</title>
<path fill="none" stroke="green" stroke-width="0.771721" d="M470.463,-597.119C454.288,-583.585 421.346,-556.021 396.61,-535.324"/>
<polygon fill="green" stroke="green" stroke-width="0.771721" points="398.815,-532.605 388.899,-528.872 394.323,-537.973 398.815,-532.605"/>
</g>
<!-- sr&#45;&gt;101673 -->
<g id="edge41" class="edge"><title>sr&#45;&gt;101673</title>
<path fill="none" stroke="green" stroke-width="0.549271" d="M491.846,-602.408C521.421,-594.694 601.685,-572.061 662.267,-539.21 664.932,-537.765 667.613,-536.155 670.257,-534.452"/>
<polygon fill="green" stroke="green" stroke-width="0.549271" points="672.248,-537.33 678.506,-528.781 668.283,-531.561 672.248,-537.33"/>
</g>
<!-- 1075 -->
<g id="node25" class="node"><title>1075</title>
<ellipse fill="white" stroke="black" cx="480.267" cy="-508.098" rx="25" ry="25"/>
<text text-anchor="middle" x="480.267" y="-505.898" font-family="Times,serif" font-size="9.00">1075</text>
</g>
<!-- sr&#45;&gt;1075 -->
<g id="edge37" class="edge"><title>sr&#45;&gt;1075</title>
<path fill="none" stroke="red" stroke-width="0.488997" d="M480.267,-597.119C480.267,-585.253 480.267,-562.601 480.267,-543.249"/>
<polygon fill="red" stroke="red" stroke-width="0.488997" points="483.767,-543.216 480.267,-533.216 476.767,-543.216 483.767,-543.216"/>
</g>
<!-- 40 -->
<g id="node19" class="node"><title>40</title>
<ellipse fill="white" stroke="black" cx="195.267" cy="-27.5772" rx="18.2703" ry="18.2703"/>
<text text-anchor="middle" x="195.267" y="-25.3772" font-family="Times,serif" font-size="9.00">40</text>
</g>
<!-- ux&#45;&gt;40 -->
<g id="edge5" class="edge"><title>ux&#45;&gt;40</title>
<path fill="none" stroke="red" stroke-width="0.174682" d="M221.248,-100.962C216.6,-88.0115 210.08,-69.847 204.735,-54.9544"/>
<polygon fill="red" stroke="red" stroke-width="0.174682" points="207.932,-53.5009 201.259,-45.2712 201.343,-55.8657 207.932,-53.5009"/>
</g>
<!-- ux&#45;&gt;88113 -->
<g id="edge21" class="edge"><title>ux&#45;&gt;88113</title>
<path fill="none" stroke="red" stroke-width="1.48218" d="M228.086,-100.117C230.911,-88.9286 235.893,-74.1095 241.163,-60.8618"/>
<polygon fill="red" stroke="red" stroke-width="1.48218" points="244.42,-62.145 245.025,-51.5674 237.956,-59.459 244.42,-62.145"/>
</g>
<!-- uy -->
<g id="node7" class="node"><title>uy</title>
<ellipse fill="lightblue" stroke="black" cx="653.267" cy="-704.548" rx="18.2703" ry="18.2703"/>
<text text-anchor="middle" x="653.267" y="-702.348" font-family="Times,serif" font-size="9.00">uy</text>
</g>
<!-- uy&#45;&gt;101673 -->
<g id="edge30" class="edge"><title>uy&#45;&gt;101673</title>
<path fill="none" stroke="red" stroke-width="0.302199" d="M657.53,-686.632C665.247,-656.008 681.719,-590.64 692.378,-548.341"/>
<polygon fill="red" stroke="red" stroke-width="0.302199" points="695.773,-549.194 694.822,-538.642 688.985,-547.484 695.773,-549.194"/>
</g>
<!-- uy&#45;&gt;100169 -->
<g id="edge22" class="edge"><title>uy&#45;&gt;100169</title>
<path fill="none" stroke="green" stroke-width="0.393322" d="M648.798,-686.345C645.927,-675.296 642.077,-660.476 638.486,-646.656"/>
<polygon fill="green" stroke="green" stroke-width="0.393322" points="641.838,-645.636 635.935,-636.837 635.063,-647.396 641.838,-645.636"/>
</g>
<!-- wz&#45;&gt;87671 -->
<g id="edge38" class="edge"><title>wz&#45;&gt;87671</title>
<path fill="none" stroke="green" stroke-width="0.768276" d="M535.534,-194.987C538.925,-183.762 543.454,-168.77 547.576,-155.122"/>
<polygon fill="green" stroke="green" stroke-width="0.768276" points="550.943,-156.08 550.485,-145.495 544.242,-154.056 550.943,-156.08"/>
</g>
<!-- 99335 -->
<g id="node9" class="node"><title>99335</title>
<ellipse fill="white" stroke="black" cx="934.267" cy="-897.464" rx="27.6545" ry="27.6545"/>
<text text-anchor="middle" x="934.267" y="-895.264" font-family="Times,serif" font-size="9.00">99335</text>
</g>
<!-- 122522 -->
<g id="node16" class="node"><title>122522</title>
<ellipse fill="white" stroke="black" cx="934.267" cy="-802.774" rx="31.2258" ry="31.2258"/>
<text text-anchor="middle" x="934.267" y="-800.574" font-family="Times,serif" font-size="9.00">122522</text>
</g>
<!-- 99335&#45;&gt;122522 -->
<g id="edge13" class="edge"><title>99335&#45;&gt;122522</title>
<path fill="none" stroke="red" stroke-width="0.132155" d="M934.267,-869.654C934.267,-861.747 934.267,-852.913 934.267,-844.345"/>
<polygon fill="red" stroke="red" stroke-width="0.132155" points="937.767,-844.108 934.267,-834.108 930.767,-844.108 937.767,-844.108"/>
</g>
<!-- 103895 -->
<g id="node33" class="node"><title>103895</title>
<ellipse fill="white" stroke="black" cx="660.267" cy="-311.647" rx="31.2258" ry="31.2258"/>
<text text-anchor="middle" x="660.267" y="-309.447" font-family="Times,serif" font-size="9.00">103895</text>
</g>
<!-- 99720&#45;&gt;103895 -->
<g id="edge27" class="edge"><title>99720&#45;&gt;103895</title>
<path fill="none" stroke="green" stroke-width="0.375456" d="M727.241,-388.465C715.728,-375.432 700.58,-358.283 687.603,-343.593"/>
<polygon fill="green" stroke="green" stroke-width="0.375456" points="689.898,-340.903 680.654,-335.726 684.651,-345.538 689.898,-340.903"/>
</g>
<!-- 129944 -->
<g id="node15" class="node"><title>129944</title>
<ellipse fill="white" stroke="black" cx="129.267" cy="-704.548" rx="31.2258" ry="31.2258"/>
<text text-anchor="middle" x="129.267" y="-702.348" font-family="Times,serif" font-size="9.00">129944</text>
</g>
<!-- 88199&#45;&gt;129944 -->
<g id="edge28" class="edge"><title>88199&#45;&gt;129944</title>
<path fill="none" stroke="green" stroke-width="0.14738" d="M129.267,-774.97C129.267,-766.067 129.267,-755.944 129.267,-746.235"/>
<polygon fill="green" stroke="green" stroke-width="0.14738" points="132.767,-745.939 129.267,-735.939 125.767,-745.939 132.767,-745.939"/>
</g>
<!-- 39 -->
<g id="node18" class="node"><title>39</title>
<ellipse fill="white" stroke="black" cx="69.2674" cy="-606.323" rx="18.2703" ry="18.2703"/>
<text text-anchor="middle" x="69.2674" y="-604.123" font-family="Times,serif" font-size="9.00">39</text>
</g>
<!-- 88199&#45;&gt;39 -->
<g id="edge51" class="edge"><title>88199&#45;&gt;39</title>
<path fill="none" stroke="red" stroke-width="0.280234" d="M102.387,-795.536C73.5775,-787.256 29.2907,-769.554 9.26736,-735.661 -4.79973,-711.85 -0.694256,-699.235 9.26736,-673.436 16.8748,-653.733 33.3818,-636.275 47.1596,-624.253"/>
<polygon fill="red" stroke="red" stroke-width="0.280234" points="49.4281,-626.919 54.8684,-617.827 44.946,-621.542 49.4281,-626.919"/>
</g>
<!-- 123663&#45;&gt;123123 -->
<g id="edge10" class="edge"><title>123663&#45;&gt;123123</title>
<path fill="none" stroke="green" stroke-width="0.284998" d="M364.702,-588.12C341.317,-572.384 306.563,-548.998 280.926,-531.747"/>
<polygon fill="green" stroke="green" stroke-width="0.284998" points="282.862,-528.831 272.612,-526.152 278.954,-534.638 282.862,-528.831"/>
</g>
<!-- 123025&#45;&gt;ux -->
<g id="edge46" class="edge"><title>123025&#45;&gt;ux</title>
<path fill="none" stroke="green" stroke-width="0.660881" d="M184.702,-186.602C193.346,-173.023 203.865,-156.498 212.283,-143.272"/>
<polygon fill="green" stroke="green" stroke-width="0.660881" points="215.309,-145.036 217.727,-134.72 209.404,-141.277 215.309,-145.036"/>
</g>
<!-- 104567&#45;&gt;38 -->
<g id="edge17" class="edge"><title>104567&#45;&gt;38</title>
<path fill="none" stroke="green" stroke-width="0.462258" d="M365.267,-476.915C365.267,-464.678 365.267,-450.634 365.267,-438.652"/>
<polygon fill="green" stroke="green" stroke-width="0.462258" points="368.767,-438.339 365.267,-428.339 361.767,-438.339 368.767,-438.339"/>
</g>
<!-- 129944&#45;&gt;39 -->
<g id="edge35" class="edge"><title>129944&#45;&gt;39</title>
<path fill="none" stroke="green" stroke-width="0.305934" d="M113.188,-677.762C104.133,-663.24 92.9042,-645.231 84.0668,-631.058"/>
<polygon fill="green" stroke="green" stroke-width="0.305934" points="86.9127,-629.007 78.6516,-622.373 80.9728,-632.71 86.9127,-629.007"/>
</g>
<!-- 38&#45;&gt;ux -->
<g id="edge40" class="edge"><title>38&#45;&gt;ux</title>
<path fill="none" stroke="red" stroke-width="0.514525" d="M349.281,-400.114C330.788,-389.146 300.776,-368.616 284.267,-342.759 278.915,-334.376 247.408,-204.12 233.669,-146.639"/>
<polygon fill="red" stroke="red" stroke-width="0.514525" points="237.046,-145.713 231.32,-136.799 230.237,-147.338 237.046,-145.713"/>
</g>
<!-- 38&#45;&gt;wz -->
<g id="edge33" class="edge"><title>38&#45;&gt;wz</title>
<path fill="none" stroke="red" stroke-width="0.345232" d="M379.263,-397.73C394.59,-385.192 419.487,-363.813 438.267,-342.759 468.305,-309.088 497.748,-265.662 514.944,-238.944"/>
<polygon fill="red" stroke="red" stroke-width="0.345232" points="518.073,-240.547 520.497,-230.234 512.17,-236.784 518.073,-240.547"/>
</g>
<!-- 101952 -->
<g id="node29" class="node"><title>101952</title>
<ellipse fill="white" stroke="black" cx="398.267" cy="-311.647" rx="31.2258" ry="31.2258"/>
<text text-anchor="middle" x="398.267" y="-309.447" font-family="Times,serif" font-size="9.00">101952</text>
</g>
<!-- 38&#45;&gt;101952 -->
<g id="edge29" class="edge"><title>38&#45;&gt;101952</title>
<path fill="none" stroke="green" stroke-width="0.13114" d="M371.016,-392.111C374.917,-380.736 380.238,-365.22 385.143,-350.916"/>
<polygon fill="green" stroke="green" stroke-width="0.13114" points="388.517,-351.868 388.45,-341.273 381.895,-349.597 388.517,-351.868"/>
</g>
<!-- 122600 -->
<g id="node35" class="node"><title>122600</title>
<ellipse fill="white" stroke="black" cx="89.2674" cy="-508.098" rx="31.2258" ry="31.2258"/>
<text text-anchor="middle" x="89.2674" y="-505.898" font-family="Times,serif" font-size="9.00">122600</text>
</g>
<!-- 39&#45;&gt;122600 -->
<g id="edge45" class="edge"><title>39&#45;&gt;122600</title>
<path fill="none" stroke="green" stroke-width="0.684903" d="M72.843,-588.12C75.1394,-577.071 78.2198,-562.25 81.0923,-548.43"/>
<polygon fill="green" stroke="green" stroke-width="0.684903" points="84.5246,-549.115 83.1329,-538.612 77.6711,-547.691 84.5246,-549.115"/>
</g>
<!-- 42 -->
<g id="node21" class="node"><title>42</title>
<ellipse fill="white" stroke="black" cx="1043.27" cy="-897.464" rx="18.2703" ry="18.2703"/>
<text text-anchor="middle" x="1043.27" y="-895.264" font-family="Times,serif" font-size="9.00">42</text>
</g>
<!-- 122966 -->
<g id="node32" class="node"><title>122966</title>
<ellipse fill="white" stroke="black" cx="1014.27" cy="-802.774" rx="31.2258" ry="31.2258"/>
<text text-anchor="middle" x="1014.27" y="-800.574" font-family="Times,serif" font-size="9.00">122966</text>
</g>
<!-- 42&#45;&gt;122966 -->
<g id="edge24" class="edge"><title>42&#45;&gt;122966</title>
<path fill="none" stroke="green" stroke-width="0.557237" d="M1037.95,-879.463C1034.69,-869.051 1030.38,-855.282 1026.34,-842.346"/>
<polygon fill="green" stroke="green" stroke-width="0.557237" points="1029.64,-841.183 1023.31,-832.684 1022.96,-843.273 1029.64,-841.183"/>
</g>
<!-- 97963 -->
<g id="node22" class="node"><title>97963</title>
<ellipse fill="white" stroke="black" cx="558.267" cy="-27.5772" rx="27.6545" ry="27.6545"/>
<text text-anchor="middle" x="558.267" y="-25.3772" font-family="Times,serif" font-size="9.00">97963</text>
</g>
<!-- 144940 -->
<g id="node23" class="node"><title>144940</title>
<ellipse fill="white" stroke="black" cx="1043.27" cy="-704.548" rx="31.2258" ry="31.2258"/>
<text text-anchor="middle" x="1043.27" y="-702.348" font-family="Times,serif" font-size="9.00">144940</text>
</g>
<!-- 144940&#45;&gt;42 -->
<g id="edge4" class="edge"><title>144940&#45;&gt;42</title>
<path fill="none" stroke="green" stroke-width="0.448573" d="M1049.3,-735.367C1051.31,-746.682 1053.28,-759.717 1054.27,-771.661 1056.54,-799.223 1056.67,-806.335 1054.27,-833.886 1053.24,-845.628 1051.16,-858.47 1049.08,-869.448"/>
<polygon fill="green" stroke="green" stroke-width="0.448573" points="1045.63,-868.815 1047.11,-879.305 1052.5,-870.181 1045.63,-868.815"/>
</g>
<!-- 88113&#45;&gt;ux -->
<g id="edge20" class="edge"><title>88113&#45;&gt;ux</title>
<path fill="none" stroke="green" stroke-width="3.63578" d="M255.981,-55.0926C252.292,-67.4606 246.988,-82.0612 241.808,-94.0535"/>
<polygon fill="green" stroke="green" stroke-width="3.63578" points="238.506,-92.8581 237.524,-103.407 244.87,-95.7732 238.506,-92.8581"/>
</g>
<!-- 104629 -->
<g id="node26" class="node"><title>104629</title>
<ellipse fill="white" stroke="black" cx="49.2674" cy="-704.548" rx="31.2258" ry="31.2258"/>
<text text-anchor="middle" x="49.2674" y="-702.348" font-family="Times,serif" font-size="9.00">104629</text>
</g>
<!-- 104629&#45;&gt;39 -->
<g id="edge18" class="edge"><title>104629&#45;&gt;39</title>
<path fill="none" stroke="green" stroke-width="0.104429" d="M55.4312,-673.892C58.0411,-661.336 61.0619,-646.802 63.6138,-634.524"/>
<polygon fill="green" stroke="green" stroke-width="0.104429" points="67.1053,-634.924 65.7135,-624.421 60.2517,-633.5 67.1053,-634.924"/>
</g>
<!-- 52150 -->
<g id="node27" class="node"><title>52150</title>
<ellipse fill="white" stroke="black" cx="360.267" cy="-213.421" rx="27.6545" ry="27.6545"/>
<text text-anchor="middle" x="360.267" y="-211.221" font-family="Times,serif" font-size="9.00">52150</text>
</g>
<!-- 52150&#45;&gt;ux -->
<g id="edge49" class="edge"><title>52150&#45;&gt;ux</title>
<path fill="none" stroke="red" stroke-width="1.05868" d="M338.006,-196.907C313.769,-180.016 275.184,-153.126 250.552,-135.959"/>
<polygon fill="red" stroke="red" stroke-width="1.05868" points="252.366,-132.957 242.161,-130.111 248.364,-138.7 252.366,-132.957"/>
</g>
<!-- 52150&#45;&gt;87671 -->
<g id="edge7" class="edge"><title>52150&#45;&gt;87671</title>
<path fill="none" stroke="green" stroke-width="0.20222" d="M384.944,-200.87C420.092,-184.416 484.693,-154.174 524.327,-135.62"/>
<polygon fill="green" stroke="green" stroke-width="0.20222" points="526.019,-138.693 533.592,-131.283 523.051,-132.353 526.019,-138.693"/>
</g>
<!-- 99771 -->
<g id="node28" class="node"><title>99771</title>
<ellipse fill="white" stroke="black" cx="321.267" cy="-311.647" rx="27.6545" ry="27.6545"/>
<text text-anchor="middle" x="321.267" y="-309.447" font-family="Times,serif" font-size="9.00">99771</text>
</g>
<!-- 99771&#45;&gt;52150 -->
<g id="edge2" class="edge"><title>99771&#45;&gt;52150</title>
<path fill="none" stroke="red" stroke-width="0.22971" d="M331.311,-285.866C335.87,-274.618 341.339,-261.124 346.29,-248.908"/>
<polygon fill="red" stroke="red" stroke-width="0.22971" points="349.61,-250.035 350.122,-239.452 343.122,-247.405 349.61,-250.035"/>
</g>
<!-- 101952&#45;&gt;52150 -->
<g id="edge12" class="edge"><title>101952&#45;&gt;52150</title>
<path fill="none" stroke="red" stroke-width="0.282468" d="M387.174,-282.556C383.006,-272.001 378.22,-259.882 373.851,-248.818"/>
<polygon fill="red" stroke="red" stroke-width="0.282468" points="377.073,-247.449 370.145,-239.434 370.563,-250.02 377.073,-247.449"/>
</g>
<!-- 123591 -->
<g id="node30" class="node"><title>123591</title>
<ellipse fill="white" stroke="black" cx="630.267" cy="-409.872" rx="31.2258" ry="31.2258"/>
<text text-anchor="middle" x="630.267" y="-407.672" font-family="Times,serif" font-size="9.00">123591</text>
</g>
<!-- 123591&#45;&gt;103895 -->
<g id="edge31" class="edge"><title>123591&#45;&gt;103895</title>
<path fill="none" stroke="green" stroke-width="0.222948" d="M639.268,-380.001C642.086,-370.962 645.243,-360.838 648.235,-351.241"/>
<polygon fill="green" stroke="green" stroke-width="0.222948" points="651.638,-352.086 651.273,-341.497 644.955,-350.002 651.638,-352.086"/>
</g>
<!-- 1391 -->
<g id="node37" class="node"><title>1391</title>
<ellipse fill="white" stroke="black" cx="628.267" cy="-508.098" rx="25" ry="25"/>
<text text-anchor="middle" x="628.267" y="-505.898" font-family="Times,serif" font-size="9.00">1391</text>
</g>
<!-- 100169&#45;&gt;1391 -->
<g id="edge8" class="edge"><title>100169&#45;&gt;1391</title>
<path fill="none" stroke="green" stroke-width="0.951742" d="M621.98,-575.667C621.431,-565.23 621.371,-553.428 621.798,-542.69"/>
<polygon fill="green" stroke="green" stroke-width="0.951742" points="625.31,-542.581 622.389,-532.397 618.322,-542.18 625.31,-542.581"/>
</g>
<!-- 122966&#45;&gt;144940 -->
<g id="edge9" class="edge"><title>122966&#45;&gt;144940</title>
<path fill="none" stroke="green" stroke-width="0.3" d="M1023.05,-772.642C1025.74,-763.692 1028.76,-753.698 1031.61,-744.215"/>
<polygon fill="green" stroke="green" stroke-width="0.3" points="1034.98,-745.166 1034.52,-734.581 1028.28,-743.146 1034.98,-745.166"/>
</g>
<!-- 103895&#45;&gt;wz -->
<g id="edge48" class="edge"><title>103895&#45;&gt;wz</title>
<path fill="none" stroke="green" stroke-width="0.258547" d="M635.509,-292.321C611.862,-274.818 576.5,-248.643 553.407,-231.549"/>
<polygon fill="green" stroke="green" stroke-width="0.258547" points="555.327,-228.616 545.207,-225.479 551.162,-234.242 555.327,-228.616"/>
</g>
<!-- 122600&#45;&gt;38 -->
<g id="edge53" class="edge"><title>122600&#45;&gt;38</title>
<path fill="none" stroke="red" stroke-width="0.337374" d="M118.361,-496.732C134.768,-490.901 155.65,-483.505 174.267,-476.985 232.843,-456.472 301.652,-432.745 338.593,-420.037"/>
<polygon fill="red" stroke="red" stroke-width="0.337374" points="339.813,-423.319 348.132,-416.757 337.537,-416.699 339.813,-423.319"/>
</g>
<!-- 100078 -->
<g id="node36" class="node"><title>100078</title>
<ellipse fill="white" stroke="black" cx="50.2674" cy="-213.421" rx="31.2258" ry="31.2258"/>
<text text-anchor="middle" x="50.2674" y="-211.221" font-family="Times,serif" font-size="9.00">100078</text>
</g>
<!-- 100078&#45;&gt;ux -->
<g id="edge15" class="edge"><title>100078&#45;&gt;ux</title>
<path fill="none" stroke="green" stroke-width="0.404747" d="M75.5564,-194.556C81.8799,-190.353 88.727,-186.021 95.2674,-182.309 130.863,-162.107 174.037,-142.507 201.089,-130.778"/>
<polygon fill="green" stroke="green" stroke-width="0.404747" points="202.812,-133.847 210.618,-126.684 200.048,-127.416 202.812,-133.847"/>
</g>
<!-- 1391&#45;&gt;123591 -->
<g id="edge50" class="edge"><title>1391&#45;&gt;123591</title>
<path fill="none" stroke="red" stroke-width="0.455677" d="M628.762,-483.311C628.962,-473.695 629.198,-462.32 629.424,-451.468"/>
<polygon fill="red" stroke="red" stroke-width="0.455677" points="632.926,-451.368 629.635,-441.298 625.928,-451.223 632.926,-451.368"/>
</g>
<!-- 1391&#45;&gt;100169 -->
<g id="edge23" class="edge"><title>1391&#45;&gt;100169</title>
<path fill="none" stroke="green" stroke-width="0.237168" d="M634.146,-532.397C634.915,-542.358 635.175,-554.273 634.926,-565.557"/>
<polygon fill="green" stroke="green" stroke-width="0.237168" points="631.424,-565.545 634.555,-575.667 638.42,-565.802 631.424,-565.545"/>
</g>
<!-- 1391&#45;&gt;103895 -->
<g id="edge25" class="edge"><title>1391&#45;&gt;103895</title>
<path fill="none" stroke="green" stroke-width="0.3908" d="M643.897,-488.842C653.573,-476.292 665.104,-458.743 670.267,-440.985 678.751,-411.81 675.403,-377.427 670.399,-351.596"/>
<polygon fill="green" stroke="green" stroke-width="0.3908" points="673.821,-350.862 668.342,-341.794 666.97,-352.3 673.821,-350.862"/>
</g>
<!-- 123123&#45;&gt;ux -->
<g id="edge39" class="edge"><title>123123&#45;&gt;ux</title>
<path fill="none" stroke="green" stroke-width="0.764415" d="M228.723,-482.935C206.001,-452.107 167.979,-396.34 147.267,-342.759 131.235,-301.285 132.509,-288.796 128.267,-244.534 125.629,-217.004 114.922,-206.532 128.267,-182.309 143.463,-154.727 176.507,-137.614 200.241,-128.399"/>
<polygon fill="green" stroke="green" stroke-width="0.764415" points="201.569,-131.64 209.764,-124.926 199.17,-125.064 201.569,-131.64"/>
</g>
<!-- 87671&#45;&gt;97963 -->
<g id="edge16" class="edge"><title>87671&#45;&gt;97963</title>
<path fill="none" stroke="red" stroke-width="0.63281" d="M558.267,-90.9823C558.267,-82.96 558.267,-74.0155 558.267,-65.4608"/>
<polygon fill="red" stroke="red" stroke-width="0.63281" points="561.767,-65.3075 558.267,-55.3075 554.767,-65.3076 561.767,-65.3075"/>
</g>
</g>
</svg>
