<?xml version="1.0" encoding="UTF-8" standalone="no"?>
<!DOCTYPE svg PUBLIC "-//W3C//DTD SVG 1.1//EN"
 "http://www.w3.org/Graphics/SVG/1.1/DTD/svg11.dtd">
<!-- Generated by graphviz version 2.38.0 (20140413.2041)
 -->
<!-- Title: %3 Pages: 1 -->
<svg width="1119pt" height="1122pt"
 viewBox="0.00 0.00 1119.21 1121.91" xmlns="http://www.w3.org/2000/svg" xmlns:xlink="http://www.w3.org/1999/xlink">
<g id="graph0" class="graph" transform="scale(1 1) rotate(0) translate(4 1117.91)">
<title>%3</title>
<polygon fill="white" stroke="none" points="-4,4 -4,-1117.91 1115.21,-1117.91 1115.21,4 -4,4"/>
<!-- ext -->
<g id="node1" class="node"><title>ext</title>
<polygon fill="lightgray" stroke="black" points="292.713,-1113.91 265.713,-1113.91 265.713,-1095.91 292.713,-1095.91 292.713,-1113.91"/>
<text text-anchor="middle" x="279.213" y="-1102.71" font-family="Times,serif" font-size="9.00">ext</text>
</g>
<!-- ux -->
<g id="node6" class="node"><title>ux</title>
<ellipse fill="lightblue" stroke="black" cx="450.213" cy="-768.063" rx="18.2703" ry="18.2703"/>
<text text-anchor="middle" x="450.213" y="-765.863" font-family="Times,serif" font-size="9.00">ux</text>
</g>
<!-- ext&#45;&gt;ux -->
<g id="edge2" class="edge"><title>ext&#45;&gt;ux</title>
<path fill="none" stroke="green" stroke-width="0.113592" d="M277.54,-1095.7C270.652,-1059.35 248.162,-911.349 321.213,-835.176 349.603,-805.573 394.132,-786.866 422.742,-777.18"/>
<polygon fill="green" stroke="green" stroke-width="0.113592" points="424.069,-780.429 432.503,-774.016 421.911,-773.77 424.069,-780.429"/>
</g>
<!-- 653 -->
<g id="node10" class="node"><title>653</title>
<ellipse fill="white" stroke="black" cx="21.2132" cy="-947.543" rx="21.4286" ry="21.4286"/>
<text text-anchor="middle" x="21.2132" y="-945.343" font-family="Times,serif" font-size="9.00">653</text>
</g>
<!-- ext&#45;&gt;653 -->
<g id="edge64" class="edge"><title>ext&#45;&gt;653</title>
<path fill="none" stroke="red" stroke-width="0.872337" d="M265.522,-1102.76C223.446,-1098.96 97.0211,-1085.61 66.2132,-1059.91 41.865,-1039.6 30.5651,-1004.13 25.4029,-978.671"/>
<polygon fill="red" stroke="red" stroke-width="0.872337" points="28.8374,-977.995 23.6006,-968.785 21.9509,-979.25 28.8374,-977.995"/>
</g>
<!-- 16193 -->
<g id="node19" class="node"><title>16193</title>
<ellipse fill="white" stroke="black" cx="354.213" cy="-1032.33" rx="27.6545" ry="27.6545"/>
<text text-anchor="middle" x="354.213" y="-1030.13" font-family="Times,serif" font-size="9.00">16193</text>
</g>
<!-- ext&#45;&gt;16193 -->
<g id="edge48" class="edge"><title>ext&#45;&gt;16193</title>
<path fill="none" stroke="green" stroke-width="0.400087" d="M287.817,-1095.81C297.361,-1086.83 313.243,-1071.89 327.081,-1058.87"/>
<polygon fill="green" stroke="green" stroke-width="0.400087" points="329.621,-1061.28 334.505,-1051.88 324.824,-1056.18 329.621,-1061.28"/>
</g>
<!-- 66 -->
<g id="node20" class="node"><title>66</title>
<ellipse fill="white" stroke="black" cx="306.213" cy="-947.543" rx="18.2703" ry="18.2703"/>
<text text-anchor="middle" x="306.213" y="-945.343" font-family="Times,serif" font-size="9.00">66</text>
</g>
<!-- ext&#45;&gt;66 -->
<g id="edge6" class="edge"><title>ext&#45;&gt;66</title>
<path fill="none" stroke="red" stroke-width="0.10761" d="M280.665,-1095.56C284.533,-1073.3 295.219,-1011.81 301.478,-975.791"/>
<polygon fill="red" stroke="red" stroke-width="0.10761" points="304.927,-976.384 303.191,-965.932 298.031,-975.185 304.927,-976.384"/>
</g>
<!-- eyt -->
<g id="node2" class="node"><title>eyt</title>
<polygon fill="lightgray" stroke="black" points="608.713,-956.543 581.713,-956.543 581.713,-938.543 608.713,-938.543 608.713,-956.543"/>
<text text-anchor="middle" x="595.213" y="-945.343" font-family="Times,serif" font-size="9.00">eyt</text>
</g>
<!-- eyt&#45;&gt;ux -->
<g id="edge14" class="edge"><title>eyt&#45;&gt;ux</title>
<path fill="none" stroke="green" stroke-width="0.900468" stroke-dasharray="1,5" d="M585.064,-938.401C572.404,-927.983 550.448,-909.038 534.213,-890.33 514.702,-867.848 513.158,-859.65 496.213,-835.176 486.189,-820.698 474.895,-804.465 466.007,-791.707"/>
<polygon fill="green" stroke="green" stroke-width="0.900468" points="468.872,-789.697 460.283,-783.494 463.129,-793.7 468.872,-789.697"/>
</g>
<!-- 63 -->
<g id="node17" class="node"><title>63</title>
<ellipse fill="white" stroke="black" cx="621.213" cy="-255.078" rx="18.2703" ry="18.2703"/>
<text text-anchor="middle" x="621.213" y="-252.878" font-family="Times,serif" font-size="9.00">63</text>
</g>
<!-- eyt&#45;&gt;63 -->
<g id="edge9" class="edge"><title>eyt&#45;&gt;63</title>
<path fill="none" stroke="red" stroke-width="0.145195" stroke-dasharray="1,5" d="M600.685,-938.503C607.697,-927.888 619.825,-908.419 627.213,-890.33 648.29,-838.727 659.213,-824.804 659.213,-769.063 659.213,-769.063 659.213,-769.063 659.213,-431.437 659.213,-377.517 641.841,-316.343 630.588,-282.375"/>
<polygon fill="red" stroke="red" stroke-width="0.145195" points="633.848,-281.089 627.319,-272.745 627.219,-283.34 633.848,-281.089"/>
</g>
<!-- 5187 -->
<g id="node22" class="node"><title>5187</title>
<ellipse fill="white" stroke="black" cx="568.213" cy="-862.753" rx="25" ry="25"/>
<text text-anchor="middle" x="568.213" y="-860.553" font-family="Times,serif" font-size="9.00">5187</text>
</g>
<!-- eyt&#45;&gt;5187 -->
<g id="edge18" class="edge"><title>eyt&#45;&gt;5187</title>
<path fill="none" stroke="red" stroke-width="0.172786" stroke-dasharray="1,5" d="M592.526,-938.302C589.331,-928.506 583.804,-911.559 578.826,-896.296"/>
<polygon fill="red" stroke="red" stroke-width="0.172786" points="582.093,-895.024 575.665,-886.602 575.438,-897.194 582.093,-895.024"/>
</g>
<!-- 2175 -->
<g id="node27" class="node"><title>2175</title>
<ellipse fill="white" stroke="black" cx="503.213" cy="-432.437" rx="25" ry="25"/>
<text text-anchor="middle" x="503.213" y="-430.237" font-family="Times,serif" font-size="9.00">2175</text>
</g>
<!-- eyt&#45;&gt;2175 -->
<g id="edge40" class="edge"><title>eyt&#45;&gt;2175</title>
<path fill="none" stroke="green" stroke-width="0.171914" d="M597.253,-938.468C603.383,-913.472 621.213,-835.083 621.213,-769.063 621.213,-769.063 621.213,-769.063 621.213,-602.432 621.213,-539.489 565.504,-483.258 530.642,-454.232"/>
<polygon fill="green" stroke="green" stroke-width="0.171914" points="532.669,-451.37 522.699,-447.786 528.258,-456.805 532.669,-451.37"/>
</g>
<!-- sf -->
<g id="node3" class="node"><title>sf</title>
<polygon fill="lightgray" stroke="black" points="746.713,-1113.91 723.713,-1113.91 723.713,-1095.91 746.713,-1095.91 746.713,-1113.91"/>
<text text-anchor="middle" x="735.213" y="-1102.71" font-family="Times,serif" font-size="9.00">sf</text>
</g>
<!-- uy -->
<g id="node7" class="node"><title>uy</title>
<ellipse fill="lightblue" stroke="black" cx="621.213" cy="-103.882" rx="18.2703" ry="18.2703"/>
<text text-anchor="middle" x="621.213" y="-101.682" font-family="Times,serif" font-size="9.00">uy</text>
</g>
<!-- sf&#45;&gt;uy -->
<g id="edge39" class="edge"><title>sf&#45;&gt;uy</title>
<path fill="none" stroke="red" stroke-width="0.219091" d="M746.816,-1103.47C796.047,-1101.4 987.413,-1091.45 1037.21,-1059.91 1087.42,-1028.12 1111.21,-1007.97 1111.21,-948.543 1111.21,-948.543 1111.21,-948.543 1111.21,-254.078 1111.21,-156.92 754.199,-116.922 649.651,-107.292"/>
<polygon fill="red" stroke="red" stroke-width="0.219091" points="649.801,-103.792 639.527,-106.383 649.174,-110.764 649.801,-103.792"/>
</g>
<!-- sf&#45;&gt;653 -->
<g id="edge47" class="edge"><title>sf&#45;&gt;653</title>
<path fill="none" stroke="red" stroke-width="0.269574" d="M723.585,-1103.67C642.459,-1101.93 162.628,-1090.36 106.213,-1059.91 79.0989,-1045.28 82.9065,-1029.25 64.2132,-1004.76 56.2565,-994.331 47.4599,-982.828 39.9068,-972.957"/>
<polygon fill="red" stroke="red" stroke-width="0.269574" points="42.499,-970.585 33.6417,-964.771 36.9402,-974.84 42.499,-970.585"/>
</g>
<!-- 315 -->
<g id="node14" class="node"><title>315</title>
<ellipse fill="white" stroke="black" cx="459.213" cy="-1032.33" rx="21.4286" ry="21.4286"/>
<text text-anchor="middle" x="459.213" y="-1030.13" font-family="Times,serif" font-size="9.00">315</text>
</g>
<!-- sf&#45;&gt;315 -->
<g id="edge27" class="edge"><title>sf&#45;&gt;315</title>
<path fill="none" stroke="red" stroke-width="0.205401" d="M723.705,-1100.97C683.682,-1090.73 549.71,-1056.48 489.258,-1041.02"/>
<polygon fill="red" stroke="red" stroke-width="0.205401" points="490.092,-1037.62 479.537,-1038.53 488.358,-1044.4 490.092,-1037.62"/>
</g>
<!-- 7161 -->
<g id="node15" class="node"><title>7161</title>
<ellipse fill="white" stroke="black" cx="788.213" cy="-517.935" rx="25" ry="25"/>
<text text-anchor="middle" x="788.213" y="-515.735" font-family="Times,serif" font-size="9.00">7161</text>
</g>
<!-- sf&#45;&gt;7161 -->
<g id="edge12" class="edge"><title>sf&#45;&gt;7161</title>
<path fill="none" stroke="red" stroke-width="0.267667" d="M738.72,-1095.66C748.127,-1072.77 773.213,-1006.3 773.213,-948.543 773.213,-948.543 773.213,-948.543 773.213,-681.566 773.213,-636.791 778.921,-585.375 783.294,-552.546"/>
<polygon fill="red" stroke="red" stroke-width="0.267667" points="786.771,-552.955 784.658,-542.573 779.835,-552.006 786.771,-552.955"/>
</g>
<!-- sf&#45;&gt;63 -->
<g id="edge19" class="edge"><title>sf&#45;&gt;63</title>
<path fill="none" stroke="red" stroke-width="0.257296" d="M735.213,-1095.82C735.213,-1072.8 735.213,-1004.92 735.213,-948.543 735.213,-948.543 735.213,-948.543 735.213,-431.437 735.213,-373.499 723.484,-356.178 689.213,-309.463 677.523,-293.528 659.869,-279.863 645.479,-270.347"/>
<polygon fill="red" stroke="red" stroke-width="0.257296" points="647.341,-267.384 637.023,-264.976 643.587,-273.292 647.341,-267.384"/>
</g>
<!-- 64 -->
<g id="node18" class="node"><title>64</title>
<ellipse fill="white" stroke="black" cx="950.213" cy="-682.566" rx="18.2703" ry="18.2703"/>
<text text-anchor="middle" x="950.213" y="-680.366" font-family="Times,serif" font-size="9.00">64</text>
</g>
<!-- sf&#45;&gt;64 -->
<g id="edge20" class="edge"><title>sf&#45;&gt;64</title>
<path fill="none" stroke="red" stroke-width="0.179326" stroke-dasharray="1,5" d="M746.848,-1104.03C806.282,-1103.96 1073.21,-1095.47 1073.21,-948.543 1073.21,-948.543 1073.21,-948.543 1073.21,-861.753 1073.21,-800.774 1053.58,-785.14 1016.21,-736.95 1004.51,-721.855 987.738,-708.361 974.032,-698.716"/>
<polygon fill="red" stroke="red" stroke-width="0.179326" points="975.79,-695.679 965.551,-692.956 971.857,-701.47 975.79,-695.679"/>
</g>
<!-- sf&#45;&gt;66 -->
<g id="edge43" class="edge"><title>sf&#45;&gt;66</title>
<path fill="none" stroke="red" stroke-width="0.150702" stroke-dasharray="1,5" d="M723.471,-1103.46C673.647,-1101.39 479.955,-1091.38 429.213,-1059.91 403.916,-1044.22 412.461,-1025.6 391.213,-1004.76 373.254,-987.135 349.018,-971.745 331.02,-961.544"/>
<polygon fill="red" stroke="red" stroke-width="0.150702" points="332.69,-958.468 322.244,-956.699 329.306,-964.596 332.69,-958.468"/>
</g>
<!-- sl -->
<g id="node4" class="node"><title>sl</title>
<polygon fill="lightgray" stroke="black" points="911.713,-871.753 888.713,-871.753 888.713,-853.753 911.713,-853.753 911.713,-871.753"/>
<text text-anchor="middle" x="900.213" y="-860.553" font-family="Times,serif" font-size="9.00">sl</text>
</g>
<!-- sl&#45;&gt;ux -->
<g id="edge42" class="edge"><title>sl&#45;&gt;ux</title>
<path fill="none" stroke="green" stroke-width="0.75901" d="M888.637,-859.369C830.002,-847.291 565.163,-792.74 478.069,-774.801"/>
<polygon fill="green" stroke="green" stroke-width="0.75901" points="478.628,-771.342 468.127,-772.753 477.215,-778.198 478.628,-771.342"/>
</g>
<!-- sl&#45;&gt;uy -->
<g id="edge56" class="edge"><title>sl&#45;&gt;uy</title>
<path fill="none" stroke="green" stroke-width="0.754378" d="M912.051,-859.069C936.01,-852.974 990.173,-835.691 1016.21,-799.176 1046.45,-756.78 1035.21,-735.637 1035.21,-683.566 1035.21,-683.566 1035.21,-683.566 1035.21,-254.078 1035.21,-171.953 743.237,-122.543 649.685,-108.82"/>
<polygon fill="green" stroke="green" stroke-width="0.754378" points="649.933,-105.319 639.536,-107.357 648.935,-112.248 649.933,-105.319"/>
</g>
<!-- 6938 -->
<g id="node13" class="node"><title>6938</title>
<ellipse fill="white" stroke="black" cx="982.213" cy="-768.063" rx="25" ry="25"/>
<text text-anchor="middle" x="982.213" y="-765.863" font-family="Times,serif" font-size="9.00">6938</text>
</g>
<!-- sl&#45;&gt;6938 -->
<g id="edge60" class="edge"><title>sl&#45;&gt;6938</title>
<path fill="none" stroke="red" stroke-width="0.564917" d="M907.49,-853.527C918.996,-840.521 941.872,-814.663 959.297,-794.966"/>
<polygon fill="red" stroke="red" stroke-width="0.564917" points="962.141,-797.034 966.146,-787.225 956.898,-792.396 962.141,-797.034"/>
</g>
<!-- 170429 -->
<g id="node16" class="node"><title>170429</title>
<ellipse fill="white" stroke="black" cx="870.213" cy="-768.063" rx="31.2258" ry="31.2258"/>
<text text-anchor="middle" x="870.213" y="-765.863" font-family="Times,serif" font-size="9.00">170429</text>
</g>
<!-- sl&#45;&gt;170429 -->
<g id="edge4" class="edge"><title>sl&#45;&gt;170429</title>
<path fill="none" stroke="green" stroke-width="0.340098" d="M897.551,-853.527C894.218,-843.231 888.279,-824.881 882.786,-807.909"/>
<polygon fill="green" stroke="green" stroke-width="0.340098" points="886.036,-806.583 879.626,-798.146 879.376,-808.738 886.036,-806.583"/>
</g>
<!-- sl&#45;&gt;63 -->
<g id="edge32" class="edge"><title>sl&#45;&gt;63</title>
<path fill="none" stroke="red" stroke-width="0.166076" stroke-dasharray="1,5" d="M888.628,-855.522C872.142,-845.921 842.544,-825.8 830.213,-799.176 738.249,-600.611 927.908,-470.009 779.213,-309.463 745.247,-272.79 685.237,-261.301 649.757,-257.708"/>
<polygon fill="red" stroke="red" stroke-width="0.166076" points="649.854,-254.203 639.59,-256.827 649.25,-261.177 649.854,-254.203"/>
</g>
<!-- sl&#45;&gt;64 -->
<g id="edge11" class="edge"><title>sl&#45;&gt;64</title>
<path fill="none" stroke="green" stroke-width="0.53819" stroke-dasharray="1,5" d="M902.492,-853.634C909.536,-828.528 931.187,-751.369 942.751,-710.159"/>
<polygon fill="green" stroke="green" stroke-width="0.53819" points="946.127,-711.084 945.459,-700.51 939.387,-709.192 946.127,-711.084"/>
</g>
<!-- sr -->
<g id="node5" class="node"><title>sr</title>
<polygon fill="lightgray" stroke="black" points="138.713,-1041.33 115.713,-1041.33 115.713,-1023.33 138.713,-1023.33 138.713,-1041.33"/>
<text text-anchor="middle" x="127.213" y="-1030.13" font-family="Times,serif" font-size="9.00">sr</text>
</g>
<!-- sr&#45;&gt;ux -->
<g id="edge31" class="edge"><title>sr&#45;&gt;ux</title>
<path fill="none" stroke="green" stroke-width="1.3621" d="M131.768,-1023.08C151.426,-987.574 228.8,-848.956 246.213,-835.176 299.121,-793.307 379.352,-777.585 421.708,-771.973"/>
<polygon fill="green" stroke="green" stroke-width="1.3621" points="422.366,-775.419 431.865,-770.727 421.514,-768.471 422.366,-775.419"/>
</g>
<!-- sr&#45;&gt;uy -->
<g id="edge16" class="edge"><title>sr&#45;&gt;uy</title>
<path fill="none" stroke="red" stroke-width="0.40177" d="M122.353,-1023.3C108.569,-999.712 70.2132,-928.288 70.2132,-863.753 70.2132,-863.753 70.2132,-863.753 70.2132,-254.078 70.2132,-144.74 479.558,-113.045 592.599,-106.376"/>
<polygon fill="red" stroke="red" stroke-width="0.40177" points="593.095,-109.854 602.88,-105.792 592.698,-102.865 593.095,-109.854"/>
</g>
<!-- wz -->
<g id="node8" class="node"><title>wz</title>
<ellipse fill="lightblue" stroke="black" cx="450.213" cy="-603.432" rx="19.1842" ry="19.1842"/>
<text text-anchor="middle" x="450.213" y="-601.232" font-family="Times,serif" font-size="9.00">wz</text>
</g>
<!-- sr&#45;&gt;wz -->
<g id="edge45" class="edge"><title>sr&#45;&gt;wz</title>
<path fill="none" stroke="red" stroke-width="0.361369" d="M128.833,-1023C133.428,-998.618 146.213,-925.242 146.213,-863.753 146.213,-863.753 146.213,-863.753 146.213,-767.063 146.213,-643.265 344.646,-613.35 420.875,-606.425"/>
<polygon fill="red" stroke="red" stroke-width="0.361369" points="421.523,-609.883 431.197,-605.562 420.94,-602.908 421.523,-609.883"/>
</g>
<!-- sr&#45;&gt;653 -->
<g id="edge21" class="edge"><title>sr&#45;&gt;653</title>
<path fill="none" stroke="green" stroke-width="0.276644" d="M117.149,-1023.13C110.636,-1017.85 101.957,-1010.86 94.2132,-1004.76 78.2911,-992.217 60.2477,-978.32 46.0831,-967.481"/>
<polygon fill="green" stroke="green" stroke-width="0.276644" points="47.8897,-964.456 37.8185,-961.167 43.6399,-970.019 47.8897,-964.456"/>
</g>
<!-- sr&#45;&gt;66 -->
<g id="edge26" class="edge"><title>sr&#45;&gt;66</title>
<path fill="none" stroke="green" stroke-width="0.179506" d="M138.958,-1025.9C167.567,-1012.67 241.393,-978.523 280.702,-960.343"/>
<polygon fill="green" stroke="green" stroke-width="0.179506" points="282.296,-963.462 289.903,-956.087 279.358,-957.108 282.296,-963.462"/>
</g>
<!-- 7545 -->
<g id="node26" class="node"><title>7545</title>
<ellipse fill="white" stroke="black" cx="127.213" cy="-603.432" rx="25" ry="25"/>
<text text-anchor="middle" x="127.213" y="-601.232" font-family="Times,serif" font-size="9.00">7545</text>
</g>
<!-- sr&#45;&gt;7545 -->
<g id="edge51" class="edge"><title>sr&#45;&gt;7545</title>
<path fill="none" stroke="green" stroke-width="0.344904" d="M125.593,-1023C120.999,-998.618 108.213,-925.242 108.213,-863.753 108.213,-863.753 108.213,-863.753 108.213,-767.063 108.213,-722.175 115.442,-670.785 120.982,-637.994"/>
<polygon fill="green" stroke="green" stroke-width="0.344904" points="124.45,-638.484 122.71,-628.033 117.553,-637.287 124.45,-638.484"/>
</g>
<!-- ux&#45;&gt;ux -->
<g id="edge33" class="edge"><title>ux&#45;&gt;ux</title>
<path fill="none" stroke="red" stroke-width="1.1752" d="M463.27,-781.214C474.606,-787.212 486.598,-782.829 486.598,-768.063 486.598,-757.681 480.669,-752.432 473.208,-752.315"/>
<polygon fill="red" stroke="red" stroke-width="1.1752" points="472.06,-748.998 463.27,-754.912 473.83,-755.77 472.06,-748.998"/>
</g>
<!-- 67 -->
<g id="node21" class="node"><title>67</title>
<ellipse fill="white" stroke="black" cx="450.213" cy="-682.566" rx="18.2703" ry="18.2703"/>
<text text-anchor="middle" x="450.213" y="-680.366" font-family="Times,serif" font-size="9.00">67</text>
</g>
<!-- ux&#45;&gt;67 -->
<g id="edge44" class="edge"><title>ux&#45;&gt;67</title>
<path fill="none" stroke="red" stroke-width="0.651588" d="M444.665,-750.166C443.404,-738.774 443.136,-723.501 443.859,-710.454"/>
<polygon fill="red" stroke="red" stroke-width="0.651588" points="447.374,-710.404 444.699,-700.152 440.397,-709.835 447.374,-710.404"/>
</g>
<!-- uy&#45;&gt;63 -->
<g id="edge30" class="edge"><title>uy&#45;&gt;63</title>
<path fill="none" stroke="red" stroke-width="0.466697" stroke-dasharray="1,5" d="M625.686,-121.797C628.396,-147.421 628.687,-196.328 626.56,-226.959"/>
<polygon fill="red" stroke="red" stroke-width="0.466697" points="623.07,-226.702 625.707,-236.964 630.044,-227.297 623.07,-226.702"/>
</g>
<!-- 7244 -->
<g id="node23" class="node"><title>7244</title>
<ellipse fill="white" stroke="black" cx="621.213" cy="-24.7487" rx="25" ry="25"/>
<text text-anchor="middle" x="621.213" y="-22.5487" font-family="Times,serif" font-size="9.00">7244</text>
</g>
<!-- uy&#45;&gt;7244 -->
<g id="edge17" class="edge"><title>uy&#45;&gt;7244</title>
<path fill="none" stroke="red" stroke-width="0.257951" d="M621.213,-85.3795C621.213,-77.776 621.213,-68.5969 621.213,-59.7437"/>
<polygon fill="red" stroke="red" stroke-width="0.257951" points="624.713,-59.6145 621.213,-49.6145 617.713,-59.6145 624.713,-59.6145"/>
</g>
<!-- wz&#45;&gt;wz -->
<g id="edge37" class="edge"><title>wz&#45;&gt;wz</title>
<path fill="none" stroke="green" stroke-width="0.557872" d="M464.681,-616.168C475.881,-620.931 487.305,-616.686 487.305,-603.432 487.305,-594.32 481.906,-589.466 474.891,-588.87"/>
<polygon fill="green" stroke="green" stroke-width="0.557872" points="473.908,-585.49 464.681,-590.696 475.141,-592.381 473.908,-585.49"/>
</g>
<!-- 7175 -->
<g id="node9" class="node"><title>7175</title>
<ellipse fill="white" stroke="black" cx="441.213" cy="-517.935" rx="25" ry="25"/>
<text text-anchor="middle" x="441.213" y="-515.735" font-family="Times,serif" font-size="9.00">7175</text>
</g>
<!-- wz&#45;&gt;7175 -->
<g id="edge46" class="edge"><title>wz&#45;&gt;7175</title>
<path fill="none" stroke="red" stroke-width="0.26829" d="M448.26,-584.314C447.265,-575.082 446.022,-563.551 444.859,-552.755"/>
<polygon fill="red" stroke="red" stroke-width="0.26829" points="448.329,-552.294 443.778,-542.727 441.37,-553.045 448.329,-552.294"/>
</g>
<!-- wz&#45;&gt;2175 -->
<g id="edge50" class="edge"><title>wz&#45;&gt;2175</title>
<path fill="none" stroke="red" stroke-width="0.977607" d="M450.95,-584.127C454.896,-572.435 461.458,-556.862 466.213,-542.683 474.92,-516.722 482.47,-486.523 488.996,-464.464"/>
<polygon fill="red" stroke="red" stroke-width="0.977607" points="492.422,-465.232 492.02,-454.645 485.732,-463.171 492.422,-465.232"/>
</g>
<!-- 7175&#45;&gt;2175 -->
<g id="edge28" class="edge"><title>7175&#45;&gt;2175</title>
<path fill="none" stroke="red" stroke-width="0.242019" d="M455.593,-497.569C463.653,-486.714 473.841,-472.993 482.723,-461.031"/>
<polygon fill="red" stroke="red" stroke-width="0.242019" points="485.76,-462.813 488.911,-452.698 480.14,-458.64 485.76,-462.813"/>
</g>
<!-- 653&#45;&gt;63 -->
<g id="edge13" class="edge"><title>653&#45;&gt;63</title>
<path fill="none" stroke="red" stroke-width="0.307842" d="M23.2822,-926.34C26.4687,-893.429 32.2132,-826.176 32.2132,-769.063 32.2132,-769.063 32.2132,-769.063 32.2132,-602.432 32.2132,-339.002 475.418,-271.976 592.912,-258.836"/>
<polygon fill="red" stroke="red" stroke-width="0.307842" points="593.371,-262.307 602.94,-257.758 592.623,-255.347 593.371,-262.307"/>
</g>
<!-- 271 -->
<g id="node11" class="node"><title>271</title>
<ellipse fill="white" stroke="black" cx="563.213" cy="-179.48" rx="21.4286" ry="21.4286"/>
<text text-anchor="middle" x="563.213" y="-177.28" font-family="Times,serif" font-size="9.00">271</text>
</g>
<!-- 271&#45;&gt;uy -->
<g id="edge7" class="edge"><title>271&#45;&gt;uy</title>
<path fill="none" stroke="green" stroke-width="0.596971" d="M576.085,-162.146C584.276,-151.752 594.985,-138.165 603.914,-126.833"/>
<polygon fill="green" stroke="green" stroke-width="0.596971" points="606.884,-128.719 610.325,-118.698 601.386,-124.386 606.884,-128.719"/>
</g>
<!-- 157328 -->
<g id="node12" class="node"><title>157328</title>
<ellipse fill="white" stroke="black" cx="486.213" cy="-340.576" rx="31.2258" ry="31.2258"/>
<text text-anchor="middle" x="486.213" y="-338.376" font-family="Times,serif" font-size="9.00">157328</text>
</g>
<!-- 157328&#45;&gt;63 -->
<g id="edge34" class="edge"><title>157328&#45;&gt;63</title>
<path fill="none" stroke="green" stroke-width="0.645418" d="M511.756,-322.135C518.072,-317.919 524.852,-313.474 531.213,-309.463 553.067,-295.684 578.414,-280.739 596.63,-270.177"/>
<polygon fill="green" stroke="green" stroke-width="0.645418" points="598.541,-273.115 605.449,-265.082 595.039,-267.053 598.541,-273.115"/>
</g>
<!-- 6938&#45;&gt;64 -->
<g id="edge5" class="edge"><title>6938&#45;&gt;64</title>
<path fill="none" stroke="green" stroke-width="0.443883" d="M973.638,-744.687C969.457,-733.778 964.406,-720.6 960.067,-709.278"/>
<polygon fill="green" stroke="green" stroke-width="0.443883" points="963.324,-707.995 956.477,-699.91 956.787,-710.5 963.324,-707.995"/>
</g>
<!-- 315&#45;&gt;63 -->
<g id="edge59" class="edge"><title>315&#45;&gt;63</title>
<path fill="none" stroke="green" stroke-width="0.450721" d="M479.918,-1027.23C537.822,-1014.44 697.213,-969.623 697.213,-863.753 697.213,-863.753 697.213,-863.753 697.213,-431.437 697.213,-374.787 685.501,-360.156 660.213,-309.463 654.643,-298.297 646.77,-286.986 639.555,-277.668"/>
<polygon fill="green" stroke="green" stroke-width="0.450721" points="642.182,-275.349 633.198,-269.732 636.718,-279.725 642.182,-275.349"/>
</g>
<!-- 315&#45;&gt;66 -->
<g id="edge61" class="edge"><title>315&#45;&gt;66</title>
<path fill="none" stroke="green" stroke-width="0.197901" d="M443.322,-1018.18C437.496,-1013.65 430.73,-1008.73 424.213,-1004.76 394.063,-986.395 356.982,-969.591 332.527,-959.232"/>
<polygon fill="green" stroke="green" stroke-width="0.197901" points="333.765,-955.957 323.189,-955.33 331.066,-962.415 333.765,-955.957"/>
</g>
<!-- 315&#45;&gt;7244 -->
<g id="edge38" class="edge"><title>315&#45;&gt;7244</title>
<path fill="none" stroke="green" stroke-width="0.176818" stroke-dasharray="1,5" d="M444.261,-1016.65C423.483,-996.277 384.657,-958.331 351.213,-926.33 277.55,-855.844 184.213,-871.016 184.213,-769.063 184.213,-769.063 184.213,-769.063 184.213,-516.935 184.213,-399.775 146.213,-373.238 146.213,-256.078 146.213,-256.078 146.213,-256.078 146.213,-178.48 146.213,-85.9508 477.011,-41.4912 586.495,-29.3104"/>
<polygon fill="green" stroke="green" stroke-width="0.176818" points="587.114,-32.7637 596.675,-28.2003 586.355,-25.8049 587.114,-32.7637"/>
</g>
<!-- 7800 -->
<g id="node25" class="node"><title>7800</title>
<ellipse fill="white" stroke="black" cx="389.213" cy="-862.753" rx="25" ry="25"/>
<text text-anchor="middle" x="389.213" y="-860.553" font-family="Times,serif" font-size="9.00">7800</text>
</g>
<!-- 315&#45;&gt;7800 -->
<g id="edge52" class="edge"><title>315&#45;&gt;7800</title>
<path fill="none" stroke="green" stroke-width="0.34728" d="M451.319,-1012.44C439.441,-983.999 416.831,-929.869 402.416,-895.36"/>
<polygon fill="green" stroke="green" stroke-width="0.34728" points="405.489,-893.636 398.405,-885.757 399.029,-896.334 405.489,-893.636"/>
</g>
<!-- 7161&#45;&gt;63 -->
<g id="edge3" class="edge"><title>7161&#45;&gt;63</title>
<path fill="none" stroke="red" stroke-width="0.568672" stroke-dasharray="1,5" d="M790.534,-493.134C793.292,-451.187 792.924,-363.435 749.213,-309.463 724.515,-278.967 679.383,-265.664 649.847,-260.022"/>
<polygon fill="red" stroke="red" stroke-width="0.568672" points="650.188,-256.529 639.737,-258.273 648.994,-263.427 650.188,-256.529"/>
</g>
<!-- 170429&#45;&gt;64 -->
<g id="edge54" class="edge"><title>170429&#45;&gt;64</title>
<path fill="none" stroke="red" stroke-width="0.171633" d="M891.652,-744.687C903.801,-732.007 918.886,-716.263 930.703,-703.929"/>
<polygon fill="red" stroke="red" stroke-width="0.171633" points="933.541,-706.026 937.932,-696.383 928.487,-701.183 933.541,-706.026"/>
</g>
<!-- 63&#45;&gt;uy -->
<g id="edge62" class="edge"><title>63&#45;&gt;uy</title>
<path fill="none" stroke="green" stroke-width="0.286697" stroke-dasharray="1,5" d="M616.719,-236.964C614.022,-211.219 613.743,-162.3 615.883,-131.764"/>
<polygon fill="green" stroke="green" stroke-width="0.286697" points="619.37,-132.061 616.74,-121.797 612.396,-131.46 619.37,-132.061"/>
</g>
<!-- 63&#45;&gt;wz -->
<g id="edge10" class="edge"><title>63&#45;&gt;wz</title>
<path fill="none" stroke="green" stroke-width="0.194711" d="M616.715,-272.907C603.996,-318.727 564.785,-448.569 505.213,-542.683 495.901,-557.396 482.773,-571.818 471.679,-582.807"/>
<polygon fill="green" stroke="green" stroke-width="0.194711" points="469.166,-580.367 464.395,-589.827 474.024,-585.407 469.166,-580.367"/>
</g>
<!-- 63&#45;&gt;271 -->
<g id="edge53" class="edge"><title>63&#45;&gt;271</title>
<path fill="none" stroke="green" stroke-width="0.344691" d="M610.304,-240.235C602.435,-230.25 591.607,-216.51 582.319,-204.724"/>
<polygon fill="green" stroke="green" stroke-width="0.344691" points="584.83,-202.256 575.891,-196.568 579.332,-206.588 584.83,-202.256"/>
</g>
<!-- 64&#45;&gt;64 -->
<g id="edge8" class="edge"><title>64&#45;&gt;64</title>
<path fill="none" stroke="green" stroke-width="0.134137" d="M964.026,-695.134C975.133,-700.161 986.598,-695.972 986.598,-682.566 986.598,-673.349 981.179,-668.488 974.183,-667.984"/>
<polygon fill="green" stroke="green" stroke-width="0.134137" points="973.155,-664.62 964.026,-669.997 974.516,-671.486 973.155,-664.62"/>
</g>
<!-- 16193&#45;&gt;66 -->
<g id="edge15" class="edge"><title>16193&#45;&gt;66</title>
<path fill="none" stroke="red" stroke-width="0.148621" stroke-dasharray="1,5" d="M340.587,-1007.83C334.177,-996.776 326.546,-983.612 320.103,-972.501"/>
<polygon fill="red" stroke="red" stroke-width="0.148621" points="323.068,-970.636 315.024,-963.74 317.012,-974.147 323.068,-970.636"/>
</g>
<!-- 66&#45;&gt;ux -->
<g id="edge22" class="edge"><title>66&#45;&gt;ux</title>
<path fill="none" stroke="green" stroke-width="0.126855" stroke-dasharray="1,5" d="M310.544,-929.519C317.125,-906.231 331.453,-864.043 355.213,-835.176 374.371,-811.9 403.7,-793.2 424.7,-781.706"/>
<polygon fill="green" stroke="green" stroke-width="0.126855" points="426.498,-784.715 433.697,-776.941 423.221,-778.529 426.498,-784.715"/>
</g>
<!-- 66&#45;&gt;wz -->
<g id="edge58" class="edge"><title>66&#45;&gt;wz</title>
<path fill="none" stroke="green" stroke-width="0.266962" d="M306.555,-929.111C307.441,-906.797 310.538,-867.194 321.213,-835.176 348.475,-753.411 405.16,-667.436 433.428,-627.428"/>
<polygon fill="green" stroke="green" stroke-width="0.266962" points="436.368,-629.334 439.33,-619.162 430.671,-625.267 436.368,-629.334"/>
</g>
<!-- 66&#45;&gt;66 -->
<g id="edge24" class="edge"><title>66&#45;&gt;66</title>
<path fill="none" stroke="red" stroke-width="0.150193" stroke-dasharray="1,5" d="M319.27,-960.694C330.606,-966.692 342.598,-962.309 342.598,-947.543 342.598,-937.161 336.669,-931.912 329.208,-931.795"/>
<polygon fill="red" stroke="red" stroke-width="0.150193" points="328.06,-928.478 319.27,-934.393 329.83,-935.25 328.06,-928.478"/>
</g>
<!-- 66&#45;&gt;7800 -->
<g id="edge25" class="edge"><title>66&#45;&gt;7800</title>
<path fill="none" stroke="green" stroke-width="0.400286" stroke-dasharray="1,5" d="M318.819,-933.969C331.056,-921.763 349.948,-902.919 365.081,-887.825"/>
<polygon fill="green" stroke="green" stroke-width="0.400286" points="367.553,-890.301 372.162,-880.761 362.61,-885.345 367.553,-890.301"/>
</g>
<!-- 67&#45;&gt;ux -->
<g id="edge35" class="edge"><title>67&#45;&gt;ux</title>
<path fill="none" stroke="green" stroke-width="1.20514" d="M455.727,-700.152C457.006,-711.473 457.292,-726.731 456.587,-739.818"/>
<polygon fill="green" stroke="green" stroke-width="1.20514" points="453.068,-739.919 455.762,-750.166 460.046,-740.476 453.068,-739.919"/>
</g>
<!-- 67&#45;&gt;wz -->
<g id="edge1" class="edge"><title>67&#45;&gt;wz</title>
<path fill="none" stroke="green" stroke-width="0.206246" d="M450.213,-664.063C450.213,-654.795 450.213,-643.187 450.213,-632.681"/>
<polygon fill="green" stroke="green" stroke-width="0.206246" points="453.713,-632.67 450.213,-622.67 446.713,-632.67 453.713,-632.67"/>
</g>
<!-- 5187&#45;&gt;ux -->
<g id="edge23" class="edge"><title>5187&#45;&gt;ux</title>
<path fill="none" stroke="green" stroke-width="0.736904" d="M548.992,-846.654C528.006,-830.17 494.453,-803.813 472.373,-786.47"/>
<polygon fill="green" stroke="green" stroke-width="0.736904" points="474.27,-783.509 464.244,-780.084 469.946,-789.014 474.27,-783.509"/>
</g>
<!-- 7244&#45;&gt;63 -->
<g id="edge55" class="edge"><title>7244&#45;&gt;63</title>
<path fill="none" stroke="green" stroke-width="0.178997" stroke-dasharray="1,5" d="M633.258,-46.5634C639.019,-57.7157 645.288,-71.9217 648.213,-85.4975 659.003,-135.577 655.836,-150.8 644.213,-200.693 641.951,-210.405 638.008,-220.573 634.02,-229.399"/>
<polygon fill="green" stroke="green" stroke-width="0.178997" points="630.731,-228.164 629.584,-238.696 637.049,-231.178 630.731,-228.164"/>
</g>
<!-- 23158 -->
<g id="node24" class="node"><title>23158</title>
<ellipse fill="white" stroke="black" cx="459.213" cy="-862.753" rx="27.6545" ry="27.6545"/>
<text text-anchor="middle" x="459.213" y="-860.553" font-family="Times,serif" font-size="9.00">23158</text>
</g>
<!-- 23158&#45;&gt;ux -->
<g id="edge29" class="edge"><title>23158&#45;&gt;ux</title>
<path fill="none" stroke="green" stroke-width="0.346786" d="M456.61,-834.943C455.438,-822.868 454.055,-808.627 452.875,-796.481"/>
<polygon fill="green" stroke="green" stroke-width="0.346786" points="456.352,-796.068 451.902,-786.453 449.385,-796.745 456.352,-796.068"/>
</g>
<!-- 7800&#45;&gt;ux -->
<g id="edge49" class="edge"><title>7800&#45;&gt;ux</title>
<path fill="none" stroke="red" stroke-width="0.291166" d="M402.449,-841.641C411.998,-827.131 424.914,-807.506 434.907,-792.321"/>
<polygon fill="red" stroke="red" stroke-width="0.291166" points="437.831,-794.244 440.405,-783.967 431.984,-790.396 437.831,-794.244"/>
</g>
<!-- 7545&#45;&gt;uy -->
<g id="edge57" class="edge"><title>7545&#45;&gt;uy</title>
<path fill="none" stroke="green" stroke-width="0.109325" d="M141.764,-582.875C191.255,-517.227 359.661,-300.858 533.213,-158.267 552.848,-142.135 577.824,-127.452 596.148,-117.586"/>
<polygon fill="green" stroke="green" stroke-width="0.109325" points="597.85,-120.646 605.061,-112.884 594.583,-114.455 597.85,-120.646"/>
</g>
<!-- 2175&#45;&gt;wz -->
<g id="edge41" class="edge"><title>2175&#45;&gt;wz</title>
<path fill="none" stroke="green" stroke-width="0.14484" d="M505.143,-457.167C502.198,-479.492 493.925,-513.725 484.213,-542.683 479.955,-555.381 474.247,-569.198 468.454,-580.343"/>
<polygon fill="green" stroke="green" stroke-width="0.14484" points="465.236,-578.924 463.375,-589.354 471.334,-582.361 465.236,-578.924"/>
</g>
<!-- 2175&#45;&gt;157328 -->
<g id="edge36" class="edge"><title>2175&#45;&gt;157328</title>
<path fill="none" stroke="red" stroke-width="0.430214" d="M498.747,-407.827C497.217,-399.742 495.461,-390.457 493.756,-381.448"/>
<polygon fill="red" stroke="red" stroke-width="0.430214" points="497.167,-380.646 491.869,-371.471 490.289,-381.947 497.167,-380.646"/>
</g>
<!-- 2175&#45;&gt;63 -->
<g id="edge63" class="edge"><title>2175&#45;&gt;63</title>
<path fill="none" stroke="red" stroke-width="0.338692" stroke-dasharray="1,5" d="M512.96,-409.206C524.563,-383.892 545.39,-341.855 569.213,-309.463 578.376,-297.004 590.319,-284.541 600.448,-274.794"/>
<polygon fill="red" stroke="red" stroke-width="0.338692" points="602.877,-277.315 607.764,-267.915 598.081,-272.215 602.877,-277.315"/>
</g>
</g>
</svg>
