<?xml version="1.0" encoding="UTF-8" standalone="no"?>
<!DOCTYPE svg PUBLIC "-//W3C//DTD SVG 1.1//EN"
 "http://www.w3.org/Graphics/SVG/1.1/DTD/svg11.dtd">
<!-- Generated by graphviz version 2.38.0 (20140413.2041)
 -->
<!-- Title: %3 Pages: 1 -->
<svg width="490pt" height="592pt"
 viewBox="0.00 0.00 489.58 591.70" xmlns="http://www.w3.org/2000/svg" xmlns:xlink="http://www.w3.org/1999/xlink">
<g id="graph0" class="graph" transform="scale(1 1) rotate(0) translate(4 587.696)">
<title>%3</title>
<polygon fill="white" stroke="none" points="-4,4 -4,-587.696 485.577,-587.696 485.577,4 -4,4"/>
<!-- ext -->
<g id="node1" class="node"><title>ext</title>
<polygon fill="lightgray" stroke="black" points="346.5,-473.964 319.5,-473.964 319.5,-455.964 346.5,-455.964 346.5,-473.964"/>
<text text-anchor="middle" x="333" y="-462.764" font-family="Times,serif" font-size="9.00">ext</text>
</g>
<!-- uy -->
<g id="node8" class="node"><title>uy</title>
<ellipse fill="lightblue" stroke="black" cx="352" cy="-373.81" rx="18.2703" ry="18.2703"/>
<text text-anchor="middle" x="352" y="-371.61" font-family="Times,serif" font-size="9.00">uy</text>
</g>
<!-- ext&#45;&gt;uy -->
<g id="edge5" class="edge"><title>ext&#45;&gt;uy</title>
<path fill="none" stroke="green" stroke-width="0.133794" d="M334.753,-455.736C337.33,-443.644 342.26,-420.511 346.192,-402.065"/>
<polygon fill="green" stroke="green" stroke-width="0.133794" points="349.647,-402.642 348.308,-392.132 342.801,-401.183 349.647,-402.642"/>
</g>
<!-- eyt -->
<g id="node2" class="node"><title>eyt</title>
<polygon fill="lightgray" stroke="black" points="196.5,-565.118 169.5,-565.118 169.5,-547.118 196.5,-547.118 196.5,-565.118"/>
<text text-anchor="middle" x="183" y="-553.918" font-family="Times,serif" font-size="9.00">eyt</text>
</g>
<!-- sf -->
<g id="node3" class="node"><title>sf</title>
<polygon fill="lightgray" stroke="black" points="300.5,-473.964 277.5,-473.964 277.5,-455.964 300.5,-455.964 300.5,-473.964"/>
<text text-anchor="middle" x="289" y="-462.764" font-family="Times,serif" font-size="9.00">sf</text>
</g>
<!-- sf&#45;&gt;uy -->
<g id="edge27" class="edge"><title>sf&#45;&gt;uy</title>
<path fill="none" stroke="red" stroke-width="0.130264" d="M294.814,-455.736C304.059,-442.653 322.44,-416.642 335.875,-397.629"/>
<polygon fill="red" stroke="red" stroke-width="0.130264" points="338.737,-399.643 341.65,-389.457 333.02,-395.604 338.737,-399.643"/>
</g>
<!-- 30543 -->
<g id="node15" class="node"><title>30543</title>
<ellipse fill="white" stroke="black" cx="288" cy="-373.81" rx="27.6545" ry="27.6545"/>
<text text-anchor="middle" x="288" y="-371.61" font-family="Times,serif" font-size="9.00">30543</text>
</g>
<!-- sf&#45;&gt;30543 -->
<g id="edge29" class="edge"><title>sf&#45;&gt;30543</title>
<path fill="none" stroke="green" stroke-width="0.451978" d="M288.908,-455.736C288.796,-445.764 288.6,-428.283 288.418,-412.114"/>
<polygon fill="green" stroke="green" stroke-width="0.451978" points="291.914,-411.731 288.302,-401.771 284.915,-411.809 291.914,-411.731"/>
</g>
<!-- sl -->
<g id="node4" class="node"><title>sl</title>
<polygon fill="lightgray" stroke="black" points="151.5,-565.118 128.5,-565.118 128.5,-547.118 151.5,-547.118 151.5,-565.118"/>
<text text-anchor="middle" x="140" y="-553.918" font-family="Times,serif" font-size="9.00">sl</text>
</g>
<!-- 11908 -->
<g id="node11" class="node"><title>11908</title>
<ellipse fill="white" stroke="black" cx="140" cy="-27.5772" rx="27.6545" ry="27.6545"/>
<text text-anchor="middle" x="140" y="-25.3772" font-family="Times,serif" font-size="9.00">11908</text>
</g>
<!-- sl&#45;&gt;11908 -->
<g id="edge17" class="edge"><title>sl&#45;&gt;11908</title>
<path fill="none" stroke="red" stroke-width="0.398957" d="M128.064,-547.807C94.2078,-526.051 0,-458.036 0,-374.81 0,-374.81 0,-374.81 0,-190.501 0,-125.066 66.2321,-73.0409 107.586,-46.9353"/>
<polygon fill="red" stroke="red" stroke-width="0.398957" points="109.562,-49.8289 116.251,-41.6124 105.898,-43.8644 109.562,-49.8289"/>
</g>
<!-- 15374 -->
<g id="node14" class="node"><title>15374</title>
<ellipse fill="white" stroke="black" cx="168" cy="-464.964" rx="27.6545" ry="27.6545"/>
<text text-anchor="middle" x="168" y="-462.764" font-family="Times,serif" font-size="9.00">15374</text>
</g>
<!-- sl&#45;&gt;15374 -->
<g id="edge10" class="edge"><title>sl&#45;&gt;15374</title>
<path fill="none" stroke="green" stroke-width="0.308937" d="M142.584,-546.891C145.866,-536.441 151.738,-517.744 157.011,-500.953"/>
<polygon fill="green" stroke="green" stroke-width="0.308937" points="160.366,-501.952 160.023,-491.363 153.688,-499.855 160.366,-501.952"/>
</g>
<!-- 22 -->
<g id="node19" class="node"><title>22</title>
<ellipse fill="white" stroke="black" cx="140" cy="-109.539" rx="18.2703" ry="18.2703"/>
<text text-anchor="middle" x="140" y="-107.339" font-family="Times,serif" font-size="9.00">22</text>
</g>
<!-- sl&#45;&gt;22 -->
<g id="edge24" class="edge"><title>sl&#45;&gt;22</title>
<path fill="none" stroke="green" stroke-width="0.467628" d="M137.803,-546.922C131.202,-521.55 112,-441.969 112,-374.81 112,-374.81 112,-374.81 112,-281.655 112,-230.046 124.558,-170.816 132.854,-137.319"/>
<polygon fill="green" stroke="green" stroke-width="0.467628" points="136.306,-137.945 135.376,-127.391 129.522,-136.221 136.306,-137.945"/>
</g>
<!-- 12541 -->
<g id="node22" class="node"><title>12541</title>
<ellipse fill="white" stroke="black" cx="392" cy="-464.964" rx="27.6545" ry="27.6545"/>
<text text-anchor="middle" x="392" y="-462.764" font-family="Times,serif" font-size="9.00">12541</text>
</g>
<!-- sl&#45;&gt;12541 -->
<g id="edge13" class="edge"><title>sl&#45;&gt;12541</title>
<path fill="none" stroke="red" stroke-width="0.517028" d="M144.074,-546.821C147.485,-540.779 152.929,-532.917 160,-528.541 234.944,-482.167 273.92,-527.083 355,-492.541 357.506,-491.474 360.007,-490.212 362.459,-488.829"/>
<polygon fill="red" stroke="red" stroke-width="0.517028" points="364.458,-491.706 371.049,-483.411 360.723,-485.786 364.458,-491.706"/>
</g>
<!-- sr -->
<g id="node5" class="node"><title>sr</title>
<polygon fill="lightgray" stroke="black" points="236.5,-473.964 213.5,-473.964 213.5,-455.964 236.5,-455.964 236.5,-473.964"/>
<text text-anchor="middle" x="225" y="-462.764" font-family="Times,serif" font-size="9.00">sr</text>
</g>
<!-- 28095 -->
<g id="node23" class="node"><title>28095</title>
<ellipse fill="white" stroke="black" cx="215" cy="-373.81" rx="27.6545" ry="27.6545"/>
<text text-anchor="middle" x="215" y="-371.61" font-family="Times,serif" font-size="9.00">28095</text>
</g>
<!-- sr&#45;&gt;28095 -->
<g id="edge18" class="edge"><title>sr&#45;&gt;28095</title>
<path fill="none" stroke="green" stroke-width="0.235253" d="M224.077,-455.736C222.951,-445.694 220.97,-428.035 219.146,-411.771"/>
<polygon fill="green" stroke="green" stroke-width="0.235253" points="222.573,-410.925 217.98,-401.378 215.617,-411.706 222.573,-410.925"/>
</g>
<!-- &#45;6 -->
<g id="node6" class="node"><title>&#45;6</title>
<polygon fill="lightgray" stroke="black" points="465,-473.964 441,-473.964 441,-455.964 465,-455.964 465,-473.964"/>
<text text-anchor="middle" x="453" y="-462.764" font-family="Times,serif" font-size="9.00">&#45;6</text>
</g>
<!-- &#45;6&#45;&gt;uy -->
<g id="edge12" class="edge"><title>&#45;6&#45;&gt;uy</title>
<path fill="none" stroke="red" stroke-width="0.710913" d="M446.166,-455.757C441.522,-450.345 435.132,-443.208 429,-437.387 411.607,-420.876 390.359,-403.817 374.593,-391.688"/>
<polygon fill="red" stroke="red" stroke-width="0.710913" points="376.533,-388.766 366.457,-385.492 372.292,-394.335 376.533,-388.766"/>
</g>
<!-- 28432 -->
<g id="node18" class="node"><title>28432</title>
<ellipse fill="white" stroke="black" cx="454" cy="-373.81" rx="27.6545" ry="27.6545"/>
<text text-anchor="middle" x="454" y="-371.61" font-family="Times,serif" font-size="9.00">28432</text>
</g>
<!-- &#45;6&#45;&gt;28432 -->
<g id="edge28" class="edge"><title>&#45;6&#45;&gt;28432</title>
<path fill="none" stroke="green" stroke-width="0.427854" d="M453.092,-455.736C453.204,-445.764 453.4,-428.283 453.582,-412.114"/>
<polygon fill="green" stroke="green" stroke-width="0.427854" points="457.085,-411.809 453.698,-401.771 450.086,-411.731 457.085,-411.809"/>
</g>
<!-- ux -->
<g id="node7" class="node"><title>ux</title>
<ellipse fill="lightblue" stroke="black" cx="224" cy="-282.655" rx="18.2703" ry="18.2703"/>
<text text-anchor="middle" x="224" y="-280.455" font-family="Times,serif" font-size="9.00">ux</text>
</g>
<!-- 8704 -->
<g id="node12" class="node"><title>8704</title>
<ellipse fill="white" stroke="black" cx="315" cy="-191.501" rx="25" ry="25"/>
<text text-anchor="middle" x="315" y="-189.301" font-family="Times,serif" font-size="9.00">8704</text>
</g>
<!-- ux&#45;&gt;8704 -->
<g id="edge11" class="edge"><title>ux&#45;&gt;8704</title>
<path fill="none" stroke="green" stroke-width="0.315251" d="M236.653,-269.259C250.459,-255.733 272.905,-233.742 290.241,-216.758"/>
<polygon fill="green" stroke="green" stroke-width="0.315251" points="293.103,-218.854 297.797,-209.355 288.204,-213.854 293.103,-218.854"/>
</g>
<!-- 12777 -->
<g id="node13" class="node"><title>12777</title>
<ellipse fill="white" stroke="black" cx="262" cy="-27.5772" rx="27.6545" ry="27.6545"/>
<text text-anchor="middle" x="262" y="-25.3772" font-family="Times,serif" font-size="9.00">12777</text>
</g>
<!-- ux&#45;&gt;12777 -->
<g id="edge4" class="edge"><title>ux&#45;&gt;12777</title>
<path fill="none" stroke="green" stroke-width="0.141517" d="M226.612,-264.26C232.756,-223.344 248.228,-120.298 256.532,-64.9946"/>
<polygon fill="green" stroke="green" stroke-width="0.141517" points="260.02,-65.3351 258.044,-54.9262 253.098,-64.2956 260.02,-65.3351"/>
</g>
<!-- 21296 -->
<g id="node16" class="node"><title>21296</title>
<ellipse fill="white" stroke="black" cx="168" cy="-191.501" rx="27.6545" ry="27.6545"/>
<text text-anchor="middle" x="168" y="-189.301" font-family="Times,serif" font-size="9.00">21296</text>
</g>
<!-- ux&#45;&gt;21296 -->
<g id="edge26" class="edge"><title>ux&#45;&gt;21296</title>
<path fill="none" stroke="red" stroke-width="0.358226" d="M214.5,-266.532C207.213,-254.93 196.899,-238.51 187.836,-224.081"/>
<polygon fill="red" stroke="red" stroke-width="0.358226" points="190.676,-222.022 182.393,-215.415 184.748,-225.745 190.676,-222.022"/>
</g>
<!-- 28273 -->
<g id="node17" class="node"><title>28273</title>
<ellipse fill="white" stroke="black" cx="342" cy="-282.655" rx="27.6545" ry="27.6545"/>
<text text-anchor="middle" x="342" y="-280.455" font-family="Times,serif" font-size="9.00">28273</text>
</g>
<!-- uy&#45;&gt;28273 -->
<g id="edge9" class="edge"><title>uy&#45;&gt;28273</title>
<path fill="none" stroke="green" stroke-width="0.423785" d="M350.024,-355.196C348.915,-345.305 347.487,-332.577 346.145,-320.606"/>
<polygon fill="green" stroke="green" stroke-width="0.423785" points="349.589,-319.918 344.997,-310.371 342.633,-320.698 349.589,-319.918"/>
</g>
<!-- 25889 -->
<g id="node9" class="node"><title>25889</title>
<ellipse fill="white" stroke="black" cx="56" cy="-282.655" rx="27.6545" ry="27.6545"/>
<text text-anchor="middle" x="56" y="-280.455" font-family="Times,serif" font-size="9.00">25889</text>
</g>
<!-- 22211 -->
<g id="node10" class="node"><title>22211</title>
<ellipse fill="white" stroke="black" cx="56" cy="-191.501" rx="27.6545" ry="27.6545"/>
<text text-anchor="middle" x="56" y="-189.301" font-family="Times,serif" font-size="9.00">22211</text>
</g>
<!-- 25889&#45;&gt;22211 -->
<g id="edge22" class="edge"><title>25889&#45;&gt;22211</title>
<path fill="none" stroke="green" stroke-width="0.633175" d="M56,-254.906C56,-246.884 56,-237.939 56,-229.385"/>
<polygon fill="green" stroke="green" stroke-width="0.633175" points="59.5001,-229.231 56,-219.231 52.5001,-229.231 59.5001,-229.231"/>
</g>
<!-- 22211&#45;&gt;22 -->
<g id="edge6" class="edge"><title>22211&#45;&gt;22</title>
<path fill="none" stroke="green" stroke-width="0.164841" d="M75.4824,-171.955C88.7711,-159.305 106.33,-142.591 119.774,-129.793"/>
<polygon fill="green" stroke="green" stroke-width="0.164841" points="122.321,-132.201 127.151,-122.771 117.495,-127.13 122.321,-132.201"/>
</g>
<!-- 11908&#45;&gt;22 -->
<g id="edge30" class="edge"><title>11908&#45;&gt;22</title>
<path fill="none" stroke="red" stroke-width="0.673987" d="M146.369,-54.5696C146.864,-63.3094 146.877,-73.0696 146.406,-81.8612"/>
<polygon fill="red" stroke="red" stroke-width="0.673987" points="142.906,-81.7224 145.593,-91.9709 149.884,-82.2839 142.906,-81.7224"/>
</g>
<!-- 8704&#45;&gt;uy -->
<g id="edge21" class="edge"><title>8704&#45;&gt;uy</title>
<path fill="none" stroke="green" stroke-width="0.478796" d="M307.809,-215.267C301.364,-239.459 294.416,-278.516 305,-310.233 310.33,-326.204 321.513,-341.376 331.634,-352.78"/>
<polygon fill="green" stroke="green" stroke-width="0.478796" points="329.337,-355.449 338.716,-360.376 334.456,-350.675 329.337,-355.449"/>
</g>
<!-- 15374&#45;&gt;ux -->
<g id="edge3" class="edge"><title>15374&#45;&gt;ux</title>
<path fill="none" stroke="red" stroke-width="0.141673" d="M166.221,-437.347C165.512,-412.878 166.82,-375.997 178,-346.233 183.875,-330.591 194.842,-315.429 204.593,-303.948"/>
<polygon fill="red" stroke="red" stroke-width="0.141673" points="207.373,-306.088 211.389,-296.284 202.135,-301.444 207.373,-306.088"/>
</g>
<!-- 15374&#45;&gt;28095 -->
<g id="edge1" class="edge"><title>15374&#45;&gt;28095</title>
<path fill="none" stroke="green" stroke-width="0.186261" d="M180.595,-440.072C185.853,-430.099 192.046,-418.351 197.719,-407.59"/>
<polygon fill="green" stroke="green" stroke-width="0.186261" points="200.966,-408.937 202.533,-398.458 194.773,-405.672 200.966,-408.937"/>
</g>
<!-- 30543&#45;&gt;ux -->
<g id="edge23" class="edge"><title>30543&#45;&gt;ux</title>
<path fill="none" stroke="green" stroke-width="0.975975" d="M272.18,-350.772C262.463,-337.236 250.045,-319.938 240.25,-306.293"/>
<polygon fill="green" stroke="green" stroke-width="0.975975" points="242.922,-304.013 234.247,-297.93 237.236,-308.095 242.922,-304.013"/>
</g>
<!-- 21296&#45;&gt;22 -->
<g id="edge2" class="edge"><title>21296&#45;&gt;22</title>
<path fill="none" stroke="red" stroke-width="0.253529" d="M159.141,-165.201C155.974,-156.158 152.401,-145.953 149.206,-136.829"/>
<polygon fill="red" stroke="red" stroke-width="0.253529" points="152.41,-135.389 145.802,-127.107 145.803,-137.702 152.41,-135.389"/>
</g>
<!-- 28273&#45;&gt;8704 -->
<g id="edge15" class="edge"><title>28273&#45;&gt;8704</title>
<path fill="none" stroke="green" stroke-width="0.905619" d="M334.19,-255.868C331.294,-246.303 327.969,-235.324 324.909,-225.222"/>
<polygon fill="green" stroke="green" stroke-width="0.905619" points="328.212,-224.053 321.964,-215.497 321.513,-226.082 328.212,-224.053"/>
</g>
<!-- 22&#45;&gt;ux -->
<g id="edge20" class="edge"><title>22&#45;&gt;ux</title>
<path fill="none" stroke="red" stroke-width="0.130208" d="M155.941,-119.054C171.159,-128.075 193.431,-143.793 205,-163.924 220.906,-191.601 224.544,-228.645 224.922,-253.734"/>
<polygon fill="red" stroke="red" stroke-width="0.130208" points="221.422,-254.012 224.905,-264.017 228.422,-254.023 221.422,-254.012"/>
</g>
<!-- 22&#45;&gt;11908 -->
<g id="edge7" class="edge"><title>22&#45;&gt;11908</title>
<path fill="none" stroke="green" stroke-width="0.641301" d="M134.407,-91.9709C133.515,-84.0428 133.139,-74.2182 133.278,-64.6894"/>
<polygon fill="green" stroke="green" stroke-width="0.641301" points="136.78,-64.6857 133.631,-54.5696 129.785,-64.4413 136.78,-64.6857"/>
</g>
<!-- 22&#45;&gt;12777 -->
<g id="edge25" class="edge"><title>22&#45;&gt;12777</title>
<path fill="none" stroke="red" stroke-width="0.226998" d="M154.96,-98.7342C173.66,-86.4773 206.163,-65.1743 230.46,-49.2496"/>
<polygon fill="red" stroke="red" stroke-width="0.226998" points="232.554,-52.0617 238.999,-43.6526 228.717,-46.2071 232.554,-52.0617"/>
</g>
<!-- 16406 -->
<g id="node20" class="node"><title>16406</title>
<ellipse fill="white" stroke="black" cx="242" cy="-556.118" rx="27.6545" ry="27.6545"/>
<text text-anchor="middle" x="242" y="-553.918" font-family="Times,serif" font-size="9.00">16406</text>
</g>
<!-- 11836 -->
<g id="node21" class="node"><title>11836</title>
<ellipse fill="white" stroke="black" cx="315" cy="-556.118" rx="27.6545" ry="27.6545"/>
<text text-anchor="middle" x="315" y="-553.918" font-family="Times,serif" font-size="9.00">11836</text>
</g>
<!-- 11836&#45;&gt;11836 -->
<g id="edge8" class="edge"><title>11836&#45;&gt;11836</title>
<path fill="none" stroke="green" stroke-width="0.615358" d="M337.512,-572.297C349.582,-575.046 360.577,-569.654 360.577,-556.118 360.577,-546.601 355.141,-541.11 347.718,-539.644"/>
<polygon fill="green" stroke="green" stroke-width="0.615358" points="347.407,-536.151 337.512,-539.94 347.609,-543.148 347.407,-536.151"/>
</g>
<!-- 12541&#45;&gt;uy -->
<g id="edge16" class="edge"><title>12541&#45;&gt;uy</title>
<path fill="none" stroke="red" stroke-width="0.758343" d="M381.07,-439.602C375.594,-427.398 368.968,-412.629 363.425,-400.275"/>
<polygon fill="red" stroke="red" stroke-width="0.758343" points="366.542,-398.672 359.255,-390.981 360.155,-401.537 366.542,-398.672"/>
</g>
<!-- 12541&#45;&gt;12777 -->
<g id="edge14" class="edge"><title>12541&#45;&gt;12777</title>
<path fill="none" stroke="red" stroke-width="0.251695" d="M393.437,-437.394C395.212,-402.233 398,-338.31 398,-283.655 398,-283.655 398,-283.655 398,-190.501 398,-126.201 334.339,-74.0902 294.128,-47.588"/>
<polygon fill="red" stroke="red" stroke-width="0.251695" points="295.996,-44.6281 285.689,-42.1731 292.215,-50.5195 295.996,-44.6281"/>
</g>
<!-- 28095&#45;&gt;ux -->
<g id="edge19" class="edge"><title>28095&#45;&gt;ux</title>
<path fill="none" stroke="green" stroke-width="0.2708" d="M217.7,-346.06C218.815,-335.022 220.105,-322.237 221.227,-311.124"/>
<polygon fill="green" stroke="green" stroke-width="0.2708" points="224.717,-311.394 222.24,-301.093 217.753,-310.691 224.717,-311.394"/>
</g>
</g>
</svg>
