<?xml version="1.0" encoding="UTF-8" standalone="no"?>
<!DOCTYPE svg PUBLIC "-//W3C//DTD SVG 1.1//EN"
 "http://www.w3.org/Graphics/SVG/1.1/DTD/svg11.dtd">
<!-- Generated by graphviz version 2.38.0 (20140413.2041)
 -->
<!-- Title: %3 Pages: 1 -->
<svg width="821pt" height="720pt"
 viewBox="0.00 0.00 821.30 719.88" xmlns="http://www.w3.org/2000/svg" xmlns:xlink="http://www.w3.org/1999/xlink">
<g id="graph0" class="graph" transform="scale(1 1) rotate(0) translate(4 715.879)">
<title>%3</title>
<polygon fill="white" stroke="none" points="-4,4 -4,-715.879 817.296,-715.879 817.296,4 -4,4"/>
<!-- ext -->
<g id="node1" class="node"><title>ext</title>
<polygon fill="lightgray" stroke="black" points="450.796,-642.131 423.796,-642.131 423.796,-624.131 450.796,-624.131 450.796,-642.131"/>
<text text-anchor="middle" x="437.296" y="-630.931" font-family="Times,serif" font-size="9.00">ext</text>
</g>
<!-- ux -->
<g id="node7" class="node"><title>ux</title>
<ellipse fill="lightblue" stroke="black" cx="413.296" cy="-204.229" rx="18.2703" ry="18.2703"/>
<text text-anchor="middle" x="413.296" y="-202.029" font-family="Times,serif" font-size="9.00">ux</text>
</g>
<!-- ext&#45;&gt;ux -->
<g id="edge8" class="edge"><title>ext&#45;&gt;ux</title>
<path fill="none" stroke="green" stroke-width="0.212737" d="M435.332,-623.961C429.6,-599.376 413.296,-523.86 413.296,-460.307 413.296,-460.307 413.296,-460.307 413.296,-369.981 413.296,-321.926 413.296,-265.987 413.296,-233.209"/>
<polygon fill="green" stroke="green" stroke-width="0.212737" points="416.796,-233.026 413.296,-223.026 409.796,-233.026 416.796,-233.026"/>
</g>
<!-- uy -->
<g id="node8" class="node"><title>uy</title>
<ellipse fill="lightblue" stroke="black" cx="185.296" cy="-204.229" rx="18.2703" ry="18.2703"/>
<text text-anchor="middle" x="185.296" y="-202.029" font-family="Times,serif" font-size="9.00">uy</text>
</g>
<!-- ext&#45;&gt;uy -->
<g id="edge9" class="edge"><title>ext&#45;&gt;uy</title>
<path fill="none" stroke="green" stroke-width="0.127203" d="M433.656,-624.094C415.359,-584.026 330.648,-402.413 238.296,-267.806 228.087,-252.926 214.995,-237.441 204.377,-225.597"/>
<polygon fill="green" stroke="green" stroke-width="0.127203" points="206.808,-223.068 197.487,-218.031 201.633,-227.782 206.808,-223.068"/>
</g>
<!-- wz -->
<g id="node9" class="node"><title>wz</title>
<ellipse fill="lightblue" stroke="black" cx="596.296" cy="-547.633" rx="19.1842" ry="19.1842"/>
<text text-anchor="middle" x="596.296" y="-545.433" font-family="Times,serif" font-size="9.00">wz</text>
</g>
<!-- ext&#45;&gt;wz -->
<g id="edge29" class="edge"><title>ext&#45;&gt;wz</title>
<path fill="none" stroke="green" stroke-width="0.409399" d="M450.852,-625.012C477.349,-611.097 536.396,-580.089 570.548,-562.154"/>
<polygon fill="green" stroke="green" stroke-width="0.409399" points="572.247,-565.216 579.473,-557.468 568.992,-559.018 572.247,-565.216"/>
</g>
<!-- 124 -->
<g id="node20" class="node"><title>124</title>
<ellipse fill="white" stroke="black" cx="598.296" cy="-289.019" rx="21.4286" ry="21.4286"/>
<text text-anchor="middle" x="598.296" y="-286.819" font-family="Times,serif" font-size="9.00">124</text>
</g>
<!-- ext&#45;&gt;124 -->
<g id="edge12" class="edge"><title>ext&#45;&gt;124</title>
<path fill="none" stroke="green" stroke-width="0.151661" d="M440.005,-623.85C449.655,-595.169 484.5,-498.198 535.296,-431.73 550.02,-412.462 564.085,-416.681 576.296,-395.73 589.681,-372.765 594.988,-342.809 597.059,-320.651"/>
<polygon fill="green" stroke="green" stroke-width="0.151661" points="600.565,-320.703 597.837,-310.465 593.585,-320.17 600.565,-320.703"/>
</g>
<!-- eyt -->
<g id="node2" class="node"><title>eyt</title>
<polygon fill="lightgray" stroke="black" points="492.796,-711.879 465.796,-711.879 465.796,-693.879 492.796,-693.879 492.796,-711.879"/>
<text text-anchor="middle" x="479.296" y="-700.679" font-family="Times,serif" font-size="9.00">eyt</text>
</g>
<!-- eyt&#45;&gt;uy -->
<g id="edge18" class="edge"><title>eyt&#45;&gt;uy</title>
<path fill="none" stroke="green" stroke-width="0.392586" d="M465.463,-701.486C393.181,-699.306 60.9102,-687.708 27.2958,-657.879 -9.88731,-624.884 3.29577,-598.345 3.29577,-548.633 3.29577,-548.633 3.29577,-548.633 3.29577,-369.981 3.29577,-323.334 -3.18816,-303.115 27.2958,-267.806 60.6694,-229.151 121.146,-214.16 156.816,-208.505"/>
<polygon fill="green" stroke="green" stroke-width="0.392586" points="157.634,-211.923 167.033,-207.034 156.636,-204.995 157.634,-211.923"/>
</g>
<!-- eyt&#45;&gt;wz -->
<g id="edge5" class="edge"><title>eyt&#45;&gt;wz</title>
<path fill="none" stroke="red" stroke-width="0.264733" d="M485.586,-693.64C503.001,-670.83 552.31,-606.246 578.858,-571.473"/>
<polygon fill="red" stroke="red" stroke-width="0.264733" points="581.797,-573.391 585.084,-563.318 576.234,-569.143 581.797,-573.391"/>
</g>
<!-- 4073 -->
<g id="node12" class="node"><title>4073</title>
<ellipse fill="white" stroke="black" cx="608.296" cy="-633.131" rx="25" ry="25"/>
<text text-anchor="middle" x="608.296" y="-630.931" font-family="Times,serif" font-size="9.00">4073</text>
</g>
<!-- eyt&#45;&gt;4073 -->
<g id="edge42" class="edge"><title>eyt&#45;&gt;4073</title>
<path fill="none" stroke="green" stroke-width="0.151531" d="M493.101,-694.629C513.102,-684.125 550.671,-664.394 577.467,-650.321"/>
<polygon fill="green" stroke="green" stroke-width="0.151531" points="579.223,-653.352 586.449,-645.604 575.968,-647.155 579.223,-653.352"/>
</g>
<!-- 4310 -->
<g id="node17" class="node"><title>4310</title>
<ellipse fill="white" stroke="black" cx="132.296" cy="-547.633" rx="25" ry="25"/>
<text text-anchor="middle" x="132.296" y="-545.433" font-family="Times,serif" font-size="9.00">4310</text>
</g>
<!-- eyt&#45;&gt;4310 -->
<g id="edge15" class="edge"><title>eyt&#45;&gt;4310</title>
<path fill="none" stroke="red" stroke-width="0.107641" d="M465.734,-701.179C416.351,-698.411 246.714,-686.932 202.296,-657.879 174.337,-639.592 155.279,-605.826 144.192,-580.655"/>
<polygon fill="red" stroke="red" stroke-width="0.107641" points="147.296,-579.006 140.197,-571.142 140.842,-581.717 147.296,-579.006"/>
</g>
<!-- eyt&#45;&gt;124 -->
<g id="edge47" class="edge"><title>eyt&#45;&gt;124</title>
<path fill="none" stroke="green" stroke-width="0.245759" d="M480.82,-693.438C487.282,-659.036 514.585,-526.729 568.296,-431.73 578.688,-413.35 591.948,-415.525 599.296,-395.73 608.353,-371.332 607.07,-341.53 604.123,-319.796"/>
<polygon fill="green" stroke="green" stroke-width="0.245759" points="607.569,-319.18 602.58,-309.833 600.651,-320.251 607.569,-319.18"/>
</g>
<!-- sf -->
<g id="node3" class="node"><title>sf</title>
<polygon fill="lightgray" stroke="black" points="566.796,-711.879 543.796,-711.879 543.796,-693.879 566.796,-693.879 566.796,-711.879"/>
<text text-anchor="middle" x="555.296" y="-700.679" font-family="Times,serif" font-size="9.00">sf</text>
</g>
<!-- sf&#45;&gt;ux -->
<g id="edge45" class="edge"><title>sf&#45;&gt;ux</title>
<path fill="none" stroke="green" stroke-width="0.388877" d="M543.618,-699.912C505.129,-693.312 384.102,-671.61 373.296,-657.879 270.332,-527.057 364.298,-304.337 400.492,-230.119"/>
<polygon fill="green" stroke="green" stroke-width="0.388877" points="403.686,-231.556 404.995,-221.042 397.416,-228.445 403.686,-231.556"/>
</g>
<!-- sf&#45;&gt;uy -->
<g id="edge30" class="edge"><title>sf&#45;&gt;uy</title>
<path fill="none" stroke="red" stroke-width="0.183782" d="M543.734,-699.972C532.817,-698.217 515.976,-695.629 501.296,-693.879 413.115,-683.368 177.946,-705.981 103.296,-657.879 56.3665,-627.64 41.2958,-604.461 41.2958,-548.633 41.2958,-548.633 41.2958,-548.633 41.2958,-369.981 41.2958,-323.334 36.6805,-304.645 65.2958,-267.806 88.5565,-237.861 130.179,-220.802 157.768,-212.283"/>
<polygon fill="red" stroke="red" stroke-width="0.183782" points="158.963,-215.58 167.588,-209.427 157.008,-208.859 158.963,-215.58"/>
</g>
<!-- sf&#45;&gt;wz -->
<g id="edge16" class="edge"><title>sf&#45;&gt;wz</title>
<path fill="none" stroke="green" stroke-width="0.137053" d="M556.515,-693.776C559.067,-677.438 565.474,-639.453 574.296,-608.382 577.421,-597.376 581.615,-585.503 585.503,-575.263"/>
<polygon fill="green" stroke="green" stroke-width="0.137053" points="588.875,-576.249 589.238,-565.66 582.351,-573.711 588.875,-576.249"/>
</g>
<!-- sf&#45;&gt;4073 -->
<g id="edge28" class="edge"><title>sf&#45;&gt;4073</title>
<path fill="none" stroke="red" stroke-width="0.465399" d="M561.584,-693.842C567.911,-685.754 578.023,-672.828 587.223,-661.067"/>
<polygon fill="red" stroke="red" stroke-width="0.465399" points="589.984,-663.218 593.389,-653.185 584.471,-658.905 589.984,-663.218"/>
</g>
<!-- sf&#45;&gt;124 -->
<g id="edge25" class="edge"><title>sf&#45;&gt;124</title>
<path fill="none" stroke="red" stroke-width="0.116371" d="M566.868,-699.919C586.385,-695.924 625.371,-684.826 642.296,-657.879 715.975,-540.571 695.897,-475.954 647.296,-346.233 642.084,-332.321 631.699,-319.586 621.826,-309.769"/>
<polygon fill="red" stroke="red" stroke-width="0.116371" points="624.155,-307.155 614.47,-302.859 619.362,-312.257 624.155,-307.155"/>
</g>
<!-- sl -->
<g id="node4" class="node"><title>sl</title>
<polygon fill="lightgray" stroke="black" points="664.796,-711.879 641.796,-711.879 641.796,-693.879 664.796,-693.879 664.796,-711.879"/>
<text text-anchor="middle" x="653.296" y="-700.679" font-family="Times,serif" font-size="9.00">sl</text>
</g>
<!-- sl&#45;&gt;ux -->
<g id="edge35" class="edge"><title>sl&#45;&gt;ux</title>
<path fill="none" stroke="green" stroke-width="0.100126" d="M656.053,-693.645C667.496,-657.797 707.668,-513.483 642.296,-431.73 603.783,-383.567 555.818,-435.03 508.296,-395.73 459.607,-355.466 474.813,-324.185 446.296,-267.806 439.929,-255.219 432.634,-241.332 426.524,-229.844"/>
<polygon fill="green" stroke="green" stroke-width="0.100126" points="429.514,-228.013 421.717,-220.84 423.339,-231.31 429.514,-228.013"/>
</g>
<!-- sl&#45;&gt;uy -->
<g id="edge39" class="edge"><title>sl&#45;&gt;uy</title>
<path fill="none" stroke="green" stroke-width="1.14764" d="M641.669,-700.665C626.429,-699.078 598.865,-696.225 575.296,-693.879 409.567,-677.383 356.202,-721.529 202.296,-657.879 147.001,-635.012 128.304,-624.15 98.2958,-572.382 72.9592,-528.673 79.2958,-510.829 79.2958,-460.307 79.2958,-460.307 79.2958,-460.307 79.2958,-369.981 79.2958,-308.163 132.729,-251.076 163.721,-223.164"/>
<polygon fill="green" stroke="green" stroke-width="1.14764" points="166.227,-225.622 171.438,-216.397 161.612,-220.359 166.227,-225.622"/>
</g>
<!-- sl&#45;&gt;4073 -->
<g id="edge43" class="edge"><title>sl&#45;&gt;4073</title>
<path fill="none" stroke="green" stroke-width="0.564245" d="M647.957,-693.842C642.837,-686.133 634.797,-674.028 627.29,-662.728"/>
<polygon fill="green" stroke="green" stroke-width="0.564245" points="630.16,-660.722 621.712,-654.328 624.329,-664.595 630.16,-660.722"/>
</g>
<!-- sl&#45;&gt;124 -->
<g id="edge1" class="edge"><title>sl&#45;&gt;124</title>
<path fill="none" stroke="red" stroke-width="0.209978" d="M665.003,-696.549C678.787,-689.647 701.314,-676.282 713.296,-657.879 740.42,-616.22 737.296,-598.345 737.296,-548.633 737.296,-548.633 737.296,-548.633 737.296,-458.307 737.296,-388.552 665.427,-332.101 625.045,-305.887"/>
<polygon fill="red" stroke="red" stroke-width="0.209978" points="626.791,-302.85 616.468,-300.466 623.051,-308.767 626.791,-302.85"/>
</g>
<!-- sr -->
<g id="node5" class="node"><title>sr</title>
<polygon fill="lightgray" stroke="black" points="405.796,-642.131 382.796,-642.131 382.796,-624.131 405.796,-624.131 405.796,-642.131"/>
<text text-anchor="middle" x="394.296" y="-630.931" font-family="Times,serif" font-size="9.00">sr</text>
</g>
<!-- sr&#45;&gt;uy -->
<g id="edge10" class="edge"><title>sr&#45;&gt;uy</title>
<path fill="none" stroke="red" stroke-width="0.451342" d="M389.663,-624.092C383.138,-612.694 370.958,-591.132 361.296,-572.382 295.947,-445.565 224.247,-290.508 196.826,-230.56"/>
<polygon fill="red" stroke="red" stroke-width="0.451342" points="199.86,-228.777 192.522,-221.134 193.492,-231.685 199.86,-228.777"/>
</g>
<!-- sr&#45;&gt;wz -->
<g id="edge37" class="edge"><title>sr&#45;&gt;wz</title>
<path fill="none" stroke="green" stroke-width="0.26074" d="M399.355,-624.073C402.956,-618.931 408.221,-612.485 414.296,-608.382 462.33,-575.938 529.322,-559.976 567.191,-553.092"/>
<polygon fill="green" stroke="green" stroke-width="0.26074" points="568.249,-556.462 577.508,-551.312 567.058,-549.564 568.249,-556.462"/>
</g>
<!-- 165 -->
<g id="node11" class="node"><title>165</title>
<ellipse fill="white" stroke="black" cx="462.296" cy="-459.307" rx="21.4286" ry="21.4286"/>
<text text-anchor="middle" x="462.296" y="-457.107" font-family="Times,serif" font-size="9.00">165</text>
</g>
<!-- sr&#45;&gt;165 -->
<g id="edge38" class="edge"><title>sr&#45;&gt;165</title>
<path fill="none" stroke="green" stroke-width="0.158811" d="M397.576,-623.843C407.114,-599.742 435.17,-528.849 451.034,-488.765"/>
<polygon fill="green" stroke="green" stroke-width="0.158811" points="454.36,-489.871 454.785,-479.285 447.851,-487.295 454.36,-489.871"/>
</g>
<!-- &#45;6 -->
<g id="node6" class="node"><title>&#45;6</title>
<polygon fill="lightgray" stroke="black" points="235.296,-642.131 211.296,-642.131 211.296,-624.131 235.296,-624.131 235.296,-642.131"/>
<text text-anchor="middle" x="223.296" y="-630.931" font-family="Times,serif" font-size="9.00">&#45;6</text>
</g>
<!-- &#45;6&#45;&gt;ux -->
<g id="edge13" class="edge"><title>&#45;6&#45;&gt;ux</title>
<path fill="none" stroke="red" stroke-width="0.241114" d="M225.298,-624.005C235.489,-583.507 284.152,-400.162 361.296,-267.806 370.312,-252.338 383.147,-236.846 393.809,-225.147"/>
<polygon fill="red" stroke="red" stroke-width="0.241114" points="396.499,-227.395 400.77,-217.7 391.385,-222.615 396.499,-227.395"/>
</g>
<!-- &#45;6&#45;&gt;uy -->
<g id="edge26" class="edge"><title>&#45;6&#45;&gt;uy</title>
<path fill="none" stroke="red" stroke-width="0.235334" d="M221.369,-624.031C214.339,-594.017 190.083,-486.202 182.296,-395.73 180.409,-373.812 182.062,-368.23 182.296,-346.233 182.714,-306.937 183.787,-261.491 184.529,-233.053"/>
<polygon fill="red" stroke="red" stroke-width="0.235334" points="188.028,-233.124 184.796,-223.034 181.031,-232.937 188.028,-233.124"/>
</g>
<!-- &#45;6&#45;&gt;wz -->
<g id="edge46" class="edge"><title>&#45;6&#45;&gt;wz</title>
<path fill="none" stroke="red" stroke-width="0.459768" d="M235.706,-629.352C288.103,-617.623 491.998,-571.981 567.75,-555.023"/>
<polygon fill="red" stroke="red" stroke-width="0.459768" points="568.565,-558.427 577.559,-552.827 567.036,-551.596 568.565,-558.427"/>
</g>
<!-- &#45;6&#45;&gt;4310 -->
<g id="edge2" class="edge"><title>&#45;6&#45;&gt;4310</title>
<path fill="none" stroke="green" stroke-width="0.365288" d="M214.57,-624.124C201.59,-612.214 176.682,-589.36 157.658,-571.904"/>
<polygon fill="green" stroke="green" stroke-width="0.365288" points="159.911,-569.221 150.176,-565.039 155.178,-574.379 159.911,-569.221"/>
</g>
<!-- 251 -->
<g id="node19" class="node"><title>251</title>
<ellipse fill="white" stroke="black" cx="212.296" cy="-370.981" rx="21.4286" ry="21.4286"/>
<text text-anchor="middle" x="212.296" y="-368.781" font-family="Times,serif" font-size="9.00">251</text>
</g>
<!-- &#45;6&#45;&gt;251 -->
<g id="edge11" class="edge"><title>&#45;6&#45;&gt;251</title>
<path fill="none" stroke="green" stroke-width="0.108263" d="M222.955,-624.06C221.541,-590.634 216.103,-462.03 213.587,-402.519"/>
<polygon fill="green" stroke="green" stroke-width="0.108263" points="217.072,-402.092 213.153,-392.249 210.078,-402.388 217.072,-402.092"/>
</g>
<!-- uy&#45;&gt;uy -->
<g id="edge23" class="edge"><title>uy&#45;&gt;uy</title>
<path fill="none" stroke="green" stroke-width="0.163627" d="M198.352,-217.38C209.688,-223.378 221.681,-218.995 221.681,-204.229 221.681,-193.847 215.752,-188.598 208.291,-188.481"/>
<polygon fill="green" stroke="green" stroke-width="0.163627" points="207.142,-185.164 198.352,-191.078 208.912,-191.936 207.142,-185.164"/>
</g>
<!-- wz&#45;&gt;wz -->
<g id="edge44" class="edge"><title>wz&#45;&gt;wz</title>
<path fill="none" stroke="green" stroke-width="0.374386" d="M609.991,-560.98C621.433,-566.684 633.388,-562.235 633.388,-547.633 633.388,-537.252 627.345,-532.003 619.741,-531.885"/>
<polygon fill="green" stroke="green" stroke-width="0.374386" points="618.864,-528.496 609.991,-534.286 620.538,-535.293 618.864,-528.496"/>
</g>
<!-- wz&#45;&gt;165 -->
<g id="edge49" class="edge"><title>wz&#45;&gt;165</title>
<path fill="none" stroke="green" stroke-width="0.102726" d="M580.662,-536.561C558.084,-522.016 516.058,-494.942 488.639,-477.278"/>
<polygon fill="green" stroke="green" stroke-width="0.102726" points="490.252,-474.154 479.95,-471.68 486.461,-480.038 490.252,-474.154"/>
</g>
<!-- 10387 -->
<g id="node15" class="node"><title>10387</title>
<ellipse fill="white" stroke="black" cx="605.296" cy="-459.307" rx="27.6545" ry="27.6545"/>
<text text-anchor="middle" x="605.296" y="-457.107" font-family="Times,serif" font-size="9.00">10387</text>
</g>
<!-- wz&#45;&gt;10387 -->
<g id="edge36" class="edge"><title>wz&#45;&gt;10387</title>
<path fill="none" stroke="green" stroke-width="0.34073" d="M592.568,-528.746C592.568,-519.218 593.472,-507.152 594.939,-495.815"/>
<polygon fill="green" stroke="green" stroke-width="0.34073" points="598.434,-496.105 596.435,-485.701 591.509,-495.081 598.434,-496.105"/>
</g>
<!-- 7556 -->
<g id="node10" class="node"><title>7556</title>
<ellipse fill="white" stroke="black" cx="713.296" cy="-204.229" rx="25" ry="25"/>
<text text-anchor="middle" x="713.296" y="-202.029" font-family="Times,serif" font-size="9.00">7556</text>
</g>
<!-- 3673 -->
<g id="node18" class="node"><title>3673</title>
<ellipse fill="white" stroke="black" cx="715.296" cy="-113.075" rx="25" ry="25"/>
<text text-anchor="middle" x="715.296" y="-110.875" font-family="Times,serif" font-size="9.00">3673</text>
</g>
<!-- 7556&#45;&gt;3673 -->
<g id="edge3" class="edge"><title>7556&#45;&gt;3673</title>
<path fill="none" stroke="green" stroke-width="0.541621" d="M713.832,-179.337C714.047,-169.743 714.299,-158.507 714.533,-148.088"/>
<polygon fill="green" stroke="green" stroke-width="0.541621" points="718.033,-148.108 714.758,-138.032 711.035,-147.951 718.033,-148.108"/>
</g>
<!-- 165&#45;&gt;ux -->
<g id="edge34" class="edge"><title>165&#45;&gt;ux</title>
<path fill="none" stroke="red" stroke-width="0.177414" d="M458.87,-438.237C452.873,-403.454 439.911,-329.753 427.296,-267.806 424.905,-256.067 422.051,-243.14 419.545,-232.098"/>
<polygon fill="red" stroke="red" stroke-width="0.177414" points="422.919,-231.156 417.275,-222.189 416.096,-232.718 422.919,-231.156"/>
</g>
<!-- 3442 -->
<g id="node14" class="node"><title>3442</title>
<ellipse fill="white" stroke="black" cx="542.296" cy="-370.981" rx="25" ry="25"/>
<text text-anchor="middle" x="542.296" y="-368.781" font-family="Times,serif" font-size="9.00">3442</text>
</g>
<!-- 165&#45;&gt;3442 -->
<g id="edge14" class="edge"><title>165&#45;&gt;3442</title>
<path fill="none" stroke="green" stroke-width="0.249307" d="M476.231,-443.27C487.972,-430.6 505.021,-412.204 518.858,-397.272"/>
<polygon fill="green" stroke="green" stroke-width="0.249307" points="521.526,-399.543 525.756,-389.829 516.392,-394.784 521.526,-399.543"/>
</g>
<!-- 4073&#45;&gt;wz -->
<g id="edge27" class="edge"><title>4073&#45;&gt;wz</title>
<path fill="none" stroke="red" stroke-width="0.784703" d="M604.889,-608.427C603.47,-598.551 601.811,-587.006 600.331,-576.709"/>
<polygon fill="red" stroke="red" stroke-width="0.784703" points="603.758,-575.952 598.871,-566.552 596.829,-576.948 603.758,-575.952"/>
</g>
<!-- 10286 -->
<g id="node13" class="node"><title>10286</title>
<ellipse fill="white" stroke="black" cx="602.296" cy="-204.229" rx="27.6545" ry="27.6545"/>
<text text-anchor="middle" x="602.296" y="-202.029" font-family="Times,serif" font-size="9.00">10286</text>
</g>
<!-- 10102 -->
<g id="node16" class="node"><title>10102</title>
<ellipse fill="white" stroke="black" cx="602.296" cy="-113.075" rx="27.6545" ry="27.6545"/>
<text text-anchor="middle" x="602.296" y="-110.875" font-family="Times,serif" font-size="9.00">10102</text>
</g>
<!-- 10286&#45;&gt;10102 -->
<g id="edge21" class="edge"><title>10286&#45;&gt;10102</title>
<path fill="none" stroke="green" stroke-width="0.159834" d="M602.296,-176.48C602.296,-168.458 602.296,-159.513 602.296,-150.958"/>
<polygon fill="green" stroke="green" stroke-width="0.159834" points="605.796,-150.805 602.296,-140.805 598.796,-150.805 605.796,-150.805"/>
</g>
<!-- 3442&#45;&gt;124 -->
<g id="edge4" class="edge"><title>3442&#45;&gt;124</title>
<path fill="none" stroke="green" stroke-width="0.160112" d="M551.772,-347.707C558.673,-336.66 567.993,-323.352 576.565,-312.304"/>
<polygon fill="green" stroke="green" stroke-width="0.160112" points="579.401,-314.362 582.923,-304.37 573.938,-309.985 579.401,-314.362"/>
</g>
<!-- 10387&#45;&gt;wz -->
<g id="edge31" class="edge"><title>10387&#45;&gt;wz</title>
<path fill="none" stroke="green" stroke-width="0.390937" d="M608.813,-486.846C608.339,-497.281 607.099,-509.245 605.408,-519.717"/>
<polygon fill="green" stroke="green" stroke-width="0.390937" points="601.961,-519.107 603.578,-529.578 608.844,-520.384 601.961,-519.107"/>
</g>
<!-- 10102&#45;&gt;124 -->
<g id="edge20" class="edge"><title>10102&#45;&gt;124</title>
<path fill="none" stroke="red" stroke-width="0.2068" d="M585.835,-135.354C577.952,-146.891 569.358,-161.8 565.296,-176.652 558.829,-200.296 558.866,-208.151 565.296,-231.806 568.31,-242.895 574.126,-254.032 580.046,-263.434"/>
<polygon fill="red" stroke="red" stroke-width="0.2068" points="577.204,-265.481 585.665,-271.858 583.027,-261.597 577.204,-265.481"/>
</g>
<!-- 7647 -->
<g id="node21" class="node"><title>7647</title>
<ellipse fill="white" stroke="black" cx="658.296" cy="-24.7487" rx="25" ry="25"/>
<text text-anchor="middle" x="658.296" y="-22.5487" font-family="Times,serif" font-size="9.00">7647</text>
</g>
<!-- 10102&#45;&gt;7647 -->
<g id="edge22" class="edge"><title>10102&#45;&gt;7647</title>
<path fill="none" stroke="green" stroke-width="0.263043" d="M617.009,-89.3935C623.913,-78.7508 632.22,-65.9453 639.567,-54.6197"/>
<polygon fill="green" stroke="green" stroke-width="0.263043" points="642.702,-56.2178 645.208,-45.9236 636.83,-52.4082 642.702,-56.2178"/>
</g>
<!-- 4310&#45;&gt;ux -->
<g id="edge7" class="edge"><title>4310&#45;&gt;ux</title>
<path fill="none" stroke="red" stroke-width="0.150213" d="M132.526,-522.873C134.064,-482.654 142.289,-400.269 182.296,-346.233 235.673,-274.137 337.914,-231.152 386.448,-213.956"/>
<polygon fill="red" stroke="red" stroke-width="0.150213" points="387.641,-217.247 395.953,-210.677 385.358,-210.63 387.641,-217.247"/>
</g>
<!-- 3673&#45;&gt;wz -->
<g id="edge19" class="edge"><title>3673&#45;&gt;wz</title>
<path fill="none" stroke="red" stroke-width="0.443696" d="M727.438,-134.701C744.97,-166.49 775.296,-229.88 775.296,-288.019 775.296,-371.981 775.296,-371.981 775.296,-371.981 775.296,-456.036 672.93,-512.841 623.021,-535.542"/>
<polygon fill="red" stroke="red" stroke-width="0.443696" points="621.516,-532.381 613.785,-539.625 624.346,-538.783 621.516,-532.381"/>
</g>
<!-- 251&#45;&gt;uy -->
<g id="edge32" class="edge"><title>251&#45;&gt;uy</title>
<path fill="none" stroke="green" stroke-width="0.2614" d="M208.985,-349.779C204.157,-320.317 195.171,-265.485 189.761,-232.478"/>
<polygon fill="green" stroke="green" stroke-width="0.2614" points="193.212,-231.89 188.141,-222.588 186.304,-233.022 193.212,-231.89"/>
</g>
<!-- 124&#45;&gt;ux -->
<g id="edge6" class="edge"><title>124&#45;&gt;ux</title>
<path fill="none" stroke="green" stroke-width="0.230317" d="M579.194,-279.471C545.805,-264.529 476.803,-233.65 439.165,-216.806"/>
<polygon fill="green" stroke="green" stroke-width="0.230317" points="440.431,-213.538 429.874,-212.648 437.572,-219.927 440.431,-213.538"/>
</g>
<!-- 124&#45;&gt;uy -->
<g id="edge48" class="edge"><title>124&#45;&gt;uy</title>
<path fill="none" stroke="green" stroke-width="0.165801" d="M577.532,-283.857C509.262,-270.171 291.651,-226.549 213.543,-210.892"/>
<polygon fill="green" stroke="green" stroke-width="0.165801" points="213.971,-207.408 203.478,-208.874 212.595,-214.271 213.971,-207.408"/>
</g>
<!-- 124&#45;&gt;7556 -->
<g id="edge41" class="edge"><title>124&#45;&gt;7556</title>
<path fill="none" stroke="green" stroke-width="0.316868" d="M615.264,-275.803C633.687,-262.541 663.403,-241.147 685.295,-225.387"/>
<polygon fill="green" stroke="green" stroke-width="0.316868" points="687.484,-228.124 693.555,-219.441 683.395,-222.443 687.484,-228.124"/>
</g>
<!-- 124&#45;&gt;10286 -->
<g id="edge33" class="edge"><title>124&#45;&gt;10286</title>
<path fill="none" stroke="green" stroke-width="0.437096" d="M599.285,-267.554C599.657,-259.845 600.093,-250.821 600.516,-242.072"/>
<polygon fill="green" stroke="green" stroke-width="0.437096" points="604.014,-242.18 601.001,-232.023 597.023,-241.842 604.014,-242.18"/>
</g>
<!-- 124&#45;&gt;3442 -->
<g id="edge24" class="edge"><title>124&#45;&gt;3442</title>
<path fill="none" stroke="green" stroke-width="0.115837" d="M590.899,-308.912C584.39,-319.682 575.004,-333.311 566.13,-344.96"/>
<polygon fill="green" stroke="green" stroke-width="0.115837" points="563.224,-342.994 559.808,-353.023 568.732,-347.313 563.224,-342.994"/>
</g>
<!-- 124&#45;&gt;7647 -->
<g id="edge40" class="edge"><title>124&#45;&gt;7647</title>
<path fill="none" stroke="green" stroke-width="0.203663" d="M612.645,-273.14C621.953,-262.517 633.407,-247.401 639.296,-231.806 661.011,-174.299 662.186,-101.612 660.577,-59.7282"/>
<polygon fill="green" stroke="green" stroke-width="0.203663" points="664.064,-59.3486 660.106,-49.5209 657.071,-59.6718 664.064,-59.3486"/>
</g>
<!-- 7647&#45;&gt;wz -->
<g id="edge17" class="edge"><title>7647&#45;&gt;wz</title>
<path fill="none" stroke="red" stroke-width="0.528642" d="M680.35,-36.2447C700.284,-46.5846 729.459,-63.941 749.296,-85.4975 789.624,-129.323 813.296,-143.672 813.296,-203.229 813.296,-371.981 813.296,-371.981 813.296,-371.981 813.296,-431.097 791.089,-448.307 746.296,-486.884 710.647,-517.586 657.268,-533.713 624.73,-541.179"/>
<polygon fill="red" stroke="red" stroke-width="0.528642" points="623.975,-537.761 614.947,-543.306 625.462,-544.601 623.975,-537.761"/>
</g>
</g>
</svg>
