<?xml version="1.0" encoding="UTF-8" standalone="no"?>
<!DOCTYPE svg PUBLIC "-//W3C//DTD SVG 1.1//EN"
 "http://www.w3.org/Graphics/SVG/1.1/DTD/svg11.dtd">
<!-- Generated by graphviz version 2.38.0 (20140413.2041)
 -->
<!-- Title: %3 Pages: 1 -->
<svg width="973pt" height="483pt"
 viewBox="0.00 0.00 973.15 483.19" xmlns="http://www.w3.org/2000/svg" xmlns:xlink="http://www.w3.org/1999/xlink">
<g id="graph0" class="graph" transform="scale(1 1) rotate(0) translate(4 479.186)">
<title>%3</title>
<polygon fill="white" stroke="none" points="-4,4 -4,-479.186 969.154,-479.186 969.154,4 -4,4"/>
<!-- ext -->
<g id="node1" class="node"><title>ext</title>
<polygon fill="lightgray" stroke="black" points="478.077,-475.186 451.077,-475.186 451.077,-457.186 478.077,-457.186 478.077,-475.186"/>
<text text-anchor="middle" x="464.577" y="-463.986" font-family="Times,serif" font-size="9.00">ext</text>
</g>
<!-- 39598 -->
<g id="node14" class="node"><title>39598</title>
<ellipse fill="white" stroke="black" cx="387.577" cy="-390.073" rx="27.6545" ry="27.6545"/>
<text text-anchor="middle" x="387.577" y="-387.873" font-family="Times,serif" font-size="9.00">39598</text>
</g>
<!-- ext&#45;&gt;39598 -->
<g id="edge24" class="edge"><title>ext&#45;&gt;39598</title>
<path fill="none" stroke="red" stroke-width="0.197161" d="M456.043,-456.971C446.039,-447.343 428.973,-430.917 414.383,-416.874"/>
<polygon fill="red" stroke="red" stroke-width="0.197161" points="416.661,-414.209 407.029,-409.796 411.807,-419.252 416.661,-414.209"/>
</g>
<!-- 7602 -->
<g id="node18" class="node"><title>7602</title>
<ellipse fill="white" stroke="black" cx="414.577" cy="-24.7487" rx="25" ry="25"/>
<text text-anchor="middle" x="414.577" y="-22.5487" font-family="Times,serif" font-size="9.00">7602</text>
</g>
<!-- ext&#45;&gt;7602 -->
<g id="edge14" class="edge"><title>ext&#45;&gt;7602</title>
<path fill="none" stroke="green" stroke-width="0.115446" d="M450.921,-463.021C398.163,-453.809 210.577,-412.867 210.577,-296.383 210.577,-296.383 210.577,-296.383 210.577,-203.229 210.577,-113.588 324.079,-58.9282 381.759,-36.9388"/>
<polygon fill="green" stroke="green" stroke-width="0.115446" points="383.014,-40.2061 391.176,-33.4501 380.583,-33.6421 383.014,-40.2061"/>
</g>
<!-- 35925 -->
<g id="node20" class="node"><title>35925</title>
<ellipse fill="white" stroke="black" cx="523.577" cy="-204.229" rx="27.6545" ry="27.6545"/>
<text text-anchor="middle" x="523.577" y="-202.029" font-family="Times,serif" font-size="9.00">35925</text>
</g>
<!-- ext&#45;&gt;35925 -->
<g id="edge2" class="edge"><title>ext&#45;&gt;35925</title>
<path fill="none" stroke="green" stroke-width="0.588524" d="M475.162,-457.042C484.676,-449.05 498.116,-435.938 504.577,-421.186 530.297,-362.458 530.201,-286.268 527.257,-241.857"/>
<polygon fill="green" stroke="green" stroke-width="0.588524" points="530.743,-241.525 526.506,-231.814 523.762,-242.047 530.743,-241.525"/>
</g>
<!-- 1146 -->
<g id="node23" class="node"><title>1146</title>
<ellipse fill="white" stroke="black" cx="522.577" cy="-113.075" rx="25" ry="25"/>
<text text-anchor="middle" x="522.577" y="-110.875" font-family="Times,serif" font-size="9.00">1146</text>
</g>
<!-- ext&#45;&gt;1146 -->
<g id="edge36" class="edge"><title>ext&#45;&gt;1146</title>
<path fill="none" stroke="red" stroke-width="0.338583" d="M478.086,-459.429C492.523,-452.536 514.905,-439.572 526.577,-421.186 572.408,-348.99 552.992,-316.984 560.577,-231.806 562.752,-207.39 567.183,-200.258 560.577,-176.652 557.072,-164.125 550.296,-151.613 543.424,-141.105"/>
<polygon fill="red" stroke="red" stroke-width="0.338583" points="546.255,-139.045 537.7,-132.795 540.49,-143.016 546.255,-139.045"/>
</g>
<!-- 102207 -->
<g id="node27" class="node"><title>102207</title>
<ellipse fill="white" stroke="black" cx="464.577" cy="-390.073" rx="31.2258" ry="31.2258"/>
<text text-anchor="middle" x="464.577" y="-387.873" font-family="Times,serif" font-size="9.00">102207</text>
</g>
<!-- ext&#45;&gt;102207 -->
<g id="edge37" class="edge"><title>ext&#45;&gt;102207</title>
<path fill="none" stroke="green" stroke-width="0.199605" d="M464.577,-456.971C464.577,-450.594 464.577,-441.234 464.577,-431.559"/>
<polygon fill="green" stroke="green" stroke-width="0.199605" points="468.077,-431.475 464.577,-421.475 461.077,-431.475 468.077,-431.475"/>
</g>
<!-- eyt -->
<g id="node2" class="node"><title>eyt</title>
<polygon fill="lightgray" stroke="black" points="753.077,-213.229 726.077,-213.229 726.077,-195.229 753.077,-195.229 753.077,-213.229"/>
<text text-anchor="middle" x="739.577" y="-202.029" font-family="Times,serif" font-size="9.00">eyt</text>
</g>
<!-- uy -->
<g id="node8" class="node"><title>uy</title>
<ellipse fill="lightblue" stroke="black" cx="739.577" cy="-24.7487" rx="18.2703" ry="18.2703"/>
<text text-anchor="middle" x="739.577" y="-22.5487" font-family="Times,serif" font-size="9.00">uy</text>
</g>
<!-- eyt&#45;&gt;uy -->
<g id="edge26" class="edge"><title>eyt&#45;&gt;uy</title>
<path fill="none" stroke="green" stroke-width="0.802301" d="M741.113,-195.168C743.291,-183.29 747.167,-160.358 748.577,-140.652 750.326,-116.201 750.408,-109.942 748.577,-85.4975 747.775,-74.7834 746.174,-63.0785 744.542,-52.8906"/>
<polygon fill="green" stroke="green" stroke-width="0.802301" points="747.976,-52.2069 742.862,-42.9281 741.073,-53.3708 747.976,-52.2069"/>
</g>
<!-- 34332 -->
<g id="node25" class="node"><title>34332</title>
<ellipse fill="white" stroke="black" cx="711.577" cy="-113.075" rx="27.6545" ry="27.6545"/>
<text text-anchor="middle" x="711.577" y="-110.875" font-family="Times,serif" font-size="9.00">34332</text>
</g>
<!-- eyt&#45;&gt;34332 -->
<g id="edge8" class="edge"><title>eyt&#45;&gt;34332</title>
<path fill="none" stroke="green" stroke-width="0.514926" d="M736.993,-195.001C733.711,-184.551 727.839,-165.854 722.566,-149.063"/>
<polygon fill="green" stroke="green" stroke-width="0.514926" points="725.89,-147.965 719.554,-139.474 719.211,-150.063 725.89,-147.965"/>
</g>
<!-- sf -->
<g id="node3" class="node"><title>sf</title>
<polygon fill="lightgray" stroke="black" points="109.077,-213.229 86.0772,-213.229 86.0772,-195.229 109.077,-195.229 109.077,-213.229"/>
<text text-anchor="middle" x="97.5772" y="-202.029" font-family="Times,serif" font-size="9.00">sf</text>
</g>
<!-- 5657 -->
<g id="node22" class="node"><title>5657</title>
<ellipse fill="white" stroke="black" cx="97.5772" cy="-113.075" rx="25" ry="25"/>
<text text-anchor="middle" x="97.5772" y="-110.875" font-family="Times,serif" font-size="9.00">5657</text>
</g>
<!-- sf&#45;&gt;5657 -->
<g id="edge19" class="edge"><title>sf&#45;&gt;5657</title>
<path fill="none" stroke="green" stroke-width="0.786193" d="M97.5772,-195.001C97.5772,-184.363 97.5772,-165.179 97.5772,-148.159"/>
<polygon fill="green" stroke="green" stroke-width="0.786193" points="101.077,-147.937 97.5772,-137.937 94.0773,-147.937 101.077,-147.937"/>
</g>
<!-- sl -->
<g id="node4" class="node"><title>sl</title>
<polygon fill="lightgray" stroke="black" points="631.077,-213.229 608.077,-213.229 608.077,-195.229 631.077,-195.229 631.077,-213.229"/>
<text text-anchor="middle" x="619.577" y="-202.029" font-family="Times,serif" font-size="9.00">sl</text>
</g>
<!-- sl&#45;&gt;uy -->
<g id="edge35" class="edge"><title>sl&#45;&gt;uy</title>
<path fill="none" stroke="green" stroke-width="1.29257" d="M622.097,-195.225C628.603,-175.341 647.38,-122.624 674.577,-85.4975 686.579,-69.1138 703.57,-53.6839 717.17,-42.6094"/>
<polygon fill="green" stroke="green" stroke-width="1.29257" points="719.46,-45.2605 725.125,-36.3072 715.113,-39.7736 719.46,-45.2605"/>
</g>
<!-- 5102 -->
<g id="node15" class="node"><title>5102</title>
<ellipse fill="white" stroke="black" cx="522.577" cy="-24.7487" rx="25" ry="25"/>
<text text-anchor="middle" x="522.577" y="-22.5487" font-family="Times,serif" font-size="9.00">5102</text>
</g>
<!-- sl&#45;&gt;5102 -->
<g id="edge10" class="edge"><title>sl&#45;&gt;5102</title>
<path fill="none" stroke="green" stroke-width="0.393308" d="M620.028,-195.125C620.767,-175.012 620.373,-121.814 598.577,-85.4975 587.646,-67.2839 568.948,-52.4758 552.834,-42.1576"/>
<polygon fill="green" stroke="green" stroke-width="0.393308" points="554.572,-39.1181 544.213,-36.8941 550.924,-45.0925 554.572,-39.1181"/>
</g>
<!-- sl&#45;&gt;1146 -->
<g id="edge29" class="edge"><title>sl&#45;&gt;1146</title>
<path fill="none" stroke="green" stroke-width="0.152657" d="M611.991,-195.169C606.884,-189.819 599.944,-182.696 593.577,-176.652 579.034,-162.845 562.22,-147.98 548.606,-136.204"/>
<polygon fill="green" stroke="green" stroke-width="0.152657" points="550.864,-133.53 541.002,-129.659 546.298,-138.835 550.864,-133.53"/>
</g>
<!-- sr -->
<g id="node5" class="node"><title>sr</title>
<polygon fill="lightgray" stroke="black" points="819.077,-122.075 796.077,-122.075 796.077,-104.075 819.077,-104.075 819.077,-122.075"/>
<text text-anchor="middle" x="807.577" y="-110.875" font-family="Times,serif" font-size="9.00">sr</text>
</g>
<!-- sr&#45;&gt;uy -->
<g id="edge27" class="edge"><title>sr&#45;&gt;uy</title>
<path fill="none" stroke="red" stroke-width="0.568681" d="M801.057,-103.797C791.058,-91.1042 771.59,-66.389 757.229,-48.1573"/>
<polygon fill="red" stroke="red" stroke-width="0.568681" points="759.59,-45.4989 750.653,-39.8091 754.091,-49.8305 759.59,-45.4989"/>
</g>
<!-- &#45;6 -->
<g id="node6" class="node"><title>&#45;6</title>
<polygon fill="lightgray" stroke="black" points="589.577,-122.075 565.577,-122.075 565.577,-104.075 589.577,-104.075 589.577,-122.075"/>
<text text-anchor="middle" x="577.577" y="-110.875" font-family="Times,serif" font-size="9.00">&#45;6</text>
</g>
<!-- &#45;6&#45;&gt;uy -->
<g id="edge23" class="edge"><title>&#45;6&#45;&gt;uy</title>
<path fill="none" stroke="red" stroke-width="1.12745" d="M589.753,-105.586C616.12,-91.5363 678.96,-58.0502 714.31,-39.213"/>
<polygon fill="red" stroke="red" stroke-width="1.12745" points="716.319,-42.1084 723.498,-34.3168 713.027,-35.9307 716.319,-42.1084"/>
</g>
<!-- &#45;6&#45;&gt;7602 -->
<g id="edge20" class="edge"><title>&#45;6&#45;&gt;7602</title>
<path fill="none" stroke="green" stroke-width="0.176503" d="M572.586,-103.719C568.796,-97.9624 563.13,-90.4811 556.577,-85.4975 538.772,-71.9564 483.608,-50.6016 447.509,-37.4255"/>
<polygon fill="green" stroke="green" stroke-width="0.176503" points="448.474,-34.0526 437.88,-33.9394 446.091,-40.6345 448.474,-34.0526"/>
</g>
<!-- ux -->
<g id="node7" class="node"><title>ux</title>
<ellipse fill="lightblue" stroke="black" cx="161.577" cy="-24.7487" rx="18.2703" ry="18.2703"/>
<text text-anchor="middle" x="161.577" y="-22.5487" font-family="Times,serif" font-size="9.00">ux</text>
</g>
<!-- uy&#45;&gt;uy -->
<g id="edge21" class="edge"><title>uy&#45;&gt;uy</title>
<path fill="none" stroke="green" stroke-width="0.574593" d="M752.256,-38.3121C763.702,-44.9105 775.962,-40.3894 775.962,-24.7487 775.962,-13.6292 769.765,-8.12988 762.07,-8.25068"/>
<polygon fill="green" stroke="green" stroke-width="0.574593" points="760.834,-4.96707 752.256,-11.1854 762.84,-11.6736 760.834,-4.96707"/>
</g>
<!-- 24897 -->
<g id="node9" class="node"><title>24897</title>
<ellipse fill="white" stroke="black" cx="864.577" cy="-113.075" rx="27.6545" ry="27.6545"/>
<text text-anchor="middle" x="864.577" y="-110.875" font-family="Times,serif" font-size="9.00">24897</text>
</g>
<!-- 24897&#45;&gt;uy -->
<g id="edge38" class="edge"><title>24897&#45;&gt;uy</title>
<path fill="none" stroke="red" stroke-width="0.102775" d="M842.989,-95.895C838.268,-92.4248 833.277,-88.8077 828.577,-85.4975 806.68,-70.0758 781.276,-53.1109 763.228,-41.2115"/>
<polygon fill="red" stroke="red" stroke-width="0.102775" points="764.797,-38.0543 754.518,-35.4856 760.951,-43.9036 764.797,-38.0543"/>
</g>
<!-- 711 -->
<g id="node10" class="node"><title>711</title>
<ellipse fill="white" stroke="black" cx="161.577" cy="-113.075" rx="21.4286" ry="21.4286"/>
<text text-anchor="middle" x="161.577" y="-110.875" font-family="Times,serif" font-size="9.00">711</text>
</g>
<!-- 711&#45;&gt;ux -->
<g id="edge15" class="edge"><title>711&#45;&gt;ux</title>
<path fill="none" stroke="green" stroke-width="0.129974" d="M161.577,-91.6166C161.577,-80.202 161.577,-65.8259 161.577,-53.4189"/>
<polygon fill="green" stroke="green" stroke-width="0.129974" points="165.077,-53.1466 161.577,-43.1467 158.077,-53.1467 165.077,-53.1466"/>
</g>
<!-- 13544 -->
<g id="node11" class="node"><title>13544</title>
<ellipse fill="white" stroke="black" cx="937.577" cy="-113.075" rx="27.6545" ry="27.6545"/>
<text text-anchor="middle" x="937.577" y="-110.875" font-family="Times,serif" font-size="9.00">13544</text>
</g>
<!-- 13544&#45;&gt;uy -->
<g id="edge4" class="edge"><title>13544&#45;&gt;uy</title>
<path fill="none" stroke="green" stroke-width="0.301067" d="M916.534,-95.0138C911.78,-91.5986 906.637,-88.2265 901.577,-85.4975 856.819,-61.3567 800.243,-42.9735 767.165,-33.3178"/>
<polygon fill="green" stroke="green" stroke-width="0.301067" points="767.873,-29.88 757.296,-30.4933 765.947,-36.6098 767.873,-29.88"/>
</g>
<!-- 31626 -->
<g id="node12" class="node"><title>31626</title>
<ellipse fill="white" stroke="black" cx="377.577" cy="-204.229" rx="27.6545" ry="27.6545"/>
<text text-anchor="middle" x="377.577" y="-202.029" font-family="Times,serif" font-size="9.00">31626</text>
</g>
<!-- 27824 -->
<g id="node17" class="node"><title>27824</title>
<ellipse fill="white" stroke="black" cx="377.577" cy="-113.075" rx="27.6545" ry="27.6545"/>
<text text-anchor="middle" x="377.577" y="-110.875" font-family="Times,serif" font-size="9.00">27824</text>
</g>
<!-- 31626&#45;&gt;27824 -->
<g id="edge5" class="edge"><title>31626&#45;&gt;27824</title>
<path fill="none" stroke="green" stroke-width="0.208476" d="M377.577,-176.48C377.577,-168.458 377.577,-159.513 377.577,-150.958"/>
<polygon fill="green" stroke="green" stroke-width="0.208476" points="381.077,-150.805 377.577,-140.805 374.077,-150.805 381.077,-150.805"/>
</g>
<!-- 18221 -->
<g id="node13" class="node"><title>18221</title>
<ellipse fill="white" stroke="black" cx="27.5772" cy="-113.075" rx="27.6545" ry="27.6545"/>
<text text-anchor="middle" x="27.5772" y="-110.875" font-family="Times,serif" font-size="9.00">18221</text>
</g>
<!-- 18221&#45;&gt;ux -->
<g id="edge12" class="edge"><title>18221&#45;&gt;ux</title>
<path fill="none" stroke="red" stroke-width="0.342437" d="M49.0572,-95.738C53.7848,-92.2776 58.8058,-88.7041 63.5772,-85.4975 88.1346,-68.9935 117.174,-51.534 137.234,-39.7797"/>
<polygon fill="red" stroke="red" stroke-width="0.342437" points="139.158,-42.7096 146.036,-34.6509 135.634,-36.6615 139.158,-42.7096"/>
</g>
<!-- 23128 -->
<g id="node21" class="node"><title>23128</title>
<ellipse fill="white" stroke="black" cx="450.577" cy="-204.229" rx="27.6545" ry="27.6545"/>
<text text-anchor="middle" x="450.577" y="-202.029" font-family="Times,serif" font-size="9.00">23128</text>
</g>
<!-- 39598&#45;&gt;23128 -->
<g id="edge17" class="edge"><title>39598&#45;&gt;23128</title>
<path fill="none" stroke="green" stroke-width="0.272456" d="M393.314,-362.62C399.046,-337.758 408.702,-299.705 420.577,-267.806 424.265,-257.898 428.95,-247.43 433.515,-237.95"/>
<polygon fill="green" stroke="green" stroke-width="0.272456" points="436.715,-239.374 437.998,-228.857 430.437,-236.278 436.715,-239.374"/>
</g>
<!-- 37840 -->
<g id="node16" class="node"><title>37840</title>
<ellipse fill="white" stroke="black" cx="457.577" cy="-295.383" rx="27.6545" ry="27.6545"/>
<text text-anchor="middle" x="457.577" y="-293.183" font-family="Times,serif" font-size="9.00">37840</text>
</g>
<!-- 37840&#45;&gt;23128 -->
<g id="edge16" class="edge"><title>37840&#45;&gt;23128</title>
<path fill="none" stroke="green" stroke-width="0.411052" d="M455.477,-267.634C454.847,-259.612 454.145,-250.667 453.473,-242.113"/>
<polygon fill="green" stroke="green" stroke-width="0.411052" points="456.948,-241.655 452.676,-231.959 449.969,-242.203 456.948,-241.655"/>
</g>
<!-- 27824&#45;&gt;7602 -->
<g id="edge28" class="edge"><title>27824&#45;&gt;7602</title>
<path fill="none" stroke="green" stroke-width="0.11045" d="M388.081,-87.568C392.161,-78.0488 396.883,-67.0304 401.202,-56.9555"/>
<polygon fill="green" stroke="green" stroke-width="0.11045" points="404.461,-58.2351 405.184,-47.6649 398.027,-55.4774 404.461,-58.2351"/>
</g>
<!-- 9362 -->
<g id="node19" class="node"><title>9362</title>
<ellipse fill="white" stroke="black" cx="304.577" cy="-295.383" rx="25" ry="25"/>
<text text-anchor="middle" x="304.577" y="-293.183" font-family="Times,serif" font-size="9.00">9362</text>
</g>
<!-- 9362&#45;&gt;ux -->
<g id="edge1" class="edge"><title>9362&#45;&gt;ux</title>
<path fill="none" stroke="green" stroke-width="0.349089" d="M292.105,-273.984C284.781,-261.837 275.448,-246.059 267.577,-231.806 248.786,-197.777 197.959,-97.6988 174.173,-50.6844"/>
<polygon fill="green" stroke="green" stroke-width="0.349089" points="177.165,-48.8448 169.529,-41.5003 170.918,-52.0036 177.165,-48.8448"/>
</g>
<!-- 9362&#45;&gt;31626 -->
<g id="edge30" class="edge"><title>9362&#45;&gt;31626</title>
<path fill="none" stroke="green" stroke-width="0.454979" d="M320.059,-275.476C329.902,-263.455 342.839,-247.655 353.95,-234.085"/>
<polygon fill="green" stroke="green" stroke-width="0.454979" points="356.961,-235.932 360.589,-225.977 351.545,-231.497 356.961,-235.932"/>
</g>
<!-- 43067 -->
<g id="node24" class="node"><title>43067</title>
<ellipse fill="white" stroke="black" cx="304.577" cy="-204.229" rx="27.6545" ry="27.6545"/>
<text text-anchor="middle" x="304.577" y="-202.029" font-family="Times,serif" font-size="9.00">43067</text>
</g>
<!-- 9362&#45;&gt;43067 -->
<g id="edge6" class="edge"><title>9362&#45;&gt;43067</title>
<path fill="none" stroke="red" stroke-width="0.334142" d="M304.577,-270.492C304.577,-261.78 304.577,-251.713 304.577,-242.134"/>
<polygon fill="red" stroke="red" stroke-width="0.334142" points="308.077,-242.018 304.577,-232.018 301.077,-242.018 308.077,-242.018"/>
</g>
<!-- 35925&#45;&gt;1146 -->
<g id="edge32" class="edge"><title>35925&#45;&gt;1146</title>
<path fill="none" stroke="red" stroke-width="0.235327" d="M523.277,-176.48C523.178,-167.61 523.066,-157.614 522.961,-148.263"/>
<polygon fill="red" stroke="red" stroke-width="0.235327" points="526.458,-148.035 522.846,-138.074 519.459,-148.113 526.458,-148.035"/>
</g>
<!-- 10750 -->
<g id="node26" class="node"><title>10750</title>
<ellipse fill="white" stroke="black" cx="451.577" cy="-113.075" rx="27.6545" ry="27.6545"/>
<text text-anchor="middle" x="451.577" y="-110.875" font-family="Times,serif" font-size="9.00">10750</text>
</g>
<!-- 35925&#45;&gt;10750 -->
<g id="edge34" class="edge"><title>35925&#45;&gt;10750</title>
<path fill="none" stroke="green" stroke-width="0.604707" d="M506.514,-182.101C497.099,-170.442 485.268,-155.793 474.999,-143.077"/>
<polygon fill="green" stroke="green" stroke-width="0.604707" points="477.524,-140.632 468.518,-135.051 472.078,-145.03 477.524,-140.632"/>
</g>
<!-- 23128&#45;&gt;10750 -->
<g id="edge31" class="edge"><title>23128&#45;&gt;10750</title>
<path fill="none" stroke="green" stroke-width="0.142228" d="M450.877,-176.48C450.967,-168.458 451.068,-159.513 451.163,-150.958"/>
<polygon fill="green" stroke="green" stroke-width="0.142228" points="454.665,-150.844 451.277,-140.805 447.665,-150.765 454.665,-150.844"/>
</g>
<!-- 5657&#45;&gt;ux -->
<g id="edge18" class="edge"><title>5657&#45;&gt;ux</title>
<path fill="none" stroke="green" stroke-width="1.25379" d="M112.1,-92.486C121.841,-79.3461 134.7,-62.0017 144.867,-48.2881"/>
<polygon fill="green" stroke="green" stroke-width="1.25379" points="147.956,-49.999 151.1,-39.8814 142.332,-45.8301 147.956,-49.999"/>
</g>
<!-- 1146&#45;&gt;5102 -->
<g id="edge22" class="edge"><title>1146&#45;&gt;5102</title>
<path fill="none" stroke="red" stroke-width="0.407125" d="M522.577,-88.0281C522.577,-79.3287 522.577,-69.331 522.577,-59.9284"/>
<polygon fill="red" stroke="red" stroke-width="0.407125" points="526.077,-59.6663 522.577,-49.6664 519.077,-59.6664 526.077,-59.6663"/>
</g>
<!-- 43067&#45;&gt;27824 -->
<g id="edge7" class="edge"><title>43067&#45;&gt;27824</title>
<path fill="none" stroke="red" stroke-width="0.38891" d="M321.877,-182.101C331.423,-170.442 343.418,-155.793 353.83,-143.077"/>
<polygon fill="red" stroke="red" stroke-width="0.38891" points="356.774,-145.006 360.401,-135.051 351.358,-140.571 356.774,-145.006"/>
</g>
<!-- 34332&#45;&gt;uy -->
<g id="edge9" class="edge"><title>34332&#45;&gt;uy</title>
<path fill="none" stroke="green" stroke-width="0.255898" d="M719.827,-86.6409C723.323,-75.8618 727.398,-63.2971 730.936,-52.3902"/>
<polygon fill="green" stroke="green" stroke-width="0.255898" points="734.37,-53.1453 734.127,-42.5533 727.712,-50.9855 734.37,-53.1453"/>
</g>
<!-- 10750&#45;&gt;ux -->
<g id="edge13" class="edge"><title>10750&#45;&gt;ux</title>
<path fill="none" stroke="green" stroke-width="0.810158" d="M430.537,-94.8292C425.531,-91.3436 420.047,-87.9891 414.577,-85.4975 337.636,-50.4519 237.824,-34.7023 189.814,-28.7747"/>
<polygon fill="green" stroke="green" stroke-width="0.810158" points="190.184,-25.2941 179.842,-27.5942 189.361,-32.2456 190.184,-25.2941"/>
</g>
<!-- 10750&#45;&gt;uy -->
<g id="edge33" class="edge"><title>10750&#45;&gt;uy</title>
<path fill="none" stroke="green" stroke-width="0.691308" d="M472.621,-94.8364C477.627,-91.3505 483.109,-87.9939 488.577,-85.4975 564.722,-50.7327 663.442,-34.8853 711.208,-28.8614"/>
<polygon fill="green" stroke="green" stroke-width="0.691308" points="711.633,-32.3356 721.14,-27.6592 710.792,-25.3863 711.633,-32.3356"/>
</g>
<!-- 10750&#45;&gt;5102 -->
<g id="edge3" class="edge"><title>10750&#45;&gt;5102</title>
<path fill="none" stroke="red" stroke-width="0.299872" d="M468.764,-91.1775C478.393,-79.4707 490.496,-64.7547 500.785,-52.2452"/>
<polygon fill="red" stroke="red" stroke-width="0.299872" points="503.59,-54.3438 507.24,-44.3971 498.184,-49.8972 503.59,-54.3438"/>
</g>
<!-- 10750&#45;&gt;7602 -->
<g id="edge11" class="edge"><title>10750&#45;&gt;7602</title>
<path fill="none" stroke="green" stroke-width="0.107147" d="M441.073,-87.568C436.993,-78.0488 432.271,-67.0304 427.953,-56.9555"/>
<polygon fill="green" stroke="green" stroke-width="0.107147" points="431.127,-55.4774 423.971,-47.6649 424.693,-58.2351 431.127,-55.4774"/>
</g>
<!-- 102207&#45;&gt;37840 -->
<g id="edge25" class="edge"><title>102207&#45;&gt;37840</title>
<path fill="none" stroke="green" stroke-width="0.128432" d="M462.304,-358.979C461.68,-350.712 460.996,-341.654 460.347,-333.06"/>
<polygon fill="green" stroke="green" stroke-width="0.128432" points="463.822,-332.6 459.579,-322.892 456.842,-333.127 463.822,-332.6"/>
</g>
</g>
</svg>
